G04 #@! TF.GenerationSoftware,KiCad,Pcbnew,(5.1.2)-1*
G04 #@! TF.CreationDate,2019-06-30T01:41:10-07:00*
G04 #@! TF.ProjectId,joy,6a6f792e-6b69-4636-9164-5f7063625858,rev?*
G04 #@! TF.SameCoordinates,Original*
G04 #@! TF.FileFunction,Legend,Top*
G04 #@! TF.FilePolarity,Positive*
%FSLAX46Y46*%
G04 Gerber Fmt 4.6, Leading zero omitted, Abs format (unit mm)*
G04 Created by KiCad (PCBNEW (5.1.2)-1) date 2019-06-30 01:41:10*
%MOMM*%
%LPD*%
G04 APERTURE LIST*
%ADD10C,0.120000*%
%ADD11C,0.150000*%
G04 APERTURE END LIST*
D10*
X12010000Y-18087221D02*
X12010000Y-18412779D01*
X10990000Y-18087221D02*
X10990000Y-18412779D01*
X7737221Y-29990000D02*
X8062779Y-29990000D01*
X7737221Y-31010000D02*
X8062779Y-31010000D01*
X20040000Y-34712779D02*
X20040000Y-34387221D01*
X21060000Y-34712779D02*
X21060000Y-34387221D01*
X7737221Y-31690000D02*
X8062779Y-31690000D01*
X7737221Y-32710000D02*
X8062779Y-32710000D01*
X3040000Y-42762779D02*
X3040000Y-42437221D01*
X4060000Y-42762779D02*
X4060000Y-42437221D01*
X21060000Y-37399721D02*
X21060000Y-37725279D01*
X20040000Y-37399721D02*
X20040000Y-37725279D01*
X17337221Y-83490000D02*
X17662779Y-83490000D01*
X17337221Y-84510000D02*
X17662779Y-84510000D01*
X17662779Y-93490000D02*
X17337221Y-93490000D01*
X17662779Y-94510000D02*
X17337221Y-94510000D01*
X21510000Y-17837221D02*
X21510000Y-18162779D01*
X20490000Y-17837221D02*
X20490000Y-18162779D01*
X46837221Y-15010000D02*
X47162779Y-15010000D01*
X46837221Y-13990000D02*
X47162779Y-13990000D01*
X44162779Y-63510000D02*
X43837221Y-63510000D01*
X44162779Y-62490000D02*
X43837221Y-62490000D01*
X22162779Y-62490000D02*
X21837221Y-62490000D01*
X22162779Y-63510000D02*
X21837221Y-63510000D01*
X8387221Y-18410000D02*
X8712779Y-18410000D01*
X8387221Y-17390000D02*
X8712779Y-17390000D01*
X14800000Y-13700000D02*
X14800000Y-11300000D01*
X11700000Y-11300000D02*
X11700000Y-14250000D01*
X10710000Y-10203922D02*
X10710000Y-10721078D01*
X9290000Y-10203922D02*
X9290000Y-10721078D01*
X6870000Y-83900000D02*
X9530000Y-83900000D01*
X6870000Y-76220000D02*
X6870000Y-83900000D01*
X9530000Y-76220000D02*
X9530000Y-83900000D01*
X6870000Y-76220000D02*
X9530000Y-76220000D01*
X6870000Y-74950000D02*
X6870000Y-73620000D01*
X6870000Y-73620000D02*
X8200000Y-73620000D01*
D11*
X42100000Y-88900000D02*
G75*
G03X42100000Y-88900000I-9000000J0D01*
G01*
D10*
X19162779Y-87010000D02*
X18837221Y-87010000D01*
X19162779Y-85990000D02*
X18837221Y-85990000D01*
X19162779Y-90990000D02*
X18837221Y-90990000D01*
X19162779Y-92010000D02*
X18837221Y-92010000D01*
X23662779Y-21510000D02*
X23337221Y-21510000D01*
X23662779Y-20490000D02*
X23337221Y-20490000D01*
X45490000Y-11337221D02*
X45490000Y-11662779D01*
X46510000Y-11337221D02*
X46510000Y-11662779D01*
X39837221Y-64490000D02*
X40162779Y-64490000D01*
X39837221Y-65510000D02*
X40162779Y-65510000D01*
X26162779Y-64490000D02*
X25837221Y-64490000D01*
X26162779Y-65510000D02*
X25837221Y-65510000D01*
X18162779Y-11490000D02*
X17837221Y-11490000D01*
X18162779Y-12510000D02*
X17837221Y-12510000D01*
X6390000Y-8462779D02*
X6390000Y-8137221D01*
X7410000Y-8462779D02*
X7410000Y-8137221D01*
X15610000Y-36840000D02*
X15610000Y-36390000D01*
X15610000Y-36390000D02*
X15160000Y-36390000D01*
X15610000Y-43160000D02*
X15610000Y-43610000D01*
X15610000Y-43610000D02*
X15160000Y-43610000D01*
X8390000Y-36840000D02*
X8390000Y-36390000D01*
X8390000Y-36390000D02*
X8840000Y-36390000D01*
X8390000Y-43160000D02*
X8390000Y-43610000D01*
X8390000Y-43610000D02*
X8840000Y-43610000D01*
X8840000Y-43610000D02*
X8840000Y-44900000D01*
X6840000Y-14300000D02*
X6840000Y-16100000D01*
X10060000Y-16100000D02*
X10060000Y-13650000D01*
X2670000Y-86490000D02*
X5330000Y-86490000D01*
X2670000Y-76270000D02*
X2670000Y-86490000D01*
X5330000Y-76270000D02*
X5330000Y-86490000D01*
X2670000Y-76270000D02*
X5330000Y-76270000D01*
X2670000Y-75000000D02*
X2670000Y-73670000D01*
X2670000Y-73670000D02*
X4000000Y-73670000D01*
X11550000Y-53180000D02*
X11060000Y-53670000D01*
X14450000Y-53180000D02*
X11550000Y-53180000D01*
X14450000Y-53180000D02*
X14940000Y-53670000D01*
X14450000Y-58620000D02*
X11550000Y-58620000D01*
X14450000Y-58620000D02*
X14940000Y-58130000D01*
X10280000Y-54860000D02*
X10280000Y-56940000D01*
X11550000Y-58620000D02*
X11060000Y-58130000D01*
X15720000Y-54860000D02*
X15720000Y-56940000D01*
X13162779Y-48110000D02*
X12837221Y-48110000D01*
X13162779Y-47090000D02*
X12837221Y-47090000D01*
X13162779Y-48790000D02*
X12837221Y-48790000D01*
X13162779Y-49810000D02*
X12837221Y-49810000D01*
X3290000Y-29962779D02*
X3290000Y-29637221D01*
X4310000Y-29962779D02*
X4310000Y-29637221D01*
X4180000Y-25940000D02*
X4180000Y-23860000D01*
X8350000Y-22180000D02*
X8840000Y-22670000D01*
X9620000Y-25940000D02*
X9620000Y-23860000D01*
X5450000Y-22180000D02*
X4960000Y-22670000D01*
X5450000Y-22180000D02*
X8350000Y-22180000D01*
X5450000Y-27620000D02*
X4960000Y-27130000D01*
X5450000Y-27620000D02*
X8350000Y-27620000D01*
X8350000Y-27620000D02*
X8840000Y-27130000D01*
D11*
X11261904Y-8152380D02*
X11261904Y-8961904D01*
X11309523Y-9057142D01*
X11357142Y-9104761D01*
X11452380Y-9152380D01*
X11642857Y-9152380D01*
X11738095Y-9104761D01*
X11785714Y-9057142D01*
X11833333Y-8961904D01*
X11833333Y-8152380D01*
X12261904Y-9104761D02*
X12404761Y-9152380D01*
X12642857Y-9152380D01*
X12738095Y-9104761D01*
X12785714Y-9057142D01*
X12833333Y-8961904D01*
X12833333Y-8866666D01*
X12785714Y-8771428D01*
X12738095Y-8723809D01*
X12642857Y-8676190D01*
X12452380Y-8628571D01*
X12357142Y-8580952D01*
X12309523Y-8533333D01*
X12261904Y-8438095D01*
X12261904Y-8342857D01*
X12309523Y-8247619D01*
X12357142Y-8200000D01*
X12452380Y-8152380D01*
X12690476Y-8152380D01*
X12833333Y-8200000D01*
X13595238Y-8628571D02*
X13738095Y-8676190D01*
X13785714Y-8723809D01*
X13833333Y-8819047D01*
X13833333Y-8961904D01*
X13785714Y-9057142D01*
X13738095Y-9104761D01*
X13642857Y-9152380D01*
X13261904Y-9152380D01*
X13261904Y-8152380D01*
X13595238Y-8152380D01*
X13690476Y-8200000D01*
X13738095Y-8247619D01*
X13785714Y-8342857D01*
X13785714Y-8438095D01*
X13738095Y-8533333D01*
X13690476Y-8580952D01*
X13595238Y-8628571D01*
X13261904Y-8628571D01*
X14785714Y-9152380D02*
X14214285Y-9152380D01*
X14500000Y-9152380D02*
X14500000Y-8152380D01*
X14404761Y-8295238D01*
X14309523Y-8390476D01*
X14214285Y-8438095D01*
X13287142Y-18892857D02*
X13334761Y-18940476D01*
X13382380Y-19083333D01*
X13382380Y-19178571D01*
X13334761Y-19321428D01*
X13239523Y-19416666D01*
X13144285Y-19464285D01*
X12953809Y-19511904D01*
X12810952Y-19511904D01*
X12620476Y-19464285D01*
X12525238Y-19416666D01*
X12430000Y-19321428D01*
X12382380Y-19178571D01*
X12382380Y-19083333D01*
X12430000Y-18940476D01*
X12477619Y-18892857D01*
X13382380Y-17940476D02*
X13382380Y-18511904D01*
X13382380Y-18226190D02*
X12382380Y-18226190D01*
X12525238Y-18321428D01*
X12620476Y-18416666D01*
X12668095Y-18511904D01*
X12382380Y-17607142D02*
X12382380Y-16988095D01*
X12763333Y-17321428D01*
X12763333Y-17178571D01*
X12810952Y-17083333D01*
X12858571Y-17035714D01*
X12953809Y-16988095D01*
X13191904Y-16988095D01*
X13287142Y-17035714D01*
X13334761Y-17083333D01*
X13382380Y-17178571D01*
X13382380Y-17464285D01*
X13334761Y-17559523D01*
X13287142Y-17607142D01*
X7733333Y-29427142D02*
X7685714Y-29474761D01*
X7542857Y-29522380D01*
X7447619Y-29522380D01*
X7304761Y-29474761D01*
X7209523Y-29379523D01*
X7161904Y-29284285D01*
X7114285Y-29093809D01*
X7114285Y-28950952D01*
X7161904Y-28760476D01*
X7209523Y-28665238D01*
X7304761Y-28570000D01*
X7447619Y-28522380D01*
X7542857Y-28522380D01*
X7685714Y-28570000D01*
X7733333Y-28617619D01*
X8685714Y-29522380D02*
X8114285Y-29522380D01*
X8400000Y-29522380D02*
X8400000Y-28522380D01*
X8304761Y-28665238D01*
X8209523Y-28760476D01*
X8114285Y-28808095D01*
X19477142Y-34716666D02*
X19524761Y-34764285D01*
X19572380Y-34907142D01*
X19572380Y-35002380D01*
X19524761Y-35145238D01*
X19429523Y-35240476D01*
X19334285Y-35288095D01*
X19143809Y-35335714D01*
X19000952Y-35335714D01*
X18810476Y-35288095D01*
X18715238Y-35240476D01*
X18620000Y-35145238D01*
X18572380Y-35002380D01*
X18572380Y-34907142D01*
X18620000Y-34764285D01*
X18667619Y-34716666D01*
X18667619Y-34335714D02*
X18620000Y-34288095D01*
X18572380Y-34192857D01*
X18572380Y-33954761D01*
X18620000Y-33859523D01*
X18667619Y-33811904D01*
X18762857Y-33764285D01*
X18858095Y-33764285D01*
X19000952Y-33811904D01*
X19572380Y-34383333D01*
X19572380Y-33764285D01*
X7733333Y-31127142D02*
X7685714Y-31174761D01*
X7542857Y-31222380D01*
X7447619Y-31222380D01*
X7304761Y-31174761D01*
X7209523Y-31079523D01*
X7161904Y-30984285D01*
X7114285Y-30793809D01*
X7114285Y-30650952D01*
X7161904Y-30460476D01*
X7209523Y-30365238D01*
X7304761Y-30270000D01*
X7447619Y-30222380D01*
X7542857Y-30222380D01*
X7685714Y-30270000D01*
X7733333Y-30317619D01*
X8066666Y-30222380D02*
X8685714Y-30222380D01*
X8352380Y-30603333D01*
X8495238Y-30603333D01*
X8590476Y-30650952D01*
X8638095Y-30698571D01*
X8685714Y-30793809D01*
X8685714Y-31031904D01*
X8638095Y-31127142D01*
X8590476Y-31174761D01*
X8495238Y-31222380D01*
X8209523Y-31222380D01*
X8114285Y-31174761D01*
X8066666Y-31127142D01*
X2477142Y-42766666D02*
X2524761Y-42814285D01*
X2572380Y-42957142D01*
X2572380Y-43052380D01*
X2524761Y-43195238D01*
X2429523Y-43290476D01*
X2334285Y-43338095D01*
X2143809Y-43385714D01*
X2000952Y-43385714D01*
X1810476Y-43338095D01*
X1715238Y-43290476D01*
X1620000Y-43195238D01*
X1572380Y-43052380D01*
X1572380Y-42957142D01*
X1620000Y-42814285D01*
X1667619Y-42766666D01*
X1905714Y-41909523D02*
X2572380Y-41909523D01*
X1524761Y-42147619D02*
X2239047Y-42385714D01*
X2239047Y-41766666D01*
X22337142Y-37729166D02*
X22384761Y-37776785D01*
X22432380Y-37919642D01*
X22432380Y-38014880D01*
X22384761Y-38157738D01*
X22289523Y-38252976D01*
X22194285Y-38300595D01*
X22003809Y-38348214D01*
X21860952Y-38348214D01*
X21670476Y-38300595D01*
X21575238Y-38252976D01*
X21480000Y-38157738D01*
X21432380Y-38014880D01*
X21432380Y-37919642D01*
X21480000Y-37776785D01*
X21527619Y-37729166D01*
X21432380Y-36824404D02*
X21432380Y-37300595D01*
X21908571Y-37348214D01*
X21860952Y-37300595D01*
X21813333Y-37205357D01*
X21813333Y-36967261D01*
X21860952Y-36872023D01*
X21908571Y-36824404D01*
X22003809Y-36776785D01*
X22241904Y-36776785D01*
X22337142Y-36824404D01*
X22384761Y-36872023D01*
X22432380Y-36967261D01*
X22432380Y-37205357D01*
X22384761Y-37300595D01*
X22337142Y-37348214D01*
X17333333Y-82927142D02*
X17285714Y-82974761D01*
X17142857Y-83022380D01*
X17047619Y-83022380D01*
X16904761Y-82974761D01*
X16809523Y-82879523D01*
X16761904Y-82784285D01*
X16714285Y-82593809D01*
X16714285Y-82450952D01*
X16761904Y-82260476D01*
X16809523Y-82165238D01*
X16904761Y-82070000D01*
X17047619Y-82022380D01*
X17142857Y-82022380D01*
X17285714Y-82070000D01*
X17333333Y-82117619D01*
X17666666Y-82022380D02*
X18333333Y-82022380D01*
X17904761Y-83022380D01*
X17333333Y-95787142D02*
X17285714Y-95834761D01*
X17142857Y-95882380D01*
X17047619Y-95882380D01*
X16904761Y-95834761D01*
X16809523Y-95739523D01*
X16761904Y-95644285D01*
X16714285Y-95453809D01*
X16714285Y-95310952D01*
X16761904Y-95120476D01*
X16809523Y-95025238D01*
X16904761Y-94930000D01*
X17047619Y-94882380D01*
X17142857Y-94882380D01*
X17285714Y-94930000D01*
X17333333Y-94977619D01*
X17904761Y-95310952D02*
X17809523Y-95263333D01*
X17761904Y-95215714D01*
X17714285Y-95120476D01*
X17714285Y-95072857D01*
X17761904Y-94977619D01*
X17809523Y-94930000D01*
X17904761Y-94882380D01*
X18095238Y-94882380D01*
X18190476Y-94930000D01*
X18238095Y-94977619D01*
X18285714Y-95072857D01*
X18285714Y-95120476D01*
X18238095Y-95215714D01*
X18190476Y-95263333D01*
X18095238Y-95310952D01*
X17904761Y-95310952D01*
X17809523Y-95358571D01*
X17761904Y-95406190D01*
X17714285Y-95501428D01*
X17714285Y-95691904D01*
X17761904Y-95787142D01*
X17809523Y-95834761D01*
X17904761Y-95882380D01*
X18095238Y-95882380D01*
X18190476Y-95834761D01*
X18238095Y-95787142D01*
X18285714Y-95691904D01*
X18285714Y-95501428D01*
X18238095Y-95406190D01*
X18190476Y-95358571D01*
X18095238Y-95310952D01*
X22787142Y-18166666D02*
X22834761Y-18214285D01*
X22882380Y-18357142D01*
X22882380Y-18452380D01*
X22834761Y-18595238D01*
X22739523Y-18690476D01*
X22644285Y-18738095D01*
X22453809Y-18785714D01*
X22310952Y-18785714D01*
X22120476Y-18738095D01*
X22025238Y-18690476D01*
X21930000Y-18595238D01*
X21882380Y-18452380D01*
X21882380Y-18357142D01*
X21930000Y-18214285D01*
X21977619Y-18166666D01*
X22882380Y-17690476D02*
X22882380Y-17500000D01*
X22834761Y-17404761D01*
X22787142Y-17357142D01*
X22644285Y-17261904D01*
X22453809Y-17214285D01*
X22072857Y-17214285D01*
X21977619Y-17261904D01*
X21930000Y-17309523D01*
X21882380Y-17404761D01*
X21882380Y-17595238D01*
X21930000Y-17690476D01*
X21977619Y-17738095D01*
X22072857Y-17785714D01*
X22310952Y-17785714D01*
X22406190Y-17738095D01*
X22453809Y-17690476D01*
X22501428Y-17595238D01*
X22501428Y-17404761D01*
X22453809Y-17309523D01*
X22406190Y-17261904D01*
X22310952Y-17214285D01*
X46357142Y-13427142D02*
X46309523Y-13474761D01*
X46166666Y-13522380D01*
X46071428Y-13522380D01*
X45928571Y-13474761D01*
X45833333Y-13379523D01*
X45785714Y-13284285D01*
X45738095Y-13093809D01*
X45738095Y-12950952D01*
X45785714Y-12760476D01*
X45833333Y-12665238D01*
X45928571Y-12570000D01*
X46071428Y-12522380D01*
X46166666Y-12522380D01*
X46309523Y-12570000D01*
X46357142Y-12617619D01*
X47309523Y-13522380D02*
X46738095Y-13522380D01*
X47023809Y-13522380D02*
X47023809Y-12522380D01*
X46928571Y-12665238D01*
X46833333Y-12760476D01*
X46738095Y-12808095D01*
X47928571Y-12522380D02*
X48023809Y-12522380D01*
X48119047Y-12570000D01*
X48166666Y-12617619D01*
X48214285Y-12712857D01*
X48261904Y-12903333D01*
X48261904Y-13141428D01*
X48214285Y-13331904D01*
X48166666Y-13427142D01*
X48119047Y-13474761D01*
X48023809Y-13522380D01*
X47928571Y-13522380D01*
X47833333Y-13474761D01*
X47785714Y-13427142D01*
X47738095Y-13331904D01*
X47690476Y-13141428D01*
X47690476Y-12903333D01*
X47738095Y-12712857D01*
X47785714Y-12617619D01*
X47833333Y-12570000D01*
X47928571Y-12522380D01*
X43357142Y-64787142D02*
X43309523Y-64834761D01*
X43166666Y-64882380D01*
X43071428Y-64882380D01*
X42928571Y-64834761D01*
X42833333Y-64739523D01*
X42785714Y-64644285D01*
X42738095Y-64453809D01*
X42738095Y-64310952D01*
X42785714Y-64120476D01*
X42833333Y-64025238D01*
X42928571Y-63930000D01*
X43071428Y-63882380D01*
X43166666Y-63882380D01*
X43309523Y-63930000D01*
X43357142Y-63977619D01*
X44309523Y-64882380D02*
X43738095Y-64882380D01*
X44023809Y-64882380D02*
X44023809Y-63882380D01*
X43928571Y-64025238D01*
X43833333Y-64120476D01*
X43738095Y-64168095D01*
X45261904Y-64882380D02*
X44690476Y-64882380D01*
X44976190Y-64882380D02*
X44976190Y-63882380D01*
X44880952Y-64025238D01*
X44785714Y-64120476D01*
X44690476Y-64168095D01*
X21357142Y-64787142D02*
X21309523Y-64834761D01*
X21166666Y-64882380D01*
X21071428Y-64882380D01*
X20928571Y-64834761D01*
X20833333Y-64739523D01*
X20785714Y-64644285D01*
X20738095Y-64453809D01*
X20738095Y-64310952D01*
X20785714Y-64120476D01*
X20833333Y-64025238D01*
X20928571Y-63930000D01*
X21071428Y-63882380D01*
X21166666Y-63882380D01*
X21309523Y-63930000D01*
X21357142Y-63977619D01*
X22309523Y-64882380D02*
X21738095Y-64882380D01*
X22023809Y-64882380D02*
X22023809Y-63882380D01*
X21928571Y-64025238D01*
X21833333Y-64120476D01*
X21738095Y-64168095D01*
X22690476Y-63977619D02*
X22738095Y-63930000D01*
X22833333Y-63882380D01*
X23071428Y-63882380D01*
X23166666Y-63930000D01*
X23214285Y-63977619D01*
X23261904Y-64072857D01*
X23261904Y-64168095D01*
X23214285Y-64310952D01*
X22642857Y-64882380D01*
X23261904Y-64882380D01*
X7907142Y-16827142D02*
X7859523Y-16874761D01*
X7716666Y-16922380D01*
X7621428Y-16922380D01*
X7478571Y-16874761D01*
X7383333Y-16779523D01*
X7335714Y-16684285D01*
X7288095Y-16493809D01*
X7288095Y-16350952D01*
X7335714Y-16160476D01*
X7383333Y-16065238D01*
X7478571Y-15970000D01*
X7621428Y-15922380D01*
X7716666Y-15922380D01*
X7859523Y-15970000D01*
X7907142Y-16017619D01*
X8859523Y-16922380D02*
X8288095Y-16922380D01*
X8573809Y-16922380D02*
X8573809Y-15922380D01*
X8478571Y-16065238D01*
X8383333Y-16160476D01*
X8288095Y-16208095D01*
X9716666Y-16255714D02*
X9716666Y-16922380D01*
X9478571Y-15874761D02*
X9240476Y-16589047D01*
X9859523Y-16589047D01*
X11322380Y-13218095D02*
X10322380Y-13218095D01*
X10322380Y-12980000D01*
X10370000Y-12837142D01*
X10465238Y-12741904D01*
X10560476Y-12694285D01*
X10750952Y-12646666D01*
X10893809Y-12646666D01*
X11084285Y-12694285D01*
X11179523Y-12741904D01*
X11274761Y-12837142D01*
X11322380Y-12980000D01*
X11322380Y-13218095D01*
X11322380Y-11694285D02*
X11322380Y-12265714D01*
X11322380Y-11980000D02*
X10322380Y-11980000D01*
X10465238Y-12075238D01*
X10560476Y-12170476D01*
X10608095Y-12265714D01*
X31909523Y-45728571D02*
X32242857Y-45728571D01*
X32385714Y-46252380D02*
X31909523Y-46252380D01*
X31909523Y-45252380D01*
X32385714Y-45252380D01*
X33385714Y-46157142D02*
X33338095Y-46204761D01*
X33195238Y-46252380D01*
X33100000Y-46252380D01*
X32957142Y-46204761D01*
X32861904Y-46109523D01*
X32814285Y-46014285D01*
X32766666Y-45823809D01*
X32766666Y-45680952D01*
X32814285Y-45490476D01*
X32861904Y-45395238D01*
X32957142Y-45300000D01*
X33100000Y-45252380D01*
X33195238Y-45252380D01*
X33338095Y-45300000D01*
X33385714Y-45347619D01*
X34338095Y-46252380D02*
X33766666Y-46252380D01*
X34052380Y-46252380D02*
X34052380Y-45252380D01*
X33957142Y-45395238D01*
X33861904Y-45490476D01*
X33766666Y-45538095D01*
X11578571Y-10795833D02*
X11578571Y-11129166D01*
X12102380Y-11129166D02*
X11102380Y-11129166D01*
X11102380Y-10652976D01*
X12102380Y-9748214D02*
X12102380Y-10319642D01*
X12102380Y-10033928D02*
X11102380Y-10033928D01*
X11245238Y-10129166D01*
X11340476Y-10224404D01*
X11388095Y-10319642D01*
X7866666Y-72072380D02*
X7866666Y-72786666D01*
X7819047Y-72929523D01*
X7723809Y-73024761D01*
X7580952Y-73072380D01*
X7485714Y-73072380D01*
X8866666Y-73072380D02*
X8295238Y-73072380D01*
X8580952Y-73072380D02*
X8580952Y-72072380D01*
X8485714Y-72215238D01*
X8390476Y-72310476D01*
X8295238Y-72358095D01*
X33552380Y-90138095D02*
X32552380Y-90138095D01*
X33266666Y-89804761D01*
X32552380Y-89471428D01*
X33552380Y-89471428D01*
X33028571Y-88661904D02*
X33028571Y-88995238D01*
X33552380Y-88995238D02*
X32552380Y-88995238D01*
X32552380Y-88519047D01*
X33552380Y-87614285D02*
X33552380Y-88185714D01*
X33552380Y-87900000D02*
X32552380Y-87900000D01*
X32695238Y-87995238D01*
X32790476Y-88090476D01*
X32838095Y-88185714D01*
X31861904Y1347619D02*
X31861904Y2347619D01*
X32195238Y1633333D01*
X32528571Y2347619D01*
X32528571Y1347619D01*
X33338095Y1871428D02*
X33004761Y1871428D01*
X33004761Y1347619D02*
X33004761Y2347619D01*
X33480952Y2347619D01*
X33814285Y2252380D02*
X33861904Y2300000D01*
X33957142Y2347619D01*
X34195238Y2347619D01*
X34290476Y2300000D01*
X34338095Y2252380D01*
X34385714Y2157142D01*
X34385714Y2061904D01*
X34338095Y1919047D01*
X33766666Y1347619D01*
X34385714Y1347619D01*
X18833333Y-88382380D02*
X18500000Y-87906190D01*
X18261904Y-88382380D02*
X18261904Y-87382380D01*
X18642857Y-87382380D01*
X18738095Y-87430000D01*
X18785714Y-87477619D01*
X18833333Y-87572857D01*
X18833333Y-87715714D01*
X18785714Y-87810952D01*
X18738095Y-87858571D01*
X18642857Y-87906190D01*
X18261904Y-87906190D01*
X19785714Y-88382380D02*
X19214285Y-88382380D01*
X19500000Y-88382380D02*
X19500000Y-87382380D01*
X19404761Y-87525238D01*
X19309523Y-87620476D01*
X19214285Y-87668095D01*
X18833333Y-93382380D02*
X18500000Y-92906190D01*
X18261904Y-93382380D02*
X18261904Y-92382380D01*
X18642857Y-92382380D01*
X18738095Y-92430000D01*
X18785714Y-92477619D01*
X18833333Y-92572857D01*
X18833333Y-92715714D01*
X18785714Y-92810952D01*
X18738095Y-92858571D01*
X18642857Y-92906190D01*
X18261904Y-92906190D01*
X19214285Y-92477619D02*
X19261904Y-92430000D01*
X19357142Y-92382380D01*
X19595238Y-92382380D01*
X19690476Y-92430000D01*
X19738095Y-92477619D01*
X19785714Y-92572857D01*
X19785714Y-92668095D01*
X19738095Y-92810952D01*
X19166666Y-93382380D01*
X19785714Y-93382380D01*
X23333333Y-22882380D02*
X23000000Y-22406190D01*
X22761904Y-22882380D02*
X22761904Y-21882380D01*
X23142857Y-21882380D01*
X23238095Y-21930000D01*
X23285714Y-21977619D01*
X23333333Y-22072857D01*
X23333333Y-22215714D01*
X23285714Y-22310952D01*
X23238095Y-22358571D01*
X23142857Y-22406190D01*
X22761904Y-22406190D01*
X23666666Y-21882380D02*
X24285714Y-21882380D01*
X23952380Y-22263333D01*
X24095238Y-22263333D01*
X24190476Y-22310952D01*
X24238095Y-22358571D01*
X24285714Y-22453809D01*
X24285714Y-22691904D01*
X24238095Y-22787142D01*
X24190476Y-22834761D01*
X24095238Y-22882380D01*
X23809523Y-22882380D01*
X23714285Y-22834761D01*
X23666666Y-22787142D01*
X47882380Y-11666666D02*
X47406190Y-12000000D01*
X47882380Y-12238095D02*
X46882380Y-12238095D01*
X46882380Y-11857142D01*
X46930000Y-11761904D01*
X46977619Y-11714285D01*
X47072857Y-11666666D01*
X47215714Y-11666666D01*
X47310952Y-11714285D01*
X47358571Y-11761904D01*
X47406190Y-11857142D01*
X47406190Y-12238095D01*
X47215714Y-10809523D02*
X47882380Y-10809523D01*
X46834761Y-11047619D02*
X47549047Y-11285714D01*
X47549047Y-10666666D01*
X39833333Y-64022380D02*
X39500000Y-63546190D01*
X39261904Y-64022380D02*
X39261904Y-63022380D01*
X39642857Y-63022380D01*
X39738095Y-63070000D01*
X39785714Y-63117619D01*
X39833333Y-63212857D01*
X39833333Y-63355714D01*
X39785714Y-63450952D01*
X39738095Y-63498571D01*
X39642857Y-63546190D01*
X39261904Y-63546190D01*
X40738095Y-63022380D02*
X40261904Y-63022380D01*
X40214285Y-63498571D01*
X40261904Y-63450952D01*
X40357142Y-63403333D01*
X40595238Y-63403333D01*
X40690476Y-63450952D01*
X40738095Y-63498571D01*
X40785714Y-63593809D01*
X40785714Y-63831904D01*
X40738095Y-63927142D01*
X40690476Y-63974761D01*
X40595238Y-64022380D01*
X40357142Y-64022380D01*
X40261904Y-63974761D01*
X40214285Y-63927142D01*
X25833333Y-66882380D02*
X25500000Y-66406190D01*
X25261904Y-66882380D02*
X25261904Y-65882380D01*
X25642857Y-65882380D01*
X25738095Y-65930000D01*
X25785714Y-65977619D01*
X25833333Y-66072857D01*
X25833333Y-66215714D01*
X25785714Y-66310952D01*
X25738095Y-66358571D01*
X25642857Y-66406190D01*
X25261904Y-66406190D01*
X26690476Y-65882380D02*
X26500000Y-65882380D01*
X26404761Y-65930000D01*
X26357142Y-65977619D01*
X26261904Y-66120476D01*
X26214285Y-66310952D01*
X26214285Y-66691904D01*
X26261904Y-66787142D01*
X26309523Y-66834761D01*
X26404761Y-66882380D01*
X26595238Y-66882380D01*
X26690476Y-66834761D01*
X26738095Y-66787142D01*
X26785714Y-66691904D01*
X26785714Y-66453809D01*
X26738095Y-66358571D01*
X26690476Y-66310952D01*
X26595238Y-66263333D01*
X26404761Y-66263333D01*
X26309523Y-66310952D01*
X26261904Y-66358571D01*
X26214285Y-66453809D01*
X17833333Y-13882380D02*
X17500000Y-13406190D01*
X17261904Y-13882380D02*
X17261904Y-12882380D01*
X17642857Y-12882380D01*
X17738095Y-12930000D01*
X17785714Y-12977619D01*
X17833333Y-13072857D01*
X17833333Y-13215714D01*
X17785714Y-13310952D01*
X17738095Y-13358571D01*
X17642857Y-13406190D01*
X17261904Y-13406190D01*
X18166666Y-12882380D02*
X18833333Y-12882380D01*
X18404761Y-13882380D01*
X5922380Y-8466666D02*
X5446190Y-8800000D01*
X5922380Y-9038095D02*
X4922380Y-9038095D01*
X4922380Y-8657142D01*
X4970000Y-8561904D01*
X5017619Y-8514285D01*
X5112857Y-8466666D01*
X5255714Y-8466666D01*
X5350952Y-8514285D01*
X5398571Y-8561904D01*
X5446190Y-8657142D01*
X5446190Y-9038095D01*
X5350952Y-7895238D02*
X5303333Y-7990476D01*
X5255714Y-8038095D01*
X5160476Y-8085714D01*
X5112857Y-8085714D01*
X5017619Y-8038095D01*
X4970000Y-7990476D01*
X4922380Y-7895238D01*
X4922380Y-7704761D01*
X4970000Y-7609523D01*
X5017619Y-7561904D01*
X5112857Y-7514285D01*
X5160476Y-7514285D01*
X5255714Y-7561904D01*
X5303333Y-7609523D01*
X5350952Y-7704761D01*
X5350952Y-7895238D01*
X5398571Y-7990476D01*
X5446190Y-8038095D01*
X5541428Y-8085714D01*
X5731904Y-8085714D01*
X5827142Y-8038095D01*
X5874761Y-7990476D01*
X5922380Y-7895238D01*
X5922380Y-7704761D01*
X5874761Y-7609523D01*
X5827142Y-7561904D01*
X5731904Y-7514285D01*
X5541428Y-7514285D01*
X5446190Y-7561904D01*
X5398571Y-7609523D01*
X5350952Y-7704761D01*
X5602380Y-40761904D02*
X6411904Y-40761904D01*
X6507142Y-40714285D01*
X6554761Y-40666666D01*
X6602380Y-40571428D01*
X6602380Y-40380952D01*
X6554761Y-40285714D01*
X6507142Y-40238095D01*
X6411904Y-40190476D01*
X5602380Y-40190476D01*
X6602380Y-39190476D02*
X6602380Y-39761904D01*
X6602380Y-39476190D02*
X5602380Y-39476190D01*
X5745238Y-39571428D01*
X5840476Y-39666666D01*
X5888095Y-39761904D01*
X10802380Y-15961904D02*
X11611904Y-15961904D01*
X11707142Y-15914285D01*
X11754761Y-15866666D01*
X11802380Y-15771428D01*
X11802380Y-15580952D01*
X11754761Y-15485714D01*
X11707142Y-15438095D01*
X11611904Y-15390476D01*
X10802380Y-15390476D01*
X10897619Y-14961904D02*
X10850000Y-14914285D01*
X10802380Y-14819047D01*
X10802380Y-14580952D01*
X10850000Y-14485714D01*
X10897619Y-14438095D01*
X10992857Y-14390476D01*
X11088095Y-14390476D01*
X11230952Y-14438095D01*
X11802380Y-15009523D01*
X11802380Y-14390476D01*
X3666666Y-72122380D02*
X3666666Y-72836666D01*
X3619047Y-72979523D01*
X3523809Y-73074761D01*
X3380952Y-73122380D01*
X3285714Y-73122380D01*
X4095238Y-72217619D02*
X4142857Y-72170000D01*
X4238095Y-72122380D01*
X4476190Y-72122380D01*
X4571428Y-72170000D01*
X4619047Y-72217619D01*
X4666666Y-72312857D01*
X4666666Y-72408095D01*
X4619047Y-72550952D01*
X4047619Y-73122380D01*
X4666666Y-73122380D01*
X11357142Y-59952380D02*
X11357142Y-58952380D01*
X11928571Y-59952380D01*
X11928571Y-58952380D01*
X12976190Y-59952380D02*
X12642857Y-59476190D01*
X12404761Y-59952380D02*
X12404761Y-58952380D01*
X12785714Y-58952380D01*
X12880952Y-59000000D01*
X12928571Y-59047619D01*
X12976190Y-59142857D01*
X12976190Y-59285714D01*
X12928571Y-59380952D01*
X12880952Y-59428571D01*
X12785714Y-59476190D01*
X12404761Y-59476190D01*
X13357142Y-59904761D02*
X13500000Y-59952380D01*
X13738095Y-59952380D01*
X13833333Y-59904761D01*
X13880952Y-59857142D01*
X13928571Y-59761904D01*
X13928571Y-59666666D01*
X13880952Y-59571428D01*
X13833333Y-59523809D01*
X13738095Y-59476190D01*
X13547619Y-59428571D01*
X13452380Y-59380952D01*
X13404761Y-59333333D01*
X13357142Y-59238095D01*
X13357142Y-59142857D01*
X13404761Y-59047619D01*
X13452380Y-59000000D01*
X13547619Y-58952380D01*
X13785714Y-58952380D01*
X13928571Y-59000000D01*
X14214285Y-58952380D02*
X14785714Y-58952380D01*
X14500000Y-59952380D02*
X14500000Y-58952380D01*
X12833333Y-49387142D02*
X12785714Y-49434761D01*
X12642857Y-49482380D01*
X12547619Y-49482380D01*
X12404761Y-49434761D01*
X12309523Y-49339523D01*
X12261904Y-49244285D01*
X12214285Y-49053809D01*
X12214285Y-48910952D01*
X12261904Y-48720476D01*
X12309523Y-48625238D01*
X12404761Y-48530000D01*
X12547619Y-48482380D01*
X12642857Y-48482380D01*
X12785714Y-48530000D01*
X12833333Y-48577619D01*
X13690476Y-48482380D02*
X13500000Y-48482380D01*
X13404761Y-48530000D01*
X13357142Y-48577619D01*
X13261904Y-48720476D01*
X13214285Y-48910952D01*
X13214285Y-49291904D01*
X13261904Y-49387142D01*
X13309523Y-49434761D01*
X13404761Y-49482380D01*
X13595238Y-49482380D01*
X13690476Y-49434761D01*
X13738095Y-49387142D01*
X13785714Y-49291904D01*
X13785714Y-49053809D01*
X13738095Y-48958571D01*
X13690476Y-48910952D01*
X13595238Y-48863333D01*
X13404761Y-48863333D01*
X13309523Y-48910952D01*
X13261904Y-48958571D01*
X13214285Y-49053809D01*
X12357142Y-51087142D02*
X12309523Y-51134761D01*
X12166666Y-51182380D01*
X12071428Y-51182380D01*
X11928571Y-51134761D01*
X11833333Y-51039523D01*
X11785714Y-50944285D01*
X11738095Y-50753809D01*
X11738095Y-50610952D01*
X11785714Y-50420476D01*
X11833333Y-50325238D01*
X11928571Y-50230000D01*
X12071428Y-50182380D01*
X12166666Y-50182380D01*
X12309523Y-50230000D01*
X12357142Y-50277619D01*
X13309523Y-51182380D02*
X12738095Y-51182380D01*
X13023809Y-51182380D02*
X13023809Y-50182380D01*
X12928571Y-50325238D01*
X12833333Y-50420476D01*
X12738095Y-50468095D01*
X14214285Y-50182380D02*
X13738095Y-50182380D01*
X13690476Y-50658571D01*
X13738095Y-50610952D01*
X13833333Y-50563333D01*
X14071428Y-50563333D01*
X14166666Y-50610952D01*
X14214285Y-50658571D01*
X14261904Y-50753809D01*
X14261904Y-50991904D01*
X14214285Y-51087142D01*
X14166666Y-51134761D01*
X14071428Y-51182380D01*
X13833333Y-51182380D01*
X13738095Y-51134761D01*
X13690476Y-51087142D01*
X2822380Y-30442857D02*
X2346190Y-30776190D01*
X2822380Y-31014285D02*
X1822380Y-31014285D01*
X1822380Y-30633333D01*
X1870000Y-30538095D01*
X1917619Y-30490476D01*
X2012857Y-30442857D01*
X2155714Y-30442857D01*
X2250952Y-30490476D01*
X2298571Y-30538095D01*
X2346190Y-30633333D01*
X2346190Y-31014285D01*
X2822380Y-29490476D02*
X2822380Y-30061904D01*
X2822380Y-29776190D02*
X1822380Y-29776190D01*
X1965238Y-29871428D01*
X2060476Y-29966666D01*
X2108095Y-30061904D01*
X1822380Y-28871428D02*
X1822380Y-28776190D01*
X1870000Y-28680952D01*
X1917619Y-28633333D01*
X2012857Y-28585714D01*
X2203333Y-28538095D01*
X2441428Y-28538095D01*
X2631904Y-28585714D01*
X2727142Y-28633333D01*
X2774761Y-28680952D01*
X2822380Y-28776190D01*
X2822380Y-28871428D01*
X2774761Y-28966666D01*
X2727142Y-29014285D01*
X2631904Y-29061904D01*
X2441428Y-29109523D01*
X2203333Y-29109523D01*
X2012857Y-29061904D01*
X1917619Y-29014285D01*
X1870000Y-28966666D01*
X1822380Y-28871428D01*
X5066666Y-21228571D02*
X5209523Y-21276190D01*
X5257142Y-21323809D01*
X5304761Y-21419047D01*
X5304761Y-21561904D01*
X5257142Y-21657142D01*
X5209523Y-21704761D01*
X5114285Y-21752380D01*
X4733333Y-21752380D01*
X4733333Y-20752380D01*
X5066666Y-20752380D01*
X5161904Y-20800000D01*
X5209523Y-20847619D01*
X5257142Y-20942857D01*
X5257142Y-21038095D01*
X5209523Y-21133333D01*
X5161904Y-21180952D01*
X5066666Y-21228571D01*
X4733333Y-21228571D01*
X5923809Y-20752380D02*
X6114285Y-20752380D01*
X6209523Y-20800000D01*
X6304761Y-20895238D01*
X6352380Y-21085714D01*
X6352380Y-21419047D01*
X6304761Y-21609523D01*
X6209523Y-21704761D01*
X6114285Y-21752380D01*
X5923809Y-21752380D01*
X5828571Y-21704761D01*
X5733333Y-21609523D01*
X5685714Y-21419047D01*
X5685714Y-21085714D01*
X5733333Y-20895238D01*
X5828571Y-20800000D01*
X5923809Y-20752380D01*
X6971428Y-20752380D02*
X7161904Y-20752380D01*
X7257142Y-20800000D01*
X7352380Y-20895238D01*
X7400000Y-21085714D01*
X7400000Y-21419047D01*
X7352380Y-21609523D01*
X7257142Y-21704761D01*
X7161904Y-21752380D01*
X6971428Y-21752380D01*
X6876190Y-21704761D01*
X6780952Y-21609523D01*
X6733333Y-21419047D01*
X6733333Y-21085714D01*
X6780952Y-20895238D01*
X6876190Y-20800000D01*
X6971428Y-20752380D01*
X7685714Y-20752380D02*
X8257142Y-20752380D01*
X7971428Y-21752380D02*
X7971428Y-20752380D01*
X8780952Y-20752380D02*
X8876190Y-20752380D01*
X8971428Y-20800000D01*
X9019047Y-20847619D01*
X9066666Y-20942857D01*
X9114285Y-21133333D01*
X9114285Y-21371428D01*
X9066666Y-21561904D01*
X9019047Y-21657142D01*
X8971428Y-21704761D01*
X8876190Y-21752380D01*
X8780952Y-21752380D01*
X8685714Y-21704761D01*
X8638095Y-21657142D01*
X8590476Y-21561904D01*
X8542857Y-21371428D01*
X8542857Y-21133333D01*
X8590476Y-20942857D01*
X8638095Y-20847619D01*
X8685714Y-20800000D01*
X8780952Y-20752380D01*
M02*
