M48
INCH
T1C0.0118
T2C0.0157
T3C0.0197
T4C0.0236
T5C0.0394
T6C0.0433
T7C0.1063
%
G90
G05
T1
X0.0625Y-1.3099
X0.0633Y-0.6021
X0.0634Y-1.0305
X0.0668Y-1.1703
X0.0675Y-3.5036
X0.0693Y-0.4559
X0.0699Y-0.8913
X0.0703Y-1.6012
X0.0745Y-0.7464
X0.0765Y-0.3105
X0.0766Y-1.4575
X0.0787Y-3.3627
X0.1329Y-1.7982
X0.1353Y-3.5826
X0.1362Y-1.9512
X0.1371Y-0.6762
X0.1396Y-0.3844
X0.1405Y-2.0913
X0.1417Y-0.5311
X0.1448Y-2.7238
X0.1472Y-2.2381
X0.1472Y-0.8078
X0.1689Y-0.986
X0.174Y-1.2689
X0.1742Y-1.4122
X0.1747Y-3.472
X0.2105Y-0.4677
X0.2147Y-0.6019
X0.2179Y-1.1304
X0.2189Y-0.7431
X0.2473Y-3.5413
X0.2542Y-0.8515
X0.2543Y-3.3572
X0.2769Y-1.8463
X0.2887Y-0.9546
X0.3091Y-3.8339
X0.3177Y-3.4404
X0.3205Y-1.0916
X0.3231Y-0.7738
X0.3238Y-3.6065
X0.3517Y-3.7136
X0.3884Y-3.3621
X0.3885Y-0.9861
X0.3907Y-2.1952
X0.3913Y-1.5571
X0.393Y-3.4996
X0.4158Y-0.0666
X0.4239Y-3.7959
X0.4272Y-3.6562
X0.4301Y-2.6995
X0.4524Y-3.44
X0.4604Y-3.3005
X0.4877Y-1.0898
X0.488Y-3.7235
X0.4884Y-2.0939
X0.4937Y-3.5443
X0.496Y-2.5076
X0.4981Y-2.2306
X0.5021Y-0.9602
X0.5032Y-0.145
X0.5037Y-1.5963
X0.5037Y-2.3661
X0.5229Y-0.6027
X0.526Y-3.8177
X0.5287Y-3.3734
X0.533Y-2.6216
X0.5372Y-0.738
X0.5382Y-2.9007
X0.5587Y-3.6135
X0.5636Y-3.4798
X0.5647Y-2.443
X0.5664Y-3.2574
X0.5699Y-0.0732
X0.5738Y-1.6572
X0.5937Y-3.7549
X0.5957Y-2.1894
X0.5988Y-2.6988
X0.6283Y-0.5291
X0.6299Y-0.8225
X0.6371Y-3.3944
X0.6405Y-0.9523
X0.6429Y-3.5362
X0.6442Y-0.6645
X0.6808Y-3.8313
X0.7026Y-0.7488
X0.7068Y-0.6047
X0.7134Y-0.8921
X0.7146Y-0.3092
X0.7391Y-0.1837
X0.7458Y-3.7626
X0.7718Y-0.3861
X0.776Y-1.1754
X0.7797Y-0.077
X0.7822Y-0.5286
X0.7869Y-0.8169
X0.8063Y-0.2531
X0.8184Y-3.678
X0.8195Y-3.4984
X0.8217Y-3.8309
X0.8451Y-1.741
X0.8484Y-2.0249
X0.8484Y-0.4539
X0.8488Y-1.0944
X0.8495Y-0.1367
X0.8504Y-1.8793
X0.855Y-0.5956
X0.8576Y-2.1662
X0.8771Y-0.3189
X0.8772Y-0.7028
X0.8773Y-2.2628
X0.8818Y-2.981
X0.8842Y-3.7601
X0.8901Y-1.1981
X0.9128Y-1.3172
X0.9151Y-2.082
X0.9159Y-2.6584
X0.9183Y-0.2142
X0.9192Y-2.3677
X0.9204Y-0.0622
X0.9233Y-1.8065
X0.9237Y-1.0288
X0.9289Y-1.9505
X0.947Y-2.1904
X0.9534Y-3.8279
X0.9552Y-1.1258
X0.9558Y-3.5036
X0.9564Y-3.6918
X0.9607Y-1.5308
X0.9863Y-2.0205
X0.9878Y-0.2894
X0.9889Y-1.7354
X0.9889Y-2.7242
X0.9925Y-3.0104
X0.9936Y-1.881
X0.9937Y-2.2962
X0.9963Y-2.4385
X0.9991Y-0.1368
X1.0201Y-0.6765
X1.0208Y-1.2047
X1.0213Y-1.4463
X1.0238Y-3.6162
X1.0288Y-2.1285
X1.032Y-2.6226
X1.0539Y-1.7996
X1.0571Y-3.3334
X1.0572Y-0.0627
X1.059Y-2.3672
X1.062Y-2.2361
X1.0647Y-3.7136
X1.0655Y-0.214
X1.068Y-1.9464
X1.0683Y-0.3592
X1.0947Y-2.6988
X1.0954Y-1.3775
X1.098Y-0.4671
X1.1046Y-2.0603
X1.1061Y-1.5281
X1.1277Y-0.144
X1.1284Y-1.8823
X1.1298Y-3.6484
X1.1334Y-2.1651
X1.1343Y-0.6372
X1.135Y-1.1014
X1.1376Y-2.4374
X1.1387Y-0.2803
X1.1401Y-2.3071
X1.1402Y-1.7349
X1.1619Y-0.3894
X1.17Y-1.2072
X1.173Y-1.4551
X1.1737Y-3.7564
X1.2024Y-0.0728
X1.2027Y-1.3031
X1.2075Y-1.8085
X1.2106Y-2.234
X1.2306Y-3.8236
X1.2346Y-3.5084
X1.235Y-1.1278
X1.235Y-2.3423
X1.2443Y-1.5234
X1.2478Y-2.9388
X1.2705Y-3.6197
X1.2764Y-1.3835
X1.28Y-1.7411
X1.305Y-0.5327
X1.306Y-1.211
X1.308Y-0.1013
X1.3088Y-0.3853
X1.3185Y-0.6674
X1.3383Y-3.4067
X1.3393Y-1.8089
X1.3397Y-3.7903
X1.3459Y-2.9806
X1.3469Y-1.3114
X1.3531Y-1.4469
X1.3803Y-1.0928
X1.3818Y-2.332
X1.4111Y-1.5221
X1.4126Y-2.1972
X1.4136Y-1.3835
X1.4147Y-0.0647
X1.4159Y-3.0406
X1.4217Y-3.621
X1.4453Y-0.3197
X1.4494Y-0.4557
X1.4541Y-3.7235
X1.4553Y-1.1768
X1.457Y-2.9318
X1.4587Y-0.1763
X1.479Y-2.0925
X1.4803Y-2.2719
X1.4815Y-1.5884
X1.485Y-1.4464
X1.4895Y-1.0568
X1.4908Y-3.8214
X1.4939Y-1.9121
X1.5157Y-1.2311
X1.5165Y-3.0064
X1.5165Y-0.7443
X1.5226Y-0.2445
X1.5241Y-0.3976
X1.5255Y-3.6569
X1.5315Y-0.1002
X1.5494Y-1.98
X1.5504Y-0.9186
X1.5532Y-1.1306
X1.5552Y-1.6569
X1.556Y-1.5277
X1.5664Y-2.1581
X1.5847Y-2.3005
X1.5858Y-1.3036
X1.5894Y-0.1795
X1.597Y-3.2625
X1.5978Y-2.9324
X1.598Y-3.0744
X1.6Y-0.3181
X1.6018Y-1.0199
X1.6202Y-1.2057
X1.6222Y-0.067
X1.6247Y-3.5829
X1.6251Y-1.73
X1.628Y-0.8563
X1.6283Y-3.8285
X1.6307Y-1.5968
X1.6353Y-3.3991
X1.6557Y-1.3774
X1.6568Y-3.1449
X1.6658Y-1.1013
X1.6676Y-3.0172
X1.6726Y-0.9578
X1.6943Y-1.798
X1.6962Y-3.5053
X1.6971Y-3.2908
X1.6983Y-0.7846
X1.7002Y-1.2797
X1.7004Y-0.3502
X1.7056Y-1.6615
X1.7075Y-0.5026
X1.731Y-3.0889
X1.7331Y-1.1646
X1.7354Y-1.0295
X1.739Y-1.4589
X1.7414Y-0.8868
X1.7685Y-1.7427
X1.769Y-2.9005
X1.7727Y-3.1855
X1.7729Y-0.7097
X1.7733Y-1.8846
X1.7748Y-1.3535
X1.8003Y-0.8198
X1.8027Y-1.2356
X1.8034Y-3.4687
X1.8072Y-1.5314
X1.81Y-3.0195
X1.8117Y-1.1012
X1.8141Y-3.3357
X1.8146Y-0.9493
X1.8339Y-3.1091
X1.841Y-1.4236
X1.8431Y-0.3468
X1.8457Y-0.6424
X1.8682Y-1.304
X1.8696Y-0.7351
X1.8756Y-2.8036
X1.8756Y-3.4042
X1.8782Y-1.1626
X1.8785Y-0.8919
X1.8797Y-0.4638
X1.8815Y-3.536
X1.8815Y-1.022
X1.8839Y-3.2261
X1.8844Y-2.9428
X1.8844Y-1.5864
T2
X0.1535Y-2.3602
X0.1535Y-2.5512
X0.1535Y-2.6339
X0.1555Y-2.4508
X0.2382Y-1.502
X0.2717Y-1.7539
X0.2913Y-2.8465
X0.2972Y-1.3563
X0.3839Y-2.0236
X0.4114Y-2.3661
X0.4134Y-2.4449
X0.4134Y-2.5354
X0.4134Y-2.628
X0.4154Y-1.2972
X0.4154Y-2.9705
X0.4311Y-0.3366
X0.4803Y-3.0335
X0.498Y-3.1201
X0.5177Y-2.8346
X0.5866Y-3.1339
X0.5925Y-2.0118
X0.6083Y-0.3366
X0.6083Y-2.9213
X0.6378Y-2.626
X0.6398Y-2.4291
X0.6417Y-2.5138
X0.6437Y-2.8406
X0.6457Y-2.3543
X0.6895Y-3.1806
X0.7224Y-3.1043
X0.7224Y-3.5433
X0.7244Y-1.3937
X0.7248Y-3.0508
X0.8071Y-2.75
X0.8386Y-3.3543
X0.8517Y-1.6483
X0.8524Y-2.3642
X0.8543Y-2.7638
X0.8642Y-2.5728
X0.9094Y-2.8681
X0.9705Y-2.8819
X1.0827Y-1.0079
X1.1334Y-3.1806
X1.1516Y-3.1043
X1.1535Y-0.9315
X1.1988Y-0.935
X1.2244Y-2.7933
X1.2657Y-2.4252
X1.3028Y-3.0508
X1.3425Y-0.9028
X1.3957Y-1.0157
X1.4075Y-2.4252
X1.4744Y-0.9626
X1.5059Y-2.813
X1.5157Y-2.376
X1.5984Y-2.7657
X1.6083Y-2.4685
X1.6752Y-2.628
X1.6909Y-2.9154
X1.7008Y-2.4173
X1.7402Y-2.5591
X1.7854Y-2.8169
X1.7992Y-2.3937
X1.8819Y-2.7165
T3
X0.0778Y-3.7402
X0.1011Y-3.6838
X0.1011Y-3.7965
X0.1575Y-3.6604
X0.1575Y-3.8199
X0.2139Y-3.6838
X0.2139Y-3.7965
X0.2372Y-3.7402
X1.7313Y-0.1575
X1.7546Y-0.1011
X1.7546Y-0.2139
X1.811Y-0.0778
X1.811Y-0.2372
X1.8674Y-0.1011
X1.8674Y-0.2139
X1.8907Y-0.1575
X0.0778Y-0.1575
X0.1011Y-0.1011
X0.1011Y-0.2139
X0.1575Y-0.0778
X0.1575Y-0.2372
X0.2139Y-0.1011
X0.2139Y-0.2139
X0.2372Y-0.1575
X1.7313Y-3.7402
X1.7546Y-3.6838
X1.7546Y-3.7965
X1.811Y-3.6604
X1.811Y-3.8199
X1.8674Y-3.6838
X1.8674Y-3.7965
X1.8907Y-3.7402
T5
X1.2047Y-2.5906
X1.2047Y-2.689
X1.3031Y-2.5906
X1.4016Y-2.5906
X1.4016Y-2.689
X0.3228Y-2.9508
X0.3228Y-3.0508
X0.3228Y-3.1508
X0.3228Y-3.2508
X0.9961Y-0.4409
X0.9961Y-0.5591
X1.2441Y-0.1929
X1.2441Y-0.8071
X1.2638Y-0.2724
X1.3425Y-0.7748
X1.3622Y-0.1929
X1.5732Y-0.6476
X1.6102Y-0.4409
X1.6102Y-0.5591
X0.1575Y-2.9528
X0.1575Y-3.0528
X0.1575Y-3.1528
X0.1575Y-3.2528
X0.1575Y-3.3528
T6
X0.8898Y-3.4016
X0.8898Y-3.5984
X0.9764Y-3.2677
X1.0709Y-3.8268
X1.0984Y-3.4606
X1.1102Y-3.5394
X1.2638Y-3.311
X1.2638Y-3.7047
X1.3425Y-3.2953
X1.3425Y-3.689
X1.4094Y-3.3346
X1.4921Y-3.4606
X1.5079Y-3.5394
X1.5394Y-3.1732
X1.6339Y-3.7362
X1.7165Y-3.4016
X1.7165Y-3.5984
T7
X1.811Y-3.7402
X0.1575Y-3.7402
X1.811Y-0.1575
X0.1575Y-0.1575
T4
G00X0.3417Y-0.0551
M15
G01X0.3417Y-0.0315
M16
G05
G00X0.3417Y-0.2295
M15
G01X0.3417Y-0.1862
M16
G05
G00X0.6819Y-0.0551
M15
G01X0.6819Y-0.0315
M16
G05
G00X0.6819Y-0.2295
M15
G01X0.6819Y-0.1862
M16
G05
T0
M30
