G04 #@! TF.GenerationSoftware,KiCad,Pcbnew,(5.1.2)-1*
G04 #@! TF.CreationDate,2019-06-29T11:53:21-07:00*
G04 #@! TF.ProjectId,joy,6a6f792e-6b69-4636-9164-5f7063625858,rev?*
G04 #@! TF.SameCoordinates,Original*
G04 #@! TF.FileFunction,Soldermask,Top*
G04 #@! TF.FilePolarity,Negative*
%FSLAX46Y46*%
G04 Gerber Fmt 4.6, Leading zero omitted, Abs format (unit mm)*
G04 Created by KiCad (PCBNEW (5.1.2)-1) date 2019-06-29 11:53:21*
%MOMM*%
%LPD*%
G04 APERTURE LIST*
%ADD10C,0.100000*%
G04 APERTURE END LIST*
D10*
G36*
X27448228Y-96381703D02*
G01*
X27603100Y-96445853D01*
X27742481Y-96538985D01*
X27861015Y-96657519D01*
X27954147Y-96796900D01*
X28018297Y-96951772D01*
X28051000Y-97116184D01*
X28051000Y-97283816D01*
X28018297Y-97448228D01*
X27954147Y-97603100D01*
X27861015Y-97742481D01*
X27742481Y-97861015D01*
X27603100Y-97954147D01*
X27448228Y-98018297D01*
X27283816Y-98051000D01*
X27116184Y-98051000D01*
X26951772Y-98018297D01*
X26796900Y-97954147D01*
X26657519Y-97861015D01*
X26538985Y-97742481D01*
X26445853Y-97603100D01*
X26381703Y-97448228D01*
X26349000Y-97283816D01*
X26349000Y-97116184D01*
X26381703Y-96951772D01*
X26445853Y-96796900D01*
X26538985Y-96657519D01*
X26657519Y-96538985D01*
X26796900Y-96445853D01*
X26951772Y-96381703D01*
X27116184Y-96349000D01*
X27283816Y-96349000D01*
X27448228Y-96381703D01*
X27448228Y-96381703D01*
G37*
G36*
X46536693Y-92301859D02*
G01*
X46802437Y-92354719D01*
X47303087Y-92562095D01*
X47483561Y-92682684D01*
X47753660Y-92863158D01*
X48136842Y-93246340D01*
X48292095Y-93478693D01*
X48437905Y-93696913D01*
X48645281Y-94197563D01*
X48688247Y-94413569D01*
X48751000Y-94729049D01*
X48751000Y-95270951D01*
X48715186Y-95451000D01*
X48645281Y-95802437D01*
X48437905Y-96303087D01*
X48322160Y-96476311D01*
X48136842Y-96753660D01*
X47753660Y-97136842D01*
X47533697Y-97283816D01*
X47303087Y-97437905D01*
X46802437Y-97645281D01*
X46536693Y-97698141D01*
X46270951Y-97751000D01*
X45729049Y-97751000D01*
X45463306Y-97698140D01*
X45197563Y-97645281D01*
X44696913Y-97437905D01*
X44466303Y-97283816D01*
X44246340Y-97136842D01*
X43863158Y-96753660D01*
X43677840Y-96476311D01*
X43562095Y-96303087D01*
X43354719Y-95802437D01*
X43284814Y-95451000D01*
X43249000Y-95270951D01*
X43249000Y-94729049D01*
X43311753Y-94413569D01*
X43354719Y-94197563D01*
X43562095Y-93696913D01*
X43707905Y-93478693D01*
X43863158Y-93246340D01*
X44246340Y-92863158D01*
X44516439Y-92682684D01*
X44696913Y-92562095D01*
X45197563Y-92354719D01*
X45463307Y-92301859D01*
X45729049Y-92249000D01*
X46270951Y-92249000D01*
X46536693Y-92301859D01*
X46536693Y-92301859D01*
G37*
G36*
X4536693Y-92301859D02*
G01*
X4802437Y-92354719D01*
X5303087Y-92562095D01*
X5483561Y-92682684D01*
X5753660Y-92863158D01*
X6136842Y-93246340D01*
X6292095Y-93478693D01*
X6437905Y-93696913D01*
X6645281Y-94197563D01*
X6688247Y-94413569D01*
X6751000Y-94729049D01*
X6751000Y-95270951D01*
X6715186Y-95451000D01*
X6645281Y-95802437D01*
X6437905Y-96303087D01*
X6322160Y-96476311D01*
X6136842Y-96753660D01*
X5753660Y-97136842D01*
X5533697Y-97283816D01*
X5303087Y-97437905D01*
X4802437Y-97645281D01*
X4536694Y-97698140D01*
X4270951Y-97751000D01*
X3729049Y-97751000D01*
X3463306Y-97698140D01*
X3197563Y-97645281D01*
X2696913Y-97437905D01*
X2466303Y-97283816D01*
X2246340Y-97136842D01*
X1863158Y-96753660D01*
X1677840Y-96476311D01*
X1562095Y-96303087D01*
X1354719Y-95802437D01*
X1284814Y-95451000D01*
X1249000Y-95270951D01*
X1249000Y-94729049D01*
X1311753Y-94413569D01*
X1354719Y-94197563D01*
X1562095Y-93696913D01*
X1707905Y-93478693D01*
X1863158Y-93246340D01*
X2246340Y-92863158D01*
X2516439Y-92682684D01*
X2696913Y-92562095D01*
X3197563Y-92354719D01*
X3463307Y-92301859D01*
X3729049Y-92249000D01*
X4270951Y-92249000D01*
X4536693Y-92301859D01*
X4536693Y-92301859D01*
G37*
G36*
X41748228Y-94081703D02*
G01*
X41903100Y-94145853D01*
X42042481Y-94238985D01*
X42161015Y-94357519D01*
X42254147Y-94496900D01*
X42318297Y-94651772D01*
X42351000Y-94816184D01*
X42351000Y-94983816D01*
X42318297Y-95148228D01*
X42254147Y-95303100D01*
X42161015Y-95442481D01*
X42042481Y-95561015D01*
X41903100Y-95654147D01*
X41748228Y-95718297D01*
X41583816Y-95751000D01*
X41416184Y-95751000D01*
X41251772Y-95718297D01*
X41096900Y-95654147D01*
X40957519Y-95561015D01*
X40838985Y-95442481D01*
X40745853Y-95303100D01*
X40681703Y-95148228D01*
X40649000Y-94983816D01*
X40649000Y-94816184D01*
X40681703Y-94651772D01*
X40745853Y-94496900D01*
X40838985Y-94357519D01*
X40957519Y-94238985D01*
X41096900Y-94145853D01*
X41251772Y-94081703D01*
X41416184Y-94049000D01*
X41583816Y-94049000D01*
X41748228Y-94081703D01*
X41748228Y-94081703D01*
G37*
G36*
X32348228Y-93281703D02*
G01*
X32503100Y-93345853D01*
X32642481Y-93438985D01*
X32761015Y-93557519D01*
X32854147Y-93696900D01*
X32918297Y-93851772D01*
X32951000Y-94016184D01*
X32951000Y-94183816D01*
X32918297Y-94348228D01*
X32854147Y-94503100D01*
X32761015Y-94642481D01*
X32642481Y-94761015D01*
X32503100Y-94854147D01*
X32348228Y-94918297D01*
X32183816Y-94951000D01*
X32016184Y-94951000D01*
X31851772Y-94918297D01*
X31696900Y-94854147D01*
X31557519Y-94761015D01*
X31438985Y-94642481D01*
X31345853Y-94503100D01*
X31281703Y-94348228D01*
X31249000Y-94183816D01*
X31249000Y-94016184D01*
X31281703Y-93851772D01*
X31345853Y-93696900D01*
X31438985Y-93557519D01*
X31557519Y-93438985D01*
X31696900Y-93345853D01*
X31851772Y-93281703D01*
X32016184Y-93249000D01*
X32183816Y-93249000D01*
X32348228Y-93281703D01*
X32348228Y-93281703D01*
G37*
G36*
X34348228Y-92881703D02*
G01*
X34503100Y-92945853D01*
X34642481Y-93038985D01*
X34761015Y-93157519D01*
X34854147Y-93296900D01*
X34918297Y-93451772D01*
X34951000Y-93616184D01*
X34951000Y-93783816D01*
X34918297Y-93948228D01*
X34854147Y-94103100D01*
X34761015Y-94242481D01*
X34642481Y-94361015D01*
X34503100Y-94454147D01*
X34348228Y-94518297D01*
X34183816Y-94551000D01*
X34016184Y-94551000D01*
X33851772Y-94518297D01*
X33696900Y-94454147D01*
X33557519Y-94361015D01*
X33438985Y-94242481D01*
X33345853Y-94103100D01*
X33281703Y-93948228D01*
X33249000Y-93783816D01*
X33249000Y-93616184D01*
X33281703Y-93451772D01*
X33345853Y-93296900D01*
X33438985Y-93157519D01*
X33557519Y-93038985D01*
X33696900Y-92945853D01*
X33851772Y-92881703D01*
X34016184Y-92849000D01*
X34183816Y-92849000D01*
X34348228Y-92881703D01*
X34348228Y-92881703D01*
G37*
G36*
X18629591Y-93478085D02*
G01*
X18663569Y-93488393D01*
X18694890Y-93505134D01*
X18722339Y-93527661D01*
X18744866Y-93555110D01*
X18761607Y-93586431D01*
X18771915Y-93620409D01*
X18776000Y-93661890D01*
X18776000Y-94338110D01*
X18771915Y-94379591D01*
X18761607Y-94413569D01*
X18744866Y-94444890D01*
X18722339Y-94472339D01*
X18694890Y-94494866D01*
X18663569Y-94511607D01*
X18629591Y-94521915D01*
X18588110Y-94526000D01*
X17986890Y-94526000D01*
X17945409Y-94521915D01*
X17911431Y-94511607D01*
X17880110Y-94494866D01*
X17852661Y-94472339D01*
X17830134Y-94444890D01*
X17813393Y-94413569D01*
X17803085Y-94379591D01*
X17799000Y-94338110D01*
X17799000Y-93661890D01*
X17803085Y-93620409D01*
X17813393Y-93586431D01*
X17830134Y-93555110D01*
X17852661Y-93527661D01*
X17880110Y-93505134D01*
X17911431Y-93488393D01*
X17945409Y-93478085D01*
X17986890Y-93474000D01*
X18588110Y-93474000D01*
X18629591Y-93478085D01*
X18629591Y-93478085D01*
G37*
G36*
X17054591Y-93478085D02*
G01*
X17088569Y-93488393D01*
X17119890Y-93505134D01*
X17147339Y-93527661D01*
X17169866Y-93555110D01*
X17186607Y-93586431D01*
X17196915Y-93620409D01*
X17201000Y-93661890D01*
X17201000Y-94338110D01*
X17196915Y-94379591D01*
X17186607Y-94413569D01*
X17169866Y-94444890D01*
X17147339Y-94472339D01*
X17119890Y-94494866D01*
X17088569Y-94511607D01*
X17054591Y-94521915D01*
X17013110Y-94526000D01*
X16411890Y-94526000D01*
X16370409Y-94521915D01*
X16336431Y-94511607D01*
X16305110Y-94494866D01*
X16277661Y-94472339D01*
X16255134Y-94444890D01*
X16238393Y-94413569D01*
X16228085Y-94379591D01*
X16224000Y-94338110D01*
X16224000Y-93661890D01*
X16228085Y-93620409D01*
X16238393Y-93586431D01*
X16255134Y-93555110D01*
X16277661Y-93527661D01*
X16305110Y-93505134D01*
X16336431Y-93488393D01*
X16370409Y-93478085D01*
X16411890Y-93474000D01*
X17013110Y-93474000D01*
X17054591Y-93478085D01*
X17054591Y-93478085D01*
G37*
G36*
X43848228Y-90581703D02*
G01*
X44003100Y-90645853D01*
X44142481Y-90738985D01*
X44261015Y-90857519D01*
X44354147Y-90996900D01*
X44418297Y-91151772D01*
X44451000Y-91316184D01*
X44451000Y-91483816D01*
X44418297Y-91648228D01*
X44354147Y-91803100D01*
X44261015Y-91942481D01*
X44142481Y-92061015D01*
X44003100Y-92154147D01*
X43848228Y-92218297D01*
X43683816Y-92251000D01*
X43516184Y-92251000D01*
X43351772Y-92218297D01*
X43196900Y-92154147D01*
X43057519Y-92061015D01*
X42938985Y-91942481D01*
X42845853Y-91803100D01*
X42781703Y-91648228D01*
X42749000Y-91483816D01*
X42749000Y-91316184D01*
X42781703Y-91151772D01*
X42845853Y-90996900D01*
X42938985Y-90857519D01*
X43057519Y-90738985D01*
X43196900Y-90645853D01*
X43351772Y-90581703D01*
X43516184Y-90549000D01*
X43683816Y-90549000D01*
X43848228Y-90581703D01*
X43848228Y-90581703D01*
G37*
G36*
X22848228Y-90581703D02*
G01*
X23003100Y-90645853D01*
X23142481Y-90738985D01*
X23261015Y-90857519D01*
X23354147Y-90996900D01*
X23418297Y-91151772D01*
X23451000Y-91316184D01*
X23451000Y-91483816D01*
X23418297Y-91648228D01*
X23354147Y-91803100D01*
X23261015Y-91942481D01*
X23142481Y-92061015D01*
X23003100Y-92154147D01*
X22848228Y-92218297D01*
X22683816Y-92251000D01*
X22516184Y-92251000D01*
X22351772Y-92218297D01*
X22196900Y-92154147D01*
X22057519Y-92061015D01*
X21938985Y-91942481D01*
X21845853Y-91803100D01*
X21781703Y-91648228D01*
X21749000Y-91483816D01*
X21749000Y-91316184D01*
X21781703Y-91151772D01*
X21845853Y-90996900D01*
X21938985Y-90857519D01*
X22057519Y-90738985D01*
X22196900Y-90645853D01*
X22351772Y-90581703D01*
X22516184Y-90549000D01*
X22683816Y-90549000D01*
X22848228Y-90581703D01*
X22848228Y-90581703D01*
G37*
G36*
X20129591Y-90978085D02*
G01*
X20163569Y-90988393D01*
X20194890Y-91005134D01*
X20222339Y-91027661D01*
X20244866Y-91055110D01*
X20261607Y-91086431D01*
X20271915Y-91120409D01*
X20276000Y-91161890D01*
X20276000Y-91838110D01*
X20271915Y-91879591D01*
X20261607Y-91913569D01*
X20244866Y-91944890D01*
X20222339Y-91972339D01*
X20194890Y-91994866D01*
X20163569Y-92011607D01*
X20129591Y-92021915D01*
X20088110Y-92026000D01*
X19486890Y-92026000D01*
X19445409Y-92021915D01*
X19411431Y-92011607D01*
X19380110Y-91994866D01*
X19352661Y-91972339D01*
X19330134Y-91944890D01*
X19313393Y-91913569D01*
X19303085Y-91879591D01*
X19299000Y-91838110D01*
X19299000Y-91161890D01*
X19303085Y-91120409D01*
X19313393Y-91086431D01*
X19330134Y-91055110D01*
X19352661Y-91027661D01*
X19380110Y-91005134D01*
X19411431Y-90988393D01*
X19445409Y-90978085D01*
X19486890Y-90974000D01*
X20088110Y-90974000D01*
X20129591Y-90978085D01*
X20129591Y-90978085D01*
G37*
G36*
X18554591Y-90978085D02*
G01*
X18588569Y-90988393D01*
X18619890Y-91005134D01*
X18647339Y-91027661D01*
X18669866Y-91055110D01*
X18686607Y-91086431D01*
X18696915Y-91120409D01*
X18701000Y-91161890D01*
X18701000Y-91838110D01*
X18696915Y-91879591D01*
X18686607Y-91913569D01*
X18669866Y-91944890D01*
X18647339Y-91972339D01*
X18619890Y-91994866D01*
X18588569Y-92011607D01*
X18554591Y-92021915D01*
X18513110Y-92026000D01*
X17911890Y-92026000D01*
X17870409Y-92021915D01*
X17836431Y-92011607D01*
X17805110Y-91994866D01*
X17777661Y-91972339D01*
X17755134Y-91944890D01*
X17738393Y-91913569D01*
X17728085Y-91879591D01*
X17724000Y-91838110D01*
X17724000Y-91161890D01*
X17728085Y-91120409D01*
X17738393Y-91086431D01*
X17755134Y-91055110D01*
X17777661Y-91027661D01*
X17805110Y-91005134D01*
X17836431Y-90988393D01*
X17870409Y-90978085D01*
X17911890Y-90974000D01*
X18513110Y-90974000D01*
X18554591Y-90978085D01*
X18554591Y-90978085D01*
G37*
G36*
X28448228Y-89081703D02*
G01*
X28603100Y-89145853D01*
X28742481Y-89238985D01*
X28861015Y-89357519D01*
X28954147Y-89496900D01*
X29018297Y-89651772D01*
X29051000Y-89816184D01*
X29051000Y-89983816D01*
X29018297Y-90148228D01*
X28954147Y-90303100D01*
X28861015Y-90442481D01*
X28742481Y-90561015D01*
X28603100Y-90654147D01*
X28448228Y-90718297D01*
X28283816Y-90751000D01*
X28116184Y-90751000D01*
X27951772Y-90718297D01*
X27796900Y-90654147D01*
X27657519Y-90561015D01*
X27538985Y-90442481D01*
X27445853Y-90303100D01*
X27381703Y-90148228D01*
X27349000Y-89983816D01*
X27349000Y-89816184D01*
X27381703Y-89651772D01*
X27445853Y-89496900D01*
X27538985Y-89357519D01*
X27657519Y-89238985D01*
X27796900Y-89145853D01*
X27951772Y-89081703D01*
X28116184Y-89049000D01*
X28283816Y-89049000D01*
X28448228Y-89081703D01*
X28448228Y-89081703D01*
G37*
G36*
X38548228Y-89081703D02*
G01*
X38703100Y-89145853D01*
X38842481Y-89238985D01*
X38961015Y-89357519D01*
X39054147Y-89496900D01*
X39118297Y-89651772D01*
X39151000Y-89816184D01*
X39151000Y-89983816D01*
X39118297Y-90148228D01*
X39054147Y-90303100D01*
X38961015Y-90442481D01*
X38842481Y-90561015D01*
X38703100Y-90654147D01*
X38548228Y-90718297D01*
X38383816Y-90751000D01*
X38216184Y-90751000D01*
X38051772Y-90718297D01*
X37896900Y-90654147D01*
X37757519Y-90561015D01*
X37638985Y-90442481D01*
X37545853Y-90303100D01*
X37481703Y-90148228D01*
X37449000Y-89983816D01*
X37449000Y-89816184D01*
X37481703Y-89651772D01*
X37545853Y-89496900D01*
X37638985Y-89357519D01*
X37757519Y-89238985D01*
X37896900Y-89145853D01*
X38051772Y-89081703D01*
X38216184Y-89049000D01*
X38383816Y-89049000D01*
X38548228Y-89081703D01*
X38548228Y-89081703D01*
G37*
G36*
X36289890Y-89274017D02*
G01*
X36408364Y-89323091D01*
X36514988Y-89394335D01*
X36605665Y-89485012D01*
X36676909Y-89591636D01*
X36725983Y-89710110D01*
X36751000Y-89835882D01*
X36751000Y-89964118D01*
X36725983Y-90089890D01*
X36676909Y-90208364D01*
X36605665Y-90314988D01*
X36514988Y-90405665D01*
X36408364Y-90476909D01*
X36408363Y-90476910D01*
X36408362Y-90476910D01*
X36289890Y-90525983D01*
X36164119Y-90551000D01*
X36035881Y-90551000D01*
X35910110Y-90525983D01*
X35791638Y-90476910D01*
X35791637Y-90476910D01*
X35791636Y-90476909D01*
X35685012Y-90405665D01*
X35594335Y-90314988D01*
X35523091Y-90208364D01*
X35474017Y-90089890D01*
X35449000Y-89964118D01*
X35449000Y-89835882D01*
X35474017Y-89710110D01*
X35523091Y-89591636D01*
X35594335Y-89485012D01*
X35685012Y-89394335D01*
X35791636Y-89323091D01*
X35910110Y-89274017D01*
X36035881Y-89249000D01*
X36164119Y-89249000D01*
X36289890Y-89274017D01*
X36289890Y-89274017D01*
G37*
G36*
X41289890Y-88274017D02*
G01*
X41408364Y-88323091D01*
X41514988Y-88394335D01*
X41605665Y-88485012D01*
X41676909Y-88591636D01*
X41725983Y-88710110D01*
X41751000Y-88835882D01*
X41751000Y-88964118D01*
X41725983Y-89089890D01*
X41676909Y-89208364D01*
X41605665Y-89314988D01*
X41514988Y-89405665D01*
X41408364Y-89476909D01*
X41408363Y-89476910D01*
X41408362Y-89476910D01*
X41289890Y-89525983D01*
X41164119Y-89551000D01*
X41035881Y-89551000D01*
X40910110Y-89525983D01*
X40791638Y-89476910D01*
X40791637Y-89476910D01*
X40791636Y-89476909D01*
X40685012Y-89405665D01*
X40594335Y-89314988D01*
X40523091Y-89208364D01*
X40474017Y-89089890D01*
X40449000Y-88964118D01*
X40449000Y-88835882D01*
X40474017Y-88710110D01*
X40523091Y-88591636D01*
X40594335Y-88485012D01*
X40685012Y-88394335D01*
X40791636Y-88323091D01*
X40910110Y-88274017D01*
X41035881Y-88249000D01*
X41164119Y-88249000D01*
X41289890Y-88274017D01*
X41289890Y-88274017D01*
G37*
G36*
X28148228Y-87081703D02*
G01*
X28303100Y-87145853D01*
X28442481Y-87238985D01*
X28561015Y-87357519D01*
X28654147Y-87496900D01*
X28718297Y-87651772D01*
X28751000Y-87816184D01*
X28751000Y-87983816D01*
X28718297Y-88148228D01*
X28654147Y-88303100D01*
X28561015Y-88442481D01*
X28442481Y-88561015D01*
X28303100Y-88654147D01*
X28148228Y-88718297D01*
X27983816Y-88751000D01*
X27816184Y-88751000D01*
X27651772Y-88718297D01*
X27496900Y-88654147D01*
X27357519Y-88561015D01*
X27238985Y-88442481D01*
X27145853Y-88303100D01*
X27081703Y-88148228D01*
X27049000Y-87983816D01*
X27049000Y-87816184D01*
X27081703Y-87651772D01*
X27145853Y-87496900D01*
X27238985Y-87357519D01*
X27357519Y-87238985D01*
X27496900Y-87145853D01*
X27651772Y-87081703D01*
X27816184Y-87049000D01*
X27983816Y-87049000D01*
X28148228Y-87081703D01*
X28148228Y-87081703D01*
G37*
G36*
X38148228Y-87081703D02*
G01*
X38303100Y-87145853D01*
X38442481Y-87238985D01*
X38561015Y-87357519D01*
X38654147Y-87496900D01*
X38718297Y-87651772D01*
X38751000Y-87816184D01*
X38751000Y-87983816D01*
X38718297Y-88148228D01*
X38654147Y-88303100D01*
X38561015Y-88442481D01*
X38442481Y-88561015D01*
X38303100Y-88654147D01*
X38148228Y-88718297D01*
X37983816Y-88751000D01*
X37816184Y-88751000D01*
X37651772Y-88718297D01*
X37496900Y-88654147D01*
X37357519Y-88561015D01*
X37238985Y-88442481D01*
X37145853Y-88303100D01*
X37081703Y-88148228D01*
X37049000Y-87983816D01*
X37049000Y-87816184D01*
X37081703Y-87651772D01*
X37145853Y-87496900D01*
X37238985Y-87357519D01*
X37357519Y-87238985D01*
X37496900Y-87145853D01*
X37651772Y-87081703D01*
X37816184Y-87049000D01*
X37983816Y-87049000D01*
X38148228Y-87081703D01*
X38148228Y-87081703D01*
G37*
G36*
X22848228Y-85581703D02*
G01*
X23003100Y-85645853D01*
X23142481Y-85738985D01*
X23261015Y-85857519D01*
X23354147Y-85996900D01*
X23418297Y-86151772D01*
X23451000Y-86316184D01*
X23451000Y-86483816D01*
X23418297Y-86648228D01*
X23354147Y-86803100D01*
X23261015Y-86942481D01*
X23142481Y-87061015D01*
X23003100Y-87154147D01*
X22848228Y-87218297D01*
X22683816Y-87251000D01*
X22516184Y-87251000D01*
X22351772Y-87218297D01*
X22196900Y-87154147D01*
X22057519Y-87061015D01*
X21938985Y-86942481D01*
X21845853Y-86803100D01*
X21781703Y-86648228D01*
X21749000Y-86483816D01*
X21749000Y-86316184D01*
X21781703Y-86151772D01*
X21845853Y-85996900D01*
X21938985Y-85857519D01*
X22057519Y-85738985D01*
X22196900Y-85645853D01*
X22351772Y-85581703D01*
X22516184Y-85549000D01*
X22683816Y-85549000D01*
X22848228Y-85581703D01*
X22848228Y-85581703D01*
G37*
G36*
X43848228Y-85581703D02*
G01*
X44003100Y-85645853D01*
X44142481Y-85738985D01*
X44261015Y-85857519D01*
X44354147Y-85996900D01*
X44418297Y-86151772D01*
X44451000Y-86316184D01*
X44451000Y-86483816D01*
X44418297Y-86648228D01*
X44354147Y-86803100D01*
X44261015Y-86942481D01*
X44142481Y-87061015D01*
X44003100Y-87154147D01*
X43848228Y-87218297D01*
X43683816Y-87251000D01*
X43516184Y-87251000D01*
X43351772Y-87218297D01*
X43196900Y-87154147D01*
X43057519Y-87061015D01*
X42938985Y-86942481D01*
X42845853Y-86803100D01*
X42781703Y-86648228D01*
X42749000Y-86483816D01*
X42749000Y-86316184D01*
X42781703Y-86151772D01*
X42845853Y-85996900D01*
X42938985Y-85857519D01*
X43057519Y-85738985D01*
X43196900Y-85645853D01*
X43351772Y-85581703D01*
X43516184Y-85549000D01*
X43683816Y-85549000D01*
X43848228Y-85581703D01*
X43848228Y-85581703D01*
G37*
G36*
X20129591Y-85978085D02*
G01*
X20163569Y-85988393D01*
X20194890Y-86005134D01*
X20222339Y-86027661D01*
X20244866Y-86055110D01*
X20261607Y-86086431D01*
X20271915Y-86120409D01*
X20276000Y-86161890D01*
X20276000Y-86838110D01*
X20271915Y-86879591D01*
X20261607Y-86913569D01*
X20244866Y-86944890D01*
X20222339Y-86972339D01*
X20194890Y-86994866D01*
X20163569Y-87011607D01*
X20129591Y-87021915D01*
X20088110Y-87026000D01*
X19486890Y-87026000D01*
X19445409Y-87021915D01*
X19411431Y-87011607D01*
X19380110Y-86994866D01*
X19352661Y-86972339D01*
X19330134Y-86944890D01*
X19313393Y-86913569D01*
X19303085Y-86879591D01*
X19299000Y-86838110D01*
X19299000Y-86161890D01*
X19303085Y-86120409D01*
X19313393Y-86086431D01*
X19330134Y-86055110D01*
X19352661Y-86027661D01*
X19380110Y-86005134D01*
X19411431Y-85988393D01*
X19445409Y-85978085D01*
X19486890Y-85974000D01*
X20088110Y-85974000D01*
X20129591Y-85978085D01*
X20129591Y-85978085D01*
G37*
G36*
X18554591Y-85978085D02*
G01*
X18588569Y-85988393D01*
X18619890Y-86005134D01*
X18647339Y-86027661D01*
X18669866Y-86055110D01*
X18686607Y-86086431D01*
X18696915Y-86120409D01*
X18701000Y-86161890D01*
X18701000Y-86838110D01*
X18696915Y-86879591D01*
X18686607Y-86913569D01*
X18669866Y-86944890D01*
X18647339Y-86972339D01*
X18619890Y-86994866D01*
X18588569Y-87011607D01*
X18554591Y-87021915D01*
X18513110Y-87026000D01*
X17911890Y-87026000D01*
X17870409Y-87021915D01*
X17836431Y-87011607D01*
X17805110Y-86994866D01*
X17777661Y-86972339D01*
X17755134Y-86944890D01*
X17738393Y-86913569D01*
X17728085Y-86879591D01*
X17724000Y-86838110D01*
X17724000Y-86161890D01*
X17728085Y-86120409D01*
X17738393Y-86086431D01*
X17755134Y-86055110D01*
X17777661Y-86027661D01*
X17805110Y-86005134D01*
X17836431Y-85988393D01*
X17870409Y-85978085D01*
X17911890Y-85974000D01*
X18513110Y-85974000D01*
X18554591Y-85978085D01*
X18554591Y-85978085D01*
G37*
G36*
X4110443Y-84265519D02*
G01*
X4176627Y-84272037D01*
X4346466Y-84323557D01*
X4502991Y-84407222D01*
X4515451Y-84417448D01*
X4640186Y-84519814D01*
X4719274Y-84616184D01*
X4752778Y-84657009D01*
X4836443Y-84813534D01*
X4887963Y-84983373D01*
X4905359Y-85160000D01*
X4887963Y-85336627D01*
X4836443Y-85506466D01*
X4752778Y-85662991D01*
X4723448Y-85698729D01*
X4640186Y-85800186D01*
X4570323Y-85857520D01*
X4502991Y-85912778D01*
X4346466Y-85996443D01*
X4176627Y-86047963D01*
X4110443Y-86054481D01*
X4044260Y-86061000D01*
X3955740Y-86061000D01*
X3889557Y-86054481D01*
X3823373Y-86047963D01*
X3653534Y-85996443D01*
X3497009Y-85912778D01*
X3429677Y-85857520D01*
X3359814Y-85800186D01*
X3276552Y-85698729D01*
X3247222Y-85662991D01*
X3163557Y-85506466D01*
X3112037Y-85336627D01*
X3094641Y-85160000D01*
X3112037Y-84983373D01*
X3163557Y-84813534D01*
X3247222Y-84657009D01*
X3280726Y-84616184D01*
X3359814Y-84519814D01*
X3484549Y-84417448D01*
X3497009Y-84407222D01*
X3653534Y-84323557D01*
X3823373Y-84272037D01*
X3889557Y-84265519D01*
X3955740Y-84259000D01*
X4044260Y-84259000D01*
X4110443Y-84265519D01*
X4110443Y-84265519D01*
G37*
G36*
X36048228Y-83881703D02*
G01*
X36203100Y-83945853D01*
X36342481Y-84038985D01*
X36461015Y-84157519D01*
X36554147Y-84296900D01*
X36618297Y-84451772D01*
X36651000Y-84616184D01*
X36651000Y-84783816D01*
X36618297Y-84948228D01*
X36554147Y-85103100D01*
X36461015Y-85242481D01*
X36342481Y-85361015D01*
X36203100Y-85454147D01*
X36048228Y-85518297D01*
X35883816Y-85551000D01*
X35716184Y-85551000D01*
X35551772Y-85518297D01*
X35396900Y-85454147D01*
X35257519Y-85361015D01*
X35138985Y-85242481D01*
X35045853Y-85103100D01*
X34981703Y-84948228D01*
X34949000Y-84783816D01*
X34949000Y-84616184D01*
X34981703Y-84451772D01*
X35045853Y-84296900D01*
X35138985Y-84157519D01*
X35257519Y-84038985D01*
X35396900Y-83945853D01*
X35551772Y-83881703D01*
X35716184Y-83849000D01*
X35883816Y-83849000D01*
X36048228Y-83881703D01*
X36048228Y-83881703D01*
G37*
G36*
X32348228Y-83281703D02*
G01*
X32503100Y-83345853D01*
X32642481Y-83438985D01*
X32761015Y-83557519D01*
X32854147Y-83696900D01*
X32918297Y-83851772D01*
X32951000Y-84016184D01*
X32951000Y-84183816D01*
X32918297Y-84348228D01*
X32854147Y-84503100D01*
X32761015Y-84642481D01*
X32642481Y-84761015D01*
X32503100Y-84854147D01*
X32348228Y-84918297D01*
X32183816Y-84951000D01*
X32016184Y-84951000D01*
X31851772Y-84918297D01*
X31696900Y-84854147D01*
X31557519Y-84761015D01*
X31438985Y-84642481D01*
X31345853Y-84503100D01*
X31281703Y-84348228D01*
X31249000Y-84183816D01*
X31249000Y-84016184D01*
X31281703Y-83851772D01*
X31345853Y-83696900D01*
X31438985Y-83557519D01*
X31557519Y-83438985D01*
X31696900Y-83345853D01*
X31851772Y-83281703D01*
X32016184Y-83249000D01*
X32183816Y-83249000D01*
X32348228Y-83281703D01*
X32348228Y-83281703D01*
G37*
G36*
X34348228Y-82881703D02*
G01*
X34503100Y-82945853D01*
X34642481Y-83038985D01*
X34761015Y-83157519D01*
X34854147Y-83296900D01*
X34918297Y-83451772D01*
X34951000Y-83616184D01*
X34951000Y-83783816D01*
X34918297Y-83948228D01*
X34854147Y-84103100D01*
X34761015Y-84242481D01*
X34642481Y-84361015D01*
X34503100Y-84454147D01*
X34348228Y-84518297D01*
X34183816Y-84551000D01*
X34016184Y-84551000D01*
X33851772Y-84518297D01*
X33696900Y-84454147D01*
X33557519Y-84361015D01*
X33438985Y-84242481D01*
X33345853Y-84103100D01*
X33281703Y-83948228D01*
X33249000Y-83783816D01*
X33249000Y-83616184D01*
X33281703Y-83451772D01*
X33345853Y-83296900D01*
X33438985Y-83157519D01*
X33557519Y-83038985D01*
X33696900Y-82945853D01*
X33851772Y-82881703D01*
X34016184Y-82849000D01*
X34183816Y-82849000D01*
X34348228Y-82881703D01*
X34348228Y-82881703D01*
G37*
G36*
X18629591Y-83478085D02*
G01*
X18663569Y-83488393D01*
X18694890Y-83505134D01*
X18722339Y-83527661D01*
X18744866Y-83555110D01*
X18761607Y-83586431D01*
X18771915Y-83620409D01*
X18776000Y-83661890D01*
X18776000Y-84338110D01*
X18771915Y-84379591D01*
X18761607Y-84413569D01*
X18744866Y-84444890D01*
X18722339Y-84472339D01*
X18694890Y-84494866D01*
X18663569Y-84511607D01*
X18629591Y-84521915D01*
X18588110Y-84526000D01*
X17986890Y-84526000D01*
X17945409Y-84521915D01*
X17911431Y-84511607D01*
X17880110Y-84494866D01*
X17852661Y-84472339D01*
X17830134Y-84444890D01*
X17813393Y-84413569D01*
X17803085Y-84379591D01*
X17799000Y-84338110D01*
X17799000Y-83661890D01*
X17803085Y-83620409D01*
X17813393Y-83586431D01*
X17830134Y-83555110D01*
X17852661Y-83527661D01*
X17880110Y-83505134D01*
X17911431Y-83488393D01*
X17945409Y-83478085D01*
X17986890Y-83474000D01*
X18588110Y-83474000D01*
X18629591Y-83478085D01*
X18629591Y-83478085D01*
G37*
G36*
X17054591Y-83478085D02*
G01*
X17088569Y-83488393D01*
X17119890Y-83505134D01*
X17147339Y-83527661D01*
X17169866Y-83555110D01*
X17186607Y-83586431D01*
X17196915Y-83620409D01*
X17201000Y-83661890D01*
X17201000Y-84338110D01*
X17196915Y-84379591D01*
X17186607Y-84413569D01*
X17169866Y-84444890D01*
X17147339Y-84472339D01*
X17119890Y-84494866D01*
X17088569Y-84511607D01*
X17054591Y-84521915D01*
X17013110Y-84526000D01*
X16411890Y-84526000D01*
X16370409Y-84521915D01*
X16336431Y-84511607D01*
X16305110Y-84494866D01*
X16277661Y-84472339D01*
X16255134Y-84444890D01*
X16238393Y-84413569D01*
X16228085Y-84379591D01*
X16224000Y-84338110D01*
X16224000Y-83661890D01*
X16228085Y-83620409D01*
X16238393Y-83586431D01*
X16255134Y-83555110D01*
X16277661Y-83527661D01*
X16305110Y-83505134D01*
X16336431Y-83488393D01*
X16370409Y-83478085D01*
X16411890Y-83474000D01*
X17013110Y-83474000D01*
X17054591Y-83478085D01*
X17054591Y-83478085D01*
G37*
G36*
X25048228Y-82181703D02*
G01*
X25203100Y-82245853D01*
X25342481Y-82338985D01*
X25461015Y-82457519D01*
X25554147Y-82596900D01*
X25618297Y-82751772D01*
X25651000Y-82916184D01*
X25651000Y-83083816D01*
X25618297Y-83248228D01*
X25554147Y-83403100D01*
X25461015Y-83542481D01*
X25342481Y-83661015D01*
X25203100Y-83754147D01*
X25048228Y-83818297D01*
X24883816Y-83851000D01*
X24716184Y-83851000D01*
X24551772Y-83818297D01*
X24396900Y-83754147D01*
X24257519Y-83661015D01*
X24138985Y-83542481D01*
X24045853Y-83403100D01*
X23981703Y-83248228D01*
X23949000Y-83083816D01*
X23949000Y-82916184D01*
X23981703Y-82751772D01*
X24045853Y-82596900D01*
X24138985Y-82457519D01*
X24257519Y-82338985D01*
X24396900Y-82245853D01*
X24551772Y-82181703D01*
X24716184Y-82149000D01*
X24883816Y-82149000D01*
X25048228Y-82181703D01*
X25048228Y-82181703D01*
G37*
G36*
X4110442Y-81725518D02*
G01*
X4176627Y-81732037D01*
X4346466Y-81783557D01*
X4502991Y-81867222D01*
X4538729Y-81896552D01*
X4640186Y-81979814D01*
X4723448Y-82081271D01*
X4752778Y-82117009D01*
X4836443Y-82273534D01*
X4887963Y-82443373D01*
X4905359Y-82620000D01*
X4887963Y-82796627D01*
X4836443Y-82966466D01*
X4752778Y-83122991D01*
X4724441Y-83157519D01*
X4640186Y-83260186D01*
X4538729Y-83343448D01*
X4502991Y-83372778D01*
X4346466Y-83456443D01*
X4176627Y-83507963D01*
X4110443Y-83514481D01*
X4044260Y-83521000D01*
X3955740Y-83521000D01*
X3889557Y-83514481D01*
X3823373Y-83507963D01*
X3653534Y-83456443D01*
X3497009Y-83372778D01*
X3461271Y-83343448D01*
X3359814Y-83260186D01*
X3275559Y-83157519D01*
X3247222Y-83122991D01*
X3163557Y-82966466D01*
X3112037Y-82796627D01*
X3094641Y-82620000D01*
X3112037Y-82443373D01*
X3163557Y-82273534D01*
X3247222Y-82117009D01*
X3276552Y-82081271D01*
X3359814Y-81979814D01*
X3461271Y-81896552D01*
X3497009Y-81867222D01*
X3653534Y-81783557D01*
X3823373Y-81732037D01*
X3889558Y-81725518D01*
X3955740Y-81719000D01*
X4044260Y-81719000D01*
X4110442Y-81725518D01*
X4110442Y-81725518D01*
G37*
G36*
X39348228Y-79781703D02*
G01*
X39503100Y-79845853D01*
X39642481Y-79938985D01*
X39761015Y-80057519D01*
X39854147Y-80196900D01*
X39918297Y-80351772D01*
X39951000Y-80516184D01*
X39951000Y-80683816D01*
X39918297Y-80848228D01*
X39854147Y-81003100D01*
X39761015Y-81142481D01*
X39642481Y-81261015D01*
X39503100Y-81354147D01*
X39348228Y-81418297D01*
X39183816Y-81451000D01*
X39016184Y-81451000D01*
X38851772Y-81418297D01*
X38696900Y-81354147D01*
X38557519Y-81261015D01*
X38438985Y-81142481D01*
X38345853Y-81003100D01*
X38281703Y-80848228D01*
X38249000Y-80683816D01*
X38249000Y-80516184D01*
X38281703Y-80351772D01*
X38345853Y-80196900D01*
X38438985Y-80057519D01*
X38557519Y-79938985D01*
X38696900Y-79845853D01*
X38851772Y-79781703D01*
X39016184Y-79749000D01*
X39183816Y-79749000D01*
X39348228Y-79781703D01*
X39348228Y-79781703D01*
G37*
G36*
X4110443Y-79185519D02*
G01*
X4176627Y-79192037D01*
X4346466Y-79243557D01*
X4502991Y-79327222D01*
X4538729Y-79356552D01*
X4640186Y-79439814D01*
X4723448Y-79541271D01*
X4752778Y-79577009D01*
X4836443Y-79733534D01*
X4887963Y-79903373D01*
X4905359Y-80080000D01*
X4887963Y-80256627D01*
X4836443Y-80426466D01*
X4752778Y-80582991D01*
X4723448Y-80618729D01*
X4640186Y-80720186D01*
X4538729Y-80803448D01*
X4502991Y-80832778D01*
X4346466Y-80916443D01*
X4176627Y-80967963D01*
X4110442Y-80974482D01*
X4044260Y-80981000D01*
X3955740Y-80981000D01*
X3889558Y-80974482D01*
X3823373Y-80967963D01*
X3653534Y-80916443D01*
X3497009Y-80832778D01*
X3461271Y-80803448D01*
X3359814Y-80720186D01*
X3276552Y-80618729D01*
X3247222Y-80582991D01*
X3163557Y-80426466D01*
X3112037Y-80256627D01*
X3094641Y-80080000D01*
X3112037Y-79903373D01*
X3163557Y-79733534D01*
X3247222Y-79577009D01*
X3276552Y-79541271D01*
X3359814Y-79439814D01*
X3461271Y-79356552D01*
X3497009Y-79327222D01*
X3653534Y-79243557D01*
X3823373Y-79192037D01*
X3889557Y-79185519D01*
X3955740Y-79179000D01*
X4044260Y-79179000D01*
X4110443Y-79185519D01*
X4110443Y-79185519D01*
G37*
G36*
X4110442Y-76645518D02*
G01*
X4176627Y-76652037D01*
X4346466Y-76703557D01*
X4502991Y-76787222D01*
X4538729Y-76816552D01*
X4640186Y-76899814D01*
X4723448Y-77001271D01*
X4752778Y-77037009D01*
X4836443Y-77193534D01*
X4887963Y-77363373D01*
X4905359Y-77540000D01*
X4887963Y-77716627D01*
X4836443Y-77886466D01*
X4752778Y-78042991D01*
X4723448Y-78078729D01*
X4640186Y-78180186D01*
X4538729Y-78263448D01*
X4502991Y-78292778D01*
X4346466Y-78376443D01*
X4176627Y-78427963D01*
X4110442Y-78434482D01*
X4044260Y-78441000D01*
X3955740Y-78441000D01*
X3889558Y-78434482D01*
X3823373Y-78427963D01*
X3653534Y-78376443D01*
X3497009Y-78292778D01*
X3461271Y-78263448D01*
X3359814Y-78180186D01*
X3276552Y-78078729D01*
X3247222Y-78042991D01*
X3163557Y-77886466D01*
X3112037Y-77716627D01*
X3094641Y-77540000D01*
X3112037Y-77363373D01*
X3163557Y-77193534D01*
X3247222Y-77037009D01*
X3276552Y-77001271D01*
X3359814Y-76899814D01*
X3461271Y-76816552D01*
X3497009Y-76787222D01*
X3653534Y-76703557D01*
X3823373Y-76652037D01*
X3889558Y-76645518D01*
X3955740Y-76639000D01*
X4044260Y-76639000D01*
X4110442Y-76645518D01*
X4110442Y-76645518D01*
G37*
G36*
X4901000Y-75901000D02*
G01*
X3099000Y-75901000D01*
X3099000Y-74099000D01*
X4901000Y-74099000D01*
X4901000Y-75901000D01*
X4901000Y-75901000D01*
G37*
G36*
X35906564Y-67289389D02*
G01*
X36097833Y-67368615D01*
X36097835Y-67368616D01*
X36269973Y-67483635D01*
X36416365Y-67630027D01*
X36531385Y-67802167D01*
X36610611Y-67993436D01*
X36651000Y-68196484D01*
X36651000Y-68403516D01*
X36610611Y-68606564D01*
X36531385Y-68797833D01*
X36531384Y-68797835D01*
X36416365Y-68969973D01*
X36269973Y-69116365D01*
X36097835Y-69231384D01*
X36097834Y-69231385D01*
X36097833Y-69231385D01*
X35906564Y-69310611D01*
X35703516Y-69351000D01*
X35496484Y-69351000D01*
X35293436Y-69310611D01*
X35102167Y-69231385D01*
X35102166Y-69231385D01*
X35102165Y-69231384D01*
X34930027Y-69116365D01*
X34783635Y-68969973D01*
X34668616Y-68797835D01*
X34668615Y-68797833D01*
X34589389Y-68606564D01*
X34549000Y-68403516D01*
X34549000Y-68196484D01*
X34589389Y-67993436D01*
X34668615Y-67802167D01*
X34783635Y-67630027D01*
X34930027Y-67483635D01*
X35102165Y-67368616D01*
X35102167Y-67368615D01*
X35293436Y-67289389D01*
X35496484Y-67249000D01*
X35703516Y-67249000D01*
X35906564Y-67289389D01*
X35906564Y-67289389D01*
G37*
G36*
X30906564Y-67289389D02*
G01*
X31097833Y-67368615D01*
X31097835Y-67368616D01*
X31269973Y-67483635D01*
X31416365Y-67630027D01*
X31531385Y-67802167D01*
X31610611Y-67993436D01*
X31651000Y-68196484D01*
X31651000Y-68403516D01*
X31610611Y-68606564D01*
X31531385Y-68797833D01*
X31531384Y-68797835D01*
X31416365Y-68969973D01*
X31269973Y-69116365D01*
X31097835Y-69231384D01*
X31097834Y-69231385D01*
X31097833Y-69231385D01*
X30906564Y-69310611D01*
X30703516Y-69351000D01*
X30496484Y-69351000D01*
X30293436Y-69310611D01*
X30102167Y-69231385D01*
X30102166Y-69231385D01*
X30102165Y-69231384D01*
X29930027Y-69116365D01*
X29783635Y-68969973D01*
X29668616Y-68797835D01*
X29668615Y-68797833D01*
X29589389Y-68606564D01*
X29549000Y-68403516D01*
X29549000Y-68196484D01*
X29589389Y-67993436D01*
X29668615Y-67802167D01*
X29783635Y-67630027D01*
X29930027Y-67483635D01*
X30102165Y-67368616D01*
X30102167Y-67368615D01*
X30293436Y-67289389D01*
X30496484Y-67249000D01*
X30703516Y-67249000D01*
X30906564Y-67289389D01*
X30906564Y-67289389D01*
G37*
G36*
X4901000Y-68901000D02*
G01*
X3099000Y-68901000D01*
X3099000Y-67099000D01*
X4901000Y-67099000D01*
X4901000Y-68901000D01*
X4901000Y-68901000D01*
G37*
G36*
X35906564Y-64789389D02*
G01*
X36097833Y-64868615D01*
X36097835Y-64868616D01*
X36269973Y-64983635D01*
X36416365Y-65130027D01*
X36518828Y-65283373D01*
X36531385Y-65302167D01*
X36610611Y-65493436D01*
X36651000Y-65696484D01*
X36651000Y-65903516D01*
X36610611Y-66106564D01*
X36566615Y-66212779D01*
X36531384Y-66297835D01*
X36416365Y-66469973D01*
X36269973Y-66616365D01*
X36097835Y-66731384D01*
X36097834Y-66731385D01*
X36097833Y-66731385D01*
X35906564Y-66810611D01*
X35703516Y-66851000D01*
X35496484Y-66851000D01*
X35293436Y-66810611D01*
X35102167Y-66731385D01*
X35102166Y-66731385D01*
X35102165Y-66731384D01*
X34930027Y-66616365D01*
X34783635Y-66469973D01*
X34668616Y-66297835D01*
X34633385Y-66212779D01*
X34589389Y-66106564D01*
X34549000Y-65903516D01*
X34549000Y-65696484D01*
X34589389Y-65493436D01*
X34668615Y-65302167D01*
X34681173Y-65283373D01*
X34783635Y-65130027D01*
X34930027Y-64983635D01*
X35102165Y-64868616D01*
X35102167Y-64868615D01*
X35293436Y-64789389D01*
X35496484Y-64749000D01*
X35703516Y-64749000D01*
X35906564Y-64789389D01*
X35906564Y-64789389D01*
G37*
G36*
X30906564Y-64789389D02*
G01*
X31097833Y-64868615D01*
X31097835Y-64868616D01*
X31269973Y-64983635D01*
X31416365Y-65130027D01*
X31518828Y-65283373D01*
X31531385Y-65302167D01*
X31610611Y-65493436D01*
X31651000Y-65696484D01*
X31651000Y-65903516D01*
X31610611Y-66106564D01*
X31566615Y-66212779D01*
X31531384Y-66297835D01*
X31416365Y-66469973D01*
X31269973Y-66616365D01*
X31097835Y-66731384D01*
X31097834Y-66731385D01*
X31097833Y-66731385D01*
X30906564Y-66810611D01*
X30703516Y-66851000D01*
X30496484Y-66851000D01*
X30293436Y-66810611D01*
X30102167Y-66731385D01*
X30102166Y-66731385D01*
X30102165Y-66731384D01*
X29930027Y-66616365D01*
X29783635Y-66469973D01*
X29668616Y-66297835D01*
X29633385Y-66212779D01*
X29589389Y-66106564D01*
X29549000Y-65903516D01*
X29549000Y-65696484D01*
X29589389Y-65493436D01*
X29668615Y-65302167D01*
X29681173Y-65283373D01*
X29783635Y-65130027D01*
X29930027Y-64983635D01*
X30102165Y-64868616D01*
X30102167Y-64868615D01*
X30293436Y-64789389D01*
X30496484Y-64749000D01*
X30703516Y-64749000D01*
X30906564Y-64789389D01*
X30906564Y-64789389D01*
G37*
G36*
X34151000Y-66851000D02*
G01*
X32049000Y-66851000D01*
X32049000Y-64749000D01*
X34151000Y-64749000D01*
X34151000Y-66851000D01*
X34151000Y-66851000D01*
G37*
G36*
X4110443Y-64565519D02*
G01*
X4176627Y-64572037D01*
X4346466Y-64623557D01*
X4502991Y-64707222D01*
X4538729Y-64736552D01*
X4640186Y-64819814D01*
X4723448Y-64921271D01*
X4752778Y-64957009D01*
X4836443Y-65113534D01*
X4887963Y-65283373D01*
X4905359Y-65460000D01*
X4887963Y-65636627D01*
X4836443Y-65806466D01*
X4752778Y-65962991D01*
X4723448Y-65998729D01*
X4640186Y-66100186D01*
X4538729Y-66183448D01*
X4502991Y-66212778D01*
X4346466Y-66296443D01*
X4176627Y-66347963D01*
X4110443Y-66354481D01*
X4044260Y-66361000D01*
X3955740Y-66361000D01*
X3889557Y-66354481D01*
X3823373Y-66347963D01*
X3653534Y-66296443D01*
X3497009Y-66212778D01*
X3461271Y-66183448D01*
X3359814Y-66100186D01*
X3276552Y-65998729D01*
X3247222Y-65962991D01*
X3163557Y-65806466D01*
X3112037Y-65636627D01*
X3094641Y-65460000D01*
X3112037Y-65283373D01*
X3163557Y-65113534D01*
X3247222Y-64957009D01*
X3276552Y-64921271D01*
X3359814Y-64819814D01*
X3461271Y-64736552D01*
X3497009Y-64707222D01*
X3653534Y-64623557D01*
X3823373Y-64572037D01*
X3889557Y-64565519D01*
X3955740Y-64559000D01*
X4044260Y-64559000D01*
X4110443Y-64565519D01*
X4110443Y-64565519D01*
G37*
G36*
X39554591Y-64478085D02*
G01*
X39588569Y-64488393D01*
X39619890Y-64505134D01*
X39647339Y-64527661D01*
X39669866Y-64555110D01*
X39686607Y-64586431D01*
X39696915Y-64620409D01*
X39701000Y-64661890D01*
X39701000Y-65338110D01*
X39696915Y-65379591D01*
X39686607Y-65413569D01*
X39669866Y-65444890D01*
X39647339Y-65472339D01*
X39619890Y-65494866D01*
X39588569Y-65511607D01*
X39554591Y-65521915D01*
X39513110Y-65526000D01*
X38911890Y-65526000D01*
X38870409Y-65521915D01*
X38836431Y-65511607D01*
X38805110Y-65494866D01*
X38777661Y-65472339D01*
X38755134Y-65444890D01*
X38738393Y-65413569D01*
X38728085Y-65379591D01*
X38724000Y-65338110D01*
X38724000Y-64661890D01*
X38728085Y-64620409D01*
X38738393Y-64586431D01*
X38755134Y-64555110D01*
X38777661Y-64527661D01*
X38805110Y-64505134D01*
X38836431Y-64488393D01*
X38870409Y-64478085D01*
X38911890Y-64474000D01*
X39513110Y-64474000D01*
X39554591Y-64478085D01*
X39554591Y-64478085D01*
G37*
G36*
X25554591Y-64478085D02*
G01*
X25588569Y-64488393D01*
X25619890Y-64505134D01*
X25647339Y-64527661D01*
X25669866Y-64555110D01*
X25686607Y-64586431D01*
X25696915Y-64620409D01*
X25701000Y-64661890D01*
X25701000Y-65338110D01*
X25696915Y-65379591D01*
X25686607Y-65413569D01*
X25669866Y-65444890D01*
X25647339Y-65472339D01*
X25619890Y-65494866D01*
X25588569Y-65511607D01*
X25554591Y-65521915D01*
X25513110Y-65526000D01*
X24911890Y-65526000D01*
X24870409Y-65521915D01*
X24836431Y-65511607D01*
X24805110Y-65494866D01*
X24777661Y-65472339D01*
X24755134Y-65444890D01*
X24738393Y-65413569D01*
X24728085Y-65379591D01*
X24724000Y-65338110D01*
X24724000Y-64661890D01*
X24728085Y-64620409D01*
X24738393Y-64586431D01*
X24755134Y-64555110D01*
X24777661Y-64527661D01*
X24805110Y-64505134D01*
X24836431Y-64488393D01*
X24870409Y-64478085D01*
X24911890Y-64474000D01*
X25513110Y-64474000D01*
X25554591Y-64478085D01*
X25554591Y-64478085D01*
G37*
G36*
X27129591Y-64478085D02*
G01*
X27163569Y-64488393D01*
X27194890Y-64505134D01*
X27222339Y-64527661D01*
X27244866Y-64555110D01*
X27261607Y-64586431D01*
X27271915Y-64620409D01*
X27276000Y-64661890D01*
X27276000Y-65338110D01*
X27271915Y-65379591D01*
X27261607Y-65413569D01*
X27244866Y-65444890D01*
X27222339Y-65472339D01*
X27194890Y-65494866D01*
X27163569Y-65511607D01*
X27129591Y-65521915D01*
X27088110Y-65526000D01*
X26486890Y-65526000D01*
X26445409Y-65521915D01*
X26411431Y-65511607D01*
X26380110Y-65494866D01*
X26352661Y-65472339D01*
X26330134Y-65444890D01*
X26313393Y-65413569D01*
X26303085Y-65379591D01*
X26299000Y-65338110D01*
X26299000Y-64661890D01*
X26303085Y-64620409D01*
X26313393Y-64586431D01*
X26330134Y-64555110D01*
X26352661Y-64527661D01*
X26380110Y-64505134D01*
X26411431Y-64488393D01*
X26445409Y-64478085D01*
X26486890Y-64474000D01*
X27088110Y-64474000D01*
X27129591Y-64478085D01*
X27129591Y-64478085D01*
G37*
G36*
X41129591Y-64478085D02*
G01*
X41163569Y-64488393D01*
X41194890Y-64505134D01*
X41222339Y-64527661D01*
X41244866Y-64555110D01*
X41261607Y-64586431D01*
X41271915Y-64620409D01*
X41276000Y-64661890D01*
X41276000Y-65338110D01*
X41271915Y-65379591D01*
X41261607Y-65413569D01*
X41244866Y-65444890D01*
X41222339Y-65472339D01*
X41194890Y-65494866D01*
X41163569Y-65511607D01*
X41129591Y-65521915D01*
X41088110Y-65526000D01*
X40486890Y-65526000D01*
X40445409Y-65521915D01*
X40411431Y-65511607D01*
X40380110Y-65494866D01*
X40352661Y-65472339D01*
X40330134Y-65444890D01*
X40313393Y-65413569D01*
X40303085Y-65379591D01*
X40299000Y-65338110D01*
X40299000Y-64661890D01*
X40303085Y-64620409D01*
X40313393Y-64586431D01*
X40330134Y-64555110D01*
X40352661Y-64527661D01*
X40380110Y-64505134D01*
X40411431Y-64488393D01*
X40445409Y-64478085D01*
X40486890Y-64474000D01*
X41088110Y-64474000D01*
X41129591Y-64478085D01*
X41129591Y-64478085D01*
G37*
G36*
X4110442Y-62025518D02*
G01*
X4176627Y-62032037D01*
X4346466Y-62083557D01*
X4502991Y-62167222D01*
X4538729Y-62196552D01*
X4640186Y-62279814D01*
X4723448Y-62381271D01*
X4752778Y-62417009D01*
X4836443Y-62573534D01*
X4887963Y-62743373D01*
X4905359Y-62920000D01*
X4887963Y-63096627D01*
X4836443Y-63266466D01*
X4836442Y-63266468D01*
X4802803Y-63329401D01*
X4752778Y-63422991D01*
X4734806Y-63444890D01*
X4640186Y-63560186D01*
X4538729Y-63643448D01*
X4502991Y-63672778D01*
X4346466Y-63756443D01*
X4176627Y-63807963D01*
X4110442Y-63814482D01*
X4044260Y-63821000D01*
X3955740Y-63821000D01*
X3889558Y-63814482D01*
X3823373Y-63807963D01*
X3653534Y-63756443D01*
X3497009Y-63672778D01*
X3461271Y-63643448D01*
X3359814Y-63560186D01*
X3265194Y-63444890D01*
X3247222Y-63422991D01*
X3197197Y-63329401D01*
X3163558Y-63266468D01*
X3163557Y-63266466D01*
X3112037Y-63096627D01*
X3094641Y-62920000D01*
X3112037Y-62743373D01*
X3163557Y-62573534D01*
X3247222Y-62417009D01*
X3276552Y-62381271D01*
X3359814Y-62279814D01*
X3461271Y-62196552D01*
X3497009Y-62167222D01*
X3653534Y-62083557D01*
X3823373Y-62032037D01*
X3889558Y-62025518D01*
X3955740Y-62019000D01*
X4044260Y-62019000D01*
X4110442Y-62025518D01*
X4110442Y-62025518D01*
G37*
G36*
X23129591Y-62478085D02*
G01*
X23163569Y-62488393D01*
X23194890Y-62505134D01*
X23222339Y-62527661D01*
X23244866Y-62555110D01*
X23261607Y-62586431D01*
X23271915Y-62620409D01*
X23276000Y-62661890D01*
X23276000Y-63338110D01*
X23271915Y-63379591D01*
X23261607Y-63413569D01*
X23244866Y-63444890D01*
X23222339Y-63472339D01*
X23194890Y-63494866D01*
X23163569Y-63511607D01*
X23129591Y-63521915D01*
X23088110Y-63526000D01*
X22486890Y-63526000D01*
X22445409Y-63521915D01*
X22411431Y-63511607D01*
X22380110Y-63494866D01*
X22352661Y-63472339D01*
X22330134Y-63444890D01*
X22313393Y-63413569D01*
X22303085Y-63379591D01*
X22299000Y-63338110D01*
X22299000Y-62661890D01*
X22303085Y-62620409D01*
X22313393Y-62586431D01*
X22330134Y-62555110D01*
X22352661Y-62527661D01*
X22380110Y-62505134D01*
X22411431Y-62488393D01*
X22445409Y-62478085D01*
X22486890Y-62474000D01*
X23088110Y-62474000D01*
X23129591Y-62478085D01*
X23129591Y-62478085D01*
G37*
G36*
X21554591Y-62478085D02*
G01*
X21588569Y-62488393D01*
X21619890Y-62505134D01*
X21647339Y-62527661D01*
X21669866Y-62555110D01*
X21686607Y-62586431D01*
X21696915Y-62620409D01*
X21701000Y-62661890D01*
X21701000Y-63338110D01*
X21696915Y-63379591D01*
X21686607Y-63413569D01*
X21669866Y-63444890D01*
X21647339Y-63472339D01*
X21619890Y-63494866D01*
X21588569Y-63511607D01*
X21554591Y-63521915D01*
X21513110Y-63526000D01*
X20911890Y-63526000D01*
X20870409Y-63521915D01*
X20836431Y-63511607D01*
X20805110Y-63494866D01*
X20777661Y-63472339D01*
X20755134Y-63444890D01*
X20738393Y-63413569D01*
X20728085Y-63379591D01*
X20724000Y-63338110D01*
X20724000Y-62661890D01*
X20728085Y-62620409D01*
X20738393Y-62586431D01*
X20755134Y-62555110D01*
X20777661Y-62527661D01*
X20805110Y-62505134D01*
X20836431Y-62488393D01*
X20870409Y-62478085D01*
X20911890Y-62474000D01*
X21513110Y-62474000D01*
X21554591Y-62478085D01*
X21554591Y-62478085D01*
G37*
G36*
X43554591Y-62478085D02*
G01*
X43588569Y-62488393D01*
X43619890Y-62505134D01*
X43647339Y-62527661D01*
X43669866Y-62555110D01*
X43686607Y-62586431D01*
X43696915Y-62620409D01*
X43701000Y-62661890D01*
X43701000Y-63338110D01*
X43696915Y-63379591D01*
X43686607Y-63413569D01*
X43669866Y-63444890D01*
X43647339Y-63472339D01*
X43619890Y-63494866D01*
X43588569Y-63511607D01*
X43554591Y-63521915D01*
X43513110Y-63526000D01*
X42911890Y-63526000D01*
X42870409Y-63521915D01*
X42836431Y-63511607D01*
X42805110Y-63494866D01*
X42777661Y-63472339D01*
X42755134Y-63444890D01*
X42738393Y-63413569D01*
X42728085Y-63379591D01*
X42724000Y-63338110D01*
X42724000Y-62661890D01*
X42728085Y-62620409D01*
X42738393Y-62586431D01*
X42755134Y-62555110D01*
X42777661Y-62527661D01*
X42805110Y-62505134D01*
X42836431Y-62488393D01*
X42870409Y-62478085D01*
X42911890Y-62474000D01*
X43513110Y-62474000D01*
X43554591Y-62478085D01*
X43554591Y-62478085D01*
G37*
G36*
X45129591Y-62478085D02*
G01*
X45163569Y-62488393D01*
X45194890Y-62505134D01*
X45222339Y-62527661D01*
X45244866Y-62555110D01*
X45261607Y-62586431D01*
X45271915Y-62620409D01*
X45276000Y-62661890D01*
X45276000Y-63338110D01*
X45271915Y-63379591D01*
X45261607Y-63413569D01*
X45244866Y-63444890D01*
X45222339Y-63472339D01*
X45194890Y-63494866D01*
X45163569Y-63511607D01*
X45129591Y-63521915D01*
X45088110Y-63526000D01*
X44486890Y-63526000D01*
X44445409Y-63521915D01*
X44411431Y-63511607D01*
X44380110Y-63494866D01*
X44352661Y-63472339D01*
X44330134Y-63444890D01*
X44313393Y-63413569D01*
X44303085Y-63379591D01*
X44299000Y-63338110D01*
X44299000Y-62661890D01*
X44303085Y-62620409D01*
X44313393Y-62586431D01*
X44330134Y-62555110D01*
X44352661Y-62527661D01*
X44380110Y-62505134D01*
X44411431Y-62488393D01*
X44445409Y-62478085D01*
X44486890Y-62474000D01*
X45088110Y-62474000D01*
X45129591Y-62478085D01*
X45129591Y-62478085D01*
G37*
G36*
X4110443Y-59485519D02*
G01*
X4176627Y-59492037D01*
X4346466Y-59543557D01*
X4502991Y-59627222D01*
X4538729Y-59656552D01*
X4640186Y-59739814D01*
X4723448Y-59841271D01*
X4752778Y-59877009D01*
X4836443Y-60033534D01*
X4887963Y-60203373D01*
X4905359Y-60380000D01*
X4887963Y-60556627D01*
X4836443Y-60726466D01*
X4752778Y-60882991D01*
X4723448Y-60918729D01*
X4640186Y-61020186D01*
X4538729Y-61103448D01*
X4502991Y-61132778D01*
X4346466Y-61216443D01*
X4176627Y-61267963D01*
X4110442Y-61274482D01*
X4044260Y-61281000D01*
X3955740Y-61281000D01*
X3889558Y-61274482D01*
X3823373Y-61267963D01*
X3653534Y-61216443D01*
X3497009Y-61132778D01*
X3461271Y-61103448D01*
X3359814Y-61020186D01*
X3276552Y-60918729D01*
X3247222Y-60882991D01*
X3163557Y-60726466D01*
X3112037Y-60556627D01*
X3094641Y-60380000D01*
X3112037Y-60203373D01*
X3163557Y-60033534D01*
X3247222Y-59877009D01*
X3276552Y-59841271D01*
X3359814Y-59739814D01*
X3461271Y-59656552D01*
X3497009Y-59627222D01*
X3653534Y-59543557D01*
X3823373Y-59492037D01*
X3889557Y-59485519D01*
X3955740Y-59479000D01*
X4044260Y-59479000D01*
X4110443Y-59485519D01*
X4110443Y-59485519D01*
G37*
G36*
X33895742Y-47388694D02*
G01*
X34121204Y-47433541D01*
X34385116Y-47542857D01*
X34758344Y-47697453D01*
X35331757Y-48080595D01*
X35819405Y-48568243D01*
X36202547Y-49141656D01*
X36357143Y-49514884D01*
X36466459Y-49778796D01*
X36474633Y-49819890D01*
X36601000Y-50455180D01*
X36601000Y-51144820D01*
X36466459Y-51821203D01*
X36202547Y-52458344D01*
X35819405Y-53031757D01*
X35331757Y-53519405D01*
X34758344Y-53902547D01*
X34385116Y-54057143D01*
X34121204Y-54166459D01*
X33895742Y-54211306D01*
X33444820Y-54301000D01*
X32755180Y-54301000D01*
X32304258Y-54211306D01*
X32078796Y-54166459D01*
X31814884Y-54057143D01*
X31441656Y-53902547D01*
X30868243Y-53519405D01*
X30380595Y-53031757D01*
X29997453Y-52458344D01*
X29733541Y-51821203D01*
X29599000Y-51144820D01*
X29599000Y-50455180D01*
X29725367Y-49819890D01*
X29733541Y-49778796D01*
X29842857Y-49514884D01*
X29997453Y-49141656D01*
X30380595Y-48568243D01*
X30868243Y-48080595D01*
X31441656Y-47697453D01*
X31814884Y-47542857D01*
X32078796Y-47433541D01*
X32304258Y-47388694D01*
X32755180Y-47299000D01*
X33444820Y-47299000D01*
X33895742Y-47388694D01*
X33895742Y-47388694D01*
G37*
G36*
X14679591Y-50503085D02*
G01*
X14713569Y-50513393D01*
X14744890Y-50530134D01*
X14772339Y-50552661D01*
X14794866Y-50580110D01*
X14811607Y-50611431D01*
X14821915Y-50645409D01*
X14826000Y-50686890D01*
X14826000Y-51288110D01*
X14821915Y-51329591D01*
X14811607Y-51363569D01*
X14794866Y-51394890D01*
X14772339Y-51422339D01*
X14744890Y-51444866D01*
X14713569Y-51461607D01*
X14679591Y-51471915D01*
X14638110Y-51476000D01*
X13961890Y-51476000D01*
X13920409Y-51471915D01*
X13886431Y-51461607D01*
X13855110Y-51444866D01*
X13827661Y-51422339D01*
X13805134Y-51394890D01*
X13788393Y-51363569D01*
X13778085Y-51329591D01*
X13774000Y-51288110D01*
X13774000Y-50686890D01*
X13778085Y-50645409D01*
X13788393Y-50611431D01*
X13805134Y-50580110D01*
X13827661Y-50552661D01*
X13855110Y-50530134D01*
X13886431Y-50513393D01*
X13920409Y-50503085D01*
X13961890Y-50499000D01*
X14638110Y-50499000D01*
X14679591Y-50503085D01*
X14679591Y-50503085D01*
G37*
G36*
X14679591Y-48928085D02*
G01*
X14713569Y-48938393D01*
X14744890Y-48955134D01*
X14772339Y-48977661D01*
X14794866Y-49005110D01*
X14811607Y-49036431D01*
X14821915Y-49070409D01*
X14826000Y-49111890D01*
X14826000Y-49713110D01*
X14821915Y-49754591D01*
X14811607Y-49788569D01*
X14794866Y-49819890D01*
X14772339Y-49847339D01*
X14744890Y-49869866D01*
X14713569Y-49886607D01*
X14679591Y-49896915D01*
X14638110Y-49901000D01*
X13961890Y-49901000D01*
X13920409Y-49896915D01*
X13886431Y-49886607D01*
X13855110Y-49869866D01*
X13827661Y-49847339D01*
X13805134Y-49819890D01*
X13788393Y-49788569D01*
X13778085Y-49754591D01*
X13774000Y-49713110D01*
X13774000Y-49111890D01*
X13778085Y-49070409D01*
X13788393Y-49036431D01*
X13805134Y-49005110D01*
X13827661Y-48977661D01*
X13855110Y-48955134D01*
X13886431Y-48938393D01*
X13920409Y-48928085D01*
X13961890Y-48924000D01*
X14638110Y-48924000D01*
X14679591Y-48928085D01*
X14679591Y-48928085D01*
G37*
G36*
X9420295Y-43375323D02*
G01*
X9427309Y-43377451D01*
X9441077Y-43384810D01*
X9463716Y-43394187D01*
X9487749Y-43398967D01*
X9512253Y-43398967D01*
X9536286Y-43394186D01*
X9558923Y-43384810D01*
X9572691Y-43377451D01*
X9579705Y-43375323D01*
X9593140Y-43374000D01*
X9906860Y-43374000D01*
X9920295Y-43375323D01*
X9927309Y-43377451D01*
X9941077Y-43384810D01*
X9963716Y-43394187D01*
X9987749Y-43398967D01*
X10012253Y-43398967D01*
X10036286Y-43394186D01*
X10058923Y-43384810D01*
X10072691Y-43377451D01*
X10079705Y-43375323D01*
X10093140Y-43374000D01*
X10406860Y-43374000D01*
X10420295Y-43375323D01*
X10427309Y-43377451D01*
X10441077Y-43384810D01*
X10463716Y-43394187D01*
X10487749Y-43398967D01*
X10512253Y-43398967D01*
X10536286Y-43394186D01*
X10558923Y-43384810D01*
X10572691Y-43377451D01*
X10579705Y-43375323D01*
X10593140Y-43374000D01*
X10906860Y-43374000D01*
X10920295Y-43375323D01*
X10927309Y-43377451D01*
X10941077Y-43384810D01*
X10963716Y-43394187D01*
X10987749Y-43398967D01*
X11012253Y-43398967D01*
X11036286Y-43394186D01*
X11058923Y-43384810D01*
X11072691Y-43377451D01*
X11079705Y-43375323D01*
X11093140Y-43374000D01*
X11406860Y-43374000D01*
X11420295Y-43375323D01*
X11427309Y-43377451D01*
X11441077Y-43384810D01*
X11463716Y-43394187D01*
X11487749Y-43398967D01*
X11512253Y-43398967D01*
X11536286Y-43394186D01*
X11558923Y-43384810D01*
X11572691Y-43377451D01*
X11579705Y-43375323D01*
X11593140Y-43374000D01*
X11906860Y-43374000D01*
X11920295Y-43375323D01*
X11927309Y-43377451D01*
X11941077Y-43384810D01*
X11963716Y-43394187D01*
X11987749Y-43398967D01*
X12012253Y-43398967D01*
X12036286Y-43394186D01*
X12058923Y-43384810D01*
X12072691Y-43377451D01*
X12079705Y-43375323D01*
X12093140Y-43374000D01*
X12406860Y-43374000D01*
X12420295Y-43375323D01*
X12427309Y-43377451D01*
X12441077Y-43384810D01*
X12463716Y-43394187D01*
X12487749Y-43398967D01*
X12512253Y-43398967D01*
X12536286Y-43394186D01*
X12558923Y-43384810D01*
X12572691Y-43377451D01*
X12579705Y-43375323D01*
X12593140Y-43374000D01*
X12906860Y-43374000D01*
X12920295Y-43375323D01*
X12927309Y-43377451D01*
X12941077Y-43384810D01*
X12963716Y-43394187D01*
X12987749Y-43398967D01*
X13012253Y-43398967D01*
X13036286Y-43394186D01*
X13058923Y-43384810D01*
X13072691Y-43377451D01*
X13079705Y-43375323D01*
X13093140Y-43374000D01*
X13406860Y-43374000D01*
X13420295Y-43375323D01*
X13427309Y-43377451D01*
X13441077Y-43384810D01*
X13463716Y-43394187D01*
X13487749Y-43398967D01*
X13512253Y-43398967D01*
X13536286Y-43394186D01*
X13558923Y-43384810D01*
X13572691Y-43377451D01*
X13579705Y-43375323D01*
X13593140Y-43374000D01*
X13906860Y-43374000D01*
X13920295Y-43375323D01*
X13927309Y-43377451D01*
X13941077Y-43384810D01*
X13963716Y-43394187D01*
X13987749Y-43398967D01*
X14012253Y-43398967D01*
X14036286Y-43394186D01*
X14058923Y-43384810D01*
X14072691Y-43377451D01*
X14079705Y-43375323D01*
X14093140Y-43374000D01*
X14406860Y-43374000D01*
X14420295Y-43375323D01*
X14427309Y-43377451D01*
X14441077Y-43384810D01*
X14463716Y-43394187D01*
X14487749Y-43398967D01*
X14512253Y-43398967D01*
X14536286Y-43394186D01*
X14558923Y-43384810D01*
X14572691Y-43377451D01*
X14579705Y-43375323D01*
X14593140Y-43374000D01*
X14906860Y-43374000D01*
X14920295Y-43375323D01*
X14927310Y-43377451D01*
X14933776Y-43380908D01*
X14939442Y-43385558D01*
X14944092Y-43391224D01*
X14947549Y-43397690D01*
X14949677Y-43404705D01*
X14951000Y-43418140D01*
X14951000Y-44906860D01*
X14949677Y-44920295D01*
X14947549Y-44927310D01*
X14944092Y-44933776D01*
X14939442Y-44939442D01*
X14933776Y-44944092D01*
X14927310Y-44947549D01*
X14920295Y-44949677D01*
X14906860Y-44951000D01*
X14593140Y-44951000D01*
X14579705Y-44949677D01*
X14572691Y-44947549D01*
X14558923Y-44940190D01*
X14536284Y-44930813D01*
X14512251Y-44926033D01*
X14487747Y-44926033D01*
X14463714Y-44930814D01*
X14441077Y-44940190D01*
X14427309Y-44947549D01*
X14420295Y-44949677D01*
X14406860Y-44951000D01*
X14093140Y-44951000D01*
X14079705Y-44949677D01*
X14072691Y-44947549D01*
X14058923Y-44940190D01*
X14036284Y-44930813D01*
X14012251Y-44926033D01*
X13987747Y-44926033D01*
X13963714Y-44930814D01*
X13941077Y-44940190D01*
X13927309Y-44947549D01*
X13920295Y-44949677D01*
X13906860Y-44951000D01*
X13593140Y-44951000D01*
X13579705Y-44949677D01*
X13572691Y-44947549D01*
X13558923Y-44940190D01*
X13536284Y-44930813D01*
X13512251Y-44926033D01*
X13487747Y-44926033D01*
X13463714Y-44930814D01*
X13441077Y-44940190D01*
X13427309Y-44947549D01*
X13420295Y-44949677D01*
X13406860Y-44951000D01*
X13093140Y-44951000D01*
X13079705Y-44949677D01*
X13072691Y-44947549D01*
X13058923Y-44940190D01*
X13036284Y-44930813D01*
X13012251Y-44926033D01*
X12987747Y-44926033D01*
X12963714Y-44930814D01*
X12941077Y-44940190D01*
X12927309Y-44947549D01*
X12920295Y-44949677D01*
X12906860Y-44951000D01*
X12593140Y-44951000D01*
X12579705Y-44949677D01*
X12572691Y-44947549D01*
X12558923Y-44940190D01*
X12536284Y-44930813D01*
X12512251Y-44926033D01*
X12487747Y-44926033D01*
X12463714Y-44930814D01*
X12441077Y-44940190D01*
X12427309Y-44947549D01*
X12420295Y-44949677D01*
X12406860Y-44951000D01*
X12093140Y-44951000D01*
X12079705Y-44949677D01*
X12072691Y-44947549D01*
X12058923Y-44940190D01*
X12036284Y-44930813D01*
X12012251Y-44926033D01*
X11987747Y-44926033D01*
X11963714Y-44930814D01*
X11941077Y-44940190D01*
X11927309Y-44947549D01*
X11920295Y-44949677D01*
X11906860Y-44951000D01*
X11593140Y-44951000D01*
X11579705Y-44949677D01*
X11572691Y-44947549D01*
X11558923Y-44940190D01*
X11536284Y-44930813D01*
X11512251Y-44926033D01*
X11487747Y-44926033D01*
X11463714Y-44930814D01*
X11441077Y-44940190D01*
X11427309Y-44947549D01*
X11420295Y-44949677D01*
X11406860Y-44951000D01*
X11093140Y-44951000D01*
X11079705Y-44949677D01*
X11072691Y-44947549D01*
X11058923Y-44940190D01*
X11036284Y-44930813D01*
X11012251Y-44926033D01*
X10987747Y-44926033D01*
X10963714Y-44930814D01*
X10941077Y-44940190D01*
X10927309Y-44947549D01*
X10920295Y-44949677D01*
X10906860Y-44951000D01*
X10593140Y-44951000D01*
X10579705Y-44949677D01*
X10572691Y-44947549D01*
X10558923Y-44940190D01*
X10536284Y-44930813D01*
X10512251Y-44926033D01*
X10487747Y-44926033D01*
X10463714Y-44930814D01*
X10441077Y-44940190D01*
X10427309Y-44947549D01*
X10420295Y-44949677D01*
X10406860Y-44951000D01*
X10093140Y-44951000D01*
X10079705Y-44949677D01*
X10072691Y-44947549D01*
X10058923Y-44940190D01*
X10036284Y-44930813D01*
X10012251Y-44926033D01*
X9987747Y-44926033D01*
X9963714Y-44930814D01*
X9941077Y-44940190D01*
X9927309Y-44947549D01*
X9920295Y-44949677D01*
X9906860Y-44951000D01*
X9593140Y-44951000D01*
X9579705Y-44949677D01*
X9572691Y-44947549D01*
X9558923Y-44940190D01*
X9536284Y-44930813D01*
X9512251Y-44926033D01*
X9487747Y-44926033D01*
X9463714Y-44930814D01*
X9441077Y-44940190D01*
X9427309Y-44947549D01*
X9420295Y-44949677D01*
X9406860Y-44951000D01*
X9093140Y-44951000D01*
X9079705Y-44949677D01*
X9072690Y-44947549D01*
X9066224Y-44944092D01*
X9060558Y-44939442D01*
X9055908Y-44933776D01*
X9052451Y-44927310D01*
X9050323Y-44920295D01*
X9049000Y-44906860D01*
X9049000Y-43418140D01*
X9050323Y-43404705D01*
X9052451Y-43397690D01*
X9055908Y-43391224D01*
X9060558Y-43385558D01*
X9066224Y-43380908D01*
X9072690Y-43377451D01*
X9079705Y-43375323D01*
X9093140Y-43374000D01*
X9406860Y-43374000D01*
X9420295Y-43375323D01*
X9420295Y-43375323D01*
G37*
G36*
X5129591Y-42478085D02*
G01*
X5163569Y-42488393D01*
X5194890Y-42505134D01*
X5222339Y-42527661D01*
X5244866Y-42555110D01*
X5261607Y-42586431D01*
X5271915Y-42620409D01*
X5276000Y-42661890D01*
X5276000Y-43338110D01*
X5271915Y-43379591D01*
X5261607Y-43413569D01*
X5244866Y-43444890D01*
X5222339Y-43472339D01*
X5194890Y-43494866D01*
X5163569Y-43511607D01*
X5129591Y-43521915D01*
X5088110Y-43526000D01*
X4486890Y-43526000D01*
X4445409Y-43521915D01*
X4411431Y-43511607D01*
X4380110Y-43494866D01*
X4352661Y-43472339D01*
X4330134Y-43444890D01*
X4313393Y-43413569D01*
X4303085Y-43379591D01*
X4299000Y-43338110D01*
X4299000Y-42661890D01*
X4303085Y-42620409D01*
X4313393Y-42586431D01*
X4330134Y-42555110D01*
X4352661Y-42527661D01*
X4380110Y-42505134D01*
X4411431Y-42488393D01*
X4445409Y-42478085D01*
X4486890Y-42474000D01*
X5088110Y-42474000D01*
X5129591Y-42478085D01*
X5129591Y-42478085D01*
G37*
G36*
X3554591Y-42478085D02*
G01*
X3588569Y-42488393D01*
X3619890Y-42505134D01*
X3647339Y-42527661D01*
X3669866Y-42555110D01*
X3686607Y-42586431D01*
X3696915Y-42620409D01*
X3701000Y-42661890D01*
X3701000Y-43338110D01*
X3696915Y-43379591D01*
X3686607Y-43413569D01*
X3669866Y-43444890D01*
X3647339Y-43472339D01*
X3619890Y-43494866D01*
X3588569Y-43511607D01*
X3554591Y-43521915D01*
X3513110Y-43526000D01*
X2911890Y-43526000D01*
X2870409Y-43521915D01*
X2836431Y-43511607D01*
X2805110Y-43494866D01*
X2777661Y-43472339D01*
X2755134Y-43444890D01*
X2738393Y-43413569D01*
X2728085Y-43379591D01*
X2724000Y-43338110D01*
X2724000Y-42661890D01*
X2728085Y-42620409D01*
X2738393Y-42586431D01*
X2755134Y-42555110D01*
X2777661Y-42527661D01*
X2805110Y-42505134D01*
X2836431Y-42488393D01*
X2870409Y-42478085D01*
X2911890Y-42474000D01*
X3513110Y-42474000D01*
X3554591Y-42478085D01*
X3554591Y-42478085D01*
G37*
G36*
X16920295Y-37050323D02*
G01*
X16927310Y-37052451D01*
X16933776Y-37055908D01*
X16939442Y-37060558D01*
X16944092Y-37066224D01*
X16947549Y-37072690D01*
X16949677Y-37079705D01*
X16951000Y-37093140D01*
X16951000Y-37406860D01*
X16949677Y-37420295D01*
X16947549Y-37427309D01*
X16940190Y-37441077D01*
X16930813Y-37463716D01*
X16926033Y-37487749D01*
X16926033Y-37512253D01*
X16930814Y-37536286D01*
X16940190Y-37558923D01*
X16947549Y-37572691D01*
X16949677Y-37579705D01*
X16951000Y-37593140D01*
X16951000Y-37906860D01*
X16949677Y-37920295D01*
X16947549Y-37927309D01*
X16940190Y-37941077D01*
X16930813Y-37963716D01*
X16926033Y-37987749D01*
X16926033Y-38012253D01*
X16930814Y-38036286D01*
X16940190Y-38058923D01*
X16947549Y-38072691D01*
X16949677Y-38079705D01*
X16951000Y-38093140D01*
X16951000Y-38406860D01*
X16949677Y-38420295D01*
X16947549Y-38427309D01*
X16940190Y-38441077D01*
X16930813Y-38463716D01*
X16926033Y-38487749D01*
X16926033Y-38512253D01*
X16930814Y-38536286D01*
X16940190Y-38558923D01*
X16947549Y-38572691D01*
X16949677Y-38579705D01*
X16951000Y-38593140D01*
X16951000Y-38906860D01*
X16949677Y-38920295D01*
X16947549Y-38927309D01*
X16940190Y-38941077D01*
X16930813Y-38963716D01*
X16926033Y-38987749D01*
X16926033Y-39012253D01*
X16930814Y-39036286D01*
X16940190Y-39058923D01*
X16947549Y-39072691D01*
X16949677Y-39079705D01*
X16951000Y-39093140D01*
X16951000Y-39406860D01*
X16949677Y-39420295D01*
X16947549Y-39427309D01*
X16940190Y-39441077D01*
X16930813Y-39463716D01*
X16926033Y-39487749D01*
X16926033Y-39512253D01*
X16930814Y-39536286D01*
X16940190Y-39558923D01*
X16947549Y-39572691D01*
X16949677Y-39579705D01*
X16951000Y-39593140D01*
X16951000Y-39906860D01*
X16949677Y-39920295D01*
X16947549Y-39927309D01*
X16940190Y-39941077D01*
X16930813Y-39963716D01*
X16926033Y-39987749D01*
X16926033Y-40012253D01*
X16930814Y-40036286D01*
X16940190Y-40058923D01*
X16947549Y-40072691D01*
X16949677Y-40079705D01*
X16951000Y-40093140D01*
X16951000Y-40406860D01*
X16949677Y-40420295D01*
X16947549Y-40427309D01*
X16940190Y-40441077D01*
X16930813Y-40463716D01*
X16926033Y-40487749D01*
X16926033Y-40512253D01*
X16930814Y-40536286D01*
X16940190Y-40558923D01*
X16947549Y-40572691D01*
X16949677Y-40579705D01*
X16951000Y-40593140D01*
X16951000Y-40906860D01*
X16949677Y-40920295D01*
X16947549Y-40927309D01*
X16940190Y-40941077D01*
X16930813Y-40963716D01*
X16926033Y-40987749D01*
X16926033Y-41012253D01*
X16930814Y-41036286D01*
X16940190Y-41058923D01*
X16947549Y-41072691D01*
X16949677Y-41079705D01*
X16951000Y-41093140D01*
X16951000Y-41406860D01*
X16949677Y-41420295D01*
X16947549Y-41427309D01*
X16940190Y-41441077D01*
X16930813Y-41463716D01*
X16926033Y-41487749D01*
X16926033Y-41512253D01*
X16930814Y-41536286D01*
X16940190Y-41558923D01*
X16947549Y-41572691D01*
X16949677Y-41579705D01*
X16951000Y-41593140D01*
X16951000Y-41906860D01*
X16949677Y-41920295D01*
X16947549Y-41927309D01*
X16940190Y-41941077D01*
X16930813Y-41963716D01*
X16926033Y-41987749D01*
X16926033Y-42012253D01*
X16930814Y-42036286D01*
X16940190Y-42058923D01*
X16947549Y-42072691D01*
X16949677Y-42079705D01*
X16951000Y-42093140D01*
X16951000Y-42406860D01*
X16949677Y-42420295D01*
X16947549Y-42427309D01*
X16940190Y-42441077D01*
X16930813Y-42463716D01*
X16926033Y-42487749D01*
X16926033Y-42512253D01*
X16930814Y-42536286D01*
X16940190Y-42558923D01*
X16947549Y-42572691D01*
X16949677Y-42579705D01*
X16951000Y-42593140D01*
X16951000Y-42906860D01*
X16949677Y-42920295D01*
X16947549Y-42927310D01*
X16944092Y-42933776D01*
X16939442Y-42939442D01*
X16933776Y-42944092D01*
X16927310Y-42947549D01*
X16920295Y-42949677D01*
X16906860Y-42951000D01*
X15418140Y-42951000D01*
X15404705Y-42949677D01*
X15397690Y-42947549D01*
X15391224Y-42944092D01*
X15385558Y-42939442D01*
X15380908Y-42933776D01*
X15377451Y-42927310D01*
X15375323Y-42920295D01*
X15374000Y-42906860D01*
X15374000Y-42593140D01*
X15375323Y-42579705D01*
X15377451Y-42572691D01*
X15384810Y-42558923D01*
X15394187Y-42536284D01*
X15398967Y-42512251D01*
X15398967Y-42487747D01*
X15394186Y-42463714D01*
X15384810Y-42441077D01*
X15377451Y-42427309D01*
X15375323Y-42420295D01*
X15374000Y-42406860D01*
X15374000Y-42093140D01*
X15375323Y-42079705D01*
X15377451Y-42072691D01*
X15384810Y-42058923D01*
X15394187Y-42036284D01*
X15398967Y-42012251D01*
X15398967Y-41987747D01*
X15394186Y-41963714D01*
X15384810Y-41941077D01*
X15377451Y-41927309D01*
X15375323Y-41920295D01*
X15374000Y-41906860D01*
X15374000Y-41593140D01*
X15375323Y-41579705D01*
X15377451Y-41572691D01*
X15384810Y-41558923D01*
X15394187Y-41536284D01*
X15398967Y-41512251D01*
X15398967Y-41487747D01*
X15394186Y-41463714D01*
X15384810Y-41441077D01*
X15377451Y-41427309D01*
X15375323Y-41420295D01*
X15374000Y-41406860D01*
X15374000Y-41093140D01*
X15375323Y-41079705D01*
X15377451Y-41072691D01*
X15384810Y-41058923D01*
X15394187Y-41036284D01*
X15398967Y-41012251D01*
X15398967Y-40987747D01*
X15394186Y-40963714D01*
X15384810Y-40941077D01*
X15377451Y-40927309D01*
X15375323Y-40920295D01*
X15374000Y-40906860D01*
X15374000Y-40593140D01*
X15375323Y-40579705D01*
X15377451Y-40572691D01*
X15384810Y-40558923D01*
X15394187Y-40536284D01*
X15398967Y-40512251D01*
X15398967Y-40487747D01*
X15394186Y-40463714D01*
X15384810Y-40441077D01*
X15377451Y-40427309D01*
X15375323Y-40420295D01*
X15374000Y-40406860D01*
X15374000Y-40093140D01*
X15375323Y-40079705D01*
X15377451Y-40072691D01*
X15384810Y-40058923D01*
X15394187Y-40036284D01*
X15398967Y-40012251D01*
X15398967Y-39987747D01*
X15394186Y-39963714D01*
X15384810Y-39941077D01*
X15377451Y-39927309D01*
X15375323Y-39920295D01*
X15374000Y-39906860D01*
X15374000Y-39593140D01*
X15375323Y-39579705D01*
X15377451Y-39572691D01*
X15384810Y-39558923D01*
X15394187Y-39536284D01*
X15398967Y-39512251D01*
X15398967Y-39487747D01*
X15394186Y-39463714D01*
X15384810Y-39441077D01*
X15377451Y-39427309D01*
X15375323Y-39420295D01*
X15374000Y-39406860D01*
X15374000Y-39093140D01*
X15375323Y-39079705D01*
X15377451Y-39072691D01*
X15384810Y-39058923D01*
X15394187Y-39036284D01*
X15398967Y-39012251D01*
X15398967Y-38987747D01*
X15394186Y-38963714D01*
X15384810Y-38941077D01*
X15377451Y-38927309D01*
X15375323Y-38920295D01*
X15374000Y-38906860D01*
X15374000Y-38593140D01*
X15375323Y-38579705D01*
X15377451Y-38572691D01*
X15384810Y-38558923D01*
X15394187Y-38536284D01*
X15398967Y-38512251D01*
X15398967Y-38487747D01*
X15394186Y-38463714D01*
X15384810Y-38441077D01*
X15377451Y-38427309D01*
X15375323Y-38420295D01*
X15374000Y-38406860D01*
X15374000Y-38093140D01*
X15375323Y-38079705D01*
X15377451Y-38072691D01*
X15384810Y-38058923D01*
X15394187Y-38036284D01*
X15398967Y-38012251D01*
X15398967Y-37987747D01*
X15394186Y-37963714D01*
X15384810Y-37941077D01*
X15377451Y-37927309D01*
X15375323Y-37920295D01*
X15374000Y-37906860D01*
X15374000Y-37593140D01*
X15375323Y-37579705D01*
X15377451Y-37572691D01*
X15384810Y-37558923D01*
X15394187Y-37536284D01*
X15398967Y-37512251D01*
X15398967Y-37487747D01*
X15394186Y-37463714D01*
X15384810Y-37441077D01*
X15377451Y-37427309D01*
X15375323Y-37420295D01*
X15374000Y-37406860D01*
X15374000Y-37093140D01*
X15375323Y-37079705D01*
X15377451Y-37072690D01*
X15380908Y-37066224D01*
X15385558Y-37060558D01*
X15391224Y-37055908D01*
X15397690Y-37052451D01*
X15404705Y-37050323D01*
X15418140Y-37049000D01*
X16906860Y-37049000D01*
X16920295Y-37050323D01*
X16920295Y-37050323D01*
G37*
G36*
X8595295Y-37050323D02*
G01*
X8602310Y-37052451D01*
X8608776Y-37055908D01*
X8614442Y-37060558D01*
X8619092Y-37066224D01*
X8622549Y-37072690D01*
X8624677Y-37079705D01*
X8626000Y-37093140D01*
X8626000Y-37406860D01*
X8624677Y-37420295D01*
X8622549Y-37427309D01*
X8615190Y-37441077D01*
X8605813Y-37463716D01*
X8601033Y-37487749D01*
X8601033Y-37512253D01*
X8605814Y-37536286D01*
X8615190Y-37558923D01*
X8622549Y-37572691D01*
X8624677Y-37579705D01*
X8626000Y-37593140D01*
X8626000Y-37906860D01*
X8624677Y-37920295D01*
X8622549Y-37927309D01*
X8615190Y-37941077D01*
X8605813Y-37963716D01*
X8601033Y-37987749D01*
X8601033Y-38012253D01*
X8605814Y-38036286D01*
X8615190Y-38058923D01*
X8622549Y-38072691D01*
X8624677Y-38079705D01*
X8626000Y-38093140D01*
X8626000Y-38406860D01*
X8624677Y-38420295D01*
X8622549Y-38427309D01*
X8615190Y-38441077D01*
X8605813Y-38463716D01*
X8601033Y-38487749D01*
X8601033Y-38512253D01*
X8605814Y-38536286D01*
X8615190Y-38558923D01*
X8622549Y-38572691D01*
X8624677Y-38579705D01*
X8626000Y-38593140D01*
X8626000Y-38906860D01*
X8624677Y-38920295D01*
X8622549Y-38927309D01*
X8615190Y-38941077D01*
X8605813Y-38963716D01*
X8601033Y-38987749D01*
X8601033Y-39012253D01*
X8605814Y-39036286D01*
X8615190Y-39058923D01*
X8622549Y-39072691D01*
X8624677Y-39079705D01*
X8626000Y-39093140D01*
X8626000Y-39406860D01*
X8624677Y-39420295D01*
X8622549Y-39427309D01*
X8615190Y-39441077D01*
X8605813Y-39463716D01*
X8601033Y-39487749D01*
X8601033Y-39512253D01*
X8605814Y-39536286D01*
X8615190Y-39558923D01*
X8622549Y-39572691D01*
X8624677Y-39579705D01*
X8626000Y-39593140D01*
X8626000Y-39906860D01*
X8624677Y-39920295D01*
X8622549Y-39927309D01*
X8615190Y-39941077D01*
X8605813Y-39963716D01*
X8601033Y-39987749D01*
X8601033Y-40012253D01*
X8605814Y-40036286D01*
X8615190Y-40058923D01*
X8622549Y-40072691D01*
X8624677Y-40079705D01*
X8626000Y-40093140D01*
X8626000Y-40406860D01*
X8624677Y-40420295D01*
X8622549Y-40427309D01*
X8615190Y-40441077D01*
X8605813Y-40463716D01*
X8601033Y-40487749D01*
X8601033Y-40512253D01*
X8605814Y-40536286D01*
X8615190Y-40558923D01*
X8622549Y-40572691D01*
X8624677Y-40579705D01*
X8626000Y-40593140D01*
X8626000Y-40906860D01*
X8624677Y-40920295D01*
X8622549Y-40927309D01*
X8615190Y-40941077D01*
X8605813Y-40963716D01*
X8601033Y-40987749D01*
X8601033Y-41012253D01*
X8605814Y-41036286D01*
X8615190Y-41058923D01*
X8622549Y-41072691D01*
X8624677Y-41079705D01*
X8626000Y-41093140D01*
X8626000Y-41406860D01*
X8624677Y-41420295D01*
X8622549Y-41427309D01*
X8615190Y-41441077D01*
X8605813Y-41463716D01*
X8601033Y-41487749D01*
X8601033Y-41512253D01*
X8605814Y-41536286D01*
X8615190Y-41558923D01*
X8622549Y-41572691D01*
X8624677Y-41579705D01*
X8626000Y-41593140D01*
X8626000Y-41906860D01*
X8624677Y-41920295D01*
X8622549Y-41927309D01*
X8615190Y-41941077D01*
X8605813Y-41963716D01*
X8601033Y-41987749D01*
X8601033Y-42012253D01*
X8605814Y-42036286D01*
X8615190Y-42058923D01*
X8622549Y-42072691D01*
X8624677Y-42079705D01*
X8626000Y-42093140D01*
X8626000Y-42406860D01*
X8624677Y-42420295D01*
X8622549Y-42427309D01*
X8615190Y-42441077D01*
X8605813Y-42463716D01*
X8601033Y-42487749D01*
X8601033Y-42512253D01*
X8605814Y-42536286D01*
X8615190Y-42558923D01*
X8622549Y-42572691D01*
X8624677Y-42579705D01*
X8626000Y-42593140D01*
X8626000Y-42906860D01*
X8624677Y-42920295D01*
X8622549Y-42927310D01*
X8619092Y-42933776D01*
X8614442Y-42939442D01*
X8608776Y-42944092D01*
X8602310Y-42947549D01*
X8595295Y-42949677D01*
X8581860Y-42951000D01*
X7093140Y-42951000D01*
X7079705Y-42949677D01*
X7072690Y-42947549D01*
X7066224Y-42944092D01*
X7060558Y-42939442D01*
X7055908Y-42933776D01*
X7052451Y-42927310D01*
X7050323Y-42920295D01*
X7049000Y-42906860D01*
X7049000Y-42593140D01*
X7050323Y-42579705D01*
X7052451Y-42572691D01*
X7059810Y-42558923D01*
X7069187Y-42536284D01*
X7073967Y-42512251D01*
X7073967Y-42487747D01*
X7069186Y-42463714D01*
X7059810Y-42441077D01*
X7052451Y-42427309D01*
X7050323Y-42420295D01*
X7049000Y-42406860D01*
X7049000Y-42093140D01*
X7050323Y-42079705D01*
X7052451Y-42072691D01*
X7059810Y-42058923D01*
X7069187Y-42036284D01*
X7073967Y-42012251D01*
X7073967Y-41987747D01*
X7069186Y-41963714D01*
X7059810Y-41941077D01*
X7052451Y-41927309D01*
X7050323Y-41920295D01*
X7049000Y-41906860D01*
X7049000Y-41593140D01*
X7050323Y-41579705D01*
X7052451Y-41572691D01*
X7059810Y-41558923D01*
X7069187Y-41536284D01*
X7073967Y-41512251D01*
X7073967Y-41487747D01*
X7069186Y-41463714D01*
X7059810Y-41441077D01*
X7052451Y-41427309D01*
X7050323Y-41420295D01*
X7049000Y-41406860D01*
X7049000Y-41093140D01*
X7050323Y-41079705D01*
X7052451Y-41072691D01*
X7059810Y-41058923D01*
X7069187Y-41036284D01*
X7073967Y-41012251D01*
X7073967Y-40987747D01*
X7069186Y-40963714D01*
X7059810Y-40941077D01*
X7052451Y-40927309D01*
X7050323Y-40920295D01*
X7049000Y-40906860D01*
X7049000Y-40593140D01*
X7050323Y-40579705D01*
X7052451Y-40572691D01*
X7059810Y-40558923D01*
X7069187Y-40536284D01*
X7073967Y-40512251D01*
X7073967Y-40487747D01*
X7069186Y-40463714D01*
X7059810Y-40441077D01*
X7052451Y-40427309D01*
X7050323Y-40420295D01*
X7049000Y-40406860D01*
X7049000Y-40093140D01*
X7050323Y-40079705D01*
X7052451Y-40072691D01*
X7059810Y-40058923D01*
X7069187Y-40036284D01*
X7073967Y-40012251D01*
X7073967Y-39987747D01*
X7069186Y-39963714D01*
X7059810Y-39941077D01*
X7052451Y-39927309D01*
X7050323Y-39920295D01*
X7049000Y-39906860D01*
X7049000Y-39593140D01*
X7050323Y-39579705D01*
X7052451Y-39572691D01*
X7059810Y-39558923D01*
X7069187Y-39536284D01*
X7073967Y-39512251D01*
X7073967Y-39487747D01*
X7069186Y-39463714D01*
X7059810Y-39441077D01*
X7052451Y-39427309D01*
X7050323Y-39420295D01*
X7049000Y-39406860D01*
X7049000Y-39093140D01*
X7050323Y-39079705D01*
X7052451Y-39072691D01*
X7059810Y-39058923D01*
X7069187Y-39036284D01*
X7073967Y-39012251D01*
X7073967Y-38987747D01*
X7069186Y-38963714D01*
X7059810Y-38941077D01*
X7052451Y-38927309D01*
X7050323Y-38920295D01*
X7049000Y-38906860D01*
X7049000Y-38593140D01*
X7050323Y-38579705D01*
X7052451Y-38572691D01*
X7059810Y-38558923D01*
X7069187Y-38536284D01*
X7073967Y-38512251D01*
X7073967Y-38487747D01*
X7069186Y-38463714D01*
X7059810Y-38441077D01*
X7052451Y-38427309D01*
X7050323Y-38420295D01*
X7049000Y-38406860D01*
X7049000Y-38093140D01*
X7050323Y-38079705D01*
X7052451Y-38072691D01*
X7059810Y-38058923D01*
X7069187Y-38036284D01*
X7073967Y-38012251D01*
X7073967Y-37987747D01*
X7069186Y-37963714D01*
X7059810Y-37941077D01*
X7052451Y-37927309D01*
X7050323Y-37920295D01*
X7049000Y-37906860D01*
X7049000Y-37593140D01*
X7050323Y-37579705D01*
X7052451Y-37572691D01*
X7059810Y-37558923D01*
X7069187Y-37536284D01*
X7073967Y-37512251D01*
X7073967Y-37487747D01*
X7069186Y-37463714D01*
X7059810Y-37441077D01*
X7052451Y-37427309D01*
X7050323Y-37420295D01*
X7049000Y-37406860D01*
X7049000Y-37093140D01*
X7050323Y-37079705D01*
X7052451Y-37072690D01*
X7055908Y-37066224D01*
X7060558Y-37060558D01*
X7066224Y-37055908D01*
X7072690Y-37052451D01*
X7079705Y-37050323D01*
X7093140Y-37049000D01*
X8581860Y-37049000D01*
X8595295Y-37050323D01*
X8595295Y-37050323D01*
G37*
G36*
X21379591Y-36303085D02*
G01*
X21413569Y-36313393D01*
X21444890Y-36330134D01*
X21472339Y-36352661D01*
X21494866Y-36380110D01*
X21511607Y-36411431D01*
X21521915Y-36445409D01*
X21526000Y-36486890D01*
X21526000Y-37088110D01*
X21521915Y-37129591D01*
X21511607Y-37163569D01*
X21494866Y-37194890D01*
X21472339Y-37222339D01*
X21444890Y-37244866D01*
X21413569Y-37261607D01*
X21379591Y-37271915D01*
X21338110Y-37276000D01*
X20661890Y-37276000D01*
X20620409Y-37271915D01*
X20586431Y-37261607D01*
X20555110Y-37244866D01*
X20527661Y-37222339D01*
X20505134Y-37194890D01*
X20488393Y-37163569D01*
X20478085Y-37129591D01*
X20474000Y-37088110D01*
X20474000Y-36486890D01*
X20478085Y-36445409D01*
X20488393Y-36411431D01*
X20505134Y-36380110D01*
X20527661Y-36352661D01*
X20555110Y-36330134D01*
X20586431Y-36313393D01*
X20620409Y-36303085D01*
X20661890Y-36299000D01*
X21338110Y-36299000D01*
X21379591Y-36303085D01*
X21379591Y-36303085D01*
G37*
G36*
X19379591Y-36303085D02*
G01*
X19413569Y-36313393D01*
X19444890Y-36330134D01*
X19472339Y-36352661D01*
X19494866Y-36380110D01*
X19511607Y-36411431D01*
X19521915Y-36445409D01*
X19526000Y-36486890D01*
X19526000Y-37088110D01*
X19521915Y-37129591D01*
X19511607Y-37163569D01*
X19494866Y-37194890D01*
X19472339Y-37222339D01*
X19444890Y-37244866D01*
X19413569Y-37261607D01*
X19379591Y-37271915D01*
X19338110Y-37276000D01*
X18661890Y-37276000D01*
X18620409Y-37271915D01*
X18586431Y-37261607D01*
X18555110Y-37244866D01*
X18527661Y-37222339D01*
X18505134Y-37194890D01*
X18488393Y-37163569D01*
X18478085Y-37129591D01*
X18474000Y-37088110D01*
X18474000Y-36486890D01*
X18478085Y-36445409D01*
X18488393Y-36411431D01*
X18505134Y-36380110D01*
X18527661Y-36352661D01*
X18555110Y-36330134D01*
X18586431Y-36313393D01*
X18620409Y-36303085D01*
X18661890Y-36299000D01*
X19338110Y-36299000D01*
X19379591Y-36303085D01*
X19379591Y-36303085D01*
G37*
G36*
X9420295Y-35050323D02*
G01*
X9427309Y-35052451D01*
X9441077Y-35059810D01*
X9463716Y-35069187D01*
X9487749Y-35073967D01*
X9512253Y-35073967D01*
X9536286Y-35069186D01*
X9558923Y-35059810D01*
X9572691Y-35052451D01*
X9579705Y-35050323D01*
X9593140Y-35049000D01*
X9906860Y-35049000D01*
X9920295Y-35050323D01*
X9927309Y-35052451D01*
X9941077Y-35059810D01*
X9963716Y-35069187D01*
X9987749Y-35073967D01*
X10012253Y-35073967D01*
X10036286Y-35069186D01*
X10058923Y-35059810D01*
X10072691Y-35052451D01*
X10079705Y-35050323D01*
X10093140Y-35049000D01*
X10406860Y-35049000D01*
X10420295Y-35050323D01*
X10427309Y-35052451D01*
X10441077Y-35059810D01*
X10463716Y-35069187D01*
X10487749Y-35073967D01*
X10512253Y-35073967D01*
X10536286Y-35069186D01*
X10558923Y-35059810D01*
X10572691Y-35052451D01*
X10579705Y-35050323D01*
X10593140Y-35049000D01*
X10906860Y-35049000D01*
X10920295Y-35050323D01*
X10927309Y-35052451D01*
X10941077Y-35059810D01*
X10963716Y-35069187D01*
X10987749Y-35073967D01*
X11012253Y-35073967D01*
X11036286Y-35069186D01*
X11058923Y-35059810D01*
X11072691Y-35052451D01*
X11079705Y-35050323D01*
X11093140Y-35049000D01*
X11406860Y-35049000D01*
X11420295Y-35050323D01*
X11427309Y-35052451D01*
X11441077Y-35059810D01*
X11463716Y-35069187D01*
X11487749Y-35073967D01*
X11512253Y-35073967D01*
X11536286Y-35069186D01*
X11558923Y-35059810D01*
X11572691Y-35052451D01*
X11579705Y-35050323D01*
X11593140Y-35049000D01*
X11906860Y-35049000D01*
X11920295Y-35050323D01*
X11927309Y-35052451D01*
X11941077Y-35059810D01*
X11963716Y-35069187D01*
X11987749Y-35073967D01*
X12012253Y-35073967D01*
X12036286Y-35069186D01*
X12058923Y-35059810D01*
X12072691Y-35052451D01*
X12079705Y-35050323D01*
X12093140Y-35049000D01*
X12406860Y-35049000D01*
X12420295Y-35050323D01*
X12427309Y-35052451D01*
X12441077Y-35059810D01*
X12463716Y-35069187D01*
X12487749Y-35073967D01*
X12512253Y-35073967D01*
X12536286Y-35069186D01*
X12558923Y-35059810D01*
X12572691Y-35052451D01*
X12579705Y-35050323D01*
X12593140Y-35049000D01*
X12906860Y-35049000D01*
X12920295Y-35050323D01*
X12927309Y-35052451D01*
X12941077Y-35059810D01*
X12963716Y-35069187D01*
X12987749Y-35073967D01*
X13012253Y-35073967D01*
X13036286Y-35069186D01*
X13058923Y-35059810D01*
X13072691Y-35052451D01*
X13079705Y-35050323D01*
X13093140Y-35049000D01*
X13406860Y-35049000D01*
X13420295Y-35050323D01*
X13427309Y-35052451D01*
X13441077Y-35059810D01*
X13463716Y-35069187D01*
X13487749Y-35073967D01*
X13512253Y-35073967D01*
X13536286Y-35069186D01*
X13558923Y-35059810D01*
X13572691Y-35052451D01*
X13579705Y-35050323D01*
X13593140Y-35049000D01*
X13906860Y-35049000D01*
X13920295Y-35050323D01*
X13927309Y-35052451D01*
X13941077Y-35059810D01*
X13963716Y-35069187D01*
X13987749Y-35073967D01*
X14012253Y-35073967D01*
X14036286Y-35069186D01*
X14058923Y-35059810D01*
X14072691Y-35052451D01*
X14079705Y-35050323D01*
X14093140Y-35049000D01*
X14406860Y-35049000D01*
X14420295Y-35050323D01*
X14427309Y-35052451D01*
X14441077Y-35059810D01*
X14463716Y-35069187D01*
X14487749Y-35073967D01*
X14512253Y-35073967D01*
X14536286Y-35069186D01*
X14558923Y-35059810D01*
X14572691Y-35052451D01*
X14579705Y-35050323D01*
X14593140Y-35049000D01*
X14906860Y-35049000D01*
X14920295Y-35050323D01*
X14927310Y-35052451D01*
X14933776Y-35055908D01*
X14939442Y-35060558D01*
X14944092Y-35066224D01*
X14947549Y-35072690D01*
X14949677Y-35079705D01*
X14951000Y-35093140D01*
X14951000Y-36581860D01*
X14949677Y-36595295D01*
X14947549Y-36602310D01*
X14944092Y-36608776D01*
X14939442Y-36614442D01*
X14933776Y-36619092D01*
X14927310Y-36622549D01*
X14920295Y-36624677D01*
X14906860Y-36626000D01*
X14593140Y-36626000D01*
X14579705Y-36624677D01*
X14572691Y-36622549D01*
X14558923Y-36615190D01*
X14536284Y-36605813D01*
X14512251Y-36601033D01*
X14487747Y-36601033D01*
X14463714Y-36605814D01*
X14441077Y-36615190D01*
X14427309Y-36622549D01*
X14420295Y-36624677D01*
X14406860Y-36626000D01*
X14093140Y-36626000D01*
X14079705Y-36624677D01*
X14072691Y-36622549D01*
X14058923Y-36615190D01*
X14036284Y-36605813D01*
X14012251Y-36601033D01*
X13987747Y-36601033D01*
X13963714Y-36605814D01*
X13941077Y-36615190D01*
X13927309Y-36622549D01*
X13920295Y-36624677D01*
X13906860Y-36626000D01*
X13593140Y-36626000D01*
X13579705Y-36624677D01*
X13572691Y-36622549D01*
X13558923Y-36615190D01*
X13536284Y-36605813D01*
X13512251Y-36601033D01*
X13487747Y-36601033D01*
X13463714Y-36605814D01*
X13441077Y-36615190D01*
X13427309Y-36622549D01*
X13420295Y-36624677D01*
X13406860Y-36626000D01*
X13093140Y-36626000D01*
X13079705Y-36624677D01*
X13072691Y-36622549D01*
X13058923Y-36615190D01*
X13036284Y-36605813D01*
X13012251Y-36601033D01*
X12987747Y-36601033D01*
X12963714Y-36605814D01*
X12941077Y-36615190D01*
X12927309Y-36622549D01*
X12920295Y-36624677D01*
X12906860Y-36626000D01*
X12593140Y-36626000D01*
X12579705Y-36624677D01*
X12572691Y-36622549D01*
X12558923Y-36615190D01*
X12536284Y-36605813D01*
X12512251Y-36601033D01*
X12487747Y-36601033D01*
X12463714Y-36605814D01*
X12441077Y-36615190D01*
X12427309Y-36622549D01*
X12420295Y-36624677D01*
X12406860Y-36626000D01*
X12093140Y-36626000D01*
X12079705Y-36624677D01*
X12072691Y-36622549D01*
X12058923Y-36615190D01*
X12036284Y-36605813D01*
X12012251Y-36601033D01*
X11987747Y-36601033D01*
X11963714Y-36605814D01*
X11941077Y-36615190D01*
X11927309Y-36622549D01*
X11920295Y-36624677D01*
X11906860Y-36626000D01*
X11593140Y-36626000D01*
X11579705Y-36624677D01*
X11572691Y-36622549D01*
X11558923Y-36615190D01*
X11536284Y-36605813D01*
X11512251Y-36601033D01*
X11487747Y-36601033D01*
X11463714Y-36605814D01*
X11441077Y-36615190D01*
X11427309Y-36622549D01*
X11420295Y-36624677D01*
X11406860Y-36626000D01*
X11093140Y-36626000D01*
X11079705Y-36624677D01*
X11072691Y-36622549D01*
X11058923Y-36615190D01*
X11036284Y-36605813D01*
X11012251Y-36601033D01*
X10987747Y-36601033D01*
X10963714Y-36605814D01*
X10941077Y-36615190D01*
X10927309Y-36622549D01*
X10920295Y-36624677D01*
X10906860Y-36626000D01*
X10593140Y-36626000D01*
X10579705Y-36624677D01*
X10572691Y-36622549D01*
X10558923Y-36615190D01*
X10536284Y-36605813D01*
X10512251Y-36601033D01*
X10487747Y-36601033D01*
X10463714Y-36605814D01*
X10441077Y-36615190D01*
X10427309Y-36622549D01*
X10420295Y-36624677D01*
X10406860Y-36626000D01*
X10093140Y-36626000D01*
X10079705Y-36624677D01*
X10072691Y-36622549D01*
X10058923Y-36615190D01*
X10036284Y-36605813D01*
X10012251Y-36601033D01*
X9987747Y-36601033D01*
X9963714Y-36605814D01*
X9941077Y-36615190D01*
X9927309Y-36622549D01*
X9920295Y-36624677D01*
X9906860Y-36626000D01*
X9593140Y-36626000D01*
X9579705Y-36624677D01*
X9572691Y-36622549D01*
X9558923Y-36615190D01*
X9536284Y-36605813D01*
X9512251Y-36601033D01*
X9487747Y-36601033D01*
X9463714Y-36605814D01*
X9441077Y-36615190D01*
X9427309Y-36622549D01*
X9420295Y-36624677D01*
X9406860Y-36626000D01*
X9093140Y-36626000D01*
X9079705Y-36624677D01*
X9072690Y-36622549D01*
X9066224Y-36619092D01*
X9060558Y-36614442D01*
X9055908Y-36608776D01*
X9052451Y-36602310D01*
X9050323Y-36595295D01*
X9049000Y-36581860D01*
X9049000Y-35093140D01*
X9050323Y-35079705D01*
X9052451Y-35072690D01*
X9055908Y-35066224D01*
X9060558Y-35060558D01*
X9066224Y-35055908D01*
X9072690Y-35052451D01*
X9079705Y-35050323D01*
X9093140Y-35049000D01*
X9406860Y-35049000D01*
X9420295Y-35050323D01*
X9420295Y-35050323D01*
G37*
G36*
X21379591Y-34728085D02*
G01*
X21413569Y-34738393D01*
X21444890Y-34755134D01*
X21472339Y-34777661D01*
X21494866Y-34805110D01*
X21511607Y-34836431D01*
X21521915Y-34870409D01*
X21526000Y-34911890D01*
X21526000Y-35513110D01*
X21521915Y-35554591D01*
X21511607Y-35588569D01*
X21494866Y-35619890D01*
X21472339Y-35647339D01*
X21444890Y-35669866D01*
X21413569Y-35686607D01*
X21379591Y-35696915D01*
X21338110Y-35701000D01*
X20661890Y-35701000D01*
X20620409Y-35696915D01*
X20586431Y-35686607D01*
X20555110Y-35669866D01*
X20527661Y-35647339D01*
X20505134Y-35619890D01*
X20488393Y-35588569D01*
X20478085Y-35554591D01*
X20474000Y-35513110D01*
X20474000Y-34911890D01*
X20478085Y-34870409D01*
X20488393Y-34836431D01*
X20505134Y-34805110D01*
X20527661Y-34777661D01*
X20555110Y-34755134D01*
X20586431Y-34738393D01*
X20620409Y-34728085D01*
X20661890Y-34724000D01*
X21338110Y-34724000D01*
X21379591Y-34728085D01*
X21379591Y-34728085D01*
G37*
G36*
X19379591Y-34728085D02*
G01*
X19413569Y-34738393D01*
X19444890Y-34755134D01*
X19472339Y-34777661D01*
X19494866Y-34805110D01*
X19511607Y-34836431D01*
X19521915Y-34870409D01*
X19526000Y-34911890D01*
X19526000Y-35513110D01*
X19521915Y-35554591D01*
X19511607Y-35588569D01*
X19494866Y-35619890D01*
X19472339Y-35647339D01*
X19444890Y-35669866D01*
X19413569Y-35686607D01*
X19379591Y-35696915D01*
X19338110Y-35701000D01*
X18661890Y-35701000D01*
X18620409Y-35696915D01*
X18586431Y-35686607D01*
X18555110Y-35669866D01*
X18527661Y-35647339D01*
X18505134Y-35619890D01*
X18488393Y-35588569D01*
X18478085Y-35554591D01*
X18474000Y-35513110D01*
X18474000Y-34911890D01*
X18478085Y-34870409D01*
X18488393Y-34836431D01*
X18505134Y-34805110D01*
X18527661Y-34777661D01*
X18555110Y-34755134D01*
X18586431Y-34738393D01*
X18620409Y-34728085D01*
X18661890Y-34724000D01*
X19338110Y-34724000D01*
X19379591Y-34728085D01*
X19379591Y-34728085D01*
G37*
G36*
X9129591Y-33478085D02*
G01*
X9163569Y-33488393D01*
X9194890Y-33505134D01*
X9222339Y-33527661D01*
X9244866Y-33555110D01*
X9261607Y-33586431D01*
X9271915Y-33620409D01*
X9276000Y-33661890D01*
X9276000Y-34338110D01*
X9271915Y-34379591D01*
X9261607Y-34413569D01*
X9244866Y-34444890D01*
X9222339Y-34472339D01*
X9194890Y-34494866D01*
X9163569Y-34511607D01*
X9129591Y-34521915D01*
X9088110Y-34526000D01*
X8486890Y-34526000D01*
X8445409Y-34521915D01*
X8411431Y-34511607D01*
X8380110Y-34494866D01*
X8352661Y-34472339D01*
X8330134Y-34444890D01*
X8313393Y-34413569D01*
X8303085Y-34379591D01*
X8299000Y-34338110D01*
X8299000Y-33661890D01*
X8303085Y-33620409D01*
X8313393Y-33586431D01*
X8330134Y-33555110D01*
X8352661Y-33527661D01*
X8380110Y-33505134D01*
X8411431Y-33488393D01*
X8445409Y-33478085D01*
X8486890Y-33474000D01*
X9088110Y-33474000D01*
X9129591Y-33478085D01*
X9129591Y-33478085D01*
G37*
G36*
X7554591Y-33478085D02*
G01*
X7588569Y-33488393D01*
X7619890Y-33505134D01*
X7647339Y-33527661D01*
X7669866Y-33555110D01*
X7686607Y-33586431D01*
X7696915Y-33620409D01*
X7701000Y-33661890D01*
X7701000Y-34338110D01*
X7696915Y-34379591D01*
X7686607Y-34413569D01*
X7669866Y-34444890D01*
X7647339Y-34472339D01*
X7619890Y-34494866D01*
X7588569Y-34511607D01*
X7554591Y-34521915D01*
X7513110Y-34526000D01*
X6911890Y-34526000D01*
X6870409Y-34521915D01*
X6836431Y-34511607D01*
X6805110Y-34494866D01*
X6777661Y-34472339D01*
X6755134Y-34444890D01*
X6738393Y-34413569D01*
X6728085Y-34379591D01*
X6724000Y-34338110D01*
X6724000Y-33661890D01*
X6728085Y-33620409D01*
X6738393Y-33586431D01*
X6755134Y-33555110D01*
X6777661Y-33527661D01*
X6805110Y-33505134D01*
X6836431Y-33488393D01*
X6870409Y-33478085D01*
X6911890Y-33474000D01*
X7513110Y-33474000D01*
X7554591Y-33478085D01*
X7554591Y-33478085D01*
G37*
G36*
X9129591Y-30478085D02*
G01*
X9163569Y-30488393D01*
X9194890Y-30505134D01*
X9222339Y-30527661D01*
X9244866Y-30555110D01*
X9261607Y-30586431D01*
X9271915Y-30620409D01*
X9276000Y-30661890D01*
X9276000Y-31338110D01*
X9271915Y-31379591D01*
X9261607Y-31413569D01*
X9244866Y-31444890D01*
X9222339Y-31472339D01*
X9194890Y-31494866D01*
X9163569Y-31511607D01*
X9129591Y-31521915D01*
X9088110Y-31526000D01*
X8486890Y-31526000D01*
X8445409Y-31521915D01*
X8411431Y-31511607D01*
X8380110Y-31494866D01*
X8352661Y-31472339D01*
X8330134Y-31444890D01*
X8313393Y-31413569D01*
X8303085Y-31379591D01*
X8299000Y-31338110D01*
X8299000Y-30661890D01*
X8303085Y-30620409D01*
X8313393Y-30586431D01*
X8330134Y-30555110D01*
X8352661Y-30527661D01*
X8380110Y-30505134D01*
X8411431Y-30488393D01*
X8445409Y-30478085D01*
X8486890Y-30474000D01*
X9088110Y-30474000D01*
X9129591Y-30478085D01*
X9129591Y-30478085D01*
G37*
G36*
X7554591Y-30478085D02*
G01*
X7588569Y-30488393D01*
X7619890Y-30505134D01*
X7647339Y-30527661D01*
X7669866Y-30555110D01*
X7686607Y-30586431D01*
X7696915Y-30620409D01*
X7701000Y-30661890D01*
X7701000Y-31338110D01*
X7696915Y-31379591D01*
X7686607Y-31413569D01*
X7669866Y-31444890D01*
X7647339Y-31472339D01*
X7619890Y-31494866D01*
X7588569Y-31511607D01*
X7554591Y-31521915D01*
X7513110Y-31526000D01*
X6911890Y-31526000D01*
X6870409Y-31521915D01*
X6836431Y-31511607D01*
X6805110Y-31494866D01*
X6777661Y-31472339D01*
X6755134Y-31444890D01*
X6738393Y-31413569D01*
X6728085Y-31379591D01*
X6724000Y-31338110D01*
X6724000Y-30661890D01*
X6728085Y-30620409D01*
X6738393Y-30586431D01*
X6755134Y-30555110D01*
X6777661Y-30527661D01*
X6805110Y-30505134D01*
X6836431Y-30488393D01*
X6870409Y-30478085D01*
X6911890Y-30474000D01*
X7513110Y-30474000D01*
X7554591Y-30478085D01*
X7554591Y-30478085D01*
G37*
G36*
X24629591Y-20478085D02*
G01*
X24663569Y-20488393D01*
X24694890Y-20505134D01*
X24722339Y-20527661D01*
X24744866Y-20555110D01*
X24761607Y-20586431D01*
X24771915Y-20620409D01*
X24776000Y-20661890D01*
X24776000Y-21338110D01*
X24771915Y-21379591D01*
X24761607Y-21413569D01*
X24744866Y-21444890D01*
X24722339Y-21472339D01*
X24694890Y-21494866D01*
X24663569Y-21511607D01*
X24629591Y-21521915D01*
X24588110Y-21526000D01*
X23986890Y-21526000D01*
X23945409Y-21521915D01*
X23911431Y-21511607D01*
X23880110Y-21494866D01*
X23852661Y-21472339D01*
X23830134Y-21444890D01*
X23813393Y-21413569D01*
X23803085Y-21379591D01*
X23799000Y-21338110D01*
X23799000Y-20661890D01*
X23803085Y-20620409D01*
X23813393Y-20586431D01*
X23830134Y-20555110D01*
X23852661Y-20527661D01*
X23880110Y-20505134D01*
X23911431Y-20488393D01*
X23945409Y-20478085D01*
X23986890Y-20474000D01*
X24588110Y-20474000D01*
X24629591Y-20478085D01*
X24629591Y-20478085D01*
G37*
G36*
X23054591Y-20478085D02*
G01*
X23088569Y-20488393D01*
X23119890Y-20505134D01*
X23147339Y-20527661D01*
X23169866Y-20555110D01*
X23186607Y-20586431D01*
X23196915Y-20620409D01*
X23201000Y-20661890D01*
X23201000Y-21338110D01*
X23196915Y-21379591D01*
X23186607Y-21413569D01*
X23169866Y-21444890D01*
X23147339Y-21472339D01*
X23119890Y-21494866D01*
X23088569Y-21511607D01*
X23054591Y-21521915D01*
X23013110Y-21526000D01*
X22411890Y-21526000D01*
X22370409Y-21521915D01*
X22336431Y-21511607D01*
X22305110Y-21494866D01*
X22277661Y-21472339D01*
X22255134Y-21444890D01*
X22238393Y-21413569D01*
X22228085Y-21379591D01*
X22224000Y-21338110D01*
X22224000Y-20661890D01*
X22228085Y-20620409D01*
X22238393Y-20586431D01*
X22255134Y-20555110D01*
X22277661Y-20527661D01*
X22305110Y-20505134D01*
X22336431Y-20488393D01*
X22370409Y-20478085D01*
X22411890Y-20474000D01*
X23013110Y-20474000D01*
X23054591Y-20478085D01*
X23054591Y-20478085D01*
G37*
G36*
X31848228Y-19681703D02*
G01*
X32003100Y-19745853D01*
X32142481Y-19838985D01*
X32261015Y-19957519D01*
X32354147Y-20096900D01*
X32418297Y-20251772D01*
X32451000Y-20416184D01*
X32451000Y-20583816D01*
X32418297Y-20748228D01*
X32354147Y-20903100D01*
X32261015Y-21042481D01*
X32142481Y-21161015D01*
X32003100Y-21254147D01*
X31848228Y-21318297D01*
X31683816Y-21351000D01*
X31516184Y-21351000D01*
X31351772Y-21318297D01*
X31196900Y-21254147D01*
X31057519Y-21161015D01*
X30938985Y-21042481D01*
X30845853Y-20903100D01*
X30781703Y-20748228D01*
X30749000Y-20583816D01*
X30749000Y-20416184D01*
X30781703Y-20251772D01*
X30845853Y-20096900D01*
X30938985Y-19957519D01*
X31057519Y-19838985D01*
X31196900Y-19745853D01*
X31351772Y-19681703D01*
X31516184Y-19649000D01*
X31683816Y-19649000D01*
X31848228Y-19681703D01*
X31848228Y-19681703D01*
G37*
G36*
X34348228Y-18861703D02*
G01*
X34503100Y-18925853D01*
X34642481Y-19018985D01*
X34761015Y-19137519D01*
X34854147Y-19276900D01*
X34918297Y-19431772D01*
X34951000Y-19596184D01*
X34951000Y-19763816D01*
X34918297Y-19928228D01*
X34854147Y-20083100D01*
X34761015Y-20222481D01*
X34642481Y-20341015D01*
X34503100Y-20434147D01*
X34348228Y-20498297D01*
X34183816Y-20531000D01*
X34016184Y-20531000D01*
X33851772Y-20498297D01*
X33696900Y-20434147D01*
X33557519Y-20341015D01*
X33438985Y-20222481D01*
X33345853Y-20083100D01*
X33281703Y-19928228D01*
X33249000Y-19763816D01*
X33249000Y-19596184D01*
X33281703Y-19431772D01*
X33345853Y-19276900D01*
X33438985Y-19137519D01*
X33557519Y-19018985D01*
X33696900Y-18925853D01*
X33851772Y-18861703D01*
X34016184Y-18829000D01*
X34183816Y-18829000D01*
X34348228Y-18861703D01*
X34348228Y-18861703D01*
G37*
G36*
X21379591Y-18303085D02*
G01*
X21413569Y-18313393D01*
X21444890Y-18330134D01*
X21472339Y-18352661D01*
X21494866Y-18380110D01*
X21511607Y-18411431D01*
X21521915Y-18445409D01*
X21526000Y-18486890D01*
X21526000Y-19088110D01*
X21521915Y-19129591D01*
X21511607Y-19163569D01*
X21494866Y-19194890D01*
X21472339Y-19222339D01*
X21444890Y-19244866D01*
X21413569Y-19261607D01*
X21379591Y-19271915D01*
X21338110Y-19276000D01*
X20661890Y-19276000D01*
X20620409Y-19271915D01*
X20586431Y-19261607D01*
X20555110Y-19244866D01*
X20527661Y-19222339D01*
X20505134Y-19194890D01*
X20488393Y-19163569D01*
X20478085Y-19129591D01*
X20474000Y-19088110D01*
X20474000Y-18486890D01*
X20478085Y-18445409D01*
X20488393Y-18411431D01*
X20505134Y-18380110D01*
X20527661Y-18352661D01*
X20555110Y-18330134D01*
X20586431Y-18313393D01*
X20620409Y-18303085D01*
X20661890Y-18299000D01*
X21338110Y-18299000D01*
X21379591Y-18303085D01*
X21379591Y-18303085D01*
G37*
G36*
X8654591Y-17478085D02*
G01*
X8688569Y-17488393D01*
X8719890Y-17505134D01*
X8747339Y-17527661D01*
X8769866Y-17555110D01*
X8786607Y-17586431D01*
X8796915Y-17620409D01*
X8801000Y-17661890D01*
X8801000Y-18338110D01*
X8796915Y-18379591D01*
X8786607Y-18413569D01*
X8769866Y-18444890D01*
X8747339Y-18472339D01*
X8719890Y-18494866D01*
X8688569Y-18511607D01*
X8654591Y-18521915D01*
X8613110Y-18526000D01*
X8011890Y-18526000D01*
X7970409Y-18521915D01*
X7936431Y-18511607D01*
X7905110Y-18494866D01*
X7877661Y-18472339D01*
X7855134Y-18444890D01*
X7838393Y-18413569D01*
X7828085Y-18379591D01*
X7824000Y-18338110D01*
X7824000Y-17661890D01*
X7828085Y-17620409D01*
X7838393Y-17586431D01*
X7855134Y-17555110D01*
X7877661Y-17527661D01*
X7905110Y-17505134D01*
X7936431Y-17488393D01*
X7970409Y-17478085D01*
X8011890Y-17474000D01*
X8613110Y-17474000D01*
X8654591Y-17478085D01*
X8654591Y-17478085D01*
G37*
G36*
X10229591Y-17478085D02*
G01*
X10263569Y-17488393D01*
X10294890Y-17505134D01*
X10322339Y-17527661D01*
X10344866Y-17555110D01*
X10361607Y-17586431D01*
X10371915Y-17620409D01*
X10376000Y-17661890D01*
X10376000Y-18338110D01*
X10371915Y-18379591D01*
X10361607Y-18413569D01*
X10344866Y-18444890D01*
X10322339Y-18472339D01*
X10294890Y-18494866D01*
X10263569Y-18511607D01*
X10229591Y-18521915D01*
X10188110Y-18526000D01*
X9586890Y-18526000D01*
X9545409Y-18521915D01*
X9511431Y-18511607D01*
X9480110Y-18494866D01*
X9452661Y-18472339D01*
X9430134Y-18444890D01*
X9413393Y-18413569D01*
X9403085Y-18379591D01*
X9399000Y-18338110D01*
X9399000Y-17661890D01*
X9403085Y-17620409D01*
X9413393Y-17586431D01*
X9430134Y-17555110D01*
X9452661Y-17527661D01*
X9480110Y-17505134D01*
X9511431Y-17488393D01*
X9545409Y-17478085D01*
X9586890Y-17474000D01*
X10188110Y-17474000D01*
X10229591Y-17478085D01*
X10229591Y-17478085D01*
G37*
G36*
X12079591Y-17203085D02*
G01*
X12113569Y-17213393D01*
X12144890Y-17230134D01*
X12172339Y-17252661D01*
X12194866Y-17280110D01*
X12211607Y-17311431D01*
X12221915Y-17345409D01*
X12226000Y-17386890D01*
X12226000Y-17988110D01*
X12221915Y-18029591D01*
X12211607Y-18063569D01*
X12194866Y-18094890D01*
X12172339Y-18122339D01*
X12144890Y-18144866D01*
X12113569Y-18161607D01*
X12079591Y-18171915D01*
X12038110Y-18176000D01*
X11361890Y-18176000D01*
X11320409Y-18171915D01*
X11286431Y-18161607D01*
X11255110Y-18144866D01*
X11227661Y-18122339D01*
X11205134Y-18094890D01*
X11188393Y-18063569D01*
X11178085Y-18029591D01*
X11174000Y-17988110D01*
X11174000Y-17386890D01*
X11178085Y-17345409D01*
X11188393Y-17311431D01*
X11205134Y-17280110D01*
X11227661Y-17252661D01*
X11255110Y-17230134D01*
X11286431Y-17213393D01*
X11320409Y-17203085D01*
X11361890Y-17199000D01*
X12038110Y-17199000D01*
X12079591Y-17203085D01*
X12079591Y-17203085D01*
G37*
G36*
X21379591Y-16728085D02*
G01*
X21413569Y-16738393D01*
X21444890Y-16755134D01*
X21472339Y-16777661D01*
X21494866Y-16805110D01*
X21511607Y-16836431D01*
X21521915Y-16870409D01*
X21526000Y-16911890D01*
X21526000Y-17513110D01*
X21521915Y-17554591D01*
X21511607Y-17588569D01*
X21494866Y-17619890D01*
X21472339Y-17647339D01*
X21444890Y-17669866D01*
X21413569Y-17686607D01*
X21379591Y-17696915D01*
X21338110Y-17701000D01*
X20661890Y-17701000D01*
X20620409Y-17696915D01*
X20586431Y-17686607D01*
X20555110Y-17669866D01*
X20527661Y-17647339D01*
X20505134Y-17619890D01*
X20488393Y-17588569D01*
X20478085Y-17554591D01*
X20474000Y-17513110D01*
X20474000Y-16911890D01*
X20478085Y-16870409D01*
X20488393Y-16836431D01*
X20505134Y-16805110D01*
X20527661Y-16777661D01*
X20555110Y-16755134D01*
X20586431Y-16738393D01*
X20620409Y-16728085D01*
X20661890Y-16724000D01*
X21338110Y-16724000D01*
X21379591Y-16728085D01*
X21379591Y-16728085D01*
G37*
G36*
X40811000Y-17301000D02*
G01*
X39109000Y-17301000D01*
X39109000Y-15599000D01*
X40811000Y-15599000D01*
X40811000Y-17301000D01*
X40811000Y-17301000D01*
G37*
G36*
X12079591Y-15628085D02*
G01*
X12113569Y-15638393D01*
X12144890Y-15655134D01*
X12172339Y-15677661D01*
X12194866Y-15705110D01*
X12211607Y-15736431D01*
X12221915Y-15770409D01*
X12226000Y-15811890D01*
X12226000Y-16413110D01*
X12221915Y-16454591D01*
X12211607Y-16488569D01*
X12194866Y-16519890D01*
X12172339Y-16547339D01*
X12144890Y-16569866D01*
X12113569Y-16586607D01*
X12079591Y-16596915D01*
X12038110Y-16601000D01*
X11361890Y-16601000D01*
X11320409Y-16596915D01*
X11286431Y-16586607D01*
X11255110Y-16569866D01*
X11227661Y-16547339D01*
X11205134Y-16519890D01*
X11188393Y-16488569D01*
X11178085Y-16454591D01*
X11174000Y-16413110D01*
X11174000Y-15811890D01*
X11178085Y-15770409D01*
X11188393Y-15736431D01*
X11205134Y-15705110D01*
X11227661Y-15677661D01*
X11255110Y-15655134D01*
X11286431Y-15638393D01*
X11320409Y-15628085D01*
X11361890Y-15624000D01*
X12038110Y-15624000D01*
X12079591Y-15628085D01*
X12079591Y-15628085D01*
G37*
G36*
X8476000Y-16281000D02*
G01*
X7724000Y-16281000D01*
X7724000Y-15119000D01*
X8476000Y-15119000D01*
X8476000Y-16281000D01*
X8476000Y-16281000D01*
G37*
G36*
X10376000Y-16281000D02*
G01*
X9624000Y-16281000D01*
X9624000Y-15119000D01*
X10376000Y-15119000D01*
X10376000Y-16281000D01*
X10376000Y-16281000D01*
G37*
G36*
X41148228Y-13381703D02*
G01*
X41303100Y-13445853D01*
X41442481Y-13538985D01*
X41561015Y-13657519D01*
X41654147Y-13796900D01*
X41718297Y-13951772D01*
X41751000Y-14116184D01*
X41751000Y-14283816D01*
X41718297Y-14448228D01*
X41654147Y-14603100D01*
X41561015Y-14742481D01*
X41442481Y-14861015D01*
X41303100Y-14954147D01*
X41148228Y-15018297D01*
X40983816Y-15051000D01*
X40816184Y-15051000D01*
X40651772Y-15018297D01*
X40496900Y-14954147D01*
X40357519Y-14861015D01*
X40238985Y-14742481D01*
X40145853Y-14603100D01*
X40081703Y-14448228D01*
X40049000Y-14283816D01*
X40049000Y-14116184D01*
X40081703Y-13951772D01*
X40145853Y-13796900D01*
X40238985Y-13657519D01*
X40357519Y-13538985D01*
X40496900Y-13445853D01*
X40651772Y-13381703D01*
X40816184Y-13349000D01*
X40983816Y-13349000D01*
X41148228Y-13381703D01*
X41148228Y-13381703D01*
G37*
G36*
X25548228Y-13381703D02*
G01*
X25703100Y-13445853D01*
X25842481Y-13538985D01*
X25961015Y-13657519D01*
X26054147Y-13796900D01*
X26118297Y-13951772D01*
X26151000Y-14116184D01*
X26151000Y-14283816D01*
X26118297Y-14448228D01*
X26054147Y-14603100D01*
X25961015Y-14742481D01*
X25842481Y-14861015D01*
X25703100Y-14954147D01*
X25548228Y-15018297D01*
X25383816Y-15051000D01*
X25216184Y-15051000D01*
X25051772Y-15018297D01*
X24896900Y-14954147D01*
X24757519Y-14861015D01*
X24638985Y-14742481D01*
X24545853Y-14603100D01*
X24481703Y-14448228D01*
X24449000Y-14283816D01*
X24449000Y-14116184D01*
X24481703Y-13951772D01*
X24545853Y-13796900D01*
X24638985Y-13657519D01*
X24757519Y-13538985D01*
X24896900Y-13445853D01*
X25051772Y-13381703D01*
X25216184Y-13349000D01*
X25383816Y-13349000D01*
X25548228Y-13381703D01*
X25548228Y-13381703D01*
G37*
G36*
X46554591Y-13978085D02*
G01*
X46588569Y-13988393D01*
X46619890Y-14005134D01*
X46647339Y-14027661D01*
X46669866Y-14055110D01*
X46686607Y-14086431D01*
X46696915Y-14120409D01*
X46701000Y-14161890D01*
X46701000Y-14838110D01*
X46696915Y-14879591D01*
X46686607Y-14913569D01*
X46669866Y-14944890D01*
X46647339Y-14972339D01*
X46619890Y-14994866D01*
X46588569Y-15011607D01*
X46554591Y-15021915D01*
X46513110Y-15026000D01*
X45911890Y-15026000D01*
X45870409Y-15021915D01*
X45836431Y-15011607D01*
X45805110Y-14994866D01*
X45777661Y-14972339D01*
X45755134Y-14944890D01*
X45738393Y-14913569D01*
X45728085Y-14879591D01*
X45724000Y-14838110D01*
X45724000Y-14161890D01*
X45728085Y-14120409D01*
X45738393Y-14086431D01*
X45755134Y-14055110D01*
X45777661Y-14027661D01*
X45805110Y-14005134D01*
X45836431Y-13988393D01*
X45870409Y-13978085D01*
X45911890Y-13974000D01*
X46513110Y-13974000D01*
X46554591Y-13978085D01*
X46554591Y-13978085D01*
G37*
G36*
X48129591Y-13978085D02*
G01*
X48163569Y-13988393D01*
X48194890Y-14005134D01*
X48222339Y-14027661D01*
X48244866Y-14055110D01*
X48261607Y-14086431D01*
X48271915Y-14120409D01*
X48276000Y-14161890D01*
X48276000Y-14838110D01*
X48271915Y-14879591D01*
X48261607Y-14913569D01*
X48244866Y-14944890D01*
X48222339Y-14972339D01*
X48194890Y-14994866D01*
X48163569Y-15011607D01*
X48129591Y-15021915D01*
X48088110Y-15026000D01*
X47486890Y-15026000D01*
X47445409Y-15021915D01*
X47411431Y-15011607D01*
X47380110Y-14994866D01*
X47352661Y-14972339D01*
X47330134Y-14944890D01*
X47313393Y-14913569D01*
X47303085Y-14879591D01*
X47299000Y-14838110D01*
X47299000Y-14161890D01*
X47303085Y-14120409D01*
X47313393Y-14086431D01*
X47330134Y-14055110D01*
X47352661Y-14027661D01*
X47380110Y-14005134D01*
X47411431Y-13988393D01*
X47445409Y-13978085D01*
X47486890Y-13974000D01*
X48088110Y-13974000D01*
X48129591Y-13978085D01*
X48129591Y-13978085D01*
G37*
G36*
X29436601Y-13614397D02*
G01*
X29475305Y-13622096D01*
X29507340Y-13635365D01*
X29584680Y-13667400D01*
X29683115Y-13733173D01*
X29766827Y-13816885D01*
X29832600Y-13915320D01*
X29877904Y-14024696D01*
X29901000Y-14140805D01*
X29901000Y-14259195D01*
X29896102Y-14283816D01*
X29882739Y-14351000D01*
X29877904Y-14375304D01*
X29832600Y-14484680D01*
X29766827Y-14583115D01*
X29683115Y-14666827D01*
X29584680Y-14732600D01*
X29507340Y-14764635D01*
X29475305Y-14777904D01*
X29436601Y-14785603D01*
X29359195Y-14801000D01*
X29240805Y-14801000D01*
X29163399Y-14785603D01*
X29124695Y-14777904D01*
X29092660Y-14764635D01*
X29015320Y-14732600D01*
X28916885Y-14666827D01*
X28833173Y-14583115D01*
X28767400Y-14484680D01*
X28722096Y-14375304D01*
X28717262Y-14351000D01*
X28703898Y-14283816D01*
X28699000Y-14259195D01*
X28699000Y-14140805D01*
X28722096Y-14024696D01*
X28767400Y-13915320D01*
X28833173Y-13816885D01*
X28916885Y-13733173D01*
X29015320Y-13667400D01*
X29092660Y-13635365D01*
X29124695Y-13622096D01*
X29163399Y-13614397D01*
X29240805Y-13599000D01*
X29359195Y-13599000D01*
X29436601Y-13614397D01*
X29436601Y-13614397D01*
G37*
G36*
X13131000Y-14351000D02*
G01*
X11829000Y-14351000D01*
X11829000Y-12849000D01*
X13131000Y-12849000D01*
X13131000Y-14351000D01*
X13131000Y-14351000D01*
G37*
G36*
X14751000Y-14351000D02*
G01*
X13649000Y-14351000D01*
X13649000Y-12849000D01*
X14751000Y-12849000D01*
X14751000Y-14351000D01*
X14751000Y-14351000D01*
G37*
G36*
X10376000Y-14081000D02*
G01*
X7724000Y-14081000D01*
X7724000Y-12919000D01*
X10376000Y-12919000D01*
X10376000Y-14081000D01*
X10376000Y-14081000D01*
G37*
G36*
X46379591Y-11803085D02*
G01*
X46413569Y-11813393D01*
X46444890Y-11830134D01*
X46472339Y-11852661D01*
X46494866Y-11880110D01*
X46511607Y-11911431D01*
X46521915Y-11945409D01*
X46526000Y-11986890D01*
X46526000Y-12588110D01*
X46521915Y-12629591D01*
X46511607Y-12663569D01*
X46494866Y-12694890D01*
X46472339Y-12722339D01*
X46444890Y-12744866D01*
X46413569Y-12761607D01*
X46379591Y-12771915D01*
X46338110Y-12776000D01*
X45661890Y-12776000D01*
X45620409Y-12771915D01*
X45586431Y-12761607D01*
X45555110Y-12744866D01*
X45527661Y-12722339D01*
X45505134Y-12694890D01*
X45488393Y-12663569D01*
X45478085Y-12629591D01*
X45474000Y-12588110D01*
X45474000Y-11986890D01*
X45478085Y-11945409D01*
X45488393Y-11911431D01*
X45505134Y-11880110D01*
X45527661Y-11852661D01*
X45555110Y-11830134D01*
X45586431Y-11813393D01*
X45620409Y-11803085D01*
X45661890Y-11799000D01*
X46338110Y-11799000D01*
X46379591Y-11803085D01*
X46379591Y-11803085D01*
G37*
G36*
X19129591Y-11478085D02*
G01*
X19163569Y-11488393D01*
X19194890Y-11505134D01*
X19222339Y-11527661D01*
X19244866Y-11555110D01*
X19261607Y-11586431D01*
X19271915Y-11620409D01*
X19276000Y-11661890D01*
X19276000Y-12338110D01*
X19271915Y-12379591D01*
X19261607Y-12413569D01*
X19244866Y-12444890D01*
X19222339Y-12472339D01*
X19194890Y-12494866D01*
X19163569Y-12511607D01*
X19129591Y-12521915D01*
X19088110Y-12526000D01*
X18486890Y-12526000D01*
X18445409Y-12521915D01*
X18411431Y-12511607D01*
X18380110Y-12494866D01*
X18352661Y-12472339D01*
X18330134Y-12444890D01*
X18313393Y-12413569D01*
X18303085Y-12379591D01*
X18299000Y-12338110D01*
X18299000Y-11661890D01*
X18303085Y-11620409D01*
X18313393Y-11586431D01*
X18330134Y-11555110D01*
X18352661Y-11527661D01*
X18380110Y-11505134D01*
X18411431Y-11488393D01*
X18445409Y-11478085D01*
X18486890Y-11474000D01*
X19088110Y-11474000D01*
X19129591Y-11478085D01*
X19129591Y-11478085D01*
G37*
G36*
X17554591Y-11478085D02*
G01*
X17588569Y-11488393D01*
X17619890Y-11505134D01*
X17647339Y-11527661D01*
X17669866Y-11555110D01*
X17686607Y-11586431D01*
X17696915Y-11620409D01*
X17701000Y-11661890D01*
X17701000Y-12338110D01*
X17696915Y-12379591D01*
X17686607Y-12413569D01*
X17669866Y-12444890D01*
X17647339Y-12472339D01*
X17619890Y-12494866D01*
X17588569Y-12511607D01*
X17554591Y-12521915D01*
X17513110Y-12526000D01*
X16911890Y-12526000D01*
X16870409Y-12521915D01*
X16836431Y-12511607D01*
X16805110Y-12494866D01*
X16777661Y-12472339D01*
X16755134Y-12444890D01*
X16738393Y-12413569D01*
X16728085Y-12379591D01*
X16724000Y-12338110D01*
X16724000Y-11661890D01*
X16728085Y-11620409D01*
X16738393Y-11586431D01*
X16755134Y-11555110D01*
X16777661Y-11527661D01*
X16805110Y-11505134D01*
X16836431Y-11488393D01*
X16870409Y-11478085D01*
X16911890Y-11474000D01*
X17513110Y-11474000D01*
X17554591Y-11478085D01*
X17554591Y-11478085D01*
G37*
G36*
X12851000Y-12151000D02*
G01*
X11749000Y-12151000D01*
X11749000Y-10649000D01*
X12851000Y-10649000D01*
X12851000Y-12151000D01*
X12851000Y-12151000D01*
G37*
G36*
X14751000Y-12151000D02*
G01*
X13649000Y-12151000D01*
X13649000Y-10649000D01*
X14751000Y-10649000D01*
X14751000Y-12151000D01*
X14751000Y-12151000D01*
G37*
G36*
X41148228Y-10381703D02*
G01*
X41303100Y-10445853D01*
X41442481Y-10538985D01*
X41561015Y-10657519D01*
X41654147Y-10796900D01*
X41718297Y-10951772D01*
X41751000Y-11116184D01*
X41751000Y-11283816D01*
X41718297Y-11448228D01*
X41654147Y-11603100D01*
X41561015Y-11742481D01*
X41442481Y-11861015D01*
X41303100Y-11954147D01*
X41148228Y-12018297D01*
X40983816Y-12051000D01*
X40816184Y-12051000D01*
X40651772Y-12018297D01*
X40496900Y-11954147D01*
X40357519Y-11861015D01*
X40238985Y-11742481D01*
X40145853Y-11603100D01*
X40081703Y-11448228D01*
X40049000Y-11283816D01*
X40049000Y-11116184D01*
X40081703Y-10951772D01*
X40145853Y-10796900D01*
X40238985Y-10657519D01*
X40357519Y-10538985D01*
X40496900Y-10445853D01*
X40651772Y-10381703D01*
X40816184Y-10349000D01*
X40983816Y-10349000D01*
X41148228Y-10381703D01*
X41148228Y-10381703D01*
G37*
G36*
X25548228Y-10381703D02*
G01*
X25703100Y-10445853D01*
X25842481Y-10538985D01*
X25961015Y-10657519D01*
X26054147Y-10796900D01*
X26118297Y-10951772D01*
X26151000Y-11116184D01*
X26151000Y-11283816D01*
X26118297Y-11448228D01*
X26054147Y-11603100D01*
X25961015Y-11742481D01*
X25842481Y-11861015D01*
X25703100Y-11954147D01*
X25548228Y-12018297D01*
X25383816Y-12051000D01*
X25216184Y-12051000D01*
X25051772Y-12018297D01*
X24896900Y-11954147D01*
X24757519Y-11861015D01*
X24638985Y-11742481D01*
X24545853Y-11603100D01*
X24481703Y-11448228D01*
X24449000Y-11283816D01*
X24449000Y-11116184D01*
X24481703Y-10951772D01*
X24545853Y-10796900D01*
X24638985Y-10657519D01*
X24757519Y-10538985D01*
X24896900Y-10445853D01*
X25051772Y-10381703D01*
X25216184Y-10349000D01*
X25383816Y-10349000D01*
X25548228Y-10381703D01*
X25548228Y-10381703D01*
G37*
G36*
X10584468Y-10866065D02*
G01*
X10623138Y-10877796D01*
X10658777Y-10896846D01*
X10690017Y-10922483D01*
X10715654Y-10953723D01*
X10734704Y-10989362D01*
X10746435Y-11028032D01*
X10751000Y-11074388D01*
X10751000Y-11725612D01*
X10746435Y-11771968D01*
X10734704Y-11810638D01*
X10715654Y-11846277D01*
X10690017Y-11877517D01*
X10658777Y-11903154D01*
X10623138Y-11922204D01*
X10584468Y-11933935D01*
X10538112Y-11938500D01*
X9461888Y-11938500D01*
X9415532Y-11933935D01*
X9376862Y-11922204D01*
X9341223Y-11903154D01*
X9309983Y-11877517D01*
X9284346Y-11846277D01*
X9265296Y-11810638D01*
X9253565Y-11771968D01*
X9249000Y-11725612D01*
X9249000Y-11074388D01*
X9253565Y-11028032D01*
X9265296Y-10989362D01*
X9284346Y-10953723D01*
X9309983Y-10922483D01*
X9341223Y-10896846D01*
X9376862Y-10877796D01*
X9415532Y-10866065D01*
X9461888Y-10861500D01*
X10538112Y-10861500D01*
X10584468Y-10866065D01*
X10584468Y-10866065D01*
G37*
G36*
X46379591Y-10228085D02*
G01*
X46413569Y-10238393D01*
X46444890Y-10255134D01*
X46472339Y-10277661D01*
X46494866Y-10305110D01*
X46511607Y-10336431D01*
X46521915Y-10370409D01*
X46526000Y-10411890D01*
X46526000Y-11013110D01*
X46521915Y-11054591D01*
X46511607Y-11088569D01*
X46494866Y-11119890D01*
X46472339Y-11147339D01*
X46444890Y-11169866D01*
X46413569Y-11186607D01*
X46379591Y-11196915D01*
X46338110Y-11201000D01*
X45661890Y-11201000D01*
X45620409Y-11196915D01*
X45586431Y-11186607D01*
X45555110Y-11169866D01*
X45527661Y-11147339D01*
X45505134Y-11119890D01*
X45488393Y-11088569D01*
X45478085Y-11054591D01*
X45474000Y-11013110D01*
X45474000Y-10411890D01*
X45478085Y-10370409D01*
X45488393Y-10336431D01*
X45505134Y-10305110D01*
X45527661Y-10277661D01*
X45555110Y-10255134D01*
X45586431Y-10238393D01*
X45620409Y-10228085D01*
X45661890Y-10224000D01*
X46338110Y-10224000D01*
X46379591Y-10228085D01*
X46379591Y-10228085D01*
G37*
G36*
X10584468Y-8991065D02*
G01*
X10623138Y-9002796D01*
X10658777Y-9021846D01*
X10690017Y-9047483D01*
X10715654Y-9078723D01*
X10734704Y-9114362D01*
X10746435Y-9153032D01*
X10751000Y-9199388D01*
X10751000Y-9850612D01*
X10746435Y-9896968D01*
X10734704Y-9935638D01*
X10715654Y-9971277D01*
X10690017Y-10002517D01*
X10658777Y-10028154D01*
X10623138Y-10047204D01*
X10584468Y-10058935D01*
X10538112Y-10063500D01*
X9461888Y-10063500D01*
X9415532Y-10058935D01*
X9376862Y-10047204D01*
X9341223Y-10028154D01*
X9309983Y-10002517D01*
X9284346Y-9971277D01*
X9265296Y-9935638D01*
X9253565Y-9896968D01*
X9249000Y-9850612D01*
X9249000Y-9199388D01*
X9253565Y-9153032D01*
X9265296Y-9114362D01*
X9284346Y-9078723D01*
X9309983Y-9047483D01*
X9341223Y-9021846D01*
X9376862Y-9002796D01*
X9415532Y-8991065D01*
X9461888Y-8986500D01*
X10538112Y-8986500D01*
X10584468Y-8991065D01*
X10584468Y-8991065D01*
G37*
G36*
X7279591Y-8603085D02*
G01*
X7313569Y-8613393D01*
X7344890Y-8630134D01*
X7372339Y-8652661D01*
X7394866Y-8680110D01*
X7411607Y-8711431D01*
X7421915Y-8745409D01*
X7426000Y-8786890D01*
X7426000Y-9388110D01*
X7421915Y-9429591D01*
X7411607Y-9463569D01*
X7394866Y-9494890D01*
X7372339Y-9522339D01*
X7344890Y-9544866D01*
X7313569Y-9561607D01*
X7279591Y-9571915D01*
X7238110Y-9576000D01*
X6561890Y-9576000D01*
X6520409Y-9571915D01*
X6486431Y-9561607D01*
X6455110Y-9544866D01*
X6427661Y-9522339D01*
X6405134Y-9494890D01*
X6388393Y-9463569D01*
X6378085Y-9429591D01*
X6374000Y-9388110D01*
X6374000Y-8786890D01*
X6378085Y-8745409D01*
X6388393Y-8711431D01*
X6405134Y-8680110D01*
X6427661Y-8652661D01*
X6455110Y-8630134D01*
X6486431Y-8613393D01*
X6520409Y-8603085D01*
X6561890Y-8599000D01*
X7238110Y-8599000D01*
X7279591Y-8603085D01*
X7279591Y-8603085D01*
G37*
G36*
X7279591Y-7028085D02*
G01*
X7313569Y-7038393D01*
X7344890Y-7055134D01*
X7372339Y-7077661D01*
X7394866Y-7105110D01*
X7411607Y-7136431D01*
X7421915Y-7170409D01*
X7426000Y-7211890D01*
X7426000Y-7813110D01*
X7421915Y-7854591D01*
X7411607Y-7888569D01*
X7394866Y-7919890D01*
X7372339Y-7947339D01*
X7344890Y-7969866D01*
X7313569Y-7986607D01*
X7279591Y-7996915D01*
X7238110Y-8001000D01*
X6561890Y-8001000D01*
X6520409Y-7996915D01*
X6486431Y-7986607D01*
X6455110Y-7969866D01*
X6427661Y-7947339D01*
X6405134Y-7919890D01*
X6388393Y-7888569D01*
X6378085Y-7854591D01*
X6374000Y-7813110D01*
X6374000Y-7211890D01*
X6378085Y-7170409D01*
X6388393Y-7136431D01*
X6405134Y-7105110D01*
X6427661Y-7077661D01*
X6455110Y-7055134D01*
X6486431Y-7038393D01*
X6520409Y-7028085D01*
X6561890Y-7024000D01*
X7238110Y-7024000D01*
X7279591Y-7028085D01*
X7279591Y-7028085D01*
G37*
G36*
X16576000Y-7971000D02*
G01*
X9424000Y-7971000D01*
X9424000Y-5419000D01*
X16576000Y-5419000D01*
X16576000Y-7971000D01*
X16576000Y-7971000D01*
G37*
G36*
X32348228Y-6101703D02*
G01*
X32503100Y-6165853D01*
X32642481Y-6258985D01*
X32761015Y-6377519D01*
X32854147Y-6516900D01*
X32918297Y-6671772D01*
X32951000Y-6836184D01*
X32951000Y-7003816D01*
X32918297Y-7168228D01*
X32854147Y-7323100D01*
X32761015Y-7462481D01*
X32642481Y-7581015D01*
X32503100Y-7674147D01*
X32348228Y-7738297D01*
X32183816Y-7771000D01*
X32016184Y-7771000D01*
X31851772Y-7738297D01*
X31696900Y-7674147D01*
X31557519Y-7581015D01*
X31438985Y-7462481D01*
X31345853Y-7323100D01*
X31281703Y-7168228D01*
X31249000Y-7003816D01*
X31249000Y-6836184D01*
X31281703Y-6671772D01*
X31345853Y-6516900D01*
X31438985Y-6377519D01*
X31557519Y-6258985D01*
X31696900Y-6165853D01*
X31851772Y-6101703D01*
X32016184Y-6069000D01*
X32183816Y-6069000D01*
X32348228Y-6101703D01*
X32348228Y-6101703D01*
G37*
G36*
X46536694Y-1301860D02*
G01*
X46802437Y-1354719D01*
X47303087Y-1562095D01*
X47483561Y-1682684D01*
X47753660Y-1863158D01*
X48136842Y-2246340D01*
X48317316Y-2516439D01*
X48437905Y-2696913D01*
X48571363Y-3019109D01*
X48645281Y-3197564D01*
X48751000Y-3729049D01*
X48751000Y-4270951D01*
X48698140Y-4536694D01*
X48645281Y-4802437D01*
X48437905Y-5303087D01*
X48437898Y-5303097D01*
X48136842Y-5753660D01*
X47753660Y-6136842D01*
X47490774Y-6312496D01*
X47303087Y-6437905D01*
X46802437Y-6645281D01*
X46669262Y-6671771D01*
X46270951Y-6751000D01*
X45729049Y-6751000D01*
X45330738Y-6671771D01*
X45197563Y-6645281D01*
X44696913Y-6437905D01*
X44509226Y-6312496D01*
X44246340Y-6136842D01*
X43863158Y-5753660D01*
X43562102Y-5303097D01*
X43562095Y-5303087D01*
X43354719Y-4802437D01*
X43301860Y-4536694D01*
X43249000Y-4270951D01*
X43249000Y-3729049D01*
X43354719Y-3197564D01*
X43428637Y-3019109D01*
X43562095Y-2696913D01*
X43682684Y-2516439D01*
X43863158Y-2246340D01*
X44246340Y-1863158D01*
X44516439Y-1682684D01*
X44696913Y-1562095D01*
X45197563Y-1354719D01*
X45463306Y-1301860D01*
X45729049Y-1249000D01*
X46270951Y-1249000D01*
X46536694Y-1301860D01*
X46536694Y-1301860D01*
G37*
G36*
X4536693Y-1301859D02*
G01*
X4802437Y-1354719D01*
X5303087Y-1562095D01*
X5483561Y-1682684D01*
X5753660Y-1863158D01*
X6136842Y-2246340D01*
X6317316Y-2516439D01*
X6437905Y-2696913D01*
X6571363Y-3019109D01*
X6645281Y-3197564D01*
X6751000Y-3729049D01*
X6751000Y-4270951D01*
X6698141Y-4536693D01*
X6645281Y-4802437D01*
X6437905Y-5303087D01*
X6437898Y-5303097D01*
X6136842Y-5753660D01*
X5753660Y-6136842D01*
X5490774Y-6312496D01*
X5303087Y-6437905D01*
X4802437Y-6645281D01*
X4669262Y-6671771D01*
X4270951Y-6751000D01*
X3729049Y-6751000D01*
X3330738Y-6671771D01*
X3197563Y-6645281D01*
X2696913Y-6437905D01*
X2509226Y-6312496D01*
X2246340Y-6136842D01*
X1863158Y-5753660D01*
X1562102Y-5303097D01*
X1562095Y-5303087D01*
X1354719Y-4802437D01*
X1301860Y-4536694D01*
X1249000Y-4270951D01*
X1249000Y-3729049D01*
X1354719Y-3197564D01*
X1428637Y-3019109D01*
X1562095Y-2696913D01*
X1682684Y-2516439D01*
X1863158Y-2246340D01*
X2246340Y-1863158D01*
X2516439Y-1682684D01*
X2696913Y-1562095D01*
X3197563Y-1354719D01*
X3463307Y-1301859D01*
X3729049Y-1249000D01*
X4270951Y-1249000D01*
X4536693Y-1301859D01*
X4536693Y-1301859D01*
G37*
G36*
X31848228Y-4081703D02*
G01*
X32003100Y-4145853D01*
X32142481Y-4238985D01*
X32261015Y-4357519D01*
X32354147Y-4496900D01*
X32418297Y-4651772D01*
X32451000Y-4816184D01*
X32451000Y-4983816D01*
X32418297Y-5148228D01*
X32354147Y-5303100D01*
X32261015Y-5442481D01*
X32142481Y-5561015D01*
X32003100Y-5654147D01*
X31848228Y-5718297D01*
X31683816Y-5751000D01*
X31516184Y-5751000D01*
X31351772Y-5718297D01*
X31196900Y-5654147D01*
X31057519Y-5561015D01*
X30938985Y-5442481D01*
X30845853Y-5303100D01*
X30781703Y-5148228D01*
X30749000Y-4983816D01*
X30749000Y-4816184D01*
X30781703Y-4651772D01*
X30845853Y-4496900D01*
X30938985Y-4357519D01*
X31057519Y-4238985D01*
X31196900Y-4145853D01*
X31351772Y-4081703D01*
X31516184Y-4049000D01*
X31683816Y-4049000D01*
X31848228Y-4081703D01*
X31848228Y-4081703D01*
G37*
G36*
X34848228Y-4081703D02*
G01*
X35003100Y-4145853D01*
X35142481Y-4238985D01*
X35261015Y-4357519D01*
X35354147Y-4496900D01*
X35418297Y-4651772D01*
X35451000Y-4816184D01*
X35451000Y-4983816D01*
X35418297Y-5148228D01*
X35354147Y-5303100D01*
X35261015Y-5442481D01*
X35142481Y-5561015D01*
X35003100Y-5654147D01*
X34848228Y-5718297D01*
X34683816Y-5751000D01*
X34516184Y-5751000D01*
X34351772Y-5718297D01*
X34196900Y-5654147D01*
X34057519Y-5561015D01*
X33938985Y-5442481D01*
X33845853Y-5303100D01*
X33781703Y-5148228D01*
X33749000Y-4983816D01*
X33749000Y-4816184D01*
X33781703Y-4651772D01*
X33845853Y-4496900D01*
X33938985Y-4357519D01*
X34057519Y-4238985D01*
X34196900Y-4145853D01*
X34351772Y-4081703D01*
X34516184Y-4049000D01*
X34683816Y-4049000D01*
X34848228Y-4081703D01*
X34848228Y-4081703D01*
G37*
G36*
X10219672Y-4388449D02*
G01*
X10219674Y-4388450D01*
X10219675Y-4388450D01*
X10288103Y-4416793D01*
X10349686Y-4457942D01*
X10402058Y-4510314D01*
X10443207Y-4571897D01*
X10471550Y-4640325D01*
X10471551Y-4640328D01*
X10486000Y-4712966D01*
X10486000Y-4787034D01*
X10480202Y-4816184D01*
X10471550Y-4859675D01*
X10443207Y-4928103D01*
X10402058Y-4989686D01*
X10349686Y-5042058D01*
X10288103Y-5083207D01*
X10219675Y-5111550D01*
X10219674Y-5111550D01*
X10219672Y-5111551D01*
X10147034Y-5126000D01*
X10072966Y-5126000D01*
X10000328Y-5111551D01*
X10000326Y-5111550D01*
X10000325Y-5111550D01*
X9931897Y-5083207D01*
X9870314Y-5042058D01*
X9817942Y-4989686D01*
X9776793Y-4928103D01*
X9748450Y-4859675D01*
X9739799Y-4816184D01*
X9734000Y-4787034D01*
X9734000Y-4712966D01*
X9748449Y-4640328D01*
X9748450Y-4640325D01*
X9776793Y-4571897D01*
X9817942Y-4510314D01*
X9870314Y-4457942D01*
X9931897Y-4416793D01*
X10000325Y-4388450D01*
X10000326Y-4388450D01*
X10000328Y-4388449D01*
X10072966Y-4374000D01*
X10147034Y-4374000D01*
X10219672Y-4388449D01*
X10219672Y-4388449D01*
G37*
G36*
X15999672Y-4388449D02*
G01*
X15999674Y-4388450D01*
X15999675Y-4388450D01*
X16068103Y-4416793D01*
X16129686Y-4457942D01*
X16182058Y-4510314D01*
X16223207Y-4571897D01*
X16251550Y-4640325D01*
X16251551Y-4640328D01*
X16266000Y-4712966D01*
X16266000Y-4787034D01*
X16260202Y-4816184D01*
X16251550Y-4859675D01*
X16223207Y-4928103D01*
X16182058Y-4989686D01*
X16129686Y-5042058D01*
X16068103Y-5083207D01*
X15999675Y-5111550D01*
X15999674Y-5111550D01*
X15999672Y-5111551D01*
X15927034Y-5126000D01*
X15852966Y-5126000D01*
X15780328Y-5111551D01*
X15780326Y-5111550D01*
X15780325Y-5111550D01*
X15711897Y-5083207D01*
X15650314Y-5042058D01*
X15597942Y-4989686D01*
X15556793Y-4928103D01*
X15528450Y-4859675D01*
X15519799Y-4816184D01*
X15514000Y-4787034D01*
X15514000Y-4712966D01*
X15528449Y-4640328D01*
X15528450Y-4640325D01*
X15556793Y-4571897D01*
X15597942Y-4510314D01*
X15650314Y-4457942D01*
X15711897Y-4416793D01*
X15780325Y-4388450D01*
X15780326Y-4388450D01*
X15780328Y-4388449D01*
X15852966Y-4374000D01*
X15927034Y-4374000D01*
X15999672Y-4388449D01*
X15999672Y-4388449D01*
G37*
M02*
