G04 #@! TF.GenerationSoftware,KiCad,Pcbnew,(5.1.2)-1*
G04 #@! TF.CreationDate,2019-06-30T01:41:10-07:00*
G04 #@! TF.ProjectId,joy,6a6f792e-6b69-4636-9164-5f7063625858,rev?*
G04 #@! TF.SameCoordinates,Original*
G04 #@! TF.FileFunction,Paste,Top*
G04 #@! TF.FilePolarity,Positive*
%FSLAX46Y46*%
G04 Gerber Fmt 4.6, Leading zero omitted, Abs format (unit mm)*
G04 Created by KiCad (PCBNEW (5.1.2)-1) date 2019-06-30 01:41:10*
%MOMM*%
%LPD*%
G04 APERTURE LIST*
%ADD10R,0.300000X2.450000*%
%ADD11R,0.600000X2.450000*%
%ADD12C,0.100000*%
%ADD13C,0.875000*%
%ADD14R,1.200000X1.400000*%
%ADD15R,1.000000X1.400000*%
%ADD16C,0.975000*%
%ADD17C,0.300000*%
%ADD18R,0.650000X1.060000*%
%ADD19R,1.800000X1.100000*%
G04 APERTURE END LIST*
D10*
X13250000Y-6695000D03*
X12750000Y-6695000D03*
X12250000Y-6695000D03*
X13750000Y-6695000D03*
X11750000Y-6695000D03*
X14250000Y-6695000D03*
X11250000Y-6695000D03*
X14750000Y-6695000D03*
D11*
X15450000Y-6695000D03*
X10550000Y-6695000D03*
X16225000Y-6695000D03*
X9775000Y-6695000D03*
D12*
G36*
X11777691Y-17026053D02*
G01*
X11798926Y-17029203D01*
X11819750Y-17034419D01*
X11839962Y-17041651D01*
X11859368Y-17050830D01*
X11877781Y-17061866D01*
X11895024Y-17074654D01*
X11910930Y-17089070D01*
X11925346Y-17104976D01*
X11938134Y-17122219D01*
X11949170Y-17140632D01*
X11958349Y-17160038D01*
X11965581Y-17180250D01*
X11970797Y-17201074D01*
X11973947Y-17222309D01*
X11975000Y-17243750D01*
X11975000Y-17681250D01*
X11973947Y-17702691D01*
X11970797Y-17723926D01*
X11965581Y-17744750D01*
X11958349Y-17764962D01*
X11949170Y-17784368D01*
X11938134Y-17802781D01*
X11925346Y-17820024D01*
X11910930Y-17835930D01*
X11895024Y-17850346D01*
X11877781Y-17863134D01*
X11859368Y-17874170D01*
X11839962Y-17883349D01*
X11819750Y-17890581D01*
X11798926Y-17895797D01*
X11777691Y-17898947D01*
X11756250Y-17900000D01*
X11243750Y-17900000D01*
X11222309Y-17898947D01*
X11201074Y-17895797D01*
X11180250Y-17890581D01*
X11160038Y-17883349D01*
X11140632Y-17874170D01*
X11122219Y-17863134D01*
X11104976Y-17850346D01*
X11089070Y-17835930D01*
X11074654Y-17820024D01*
X11061866Y-17802781D01*
X11050830Y-17784368D01*
X11041651Y-17764962D01*
X11034419Y-17744750D01*
X11029203Y-17723926D01*
X11026053Y-17702691D01*
X11025000Y-17681250D01*
X11025000Y-17243750D01*
X11026053Y-17222309D01*
X11029203Y-17201074D01*
X11034419Y-17180250D01*
X11041651Y-17160038D01*
X11050830Y-17140632D01*
X11061866Y-17122219D01*
X11074654Y-17104976D01*
X11089070Y-17089070D01*
X11104976Y-17074654D01*
X11122219Y-17061866D01*
X11140632Y-17050830D01*
X11160038Y-17041651D01*
X11180250Y-17034419D01*
X11201074Y-17029203D01*
X11222309Y-17026053D01*
X11243750Y-17025000D01*
X11756250Y-17025000D01*
X11777691Y-17026053D01*
X11777691Y-17026053D01*
G37*
D13*
X11500000Y-17462500D03*
D12*
G36*
X11777691Y-18601053D02*
G01*
X11798926Y-18604203D01*
X11819750Y-18609419D01*
X11839962Y-18616651D01*
X11859368Y-18625830D01*
X11877781Y-18636866D01*
X11895024Y-18649654D01*
X11910930Y-18664070D01*
X11925346Y-18679976D01*
X11938134Y-18697219D01*
X11949170Y-18715632D01*
X11958349Y-18735038D01*
X11965581Y-18755250D01*
X11970797Y-18776074D01*
X11973947Y-18797309D01*
X11975000Y-18818750D01*
X11975000Y-19256250D01*
X11973947Y-19277691D01*
X11970797Y-19298926D01*
X11965581Y-19319750D01*
X11958349Y-19339962D01*
X11949170Y-19359368D01*
X11938134Y-19377781D01*
X11925346Y-19395024D01*
X11910930Y-19410930D01*
X11895024Y-19425346D01*
X11877781Y-19438134D01*
X11859368Y-19449170D01*
X11839962Y-19458349D01*
X11819750Y-19465581D01*
X11798926Y-19470797D01*
X11777691Y-19473947D01*
X11756250Y-19475000D01*
X11243750Y-19475000D01*
X11222309Y-19473947D01*
X11201074Y-19470797D01*
X11180250Y-19465581D01*
X11160038Y-19458349D01*
X11140632Y-19449170D01*
X11122219Y-19438134D01*
X11104976Y-19425346D01*
X11089070Y-19410930D01*
X11074654Y-19395024D01*
X11061866Y-19377781D01*
X11050830Y-19359368D01*
X11041651Y-19339962D01*
X11034419Y-19319750D01*
X11029203Y-19298926D01*
X11026053Y-19277691D01*
X11025000Y-19256250D01*
X11025000Y-18818750D01*
X11026053Y-18797309D01*
X11029203Y-18776074D01*
X11034419Y-18755250D01*
X11041651Y-18735038D01*
X11050830Y-18715632D01*
X11061866Y-18697219D01*
X11074654Y-18679976D01*
X11089070Y-18664070D01*
X11104976Y-18649654D01*
X11122219Y-18636866D01*
X11140632Y-18625830D01*
X11160038Y-18616651D01*
X11180250Y-18609419D01*
X11201074Y-18604203D01*
X11222309Y-18601053D01*
X11243750Y-18600000D01*
X11756250Y-18600000D01*
X11777691Y-18601053D01*
X11777691Y-18601053D01*
G37*
D13*
X11500000Y-19037500D03*
D12*
G36*
X7352691Y-30026053D02*
G01*
X7373926Y-30029203D01*
X7394750Y-30034419D01*
X7414962Y-30041651D01*
X7434368Y-30050830D01*
X7452781Y-30061866D01*
X7470024Y-30074654D01*
X7485930Y-30089070D01*
X7500346Y-30104976D01*
X7513134Y-30122219D01*
X7524170Y-30140632D01*
X7533349Y-30160038D01*
X7540581Y-30180250D01*
X7545797Y-30201074D01*
X7548947Y-30222309D01*
X7550000Y-30243750D01*
X7550000Y-30756250D01*
X7548947Y-30777691D01*
X7545797Y-30798926D01*
X7540581Y-30819750D01*
X7533349Y-30839962D01*
X7524170Y-30859368D01*
X7513134Y-30877781D01*
X7500346Y-30895024D01*
X7485930Y-30910930D01*
X7470024Y-30925346D01*
X7452781Y-30938134D01*
X7434368Y-30949170D01*
X7414962Y-30958349D01*
X7394750Y-30965581D01*
X7373926Y-30970797D01*
X7352691Y-30973947D01*
X7331250Y-30975000D01*
X6893750Y-30975000D01*
X6872309Y-30973947D01*
X6851074Y-30970797D01*
X6830250Y-30965581D01*
X6810038Y-30958349D01*
X6790632Y-30949170D01*
X6772219Y-30938134D01*
X6754976Y-30925346D01*
X6739070Y-30910930D01*
X6724654Y-30895024D01*
X6711866Y-30877781D01*
X6700830Y-30859368D01*
X6691651Y-30839962D01*
X6684419Y-30819750D01*
X6679203Y-30798926D01*
X6676053Y-30777691D01*
X6675000Y-30756250D01*
X6675000Y-30243750D01*
X6676053Y-30222309D01*
X6679203Y-30201074D01*
X6684419Y-30180250D01*
X6691651Y-30160038D01*
X6700830Y-30140632D01*
X6711866Y-30122219D01*
X6724654Y-30104976D01*
X6739070Y-30089070D01*
X6754976Y-30074654D01*
X6772219Y-30061866D01*
X6790632Y-30050830D01*
X6810038Y-30041651D01*
X6830250Y-30034419D01*
X6851074Y-30029203D01*
X6872309Y-30026053D01*
X6893750Y-30025000D01*
X7331250Y-30025000D01*
X7352691Y-30026053D01*
X7352691Y-30026053D01*
G37*
D13*
X7112500Y-30500000D03*
D12*
G36*
X8927691Y-30026053D02*
G01*
X8948926Y-30029203D01*
X8969750Y-30034419D01*
X8989962Y-30041651D01*
X9009368Y-30050830D01*
X9027781Y-30061866D01*
X9045024Y-30074654D01*
X9060930Y-30089070D01*
X9075346Y-30104976D01*
X9088134Y-30122219D01*
X9099170Y-30140632D01*
X9108349Y-30160038D01*
X9115581Y-30180250D01*
X9120797Y-30201074D01*
X9123947Y-30222309D01*
X9125000Y-30243750D01*
X9125000Y-30756250D01*
X9123947Y-30777691D01*
X9120797Y-30798926D01*
X9115581Y-30819750D01*
X9108349Y-30839962D01*
X9099170Y-30859368D01*
X9088134Y-30877781D01*
X9075346Y-30895024D01*
X9060930Y-30910930D01*
X9045024Y-30925346D01*
X9027781Y-30938134D01*
X9009368Y-30949170D01*
X8989962Y-30958349D01*
X8969750Y-30965581D01*
X8948926Y-30970797D01*
X8927691Y-30973947D01*
X8906250Y-30975000D01*
X8468750Y-30975000D01*
X8447309Y-30973947D01*
X8426074Y-30970797D01*
X8405250Y-30965581D01*
X8385038Y-30958349D01*
X8365632Y-30949170D01*
X8347219Y-30938134D01*
X8329976Y-30925346D01*
X8314070Y-30910930D01*
X8299654Y-30895024D01*
X8286866Y-30877781D01*
X8275830Y-30859368D01*
X8266651Y-30839962D01*
X8259419Y-30819750D01*
X8254203Y-30798926D01*
X8251053Y-30777691D01*
X8250000Y-30756250D01*
X8250000Y-30243750D01*
X8251053Y-30222309D01*
X8254203Y-30201074D01*
X8259419Y-30180250D01*
X8266651Y-30160038D01*
X8275830Y-30140632D01*
X8286866Y-30122219D01*
X8299654Y-30104976D01*
X8314070Y-30089070D01*
X8329976Y-30074654D01*
X8347219Y-30061866D01*
X8365632Y-30050830D01*
X8385038Y-30041651D01*
X8405250Y-30034419D01*
X8426074Y-30029203D01*
X8447309Y-30026053D01*
X8468750Y-30025000D01*
X8906250Y-30025000D01*
X8927691Y-30026053D01*
X8927691Y-30026053D01*
G37*
D13*
X8687500Y-30500000D03*
D12*
G36*
X20827691Y-34901053D02*
G01*
X20848926Y-34904203D01*
X20869750Y-34909419D01*
X20889962Y-34916651D01*
X20909368Y-34925830D01*
X20927781Y-34936866D01*
X20945024Y-34949654D01*
X20960930Y-34964070D01*
X20975346Y-34979976D01*
X20988134Y-34997219D01*
X20999170Y-35015632D01*
X21008349Y-35035038D01*
X21015581Y-35055250D01*
X21020797Y-35076074D01*
X21023947Y-35097309D01*
X21025000Y-35118750D01*
X21025000Y-35556250D01*
X21023947Y-35577691D01*
X21020797Y-35598926D01*
X21015581Y-35619750D01*
X21008349Y-35639962D01*
X20999170Y-35659368D01*
X20988134Y-35677781D01*
X20975346Y-35695024D01*
X20960930Y-35710930D01*
X20945024Y-35725346D01*
X20927781Y-35738134D01*
X20909368Y-35749170D01*
X20889962Y-35758349D01*
X20869750Y-35765581D01*
X20848926Y-35770797D01*
X20827691Y-35773947D01*
X20806250Y-35775000D01*
X20293750Y-35775000D01*
X20272309Y-35773947D01*
X20251074Y-35770797D01*
X20230250Y-35765581D01*
X20210038Y-35758349D01*
X20190632Y-35749170D01*
X20172219Y-35738134D01*
X20154976Y-35725346D01*
X20139070Y-35710930D01*
X20124654Y-35695024D01*
X20111866Y-35677781D01*
X20100830Y-35659368D01*
X20091651Y-35639962D01*
X20084419Y-35619750D01*
X20079203Y-35598926D01*
X20076053Y-35577691D01*
X20075000Y-35556250D01*
X20075000Y-35118750D01*
X20076053Y-35097309D01*
X20079203Y-35076074D01*
X20084419Y-35055250D01*
X20091651Y-35035038D01*
X20100830Y-35015632D01*
X20111866Y-34997219D01*
X20124654Y-34979976D01*
X20139070Y-34964070D01*
X20154976Y-34949654D01*
X20172219Y-34936866D01*
X20190632Y-34925830D01*
X20210038Y-34916651D01*
X20230250Y-34909419D01*
X20251074Y-34904203D01*
X20272309Y-34901053D01*
X20293750Y-34900000D01*
X20806250Y-34900000D01*
X20827691Y-34901053D01*
X20827691Y-34901053D01*
G37*
D13*
X20550000Y-35337500D03*
D12*
G36*
X20827691Y-33326053D02*
G01*
X20848926Y-33329203D01*
X20869750Y-33334419D01*
X20889962Y-33341651D01*
X20909368Y-33350830D01*
X20927781Y-33361866D01*
X20945024Y-33374654D01*
X20960930Y-33389070D01*
X20975346Y-33404976D01*
X20988134Y-33422219D01*
X20999170Y-33440632D01*
X21008349Y-33460038D01*
X21015581Y-33480250D01*
X21020797Y-33501074D01*
X21023947Y-33522309D01*
X21025000Y-33543750D01*
X21025000Y-33981250D01*
X21023947Y-34002691D01*
X21020797Y-34023926D01*
X21015581Y-34044750D01*
X21008349Y-34064962D01*
X20999170Y-34084368D01*
X20988134Y-34102781D01*
X20975346Y-34120024D01*
X20960930Y-34135930D01*
X20945024Y-34150346D01*
X20927781Y-34163134D01*
X20909368Y-34174170D01*
X20889962Y-34183349D01*
X20869750Y-34190581D01*
X20848926Y-34195797D01*
X20827691Y-34198947D01*
X20806250Y-34200000D01*
X20293750Y-34200000D01*
X20272309Y-34198947D01*
X20251074Y-34195797D01*
X20230250Y-34190581D01*
X20210038Y-34183349D01*
X20190632Y-34174170D01*
X20172219Y-34163134D01*
X20154976Y-34150346D01*
X20139070Y-34135930D01*
X20124654Y-34120024D01*
X20111866Y-34102781D01*
X20100830Y-34084368D01*
X20091651Y-34064962D01*
X20084419Y-34044750D01*
X20079203Y-34023926D01*
X20076053Y-34002691D01*
X20075000Y-33981250D01*
X20075000Y-33543750D01*
X20076053Y-33522309D01*
X20079203Y-33501074D01*
X20084419Y-33480250D01*
X20091651Y-33460038D01*
X20100830Y-33440632D01*
X20111866Y-33422219D01*
X20124654Y-33404976D01*
X20139070Y-33389070D01*
X20154976Y-33374654D01*
X20172219Y-33361866D01*
X20190632Y-33350830D01*
X20210038Y-33341651D01*
X20230250Y-33334419D01*
X20251074Y-33329203D01*
X20272309Y-33326053D01*
X20293750Y-33325000D01*
X20806250Y-33325000D01*
X20827691Y-33326053D01*
X20827691Y-33326053D01*
G37*
D13*
X20550000Y-33762500D03*
D12*
G36*
X7352691Y-31726053D02*
G01*
X7373926Y-31729203D01*
X7394750Y-31734419D01*
X7414962Y-31741651D01*
X7434368Y-31750830D01*
X7452781Y-31761866D01*
X7470024Y-31774654D01*
X7485930Y-31789070D01*
X7500346Y-31804976D01*
X7513134Y-31822219D01*
X7524170Y-31840632D01*
X7533349Y-31860038D01*
X7540581Y-31880250D01*
X7545797Y-31901074D01*
X7548947Y-31922309D01*
X7550000Y-31943750D01*
X7550000Y-32456250D01*
X7548947Y-32477691D01*
X7545797Y-32498926D01*
X7540581Y-32519750D01*
X7533349Y-32539962D01*
X7524170Y-32559368D01*
X7513134Y-32577781D01*
X7500346Y-32595024D01*
X7485930Y-32610930D01*
X7470024Y-32625346D01*
X7452781Y-32638134D01*
X7434368Y-32649170D01*
X7414962Y-32658349D01*
X7394750Y-32665581D01*
X7373926Y-32670797D01*
X7352691Y-32673947D01*
X7331250Y-32675000D01*
X6893750Y-32675000D01*
X6872309Y-32673947D01*
X6851074Y-32670797D01*
X6830250Y-32665581D01*
X6810038Y-32658349D01*
X6790632Y-32649170D01*
X6772219Y-32638134D01*
X6754976Y-32625346D01*
X6739070Y-32610930D01*
X6724654Y-32595024D01*
X6711866Y-32577781D01*
X6700830Y-32559368D01*
X6691651Y-32539962D01*
X6684419Y-32519750D01*
X6679203Y-32498926D01*
X6676053Y-32477691D01*
X6675000Y-32456250D01*
X6675000Y-31943750D01*
X6676053Y-31922309D01*
X6679203Y-31901074D01*
X6684419Y-31880250D01*
X6691651Y-31860038D01*
X6700830Y-31840632D01*
X6711866Y-31822219D01*
X6724654Y-31804976D01*
X6739070Y-31789070D01*
X6754976Y-31774654D01*
X6772219Y-31761866D01*
X6790632Y-31750830D01*
X6810038Y-31741651D01*
X6830250Y-31734419D01*
X6851074Y-31729203D01*
X6872309Y-31726053D01*
X6893750Y-31725000D01*
X7331250Y-31725000D01*
X7352691Y-31726053D01*
X7352691Y-31726053D01*
G37*
D13*
X7112500Y-32200000D03*
D12*
G36*
X8927691Y-31726053D02*
G01*
X8948926Y-31729203D01*
X8969750Y-31734419D01*
X8989962Y-31741651D01*
X9009368Y-31750830D01*
X9027781Y-31761866D01*
X9045024Y-31774654D01*
X9060930Y-31789070D01*
X9075346Y-31804976D01*
X9088134Y-31822219D01*
X9099170Y-31840632D01*
X9108349Y-31860038D01*
X9115581Y-31880250D01*
X9120797Y-31901074D01*
X9123947Y-31922309D01*
X9125000Y-31943750D01*
X9125000Y-32456250D01*
X9123947Y-32477691D01*
X9120797Y-32498926D01*
X9115581Y-32519750D01*
X9108349Y-32539962D01*
X9099170Y-32559368D01*
X9088134Y-32577781D01*
X9075346Y-32595024D01*
X9060930Y-32610930D01*
X9045024Y-32625346D01*
X9027781Y-32638134D01*
X9009368Y-32649170D01*
X8989962Y-32658349D01*
X8969750Y-32665581D01*
X8948926Y-32670797D01*
X8927691Y-32673947D01*
X8906250Y-32675000D01*
X8468750Y-32675000D01*
X8447309Y-32673947D01*
X8426074Y-32670797D01*
X8405250Y-32665581D01*
X8385038Y-32658349D01*
X8365632Y-32649170D01*
X8347219Y-32638134D01*
X8329976Y-32625346D01*
X8314070Y-32610930D01*
X8299654Y-32595024D01*
X8286866Y-32577781D01*
X8275830Y-32559368D01*
X8266651Y-32539962D01*
X8259419Y-32519750D01*
X8254203Y-32498926D01*
X8251053Y-32477691D01*
X8250000Y-32456250D01*
X8250000Y-31943750D01*
X8251053Y-31922309D01*
X8254203Y-31901074D01*
X8259419Y-31880250D01*
X8266651Y-31860038D01*
X8275830Y-31840632D01*
X8286866Y-31822219D01*
X8299654Y-31804976D01*
X8314070Y-31789070D01*
X8329976Y-31774654D01*
X8347219Y-31761866D01*
X8365632Y-31750830D01*
X8385038Y-31741651D01*
X8405250Y-31734419D01*
X8426074Y-31729203D01*
X8447309Y-31726053D01*
X8468750Y-31725000D01*
X8906250Y-31725000D01*
X8927691Y-31726053D01*
X8927691Y-31726053D01*
G37*
D13*
X8687500Y-32200000D03*
D12*
G36*
X3827691Y-42951053D02*
G01*
X3848926Y-42954203D01*
X3869750Y-42959419D01*
X3889962Y-42966651D01*
X3909368Y-42975830D01*
X3927781Y-42986866D01*
X3945024Y-42999654D01*
X3960930Y-43014070D01*
X3975346Y-43029976D01*
X3988134Y-43047219D01*
X3999170Y-43065632D01*
X4008349Y-43085038D01*
X4015581Y-43105250D01*
X4020797Y-43126074D01*
X4023947Y-43147309D01*
X4025000Y-43168750D01*
X4025000Y-43606250D01*
X4023947Y-43627691D01*
X4020797Y-43648926D01*
X4015581Y-43669750D01*
X4008349Y-43689962D01*
X3999170Y-43709368D01*
X3988134Y-43727781D01*
X3975346Y-43745024D01*
X3960930Y-43760930D01*
X3945024Y-43775346D01*
X3927781Y-43788134D01*
X3909368Y-43799170D01*
X3889962Y-43808349D01*
X3869750Y-43815581D01*
X3848926Y-43820797D01*
X3827691Y-43823947D01*
X3806250Y-43825000D01*
X3293750Y-43825000D01*
X3272309Y-43823947D01*
X3251074Y-43820797D01*
X3230250Y-43815581D01*
X3210038Y-43808349D01*
X3190632Y-43799170D01*
X3172219Y-43788134D01*
X3154976Y-43775346D01*
X3139070Y-43760930D01*
X3124654Y-43745024D01*
X3111866Y-43727781D01*
X3100830Y-43709368D01*
X3091651Y-43689962D01*
X3084419Y-43669750D01*
X3079203Y-43648926D01*
X3076053Y-43627691D01*
X3075000Y-43606250D01*
X3075000Y-43168750D01*
X3076053Y-43147309D01*
X3079203Y-43126074D01*
X3084419Y-43105250D01*
X3091651Y-43085038D01*
X3100830Y-43065632D01*
X3111866Y-43047219D01*
X3124654Y-43029976D01*
X3139070Y-43014070D01*
X3154976Y-42999654D01*
X3172219Y-42986866D01*
X3190632Y-42975830D01*
X3210038Y-42966651D01*
X3230250Y-42959419D01*
X3251074Y-42954203D01*
X3272309Y-42951053D01*
X3293750Y-42950000D01*
X3806250Y-42950000D01*
X3827691Y-42951053D01*
X3827691Y-42951053D01*
G37*
D13*
X3550000Y-43387500D03*
D12*
G36*
X3827691Y-41376053D02*
G01*
X3848926Y-41379203D01*
X3869750Y-41384419D01*
X3889962Y-41391651D01*
X3909368Y-41400830D01*
X3927781Y-41411866D01*
X3945024Y-41424654D01*
X3960930Y-41439070D01*
X3975346Y-41454976D01*
X3988134Y-41472219D01*
X3999170Y-41490632D01*
X4008349Y-41510038D01*
X4015581Y-41530250D01*
X4020797Y-41551074D01*
X4023947Y-41572309D01*
X4025000Y-41593750D01*
X4025000Y-42031250D01*
X4023947Y-42052691D01*
X4020797Y-42073926D01*
X4015581Y-42094750D01*
X4008349Y-42114962D01*
X3999170Y-42134368D01*
X3988134Y-42152781D01*
X3975346Y-42170024D01*
X3960930Y-42185930D01*
X3945024Y-42200346D01*
X3927781Y-42213134D01*
X3909368Y-42224170D01*
X3889962Y-42233349D01*
X3869750Y-42240581D01*
X3848926Y-42245797D01*
X3827691Y-42248947D01*
X3806250Y-42250000D01*
X3293750Y-42250000D01*
X3272309Y-42248947D01*
X3251074Y-42245797D01*
X3230250Y-42240581D01*
X3210038Y-42233349D01*
X3190632Y-42224170D01*
X3172219Y-42213134D01*
X3154976Y-42200346D01*
X3139070Y-42185930D01*
X3124654Y-42170024D01*
X3111866Y-42152781D01*
X3100830Y-42134368D01*
X3091651Y-42114962D01*
X3084419Y-42094750D01*
X3079203Y-42073926D01*
X3076053Y-42052691D01*
X3075000Y-42031250D01*
X3075000Y-41593750D01*
X3076053Y-41572309D01*
X3079203Y-41551074D01*
X3084419Y-41530250D01*
X3091651Y-41510038D01*
X3100830Y-41490632D01*
X3111866Y-41472219D01*
X3124654Y-41454976D01*
X3139070Y-41439070D01*
X3154976Y-41424654D01*
X3172219Y-41411866D01*
X3190632Y-41400830D01*
X3210038Y-41391651D01*
X3230250Y-41384419D01*
X3251074Y-41379203D01*
X3272309Y-41376053D01*
X3293750Y-41375000D01*
X3806250Y-41375000D01*
X3827691Y-41376053D01*
X3827691Y-41376053D01*
G37*
D13*
X3550000Y-41812500D03*
D12*
G36*
X20827691Y-36338553D02*
G01*
X20848926Y-36341703D01*
X20869750Y-36346919D01*
X20889962Y-36354151D01*
X20909368Y-36363330D01*
X20927781Y-36374366D01*
X20945024Y-36387154D01*
X20960930Y-36401570D01*
X20975346Y-36417476D01*
X20988134Y-36434719D01*
X20999170Y-36453132D01*
X21008349Y-36472538D01*
X21015581Y-36492750D01*
X21020797Y-36513574D01*
X21023947Y-36534809D01*
X21025000Y-36556250D01*
X21025000Y-36993750D01*
X21023947Y-37015191D01*
X21020797Y-37036426D01*
X21015581Y-37057250D01*
X21008349Y-37077462D01*
X20999170Y-37096868D01*
X20988134Y-37115281D01*
X20975346Y-37132524D01*
X20960930Y-37148430D01*
X20945024Y-37162846D01*
X20927781Y-37175634D01*
X20909368Y-37186670D01*
X20889962Y-37195849D01*
X20869750Y-37203081D01*
X20848926Y-37208297D01*
X20827691Y-37211447D01*
X20806250Y-37212500D01*
X20293750Y-37212500D01*
X20272309Y-37211447D01*
X20251074Y-37208297D01*
X20230250Y-37203081D01*
X20210038Y-37195849D01*
X20190632Y-37186670D01*
X20172219Y-37175634D01*
X20154976Y-37162846D01*
X20139070Y-37148430D01*
X20124654Y-37132524D01*
X20111866Y-37115281D01*
X20100830Y-37096868D01*
X20091651Y-37077462D01*
X20084419Y-37057250D01*
X20079203Y-37036426D01*
X20076053Y-37015191D01*
X20075000Y-36993750D01*
X20075000Y-36556250D01*
X20076053Y-36534809D01*
X20079203Y-36513574D01*
X20084419Y-36492750D01*
X20091651Y-36472538D01*
X20100830Y-36453132D01*
X20111866Y-36434719D01*
X20124654Y-36417476D01*
X20139070Y-36401570D01*
X20154976Y-36387154D01*
X20172219Y-36374366D01*
X20190632Y-36363330D01*
X20210038Y-36354151D01*
X20230250Y-36346919D01*
X20251074Y-36341703D01*
X20272309Y-36338553D01*
X20293750Y-36337500D01*
X20806250Y-36337500D01*
X20827691Y-36338553D01*
X20827691Y-36338553D01*
G37*
D13*
X20550000Y-36775000D03*
D12*
G36*
X20827691Y-37913553D02*
G01*
X20848926Y-37916703D01*
X20869750Y-37921919D01*
X20889962Y-37929151D01*
X20909368Y-37938330D01*
X20927781Y-37949366D01*
X20945024Y-37962154D01*
X20960930Y-37976570D01*
X20975346Y-37992476D01*
X20988134Y-38009719D01*
X20999170Y-38028132D01*
X21008349Y-38047538D01*
X21015581Y-38067750D01*
X21020797Y-38088574D01*
X21023947Y-38109809D01*
X21025000Y-38131250D01*
X21025000Y-38568750D01*
X21023947Y-38590191D01*
X21020797Y-38611426D01*
X21015581Y-38632250D01*
X21008349Y-38652462D01*
X20999170Y-38671868D01*
X20988134Y-38690281D01*
X20975346Y-38707524D01*
X20960930Y-38723430D01*
X20945024Y-38737846D01*
X20927781Y-38750634D01*
X20909368Y-38761670D01*
X20889962Y-38770849D01*
X20869750Y-38778081D01*
X20848926Y-38783297D01*
X20827691Y-38786447D01*
X20806250Y-38787500D01*
X20293750Y-38787500D01*
X20272309Y-38786447D01*
X20251074Y-38783297D01*
X20230250Y-38778081D01*
X20210038Y-38770849D01*
X20190632Y-38761670D01*
X20172219Y-38750634D01*
X20154976Y-38737846D01*
X20139070Y-38723430D01*
X20124654Y-38707524D01*
X20111866Y-38690281D01*
X20100830Y-38671868D01*
X20091651Y-38652462D01*
X20084419Y-38632250D01*
X20079203Y-38611426D01*
X20076053Y-38590191D01*
X20075000Y-38568750D01*
X20075000Y-38131250D01*
X20076053Y-38109809D01*
X20079203Y-38088574D01*
X20084419Y-38067750D01*
X20091651Y-38047538D01*
X20100830Y-38028132D01*
X20111866Y-38009719D01*
X20124654Y-37992476D01*
X20139070Y-37976570D01*
X20154976Y-37962154D01*
X20172219Y-37949366D01*
X20190632Y-37938330D01*
X20210038Y-37929151D01*
X20230250Y-37921919D01*
X20251074Y-37916703D01*
X20272309Y-37913553D01*
X20293750Y-37912500D01*
X20806250Y-37912500D01*
X20827691Y-37913553D01*
X20827691Y-37913553D01*
G37*
D13*
X20550000Y-38350000D03*
D12*
G36*
X16952691Y-83526053D02*
G01*
X16973926Y-83529203D01*
X16994750Y-83534419D01*
X17014962Y-83541651D01*
X17034368Y-83550830D01*
X17052781Y-83561866D01*
X17070024Y-83574654D01*
X17085930Y-83589070D01*
X17100346Y-83604976D01*
X17113134Y-83622219D01*
X17124170Y-83640632D01*
X17133349Y-83660038D01*
X17140581Y-83680250D01*
X17145797Y-83701074D01*
X17148947Y-83722309D01*
X17150000Y-83743750D01*
X17150000Y-84256250D01*
X17148947Y-84277691D01*
X17145797Y-84298926D01*
X17140581Y-84319750D01*
X17133349Y-84339962D01*
X17124170Y-84359368D01*
X17113134Y-84377781D01*
X17100346Y-84395024D01*
X17085930Y-84410930D01*
X17070024Y-84425346D01*
X17052781Y-84438134D01*
X17034368Y-84449170D01*
X17014962Y-84458349D01*
X16994750Y-84465581D01*
X16973926Y-84470797D01*
X16952691Y-84473947D01*
X16931250Y-84475000D01*
X16493750Y-84475000D01*
X16472309Y-84473947D01*
X16451074Y-84470797D01*
X16430250Y-84465581D01*
X16410038Y-84458349D01*
X16390632Y-84449170D01*
X16372219Y-84438134D01*
X16354976Y-84425346D01*
X16339070Y-84410930D01*
X16324654Y-84395024D01*
X16311866Y-84377781D01*
X16300830Y-84359368D01*
X16291651Y-84339962D01*
X16284419Y-84319750D01*
X16279203Y-84298926D01*
X16276053Y-84277691D01*
X16275000Y-84256250D01*
X16275000Y-83743750D01*
X16276053Y-83722309D01*
X16279203Y-83701074D01*
X16284419Y-83680250D01*
X16291651Y-83660038D01*
X16300830Y-83640632D01*
X16311866Y-83622219D01*
X16324654Y-83604976D01*
X16339070Y-83589070D01*
X16354976Y-83574654D01*
X16372219Y-83561866D01*
X16390632Y-83550830D01*
X16410038Y-83541651D01*
X16430250Y-83534419D01*
X16451074Y-83529203D01*
X16472309Y-83526053D01*
X16493750Y-83525000D01*
X16931250Y-83525000D01*
X16952691Y-83526053D01*
X16952691Y-83526053D01*
G37*
D13*
X16712500Y-84000000D03*
D12*
G36*
X18527691Y-83526053D02*
G01*
X18548926Y-83529203D01*
X18569750Y-83534419D01*
X18589962Y-83541651D01*
X18609368Y-83550830D01*
X18627781Y-83561866D01*
X18645024Y-83574654D01*
X18660930Y-83589070D01*
X18675346Y-83604976D01*
X18688134Y-83622219D01*
X18699170Y-83640632D01*
X18708349Y-83660038D01*
X18715581Y-83680250D01*
X18720797Y-83701074D01*
X18723947Y-83722309D01*
X18725000Y-83743750D01*
X18725000Y-84256250D01*
X18723947Y-84277691D01*
X18720797Y-84298926D01*
X18715581Y-84319750D01*
X18708349Y-84339962D01*
X18699170Y-84359368D01*
X18688134Y-84377781D01*
X18675346Y-84395024D01*
X18660930Y-84410930D01*
X18645024Y-84425346D01*
X18627781Y-84438134D01*
X18609368Y-84449170D01*
X18589962Y-84458349D01*
X18569750Y-84465581D01*
X18548926Y-84470797D01*
X18527691Y-84473947D01*
X18506250Y-84475000D01*
X18068750Y-84475000D01*
X18047309Y-84473947D01*
X18026074Y-84470797D01*
X18005250Y-84465581D01*
X17985038Y-84458349D01*
X17965632Y-84449170D01*
X17947219Y-84438134D01*
X17929976Y-84425346D01*
X17914070Y-84410930D01*
X17899654Y-84395024D01*
X17886866Y-84377781D01*
X17875830Y-84359368D01*
X17866651Y-84339962D01*
X17859419Y-84319750D01*
X17854203Y-84298926D01*
X17851053Y-84277691D01*
X17850000Y-84256250D01*
X17850000Y-83743750D01*
X17851053Y-83722309D01*
X17854203Y-83701074D01*
X17859419Y-83680250D01*
X17866651Y-83660038D01*
X17875830Y-83640632D01*
X17886866Y-83622219D01*
X17899654Y-83604976D01*
X17914070Y-83589070D01*
X17929976Y-83574654D01*
X17947219Y-83561866D01*
X17965632Y-83550830D01*
X17985038Y-83541651D01*
X18005250Y-83534419D01*
X18026074Y-83529203D01*
X18047309Y-83526053D01*
X18068750Y-83525000D01*
X18506250Y-83525000D01*
X18527691Y-83526053D01*
X18527691Y-83526053D01*
G37*
D13*
X18287500Y-84000000D03*
D12*
G36*
X16952691Y-93526053D02*
G01*
X16973926Y-93529203D01*
X16994750Y-93534419D01*
X17014962Y-93541651D01*
X17034368Y-93550830D01*
X17052781Y-93561866D01*
X17070024Y-93574654D01*
X17085930Y-93589070D01*
X17100346Y-93604976D01*
X17113134Y-93622219D01*
X17124170Y-93640632D01*
X17133349Y-93660038D01*
X17140581Y-93680250D01*
X17145797Y-93701074D01*
X17148947Y-93722309D01*
X17150000Y-93743750D01*
X17150000Y-94256250D01*
X17148947Y-94277691D01*
X17145797Y-94298926D01*
X17140581Y-94319750D01*
X17133349Y-94339962D01*
X17124170Y-94359368D01*
X17113134Y-94377781D01*
X17100346Y-94395024D01*
X17085930Y-94410930D01*
X17070024Y-94425346D01*
X17052781Y-94438134D01*
X17034368Y-94449170D01*
X17014962Y-94458349D01*
X16994750Y-94465581D01*
X16973926Y-94470797D01*
X16952691Y-94473947D01*
X16931250Y-94475000D01*
X16493750Y-94475000D01*
X16472309Y-94473947D01*
X16451074Y-94470797D01*
X16430250Y-94465581D01*
X16410038Y-94458349D01*
X16390632Y-94449170D01*
X16372219Y-94438134D01*
X16354976Y-94425346D01*
X16339070Y-94410930D01*
X16324654Y-94395024D01*
X16311866Y-94377781D01*
X16300830Y-94359368D01*
X16291651Y-94339962D01*
X16284419Y-94319750D01*
X16279203Y-94298926D01*
X16276053Y-94277691D01*
X16275000Y-94256250D01*
X16275000Y-93743750D01*
X16276053Y-93722309D01*
X16279203Y-93701074D01*
X16284419Y-93680250D01*
X16291651Y-93660038D01*
X16300830Y-93640632D01*
X16311866Y-93622219D01*
X16324654Y-93604976D01*
X16339070Y-93589070D01*
X16354976Y-93574654D01*
X16372219Y-93561866D01*
X16390632Y-93550830D01*
X16410038Y-93541651D01*
X16430250Y-93534419D01*
X16451074Y-93529203D01*
X16472309Y-93526053D01*
X16493750Y-93525000D01*
X16931250Y-93525000D01*
X16952691Y-93526053D01*
X16952691Y-93526053D01*
G37*
D13*
X16712500Y-94000000D03*
D12*
G36*
X18527691Y-93526053D02*
G01*
X18548926Y-93529203D01*
X18569750Y-93534419D01*
X18589962Y-93541651D01*
X18609368Y-93550830D01*
X18627781Y-93561866D01*
X18645024Y-93574654D01*
X18660930Y-93589070D01*
X18675346Y-93604976D01*
X18688134Y-93622219D01*
X18699170Y-93640632D01*
X18708349Y-93660038D01*
X18715581Y-93680250D01*
X18720797Y-93701074D01*
X18723947Y-93722309D01*
X18725000Y-93743750D01*
X18725000Y-94256250D01*
X18723947Y-94277691D01*
X18720797Y-94298926D01*
X18715581Y-94319750D01*
X18708349Y-94339962D01*
X18699170Y-94359368D01*
X18688134Y-94377781D01*
X18675346Y-94395024D01*
X18660930Y-94410930D01*
X18645024Y-94425346D01*
X18627781Y-94438134D01*
X18609368Y-94449170D01*
X18589962Y-94458349D01*
X18569750Y-94465581D01*
X18548926Y-94470797D01*
X18527691Y-94473947D01*
X18506250Y-94475000D01*
X18068750Y-94475000D01*
X18047309Y-94473947D01*
X18026074Y-94470797D01*
X18005250Y-94465581D01*
X17985038Y-94458349D01*
X17965632Y-94449170D01*
X17947219Y-94438134D01*
X17929976Y-94425346D01*
X17914070Y-94410930D01*
X17899654Y-94395024D01*
X17886866Y-94377781D01*
X17875830Y-94359368D01*
X17866651Y-94339962D01*
X17859419Y-94319750D01*
X17854203Y-94298926D01*
X17851053Y-94277691D01*
X17850000Y-94256250D01*
X17850000Y-93743750D01*
X17851053Y-93722309D01*
X17854203Y-93701074D01*
X17859419Y-93680250D01*
X17866651Y-93660038D01*
X17875830Y-93640632D01*
X17886866Y-93622219D01*
X17899654Y-93604976D01*
X17914070Y-93589070D01*
X17929976Y-93574654D01*
X17947219Y-93561866D01*
X17965632Y-93550830D01*
X17985038Y-93541651D01*
X18005250Y-93534419D01*
X18026074Y-93529203D01*
X18047309Y-93526053D01*
X18068750Y-93525000D01*
X18506250Y-93525000D01*
X18527691Y-93526053D01*
X18527691Y-93526053D01*
G37*
D13*
X18287500Y-94000000D03*
D12*
G36*
X21277691Y-16776053D02*
G01*
X21298926Y-16779203D01*
X21319750Y-16784419D01*
X21339962Y-16791651D01*
X21359368Y-16800830D01*
X21377781Y-16811866D01*
X21395024Y-16824654D01*
X21410930Y-16839070D01*
X21425346Y-16854976D01*
X21438134Y-16872219D01*
X21449170Y-16890632D01*
X21458349Y-16910038D01*
X21465581Y-16930250D01*
X21470797Y-16951074D01*
X21473947Y-16972309D01*
X21475000Y-16993750D01*
X21475000Y-17431250D01*
X21473947Y-17452691D01*
X21470797Y-17473926D01*
X21465581Y-17494750D01*
X21458349Y-17514962D01*
X21449170Y-17534368D01*
X21438134Y-17552781D01*
X21425346Y-17570024D01*
X21410930Y-17585930D01*
X21395024Y-17600346D01*
X21377781Y-17613134D01*
X21359368Y-17624170D01*
X21339962Y-17633349D01*
X21319750Y-17640581D01*
X21298926Y-17645797D01*
X21277691Y-17648947D01*
X21256250Y-17650000D01*
X20743750Y-17650000D01*
X20722309Y-17648947D01*
X20701074Y-17645797D01*
X20680250Y-17640581D01*
X20660038Y-17633349D01*
X20640632Y-17624170D01*
X20622219Y-17613134D01*
X20604976Y-17600346D01*
X20589070Y-17585930D01*
X20574654Y-17570024D01*
X20561866Y-17552781D01*
X20550830Y-17534368D01*
X20541651Y-17514962D01*
X20534419Y-17494750D01*
X20529203Y-17473926D01*
X20526053Y-17452691D01*
X20525000Y-17431250D01*
X20525000Y-16993750D01*
X20526053Y-16972309D01*
X20529203Y-16951074D01*
X20534419Y-16930250D01*
X20541651Y-16910038D01*
X20550830Y-16890632D01*
X20561866Y-16872219D01*
X20574654Y-16854976D01*
X20589070Y-16839070D01*
X20604976Y-16824654D01*
X20622219Y-16811866D01*
X20640632Y-16800830D01*
X20660038Y-16791651D01*
X20680250Y-16784419D01*
X20701074Y-16779203D01*
X20722309Y-16776053D01*
X20743750Y-16775000D01*
X21256250Y-16775000D01*
X21277691Y-16776053D01*
X21277691Y-16776053D01*
G37*
D13*
X21000000Y-17212500D03*
D12*
G36*
X21277691Y-18351053D02*
G01*
X21298926Y-18354203D01*
X21319750Y-18359419D01*
X21339962Y-18366651D01*
X21359368Y-18375830D01*
X21377781Y-18386866D01*
X21395024Y-18399654D01*
X21410930Y-18414070D01*
X21425346Y-18429976D01*
X21438134Y-18447219D01*
X21449170Y-18465632D01*
X21458349Y-18485038D01*
X21465581Y-18505250D01*
X21470797Y-18526074D01*
X21473947Y-18547309D01*
X21475000Y-18568750D01*
X21475000Y-19006250D01*
X21473947Y-19027691D01*
X21470797Y-19048926D01*
X21465581Y-19069750D01*
X21458349Y-19089962D01*
X21449170Y-19109368D01*
X21438134Y-19127781D01*
X21425346Y-19145024D01*
X21410930Y-19160930D01*
X21395024Y-19175346D01*
X21377781Y-19188134D01*
X21359368Y-19199170D01*
X21339962Y-19208349D01*
X21319750Y-19215581D01*
X21298926Y-19220797D01*
X21277691Y-19223947D01*
X21256250Y-19225000D01*
X20743750Y-19225000D01*
X20722309Y-19223947D01*
X20701074Y-19220797D01*
X20680250Y-19215581D01*
X20660038Y-19208349D01*
X20640632Y-19199170D01*
X20622219Y-19188134D01*
X20604976Y-19175346D01*
X20589070Y-19160930D01*
X20574654Y-19145024D01*
X20561866Y-19127781D01*
X20550830Y-19109368D01*
X20541651Y-19089962D01*
X20534419Y-19069750D01*
X20529203Y-19048926D01*
X20526053Y-19027691D01*
X20525000Y-19006250D01*
X20525000Y-18568750D01*
X20526053Y-18547309D01*
X20529203Y-18526074D01*
X20534419Y-18505250D01*
X20541651Y-18485038D01*
X20550830Y-18465632D01*
X20561866Y-18447219D01*
X20574654Y-18429976D01*
X20589070Y-18414070D01*
X20604976Y-18399654D01*
X20622219Y-18386866D01*
X20640632Y-18375830D01*
X20660038Y-18366651D01*
X20680250Y-18359419D01*
X20701074Y-18354203D01*
X20722309Y-18351053D01*
X20743750Y-18350000D01*
X21256250Y-18350000D01*
X21277691Y-18351053D01*
X21277691Y-18351053D01*
G37*
D13*
X21000000Y-18787500D03*
D12*
G36*
X48027691Y-14026053D02*
G01*
X48048926Y-14029203D01*
X48069750Y-14034419D01*
X48089962Y-14041651D01*
X48109368Y-14050830D01*
X48127781Y-14061866D01*
X48145024Y-14074654D01*
X48160930Y-14089070D01*
X48175346Y-14104976D01*
X48188134Y-14122219D01*
X48199170Y-14140632D01*
X48208349Y-14160038D01*
X48215581Y-14180250D01*
X48220797Y-14201074D01*
X48223947Y-14222309D01*
X48225000Y-14243750D01*
X48225000Y-14756250D01*
X48223947Y-14777691D01*
X48220797Y-14798926D01*
X48215581Y-14819750D01*
X48208349Y-14839962D01*
X48199170Y-14859368D01*
X48188134Y-14877781D01*
X48175346Y-14895024D01*
X48160930Y-14910930D01*
X48145024Y-14925346D01*
X48127781Y-14938134D01*
X48109368Y-14949170D01*
X48089962Y-14958349D01*
X48069750Y-14965581D01*
X48048926Y-14970797D01*
X48027691Y-14973947D01*
X48006250Y-14975000D01*
X47568750Y-14975000D01*
X47547309Y-14973947D01*
X47526074Y-14970797D01*
X47505250Y-14965581D01*
X47485038Y-14958349D01*
X47465632Y-14949170D01*
X47447219Y-14938134D01*
X47429976Y-14925346D01*
X47414070Y-14910930D01*
X47399654Y-14895024D01*
X47386866Y-14877781D01*
X47375830Y-14859368D01*
X47366651Y-14839962D01*
X47359419Y-14819750D01*
X47354203Y-14798926D01*
X47351053Y-14777691D01*
X47350000Y-14756250D01*
X47350000Y-14243750D01*
X47351053Y-14222309D01*
X47354203Y-14201074D01*
X47359419Y-14180250D01*
X47366651Y-14160038D01*
X47375830Y-14140632D01*
X47386866Y-14122219D01*
X47399654Y-14104976D01*
X47414070Y-14089070D01*
X47429976Y-14074654D01*
X47447219Y-14061866D01*
X47465632Y-14050830D01*
X47485038Y-14041651D01*
X47505250Y-14034419D01*
X47526074Y-14029203D01*
X47547309Y-14026053D01*
X47568750Y-14025000D01*
X48006250Y-14025000D01*
X48027691Y-14026053D01*
X48027691Y-14026053D01*
G37*
D13*
X47787500Y-14500000D03*
D12*
G36*
X46452691Y-14026053D02*
G01*
X46473926Y-14029203D01*
X46494750Y-14034419D01*
X46514962Y-14041651D01*
X46534368Y-14050830D01*
X46552781Y-14061866D01*
X46570024Y-14074654D01*
X46585930Y-14089070D01*
X46600346Y-14104976D01*
X46613134Y-14122219D01*
X46624170Y-14140632D01*
X46633349Y-14160038D01*
X46640581Y-14180250D01*
X46645797Y-14201074D01*
X46648947Y-14222309D01*
X46650000Y-14243750D01*
X46650000Y-14756250D01*
X46648947Y-14777691D01*
X46645797Y-14798926D01*
X46640581Y-14819750D01*
X46633349Y-14839962D01*
X46624170Y-14859368D01*
X46613134Y-14877781D01*
X46600346Y-14895024D01*
X46585930Y-14910930D01*
X46570024Y-14925346D01*
X46552781Y-14938134D01*
X46534368Y-14949170D01*
X46514962Y-14958349D01*
X46494750Y-14965581D01*
X46473926Y-14970797D01*
X46452691Y-14973947D01*
X46431250Y-14975000D01*
X45993750Y-14975000D01*
X45972309Y-14973947D01*
X45951074Y-14970797D01*
X45930250Y-14965581D01*
X45910038Y-14958349D01*
X45890632Y-14949170D01*
X45872219Y-14938134D01*
X45854976Y-14925346D01*
X45839070Y-14910930D01*
X45824654Y-14895024D01*
X45811866Y-14877781D01*
X45800830Y-14859368D01*
X45791651Y-14839962D01*
X45784419Y-14819750D01*
X45779203Y-14798926D01*
X45776053Y-14777691D01*
X45775000Y-14756250D01*
X45775000Y-14243750D01*
X45776053Y-14222309D01*
X45779203Y-14201074D01*
X45784419Y-14180250D01*
X45791651Y-14160038D01*
X45800830Y-14140632D01*
X45811866Y-14122219D01*
X45824654Y-14104976D01*
X45839070Y-14089070D01*
X45854976Y-14074654D01*
X45872219Y-14061866D01*
X45890632Y-14050830D01*
X45910038Y-14041651D01*
X45930250Y-14034419D01*
X45951074Y-14029203D01*
X45972309Y-14026053D01*
X45993750Y-14025000D01*
X46431250Y-14025000D01*
X46452691Y-14026053D01*
X46452691Y-14026053D01*
G37*
D13*
X46212500Y-14500000D03*
D12*
G36*
X45027691Y-62526053D02*
G01*
X45048926Y-62529203D01*
X45069750Y-62534419D01*
X45089962Y-62541651D01*
X45109368Y-62550830D01*
X45127781Y-62561866D01*
X45145024Y-62574654D01*
X45160930Y-62589070D01*
X45175346Y-62604976D01*
X45188134Y-62622219D01*
X45199170Y-62640632D01*
X45208349Y-62660038D01*
X45215581Y-62680250D01*
X45220797Y-62701074D01*
X45223947Y-62722309D01*
X45225000Y-62743750D01*
X45225000Y-63256250D01*
X45223947Y-63277691D01*
X45220797Y-63298926D01*
X45215581Y-63319750D01*
X45208349Y-63339962D01*
X45199170Y-63359368D01*
X45188134Y-63377781D01*
X45175346Y-63395024D01*
X45160930Y-63410930D01*
X45145024Y-63425346D01*
X45127781Y-63438134D01*
X45109368Y-63449170D01*
X45089962Y-63458349D01*
X45069750Y-63465581D01*
X45048926Y-63470797D01*
X45027691Y-63473947D01*
X45006250Y-63475000D01*
X44568750Y-63475000D01*
X44547309Y-63473947D01*
X44526074Y-63470797D01*
X44505250Y-63465581D01*
X44485038Y-63458349D01*
X44465632Y-63449170D01*
X44447219Y-63438134D01*
X44429976Y-63425346D01*
X44414070Y-63410930D01*
X44399654Y-63395024D01*
X44386866Y-63377781D01*
X44375830Y-63359368D01*
X44366651Y-63339962D01*
X44359419Y-63319750D01*
X44354203Y-63298926D01*
X44351053Y-63277691D01*
X44350000Y-63256250D01*
X44350000Y-62743750D01*
X44351053Y-62722309D01*
X44354203Y-62701074D01*
X44359419Y-62680250D01*
X44366651Y-62660038D01*
X44375830Y-62640632D01*
X44386866Y-62622219D01*
X44399654Y-62604976D01*
X44414070Y-62589070D01*
X44429976Y-62574654D01*
X44447219Y-62561866D01*
X44465632Y-62550830D01*
X44485038Y-62541651D01*
X44505250Y-62534419D01*
X44526074Y-62529203D01*
X44547309Y-62526053D01*
X44568750Y-62525000D01*
X45006250Y-62525000D01*
X45027691Y-62526053D01*
X45027691Y-62526053D01*
G37*
D13*
X44787500Y-63000000D03*
D12*
G36*
X43452691Y-62526053D02*
G01*
X43473926Y-62529203D01*
X43494750Y-62534419D01*
X43514962Y-62541651D01*
X43534368Y-62550830D01*
X43552781Y-62561866D01*
X43570024Y-62574654D01*
X43585930Y-62589070D01*
X43600346Y-62604976D01*
X43613134Y-62622219D01*
X43624170Y-62640632D01*
X43633349Y-62660038D01*
X43640581Y-62680250D01*
X43645797Y-62701074D01*
X43648947Y-62722309D01*
X43650000Y-62743750D01*
X43650000Y-63256250D01*
X43648947Y-63277691D01*
X43645797Y-63298926D01*
X43640581Y-63319750D01*
X43633349Y-63339962D01*
X43624170Y-63359368D01*
X43613134Y-63377781D01*
X43600346Y-63395024D01*
X43585930Y-63410930D01*
X43570024Y-63425346D01*
X43552781Y-63438134D01*
X43534368Y-63449170D01*
X43514962Y-63458349D01*
X43494750Y-63465581D01*
X43473926Y-63470797D01*
X43452691Y-63473947D01*
X43431250Y-63475000D01*
X42993750Y-63475000D01*
X42972309Y-63473947D01*
X42951074Y-63470797D01*
X42930250Y-63465581D01*
X42910038Y-63458349D01*
X42890632Y-63449170D01*
X42872219Y-63438134D01*
X42854976Y-63425346D01*
X42839070Y-63410930D01*
X42824654Y-63395024D01*
X42811866Y-63377781D01*
X42800830Y-63359368D01*
X42791651Y-63339962D01*
X42784419Y-63319750D01*
X42779203Y-63298926D01*
X42776053Y-63277691D01*
X42775000Y-63256250D01*
X42775000Y-62743750D01*
X42776053Y-62722309D01*
X42779203Y-62701074D01*
X42784419Y-62680250D01*
X42791651Y-62660038D01*
X42800830Y-62640632D01*
X42811866Y-62622219D01*
X42824654Y-62604976D01*
X42839070Y-62589070D01*
X42854976Y-62574654D01*
X42872219Y-62561866D01*
X42890632Y-62550830D01*
X42910038Y-62541651D01*
X42930250Y-62534419D01*
X42951074Y-62529203D01*
X42972309Y-62526053D01*
X42993750Y-62525000D01*
X43431250Y-62525000D01*
X43452691Y-62526053D01*
X43452691Y-62526053D01*
G37*
D13*
X43212500Y-63000000D03*
D12*
G36*
X21452691Y-62526053D02*
G01*
X21473926Y-62529203D01*
X21494750Y-62534419D01*
X21514962Y-62541651D01*
X21534368Y-62550830D01*
X21552781Y-62561866D01*
X21570024Y-62574654D01*
X21585930Y-62589070D01*
X21600346Y-62604976D01*
X21613134Y-62622219D01*
X21624170Y-62640632D01*
X21633349Y-62660038D01*
X21640581Y-62680250D01*
X21645797Y-62701074D01*
X21648947Y-62722309D01*
X21650000Y-62743750D01*
X21650000Y-63256250D01*
X21648947Y-63277691D01*
X21645797Y-63298926D01*
X21640581Y-63319750D01*
X21633349Y-63339962D01*
X21624170Y-63359368D01*
X21613134Y-63377781D01*
X21600346Y-63395024D01*
X21585930Y-63410930D01*
X21570024Y-63425346D01*
X21552781Y-63438134D01*
X21534368Y-63449170D01*
X21514962Y-63458349D01*
X21494750Y-63465581D01*
X21473926Y-63470797D01*
X21452691Y-63473947D01*
X21431250Y-63475000D01*
X20993750Y-63475000D01*
X20972309Y-63473947D01*
X20951074Y-63470797D01*
X20930250Y-63465581D01*
X20910038Y-63458349D01*
X20890632Y-63449170D01*
X20872219Y-63438134D01*
X20854976Y-63425346D01*
X20839070Y-63410930D01*
X20824654Y-63395024D01*
X20811866Y-63377781D01*
X20800830Y-63359368D01*
X20791651Y-63339962D01*
X20784419Y-63319750D01*
X20779203Y-63298926D01*
X20776053Y-63277691D01*
X20775000Y-63256250D01*
X20775000Y-62743750D01*
X20776053Y-62722309D01*
X20779203Y-62701074D01*
X20784419Y-62680250D01*
X20791651Y-62660038D01*
X20800830Y-62640632D01*
X20811866Y-62622219D01*
X20824654Y-62604976D01*
X20839070Y-62589070D01*
X20854976Y-62574654D01*
X20872219Y-62561866D01*
X20890632Y-62550830D01*
X20910038Y-62541651D01*
X20930250Y-62534419D01*
X20951074Y-62529203D01*
X20972309Y-62526053D01*
X20993750Y-62525000D01*
X21431250Y-62525000D01*
X21452691Y-62526053D01*
X21452691Y-62526053D01*
G37*
D13*
X21212500Y-63000000D03*
D12*
G36*
X23027691Y-62526053D02*
G01*
X23048926Y-62529203D01*
X23069750Y-62534419D01*
X23089962Y-62541651D01*
X23109368Y-62550830D01*
X23127781Y-62561866D01*
X23145024Y-62574654D01*
X23160930Y-62589070D01*
X23175346Y-62604976D01*
X23188134Y-62622219D01*
X23199170Y-62640632D01*
X23208349Y-62660038D01*
X23215581Y-62680250D01*
X23220797Y-62701074D01*
X23223947Y-62722309D01*
X23225000Y-62743750D01*
X23225000Y-63256250D01*
X23223947Y-63277691D01*
X23220797Y-63298926D01*
X23215581Y-63319750D01*
X23208349Y-63339962D01*
X23199170Y-63359368D01*
X23188134Y-63377781D01*
X23175346Y-63395024D01*
X23160930Y-63410930D01*
X23145024Y-63425346D01*
X23127781Y-63438134D01*
X23109368Y-63449170D01*
X23089962Y-63458349D01*
X23069750Y-63465581D01*
X23048926Y-63470797D01*
X23027691Y-63473947D01*
X23006250Y-63475000D01*
X22568750Y-63475000D01*
X22547309Y-63473947D01*
X22526074Y-63470797D01*
X22505250Y-63465581D01*
X22485038Y-63458349D01*
X22465632Y-63449170D01*
X22447219Y-63438134D01*
X22429976Y-63425346D01*
X22414070Y-63410930D01*
X22399654Y-63395024D01*
X22386866Y-63377781D01*
X22375830Y-63359368D01*
X22366651Y-63339962D01*
X22359419Y-63319750D01*
X22354203Y-63298926D01*
X22351053Y-63277691D01*
X22350000Y-63256250D01*
X22350000Y-62743750D01*
X22351053Y-62722309D01*
X22354203Y-62701074D01*
X22359419Y-62680250D01*
X22366651Y-62660038D01*
X22375830Y-62640632D01*
X22386866Y-62622219D01*
X22399654Y-62604976D01*
X22414070Y-62589070D01*
X22429976Y-62574654D01*
X22447219Y-62561866D01*
X22465632Y-62550830D01*
X22485038Y-62541651D01*
X22505250Y-62534419D01*
X22526074Y-62529203D01*
X22547309Y-62526053D01*
X22568750Y-62525000D01*
X23006250Y-62525000D01*
X23027691Y-62526053D01*
X23027691Y-62526053D01*
G37*
D13*
X22787500Y-63000000D03*
D12*
G36*
X9577691Y-17426053D02*
G01*
X9598926Y-17429203D01*
X9619750Y-17434419D01*
X9639962Y-17441651D01*
X9659368Y-17450830D01*
X9677781Y-17461866D01*
X9695024Y-17474654D01*
X9710930Y-17489070D01*
X9725346Y-17504976D01*
X9738134Y-17522219D01*
X9749170Y-17540632D01*
X9758349Y-17560038D01*
X9765581Y-17580250D01*
X9770797Y-17601074D01*
X9773947Y-17622309D01*
X9775000Y-17643750D01*
X9775000Y-18156250D01*
X9773947Y-18177691D01*
X9770797Y-18198926D01*
X9765581Y-18219750D01*
X9758349Y-18239962D01*
X9749170Y-18259368D01*
X9738134Y-18277781D01*
X9725346Y-18295024D01*
X9710930Y-18310930D01*
X9695024Y-18325346D01*
X9677781Y-18338134D01*
X9659368Y-18349170D01*
X9639962Y-18358349D01*
X9619750Y-18365581D01*
X9598926Y-18370797D01*
X9577691Y-18373947D01*
X9556250Y-18375000D01*
X9118750Y-18375000D01*
X9097309Y-18373947D01*
X9076074Y-18370797D01*
X9055250Y-18365581D01*
X9035038Y-18358349D01*
X9015632Y-18349170D01*
X8997219Y-18338134D01*
X8979976Y-18325346D01*
X8964070Y-18310930D01*
X8949654Y-18295024D01*
X8936866Y-18277781D01*
X8925830Y-18259368D01*
X8916651Y-18239962D01*
X8909419Y-18219750D01*
X8904203Y-18198926D01*
X8901053Y-18177691D01*
X8900000Y-18156250D01*
X8900000Y-17643750D01*
X8901053Y-17622309D01*
X8904203Y-17601074D01*
X8909419Y-17580250D01*
X8916651Y-17560038D01*
X8925830Y-17540632D01*
X8936866Y-17522219D01*
X8949654Y-17504976D01*
X8964070Y-17489070D01*
X8979976Y-17474654D01*
X8997219Y-17461866D01*
X9015632Y-17450830D01*
X9035038Y-17441651D01*
X9055250Y-17434419D01*
X9076074Y-17429203D01*
X9097309Y-17426053D01*
X9118750Y-17425000D01*
X9556250Y-17425000D01*
X9577691Y-17426053D01*
X9577691Y-17426053D01*
G37*
D13*
X9337500Y-17900000D03*
D12*
G36*
X8002691Y-17426053D02*
G01*
X8023926Y-17429203D01*
X8044750Y-17434419D01*
X8064962Y-17441651D01*
X8084368Y-17450830D01*
X8102781Y-17461866D01*
X8120024Y-17474654D01*
X8135930Y-17489070D01*
X8150346Y-17504976D01*
X8163134Y-17522219D01*
X8174170Y-17540632D01*
X8183349Y-17560038D01*
X8190581Y-17580250D01*
X8195797Y-17601074D01*
X8198947Y-17622309D01*
X8200000Y-17643750D01*
X8200000Y-18156250D01*
X8198947Y-18177691D01*
X8195797Y-18198926D01*
X8190581Y-18219750D01*
X8183349Y-18239962D01*
X8174170Y-18259368D01*
X8163134Y-18277781D01*
X8150346Y-18295024D01*
X8135930Y-18310930D01*
X8120024Y-18325346D01*
X8102781Y-18338134D01*
X8084368Y-18349170D01*
X8064962Y-18358349D01*
X8044750Y-18365581D01*
X8023926Y-18370797D01*
X8002691Y-18373947D01*
X7981250Y-18375000D01*
X7543750Y-18375000D01*
X7522309Y-18373947D01*
X7501074Y-18370797D01*
X7480250Y-18365581D01*
X7460038Y-18358349D01*
X7440632Y-18349170D01*
X7422219Y-18338134D01*
X7404976Y-18325346D01*
X7389070Y-18310930D01*
X7374654Y-18295024D01*
X7361866Y-18277781D01*
X7350830Y-18259368D01*
X7341651Y-18239962D01*
X7334419Y-18219750D01*
X7329203Y-18198926D01*
X7326053Y-18177691D01*
X7325000Y-18156250D01*
X7325000Y-17643750D01*
X7326053Y-17622309D01*
X7329203Y-17601074D01*
X7334419Y-17580250D01*
X7341651Y-17560038D01*
X7350830Y-17540632D01*
X7361866Y-17522219D01*
X7374654Y-17504976D01*
X7389070Y-17489070D01*
X7404976Y-17474654D01*
X7422219Y-17461866D01*
X7440632Y-17450830D01*
X7460038Y-17441651D01*
X7480250Y-17434419D01*
X7501074Y-17429203D01*
X7522309Y-17426053D01*
X7543750Y-17425000D01*
X7981250Y-17425000D01*
X8002691Y-17426053D01*
X8002691Y-17426053D01*
G37*
D13*
X7762500Y-17900000D03*
D14*
X12480000Y-13600000D03*
D15*
X14200000Y-13600000D03*
X14200000Y-11400000D03*
X12300000Y-11400000D03*
D12*
G36*
X10480142Y-9038674D02*
G01*
X10503803Y-9042184D01*
X10527007Y-9047996D01*
X10549529Y-9056054D01*
X10571153Y-9066282D01*
X10591670Y-9078579D01*
X10610883Y-9092829D01*
X10628607Y-9108893D01*
X10644671Y-9126617D01*
X10658921Y-9145830D01*
X10671218Y-9166347D01*
X10681446Y-9187971D01*
X10689504Y-9210493D01*
X10695316Y-9233697D01*
X10698826Y-9257358D01*
X10700000Y-9281250D01*
X10700000Y-9768750D01*
X10698826Y-9792642D01*
X10695316Y-9816303D01*
X10689504Y-9839507D01*
X10681446Y-9862029D01*
X10671218Y-9883653D01*
X10658921Y-9904170D01*
X10644671Y-9923383D01*
X10628607Y-9941107D01*
X10610883Y-9957171D01*
X10591670Y-9971421D01*
X10571153Y-9983718D01*
X10549529Y-9993946D01*
X10527007Y-10002004D01*
X10503803Y-10007816D01*
X10480142Y-10011326D01*
X10456250Y-10012500D01*
X9543750Y-10012500D01*
X9519858Y-10011326D01*
X9496197Y-10007816D01*
X9472993Y-10002004D01*
X9450471Y-9993946D01*
X9428847Y-9983718D01*
X9408330Y-9971421D01*
X9389117Y-9957171D01*
X9371393Y-9941107D01*
X9355329Y-9923383D01*
X9341079Y-9904170D01*
X9328782Y-9883653D01*
X9318554Y-9862029D01*
X9310496Y-9839507D01*
X9304684Y-9816303D01*
X9301174Y-9792642D01*
X9300000Y-9768750D01*
X9300000Y-9281250D01*
X9301174Y-9257358D01*
X9304684Y-9233697D01*
X9310496Y-9210493D01*
X9318554Y-9187971D01*
X9328782Y-9166347D01*
X9341079Y-9145830D01*
X9355329Y-9126617D01*
X9371393Y-9108893D01*
X9389117Y-9092829D01*
X9408330Y-9078579D01*
X9428847Y-9066282D01*
X9450471Y-9056054D01*
X9472993Y-9047996D01*
X9496197Y-9042184D01*
X9519858Y-9038674D01*
X9543750Y-9037500D01*
X10456250Y-9037500D01*
X10480142Y-9038674D01*
X10480142Y-9038674D01*
G37*
D16*
X10000000Y-9525000D03*
D12*
G36*
X10480142Y-10913674D02*
G01*
X10503803Y-10917184D01*
X10527007Y-10922996D01*
X10549529Y-10931054D01*
X10571153Y-10941282D01*
X10591670Y-10953579D01*
X10610883Y-10967829D01*
X10628607Y-10983893D01*
X10644671Y-11001617D01*
X10658921Y-11020830D01*
X10671218Y-11041347D01*
X10681446Y-11062971D01*
X10689504Y-11085493D01*
X10695316Y-11108697D01*
X10698826Y-11132358D01*
X10700000Y-11156250D01*
X10700000Y-11643750D01*
X10698826Y-11667642D01*
X10695316Y-11691303D01*
X10689504Y-11714507D01*
X10681446Y-11737029D01*
X10671218Y-11758653D01*
X10658921Y-11779170D01*
X10644671Y-11798383D01*
X10628607Y-11816107D01*
X10610883Y-11832171D01*
X10591670Y-11846421D01*
X10571153Y-11858718D01*
X10549529Y-11868946D01*
X10527007Y-11877004D01*
X10503803Y-11882816D01*
X10480142Y-11886326D01*
X10456250Y-11887500D01*
X9543750Y-11887500D01*
X9519858Y-11886326D01*
X9496197Y-11882816D01*
X9472993Y-11877004D01*
X9450471Y-11868946D01*
X9428847Y-11858718D01*
X9408330Y-11846421D01*
X9389117Y-11832171D01*
X9371393Y-11816107D01*
X9355329Y-11798383D01*
X9341079Y-11779170D01*
X9328782Y-11758653D01*
X9318554Y-11737029D01*
X9310496Y-11714507D01*
X9304684Y-11691303D01*
X9301174Y-11667642D01*
X9300000Y-11643750D01*
X9300000Y-11156250D01*
X9301174Y-11132358D01*
X9304684Y-11108697D01*
X9310496Y-11085493D01*
X9318554Y-11062971D01*
X9328782Y-11041347D01*
X9341079Y-11020830D01*
X9355329Y-11001617D01*
X9371393Y-10983893D01*
X9389117Y-10967829D01*
X9408330Y-10953579D01*
X9428847Y-10941282D01*
X9450471Y-10931054D01*
X9472993Y-10922996D01*
X9496197Y-10917184D01*
X9519858Y-10913674D01*
X9543750Y-10912500D01*
X10456250Y-10912500D01*
X10480142Y-10913674D01*
X10480142Y-10913674D01*
G37*
D16*
X10000000Y-11400000D03*
D12*
G36*
X20027691Y-86026053D02*
G01*
X20048926Y-86029203D01*
X20069750Y-86034419D01*
X20089962Y-86041651D01*
X20109368Y-86050830D01*
X20127781Y-86061866D01*
X20145024Y-86074654D01*
X20160930Y-86089070D01*
X20175346Y-86104976D01*
X20188134Y-86122219D01*
X20199170Y-86140632D01*
X20208349Y-86160038D01*
X20215581Y-86180250D01*
X20220797Y-86201074D01*
X20223947Y-86222309D01*
X20225000Y-86243750D01*
X20225000Y-86756250D01*
X20223947Y-86777691D01*
X20220797Y-86798926D01*
X20215581Y-86819750D01*
X20208349Y-86839962D01*
X20199170Y-86859368D01*
X20188134Y-86877781D01*
X20175346Y-86895024D01*
X20160930Y-86910930D01*
X20145024Y-86925346D01*
X20127781Y-86938134D01*
X20109368Y-86949170D01*
X20089962Y-86958349D01*
X20069750Y-86965581D01*
X20048926Y-86970797D01*
X20027691Y-86973947D01*
X20006250Y-86975000D01*
X19568750Y-86975000D01*
X19547309Y-86973947D01*
X19526074Y-86970797D01*
X19505250Y-86965581D01*
X19485038Y-86958349D01*
X19465632Y-86949170D01*
X19447219Y-86938134D01*
X19429976Y-86925346D01*
X19414070Y-86910930D01*
X19399654Y-86895024D01*
X19386866Y-86877781D01*
X19375830Y-86859368D01*
X19366651Y-86839962D01*
X19359419Y-86819750D01*
X19354203Y-86798926D01*
X19351053Y-86777691D01*
X19350000Y-86756250D01*
X19350000Y-86243750D01*
X19351053Y-86222309D01*
X19354203Y-86201074D01*
X19359419Y-86180250D01*
X19366651Y-86160038D01*
X19375830Y-86140632D01*
X19386866Y-86122219D01*
X19399654Y-86104976D01*
X19414070Y-86089070D01*
X19429976Y-86074654D01*
X19447219Y-86061866D01*
X19465632Y-86050830D01*
X19485038Y-86041651D01*
X19505250Y-86034419D01*
X19526074Y-86029203D01*
X19547309Y-86026053D01*
X19568750Y-86025000D01*
X20006250Y-86025000D01*
X20027691Y-86026053D01*
X20027691Y-86026053D01*
G37*
D13*
X19787500Y-86500000D03*
D12*
G36*
X18452691Y-86026053D02*
G01*
X18473926Y-86029203D01*
X18494750Y-86034419D01*
X18514962Y-86041651D01*
X18534368Y-86050830D01*
X18552781Y-86061866D01*
X18570024Y-86074654D01*
X18585930Y-86089070D01*
X18600346Y-86104976D01*
X18613134Y-86122219D01*
X18624170Y-86140632D01*
X18633349Y-86160038D01*
X18640581Y-86180250D01*
X18645797Y-86201074D01*
X18648947Y-86222309D01*
X18650000Y-86243750D01*
X18650000Y-86756250D01*
X18648947Y-86777691D01*
X18645797Y-86798926D01*
X18640581Y-86819750D01*
X18633349Y-86839962D01*
X18624170Y-86859368D01*
X18613134Y-86877781D01*
X18600346Y-86895024D01*
X18585930Y-86910930D01*
X18570024Y-86925346D01*
X18552781Y-86938134D01*
X18534368Y-86949170D01*
X18514962Y-86958349D01*
X18494750Y-86965581D01*
X18473926Y-86970797D01*
X18452691Y-86973947D01*
X18431250Y-86975000D01*
X17993750Y-86975000D01*
X17972309Y-86973947D01*
X17951074Y-86970797D01*
X17930250Y-86965581D01*
X17910038Y-86958349D01*
X17890632Y-86949170D01*
X17872219Y-86938134D01*
X17854976Y-86925346D01*
X17839070Y-86910930D01*
X17824654Y-86895024D01*
X17811866Y-86877781D01*
X17800830Y-86859368D01*
X17791651Y-86839962D01*
X17784419Y-86819750D01*
X17779203Y-86798926D01*
X17776053Y-86777691D01*
X17775000Y-86756250D01*
X17775000Y-86243750D01*
X17776053Y-86222309D01*
X17779203Y-86201074D01*
X17784419Y-86180250D01*
X17791651Y-86160038D01*
X17800830Y-86140632D01*
X17811866Y-86122219D01*
X17824654Y-86104976D01*
X17839070Y-86089070D01*
X17854976Y-86074654D01*
X17872219Y-86061866D01*
X17890632Y-86050830D01*
X17910038Y-86041651D01*
X17930250Y-86034419D01*
X17951074Y-86029203D01*
X17972309Y-86026053D01*
X17993750Y-86025000D01*
X18431250Y-86025000D01*
X18452691Y-86026053D01*
X18452691Y-86026053D01*
G37*
D13*
X18212500Y-86500000D03*
D12*
G36*
X18452691Y-91026053D02*
G01*
X18473926Y-91029203D01*
X18494750Y-91034419D01*
X18514962Y-91041651D01*
X18534368Y-91050830D01*
X18552781Y-91061866D01*
X18570024Y-91074654D01*
X18585930Y-91089070D01*
X18600346Y-91104976D01*
X18613134Y-91122219D01*
X18624170Y-91140632D01*
X18633349Y-91160038D01*
X18640581Y-91180250D01*
X18645797Y-91201074D01*
X18648947Y-91222309D01*
X18650000Y-91243750D01*
X18650000Y-91756250D01*
X18648947Y-91777691D01*
X18645797Y-91798926D01*
X18640581Y-91819750D01*
X18633349Y-91839962D01*
X18624170Y-91859368D01*
X18613134Y-91877781D01*
X18600346Y-91895024D01*
X18585930Y-91910930D01*
X18570024Y-91925346D01*
X18552781Y-91938134D01*
X18534368Y-91949170D01*
X18514962Y-91958349D01*
X18494750Y-91965581D01*
X18473926Y-91970797D01*
X18452691Y-91973947D01*
X18431250Y-91975000D01*
X17993750Y-91975000D01*
X17972309Y-91973947D01*
X17951074Y-91970797D01*
X17930250Y-91965581D01*
X17910038Y-91958349D01*
X17890632Y-91949170D01*
X17872219Y-91938134D01*
X17854976Y-91925346D01*
X17839070Y-91910930D01*
X17824654Y-91895024D01*
X17811866Y-91877781D01*
X17800830Y-91859368D01*
X17791651Y-91839962D01*
X17784419Y-91819750D01*
X17779203Y-91798926D01*
X17776053Y-91777691D01*
X17775000Y-91756250D01*
X17775000Y-91243750D01*
X17776053Y-91222309D01*
X17779203Y-91201074D01*
X17784419Y-91180250D01*
X17791651Y-91160038D01*
X17800830Y-91140632D01*
X17811866Y-91122219D01*
X17824654Y-91104976D01*
X17839070Y-91089070D01*
X17854976Y-91074654D01*
X17872219Y-91061866D01*
X17890632Y-91050830D01*
X17910038Y-91041651D01*
X17930250Y-91034419D01*
X17951074Y-91029203D01*
X17972309Y-91026053D01*
X17993750Y-91025000D01*
X18431250Y-91025000D01*
X18452691Y-91026053D01*
X18452691Y-91026053D01*
G37*
D13*
X18212500Y-91500000D03*
D12*
G36*
X20027691Y-91026053D02*
G01*
X20048926Y-91029203D01*
X20069750Y-91034419D01*
X20089962Y-91041651D01*
X20109368Y-91050830D01*
X20127781Y-91061866D01*
X20145024Y-91074654D01*
X20160930Y-91089070D01*
X20175346Y-91104976D01*
X20188134Y-91122219D01*
X20199170Y-91140632D01*
X20208349Y-91160038D01*
X20215581Y-91180250D01*
X20220797Y-91201074D01*
X20223947Y-91222309D01*
X20225000Y-91243750D01*
X20225000Y-91756250D01*
X20223947Y-91777691D01*
X20220797Y-91798926D01*
X20215581Y-91819750D01*
X20208349Y-91839962D01*
X20199170Y-91859368D01*
X20188134Y-91877781D01*
X20175346Y-91895024D01*
X20160930Y-91910930D01*
X20145024Y-91925346D01*
X20127781Y-91938134D01*
X20109368Y-91949170D01*
X20089962Y-91958349D01*
X20069750Y-91965581D01*
X20048926Y-91970797D01*
X20027691Y-91973947D01*
X20006250Y-91975000D01*
X19568750Y-91975000D01*
X19547309Y-91973947D01*
X19526074Y-91970797D01*
X19505250Y-91965581D01*
X19485038Y-91958349D01*
X19465632Y-91949170D01*
X19447219Y-91938134D01*
X19429976Y-91925346D01*
X19414070Y-91910930D01*
X19399654Y-91895024D01*
X19386866Y-91877781D01*
X19375830Y-91859368D01*
X19366651Y-91839962D01*
X19359419Y-91819750D01*
X19354203Y-91798926D01*
X19351053Y-91777691D01*
X19350000Y-91756250D01*
X19350000Y-91243750D01*
X19351053Y-91222309D01*
X19354203Y-91201074D01*
X19359419Y-91180250D01*
X19366651Y-91160038D01*
X19375830Y-91140632D01*
X19386866Y-91122219D01*
X19399654Y-91104976D01*
X19414070Y-91089070D01*
X19429976Y-91074654D01*
X19447219Y-91061866D01*
X19465632Y-91050830D01*
X19485038Y-91041651D01*
X19505250Y-91034419D01*
X19526074Y-91029203D01*
X19547309Y-91026053D01*
X19568750Y-91025000D01*
X20006250Y-91025000D01*
X20027691Y-91026053D01*
X20027691Y-91026053D01*
G37*
D13*
X19787500Y-91500000D03*
D12*
G36*
X24527691Y-20526053D02*
G01*
X24548926Y-20529203D01*
X24569750Y-20534419D01*
X24589962Y-20541651D01*
X24609368Y-20550830D01*
X24627781Y-20561866D01*
X24645024Y-20574654D01*
X24660930Y-20589070D01*
X24675346Y-20604976D01*
X24688134Y-20622219D01*
X24699170Y-20640632D01*
X24708349Y-20660038D01*
X24715581Y-20680250D01*
X24720797Y-20701074D01*
X24723947Y-20722309D01*
X24725000Y-20743750D01*
X24725000Y-21256250D01*
X24723947Y-21277691D01*
X24720797Y-21298926D01*
X24715581Y-21319750D01*
X24708349Y-21339962D01*
X24699170Y-21359368D01*
X24688134Y-21377781D01*
X24675346Y-21395024D01*
X24660930Y-21410930D01*
X24645024Y-21425346D01*
X24627781Y-21438134D01*
X24609368Y-21449170D01*
X24589962Y-21458349D01*
X24569750Y-21465581D01*
X24548926Y-21470797D01*
X24527691Y-21473947D01*
X24506250Y-21475000D01*
X24068750Y-21475000D01*
X24047309Y-21473947D01*
X24026074Y-21470797D01*
X24005250Y-21465581D01*
X23985038Y-21458349D01*
X23965632Y-21449170D01*
X23947219Y-21438134D01*
X23929976Y-21425346D01*
X23914070Y-21410930D01*
X23899654Y-21395024D01*
X23886866Y-21377781D01*
X23875830Y-21359368D01*
X23866651Y-21339962D01*
X23859419Y-21319750D01*
X23854203Y-21298926D01*
X23851053Y-21277691D01*
X23850000Y-21256250D01*
X23850000Y-20743750D01*
X23851053Y-20722309D01*
X23854203Y-20701074D01*
X23859419Y-20680250D01*
X23866651Y-20660038D01*
X23875830Y-20640632D01*
X23886866Y-20622219D01*
X23899654Y-20604976D01*
X23914070Y-20589070D01*
X23929976Y-20574654D01*
X23947219Y-20561866D01*
X23965632Y-20550830D01*
X23985038Y-20541651D01*
X24005250Y-20534419D01*
X24026074Y-20529203D01*
X24047309Y-20526053D01*
X24068750Y-20525000D01*
X24506250Y-20525000D01*
X24527691Y-20526053D01*
X24527691Y-20526053D01*
G37*
D13*
X24287500Y-21000000D03*
D12*
G36*
X22952691Y-20526053D02*
G01*
X22973926Y-20529203D01*
X22994750Y-20534419D01*
X23014962Y-20541651D01*
X23034368Y-20550830D01*
X23052781Y-20561866D01*
X23070024Y-20574654D01*
X23085930Y-20589070D01*
X23100346Y-20604976D01*
X23113134Y-20622219D01*
X23124170Y-20640632D01*
X23133349Y-20660038D01*
X23140581Y-20680250D01*
X23145797Y-20701074D01*
X23148947Y-20722309D01*
X23150000Y-20743750D01*
X23150000Y-21256250D01*
X23148947Y-21277691D01*
X23145797Y-21298926D01*
X23140581Y-21319750D01*
X23133349Y-21339962D01*
X23124170Y-21359368D01*
X23113134Y-21377781D01*
X23100346Y-21395024D01*
X23085930Y-21410930D01*
X23070024Y-21425346D01*
X23052781Y-21438134D01*
X23034368Y-21449170D01*
X23014962Y-21458349D01*
X22994750Y-21465581D01*
X22973926Y-21470797D01*
X22952691Y-21473947D01*
X22931250Y-21475000D01*
X22493750Y-21475000D01*
X22472309Y-21473947D01*
X22451074Y-21470797D01*
X22430250Y-21465581D01*
X22410038Y-21458349D01*
X22390632Y-21449170D01*
X22372219Y-21438134D01*
X22354976Y-21425346D01*
X22339070Y-21410930D01*
X22324654Y-21395024D01*
X22311866Y-21377781D01*
X22300830Y-21359368D01*
X22291651Y-21339962D01*
X22284419Y-21319750D01*
X22279203Y-21298926D01*
X22276053Y-21277691D01*
X22275000Y-21256250D01*
X22275000Y-20743750D01*
X22276053Y-20722309D01*
X22279203Y-20701074D01*
X22284419Y-20680250D01*
X22291651Y-20660038D01*
X22300830Y-20640632D01*
X22311866Y-20622219D01*
X22324654Y-20604976D01*
X22339070Y-20589070D01*
X22354976Y-20574654D01*
X22372219Y-20561866D01*
X22390632Y-20550830D01*
X22410038Y-20541651D01*
X22430250Y-20534419D01*
X22451074Y-20529203D01*
X22472309Y-20526053D01*
X22493750Y-20525000D01*
X22931250Y-20525000D01*
X22952691Y-20526053D01*
X22952691Y-20526053D01*
G37*
D13*
X22712500Y-21000000D03*
D12*
G36*
X46277691Y-11851053D02*
G01*
X46298926Y-11854203D01*
X46319750Y-11859419D01*
X46339962Y-11866651D01*
X46359368Y-11875830D01*
X46377781Y-11886866D01*
X46395024Y-11899654D01*
X46410930Y-11914070D01*
X46425346Y-11929976D01*
X46438134Y-11947219D01*
X46449170Y-11965632D01*
X46458349Y-11985038D01*
X46465581Y-12005250D01*
X46470797Y-12026074D01*
X46473947Y-12047309D01*
X46475000Y-12068750D01*
X46475000Y-12506250D01*
X46473947Y-12527691D01*
X46470797Y-12548926D01*
X46465581Y-12569750D01*
X46458349Y-12589962D01*
X46449170Y-12609368D01*
X46438134Y-12627781D01*
X46425346Y-12645024D01*
X46410930Y-12660930D01*
X46395024Y-12675346D01*
X46377781Y-12688134D01*
X46359368Y-12699170D01*
X46339962Y-12708349D01*
X46319750Y-12715581D01*
X46298926Y-12720797D01*
X46277691Y-12723947D01*
X46256250Y-12725000D01*
X45743750Y-12725000D01*
X45722309Y-12723947D01*
X45701074Y-12720797D01*
X45680250Y-12715581D01*
X45660038Y-12708349D01*
X45640632Y-12699170D01*
X45622219Y-12688134D01*
X45604976Y-12675346D01*
X45589070Y-12660930D01*
X45574654Y-12645024D01*
X45561866Y-12627781D01*
X45550830Y-12609368D01*
X45541651Y-12589962D01*
X45534419Y-12569750D01*
X45529203Y-12548926D01*
X45526053Y-12527691D01*
X45525000Y-12506250D01*
X45525000Y-12068750D01*
X45526053Y-12047309D01*
X45529203Y-12026074D01*
X45534419Y-12005250D01*
X45541651Y-11985038D01*
X45550830Y-11965632D01*
X45561866Y-11947219D01*
X45574654Y-11929976D01*
X45589070Y-11914070D01*
X45604976Y-11899654D01*
X45622219Y-11886866D01*
X45640632Y-11875830D01*
X45660038Y-11866651D01*
X45680250Y-11859419D01*
X45701074Y-11854203D01*
X45722309Y-11851053D01*
X45743750Y-11850000D01*
X46256250Y-11850000D01*
X46277691Y-11851053D01*
X46277691Y-11851053D01*
G37*
D13*
X46000000Y-12287500D03*
D12*
G36*
X46277691Y-10276053D02*
G01*
X46298926Y-10279203D01*
X46319750Y-10284419D01*
X46339962Y-10291651D01*
X46359368Y-10300830D01*
X46377781Y-10311866D01*
X46395024Y-10324654D01*
X46410930Y-10339070D01*
X46425346Y-10354976D01*
X46438134Y-10372219D01*
X46449170Y-10390632D01*
X46458349Y-10410038D01*
X46465581Y-10430250D01*
X46470797Y-10451074D01*
X46473947Y-10472309D01*
X46475000Y-10493750D01*
X46475000Y-10931250D01*
X46473947Y-10952691D01*
X46470797Y-10973926D01*
X46465581Y-10994750D01*
X46458349Y-11014962D01*
X46449170Y-11034368D01*
X46438134Y-11052781D01*
X46425346Y-11070024D01*
X46410930Y-11085930D01*
X46395024Y-11100346D01*
X46377781Y-11113134D01*
X46359368Y-11124170D01*
X46339962Y-11133349D01*
X46319750Y-11140581D01*
X46298926Y-11145797D01*
X46277691Y-11148947D01*
X46256250Y-11150000D01*
X45743750Y-11150000D01*
X45722309Y-11148947D01*
X45701074Y-11145797D01*
X45680250Y-11140581D01*
X45660038Y-11133349D01*
X45640632Y-11124170D01*
X45622219Y-11113134D01*
X45604976Y-11100346D01*
X45589070Y-11085930D01*
X45574654Y-11070024D01*
X45561866Y-11052781D01*
X45550830Y-11034368D01*
X45541651Y-11014962D01*
X45534419Y-10994750D01*
X45529203Y-10973926D01*
X45526053Y-10952691D01*
X45525000Y-10931250D01*
X45525000Y-10493750D01*
X45526053Y-10472309D01*
X45529203Y-10451074D01*
X45534419Y-10430250D01*
X45541651Y-10410038D01*
X45550830Y-10390632D01*
X45561866Y-10372219D01*
X45574654Y-10354976D01*
X45589070Y-10339070D01*
X45604976Y-10324654D01*
X45622219Y-10311866D01*
X45640632Y-10300830D01*
X45660038Y-10291651D01*
X45680250Y-10284419D01*
X45701074Y-10279203D01*
X45722309Y-10276053D01*
X45743750Y-10275000D01*
X46256250Y-10275000D01*
X46277691Y-10276053D01*
X46277691Y-10276053D01*
G37*
D13*
X46000000Y-10712500D03*
D12*
G36*
X39452691Y-64526053D02*
G01*
X39473926Y-64529203D01*
X39494750Y-64534419D01*
X39514962Y-64541651D01*
X39534368Y-64550830D01*
X39552781Y-64561866D01*
X39570024Y-64574654D01*
X39585930Y-64589070D01*
X39600346Y-64604976D01*
X39613134Y-64622219D01*
X39624170Y-64640632D01*
X39633349Y-64660038D01*
X39640581Y-64680250D01*
X39645797Y-64701074D01*
X39648947Y-64722309D01*
X39650000Y-64743750D01*
X39650000Y-65256250D01*
X39648947Y-65277691D01*
X39645797Y-65298926D01*
X39640581Y-65319750D01*
X39633349Y-65339962D01*
X39624170Y-65359368D01*
X39613134Y-65377781D01*
X39600346Y-65395024D01*
X39585930Y-65410930D01*
X39570024Y-65425346D01*
X39552781Y-65438134D01*
X39534368Y-65449170D01*
X39514962Y-65458349D01*
X39494750Y-65465581D01*
X39473926Y-65470797D01*
X39452691Y-65473947D01*
X39431250Y-65475000D01*
X38993750Y-65475000D01*
X38972309Y-65473947D01*
X38951074Y-65470797D01*
X38930250Y-65465581D01*
X38910038Y-65458349D01*
X38890632Y-65449170D01*
X38872219Y-65438134D01*
X38854976Y-65425346D01*
X38839070Y-65410930D01*
X38824654Y-65395024D01*
X38811866Y-65377781D01*
X38800830Y-65359368D01*
X38791651Y-65339962D01*
X38784419Y-65319750D01*
X38779203Y-65298926D01*
X38776053Y-65277691D01*
X38775000Y-65256250D01*
X38775000Y-64743750D01*
X38776053Y-64722309D01*
X38779203Y-64701074D01*
X38784419Y-64680250D01*
X38791651Y-64660038D01*
X38800830Y-64640632D01*
X38811866Y-64622219D01*
X38824654Y-64604976D01*
X38839070Y-64589070D01*
X38854976Y-64574654D01*
X38872219Y-64561866D01*
X38890632Y-64550830D01*
X38910038Y-64541651D01*
X38930250Y-64534419D01*
X38951074Y-64529203D01*
X38972309Y-64526053D01*
X38993750Y-64525000D01*
X39431250Y-64525000D01*
X39452691Y-64526053D01*
X39452691Y-64526053D01*
G37*
D13*
X39212500Y-65000000D03*
D12*
G36*
X41027691Y-64526053D02*
G01*
X41048926Y-64529203D01*
X41069750Y-64534419D01*
X41089962Y-64541651D01*
X41109368Y-64550830D01*
X41127781Y-64561866D01*
X41145024Y-64574654D01*
X41160930Y-64589070D01*
X41175346Y-64604976D01*
X41188134Y-64622219D01*
X41199170Y-64640632D01*
X41208349Y-64660038D01*
X41215581Y-64680250D01*
X41220797Y-64701074D01*
X41223947Y-64722309D01*
X41225000Y-64743750D01*
X41225000Y-65256250D01*
X41223947Y-65277691D01*
X41220797Y-65298926D01*
X41215581Y-65319750D01*
X41208349Y-65339962D01*
X41199170Y-65359368D01*
X41188134Y-65377781D01*
X41175346Y-65395024D01*
X41160930Y-65410930D01*
X41145024Y-65425346D01*
X41127781Y-65438134D01*
X41109368Y-65449170D01*
X41089962Y-65458349D01*
X41069750Y-65465581D01*
X41048926Y-65470797D01*
X41027691Y-65473947D01*
X41006250Y-65475000D01*
X40568750Y-65475000D01*
X40547309Y-65473947D01*
X40526074Y-65470797D01*
X40505250Y-65465581D01*
X40485038Y-65458349D01*
X40465632Y-65449170D01*
X40447219Y-65438134D01*
X40429976Y-65425346D01*
X40414070Y-65410930D01*
X40399654Y-65395024D01*
X40386866Y-65377781D01*
X40375830Y-65359368D01*
X40366651Y-65339962D01*
X40359419Y-65319750D01*
X40354203Y-65298926D01*
X40351053Y-65277691D01*
X40350000Y-65256250D01*
X40350000Y-64743750D01*
X40351053Y-64722309D01*
X40354203Y-64701074D01*
X40359419Y-64680250D01*
X40366651Y-64660038D01*
X40375830Y-64640632D01*
X40386866Y-64622219D01*
X40399654Y-64604976D01*
X40414070Y-64589070D01*
X40429976Y-64574654D01*
X40447219Y-64561866D01*
X40465632Y-64550830D01*
X40485038Y-64541651D01*
X40505250Y-64534419D01*
X40526074Y-64529203D01*
X40547309Y-64526053D01*
X40568750Y-64525000D01*
X41006250Y-64525000D01*
X41027691Y-64526053D01*
X41027691Y-64526053D01*
G37*
D13*
X40787500Y-65000000D03*
D12*
G36*
X25452691Y-64526053D02*
G01*
X25473926Y-64529203D01*
X25494750Y-64534419D01*
X25514962Y-64541651D01*
X25534368Y-64550830D01*
X25552781Y-64561866D01*
X25570024Y-64574654D01*
X25585930Y-64589070D01*
X25600346Y-64604976D01*
X25613134Y-64622219D01*
X25624170Y-64640632D01*
X25633349Y-64660038D01*
X25640581Y-64680250D01*
X25645797Y-64701074D01*
X25648947Y-64722309D01*
X25650000Y-64743750D01*
X25650000Y-65256250D01*
X25648947Y-65277691D01*
X25645797Y-65298926D01*
X25640581Y-65319750D01*
X25633349Y-65339962D01*
X25624170Y-65359368D01*
X25613134Y-65377781D01*
X25600346Y-65395024D01*
X25585930Y-65410930D01*
X25570024Y-65425346D01*
X25552781Y-65438134D01*
X25534368Y-65449170D01*
X25514962Y-65458349D01*
X25494750Y-65465581D01*
X25473926Y-65470797D01*
X25452691Y-65473947D01*
X25431250Y-65475000D01*
X24993750Y-65475000D01*
X24972309Y-65473947D01*
X24951074Y-65470797D01*
X24930250Y-65465581D01*
X24910038Y-65458349D01*
X24890632Y-65449170D01*
X24872219Y-65438134D01*
X24854976Y-65425346D01*
X24839070Y-65410930D01*
X24824654Y-65395024D01*
X24811866Y-65377781D01*
X24800830Y-65359368D01*
X24791651Y-65339962D01*
X24784419Y-65319750D01*
X24779203Y-65298926D01*
X24776053Y-65277691D01*
X24775000Y-65256250D01*
X24775000Y-64743750D01*
X24776053Y-64722309D01*
X24779203Y-64701074D01*
X24784419Y-64680250D01*
X24791651Y-64660038D01*
X24800830Y-64640632D01*
X24811866Y-64622219D01*
X24824654Y-64604976D01*
X24839070Y-64589070D01*
X24854976Y-64574654D01*
X24872219Y-64561866D01*
X24890632Y-64550830D01*
X24910038Y-64541651D01*
X24930250Y-64534419D01*
X24951074Y-64529203D01*
X24972309Y-64526053D01*
X24993750Y-64525000D01*
X25431250Y-64525000D01*
X25452691Y-64526053D01*
X25452691Y-64526053D01*
G37*
D13*
X25212500Y-65000000D03*
D12*
G36*
X27027691Y-64526053D02*
G01*
X27048926Y-64529203D01*
X27069750Y-64534419D01*
X27089962Y-64541651D01*
X27109368Y-64550830D01*
X27127781Y-64561866D01*
X27145024Y-64574654D01*
X27160930Y-64589070D01*
X27175346Y-64604976D01*
X27188134Y-64622219D01*
X27199170Y-64640632D01*
X27208349Y-64660038D01*
X27215581Y-64680250D01*
X27220797Y-64701074D01*
X27223947Y-64722309D01*
X27225000Y-64743750D01*
X27225000Y-65256250D01*
X27223947Y-65277691D01*
X27220797Y-65298926D01*
X27215581Y-65319750D01*
X27208349Y-65339962D01*
X27199170Y-65359368D01*
X27188134Y-65377781D01*
X27175346Y-65395024D01*
X27160930Y-65410930D01*
X27145024Y-65425346D01*
X27127781Y-65438134D01*
X27109368Y-65449170D01*
X27089962Y-65458349D01*
X27069750Y-65465581D01*
X27048926Y-65470797D01*
X27027691Y-65473947D01*
X27006250Y-65475000D01*
X26568750Y-65475000D01*
X26547309Y-65473947D01*
X26526074Y-65470797D01*
X26505250Y-65465581D01*
X26485038Y-65458349D01*
X26465632Y-65449170D01*
X26447219Y-65438134D01*
X26429976Y-65425346D01*
X26414070Y-65410930D01*
X26399654Y-65395024D01*
X26386866Y-65377781D01*
X26375830Y-65359368D01*
X26366651Y-65339962D01*
X26359419Y-65319750D01*
X26354203Y-65298926D01*
X26351053Y-65277691D01*
X26350000Y-65256250D01*
X26350000Y-64743750D01*
X26351053Y-64722309D01*
X26354203Y-64701074D01*
X26359419Y-64680250D01*
X26366651Y-64660038D01*
X26375830Y-64640632D01*
X26386866Y-64622219D01*
X26399654Y-64604976D01*
X26414070Y-64589070D01*
X26429976Y-64574654D01*
X26447219Y-64561866D01*
X26465632Y-64550830D01*
X26485038Y-64541651D01*
X26505250Y-64534419D01*
X26526074Y-64529203D01*
X26547309Y-64526053D01*
X26568750Y-64525000D01*
X27006250Y-64525000D01*
X27027691Y-64526053D01*
X27027691Y-64526053D01*
G37*
D13*
X26787500Y-65000000D03*
D12*
G36*
X17452691Y-11526053D02*
G01*
X17473926Y-11529203D01*
X17494750Y-11534419D01*
X17514962Y-11541651D01*
X17534368Y-11550830D01*
X17552781Y-11561866D01*
X17570024Y-11574654D01*
X17585930Y-11589070D01*
X17600346Y-11604976D01*
X17613134Y-11622219D01*
X17624170Y-11640632D01*
X17633349Y-11660038D01*
X17640581Y-11680250D01*
X17645797Y-11701074D01*
X17648947Y-11722309D01*
X17650000Y-11743750D01*
X17650000Y-12256250D01*
X17648947Y-12277691D01*
X17645797Y-12298926D01*
X17640581Y-12319750D01*
X17633349Y-12339962D01*
X17624170Y-12359368D01*
X17613134Y-12377781D01*
X17600346Y-12395024D01*
X17585930Y-12410930D01*
X17570024Y-12425346D01*
X17552781Y-12438134D01*
X17534368Y-12449170D01*
X17514962Y-12458349D01*
X17494750Y-12465581D01*
X17473926Y-12470797D01*
X17452691Y-12473947D01*
X17431250Y-12475000D01*
X16993750Y-12475000D01*
X16972309Y-12473947D01*
X16951074Y-12470797D01*
X16930250Y-12465581D01*
X16910038Y-12458349D01*
X16890632Y-12449170D01*
X16872219Y-12438134D01*
X16854976Y-12425346D01*
X16839070Y-12410930D01*
X16824654Y-12395024D01*
X16811866Y-12377781D01*
X16800830Y-12359368D01*
X16791651Y-12339962D01*
X16784419Y-12319750D01*
X16779203Y-12298926D01*
X16776053Y-12277691D01*
X16775000Y-12256250D01*
X16775000Y-11743750D01*
X16776053Y-11722309D01*
X16779203Y-11701074D01*
X16784419Y-11680250D01*
X16791651Y-11660038D01*
X16800830Y-11640632D01*
X16811866Y-11622219D01*
X16824654Y-11604976D01*
X16839070Y-11589070D01*
X16854976Y-11574654D01*
X16872219Y-11561866D01*
X16890632Y-11550830D01*
X16910038Y-11541651D01*
X16930250Y-11534419D01*
X16951074Y-11529203D01*
X16972309Y-11526053D01*
X16993750Y-11525000D01*
X17431250Y-11525000D01*
X17452691Y-11526053D01*
X17452691Y-11526053D01*
G37*
D13*
X17212500Y-12000000D03*
D12*
G36*
X19027691Y-11526053D02*
G01*
X19048926Y-11529203D01*
X19069750Y-11534419D01*
X19089962Y-11541651D01*
X19109368Y-11550830D01*
X19127781Y-11561866D01*
X19145024Y-11574654D01*
X19160930Y-11589070D01*
X19175346Y-11604976D01*
X19188134Y-11622219D01*
X19199170Y-11640632D01*
X19208349Y-11660038D01*
X19215581Y-11680250D01*
X19220797Y-11701074D01*
X19223947Y-11722309D01*
X19225000Y-11743750D01*
X19225000Y-12256250D01*
X19223947Y-12277691D01*
X19220797Y-12298926D01*
X19215581Y-12319750D01*
X19208349Y-12339962D01*
X19199170Y-12359368D01*
X19188134Y-12377781D01*
X19175346Y-12395024D01*
X19160930Y-12410930D01*
X19145024Y-12425346D01*
X19127781Y-12438134D01*
X19109368Y-12449170D01*
X19089962Y-12458349D01*
X19069750Y-12465581D01*
X19048926Y-12470797D01*
X19027691Y-12473947D01*
X19006250Y-12475000D01*
X18568750Y-12475000D01*
X18547309Y-12473947D01*
X18526074Y-12470797D01*
X18505250Y-12465581D01*
X18485038Y-12458349D01*
X18465632Y-12449170D01*
X18447219Y-12438134D01*
X18429976Y-12425346D01*
X18414070Y-12410930D01*
X18399654Y-12395024D01*
X18386866Y-12377781D01*
X18375830Y-12359368D01*
X18366651Y-12339962D01*
X18359419Y-12319750D01*
X18354203Y-12298926D01*
X18351053Y-12277691D01*
X18350000Y-12256250D01*
X18350000Y-11743750D01*
X18351053Y-11722309D01*
X18354203Y-11701074D01*
X18359419Y-11680250D01*
X18366651Y-11660038D01*
X18375830Y-11640632D01*
X18386866Y-11622219D01*
X18399654Y-11604976D01*
X18414070Y-11589070D01*
X18429976Y-11574654D01*
X18447219Y-11561866D01*
X18465632Y-11550830D01*
X18485038Y-11541651D01*
X18505250Y-11534419D01*
X18526074Y-11529203D01*
X18547309Y-11526053D01*
X18568750Y-11525000D01*
X19006250Y-11525000D01*
X19027691Y-11526053D01*
X19027691Y-11526053D01*
G37*
D13*
X18787500Y-12000000D03*
D12*
G36*
X7177691Y-8651053D02*
G01*
X7198926Y-8654203D01*
X7219750Y-8659419D01*
X7239962Y-8666651D01*
X7259368Y-8675830D01*
X7277781Y-8686866D01*
X7295024Y-8699654D01*
X7310930Y-8714070D01*
X7325346Y-8729976D01*
X7338134Y-8747219D01*
X7349170Y-8765632D01*
X7358349Y-8785038D01*
X7365581Y-8805250D01*
X7370797Y-8826074D01*
X7373947Y-8847309D01*
X7375000Y-8868750D01*
X7375000Y-9306250D01*
X7373947Y-9327691D01*
X7370797Y-9348926D01*
X7365581Y-9369750D01*
X7358349Y-9389962D01*
X7349170Y-9409368D01*
X7338134Y-9427781D01*
X7325346Y-9445024D01*
X7310930Y-9460930D01*
X7295024Y-9475346D01*
X7277781Y-9488134D01*
X7259368Y-9499170D01*
X7239962Y-9508349D01*
X7219750Y-9515581D01*
X7198926Y-9520797D01*
X7177691Y-9523947D01*
X7156250Y-9525000D01*
X6643750Y-9525000D01*
X6622309Y-9523947D01*
X6601074Y-9520797D01*
X6580250Y-9515581D01*
X6560038Y-9508349D01*
X6540632Y-9499170D01*
X6522219Y-9488134D01*
X6504976Y-9475346D01*
X6489070Y-9460930D01*
X6474654Y-9445024D01*
X6461866Y-9427781D01*
X6450830Y-9409368D01*
X6441651Y-9389962D01*
X6434419Y-9369750D01*
X6429203Y-9348926D01*
X6426053Y-9327691D01*
X6425000Y-9306250D01*
X6425000Y-8868750D01*
X6426053Y-8847309D01*
X6429203Y-8826074D01*
X6434419Y-8805250D01*
X6441651Y-8785038D01*
X6450830Y-8765632D01*
X6461866Y-8747219D01*
X6474654Y-8729976D01*
X6489070Y-8714070D01*
X6504976Y-8699654D01*
X6522219Y-8686866D01*
X6540632Y-8675830D01*
X6560038Y-8666651D01*
X6580250Y-8659419D01*
X6601074Y-8654203D01*
X6622309Y-8651053D01*
X6643750Y-8650000D01*
X7156250Y-8650000D01*
X7177691Y-8651053D01*
X7177691Y-8651053D01*
G37*
D13*
X6900000Y-9087500D03*
D12*
G36*
X7177691Y-7076053D02*
G01*
X7198926Y-7079203D01*
X7219750Y-7084419D01*
X7239962Y-7091651D01*
X7259368Y-7100830D01*
X7277781Y-7111866D01*
X7295024Y-7124654D01*
X7310930Y-7139070D01*
X7325346Y-7154976D01*
X7338134Y-7172219D01*
X7349170Y-7190632D01*
X7358349Y-7210038D01*
X7365581Y-7230250D01*
X7370797Y-7251074D01*
X7373947Y-7272309D01*
X7375000Y-7293750D01*
X7375000Y-7731250D01*
X7373947Y-7752691D01*
X7370797Y-7773926D01*
X7365581Y-7794750D01*
X7358349Y-7814962D01*
X7349170Y-7834368D01*
X7338134Y-7852781D01*
X7325346Y-7870024D01*
X7310930Y-7885930D01*
X7295024Y-7900346D01*
X7277781Y-7913134D01*
X7259368Y-7924170D01*
X7239962Y-7933349D01*
X7219750Y-7940581D01*
X7198926Y-7945797D01*
X7177691Y-7948947D01*
X7156250Y-7950000D01*
X6643750Y-7950000D01*
X6622309Y-7948947D01*
X6601074Y-7945797D01*
X6580250Y-7940581D01*
X6560038Y-7933349D01*
X6540632Y-7924170D01*
X6522219Y-7913134D01*
X6504976Y-7900346D01*
X6489070Y-7885930D01*
X6474654Y-7870024D01*
X6461866Y-7852781D01*
X6450830Y-7834368D01*
X6441651Y-7814962D01*
X6434419Y-7794750D01*
X6429203Y-7773926D01*
X6426053Y-7752691D01*
X6425000Y-7731250D01*
X6425000Y-7293750D01*
X6426053Y-7272309D01*
X6429203Y-7251074D01*
X6434419Y-7230250D01*
X6441651Y-7210038D01*
X6450830Y-7190632D01*
X6461866Y-7172219D01*
X6474654Y-7154976D01*
X6489070Y-7139070D01*
X6504976Y-7124654D01*
X6522219Y-7111866D01*
X6540632Y-7100830D01*
X6560038Y-7091651D01*
X6580250Y-7084419D01*
X6601074Y-7079203D01*
X6622309Y-7076053D01*
X6643750Y-7075000D01*
X7156250Y-7075000D01*
X7177691Y-7076053D01*
X7177691Y-7076053D01*
G37*
D13*
X6900000Y-7512500D03*
D12*
G36*
X9332351Y-43425361D02*
G01*
X9339632Y-43426441D01*
X9346771Y-43428229D01*
X9353701Y-43430709D01*
X9360355Y-43433856D01*
X9366668Y-43437640D01*
X9372579Y-43442024D01*
X9378033Y-43446967D01*
X9382976Y-43452421D01*
X9387360Y-43458332D01*
X9391144Y-43464645D01*
X9394291Y-43471299D01*
X9396771Y-43478229D01*
X9398559Y-43485368D01*
X9399639Y-43492649D01*
X9400000Y-43500000D01*
X9400000Y-44825000D01*
X9399639Y-44832351D01*
X9398559Y-44839632D01*
X9396771Y-44846771D01*
X9394291Y-44853701D01*
X9391144Y-44860355D01*
X9387360Y-44866668D01*
X9382976Y-44872579D01*
X9378033Y-44878033D01*
X9372579Y-44882976D01*
X9366668Y-44887360D01*
X9360355Y-44891144D01*
X9353701Y-44894291D01*
X9346771Y-44896771D01*
X9339632Y-44898559D01*
X9332351Y-44899639D01*
X9325000Y-44900000D01*
X9175000Y-44900000D01*
X9167649Y-44899639D01*
X9160368Y-44898559D01*
X9153229Y-44896771D01*
X9146299Y-44894291D01*
X9139645Y-44891144D01*
X9133332Y-44887360D01*
X9127421Y-44882976D01*
X9121967Y-44878033D01*
X9117024Y-44872579D01*
X9112640Y-44866668D01*
X9108856Y-44860355D01*
X9105709Y-44853701D01*
X9103229Y-44846771D01*
X9101441Y-44839632D01*
X9100361Y-44832351D01*
X9100000Y-44825000D01*
X9100000Y-43500000D01*
X9100361Y-43492649D01*
X9101441Y-43485368D01*
X9103229Y-43478229D01*
X9105709Y-43471299D01*
X9108856Y-43464645D01*
X9112640Y-43458332D01*
X9117024Y-43452421D01*
X9121967Y-43446967D01*
X9127421Y-43442024D01*
X9133332Y-43437640D01*
X9139645Y-43433856D01*
X9146299Y-43430709D01*
X9153229Y-43428229D01*
X9160368Y-43426441D01*
X9167649Y-43425361D01*
X9175000Y-43425000D01*
X9325000Y-43425000D01*
X9332351Y-43425361D01*
X9332351Y-43425361D01*
G37*
D17*
X9250000Y-44162500D03*
D12*
G36*
X9832351Y-43425361D02*
G01*
X9839632Y-43426441D01*
X9846771Y-43428229D01*
X9853701Y-43430709D01*
X9860355Y-43433856D01*
X9866668Y-43437640D01*
X9872579Y-43442024D01*
X9878033Y-43446967D01*
X9882976Y-43452421D01*
X9887360Y-43458332D01*
X9891144Y-43464645D01*
X9894291Y-43471299D01*
X9896771Y-43478229D01*
X9898559Y-43485368D01*
X9899639Y-43492649D01*
X9900000Y-43500000D01*
X9900000Y-44825000D01*
X9899639Y-44832351D01*
X9898559Y-44839632D01*
X9896771Y-44846771D01*
X9894291Y-44853701D01*
X9891144Y-44860355D01*
X9887360Y-44866668D01*
X9882976Y-44872579D01*
X9878033Y-44878033D01*
X9872579Y-44882976D01*
X9866668Y-44887360D01*
X9860355Y-44891144D01*
X9853701Y-44894291D01*
X9846771Y-44896771D01*
X9839632Y-44898559D01*
X9832351Y-44899639D01*
X9825000Y-44900000D01*
X9675000Y-44900000D01*
X9667649Y-44899639D01*
X9660368Y-44898559D01*
X9653229Y-44896771D01*
X9646299Y-44894291D01*
X9639645Y-44891144D01*
X9633332Y-44887360D01*
X9627421Y-44882976D01*
X9621967Y-44878033D01*
X9617024Y-44872579D01*
X9612640Y-44866668D01*
X9608856Y-44860355D01*
X9605709Y-44853701D01*
X9603229Y-44846771D01*
X9601441Y-44839632D01*
X9600361Y-44832351D01*
X9600000Y-44825000D01*
X9600000Y-43500000D01*
X9600361Y-43492649D01*
X9601441Y-43485368D01*
X9603229Y-43478229D01*
X9605709Y-43471299D01*
X9608856Y-43464645D01*
X9612640Y-43458332D01*
X9617024Y-43452421D01*
X9621967Y-43446967D01*
X9627421Y-43442024D01*
X9633332Y-43437640D01*
X9639645Y-43433856D01*
X9646299Y-43430709D01*
X9653229Y-43428229D01*
X9660368Y-43426441D01*
X9667649Y-43425361D01*
X9675000Y-43425000D01*
X9825000Y-43425000D01*
X9832351Y-43425361D01*
X9832351Y-43425361D01*
G37*
D17*
X9750000Y-44162500D03*
D12*
G36*
X10332351Y-43425361D02*
G01*
X10339632Y-43426441D01*
X10346771Y-43428229D01*
X10353701Y-43430709D01*
X10360355Y-43433856D01*
X10366668Y-43437640D01*
X10372579Y-43442024D01*
X10378033Y-43446967D01*
X10382976Y-43452421D01*
X10387360Y-43458332D01*
X10391144Y-43464645D01*
X10394291Y-43471299D01*
X10396771Y-43478229D01*
X10398559Y-43485368D01*
X10399639Y-43492649D01*
X10400000Y-43500000D01*
X10400000Y-44825000D01*
X10399639Y-44832351D01*
X10398559Y-44839632D01*
X10396771Y-44846771D01*
X10394291Y-44853701D01*
X10391144Y-44860355D01*
X10387360Y-44866668D01*
X10382976Y-44872579D01*
X10378033Y-44878033D01*
X10372579Y-44882976D01*
X10366668Y-44887360D01*
X10360355Y-44891144D01*
X10353701Y-44894291D01*
X10346771Y-44896771D01*
X10339632Y-44898559D01*
X10332351Y-44899639D01*
X10325000Y-44900000D01*
X10175000Y-44900000D01*
X10167649Y-44899639D01*
X10160368Y-44898559D01*
X10153229Y-44896771D01*
X10146299Y-44894291D01*
X10139645Y-44891144D01*
X10133332Y-44887360D01*
X10127421Y-44882976D01*
X10121967Y-44878033D01*
X10117024Y-44872579D01*
X10112640Y-44866668D01*
X10108856Y-44860355D01*
X10105709Y-44853701D01*
X10103229Y-44846771D01*
X10101441Y-44839632D01*
X10100361Y-44832351D01*
X10100000Y-44825000D01*
X10100000Y-43500000D01*
X10100361Y-43492649D01*
X10101441Y-43485368D01*
X10103229Y-43478229D01*
X10105709Y-43471299D01*
X10108856Y-43464645D01*
X10112640Y-43458332D01*
X10117024Y-43452421D01*
X10121967Y-43446967D01*
X10127421Y-43442024D01*
X10133332Y-43437640D01*
X10139645Y-43433856D01*
X10146299Y-43430709D01*
X10153229Y-43428229D01*
X10160368Y-43426441D01*
X10167649Y-43425361D01*
X10175000Y-43425000D01*
X10325000Y-43425000D01*
X10332351Y-43425361D01*
X10332351Y-43425361D01*
G37*
D17*
X10250000Y-44162500D03*
D12*
G36*
X10832351Y-43425361D02*
G01*
X10839632Y-43426441D01*
X10846771Y-43428229D01*
X10853701Y-43430709D01*
X10860355Y-43433856D01*
X10866668Y-43437640D01*
X10872579Y-43442024D01*
X10878033Y-43446967D01*
X10882976Y-43452421D01*
X10887360Y-43458332D01*
X10891144Y-43464645D01*
X10894291Y-43471299D01*
X10896771Y-43478229D01*
X10898559Y-43485368D01*
X10899639Y-43492649D01*
X10900000Y-43500000D01*
X10900000Y-44825000D01*
X10899639Y-44832351D01*
X10898559Y-44839632D01*
X10896771Y-44846771D01*
X10894291Y-44853701D01*
X10891144Y-44860355D01*
X10887360Y-44866668D01*
X10882976Y-44872579D01*
X10878033Y-44878033D01*
X10872579Y-44882976D01*
X10866668Y-44887360D01*
X10860355Y-44891144D01*
X10853701Y-44894291D01*
X10846771Y-44896771D01*
X10839632Y-44898559D01*
X10832351Y-44899639D01*
X10825000Y-44900000D01*
X10675000Y-44900000D01*
X10667649Y-44899639D01*
X10660368Y-44898559D01*
X10653229Y-44896771D01*
X10646299Y-44894291D01*
X10639645Y-44891144D01*
X10633332Y-44887360D01*
X10627421Y-44882976D01*
X10621967Y-44878033D01*
X10617024Y-44872579D01*
X10612640Y-44866668D01*
X10608856Y-44860355D01*
X10605709Y-44853701D01*
X10603229Y-44846771D01*
X10601441Y-44839632D01*
X10600361Y-44832351D01*
X10600000Y-44825000D01*
X10600000Y-43500000D01*
X10600361Y-43492649D01*
X10601441Y-43485368D01*
X10603229Y-43478229D01*
X10605709Y-43471299D01*
X10608856Y-43464645D01*
X10612640Y-43458332D01*
X10617024Y-43452421D01*
X10621967Y-43446967D01*
X10627421Y-43442024D01*
X10633332Y-43437640D01*
X10639645Y-43433856D01*
X10646299Y-43430709D01*
X10653229Y-43428229D01*
X10660368Y-43426441D01*
X10667649Y-43425361D01*
X10675000Y-43425000D01*
X10825000Y-43425000D01*
X10832351Y-43425361D01*
X10832351Y-43425361D01*
G37*
D17*
X10750000Y-44162500D03*
D12*
G36*
X11332351Y-43425361D02*
G01*
X11339632Y-43426441D01*
X11346771Y-43428229D01*
X11353701Y-43430709D01*
X11360355Y-43433856D01*
X11366668Y-43437640D01*
X11372579Y-43442024D01*
X11378033Y-43446967D01*
X11382976Y-43452421D01*
X11387360Y-43458332D01*
X11391144Y-43464645D01*
X11394291Y-43471299D01*
X11396771Y-43478229D01*
X11398559Y-43485368D01*
X11399639Y-43492649D01*
X11400000Y-43500000D01*
X11400000Y-44825000D01*
X11399639Y-44832351D01*
X11398559Y-44839632D01*
X11396771Y-44846771D01*
X11394291Y-44853701D01*
X11391144Y-44860355D01*
X11387360Y-44866668D01*
X11382976Y-44872579D01*
X11378033Y-44878033D01*
X11372579Y-44882976D01*
X11366668Y-44887360D01*
X11360355Y-44891144D01*
X11353701Y-44894291D01*
X11346771Y-44896771D01*
X11339632Y-44898559D01*
X11332351Y-44899639D01*
X11325000Y-44900000D01*
X11175000Y-44900000D01*
X11167649Y-44899639D01*
X11160368Y-44898559D01*
X11153229Y-44896771D01*
X11146299Y-44894291D01*
X11139645Y-44891144D01*
X11133332Y-44887360D01*
X11127421Y-44882976D01*
X11121967Y-44878033D01*
X11117024Y-44872579D01*
X11112640Y-44866668D01*
X11108856Y-44860355D01*
X11105709Y-44853701D01*
X11103229Y-44846771D01*
X11101441Y-44839632D01*
X11100361Y-44832351D01*
X11100000Y-44825000D01*
X11100000Y-43500000D01*
X11100361Y-43492649D01*
X11101441Y-43485368D01*
X11103229Y-43478229D01*
X11105709Y-43471299D01*
X11108856Y-43464645D01*
X11112640Y-43458332D01*
X11117024Y-43452421D01*
X11121967Y-43446967D01*
X11127421Y-43442024D01*
X11133332Y-43437640D01*
X11139645Y-43433856D01*
X11146299Y-43430709D01*
X11153229Y-43428229D01*
X11160368Y-43426441D01*
X11167649Y-43425361D01*
X11175000Y-43425000D01*
X11325000Y-43425000D01*
X11332351Y-43425361D01*
X11332351Y-43425361D01*
G37*
D17*
X11250000Y-44162500D03*
D12*
G36*
X11832351Y-43425361D02*
G01*
X11839632Y-43426441D01*
X11846771Y-43428229D01*
X11853701Y-43430709D01*
X11860355Y-43433856D01*
X11866668Y-43437640D01*
X11872579Y-43442024D01*
X11878033Y-43446967D01*
X11882976Y-43452421D01*
X11887360Y-43458332D01*
X11891144Y-43464645D01*
X11894291Y-43471299D01*
X11896771Y-43478229D01*
X11898559Y-43485368D01*
X11899639Y-43492649D01*
X11900000Y-43500000D01*
X11900000Y-44825000D01*
X11899639Y-44832351D01*
X11898559Y-44839632D01*
X11896771Y-44846771D01*
X11894291Y-44853701D01*
X11891144Y-44860355D01*
X11887360Y-44866668D01*
X11882976Y-44872579D01*
X11878033Y-44878033D01*
X11872579Y-44882976D01*
X11866668Y-44887360D01*
X11860355Y-44891144D01*
X11853701Y-44894291D01*
X11846771Y-44896771D01*
X11839632Y-44898559D01*
X11832351Y-44899639D01*
X11825000Y-44900000D01*
X11675000Y-44900000D01*
X11667649Y-44899639D01*
X11660368Y-44898559D01*
X11653229Y-44896771D01*
X11646299Y-44894291D01*
X11639645Y-44891144D01*
X11633332Y-44887360D01*
X11627421Y-44882976D01*
X11621967Y-44878033D01*
X11617024Y-44872579D01*
X11612640Y-44866668D01*
X11608856Y-44860355D01*
X11605709Y-44853701D01*
X11603229Y-44846771D01*
X11601441Y-44839632D01*
X11600361Y-44832351D01*
X11600000Y-44825000D01*
X11600000Y-43500000D01*
X11600361Y-43492649D01*
X11601441Y-43485368D01*
X11603229Y-43478229D01*
X11605709Y-43471299D01*
X11608856Y-43464645D01*
X11612640Y-43458332D01*
X11617024Y-43452421D01*
X11621967Y-43446967D01*
X11627421Y-43442024D01*
X11633332Y-43437640D01*
X11639645Y-43433856D01*
X11646299Y-43430709D01*
X11653229Y-43428229D01*
X11660368Y-43426441D01*
X11667649Y-43425361D01*
X11675000Y-43425000D01*
X11825000Y-43425000D01*
X11832351Y-43425361D01*
X11832351Y-43425361D01*
G37*
D17*
X11750000Y-44162500D03*
D12*
G36*
X12332351Y-43425361D02*
G01*
X12339632Y-43426441D01*
X12346771Y-43428229D01*
X12353701Y-43430709D01*
X12360355Y-43433856D01*
X12366668Y-43437640D01*
X12372579Y-43442024D01*
X12378033Y-43446967D01*
X12382976Y-43452421D01*
X12387360Y-43458332D01*
X12391144Y-43464645D01*
X12394291Y-43471299D01*
X12396771Y-43478229D01*
X12398559Y-43485368D01*
X12399639Y-43492649D01*
X12400000Y-43500000D01*
X12400000Y-44825000D01*
X12399639Y-44832351D01*
X12398559Y-44839632D01*
X12396771Y-44846771D01*
X12394291Y-44853701D01*
X12391144Y-44860355D01*
X12387360Y-44866668D01*
X12382976Y-44872579D01*
X12378033Y-44878033D01*
X12372579Y-44882976D01*
X12366668Y-44887360D01*
X12360355Y-44891144D01*
X12353701Y-44894291D01*
X12346771Y-44896771D01*
X12339632Y-44898559D01*
X12332351Y-44899639D01*
X12325000Y-44900000D01*
X12175000Y-44900000D01*
X12167649Y-44899639D01*
X12160368Y-44898559D01*
X12153229Y-44896771D01*
X12146299Y-44894291D01*
X12139645Y-44891144D01*
X12133332Y-44887360D01*
X12127421Y-44882976D01*
X12121967Y-44878033D01*
X12117024Y-44872579D01*
X12112640Y-44866668D01*
X12108856Y-44860355D01*
X12105709Y-44853701D01*
X12103229Y-44846771D01*
X12101441Y-44839632D01*
X12100361Y-44832351D01*
X12100000Y-44825000D01*
X12100000Y-43500000D01*
X12100361Y-43492649D01*
X12101441Y-43485368D01*
X12103229Y-43478229D01*
X12105709Y-43471299D01*
X12108856Y-43464645D01*
X12112640Y-43458332D01*
X12117024Y-43452421D01*
X12121967Y-43446967D01*
X12127421Y-43442024D01*
X12133332Y-43437640D01*
X12139645Y-43433856D01*
X12146299Y-43430709D01*
X12153229Y-43428229D01*
X12160368Y-43426441D01*
X12167649Y-43425361D01*
X12175000Y-43425000D01*
X12325000Y-43425000D01*
X12332351Y-43425361D01*
X12332351Y-43425361D01*
G37*
D17*
X12250000Y-44162500D03*
D12*
G36*
X12832351Y-43425361D02*
G01*
X12839632Y-43426441D01*
X12846771Y-43428229D01*
X12853701Y-43430709D01*
X12860355Y-43433856D01*
X12866668Y-43437640D01*
X12872579Y-43442024D01*
X12878033Y-43446967D01*
X12882976Y-43452421D01*
X12887360Y-43458332D01*
X12891144Y-43464645D01*
X12894291Y-43471299D01*
X12896771Y-43478229D01*
X12898559Y-43485368D01*
X12899639Y-43492649D01*
X12900000Y-43500000D01*
X12900000Y-44825000D01*
X12899639Y-44832351D01*
X12898559Y-44839632D01*
X12896771Y-44846771D01*
X12894291Y-44853701D01*
X12891144Y-44860355D01*
X12887360Y-44866668D01*
X12882976Y-44872579D01*
X12878033Y-44878033D01*
X12872579Y-44882976D01*
X12866668Y-44887360D01*
X12860355Y-44891144D01*
X12853701Y-44894291D01*
X12846771Y-44896771D01*
X12839632Y-44898559D01*
X12832351Y-44899639D01*
X12825000Y-44900000D01*
X12675000Y-44900000D01*
X12667649Y-44899639D01*
X12660368Y-44898559D01*
X12653229Y-44896771D01*
X12646299Y-44894291D01*
X12639645Y-44891144D01*
X12633332Y-44887360D01*
X12627421Y-44882976D01*
X12621967Y-44878033D01*
X12617024Y-44872579D01*
X12612640Y-44866668D01*
X12608856Y-44860355D01*
X12605709Y-44853701D01*
X12603229Y-44846771D01*
X12601441Y-44839632D01*
X12600361Y-44832351D01*
X12600000Y-44825000D01*
X12600000Y-43500000D01*
X12600361Y-43492649D01*
X12601441Y-43485368D01*
X12603229Y-43478229D01*
X12605709Y-43471299D01*
X12608856Y-43464645D01*
X12612640Y-43458332D01*
X12617024Y-43452421D01*
X12621967Y-43446967D01*
X12627421Y-43442024D01*
X12633332Y-43437640D01*
X12639645Y-43433856D01*
X12646299Y-43430709D01*
X12653229Y-43428229D01*
X12660368Y-43426441D01*
X12667649Y-43425361D01*
X12675000Y-43425000D01*
X12825000Y-43425000D01*
X12832351Y-43425361D01*
X12832351Y-43425361D01*
G37*
D17*
X12750000Y-44162500D03*
D12*
G36*
X13332351Y-43425361D02*
G01*
X13339632Y-43426441D01*
X13346771Y-43428229D01*
X13353701Y-43430709D01*
X13360355Y-43433856D01*
X13366668Y-43437640D01*
X13372579Y-43442024D01*
X13378033Y-43446967D01*
X13382976Y-43452421D01*
X13387360Y-43458332D01*
X13391144Y-43464645D01*
X13394291Y-43471299D01*
X13396771Y-43478229D01*
X13398559Y-43485368D01*
X13399639Y-43492649D01*
X13400000Y-43500000D01*
X13400000Y-44825000D01*
X13399639Y-44832351D01*
X13398559Y-44839632D01*
X13396771Y-44846771D01*
X13394291Y-44853701D01*
X13391144Y-44860355D01*
X13387360Y-44866668D01*
X13382976Y-44872579D01*
X13378033Y-44878033D01*
X13372579Y-44882976D01*
X13366668Y-44887360D01*
X13360355Y-44891144D01*
X13353701Y-44894291D01*
X13346771Y-44896771D01*
X13339632Y-44898559D01*
X13332351Y-44899639D01*
X13325000Y-44900000D01*
X13175000Y-44900000D01*
X13167649Y-44899639D01*
X13160368Y-44898559D01*
X13153229Y-44896771D01*
X13146299Y-44894291D01*
X13139645Y-44891144D01*
X13133332Y-44887360D01*
X13127421Y-44882976D01*
X13121967Y-44878033D01*
X13117024Y-44872579D01*
X13112640Y-44866668D01*
X13108856Y-44860355D01*
X13105709Y-44853701D01*
X13103229Y-44846771D01*
X13101441Y-44839632D01*
X13100361Y-44832351D01*
X13100000Y-44825000D01*
X13100000Y-43500000D01*
X13100361Y-43492649D01*
X13101441Y-43485368D01*
X13103229Y-43478229D01*
X13105709Y-43471299D01*
X13108856Y-43464645D01*
X13112640Y-43458332D01*
X13117024Y-43452421D01*
X13121967Y-43446967D01*
X13127421Y-43442024D01*
X13133332Y-43437640D01*
X13139645Y-43433856D01*
X13146299Y-43430709D01*
X13153229Y-43428229D01*
X13160368Y-43426441D01*
X13167649Y-43425361D01*
X13175000Y-43425000D01*
X13325000Y-43425000D01*
X13332351Y-43425361D01*
X13332351Y-43425361D01*
G37*
D17*
X13250000Y-44162500D03*
D12*
G36*
X13832351Y-43425361D02*
G01*
X13839632Y-43426441D01*
X13846771Y-43428229D01*
X13853701Y-43430709D01*
X13860355Y-43433856D01*
X13866668Y-43437640D01*
X13872579Y-43442024D01*
X13878033Y-43446967D01*
X13882976Y-43452421D01*
X13887360Y-43458332D01*
X13891144Y-43464645D01*
X13894291Y-43471299D01*
X13896771Y-43478229D01*
X13898559Y-43485368D01*
X13899639Y-43492649D01*
X13900000Y-43500000D01*
X13900000Y-44825000D01*
X13899639Y-44832351D01*
X13898559Y-44839632D01*
X13896771Y-44846771D01*
X13894291Y-44853701D01*
X13891144Y-44860355D01*
X13887360Y-44866668D01*
X13882976Y-44872579D01*
X13878033Y-44878033D01*
X13872579Y-44882976D01*
X13866668Y-44887360D01*
X13860355Y-44891144D01*
X13853701Y-44894291D01*
X13846771Y-44896771D01*
X13839632Y-44898559D01*
X13832351Y-44899639D01*
X13825000Y-44900000D01*
X13675000Y-44900000D01*
X13667649Y-44899639D01*
X13660368Y-44898559D01*
X13653229Y-44896771D01*
X13646299Y-44894291D01*
X13639645Y-44891144D01*
X13633332Y-44887360D01*
X13627421Y-44882976D01*
X13621967Y-44878033D01*
X13617024Y-44872579D01*
X13612640Y-44866668D01*
X13608856Y-44860355D01*
X13605709Y-44853701D01*
X13603229Y-44846771D01*
X13601441Y-44839632D01*
X13600361Y-44832351D01*
X13600000Y-44825000D01*
X13600000Y-43500000D01*
X13600361Y-43492649D01*
X13601441Y-43485368D01*
X13603229Y-43478229D01*
X13605709Y-43471299D01*
X13608856Y-43464645D01*
X13612640Y-43458332D01*
X13617024Y-43452421D01*
X13621967Y-43446967D01*
X13627421Y-43442024D01*
X13633332Y-43437640D01*
X13639645Y-43433856D01*
X13646299Y-43430709D01*
X13653229Y-43428229D01*
X13660368Y-43426441D01*
X13667649Y-43425361D01*
X13675000Y-43425000D01*
X13825000Y-43425000D01*
X13832351Y-43425361D01*
X13832351Y-43425361D01*
G37*
D17*
X13750000Y-44162500D03*
D12*
G36*
X14332351Y-43425361D02*
G01*
X14339632Y-43426441D01*
X14346771Y-43428229D01*
X14353701Y-43430709D01*
X14360355Y-43433856D01*
X14366668Y-43437640D01*
X14372579Y-43442024D01*
X14378033Y-43446967D01*
X14382976Y-43452421D01*
X14387360Y-43458332D01*
X14391144Y-43464645D01*
X14394291Y-43471299D01*
X14396771Y-43478229D01*
X14398559Y-43485368D01*
X14399639Y-43492649D01*
X14400000Y-43500000D01*
X14400000Y-44825000D01*
X14399639Y-44832351D01*
X14398559Y-44839632D01*
X14396771Y-44846771D01*
X14394291Y-44853701D01*
X14391144Y-44860355D01*
X14387360Y-44866668D01*
X14382976Y-44872579D01*
X14378033Y-44878033D01*
X14372579Y-44882976D01*
X14366668Y-44887360D01*
X14360355Y-44891144D01*
X14353701Y-44894291D01*
X14346771Y-44896771D01*
X14339632Y-44898559D01*
X14332351Y-44899639D01*
X14325000Y-44900000D01*
X14175000Y-44900000D01*
X14167649Y-44899639D01*
X14160368Y-44898559D01*
X14153229Y-44896771D01*
X14146299Y-44894291D01*
X14139645Y-44891144D01*
X14133332Y-44887360D01*
X14127421Y-44882976D01*
X14121967Y-44878033D01*
X14117024Y-44872579D01*
X14112640Y-44866668D01*
X14108856Y-44860355D01*
X14105709Y-44853701D01*
X14103229Y-44846771D01*
X14101441Y-44839632D01*
X14100361Y-44832351D01*
X14100000Y-44825000D01*
X14100000Y-43500000D01*
X14100361Y-43492649D01*
X14101441Y-43485368D01*
X14103229Y-43478229D01*
X14105709Y-43471299D01*
X14108856Y-43464645D01*
X14112640Y-43458332D01*
X14117024Y-43452421D01*
X14121967Y-43446967D01*
X14127421Y-43442024D01*
X14133332Y-43437640D01*
X14139645Y-43433856D01*
X14146299Y-43430709D01*
X14153229Y-43428229D01*
X14160368Y-43426441D01*
X14167649Y-43425361D01*
X14175000Y-43425000D01*
X14325000Y-43425000D01*
X14332351Y-43425361D01*
X14332351Y-43425361D01*
G37*
D17*
X14250000Y-44162500D03*
D12*
G36*
X14832351Y-43425361D02*
G01*
X14839632Y-43426441D01*
X14846771Y-43428229D01*
X14853701Y-43430709D01*
X14860355Y-43433856D01*
X14866668Y-43437640D01*
X14872579Y-43442024D01*
X14878033Y-43446967D01*
X14882976Y-43452421D01*
X14887360Y-43458332D01*
X14891144Y-43464645D01*
X14894291Y-43471299D01*
X14896771Y-43478229D01*
X14898559Y-43485368D01*
X14899639Y-43492649D01*
X14900000Y-43500000D01*
X14900000Y-44825000D01*
X14899639Y-44832351D01*
X14898559Y-44839632D01*
X14896771Y-44846771D01*
X14894291Y-44853701D01*
X14891144Y-44860355D01*
X14887360Y-44866668D01*
X14882976Y-44872579D01*
X14878033Y-44878033D01*
X14872579Y-44882976D01*
X14866668Y-44887360D01*
X14860355Y-44891144D01*
X14853701Y-44894291D01*
X14846771Y-44896771D01*
X14839632Y-44898559D01*
X14832351Y-44899639D01*
X14825000Y-44900000D01*
X14675000Y-44900000D01*
X14667649Y-44899639D01*
X14660368Y-44898559D01*
X14653229Y-44896771D01*
X14646299Y-44894291D01*
X14639645Y-44891144D01*
X14633332Y-44887360D01*
X14627421Y-44882976D01*
X14621967Y-44878033D01*
X14617024Y-44872579D01*
X14612640Y-44866668D01*
X14608856Y-44860355D01*
X14605709Y-44853701D01*
X14603229Y-44846771D01*
X14601441Y-44839632D01*
X14600361Y-44832351D01*
X14600000Y-44825000D01*
X14600000Y-43500000D01*
X14600361Y-43492649D01*
X14601441Y-43485368D01*
X14603229Y-43478229D01*
X14605709Y-43471299D01*
X14608856Y-43464645D01*
X14612640Y-43458332D01*
X14617024Y-43452421D01*
X14621967Y-43446967D01*
X14627421Y-43442024D01*
X14633332Y-43437640D01*
X14639645Y-43433856D01*
X14646299Y-43430709D01*
X14653229Y-43428229D01*
X14660368Y-43426441D01*
X14667649Y-43425361D01*
X14675000Y-43425000D01*
X14825000Y-43425000D01*
X14832351Y-43425361D01*
X14832351Y-43425361D01*
G37*
D17*
X14750000Y-44162500D03*
D12*
G36*
X16832351Y-42600361D02*
G01*
X16839632Y-42601441D01*
X16846771Y-42603229D01*
X16853701Y-42605709D01*
X16860355Y-42608856D01*
X16866668Y-42612640D01*
X16872579Y-42617024D01*
X16878033Y-42621967D01*
X16882976Y-42627421D01*
X16887360Y-42633332D01*
X16891144Y-42639645D01*
X16894291Y-42646299D01*
X16896771Y-42653229D01*
X16898559Y-42660368D01*
X16899639Y-42667649D01*
X16900000Y-42675000D01*
X16900000Y-42825000D01*
X16899639Y-42832351D01*
X16898559Y-42839632D01*
X16896771Y-42846771D01*
X16894291Y-42853701D01*
X16891144Y-42860355D01*
X16887360Y-42866668D01*
X16882976Y-42872579D01*
X16878033Y-42878033D01*
X16872579Y-42882976D01*
X16866668Y-42887360D01*
X16860355Y-42891144D01*
X16853701Y-42894291D01*
X16846771Y-42896771D01*
X16839632Y-42898559D01*
X16832351Y-42899639D01*
X16825000Y-42900000D01*
X15500000Y-42900000D01*
X15492649Y-42899639D01*
X15485368Y-42898559D01*
X15478229Y-42896771D01*
X15471299Y-42894291D01*
X15464645Y-42891144D01*
X15458332Y-42887360D01*
X15452421Y-42882976D01*
X15446967Y-42878033D01*
X15442024Y-42872579D01*
X15437640Y-42866668D01*
X15433856Y-42860355D01*
X15430709Y-42853701D01*
X15428229Y-42846771D01*
X15426441Y-42839632D01*
X15425361Y-42832351D01*
X15425000Y-42825000D01*
X15425000Y-42675000D01*
X15425361Y-42667649D01*
X15426441Y-42660368D01*
X15428229Y-42653229D01*
X15430709Y-42646299D01*
X15433856Y-42639645D01*
X15437640Y-42633332D01*
X15442024Y-42627421D01*
X15446967Y-42621967D01*
X15452421Y-42617024D01*
X15458332Y-42612640D01*
X15464645Y-42608856D01*
X15471299Y-42605709D01*
X15478229Y-42603229D01*
X15485368Y-42601441D01*
X15492649Y-42600361D01*
X15500000Y-42600000D01*
X16825000Y-42600000D01*
X16832351Y-42600361D01*
X16832351Y-42600361D01*
G37*
D17*
X16162500Y-42750000D03*
D12*
G36*
X16832351Y-42100361D02*
G01*
X16839632Y-42101441D01*
X16846771Y-42103229D01*
X16853701Y-42105709D01*
X16860355Y-42108856D01*
X16866668Y-42112640D01*
X16872579Y-42117024D01*
X16878033Y-42121967D01*
X16882976Y-42127421D01*
X16887360Y-42133332D01*
X16891144Y-42139645D01*
X16894291Y-42146299D01*
X16896771Y-42153229D01*
X16898559Y-42160368D01*
X16899639Y-42167649D01*
X16900000Y-42175000D01*
X16900000Y-42325000D01*
X16899639Y-42332351D01*
X16898559Y-42339632D01*
X16896771Y-42346771D01*
X16894291Y-42353701D01*
X16891144Y-42360355D01*
X16887360Y-42366668D01*
X16882976Y-42372579D01*
X16878033Y-42378033D01*
X16872579Y-42382976D01*
X16866668Y-42387360D01*
X16860355Y-42391144D01*
X16853701Y-42394291D01*
X16846771Y-42396771D01*
X16839632Y-42398559D01*
X16832351Y-42399639D01*
X16825000Y-42400000D01*
X15500000Y-42400000D01*
X15492649Y-42399639D01*
X15485368Y-42398559D01*
X15478229Y-42396771D01*
X15471299Y-42394291D01*
X15464645Y-42391144D01*
X15458332Y-42387360D01*
X15452421Y-42382976D01*
X15446967Y-42378033D01*
X15442024Y-42372579D01*
X15437640Y-42366668D01*
X15433856Y-42360355D01*
X15430709Y-42353701D01*
X15428229Y-42346771D01*
X15426441Y-42339632D01*
X15425361Y-42332351D01*
X15425000Y-42325000D01*
X15425000Y-42175000D01*
X15425361Y-42167649D01*
X15426441Y-42160368D01*
X15428229Y-42153229D01*
X15430709Y-42146299D01*
X15433856Y-42139645D01*
X15437640Y-42133332D01*
X15442024Y-42127421D01*
X15446967Y-42121967D01*
X15452421Y-42117024D01*
X15458332Y-42112640D01*
X15464645Y-42108856D01*
X15471299Y-42105709D01*
X15478229Y-42103229D01*
X15485368Y-42101441D01*
X15492649Y-42100361D01*
X15500000Y-42100000D01*
X16825000Y-42100000D01*
X16832351Y-42100361D01*
X16832351Y-42100361D01*
G37*
D17*
X16162500Y-42250000D03*
D12*
G36*
X16832351Y-41600361D02*
G01*
X16839632Y-41601441D01*
X16846771Y-41603229D01*
X16853701Y-41605709D01*
X16860355Y-41608856D01*
X16866668Y-41612640D01*
X16872579Y-41617024D01*
X16878033Y-41621967D01*
X16882976Y-41627421D01*
X16887360Y-41633332D01*
X16891144Y-41639645D01*
X16894291Y-41646299D01*
X16896771Y-41653229D01*
X16898559Y-41660368D01*
X16899639Y-41667649D01*
X16900000Y-41675000D01*
X16900000Y-41825000D01*
X16899639Y-41832351D01*
X16898559Y-41839632D01*
X16896771Y-41846771D01*
X16894291Y-41853701D01*
X16891144Y-41860355D01*
X16887360Y-41866668D01*
X16882976Y-41872579D01*
X16878033Y-41878033D01*
X16872579Y-41882976D01*
X16866668Y-41887360D01*
X16860355Y-41891144D01*
X16853701Y-41894291D01*
X16846771Y-41896771D01*
X16839632Y-41898559D01*
X16832351Y-41899639D01*
X16825000Y-41900000D01*
X15500000Y-41900000D01*
X15492649Y-41899639D01*
X15485368Y-41898559D01*
X15478229Y-41896771D01*
X15471299Y-41894291D01*
X15464645Y-41891144D01*
X15458332Y-41887360D01*
X15452421Y-41882976D01*
X15446967Y-41878033D01*
X15442024Y-41872579D01*
X15437640Y-41866668D01*
X15433856Y-41860355D01*
X15430709Y-41853701D01*
X15428229Y-41846771D01*
X15426441Y-41839632D01*
X15425361Y-41832351D01*
X15425000Y-41825000D01*
X15425000Y-41675000D01*
X15425361Y-41667649D01*
X15426441Y-41660368D01*
X15428229Y-41653229D01*
X15430709Y-41646299D01*
X15433856Y-41639645D01*
X15437640Y-41633332D01*
X15442024Y-41627421D01*
X15446967Y-41621967D01*
X15452421Y-41617024D01*
X15458332Y-41612640D01*
X15464645Y-41608856D01*
X15471299Y-41605709D01*
X15478229Y-41603229D01*
X15485368Y-41601441D01*
X15492649Y-41600361D01*
X15500000Y-41600000D01*
X16825000Y-41600000D01*
X16832351Y-41600361D01*
X16832351Y-41600361D01*
G37*
D17*
X16162500Y-41750000D03*
D12*
G36*
X16832351Y-41100361D02*
G01*
X16839632Y-41101441D01*
X16846771Y-41103229D01*
X16853701Y-41105709D01*
X16860355Y-41108856D01*
X16866668Y-41112640D01*
X16872579Y-41117024D01*
X16878033Y-41121967D01*
X16882976Y-41127421D01*
X16887360Y-41133332D01*
X16891144Y-41139645D01*
X16894291Y-41146299D01*
X16896771Y-41153229D01*
X16898559Y-41160368D01*
X16899639Y-41167649D01*
X16900000Y-41175000D01*
X16900000Y-41325000D01*
X16899639Y-41332351D01*
X16898559Y-41339632D01*
X16896771Y-41346771D01*
X16894291Y-41353701D01*
X16891144Y-41360355D01*
X16887360Y-41366668D01*
X16882976Y-41372579D01*
X16878033Y-41378033D01*
X16872579Y-41382976D01*
X16866668Y-41387360D01*
X16860355Y-41391144D01*
X16853701Y-41394291D01*
X16846771Y-41396771D01*
X16839632Y-41398559D01*
X16832351Y-41399639D01*
X16825000Y-41400000D01*
X15500000Y-41400000D01*
X15492649Y-41399639D01*
X15485368Y-41398559D01*
X15478229Y-41396771D01*
X15471299Y-41394291D01*
X15464645Y-41391144D01*
X15458332Y-41387360D01*
X15452421Y-41382976D01*
X15446967Y-41378033D01*
X15442024Y-41372579D01*
X15437640Y-41366668D01*
X15433856Y-41360355D01*
X15430709Y-41353701D01*
X15428229Y-41346771D01*
X15426441Y-41339632D01*
X15425361Y-41332351D01*
X15425000Y-41325000D01*
X15425000Y-41175000D01*
X15425361Y-41167649D01*
X15426441Y-41160368D01*
X15428229Y-41153229D01*
X15430709Y-41146299D01*
X15433856Y-41139645D01*
X15437640Y-41133332D01*
X15442024Y-41127421D01*
X15446967Y-41121967D01*
X15452421Y-41117024D01*
X15458332Y-41112640D01*
X15464645Y-41108856D01*
X15471299Y-41105709D01*
X15478229Y-41103229D01*
X15485368Y-41101441D01*
X15492649Y-41100361D01*
X15500000Y-41100000D01*
X16825000Y-41100000D01*
X16832351Y-41100361D01*
X16832351Y-41100361D01*
G37*
D17*
X16162500Y-41250000D03*
D12*
G36*
X16832351Y-40600361D02*
G01*
X16839632Y-40601441D01*
X16846771Y-40603229D01*
X16853701Y-40605709D01*
X16860355Y-40608856D01*
X16866668Y-40612640D01*
X16872579Y-40617024D01*
X16878033Y-40621967D01*
X16882976Y-40627421D01*
X16887360Y-40633332D01*
X16891144Y-40639645D01*
X16894291Y-40646299D01*
X16896771Y-40653229D01*
X16898559Y-40660368D01*
X16899639Y-40667649D01*
X16900000Y-40675000D01*
X16900000Y-40825000D01*
X16899639Y-40832351D01*
X16898559Y-40839632D01*
X16896771Y-40846771D01*
X16894291Y-40853701D01*
X16891144Y-40860355D01*
X16887360Y-40866668D01*
X16882976Y-40872579D01*
X16878033Y-40878033D01*
X16872579Y-40882976D01*
X16866668Y-40887360D01*
X16860355Y-40891144D01*
X16853701Y-40894291D01*
X16846771Y-40896771D01*
X16839632Y-40898559D01*
X16832351Y-40899639D01*
X16825000Y-40900000D01*
X15500000Y-40900000D01*
X15492649Y-40899639D01*
X15485368Y-40898559D01*
X15478229Y-40896771D01*
X15471299Y-40894291D01*
X15464645Y-40891144D01*
X15458332Y-40887360D01*
X15452421Y-40882976D01*
X15446967Y-40878033D01*
X15442024Y-40872579D01*
X15437640Y-40866668D01*
X15433856Y-40860355D01*
X15430709Y-40853701D01*
X15428229Y-40846771D01*
X15426441Y-40839632D01*
X15425361Y-40832351D01*
X15425000Y-40825000D01*
X15425000Y-40675000D01*
X15425361Y-40667649D01*
X15426441Y-40660368D01*
X15428229Y-40653229D01*
X15430709Y-40646299D01*
X15433856Y-40639645D01*
X15437640Y-40633332D01*
X15442024Y-40627421D01*
X15446967Y-40621967D01*
X15452421Y-40617024D01*
X15458332Y-40612640D01*
X15464645Y-40608856D01*
X15471299Y-40605709D01*
X15478229Y-40603229D01*
X15485368Y-40601441D01*
X15492649Y-40600361D01*
X15500000Y-40600000D01*
X16825000Y-40600000D01*
X16832351Y-40600361D01*
X16832351Y-40600361D01*
G37*
D17*
X16162500Y-40750000D03*
D12*
G36*
X16832351Y-40100361D02*
G01*
X16839632Y-40101441D01*
X16846771Y-40103229D01*
X16853701Y-40105709D01*
X16860355Y-40108856D01*
X16866668Y-40112640D01*
X16872579Y-40117024D01*
X16878033Y-40121967D01*
X16882976Y-40127421D01*
X16887360Y-40133332D01*
X16891144Y-40139645D01*
X16894291Y-40146299D01*
X16896771Y-40153229D01*
X16898559Y-40160368D01*
X16899639Y-40167649D01*
X16900000Y-40175000D01*
X16900000Y-40325000D01*
X16899639Y-40332351D01*
X16898559Y-40339632D01*
X16896771Y-40346771D01*
X16894291Y-40353701D01*
X16891144Y-40360355D01*
X16887360Y-40366668D01*
X16882976Y-40372579D01*
X16878033Y-40378033D01*
X16872579Y-40382976D01*
X16866668Y-40387360D01*
X16860355Y-40391144D01*
X16853701Y-40394291D01*
X16846771Y-40396771D01*
X16839632Y-40398559D01*
X16832351Y-40399639D01*
X16825000Y-40400000D01*
X15500000Y-40400000D01*
X15492649Y-40399639D01*
X15485368Y-40398559D01*
X15478229Y-40396771D01*
X15471299Y-40394291D01*
X15464645Y-40391144D01*
X15458332Y-40387360D01*
X15452421Y-40382976D01*
X15446967Y-40378033D01*
X15442024Y-40372579D01*
X15437640Y-40366668D01*
X15433856Y-40360355D01*
X15430709Y-40353701D01*
X15428229Y-40346771D01*
X15426441Y-40339632D01*
X15425361Y-40332351D01*
X15425000Y-40325000D01*
X15425000Y-40175000D01*
X15425361Y-40167649D01*
X15426441Y-40160368D01*
X15428229Y-40153229D01*
X15430709Y-40146299D01*
X15433856Y-40139645D01*
X15437640Y-40133332D01*
X15442024Y-40127421D01*
X15446967Y-40121967D01*
X15452421Y-40117024D01*
X15458332Y-40112640D01*
X15464645Y-40108856D01*
X15471299Y-40105709D01*
X15478229Y-40103229D01*
X15485368Y-40101441D01*
X15492649Y-40100361D01*
X15500000Y-40100000D01*
X16825000Y-40100000D01*
X16832351Y-40100361D01*
X16832351Y-40100361D01*
G37*
D17*
X16162500Y-40250000D03*
D12*
G36*
X16832351Y-39600361D02*
G01*
X16839632Y-39601441D01*
X16846771Y-39603229D01*
X16853701Y-39605709D01*
X16860355Y-39608856D01*
X16866668Y-39612640D01*
X16872579Y-39617024D01*
X16878033Y-39621967D01*
X16882976Y-39627421D01*
X16887360Y-39633332D01*
X16891144Y-39639645D01*
X16894291Y-39646299D01*
X16896771Y-39653229D01*
X16898559Y-39660368D01*
X16899639Y-39667649D01*
X16900000Y-39675000D01*
X16900000Y-39825000D01*
X16899639Y-39832351D01*
X16898559Y-39839632D01*
X16896771Y-39846771D01*
X16894291Y-39853701D01*
X16891144Y-39860355D01*
X16887360Y-39866668D01*
X16882976Y-39872579D01*
X16878033Y-39878033D01*
X16872579Y-39882976D01*
X16866668Y-39887360D01*
X16860355Y-39891144D01*
X16853701Y-39894291D01*
X16846771Y-39896771D01*
X16839632Y-39898559D01*
X16832351Y-39899639D01*
X16825000Y-39900000D01*
X15500000Y-39900000D01*
X15492649Y-39899639D01*
X15485368Y-39898559D01*
X15478229Y-39896771D01*
X15471299Y-39894291D01*
X15464645Y-39891144D01*
X15458332Y-39887360D01*
X15452421Y-39882976D01*
X15446967Y-39878033D01*
X15442024Y-39872579D01*
X15437640Y-39866668D01*
X15433856Y-39860355D01*
X15430709Y-39853701D01*
X15428229Y-39846771D01*
X15426441Y-39839632D01*
X15425361Y-39832351D01*
X15425000Y-39825000D01*
X15425000Y-39675000D01*
X15425361Y-39667649D01*
X15426441Y-39660368D01*
X15428229Y-39653229D01*
X15430709Y-39646299D01*
X15433856Y-39639645D01*
X15437640Y-39633332D01*
X15442024Y-39627421D01*
X15446967Y-39621967D01*
X15452421Y-39617024D01*
X15458332Y-39612640D01*
X15464645Y-39608856D01*
X15471299Y-39605709D01*
X15478229Y-39603229D01*
X15485368Y-39601441D01*
X15492649Y-39600361D01*
X15500000Y-39600000D01*
X16825000Y-39600000D01*
X16832351Y-39600361D01*
X16832351Y-39600361D01*
G37*
D17*
X16162500Y-39750000D03*
D12*
G36*
X16832351Y-39100361D02*
G01*
X16839632Y-39101441D01*
X16846771Y-39103229D01*
X16853701Y-39105709D01*
X16860355Y-39108856D01*
X16866668Y-39112640D01*
X16872579Y-39117024D01*
X16878033Y-39121967D01*
X16882976Y-39127421D01*
X16887360Y-39133332D01*
X16891144Y-39139645D01*
X16894291Y-39146299D01*
X16896771Y-39153229D01*
X16898559Y-39160368D01*
X16899639Y-39167649D01*
X16900000Y-39175000D01*
X16900000Y-39325000D01*
X16899639Y-39332351D01*
X16898559Y-39339632D01*
X16896771Y-39346771D01*
X16894291Y-39353701D01*
X16891144Y-39360355D01*
X16887360Y-39366668D01*
X16882976Y-39372579D01*
X16878033Y-39378033D01*
X16872579Y-39382976D01*
X16866668Y-39387360D01*
X16860355Y-39391144D01*
X16853701Y-39394291D01*
X16846771Y-39396771D01*
X16839632Y-39398559D01*
X16832351Y-39399639D01*
X16825000Y-39400000D01*
X15500000Y-39400000D01*
X15492649Y-39399639D01*
X15485368Y-39398559D01*
X15478229Y-39396771D01*
X15471299Y-39394291D01*
X15464645Y-39391144D01*
X15458332Y-39387360D01*
X15452421Y-39382976D01*
X15446967Y-39378033D01*
X15442024Y-39372579D01*
X15437640Y-39366668D01*
X15433856Y-39360355D01*
X15430709Y-39353701D01*
X15428229Y-39346771D01*
X15426441Y-39339632D01*
X15425361Y-39332351D01*
X15425000Y-39325000D01*
X15425000Y-39175000D01*
X15425361Y-39167649D01*
X15426441Y-39160368D01*
X15428229Y-39153229D01*
X15430709Y-39146299D01*
X15433856Y-39139645D01*
X15437640Y-39133332D01*
X15442024Y-39127421D01*
X15446967Y-39121967D01*
X15452421Y-39117024D01*
X15458332Y-39112640D01*
X15464645Y-39108856D01*
X15471299Y-39105709D01*
X15478229Y-39103229D01*
X15485368Y-39101441D01*
X15492649Y-39100361D01*
X15500000Y-39100000D01*
X16825000Y-39100000D01*
X16832351Y-39100361D01*
X16832351Y-39100361D01*
G37*
D17*
X16162500Y-39250000D03*
D12*
G36*
X16832351Y-38600361D02*
G01*
X16839632Y-38601441D01*
X16846771Y-38603229D01*
X16853701Y-38605709D01*
X16860355Y-38608856D01*
X16866668Y-38612640D01*
X16872579Y-38617024D01*
X16878033Y-38621967D01*
X16882976Y-38627421D01*
X16887360Y-38633332D01*
X16891144Y-38639645D01*
X16894291Y-38646299D01*
X16896771Y-38653229D01*
X16898559Y-38660368D01*
X16899639Y-38667649D01*
X16900000Y-38675000D01*
X16900000Y-38825000D01*
X16899639Y-38832351D01*
X16898559Y-38839632D01*
X16896771Y-38846771D01*
X16894291Y-38853701D01*
X16891144Y-38860355D01*
X16887360Y-38866668D01*
X16882976Y-38872579D01*
X16878033Y-38878033D01*
X16872579Y-38882976D01*
X16866668Y-38887360D01*
X16860355Y-38891144D01*
X16853701Y-38894291D01*
X16846771Y-38896771D01*
X16839632Y-38898559D01*
X16832351Y-38899639D01*
X16825000Y-38900000D01*
X15500000Y-38900000D01*
X15492649Y-38899639D01*
X15485368Y-38898559D01*
X15478229Y-38896771D01*
X15471299Y-38894291D01*
X15464645Y-38891144D01*
X15458332Y-38887360D01*
X15452421Y-38882976D01*
X15446967Y-38878033D01*
X15442024Y-38872579D01*
X15437640Y-38866668D01*
X15433856Y-38860355D01*
X15430709Y-38853701D01*
X15428229Y-38846771D01*
X15426441Y-38839632D01*
X15425361Y-38832351D01*
X15425000Y-38825000D01*
X15425000Y-38675000D01*
X15425361Y-38667649D01*
X15426441Y-38660368D01*
X15428229Y-38653229D01*
X15430709Y-38646299D01*
X15433856Y-38639645D01*
X15437640Y-38633332D01*
X15442024Y-38627421D01*
X15446967Y-38621967D01*
X15452421Y-38617024D01*
X15458332Y-38612640D01*
X15464645Y-38608856D01*
X15471299Y-38605709D01*
X15478229Y-38603229D01*
X15485368Y-38601441D01*
X15492649Y-38600361D01*
X15500000Y-38600000D01*
X16825000Y-38600000D01*
X16832351Y-38600361D01*
X16832351Y-38600361D01*
G37*
D17*
X16162500Y-38750000D03*
D12*
G36*
X16832351Y-38100361D02*
G01*
X16839632Y-38101441D01*
X16846771Y-38103229D01*
X16853701Y-38105709D01*
X16860355Y-38108856D01*
X16866668Y-38112640D01*
X16872579Y-38117024D01*
X16878033Y-38121967D01*
X16882976Y-38127421D01*
X16887360Y-38133332D01*
X16891144Y-38139645D01*
X16894291Y-38146299D01*
X16896771Y-38153229D01*
X16898559Y-38160368D01*
X16899639Y-38167649D01*
X16900000Y-38175000D01*
X16900000Y-38325000D01*
X16899639Y-38332351D01*
X16898559Y-38339632D01*
X16896771Y-38346771D01*
X16894291Y-38353701D01*
X16891144Y-38360355D01*
X16887360Y-38366668D01*
X16882976Y-38372579D01*
X16878033Y-38378033D01*
X16872579Y-38382976D01*
X16866668Y-38387360D01*
X16860355Y-38391144D01*
X16853701Y-38394291D01*
X16846771Y-38396771D01*
X16839632Y-38398559D01*
X16832351Y-38399639D01*
X16825000Y-38400000D01*
X15500000Y-38400000D01*
X15492649Y-38399639D01*
X15485368Y-38398559D01*
X15478229Y-38396771D01*
X15471299Y-38394291D01*
X15464645Y-38391144D01*
X15458332Y-38387360D01*
X15452421Y-38382976D01*
X15446967Y-38378033D01*
X15442024Y-38372579D01*
X15437640Y-38366668D01*
X15433856Y-38360355D01*
X15430709Y-38353701D01*
X15428229Y-38346771D01*
X15426441Y-38339632D01*
X15425361Y-38332351D01*
X15425000Y-38325000D01*
X15425000Y-38175000D01*
X15425361Y-38167649D01*
X15426441Y-38160368D01*
X15428229Y-38153229D01*
X15430709Y-38146299D01*
X15433856Y-38139645D01*
X15437640Y-38133332D01*
X15442024Y-38127421D01*
X15446967Y-38121967D01*
X15452421Y-38117024D01*
X15458332Y-38112640D01*
X15464645Y-38108856D01*
X15471299Y-38105709D01*
X15478229Y-38103229D01*
X15485368Y-38101441D01*
X15492649Y-38100361D01*
X15500000Y-38100000D01*
X16825000Y-38100000D01*
X16832351Y-38100361D01*
X16832351Y-38100361D01*
G37*
D17*
X16162500Y-38250000D03*
D12*
G36*
X16832351Y-37600361D02*
G01*
X16839632Y-37601441D01*
X16846771Y-37603229D01*
X16853701Y-37605709D01*
X16860355Y-37608856D01*
X16866668Y-37612640D01*
X16872579Y-37617024D01*
X16878033Y-37621967D01*
X16882976Y-37627421D01*
X16887360Y-37633332D01*
X16891144Y-37639645D01*
X16894291Y-37646299D01*
X16896771Y-37653229D01*
X16898559Y-37660368D01*
X16899639Y-37667649D01*
X16900000Y-37675000D01*
X16900000Y-37825000D01*
X16899639Y-37832351D01*
X16898559Y-37839632D01*
X16896771Y-37846771D01*
X16894291Y-37853701D01*
X16891144Y-37860355D01*
X16887360Y-37866668D01*
X16882976Y-37872579D01*
X16878033Y-37878033D01*
X16872579Y-37882976D01*
X16866668Y-37887360D01*
X16860355Y-37891144D01*
X16853701Y-37894291D01*
X16846771Y-37896771D01*
X16839632Y-37898559D01*
X16832351Y-37899639D01*
X16825000Y-37900000D01*
X15500000Y-37900000D01*
X15492649Y-37899639D01*
X15485368Y-37898559D01*
X15478229Y-37896771D01*
X15471299Y-37894291D01*
X15464645Y-37891144D01*
X15458332Y-37887360D01*
X15452421Y-37882976D01*
X15446967Y-37878033D01*
X15442024Y-37872579D01*
X15437640Y-37866668D01*
X15433856Y-37860355D01*
X15430709Y-37853701D01*
X15428229Y-37846771D01*
X15426441Y-37839632D01*
X15425361Y-37832351D01*
X15425000Y-37825000D01*
X15425000Y-37675000D01*
X15425361Y-37667649D01*
X15426441Y-37660368D01*
X15428229Y-37653229D01*
X15430709Y-37646299D01*
X15433856Y-37639645D01*
X15437640Y-37633332D01*
X15442024Y-37627421D01*
X15446967Y-37621967D01*
X15452421Y-37617024D01*
X15458332Y-37612640D01*
X15464645Y-37608856D01*
X15471299Y-37605709D01*
X15478229Y-37603229D01*
X15485368Y-37601441D01*
X15492649Y-37600361D01*
X15500000Y-37600000D01*
X16825000Y-37600000D01*
X16832351Y-37600361D01*
X16832351Y-37600361D01*
G37*
D17*
X16162500Y-37750000D03*
D12*
G36*
X16832351Y-37100361D02*
G01*
X16839632Y-37101441D01*
X16846771Y-37103229D01*
X16853701Y-37105709D01*
X16860355Y-37108856D01*
X16866668Y-37112640D01*
X16872579Y-37117024D01*
X16878033Y-37121967D01*
X16882976Y-37127421D01*
X16887360Y-37133332D01*
X16891144Y-37139645D01*
X16894291Y-37146299D01*
X16896771Y-37153229D01*
X16898559Y-37160368D01*
X16899639Y-37167649D01*
X16900000Y-37175000D01*
X16900000Y-37325000D01*
X16899639Y-37332351D01*
X16898559Y-37339632D01*
X16896771Y-37346771D01*
X16894291Y-37353701D01*
X16891144Y-37360355D01*
X16887360Y-37366668D01*
X16882976Y-37372579D01*
X16878033Y-37378033D01*
X16872579Y-37382976D01*
X16866668Y-37387360D01*
X16860355Y-37391144D01*
X16853701Y-37394291D01*
X16846771Y-37396771D01*
X16839632Y-37398559D01*
X16832351Y-37399639D01*
X16825000Y-37400000D01*
X15500000Y-37400000D01*
X15492649Y-37399639D01*
X15485368Y-37398559D01*
X15478229Y-37396771D01*
X15471299Y-37394291D01*
X15464645Y-37391144D01*
X15458332Y-37387360D01*
X15452421Y-37382976D01*
X15446967Y-37378033D01*
X15442024Y-37372579D01*
X15437640Y-37366668D01*
X15433856Y-37360355D01*
X15430709Y-37353701D01*
X15428229Y-37346771D01*
X15426441Y-37339632D01*
X15425361Y-37332351D01*
X15425000Y-37325000D01*
X15425000Y-37175000D01*
X15425361Y-37167649D01*
X15426441Y-37160368D01*
X15428229Y-37153229D01*
X15430709Y-37146299D01*
X15433856Y-37139645D01*
X15437640Y-37133332D01*
X15442024Y-37127421D01*
X15446967Y-37121967D01*
X15452421Y-37117024D01*
X15458332Y-37112640D01*
X15464645Y-37108856D01*
X15471299Y-37105709D01*
X15478229Y-37103229D01*
X15485368Y-37101441D01*
X15492649Y-37100361D01*
X15500000Y-37100000D01*
X16825000Y-37100000D01*
X16832351Y-37100361D01*
X16832351Y-37100361D01*
G37*
D17*
X16162500Y-37250000D03*
D12*
G36*
X14832351Y-35100361D02*
G01*
X14839632Y-35101441D01*
X14846771Y-35103229D01*
X14853701Y-35105709D01*
X14860355Y-35108856D01*
X14866668Y-35112640D01*
X14872579Y-35117024D01*
X14878033Y-35121967D01*
X14882976Y-35127421D01*
X14887360Y-35133332D01*
X14891144Y-35139645D01*
X14894291Y-35146299D01*
X14896771Y-35153229D01*
X14898559Y-35160368D01*
X14899639Y-35167649D01*
X14900000Y-35175000D01*
X14900000Y-36500000D01*
X14899639Y-36507351D01*
X14898559Y-36514632D01*
X14896771Y-36521771D01*
X14894291Y-36528701D01*
X14891144Y-36535355D01*
X14887360Y-36541668D01*
X14882976Y-36547579D01*
X14878033Y-36553033D01*
X14872579Y-36557976D01*
X14866668Y-36562360D01*
X14860355Y-36566144D01*
X14853701Y-36569291D01*
X14846771Y-36571771D01*
X14839632Y-36573559D01*
X14832351Y-36574639D01*
X14825000Y-36575000D01*
X14675000Y-36575000D01*
X14667649Y-36574639D01*
X14660368Y-36573559D01*
X14653229Y-36571771D01*
X14646299Y-36569291D01*
X14639645Y-36566144D01*
X14633332Y-36562360D01*
X14627421Y-36557976D01*
X14621967Y-36553033D01*
X14617024Y-36547579D01*
X14612640Y-36541668D01*
X14608856Y-36535355D01*
X14605709Y-36528701D01*
X14603229Y-36521771D01*
X14601441Y-36514632D01*
X14600361Y-36507351D01*
X14600000Y-36500000D01*
X14600000Y-35175000D01*
X14600361Y-35167649D01*
X14601441Y-35160368D01*
X14603229Y-35153229D01*
X14605709Y-35146299D01*
X14608856Y-35139645D01*
X14612640Y-35133332D01*
X14617024Y-35127421D01*
X14621967Y-35121967D01*
X14627421Y-35117024D01*
X14633332Y-35112640D01*
X14639645Y-35108856D01*
X14646299Y-35105709D01*
X14653229Y-35103229D01*
X14660368Y-35101441D01*
X14667649Y-35100361D01*
X14675000Y-35100000D01*
X14825000Y-35100000D01*
X14832351Y-35100361D01*
X14832351Y-35100361D01*
G37*
D17*
X14750000Y-35837500D03*
D12*
G36*
X14332351Y-35100361D02*
G01*
X14339632Y-35101441D01*
X14346771Y-35103229D01*
X14353701Y-35105709D01*
X14360355Y-35108856D01*
X14366668Y-35112640D01*
X14372579Y-35117024D01*
X14378033Y-35121967D01*
X14382976Y-35127421D01*
X14387360Y-35133332D01*
X14391144Y-35139645D01*
X14394291Y-35146299D01*
X14396771Y-35153229D01*
X14398559Y-35160368D01*
X14399639Y-35167649D01*
X14400000Y-35175000D01*
X14400000Y-36500000D01*
X14399639Y-36507351D01*
X14398559Y-36514632D01*
X14396771Y-36521771D01*
X14394291Y-36528701D01*
X14391144Y-36535355D01*
X14387360Y-36541668D01*
X14382976Y-36547579D01*
X14378033Y-36553033D01*
X14372579Y-36557976D01*
X14366668Y-36562360D01*
X14360355Y-36566144D01*
X14353701Y-36569291D01*
X14346771Y-36571771D01*
X14339632Y-36573559D01*
X14332351Y-36574639D01*
X14325000Y-36575000D01*
X14175000Y-36575000D01*
X14167649Y-36574639D01*
X14160368Y-36573559D01*
X14153229Y-36571771D01*
X14146299Y-36569291D01*
X14139645Y-36566144D01*
X14133332Y-36562360D01*
X14127421Y-36557976D01*
X14121967Y-36553033D01*
X14117024Y-36547579D01*
X14112640Y-36541668D01*
X14108856Y-36535355D01*
X14105709Y-36528701D01*
X14103229Y-36521771D01*
X14101441Y-36514632D01*
X14100361Y-36507351D01*
X14100000Y-36500000D01*
X14100000Y-35175000D01*
X14100361Y-35167649D01*
X14101441Y-35160368D01*
X14103229Y-35153229D01*
X14105709Y-35146299D01*
X14108856Y-35139645D01*
X14112640Y-35133332D01*
X14117024Y-35127421D01*
X14121967Y-35121967D01*
X14127421Y-35117024D01*
X14133332Y-35112640D01*
X14139645Y-35108856D01*
X14146299Y-35105709D01*
X14153229Y-35103229D01*
X14160368Y-35101441D01*
X14167649Y-35100361D01*
X14175000Y-35100000D01*
X14325000Y-35100000D01*
X14332351Y-35100361D01*
X14332351Y-35100361D01*
G37*
D17*
X14250000Y-35837500D03*
D12*
G36*
X13832351Y-35100361D02*
G01*
X13839632Y-35101441D01*
X13846771Y-35103229D01*
X13853701Y-35105709D01*
X13860355Y-35108856D01*
X13866668Y-35112640D01*
X13872579Y-35117024D01*
X13878033Y-35121967D01*
X13882976Y-35127421D01*
X13887360Y-35133332D01*
X13891144Y-35139645D01*
X13894291Y-35146299D01*
X13896771Y-35153229D01*
X13898559Y-35160368D01*
X13899639Y-35167649D01*
X13900000Y-35175000D01*
X13900000Y-36500000D01*
X13899639Y-36507351D01*
X13898559Y-36514632D01*
X13896771Y-36521771D01*
X13894291Y-36528701D01*
X13891144Y-36535355D01*
X13887360Y-36541668D01*
X13882976Y-36547579D01*
X13878033Y-36553033D01*
X13872579Y-36557976D01*
X13866668Y-36562360D01*
X13860355Y-36566144D01*
X13853701Y-36569291D01*
X13846771Y-36571771D01*
X13839632Y-36573559D01*
X13832351Y-36574639D01*
X13825000Y-36575000D01*
X13675000Y-36575000D01*
X13667649Y-36574639D01*
X13660368Y-36573559D01*
X13653229Y-36571771D01*
X13646299Y-36569291D01*
X13639645Y-36566144D01*
X13633332Y-36562360D01*
X13627421Y-36557976D01*
X13621967Y-36553033D01*
X13617024Y-36547579D01*
X13612640Y-36541668D01*
X13608856Y-36535355D01*
X13605709Y-36528701D01*
X13603229Y-36521771D01*
X13601441Y-36514632D01*
X13600361Y-36507351D01*
X13600000Y-36500000D01*
X13600000Y-35175000D01*
X13600361Y-35167649D01*
X13601441Y-35160368D01*
X13603229Y-35153229D01*
X13605709Y-35146299D01*
X13608856Y-35139645D01*
X13612640Y-35133332D01*
X13617024Y-35127421D01*
X13621967Y-35121967D01*
X13627421Y-35117024D01*
X13633332Y-35112640D01*
X13639645Y-35108856D01*
X13646299Y-35105709D01*
X13653229Y-35103229D01*
X13660368Y-35101441D01*
X13667649Y-35100361D01*
X13675000Y-35100000D01*
X13825000Y-35100000D01*
X13832351Y-35100361D01*
X13832351Y-35100361D01*
G37*
D17*
X13750000Y-35837500D03*
D12*
G36*
X13332351Y-35100361D02*
G01*
X13339632Y-35101441D01*
X13346771Y-35103229D01*
X13353701Y-35105709D01*
X13360355Y-35108856D01*
X13366668Y-35112640D01*
X13372579Y-35117024D01*
X13378033Y-35121967D01*
X13382976Y-35127421D01*
X13387360Y-35133332D01*
X13391144Y-35139645D01*
X13394291Y-35146299D01*
X13396771Y-35153229D01*
X13398559Y-35160368D01*
X13399639Y-35167649D01*
X13400000Y-35175000D01*
X13400000Y-36500000D01*
X13399639Y-36507351D01*
X13398559Y-36514632D01*
X13396771Y-36521771D01*
X13394291Y-36528701D01*
X13391144Y-36535355D01*
X13387360Y-36541668D01*
X13382976Y-36547579D01*
X13378033Y-36553033D01*
X13372579Y-36557976D01*
X13366668Y-36562360D01*
X13360355Y-36566144D01*
X13353701Y-36569291D01*
X13346771Y-36571771D01*
X13339632Y-36573559D01*
X13332351Y-36574639D01*
X13325000Y-36575000D01*
X13175000Y-36575000D01*
X13167649Y-36574639D01*
X13160368Y-36573559D01*
X13153229Y-36571771D01*
X13146299Y-36569291D01*
X13139645Y-36566144D01*
X13133332Y-36562360D01*
X13127421Y-36557976D01*
X13121967Y-36553033D01*
X13117024Y-36547579D01*
X13112640Y-36541668D01*
X13108856Y-36535355D01*
X13105709Y-36528701D01*
X13103229Y-36521771D01*
X13101441Y-36514632D01*
X13100361Y-36507351D01*
X13100000Y-36500000D01*
X13100000Y-35175000D01*
X13100361Y-35167649D01*
X13101441Y-35160368D01*
X13103229Y-35153229D01*
X13105709Y-35146299D01*
X13108856Y-35139645D01*
X13112640Y-35133332D01*
X13117024Y-35127421D01*
X13121967Y-35121967D01*
X13127421Y-35117024D01*
X13133332Y-35112640D01*
X13139645Y-35108856D01*
X13146299Y-35105709D01*
X13153229Y-35103229D01*
X13160368Y-35101441D01*
X13167649Y-35100361D01*
X13175000Y-35100000D01*
X13325000Y-35100000D01*
X13332351Y-35100361D01*
X13332351Y-35100361D01*
G37*
D17*
X13250000Y-35837500D03*
D12*
G36*
X12832351Y-35100361D02*
G01*
X12839632Y-35101441D01*
X12846771Y-35103229D01*
X12853701Y-35105709D01*
X12860355Y-35108856D01*
X12866668Y-35112640D01*
X12872579Y-35117024D01*
X12878033Y-35121967D01*
X12882976Y-35127421D01*
X12887360Y-35133332D01*
X12891144Y-35139645D01*
X12894291Y-35146299D01*
X12896771Y-35153229D01*
X12898559Y-35160368D01*
X12899639Y-35167649D01*
X12900000Y-35175000D01*
X12900000Y-36500000D01*
X12899639Y-36507351D01*
X12898559Y-36514632D01*
X12896771Y-36521771D01*
X12894291Y-36528701D01*
X12891144Y-36535355D01*
X12887360Y-36541668D01*
X12882976Y-36547579D01*
X12878033Y-36553033D01*
X12872579Y-36557976D01*
X12866668Y-36562360D01*
X12860355Y-36566144D01*
X12853701Y-36569291D01*
X12846771Y-36571771D01*
X12839632Y-36573559D01*
X12832351Y-36574639D01*
X12825000Y-36575000D01*
X12675000Y-36575000D01*
X12667649Y-36574639D01*
X12660368Y-36573559D01*
X12653229Y-36571771D01*
X12646299Y-36569291D01*
X12639645Y-36566144D01*
X12633332Y-36562360D01*
X12627421Y-36557976D01*
X12621967Y-36553033D01*
X12617024Y-36547579D01*
X12612640Y-36541668D01*
X12608856Y-36535355D01*
X12605709Y-36528701D01*
X12603229Y-36521771D01*
X12601441Y-36514632D01*
X12600361Y-36507351D01*
X12600000Y-36500000D01*
X12600000Y-35175000D01*
X12600361Y-35167649D01*
X12601441Y-35160368D01*
X12603229Y-35153229D01*
X12605709Y-35146299D01*
X12608856Y-35139645D01*
X12612640Y-35133332D01*
X12617024Y-35127421D01*
X12621967Y-35121967D01*
X12627421Y-35117024D01*
X12633332Y-35112640D01*
X12639645Y-35108856D01*
X12646299Y-35105709D01*
X12653229Y-35103229D01*
X12660368Y-35101441D01*
X12667649Y-35100361D01*
X12675000Y-35100000D01*
X12825000Y-35100000D01*
X12832351Y-35100361D01*
X12832351Y-35100361D01*
G37*
D17*
X12750000Y-35837500D03*
D12*
G36*
X12332351Y-35100361D02*
G01*
X12339632Y-35101441D01*
X12346771Y-35103229D01*
X12353701Y-35105709D01*
X12360355Y-35108856D01*
X12366668Y-35112640D01*
X12372579Y-35117024D01*
X12378033Y-35121967D01*
X12382976Y-35127421D01*
X12387360Y-35133332D01*
X12391144Y-35139645D01*
X12394291Y-35146299D01*
X12396771Y-35153229D01*
X12398559Y-35160368D01*
X12399639Y-35167649D01*
X12400000Y-35175000D01*
X12400000Y-36500000D01*
X12399639Y-36507351D01*
X12398559Y-36514632D01*
X12396771Y-36521771D01*
X12394291Y-36528701D01*
X12391144Y-36535355D01*
X12387360Y-36541668D01*
X12382976Y-36547579D01*
X12378033Y-36553033D01*
X12372579Y-36557976D01*
X12366668Y-36562360D01*
X12360355Y-36566144D01*
X12353701Y-36569291D01*
X12346771Y-36571771D01*
X12339632Y-36573559D01*
X12332351Y-36574639D01*
X12325000Y-36575000D01*
X12175000Y-36575000D01*
X12167649Y-36574639D01*
X12160368Y-36573559D01*
X12153229Y-36571771D01*
X12146299Y-36569291D01*
X12139645Y-36566144D01*
X12133332Y-36562360D01*
X12127421Y-36557976D01*
X12121967Y-36553033D01*
X12117024Y-36547579D01*
X12112640Y-36541668D01*
X12108856Y-36535355D01*
X12105709Y-36528701D01*
X12103229Y-36521771D01*
X12101441Y-36514632D01*
X12100361Y-36507351D01*
X12100000Y-36500000D01*
X12100000Y-35175000D01*
X12100361Y-35167649D01*
X12101441Y-35160368D01*
X12103229Y-35153229D01*
X12105709Y-35146299D01*
X12108856Y-35139645D01*
X12112640Y-35133332D01*
X12117024Y-35127421D01*
X12121967Y-35121967D01*
X12127421Y-35117024D01*
X12133332Y-35112640D01*
X12139645Y-35108856D01*
X12146299Y-35105709D01*
X12153229Y-35103229D01*
X12160368Y-35101441D01*
X12167649Y-35100361D01*
X12175000Y-35100000D01*
X12325000Y-35100000D01*
X12332351Y-35100361D01*
X12332351Y-35100361D01*
G37*
D17*
X12250000Y-35837500D03*
D12*
G36*
X11832351Y-35100361D02*
G01*
X11839632Y-35101441D01*
X11846771Y-35103229D01*
X11853701Y-35105709D01*
X11860355Y-35108856D01*
X11866668Y-35112640D01*
X11872579Y-35117024D01*
X11878033Y-35121967D01*
X11882976Y-35127421D01*
X11887360Y-35133332D01*
X11891144Y-35139645D01*
X11894291Y-35146299D01*
X11896771Y-35153229D01*
X11898559Y-35160368D01*
X11899639Y-35167649D01*
X11900000Y-35175000D01*
X11900000Y-36500000D01*
X11899639Y-36507351D01*
X11898559Y-36514632D01*
X11896771Y-36521771D01*
X11894291Y-36528701D01*
X11891144Y-36535355D01*
X11887360Y-36541668D01*
X11882976Y-36547579D01*
X11878033Y-36553033D01*
X11872579Y-36557976D01*
X11866668Y-36562360D01*
X11860355Y-36566144D01*
X11853701Y-36569291D01*
X11846771Y-36571771D01*
X11839632Y-36573559D01*
X11832351Y-36574639D01*
X11825000Y-36575000D01*
X11675000Y-36575000D01*
X11667649Y-36574639D01*
X11660368Y-36573559D01*
X11653229Y-36571771D01*
X11646299Y-36569291D01*
X11639645Y-36566144D01*
X11633332Y-36562360D01*
X11627421Y-36557976D01*
X11621967Y-36553033D01*
X11617024Y-36547579D01*
X11612640Y-36541668D01*
X11608856Y-36535355D01*
X11605709Y-36528701D01*
X11603229Y-36521771D01*
X11601441Y-36514632D01*
X11600361Y-36507351D01*
X11600000Y-36500000D01*
X11600000Y-35175000D01*
X11600361Y-35167649D01*
X11601441Y-35160368D01*
X11603229Y-35153229D01*
X11605709Y-35146299D01*
X11608856Y-35139645D01*
X11612640Y-35133332D01*
X11617024Y-35127421D01*
X11621967Y-35121967D01*
X11627421Y-35117024D01*
X11633332Y-35112640D01*
X11639645Y-35108856D01*
X11646299Y-35105709D01*
X11653229Y-35103229D01*
X11660368Y-35101441D01*
X11667649Y-35100361D01*
X11675000Y-35100000D01*
X11825000Y-35100000D01*
X11832351Y-35100361D01*
X11832351Y-35100361D01*
G37*
D17*
X11750000Y-35837500D03*
D12*
G36*
X11332351Y-35100361D02*
G01*
X11339632Y-35101441D01*
X11346771Y-35103229D01*
X11353701Y-35105709D01*
X11360355Y-35108856D01*
X11366668Y-35112640D01*
X11372579Y-35117024D01*
X11378033Y-35121967D01*
X11382976Y-35127421D01*
X11387360Y-35133332D01*
X11391144Y-35139645D01*
X11394291Y-35146299D01*
X11396771Y-35153229D01*
X11398559Y-35160368D01*
X11399639Y-35167649D01*
X11400000Y-35175000D01*
X11400000Y-36500000D01*
X11399639Y-36507351D01*
X11398559Y-36514632D01*
X11396771Y-36521771D01*
X11394291Y-36528701D01*
X11391144Y-36535355D01*
X11387360Y-36541668D01*
X11382976Y-36547579D01*
X11378033Y-36553033D01*
X11372579Y-36557976D01*
X11366668Y-36562360D01*
X11360355Y-36566144D01*
X11353701Y-36569291D01*
X11346771Y-36571771D01*
X11339632Y-36573559D01*
X11332351Y-36574639D01*
X11325000Y-36575000D01*
X11175000Y-36575000D01*
X11167649Y-36574639D01*
X11160368Y-36573559D01*
X11153229Y-36571771D01*
X11146299Y-36569291D01*
X11139645Y-36566144D01*
X11133332Y-36562360D01*
X11127421Y-36557976D01*
X11121967Y-36553033D01*
X11117024Y-36547579D01*
X11112640Y-36541668D01*
X11108856Y-36535355D01*
X11105709Y-36528701D01*
X11103229Y-36521771D01*
X11101441Y-36514632D01*
X11100361Y-36507351D01*
X11100000Y-36500000D01*
X11100000Y-35175000D01*
X11100361Y-35167649D01*
X11101441Y-35160368D01*
X11103229Y-35153229D01*
X11105709Y-35146299D01*
X11108856Y-35139645D01*
X11112640Y-35133332D01*
X11117024Y-35127421D01*
X11121967Y-35121967D01*
X11127421Y-35117024D01*
X11133332Y-35112640D01*
X11139645Y-35108856D01*
X11146299Y-35105709D01*
X11153229Y-35103229D01*
X11160368Y-35101441D01*
X11167649Y-35100361D01*
X11175000Y-35100000D01*
X11325000Y-35100000D01*
X11332351Y-35100361D01*
X11332351Y-35100361D01*
G37*
D17*
X11250000Y-35837500D03*
D12*
G36*
X10832351Y-35100361D02*
G01*
X10839632Y-35101441D01*
X10846771Y-35103229D01*
X10853701Y-35105709D01*
X10860355Y-35108856D01*
X10866668Y-35112640D01*
X10872579Y-35117024D01*
X10878033Y-35121967D01*
X10882976Y-35127421D01*
X10887360Y-35133332D01*
X10891144Y-35139645D01*
X10894291Y-35146299D01*
X10896771Y-35153229D01*
X10898559Y-35160368D01*
X10899639Y-35167649D01*
X10900000Y-35175000D01*
X10900000Y-36500000D01*
X10899639Y-36507351D01*
X10898559Y-36514632D01*
X10896771Y-36521771D01*
X10894291Y-36528701D01*
X10891144Y-36535355D01*
X10887360Y-36541668D01*
X10882976Y-36547579D01*
X10878033Y-36553033D01*
X10872579Y-36557976D01*
X10866668Y-36562360D01*
X10860355Y-36566144D01*
X10853701Y-36569291D01*
X10846771Y-36571771D01*
X10839632Y-36573559D01*
X10832351Y-36574639D01*
X10825000Y-36575000D01*
X10675000Y-36575000D01*
X10667649Y-36574639D01*
X10660368Y-36573559D01*
X10653229Y-36571771D01*
X10646299Y-36569291D01*
X10639645Y-36566144D01*
X10633332Y-36562360D01*
X10627421Y-36557976D01*
X10621967Y-36553033D01*
X10617024Y-36547579D01*
X10612640Y-36541668D01*
X10608856Y-36535355D01*
X10605709Y-36528701D01*
X10603229Y-36521771D01*
X10601441Y-36514632D01*
X10600361Y-36507351D01*
X10600000Y-36500000D01*
X10600000Y-35175000D01*
X10600361Y-35167649D01*
X10601441Y-35160368D01*
X10603229Y-35153229D01*
X10605709Y-35146299D01*
X10608856Y-35139645D01*
X10612640Y-35133332D01*
X10617024Y-35127421D01*
X10621967Y-35121967D01*
X10627421Y-35117024D01*
X10633332Y-35112640D01*
X10639645Y-35108856D01*
X10646299Y-35105709D01*
X10653229Y-35103229D01*
X10660368Y-35101441D01*
X10667649Y-35100361D01*
X10675000Y-35100000D01*
X10825000Y-35100000D01*
X10832351Y-35100361D01*
X10832351Y-35100361D01*
G37*
D17*
X10750000Y-35837500D03*
D12*
G36*
X10332351Y-35100361D02*
G01*
X10339632Y-35101441D01*
X10346771Y-35103229D01*
X10353701Y-35105709D01*
X10360355Y-35108856D01*
X10366668Y-35112640D01*
X10372579Y-35117024D01*
X10378033Y-35121967D01*
X10382976Y-35127421D01*
X10387360Y-35133332D01*
X10391144Y-35139645D01*
X10394291Y-35146299D01*
X10396771Y-35153229D01*
X10398559Y-35160368D01*
X10399639Y-35167649D01*
X10400000Y-35175000D01*
X10400000Y-36500000D01*
X10399639Y-36507351D01*
X10398559Y-36514632D01*
X10396771Y-36521771D01*
X10394291Y-36528701D01*
X10391144Y-36535355D01*
X10387360Y-36541668D01*
X10382976Y-36547579D01*
X10378033Y-36553033D01*
X10372579Y-36557976D01*
X10366668Y-36562360D01*
X10360355Y-36566144D01*
X10353701Y-36569291D01*
X10346771Y-36571771D01*
X10339632Y-36573559D01*
X10332351Y-36574639D01*
X10325000Y-36575000D01*
X10175000Y-36575000D01*
X10167649Y-36574639D01*
X10160368Y-36573559D01*
X10153229Y-36571771D01*
X10146299Y-36569291D01*
X10139645Y-36566144D01*
X10133332Y-36562360D01*
X10127421Y-36557976D01*
X10121967Y-36553033D01*
X10117024Y-36547579D01*
X10112640Y-36541668D01*
X10108856Y-36535355D01*
X10105709Y-36528701D01*
X10103229Y-36521771D01*
X10101441Y-36514632D01*
X10100361Y-36507351D01*
X10100000Y-36500000D01*
X10100000Y-35175000D01*
X10100361Y-35167649D01*
X10101441Y-35160368D01*
X10103229Y-35153229D01*
X10105709Y-35146299D01*
X10108856Y-35139645D01*
X10112640Y-35133332D01*
X10117024Y-35127421D01*
X10121967Y-35121967D01*
X10127421Y-35117024D01*
X10133332Y-35112640D01*
X10139645Y-35108856D01*
X10146299Y-35105709D01*
X10153229Y-35103229D01*
X10160368Y-35101441D01*
X10167649Y-35100361D01*
X10175000Y-35100000D01*
X10325000Y-35100000D01*
X10332351Y-35100361D01*
X10332351Y-35100361D01*
G37*
D17*
X10250000Y-35837500D03*
D12*
G36*
X9832351Y-35100361D02*
G01*
X9839632Y-35101441D01*
X9846771Y-35103229D01*
X9853701Y-35105709D01*
X9860355Y-35108856D01*
X9866668Y-35112640D01*
X9872579Y-35117024D01*
X9878033Y-35121967D01*
X9882976Y-35127421D01*
X9887360Y-35133332D01*
X9891144Y-35139645D01*
X9894291Y-35146299D01*
X9896771Y-35153229D01*
X9898559Y-35160368D01*
X9899639Y-35167649D01*
X9900000Y-35175000D01*
X9900000Y-36500000D01*
X9899639Y-36507351D01*
X9898559Y-36514632D01*
X9896771Y-36521771D01*
X9894291Y-36528701D01*
X9891144Y-36535355D01*
X9887360Y-36541668D01*
X9882976Y-36547579D01*
X9878033Y-36553033D01*
X9872579Y-36557976D01*
X9866668Y-36562360D01*
X9860355Y-36566144D01*
X9853701Y-36569291D01*
X9846771Y-36571771D01*
X9839632Y-36573559D01*
X9832351Y-36574639D01*
X9825000Y-36575000D01*
X9675000Y-36575000D01*
X9667649Y-36574639D01*
X9660368Y-36573559D01*
X9653229Y-36571771D01*
X9646299Y-36569291D01*
X9639645Y-36566144D01*
X9633332Y-36562360D01*
X9627421Y-36557976D01*
X9621967Y-36553033D01*
X9617024Y-36547579D01*
X9612640Y-36541668D01*
X9608856Y-36535355D01*
X9605709Y-36528701D01*
X9603229Y-36521771D01*
X9601441Y-36514632D01*
X9600361Y-36507351D01*
X9600000Y-36500000D01*
X9600000Y-35175000D01*
X9600361Y-35167649D01*
X9601441Y-35160368D01*
X9603229Y-35153229D01*
X9605709Y-35146299D01*
X9608856Y-35139645D01*
X9612640Y-35133332D01*
X9617024Y-35127421D01*
X9621967Y-35121967D01*
X9627421Y-35117024D01*
X9633332Y-35112640D01*
X9639645Y-35108856D01*
X9646299Y-35105709D01*
X9653229Y-35103229D01*
X9660368Y-35101441D01*
X9667649Y-35100361D01*
X9675000Y-35100000D01*
X9825000Y-35100000D01*
X9832351Y-35100361D01*
X9832351Y-35100361D01*
G37*
D17*
X9750000Y-35837500D03*
D12*
G36*
X9332351Y-35100361D02*
G01*
X9339632Y-35101441D01*
X9346771Y-35103229D01*
X9353701Y-35105709D01*
X9360355Y-35108856D01*
X9366668Y-35112640D01*
X9372579Y-35117024D01*
X9378033Y-35121967D01*
X9382976Y-35127421D01*
X9387360Y-35133332D01*
X9391144Y-35139645D01*
X9394291Y-35146299D01*
X9396771Y-35153229D01*
X9398559Y-35160368D01*
X9399639Y-35167649D01*
X9400000Y-35175000D01*
X9400000Y-36500000D01*
X9399639Y-36507351D01*
X9398559Y-36514632D01*
X9396771Y-36521771D01*
X9394291Y-36528701D01*
X9391144Y-36535355D01*
X9387360Y-36541668D01*
X9382976Y-36547579D01*
X9378033Y-36553033D01*
X9372579Y-36557976D01*
X9366668Y-36562360D01*
X9360355Y-36566144D01*
X9353701Y-36569291D01*
X9346771Y-36571771D01*
X9339632Y-36573559D01*
X9332351Y-36574639D01*
X9325000Y-36575000D01*
X9175000Y-36575000D01*
X9167649Y-36574639D01*
X9160368Y-36573559D01*
X9153229Y-36571771D01*
X9146299Y-36569291D01*
X9139645Y-36566144D01*
X9133332Y-36562360D01*
X9127421Y-36557976D01*
X9121967Y-36553033D01*
X9117024Y-36547579D01*
X9112640Y-36541668D01*
X9108856Y-36535355D01*
X9105709Y-36528701D01*
X9103229Y-36521771D01*
X9101441Y-36514632D01*
X9100361Y-36507351D01*
X9100000Y-36500000D01*
X9100000Y-35175000D01*
X9100361Y-35167649D01*
X9101441Y-35160368D01*
X9103229Y-35153229D01*
X9105709Y-35146299D01*
X9108856Y-35139645D01*
X9112640Y-35133332D01*
X9117024Y-35127421D01*
X9121967Y-35121967D01*
X9127421Y-35117024D01*
X9133332Y-35112640D01*
X9139645Y-35108856D01*
X9146299Y-35105709D01*
X9153229Y-35103229D01*
X9160368Y-35101441D01*
X9167649Y-35100361D01*
X9175000Y-35100000D01*
X9325000Y-35100000D01*
X9332351Y-35100361D01*
X9332351Y-35100361D01*
G37*
D17*
X9250000Y-35837500D03*
D12*
G36*
X8507351Y-37100361D02*
G01*
X8514632Y-37101441D01*
X8521771Y-37103229D01*
X8528701Y-37105709D01*
X8535355Y-37108856D01*
X8541668Y-37112640D01*
X8547579Y-37117024D01*
X8553033Y-37121967D01*
X8557976Y-37127421D01*
X8562360Y-37133332D01*
X8566144Y-37139645D01*
X8569291Y-37146299D01*
X8571771Y-37153229D01*
X8573559Y-37160368D01*
X8574639Y-37167649D01*
X8575000Y-37175000D01*
X8575000Y-37325000D01*
X8574639Y-37332351D01*
X8573559Y-37339632D01*
X8571771Y-37346771D01*
X8569291Y-37353701D01*
X8566144Y-37360355D01*
X8562360Y-37366668D01*
X8557976Y-37372579D01*
X8553033Y-37378033D01*
X8547579Y-37382976D01*
X8541668Y-37387360D01*
X8535355Y-37391144D01*
X8528701Y-37394291D01*
X8521771Y-37396771D01*
X8514632Y-37398559D01*
X8507351Y-37399639D01*
X8500000Y-37400000D01*
X7175000Y-37400000D01*
X7167649Y-37399639D01*
X7160368Y-37398559D01*
X7153229Y-37396771D01*
X7146299Y-37394291D01*
X7139645Y-37391144D01*
X7133332Y-37387360D01*
X7127421Y-37382976D01*
X7121967Y-37378033D01*
X7117024Y-37372579D01*
X7112640Y-37366668D01*
X7108856Y-37360355D01*
X7105709Y-37353701D01*
X7103229Y-37346771D01*
X7101441Y-37339632D01*
X7100361Y-37332351D01*
X7100000Y-37325000D01*
X7100000Y-37175000D01*
X7100361Y-37167649D01*
X7101441Y-37160368D01*
X7103229Y-37153229D01*
X7105709Y-37146299D01*
X7108856Y-37139645D01*
X7112640Y-37133332D01*
X7117024Y-37127421D01*
X7121967Y-37121967D01*
X7127421Y-37117024D01*
X7133332Y-37112640D01*
X7139645Y-37108856D01*
X7146299Y-37105709D01*
X7153229Y-37103229D01*
X7160368Y-37101441D01*
X7167649Y-37100361D01*
X7175000Y-37100000D01*
X8500000Y-37100000D01*
X8507351Y-37100361D01*
X8507351Y-37100361D01*
G37*
D17*
X7837500Y-37250000D03*
D12*
G36*
X8507351Y-37600361D02*
G01*
X8514632Y-37601441D01*
X8521771Y-37603229D01*
X8528701Y-37605709D01*
X8535355Y-37608856D01*
X8541668Y-37612640D01*
X8547579Y-37617024D01*
X8553033Y-37621967D01*
X8557976Y-37627421D01*
X8562360Y-37633332D01*
X8566144Y-37639645D01*
X8569291Y-37646299D01*
X8571771Y-37653229D01*
X8573559Y-37660368D01*
X8574639Y-37667649D01*
X8575000Y-37675000D01*
X8575000Y-37825000D01*
X8574639Y-37832351D01*
X8573559Y-37839632D01*
X8571771Y-37846771D01*
X8569291Y-37853701D01*
X8566144Y-37860355D01*
X8562360Y-37866668D01*
X8557976Y-37872579D01*
X8553033Y-37878033D01*
X8547579Y-37882976D01*
X8541668Y-37887360D01*
X8535355Y-37891144D01*
X8528701Y-37894291D01*
X8521771Y-37896771D01*
X8514632Y-37898559D01*
X8507351Y-37899639D01*
X8500000Y-37900000D01*
X7175000Y-37900000D01*
X7167649Y-37899639D01*
X7160368Y-37898559D01*
X7153229Y-37896771D01*
X7146299Y-37894291D01*
X7139645Y-37891144D01*
X7133332Y-37887360D01*
X7127421Y-37882976D01*
X7121967Y-37878033D01*
X7117024Y-37872579D01*
X7112640Y-37866668D01*
X7108856Y-37860355D01*
X7105709Y-37853701D01*
X7103229Y-37846771D01*
X7101441Y-37839632D01*
X7100361Y-37832351D01*
X7100000Y-37825000D01*
X7100000Y-37675000D01*
X7100361Y-37667649D01*
X7101441Y-37660368D01*
X7103229Y-37653229D01*
X7105709Y-37646299D01*
X7108856Y-37639645D01*
X7112640Y-37633332D01*
X7117024Y-37627421D01*
X7121967Y-37621967D01*
X7127421Y-37617024D01*
X7133332Y-37612640D01*
X7139645Y-37608856D01*
X7146299Y-37605709D01*
X7153229Y-37603229D01*
X7160368Y-37601441D01*
X7167649Y-37600361D01*
X7175000Y-37600000D01*
X8500000Y-37600000D01*
X8507351Y-37600361D01*
X8507351Y-37600361D01*
G37*
D17*
X7837500Y-37750000D03*
D12*
G36*
X8507351Y-38100361D02*
G01*
X8514632Y-38101441D01*
X8521771Y-38103229D01*
X8528701Y-38105709D01*
X8535355Y-38108856D01*
X8541668Y-38112640D01*
X8547579Y-38117024D01*
X8553033Y-38121967D01*
X8557976Y-38127421D01*
X8562360Y-38133332D01*
X8566144Y-38139645D01*
X8569291Y-38146299D01*
X8571771Y-38153229D01*
X8573559Y-38160368D01*
X8574639Y-38167649D01*
X8575000Y-38175000D01*
X8575000Y-38325000D01*
X8574639Y-38332351D01*
X8573559Y-38339632D01*
X8571771Y-38346771D01*
X8569291Y-38353701D01*
X8566144Y-38360355D01*
X8562360Y-38366668D01*
X8557976Y-38372579D01*
X8553033Y-38378033D01*
X8547579Y-38382976D01*
X8541668Y-38387360D01*
X8535355Y-38391144D01*
X8528701Y-38394291D01*
X8521771Y-38396771D01*
X8514632Y-38398559D01*
X8507351Y-38399639D01*
X8500000Y-38400000D01*
X7175000Y-38400000D01*
X7167649Y-38399639D01*
X7160368Y-38398559D01*
X7153229Y-38396771D01*
X7146299Y-38394291D01*
X7139645Y-38391144D01*
X7133332Y-38387360D01*
X7127421Y-38382976D01*
X7121967Y-38378033D01*
X7117024Y-38372579D01*
X7112640Y-38366668D01*
X7108856Y-38360355D01*
X7105709Y-38353701D01*
X7103229Y-38346771D01*
X7101441Y-38339632D01*
X7100361Y-38332351D01*
X7100000Y-38325000D01*
X7100000Y-38175000D01*
X7100361Y-38167649D01*
X7101441Y-38160368D01*
X7103229Y-38153229D01*
X7105709Y-38146299D01*
X7108856Y-38139645D01*
X7112640Y-38133332D01*
X7117024Y-38127421D01*
X7121967Y-38121967D01*
X7127421Y-38117024D01*
X7133332Y-38112640D01*
X7139645Y-38108856D01*
X7146299Y-38105709D01*
X7153229Y-38103229D01*
X7160368Y-38101441D01*
X7167649Y-38100361D01*
X7175000Y-38100000D01*
X8500000Y-38100000D01*
X8507351Y-38100361D01*
X8507351Y-38100361D01*
G37*
D17*
X7837500Y-38250000D03*
D12*
G36*
X8507351Y-38600361D02*
G01*
X8514632Y-38601441D01*
X8521771Y-38603229D01*
X8528701Y-38605709D01*
X8535355Y-38608856D01*
X8541668Y-38612640D01*
X8547579Y-38617024D01*
X8553033Y-38621967D01*
X8557976Y-38627421D01*
X8562360Y-38633332D01*
X8566144Y-38639645D01*
X8569291Y-38646299D01*
X8571771Y-38653229D01*
X8573559Y-38660368D01*
X8574639Y-38667649D01*
X8575000Y-38675000D01*
X8575000Y-38825000D01*
X8574639Y-38832351D01*
X8573559Y-38839632D01*
X8571771Y-38846771D01*
X8569291Y-38853701D01*
X8566144Y-38860355D01*
X8562360Y-38866668D01*
X8557976Y-38872579D01*
X8553033Y-38878033D01*
X8547579Y-38882976D01*
X8541668Y-38887360D01*
X8535355Y-38891144D01*
X8528701Y-38894291D01*
X8521771Y-38896771D01*
X8514632Y-38898559D01*
X8507351Y-38899639D01*
X8500000Y-38900000D01*
X7175000Y-38900000D01*
X7167649Y-38899639D01*
X7160368Y-38898559D01*
X7153229Y-38896771D01*
X7146299Y-38894291D01*
X7139645Y-38891144D01*
X7133332Y-38887360D01*
X7127421Y-38882976D01*
X7121967Y-38878033D01*
X7117024Y-38872579D01*
X7112640Y-38866668D01*
X7108856Y-38860355D01*
X7105709Y-38853701D01*
X7103229Y-38846771D01*
X7101441Y-38839632D01*
X7100361Y-38832351D01*
X7100000Y-38825000D01*
X7100000Y-38675000D01*
X7100361Y-38667649D01*
X7101441Y-38660368D01*
X7103229Y-38653229D01*
X7105709Y-38646299D01*
X7108856Y-38639645D01*
X7112640Y-38633332D01*
X7117024Y-38627421D01*
X7121967Y-38621967D01*
X7127421Y-38617024D01*
X7133332Y-38612640D01*
X7139645Y-38608856D01*
X7146299Y-38605709D01*
X7153229Y-38603229D01*
X7160368Y-38601441D01*
X7167649Y-38600361D01*
X7175000Y-38600000D01*
X8500000Y-38600000D01*
X8507351Y-38600361D01*
X8507351Y-38600361D01*
G37*
D17*
X7837500Y-38750000D03*
D12*
G36*
X8507351Y-39100361D02*
G01*
X8514632Y-39101441D01*
X8521771Y-39103229D01*
X8528701Y-39105709D01*
X8535355Y-39108856D01*
X8541668Y-39112640D01*
X8547579Y-39117024D01*
X8553033Y-39121967D01*
X8557976Y-39127421D01*
X8562360Y-39133332D01*
X8566144Y-39139645D01*
X8569291Y-39146299D01*
X8571771Y-39153229D01*
X8573559Y-39160368D01*
X8574639Y-39167649D01*
X8575000Y-39175000D01*
X8575000Y-39325000D01*
X8574639Y-39332351D01*
X8573559Y-39339632D01*
X8571771Y-39346771D01*
X8569291Y-39353701D01*
X8566144Y-39360355D01*
X8562360Y-39366668D01*
X8557976Y-39372579D01*
X8553033Y-39378033D01*
X8547579Y-39382976D01*
X8541668Y-39387360D01*
X8535355Y-39391144D01*
X8528701Y-39394291D01*
X8521771Y-39396771D01*
X8514632Y-39398559D01*
X8507351Y-39399639D01*
X8500000Y-39400000D01*
X7175000Y-39400000D01*
X7167649Y-39399639D01*
X7160368Y-39398559D01*
X7153229Y-39396771D01*
X7146299Y-39394291D01*
X7139645Y-39391144D01*
X7133332Y-39387360D01*
X7127421Y-39382976D01*
X7121967Y-39378033D01*
X7117024Y-39372579D01*
X7112640Y-39366668D01*
X7108856Y-39360355D01*
X7105709Y-39353701D01*
X7103229Y-39346771D01*
X7101441Y-39339632D01*
X7100361Y-39332351D01*
X7100000Y-39325000D01*
X7100000Y-39175000D01*
X7100361Y-39167649D01*
X7101441Y-39160368D01*
X7103229Y-39153229D01*
X7105709Y-39146299D01*
X7108856Y-39139645D01*
X7112640Y-39133332D01*
X7117024Y-39127421D01*
X7121967Y-39121967D01*
X7127421Y-39117024D01*
X7133332Y-39112640D01*
X7139645Y-39108856D01*
X7146299Y-39105709D01*
X7153229Y-39103229D01*
X7160368Y-39101441D01*
X7167649Y-39100361D01*
X7175000Y-39100000D01*
X8500000Y-39100000D01*
X8507351Y-39100361D01*
X8507351Y-39100361D01*
G37*
D17*
X7837500Y-39250000D03*
D12*
G36*
X8507351Y-39600361D02*
G01*
X8514632Y-39601441D01*
X8521771Y-39603229D01*
X8528701Y-39605709D01*
X8535355Y-39608856D01*
X8541668Y-39612640D01*
X8547579Y-39617024D01*
X8553033Y-39621967D01*
X8557976Y-39627421D01*
X8562360Y-39633332D01*
X8566144Y-39639645D01*
X8569291Y-39646299D01*
X8571771Y-39653229D01*
X8573559Y-39660368D01*
X8574639Y-39667649D01*
X8575000Y-39675000D01*
X8575000Y-39825000D01*
X8574639Y-39832351D01*
X8573559Y-39839632D01*
X8571771Y-39846771D01*
X8569291Y-39853701D01*
X8566144Y-39860355D01*
X8562360Y-39866668D01*
X8557976Y-39872579D01*
X8553033Y-39878033D01*
X8547579Y-39882976D01*
X8541668Y-39887360D01*
X8535355Y-39891144D01*
X8528701Y-39894291D01*
X8521771Y-39896771D01*
X8514632Y-39898559D01*
X8507351Y-39899639D01*
X8500000Y-39900000D01*
X7175000Y-39900000D01*
X7167649Y-39899639D01*
X7160368Y-39898559D01*
X7153229Y-39896771D01*
X7146299Y-39894291D01*
X7139645Y-39891144D01*
X7133332Y-39887360D01*
X7127421Y-39882976D01*
X7121967Y-39878033D01*
X7117024Y-39872579D01*
X7112640Y-39866668D01*
X7108856Y-39860355D01*
X7105709Y-39853701D01*
X7103229Y-39846771D01*
X7101441Y-39839632D01*
X7100361Y-39832351D01*
X7100000Y-39825000D01*
X7100000Y-39675000D01*
X7100361Y-39667649D01*
X7101441Y-39660368D01*
X7103229Y-39653229D01*
X7105709Y-39646299D01*
X7108856Y-39639645D01*
X7112640Y-39633332D01*
X7117024Y-39627421D01*
X7121967Y-39621967D01*
X7127421Y-39617024D01*
X7133332Y-39612640D01*
X7139645Y-39608856D01*
X7146299Y-39605709D01*
X7153229Y-39603229D01*
X7160368Y-39601441D01*
X7167649Y-39600361D01*
X7175000Y-39600000D01*
X8500000Y-39600000D01*
X8507351Y-39600361D01*
X8507351Y-39600361D01*
G37*
D17*
X7837500Y-39750000D03*
D12*
G36*
X8507351Y-40100361D02*
G01*
X8514632Y-40101441D01*
X8521771Y-40103229D01*
X8528701Y-40105709D01*
X8535355Y-40108856D01*
X8541668Y-40112640D01*
X8547579Y-40117024D01*
X8553033Y-40121967D01*
X8557976Y-40127421D01*
X8562360Y-40133332D01*
X8566144Y-40139645D01*
X8569291Y-40146299D01*
X8571771Y-40153229D01*
X8573559Y-40160368D01*
X8574639Y-40167649D01*
X8575000Y-40175000D01*
X8575000Y-40325000D01*
X8574639Y-40332351D01*
X8573559Y-40339632D01*
X8571771Y-40346771D01*
X8569291Y-40353701D01*
X8566144Y-40360355D01*
X8562360Y-40366668D01*
X8557976Y-40372579D01*
X8553033Y-40378033D01*
X8547579Y-40382976D01*
X8541668Y-40387360D01*
X8535355Y-40391144D01*
X8528701Y-40394291D01*
X8521771Y-40396771D01*
X8514632Y-40398559D01*
X8507351Y-40399639D01*
X8500000Y-40400000D01*
X7175000Y-40400000D01*
X7167649Y-40399639D01*
X7160368Y-40398559D01*
X7153229Y-40396771D01*
X7146299Y-40394291D01*
X7139645Y-40391144D01*
X7133332Y-40387360D01*
X7127421Y-40382976D01*
X7121967Y-40378033D01*
X7117024Y-40372579D01*
X7112640Y-40366668D01*
X7108856Y-40360355D01*
X7105709Y-40353701D01*
X7103229Y-40346771D01*
X7101441Y-40339632D01*
X7100361Y-40332351D01*
X7100000Y-40325000D01*
X7100000Y-40175000D01*
X7100361Y-40167649D01*
X7101441Y-40160368D01*
X7103229Y-40153229D01*
X7105709Y-40146299D01*
X7108856Y-40139645D01*
X7112640Y-40133332D01*
X7117024Y-40127421D01*
X7121967Y-40121967D01*
X7127421Y-40117024D01*
X7133332Y-40112640D01*
X7139645Y-40108856D01*
X7146299Y-40105709D01*
X7153229Y-40103229D01*
X7160368Y-40101441D01*
X7167649Y-40100361D01*
X7175000Y-40100000D01*
X8500000Y-40100000D01*
X8507351Y-40100361D01*
X8507351Y-40100361D01*
G37*
D17*
X7837500Y-40250000D03*
D12*
G36*
X8507351Y-40600361D02*
G01*
X8514632Y-40601441D01*
X8521771Y-40603229D01*
X8528701Y-40605709D01*
X8535355Y-40608856D01*
X8541668Y-40612640D01*
X8547579Y-40617024D01*
X8553033Y-40621967D01*
X8557976Y-40627421D01*
X8562360Y-40633332D01*
X8566144Y-40639645D01*
X8569291Y-40646299D01*
X8571771Y-40653229D01*
X8573559Y-40660368D01*
X8574639Y-40667649D01*
X8575000Y-40675000D01*
X8575000Y-40825000D01*
X8574639Y-40832351D01*
X8573559Y-40839632D01*
X8571771Y-40846771D01*
X8569291Y-40853701D01*
X8566144Y-40860355D01*
X8562360Y-40866668D01*
X8557976Y-40872579D01*
X8553033Y-40878033D01*
X8547579Y-40882976D01*
X8541668Y-40887360D01*
X8535355Y-40891144D01*
X8528701Y-40894291D01*
X8521771Y-40896771D01*
X8514632Y-40898559D01*
X8507351Y-40899639D01*
X8500000Y-40900000D01*
X7175000Y-40900000D01*
X7167649Y-40899639D01*
X7160368Y-40898559D01*
X7153229Y-40896771D01*
X7146299Y-40894291D01*
X7139645Y-40891144D01*
X7133332Y-40887360D01*
X7127421Y-40882976D01*
X7121967Y-40878033D01*
X7117024Y-40872579D01*
X7112640Y-40866668D01*
X7108856Y-40860355D01*
X7105709Y-40853701D01*
X7103229Y-40846771D01*
X7101441Y-40839632D01*
X7100361Y-40832351D01*
X7100000Y-40825000D01*
X7100000Y-40675000D01*
X7100361Y-40667649D01*
X7101441Y-40660368D01*
X7103229Y-40653229D01*
X7105709Y-40646299D01*
X7108856Y-40639645D01*
X7112640Y-40633332D01*
X7117024Y-40627421D01*
X7121967Y-40621967D01*
X7127421Y-40617024D01*
X7133332Y-40612640D01*
X7139645Y-40608856D01*
X7146299Y-40605709D01*
X7153229Y-40603229D01*
X7160368Y-40601441D01*
X7167649Y-40600361D01*
X7175000Y-40600000D01*
X8500000Y-40600000D01*
X8507351Y-40600361D01*
X8507351Y-40600361D01*
G37*
D17*
X7837500Y-40750000D03*
D12*
G36*
X8507351Y-41100361D02*
G01*
X8514632Y-41101441D01*
X8521771Y-41103229D01*
X8528701Y-41105709D01*
X8535355Y-41108856D01*
X8541668Y-41112640D01*
X8547579Y-41117024D01*
X8553033Y-41121967D01*
X8557976Y-41127421D01*
X8562360Y-41133332D01*
X8566144Y-41139645D01*
X8569291Y-41146299D01*
X8571771Y-41153229D01*
X8573559Y-41160368D01*
X8574639Y-41167649D01*
X8575000Y-41175000D01*
X8575000Y-41325000D01*
X8574639Y-41332351D01*
X8573559Y-41339632D01*
X8571771Y-41346771D01*
X8569291Y-41353701D01*
X8566144Y-41360355D01*
X8562360Y-41366668D01*
X8557976Y-41372579D01*
X8553033Y-41378033D01*
X8547579Y-41382976D01*
X8541668Y-41387360D01*
X8535355Y-41391144D01*
X8528701Y-41394291D01*
X8521771Y-41396771D01*
X8514632Y-41398559D01*
X8507351Y-41399639D01*
X8500000Y-41400000D01*
X7175000Y-41400000D01*
X7167649Y-41399639D01*
X7160368Y-41398559D01*
X7153229Y-41396771D01*
X7146299Y-41394291D01*
X7139645Y-41391144D01*
X7133332Y-41387360D01*
X7127421Y-41382976D01*
X7121967Y-41378033D01*
X7117024Y-41372579D01*
X7112640Y-41366668D01*
X7108856Y-41360355D01*
X7105709Y-41353701D01*
X7103229Y-41346771D01*
X7101441Y-41339632D01*
X7100361Y-41332351D01*
X7100000Y-41325000D01*
X7100000Y-41175000D01*
X7100361Y-41167649D01*
X7101441Y-41160368D01*
X7103229Y-41153229D01*
X7105709Y-41146299D01*
X7108856Y-41139645D01*
X7112640Y-41133332D01*
X7117024Y-41127421D01*
X7121967Y-41121967D01*
X7127421Y-41117024D01*
X7133332Y-41112640D01*
X7139645Y-41108856D01*
X7146299Y-41105709D01*
X7153229Y-41103229D01*
X7160368Y-41101441D01*
X7167649Y-41100361D01*
X7175000Y-41100000D01*
X8500000Y-41100000D01*
X8507351Y-41100361D01*
X8507351Y-41100361D01*
G37*
D17*
X7837500Y-41250000D03*
D12*
G36*
X8507351Y-41600361D02*
G01*
X8514632Y-41601441D01*
X8521771Y-41603229D01*
X8528701Y-41605709D01*
X8535355Y-41608856D01*
X8541668Y-41612640D01*
X8547579Y-41617024D01*
X8553033Y-41621967D01*
X8557976Y-41627421D01*
X8562360Y-41633332D01*
X8566144Y-41639645D01*
X8569291Y-41646299D01*
X8571771Y-41653229D01*
X8573559Y-41660368D01*
X8574639Y-41667649D01*
X8575000Y-41675000D01*
X8575000Y-41825000D01*
X8574639Y-41832351D01*
X8573559Y-41839632D01*
X8571771Y-41846771D01*
X8569291Y-41853701D01*
X8566144Y-41860355D01*
X8562360Y-41866668D01*
X8557976Y-41872579D01*
X8553033Y-41878033D01*
X8547579Y-41882976D01*
X8541668Y-41887360D01*
X8535355Y-41891144D01*
X8528701Y-41894291D01*
X8521771Y-41896771D01*
X8514632Y-41898559D01*
X8507351Y-41899639D01*
X8500000Y-41900000D01*
X7175000Y-41900000D01*
X7167649Y-41899639D01*
X7160368Y-41898559D01*
X7153229Y-41896771D01*
X7146299Y-41894291D01*
X7139645Y-41891144D01*
X7133332Y-41887360D01*
X7127421Y-41882976D01*
X7121967Y-41878033D01*
X7117024Y-41872579D01*
X7112640Y-41866668D01*
X7108856Y-41860355D01*
X7105709Y-41853701D01*
X7103229Y-41846771D01*
X7101441Y-41839632D01*
X7100361Y-41832351D01*
X7100000Y-41825000D01*
X7100000Y-41675000D01*
X7100361Y-41667649D01*
X7101441Y-41660368D01*
X7103229Y-41653229D01*
X7105709Y-41646299D01*
X7108856Y-41639645D01*
X7112640Y-41633332D01*
X7117024Y-41627421D01*
X7121967Y-41621967D01*
X7127421Y-41617024D01*
X7133332Y-41612640D01*
X7139645Y-41608856D01*
X7146299Y-41605709D01*
X7153229Y-41603229D01*
X7160368Y-41601441D01*
X7167649Y-41600361D01*
X7175000Y-41600000D01*
X8500000Y-41600000D01*
X8507351Y-41600361D01*
X8507351Y-41600361D01*
G37*
D17*
X7837500Y-41750000D03*
D12*
G36*
X8507351Y-42100361D02*
G01*
X8514632Y-42101441D01*
X8521771Y-42103229D01*
X8528701Y-42105709D01*
X8535355Y-42108856D01*
X8541668Y-42112640D01*
X8547579Y-42117024D01*
X8553033Y-42121967D01*
X8557976Y-42127421D01*
X8562360Y-42133332D01*
X8566144Y-42139645D01*
X8569291Y-42146299D01*
X8571771Y-42153229D01*
X8573559Y-42160368D01*
X8574639Y-42167649D01*
X8575000Y-42175000D01*
X8575000Y-42325000D01*
X8574639Y-42332351D01*
X8573559Y-42339632D01*
X8571771Y-42346771D01*
X8569291Y-42353701D01*
X8566144Y-42360355D01*
X8562360Y-42366668D01*
X8557976Y-42372579D01*
X8553033Y-42378033D01*
X8547579Y-42382976D01*
X8541668Y-42387360D01*
X8535355Y-42391144D01*
X8528701Y-42394291D01*
X8521771Y-42396771D01*
X8514632Y-42398559D01*
X8507351Y-42399639D01*
X8500000Y-42400000D01*
X7175000Y-42400000D01*
X7167649Y-42399639D01*
X7160368Y-42398559D01*
X7153229Y-42396771D01*
X7146299Y-42394291D01*
X7139645Y-42391144D01*
X7133332Y-42387360D01*
X7127421Y-42382976D01*
X7121967Y-42378033D01*
X7117024Y-42372579D01*
X7112640Y-42366668D01*
X7108856Y-42360355D01*
X7105709Y-42353701D01*
X7103229Y-42346771D01*
X7101441Y-42339632D01*
X7100361Y-42332351D01*
X7100000Y-42325000D01*
X7100000Y-42175000D01*
X7100361Y-42167649D01*
X7101441Y-42160368D01*
X7103229Y-42153229D01*
X7105709Y-42146299D01*
X7108856Y-42139645D01*
X7112640Y-42133332D01*
X7117024Y-42127421D01*
X7121967Y-42121967D01*
X7127421Y-42117024D01*
X7133332Y-42112640D01*
X7139645Y-42108856D01*
X7146299Y-42105709D01*
X7153229Y-42103229D01*
X7160368Y-42101441D01*
X7167649Y-42100361D01*
X7175000Y-42100000D01*
X8500000Y-42100000D01*
X8507351Y-42100361D01*
X8507351Y-42100361D01*
G37*
D17*
X7837500Y-42250000D03*
D12*
G36*
X8507351Y-42600361D02*
G01*
X8514632Y-42601441D01*
X8521771Y-42603229D01*
X8528701Y-42605709D01*
X8535355Y-42608856D01*
X8541668Y-42612640D01*
X8547579Y-42617024D01*
X8553033Y-42621967D01*
X8557976Y-42627421D01*
X8562360Y-42633332D01*
X8566144Y-42639645D01*
X8569291Y-42646299D01*
X8571771Y-42653229D01*
X8573559Y-42660368D01*
X8574639Y-42667649D01*
X8575000Y-42675000D01*
X8575000Y-42825000D01*
X8574639Y-42832351D01*
X8573559Y-42839632D01*
X8571771Y-42846771D01*
X8569291Y-42853701D01*
X8566144Y-42860355D01*
X8562360Y-42866668D01*
X8557976Y-42872579D01*
X8553033Y-42878033D01*
X8547579Y-42882976D01*
X8541668Y-42887360D01*
X8535355Y-42891144D01*
X8528701Y-42894291D01*
X8521771Y-42896771D01*
X8514632Y-42898559D01*
X8507351Y-42899639D01*
X8500000Y-42900000D01*
X7175000Y-42900000D01*
X7167649Y-42899639D01*
X7160368Y-42898559D01*
X7153229Y-42896771D01*
X7146299Y-42894291D01*
X7139645Y-42891144D01*
X7133332Y-42887360D01*
X7127421Y-42882976D01*
X7121967Y-42878033D01*
X7117024Y-42872579D01*
X7112640Y-42866668D01*
X7108856Y-42860355D01*
X7105709Y-42853701D01*
X7103229Y-42846771D01*
X7101441Y-42839632D01*
X7100361Y-42832351D01*
X7100000Y-42825000D01*
X7100000Y-42675000D01*
X7100361Y-42667649D01*
X7101441Y-42660368D01*
X7103229Y-42653229D01*
X7105709Y-42646299D01*
X7108856Y-42639645D01*
X7112640Y-42633332D01*
X7117024Y-42627421D01*
X7121967Y-42621967D01*
X7127421Y-42617024D01*
X7133332Y-42612640D01*
X7139645Y-42608856D01*
X7146299Y-42605709D01*
X7153229Y-42603229D01*
X7160368Y-42601441D01*
X7167649Y-42600361D01*
X7175000Y-42600000D01*
X8500000Y-42600000D01*
X8507351Y-42600361D01*
X8507351Y-42600361D01*
G37*
D17*
X7837500Y-42750000D03*
D18*
X9400000Y-14100000D03*
X8450000Y-14100000D03*
X7500000Y-14100000D03*
X7500000Y-16300000D03*
X9400000Y-16300000D03*
D19*
X9900000Y-54050000D03*
X16100000Y-54050000D03*
X9900000Y-57750000D03*
X16100000Y-57750000D03*
D12*
G36*
X14027691Y-47126053D02*
G01*
X14048926Y-47129203D01*
X14069750Y-47134419D01*
X14089962Y-47141651D01*
X14109368Y-47150830D01*
X14127781Y-47161866D01*
X14145024Y-47174654D01*
X14160930Y-47189070D01*
X14175346Y-47204976D01*
X14188134Y-47222219D01*
X14199170Y-47240632D01*
X14208349Y-47260038D01*
X14215581Y-47280250D01*
X14220797Y-47301074D01*
X14223947Y-47322309D01*
X14225000Y-47343750D01*
X14225000Y-47856250D01*
X14223947Y-47877691D01*
X14220797Y-47898926D01*
X14215581Y-47919750D01*
X14208349Y-47939962D01*
X14199170Y-47959368D01*
X14188134Y-47977781D01*
X14175346Y-47995024D01*
X14160930Y-48010930D01*
X14145024Y-48025346D01*
X14127781Y-48038134D01*
X14109368Y-48049170D01*
X14089962Y-48058349D01*
X14069750Y-48065581D01*
X14048926Y-48070797D01*
X14027691Y-48073947D01*
X14006250Y-48075000D01*
X13568750Y-48075000D01*
X13547309Y-48073947D01*
X13526074Y-48070797D01*
X13505250Y-48065581D01*
X13485038Y-48058349D01*
X13465632Y-48049170D01*
X13447219Y-48038134D01*
X13429976Y-48025346D01*
X13414070Y-48010930D01*
X13399654Y-47995024D01*
X13386866Y-47977781D01*
X13375830Y-47959368D01*
X13366651Y-47939962D01*
X13359419Y-47919750D01*
X13354203Y-47898926D01*
X13351053Y-47877691D01*
X13350000Y-47856250D01*
X13350000Y-47343750D01*
X13351053Y-47322309D01*
X13354203Y-47301074D01*
X13359419Y-47280250D01*
X13366651Y-47260038D01*
X13375830Y-47240632D01*
X13386866Y-47222219D01*
X13399654Y-47204976D01*
X13414070Y-47189070D01*
X13429976Y-47174654D01*
X13447219Y-47161866D01*
X13465632Y-47150830D01*
X13485038Y-47141651D01*
X13505250Y-47134419D01*
X13526074Y-47129203D01*
X13547309Y-47126053D01*
X13568750Y-47125000D01*
X14006250Y-47125000D01*
X14027691Y-47126053D01*
X14027691Y-47126053D01*
G37*
D13*
X13787500Y-47600000D03*
D12*
G36*
X12452691Y-47126053D02*
G01*
X12473926Y-47129203D01*
X12494750Y-47134419D01*
X12514962Y-47141651D01*
X12534368Y-47150830D01*
X12552781Y-47161866D01*
X12570024Y-47174654D01*
X12585930Y-47189070D01*
X12600346Y-47204976D01*
X12613134Y-47222219D01*
X12624170Y-47240632D01*
X12633349Y-47260038D01*
X12640581Y-47280250D01*
X12645797Y-47301074D01*
X12648947Y-47322309D01*
X12650000Y-47343750D01*
X12650000Y-47856250D01*
X12648947Y-47877691D01*
X12645797Y-47898926D01*
X12640581Y-47919750D01*
X12633349Y-47939962D01*
X12624170Y-47959368D01*
X12613134Y-47977781D01*
X12600346Y-47995024D01*
X12585930Y-48010930D01*
X12570024Y-48025346D01*
X12552781Y-48038134D01*
X12534368Y-48049170D01*
X12514962Y-48058349D01*
X12494750Y-48065581D01*
X12473926Y-48070797D01*
X12452691Y-48073947D01*
X12431250Y-48075000D01*
X11993750Y-48075000D01*
X11972309Y-48073947D01*
X11951074Y-48070797D01*
X11930250Y-48065581D01*
X11910038Y-48058349D01*
X11890632Y-48049170D01*
X11872219Y-48038134D01*
X11854976Y-48025346D01*
X11839070Y-48010930D01*
X11824654Y-47995024D01*
X11811866Y-47977781D01*
X11800830Y-47959368D01*
X11791651Y-47939962D01*
X11784419Y-47919750D01*
X11779203Y-47898926D01*
X11776053Y-47877691D01*
X11775000Y-47856250D01*
X11775000Y-47343750D01*
X11776053Y-47322309D01*
X11779203Y-47301074D01*
X11784419Y-47280250D01*
X11791651Y-47260038D01*
X11800830Y-47240632D01*
X11811866Y-47222219D01*
X11824654Y-47204976D01*
X11839070Y-47189070D01*
X11854976Y-47174654D01*
X11872219Y-47161866D01*
X11890632Y-47150830D01*
X11910038Y-47141651D01*
X11930250Y-47134419D01*
X11951074Y-47129203D01*
X11972309Y-47126053D01*
X11993750Y-47125000D01*
X12431250Y-47125000D01*
X12452691Y-47126053D01*
X12452691Y-47126053D01*
G37*
D13*
X12212500Y-47600000D03*
D12*
G36*
X12452691Y-48826053D02*
G01*
X12473926Y-48829203D01*
X12494750Y-48834419D01*
X12514962Y-48841651D01*
X12534368Y-48850830D01*
X12552781Y-48861866D01*
X12570024Y-48874654D01*
X12585930Y-48889070D01*
X12600346Y-48904976D01*
X12613134Y-48922219D01*
X12624170Y-48940632D01*
X12633349Y-48960038D01*
X12640581Y-48980250D01*
X12645797Y-49001074D01*
X12648947Y-49022309D01*
X12650000Y-49043750D01*
X12650000Y-49556250D01*
X12648947Y-49577691D01*
X12645797Y-49598926D01*
X12640581Y-49619750D01*
X12633349Y-49639962D01*
X12624170Y-49659368D01*
X12613134Y-49677781D01*
X12600346Y-49695024D01*
X12585930Y-49710930D01*
X12570024Y-49725346D01*
X12552781Y-49738134D01*
X12534368Y-49749170D01*
X12514962Y-49758349D01*
X12494750Y-49765581D01*
X12473926Y-49770797D01*
X12452691Y-49773947D01*
X12431250Y-49775000D01*
X11993750Y-49775000D01*
X11972309Y-49773947D01*
X11951074Y-49770797D01*
X11930250Y-49765581D01*
X11910038Y-49758349D01*
X11890632Y-49749170D01*
X11872219Y-49738134D01*
X11854976Y-49725346D01*
X11839070Y-49710930D01*
X11824654Y-49695024D01*
X11811866Y-49677781D01*
X11800830Y-49659368D01*
X11791651Y-49639962D01*
X11784419Y-49619750D01*
X11779203Y-49598926D01*
X11776053Y-49577691D01*
X11775000Y-49556250D01*
X11775000Y-49043750D01*
X11776053Y-49022309D01*
X11779203Y-49001074D01*
X11784419Y-48980250D01*
X11791651Y-48960038D01*
X11800830Y-48940632D01*
X11811866Y-48922219D01*
X11824654Y-48904976D01*
X11839070Y-48889070D01*
X11854976Y-48874654D01*
X11872219Y-48861866D01*
X11890632Y-48850830D01*
X11910038Y-48841651D01*
X11930250Y-48834419D01*
X11951074Y-48829203D01*
X11972309Y-48826053D01*
X11993750Y-48825000D01*
X12431250Y-48825000D01*
X12452691Y-48826053D01*
X12452691Y-48826053D01*
G37*
D13*
X12212500Y-49300000D03*
D12*
G36*
X14027691Y-48826053D02*
G01*
X14048926Y-48829203D01*
X14069750Y-48834419D01*
X14089962Y-48841651D01*
X14109368Y-48850830D01*
X14127781Y-48861866D01*
X14145024Y-48874654D01*
X14160930Y-48889070D01*
X14175346Y-48904976D01*
X14188134Y-48922219D01*
X14199170Y-48940632D01*
X14208349Y-48960038D01*
X14215581Y-48980250D01*
X14220797Y-49001074D01*
X14223947Y-49022309D01*
X14225000Y-49043750D01*
X14225000Y-49556250D01*
X14223947Y-49577691D01*
X14220797Y-49598926D01*
X14215581Y-49619750D01*
X14208349Y-49639962D01*
X14199170Y-49659368D01*
X14188134Y-49677781D01*
X14175346Y-49695024D01*
X14160930Y-49710930D01*
X14145024Y-49725346D01*
X14127781Y-49738134D01*
X14109368Y-49749170D01*
X14089962Y-49758349D01*
X14069750Y-49765581D01*
X14048926Y-49770797D01*
X14027691Y-49773947D01*
X14006250Y-49775000D01*
X13568750Y-49775000D01*
X13547309Y-49773947D01*
X13526074Y-49770797D01*
X13505250Y-49765581D01*
X13485038Y-49758349D01*
X13465632Y-49749170D01*
X13447219Y-49738134D01*
X13429976Y-49725346D01*
X13414070Y-49710930D01*
X13399654Y-49695024D01*
X13386866Y-49677781D01*
X13375830Y-49659368D01*
X13366651Y-49639962D01*
X13359419Y-49619750D01*
X13354203Y-49598926D01*
X13351053Y-49577691D01*
X13350000Y-49556250D01*
X13350000Y-49043750D01*
X13351053Y-49022309D01*
X13354203Y-49001074D01*
X13359419Y-48980250D01*
X13366651Y-48960038D01*
X13375830Y-48940632D01*
X13386866Y-48922219D01*
X13399654Y-48904976D01*
X13414070Y-48889070D01*
X13429976Y-48874654D01*
X13447219Y-48861866D01*
X13465632Y-48850830D01*
X13485038Y-48841651D01*
X13505250Y-48834419D01*
X13526074Y-48829203D01*
X13547309Y-48826053D01*
X13568750Y-48825000D01*
X14006250Y-48825000D01*
X14027691Y-48826053D01*
X14027691Y-48826053D01*
G37*
D13*
X13787500Y-49300000D03*
D12*
G36*
X4077691Y-30151053D02*
G01*
X4098926Y-30154203D01*
X4119750Y-30159419D01*
X4139962Y-30166651D01*
X4159368Y-30175830D01*
X4177781Y-30186866D01*
X4195024Y-30199654D01*
X4210930Y-30214070D01*
X4225346Y-30229976D01*
X4238134Y-30247219D01*
X4249170Y-30265632D01*
X4258349Y-30285038D01*
X4265581Y-30305250D01*
X4270797Y-30326074D01*
X4273947Y-30347309D01*
X4275000Y-30368750D01*
X4275000Y-30806250D01*
X4273947Y-30827691D01*
X4270797Y-30848926D01*
X4265581Y-30869750D01*
X4258349Y-30889962D01*
X4249170Y-30909368D01*
X4238134Y-30927781D01*
X4225346Y-30945024D01*
X4210930Y-30960930D01*
X4195024Y-30975346D01*
X4177781Y-30988134D01*
X4159368Y-30999170D01*
X4139962Y-31008349D01*
X4119750Y-31015581D01*
X4098926Y-31020797D01*
X4077691Y-31023947D01*
X4056250Y-31025000D01*
X3543750Y-31025000D01*
X3522309Y-31023947D01*
X3501074Y-31020797D01*
X3480250Y-31015581D01*
X3460038Y-31008349D01*
X3440632Y-30999170D01*
X3422219Y-30988134D01*
X3404976Y-30975346D01*
X3389070Y-30960930D01*
X3374654Y-30945024D01*
X3361866Y-30927781D01*
X3350830Y-30909368D01*
X3341651Y-30889962D01*
X3334419Y-30869750D01*
X3329203Y-30848926D01*
X3326053Y-30827691D01*
X3325000Y-30806250D01*
X3325000Y-30368750D01*
X3326053Y-30347309D01*
X3329203Y-30326074D01*
X3334419Y-30305250D01*
X3341651Y-30285038D01*
X3350830Y-30265632D01*
X3361866Y-30247219D01*
X3374654Y-30229976D01*
X3389070Y-30214070D01*
X3404976Y-30199654D01*
X3422219Y-30186866D01*
X3440632Y-30175830D01*
X3460038Y-30166651D01*
X3480250Y-30159419D01*
X3501074Y-30154203D01*
X3522309Y-30151053D01*
X3543750Y-30150000D01*
X4056250Y-30150000D01*
X4077691Y-30151053D01*
X4077691Y-30151053D01*
G37*
D13*
X3800000Y-30587500D03*
D12*
G36*
X4077691Y-28576053D02*
G01*
X4098926Y-28579203D01*
X4119750Y-28584419D01*
X4139962Y-28591651D01*
X4159368Y-28600830D01*
X4177781Y-28611866D01*
X4195024Y-28624654D01*
X4210930Y-28639070D01*
X4225346Y-28654976D01*
X4238134Y-28672219D01*
X4249170Y-28690632D01*
X4258349Y-28710038D01*
X4265581Y-28730250D01*
X4270797Y-28751074D01*
X4273947Y-28772309D01*
X4275000Y-28793750D01*
X4275000Y-29231250D01*
X4273947Y-29252691D01*
X4270797Y-29273926D01*
X4265581Y-29294750D01*
X4258349Y-29314962D01*
X4249170Y-29334368D01*
X4238134Y-29352781D01*
X4225346Y-29370024D01*
X4210930Y-29385930D01*
X4195024Y-29400346D01*
X4177781Y-29413134D01*
X4159368Y-29424170D01*
X4139962Y-29433349D01*
X4119750Y-29440581D01*
X4098926Y-29445797D01*
X4077691Y-29448947D01*
X4056250Y-29450000D01*
X3543750Y-29450000D01*
X3522309Y-29448947D01*
X3501074Y-29445797D01*
X3480250Y-29440581D01*
X3460038Y-29433349D01*
X3440632Y-29424170D01*
X3422219Y-29413134D01*
X3404976Y-29400346D01*
X3389070Y-29385930D01*
X3374654Y-29370024D01*
X3361866Y-29352781D01*
X3350830Y-29334368D01*
X3341651Y-29314962D01*
X3334419Y-29294750D01*
X3329203Y-29273926D01*
X3326053Y-29252691D01*
X3325000Y-29231250D01*
X3325000Y-28793750D01*
X3326053Y-28772309D01*
X3329203Y-28751074D01*
X3334419Y-28730250D01*
X3341651Y-28710038D01*
X3350830Y-28690632D01*
X3361866Y-28672219D01*
X3374654Y-28654976D01*
X3389070Y-28639070D01*
X3404976Y-28624654D01*
X3422219Y-28611866D01*
X3440632Y-28600830D01*
X3460038Y-28591651D01*
X3480250Y-28584419D01*
X3501074Y-28579203D01*
X3522309Y-28576053D01*
X3543750Y-28575000D01*
X4056250Y-28575000D01*
X4077691Y-28576053D01*
X4077691Y-28576053D01*
G37*
D13*
X3800000Y-29012500D03*
D19*
X3800000Y-23050000D03*
X10000000Y-23050000D03*
X3800000Y-26750000D03*
X10000000Y-26750000D03*
M02*
