G04 #@! TF.GenerationSoftware,KiCad,Pcbnew,(5.1.2)-1*
G04 #@! TF.CreationDate,2019-06-29T11:53:21-07:00*
G04 #@! TF.ProjectId,joy,6a6f792e-6b69-4636-9164-5f7063625858,rev?*
G04 #@! TF.SameCoordinates,Original*
G04 #@! TF.FileFunction,Copper,L2,Bot*
G04 #@! TF.FilePolarity,Positive*
%FSLAX46Y46*%
G04 Gerber Fmt 4.6, Leading zero omitted, Abs format (unit mm)*
G04 Created by KiCad (PCBNEW (5.1.2)-1) date 2019-06-29 11:53:21*
%MOMM*%
%LPD*%
G04 APERTURE LIST*
%ADD10C,2.000000*%
%ADD11R,2.000000X2.000000*%
%ADD12O,1.700000X1.700000*%
%ADD13R,1.700000X1.700000*%
%ADD14C,1.600000*%
%ADD15R,1.600000X1.600000*%
%ADD16O,1.000000X2.100000*%
%ADD17O,1.000000X1.600000*%
%ADD18C,5.400000*%
%ADD19C,0.800000*%
%ADD20C,0.600000*%
%ADD21C,0.254000*%
G04 APERTURE END LIST*
D10*
X30600000Y-68300000D03*
X35600000Y-68300000D03*
X35600000Y-65800000D03*
X30600000Y-65800000D03*
D11*
X33100000Y-65800000D03*
D12*
X4000000Y-60380000D03*
X4000000Y-62920000D03*
X4000000Y-65460000D03*
D13*
X4000000Y-68000000D03*
D14*
X39100000Y-80600000D03*
X27200000Y-97200000D03*
X24800000Y-83000000D03*
X41500000Y-94900000D03*
X35800000Y-84700000D03*
X32100000Y-94100000D03*
X27900000Y-87900000D03*
X28200000Y-89900000D03*
X38300000Y-89900000D03*
X37900000Y-87900000D03*
X34100000Y-93700000D03*
X32100000Y-84100000D03*
X34100000Y-83700000D03*
X22600000Y-91400000D03*
X22600000Y-86400000D03*
X43600000Y-91400000D03*
X43600000Y-86400000D03*
X32100000Y-6920000D03*
X34100000Y-19680000D03*
X31600000Y-20500000D03*
X34600000Y-4900000D03*
X31600000Y-4900000D03*
D15*
X39960000Y-16450000D03*
D14*
X40900000Y-14200000D03*
X40900000Y-11200000D03*
X25300000Y-14200000D03*
X25300000Y-11200000D03*
D16*
X17320000Y-5280000D03*
X8680000Y-5280000D03*
D17*
X17320000Y-1100000D03*
X8680000Y-1100000D03*
D18*
X4000000Y-4000000D03*
D19*
X6025000Y-4000000D03*
X5431891Y-5431891D03*
X4000000Y-6025000D03*
X2568109Y-5431891D03*
X1975000Y-4000000D03*
X2568109Y-2568109D03*
X4000000Y-1975000D03*
X5431891Y-2568109D03*
X47431891Y-2568109D03*
X46000000Y-1975000D03*
X44568109Y-2568109D03*
X43975000Y-4000000D03*
X44568109Y-5431891D03*
X46000000Y-6025000D03*
X47431891Y-5431891D03*
X48025000Y-4000000D03*
D18*
X46000000Y-4000000D03*
X4000000Y-95000000D03*
D19*
X6025000Y-95000000D03*
X5431891Y-96431891D03*
X4000000Y-97025000D03*
X2568109Y-96431891D03*
X1975000Y-95000000D03*
X2568109Y-93568109D03*
X4000000Y-92975000D03*
X5431891Y-93568109D03*
X47431891Y-93568109D03*
X46000000Y-92975000D03*
X44568109Y-93568109D03*
X43975000Y-95000000D03*
X44568109Y-96431891D03*
X46000000Y-97025000D03*
X47431891Y-96431891D03*
X48025000Y-95000000D03*
D18*
X46000000Y-95000000D03*
D12*
X4000000Y-85160000D03*
X4000000Y-82620000D03*
X4000000Y-80080000D03*
X4000000Y-77540000D03*
D13*
X4000000Y-75000000D03*
D19*
X14500000Y-47800000D03*
X8500000Y-47800000D03*
X17600000Y-35800000D03*
X8058210Y-36058210D03*
X8900000Y-19900000D03*
X10900000Y-19900000D03*
X10900000Y-22300000D03*
X8900000Y-22300000D03*
X8800000Y-25100000D03*
X11000000Y-25200000D03*
X11100000Y-27600000D03*
X8700000Y-27700000D03*
X13600000Y-16000000D03*
X13500000Y-18100000D03*
X13500000Y-20700000D03*
X13600000Y-23000000D03*
X13600000Y-25200000D03*
X13600000Y-27700000D03*
X16100000Y-27800000D03*
X16200000Y-25200000D03*
X16200000Y-23100000D03*
X16300000Y-20700000D03*
X16300000Y-18100000D03*
X16200000Y-16000000D03*
D20*
X1557671Y-8002525D03*
X1885051Y-11453971D03*
X1744186Y-15383768D03*
X1601363Y-19058362D03*
X1865685Y-22264002D03*
X1741194Y-26013850D03*
X1805505Y-29509517D03*
X1962765Y-33406534D03*
X1850986Y-85641904D03*
X1703477Y-89197909D03*
X3751027Y-9778831D03*
X3405423Y-13541356D03*
X3722709Y-17009342D03*
X3664049Y-20825615D03*
X3621386Y-24399567D03*
X3767584Y-27834822D03*
X3411566Y-31567298D03*
X3547930Y-57381147D03*
X3642741Y-71175198D03*
X3375639Y-90934065D03*
X4517209Y-35295202D03*
X4345433Y-88097943D03*
X5478706Y-11611881D03*
X5350663Y-15276341D03*
X5461156Y-18799218D03*
X5299803Y-22524029D03*
X5484310Y-26246610D03*
X5566865Y-29498975D03*
X6269806Y-47674825D03*
X6359230Y-58569532D03*
X6142212Y-70059710D03*
X6106354Y-77259276D03*
X6331003Y-85354284D03*
X6326378Y-90183612D03*
X7309188Y-20773955D03*
X7091250Y-24390101D03*
X7190942Y-66400956D03*
X7288381Y-73010025D03*
X8068458Y-92486968D03*
X7923191Y-97191824D03*
X9880360Y-38673365D03*
X10051563Y-94289357D03*
X10646969Y-1704264D03*
X10745654Y-41527799D03*
X10954542Y-81668325D03*
X10888682Y-85251969D03*
X10734776Y-88904487D03*
X11724623Y-29736948D03*
X11714234Y-96239935D03*
X12408176Y-3702809D03*
X12516714Y-37744213D03*
X12473758Y-80081466D03*
X12663061Y-83560730D03*
X12759090Y-87242481D03*
X12647875Y-91010647D03*
X13495246Y-40541302D03*
X13256228Y-54087789D03*
X13591497Y-64838105D03*
X14209161Y-1953735D03*
X14159331Y-92624283D03*
X16145439Y-13618512D03*
X15957458Y-29844117D03*
X16134565Y-85424682D03*
X16870047Y-79030108D03*
X17100471Y-88097069D03*
X17810428Y-8142026D03*
X18048620Y-15128000D03*
X18128539Y-19091925D03*
X17995984Y-22290527D03*
X17854720Y-26204018D03*
X17880401Y-47725311D03*
X18027590Y-53075968D03*
X17929061Y-56793697D03*
X17759481Y-60170887D03*
X17791539Y-68168125D03*
X18917086Y-4422227D03*
X18881987Y-28694391D03*
X18893465Y-42344052D03*
X18881383Y-80929664D03*
X18925043Y-89958973D03*
X19867377Y-1553378D03*
X19993774Y-9675415D03*
X19869277Y-13326522D03*
X19745185Y-20779522D03*
X19680863Y-24270332D03*
X19606833Y-45059701D03*
X19840852Y-54677649D03*
X19638909Y-58483005D03*
X19606492Y-62053817D03*
X19744423Y-71768440D03*
X19888913Y-83637354D03*
X20717487Y-6201227D03*
X20638151Y-26854887D03*
X20881922Y-30362639D03*
X20677389Y-52335596D03*
X20752694Y-88219762D03*
X21507976Y-3599323D03*
X21653670Y-11778185D03*
X21726406Y-15333086D03*
X21597050Y-22610796D03*
X21400093Y-41281122D03*
X21391899Y-46613405D03*
X21479331Y-56532436D03*
X21788488Y-60242550D03*
X21407039Y-73808775D03*
X22320267Y-7906217D03*
X22382061Y-17769722D03*
X22671648Y-44217961D03*
X22409874Y-50540782D03*
X22575599Y-53996511D03*
X22437009Y-64772027D03*
X23514170Y-1740024D03*
X23388354Y-5557782D03*
X23389366Y-58574789D03*
X23543586Y-75554278D03*
X23313278Y-89017098D03*
X24428539Y-23550408D03*
X24063232Y-26968142D03*
X24098779Y-42082571D03*
X24095831Y-48691145D03*
X24377823Y-52073414D03*
X24434003Y-55624199D03*
X24429466Y-61033863D03*
X24290567Y-97198917D03*
X25012856Y-3727785D03*
X25053713Y-7288465D03*
X24966965Y-73784482D03*
X25358183Y-77402721D03*
X25193259Y-87163288D03*
X24959717Y-90993888D03*
X26055404Y-17226392D03*
X26210880Y-20503687D03*
X25998612Y-25355487D03*
X25984620Y-37871221D03*
X25862323Y-46931226D03*
X26242999Y-50220642D03*
X25959735Y-53802603D03*
X25965511Y-57379817D03*
X26040421Y-62950739D03*
X25950931Y-66792815D03*
X27134762Y-1728227D03*
X26907302Y-5190797D03*
X27080752Y-8862887D03*
X26868930Y-60162066D03*
X26949572Y-69458476D03*
X26811831Y-75516022D03*
X26994520Y-78982150D03*
X26944066Y-84502352D03*
X27667890Y-11594697D03*
X27674817Y-34200602D03*
X28057564Y-44921202D03*
X28082297Y-48733682D03*
X27917970Y-52065001D03*
X27980920Y-55692212D03*
X27992481Y-92527925D03*
X28732314Y-3702417D03*
X28575868Y-7374237D03*
X28723168Y-16077291D03*
X28719829Y-19662120D03*
X28763718Y-23227863D03*
X28920132Y-36827760D03*
X28809865Y-58395682D03*
X28870262Y-62253733D03*
X28861711Y-73761243D03*
X28640108Y-77442488D03*
X29520439Y-9823717D03*
X29670771Y-43235455D03*
X29726755Y-46646858D03*
X29706461Y-83796440D03*
X29469356Y-97142951D03*
X30356437Y-1786543D03*
X30746589Y-56695643D03*
X30548679Y-60202024D03*
X30552717Y-75475267D03*
X30761967Y-79114841D03*
X31272878Y-45018127D03*
X31272511Y-63036674D03*
X31658740Y-89102791D03*
X32260228Y-73659391D03*
X32150316Y-77525742D03*
X33084662Y-2649177D03*
X33429392Y-10097459D03*
X33369641Y-13583850D03*
X33218774Y-17263963D03*
X33120183Y-31575722D03*
X33448603Y-35093415D03*
X33248594Y-41598407D03*
X33132094Y-59182029D03*
X33336741Y-68462652D03*
X33218843Y-87363809D03*
X33428956Y-97245075D03*
X34025160Y-44268486D03*
X34235816Y-61927378D03*
X34134377Y-75394270D03*
X34117659Y-79161986D03*
X34888520Y-73042716D03*
X35992347Y-1909991D03*
X36043469Y-40449503D03*
X35956137Y-45774726D03*
X35911026Y-55978618D03*
X36090349Y-60097885D03*
X36025476Y-77212725D03*
X36120632Y-91759287D03*
X35773560Y-96401948D03*
X36786949Y-4510248D03*
X36926731Y-43149421D03*
X36907919Y-63177399D03*
X36701952Y-71150789D03*
X36653667Y-74878872D03*
X36679187Y-80142726D03*
X37847628Y-7118418D03*
X37666844Y-10942393D03*
X37738929Y-14269759D03*
X37791338Y-18844078D03*
X37802200Y-22654024D03*
X37559230Y-26039589D03*
X37672792Y-29453496D03*
X37615394Y-38782309D03*
X37644629Y-47547668D03*
X37840237Y-53275194D03*
X37795911Y-57719235D03*
X37794755Y-93377905D03*
X38779698Y-2607211D03*
X38567722Y-41171570D03*
X38735815Y-44915703D03*
X38895887Y-50227764D03*
X38506871Y-61235809D03*
X38540903Y-69327780D03*
X38518644Y-72693849D03*
X38487621Y-76534140D03*
X38462838Y-97068563D03*
X39376025Y-5586040D03*
X39751237Y-9165068D03*
X39752734Y-20818102D03*
X39436397Y-24123624D03*
X39762629Y-27723354D03*
X39622473Y-36650632D03*
X39601107Y-55087709D03*
X40565933Y-39619773D03*
X40597820Y-43185078D03*
X40458933Y-46681584D03*
X40384178Y-52239281D03*
X40301208Y-58525379D03*
X40360707Y-63116719D03*
X40377555Y-67672816D03*
X40556569Y-70862092D03*
X40648496Y-74593277D03*
X40669514Y-78429239D03*
X40397632Y-82636588D03*
X40624889Y-91855856D03*
X41471375Y-1712592D03*
X41477317Y-7242868D03*
X41467336Y-35244237D03*
X41482028Y-49409241D03*
X41237651Y-86166205D03*
X42209989Y-37650809D03*
X42177325Y-41425781D03*
X42326956Y-44931125D03*
X42057524Y-54092004D03*
X42264046Y-60130176D03*
X42155866Y-65467155D03*
X42050688Y-69330589D03*
X42133354Y-72693155D03*
X42095313Y-76273054D03*
X42485562Y-80121820D03*
X43153331Y-8919481D03*
X43336157Y-12393000D03*
X43285919Y-16387446D03*
X43320336Y-19675874D03*
X43059398Y-47715507D03*
X43095086Y-51249352D03*
X43214583Y-56559089D03*
X43395192Y-83694935D03*
X43328778Y-88868659D03*
X44217976Y-22501587D03*
X44142381Y-29767577D03*
X44293400Y-33177593D03*
X44146579Y-39656868D03*
X43912525Y-43213190D03*
X44235065Y-67610567D03*
X43943971Y-71024503D03*
X44243687Y-74855994D03*
X44181918Y-78413301D03*
X45098012Y-18116220D03*
X44952942Y-35813630D03*
X44984130Y-45796706D03*
X45099339Y-49583086D03*
X44970507Y-53149546D03*
X44766121Y-58686764D03*
X44931839Y-64840917D03*
X44964971Y-81068100D03*
X46031939Y-27758441D03*
X45928563Y-31485547D03*
X45677085Y-41186816D03*
X45971409Y-55643755D03*
X45864153Y-61207233D03*
X45884489Y-69118739D03*
X45924458Y-72847664D03*
X45968797Y-76377549D03*
X45935713Y-84499349D03*
X45795042Y-88154080D03*
X46962278Y-8956786D03*
X46673353Y-33976500D03*
X46832698Y-37750806D03*
X46564127Y-43923454D03*
X46836904Y-47602518D03*
X46572936Y-51243474D03*
X46954467Y-66379588D03*
X46872851Y-79012887D03*
X47729019Y-11621771D03*
X47566806Y-16242925D03*
X47897939Y-19748010D03*
X47776368Y-23195497D03*
X47898342Y-29583485D03*
X47510108Y-53811601D03*
X47480882Y-57399549D03*
X47509639Y-62815778D03*
X47678365Y-70957923D03*
X47602229Y-74696227D03*
X47755942Y-81657943D03*
X47707361Y-86358460D03*
X47627620Y-90022894D03*
D19*
X15300000Y-82400000D03*
X15300000Y-76800000D03*
X22700000Y-30400000D03*
X23400000Y-35600000D03*
X5800000Y-41200000D03*
X4000000Y-49300000D03*
X17500000Y-74200000D03*
X10800000Y-74100000D03*
X19700000Y-97000000D03*
X20700000Y-94800000D03*
X28900000Y-94700000D03*
X17150000Y-72550000D03*
X8600000Y-52000000D03*
X29900000Y-28700000D03*
X31600000Y-28200000D03*
X31600000Y-41400000D03*
X36000000Y-35300000D03*
X36000000Y-30100000D03*
X41800000Y-32000000D03*
X41800000Y-24200000D03*
X25300000Y-34600000D03*
X25300000Y-30000000D03*
X13200000Y-75900000D03*
X20200000Y-68800000D03*
X3600000Y-39300000D03*
X21300000Y-68800000D03*
X3600000Y-40500000D03*
X11200000Y-8600000D03*
X15400000Y-8600000D03*
X11100000Y-32300000D03*
X2200000Y-55900000D03*
X4119302Y-37700000D03*
D21*
X14500000Y-47800000D02*
X8500000Y-47800000D01*
X17600000Y-35800000D02*
X17600000Y-45400000D01*
X15200000Y-47800000D02*
X14500000Y-47800000D01*
X17600000Y-45400000D02*
X15200000Y-47800000D01*
X8058210Y-47358210D02*
X8500000Y-47800000D01*
X8058210Y-36058210D02*
X8058210Y-47358210D01*
X15300000Y-82400000D02*
X15300000Y-76800000D01*
X22700000Y-30400000D02*
X23400000Y-31100000D01*
X23400000Y-31100000D02*
X23400000Y-35600000D01*
X24653408Y-70600000D02*
X22810617Y-68757209D01*
X35600000Y-68300000D02*
X33300000Y-70600000D01*
X33300000Y-70600000D02*
X24653408Y-70600000D01*
X22810617Y-68757209D02*
X4453408Y-50400000D01*
X3269799Y-49650497D02*
X3269799Y-48630201D01*
X4453408Y-50400000D02*
X4019302Y-50400000D01*
X4019302Y-50400000D02*
X3269799Y-49650497D01*
X3269799Y-48630201D02*
X5800000Y-46100000D01*
X5800000Y-46100000D02*
X5800000Y-41200000D01*
X15422081Y-70600000D02*
X24653408Y-70600000D01*
X5202081Y-60380000D02*
X15422081Y-70600000D01*
X4000000Y-60380000D02*
X5202081Y-60380000D01*
X30600000Y-68300000D02*
X23000000Y-68300000D01*
X23000000Y-68300000D02*
X4000000Y-49300000D01*
X29900000Y-87900000D02*
X34100000Y-83700000D01*
X27900000Y-87900000D02*
X29900000Y-87900000D01*
X29900000Y-91900000D02*
X32100000Y-94100000D01*
X29900000Y-87900000D02*
X29900000Y-91900000D01*
X17500000Y-74200000D02*
X10900000Y-74200000D01*
X10900000Y-74200000D02*
X10800000Y-74100000D01*
X34100000Y-94831370D02*
X33131370Y-95800000D01*
X34100000Y-93700000D02*
X34100000Y-94831370D01*
X20900000Y-95800000D02*
X19700000Y-97000000D01*
X33131370Y-95800000D02*
X20900000Y-95800000D01*
X20700000Y-94800000D02*
X28800000Y-94800000D01*
X28800000Y-94800000D02*
X28900000Y-94700000D01*
X4000000Y-65460000D02*
X8460000Y-65460000D01*
X15550000Y-72550000D02*
X17150000Y-72550000D01*
X8460000Y-65460000D02*
X15550000Y-72550000D01*
X8600000Y-52000000D02*
X18700000Y-52000000D01*
X18700000Y-52000000D02*
X29900000Y-40800000D01*
X29900000Y-40800000D02*
X29900000Y-28700000D01*
X31600000Y-28200000D02*
X31600000Y-41400000D01*
X36000000Y-35300000D02*
X36000000Y-30100000D01*
X41800000Y-32000000D02*
X41800000Y-24200000D01*
X25300000Y-34600000D02*
X25300000Y-30000000D01*
X6480000Y-82620000D02*
X4000000Y-82620000D01*
X13200000Y-75900000D02*
X6480000Y-82620000D01*
X19800001Y-68400001D02*
X19800001Y-67946593D01*
X20200000Y-68800000D02*
X19800001Y-68400001D01*
X2355379Y-40544621D02*
X3600000Y-39300000D01*
X19800001Y-67946593D02*
X2355379Y-50501971D01*
X2355379Y-50501971D02*
X2355379Y-40544621D01*
X2812589Y-41287411D02*
X3600000Y-40500000D01*
X21300000Y-68800000D02*
X2812589Y-50312589D01*
X2812589Y-50312589D02*
X2812589Y-41287411D01*
X11200000Y-8600000D02*
X15400000Y-8600000D01*
X2896000Y-75000000D02*
X1600000Y-73704000D01*
X4000000Y-75000000D02*
X2896000Y-75000000D01*
X1600000Y-73704000D02*
X1600000Y-56700000D01*
X1600000Y-56700000D02*
X1300000Y-56400000D01*
X1342790Y-43457210D02*
X1342790Y-35657210D01*
X1300000Y-56400000D02*
X1300000Y-43500000D01*
X1300000Y-43500000D02*
X1342790Y-43457210D01*
X1342790Y-35657210D02*
X4700000Y-32300000D01*
X4700000Y-32300000D02*
X11100000Y-32300000D01*
X2200000Y-55334315D02*
X1800000Y-54934315D01*
X2200000Y-55900000D02*
X2200000Y-55334315D01*
X1800000Y-40019302D02*
X4119302Y-37700000D01*
X1800000Y-54934315D02*
X1800000Y-40019302D01*
G36*
X7545000Y-673000D02*
G01*
X7545000Y-973000D01*
X8553000Y-973000D01*
X8553000Y-953000D01*
X8807000Y-953000D01*
X8807000Y-973000D01*
X9815000Y-973000D01*
X9815000Y-673000D01*
X9812235Y-660000D01*
X16187765Y-660000D01*
X16185000Y-673000D01*
X16185000Y-973000D01*
X17193000Y-973000D01*
X17193000Y-953000D01*
X17447000Y-953000D01*
X17447000Y-973000D01*
X18455000Y-973000D01*
X18455000Y-673000D01*
X18452235Y-660000D01*
X45889922Y-660000D01*
X45350707Y-712366D01*
X44721797Y-902208D01*
X44142008Y-1211096D01*
X44134411Y-1216172D01*
X43834231Y-1654626D01*
X46000000Y-3820395D01*
X46014143Y-3806253D01*
X46193748Y-3985858D01*
X46179605Y-4000000D01*
X48345374Y-6165769D01*
X48783828Y-5865589D01*
X49094296Y-5286644D01*
X49285852Y-4658254D01*
X49340000Y-4116057D01*
X49340001Y-94889932D01*
X49287634Y-94350707D01*
X49097792Y-93721797D01*
X48788904Y-93142008D01*
X48783828Y-93134411D01*
X48345374Y-92834231D01*
X46179605Y-95000000D01*
X46193748Y-95014143D01*
X46014143Y-95193748D01*
X46000000Y-95179605D01*
X43834231Y-97345374D01*
X44134411Y-97783828D01*
X44713356Y-98094296D01*
X45341746Y-98285852D01*
X45883943Y-98340000D01*
X28076801Y-98340000D01*
X28114759Y-98314637D01*
X28314637Y-98114759D01*
X28471680Y-97879727D01*
X28579853Y-97618574D01*
X28635000Y-97341335D01*
X28635000Y-97058665D01*
X28579853Y-96781426D01*
X28488964Y-96562000D01*
X33093947Y-96562000D01*
X33131370Y-96565686D01*
X33168793Y-96562000D01*
X33168796Y-96562000D01*
X33280748Y-96550974D01*
X33424385Y-96507402D01*
X33556762Y-96436645D01*
X33672792Y-96341422D01*
X33696654Y-96312346D01*
X34612346Y-95396654D01*
X34641422Y-95372792D01*
X34711902Y-95286912D01*
X34736645Y-95256763D01*
X34781694Y-95172481D01*
X34807402Y-95124385D01*
X34850974Y-94980748D01*
X34856949Y-94920082D01*
X35014759Y-94814637D01*
X35070731Y-94758665D01*
X40065000Y-94758665D01*
X40065000Y-95041335D01*
X40120147Y-95318574D01*
X40228320Y-95579727D01*
X40385363Y-95814759D01*
X40585241Y-96014637D01*
X40820273Y-96171680D01*
X41081426Y-96279853D01*
X41358665Y-96335000D01*
X41641335Y-96335000D01*
X41918574Y-96279853D01*
X42179727Y-96171680D01*
X42414759Y-96014637D01*
X42614637Y-95814759D01*
X42716359Y-95662521D01*
X42902208Y-96278203D01*
X43211096Y-96857992D01*
X43216172Y-96865589D01*
X43654626Y-97165769D01*
X45820395Y-95000000D01*
X45806253Y-94985858D01*
X45985858Y-94806253D01*
X46000000Y-94820395D01*
X48165769Y-92654626D01*
X47865589Y-92216172D01*
X47286644Y-91905704D01*
X46658254Y-91714148D01*
X46004569Y-91648866D01*
X45350707Y-91712366D01*
X44972477Y-91826538D01*
X45026300Y-91611816D01*
X45040217Y-91329488D01*
X44998787Y-91049870D01*
X44903603Y-90783708D01*
X44836671Y-90658486D01*
X44592702Y-90586903D01*
X43779605Y-91400000D01*
X43793748Y-91414143D01*
X43614143Y-91593748D01*
X43600000Y-91579605D01*
X42786903Y-92392702D01*
X42858486Y-92636671D01*
X43113996Y-92757571D01*
X43388184Y-92826300D01*
X43647537Y-92839084D01*
X43216172Y-93134411D01*
X42905704Y-93713356D01*
X42757601Y-94199202D01*
X42614637Y-93985241D01*
X42414759Y-93785363D01*
X42179727Y-93628320D01*
X41918574Y-93520147D01*
X41641335Y-93465000D01*
X41358665Y-93465000D01*
X41081426Y-93520147D01*
X40820273Y-93628320D01*
X40585241Y-93785363D01*
X40385363Y-93985241D01*
X40228320Y-94220273D01*
X40120147Y-94481426D01*
X40065000Y-94758665D01*
X35070731Y-94758665D01*
X35214637Y-94614759D01*
X35371680Y-94379727D01*
X35479853Y-94118574D01*
X35535000Y-93841335D01*
X35535000Y-93558665D01*
X35479853Y-93281426D01*
X35371680Y-93020273D01*
X35214637Y-92785241D01*
X35014759Y-92585363D01*
X34779727Y-92428320D01*
X34518574Y-92320147D01*
X34241335Y-92265000D01*
X33958665Y-92265000D01*
X33681426Y-92320147D01*
X33420273Y-92428320D01*
X33185241Y-92585363D01*
X32985363Y-92785241D01*
X32901992Y-92910015D01*
X32779727Y-92828320D01*
X32518574Y-92720147D01*
X32241335Y-92665000D01*
X31958665Y-92665000D01*
X31778473Y-92700843D01*
X30662000Y-91584370D01*
X30662000Y-91470512D01*
X42159783Y-91470512D01*
X42201213Y-91750130D01*
X42296397Y-92016292D01*
X42363329Y-92141514D01*
X42607298Y-92213097D01*
X43420395Y-91400000D01*
X42607298Y-90586903D01*
X42363329Y-90658486D01*
X42242429Y-90913996D01*
X42173700Y-91188184D01*
X42159783Y-91470512D01*
X30662000Y-91470512D01*
X30662000Y-89778363D01*
X34865000Y-89778363D01*
X34865000Y-90021637D01*
X34912460Y-90260236D01*
X35005557Y-90484992D01*
X35140713Y-90687267D01*
X35312733Y-90859287D01*
X35515008Y-90994443D01*
X35739764Y-91087540D01*
X35978363Y-91135000D01*
X36221637Y-91135000D01*
X36460236Y-91087540D01*
X36684992Y-90994443D01*
X36887267Y-90859287D01*
X37059287Y-90687267D01*
X37079731Y-90656670D01*
X37185363Y-90814759D01*
X37385241Y-91014637D01*
X37620273Y-91171680D01*
X37881426Y-91279853D01*
X38158665Y-91335000D01*
X38441335Y-91335000D01*
X38718574Y-91279853D01*
X38979727Y-91171680D01*
X39214759Y-91014637D01*
X39414637Y-90814759D01*
X39571680Y-90579727D01*
X39643102Y-90407298D01*
X42786903Y-90407298D01*
X43600000Y-91220395D01*
X44413097Y-90407298D01*
X44341514Y-90163329D01*
X44086004Y-90042429D01*
X43811816Y-89973700D01*
X43529488Y-89959783D01*
X43249870Y-90001213D01*
X42983708Y-90096397D01*
X42858486Y-90163329D01*
X42786903Y-90407298D01*
X39643102Y-90407298D01*
X39679853Y-90318574D01*
X39735000Y-90041335D01*
X39735000Y-89758665D01*
X39679853Y-89481426D01*
X39571680Y-89220273D01*
X39414637Y-88985241D01*
X39214759Y-88785363D01*
X39204283Y-88778363D01*
X39865000Y-88778363D01*
X39865000Y-89021637D01*
X39912460Y-89260236D01*
X40005557Y-89484992D01*
X40140713Y-89687267D01*
X40312733Y-89859287D01*
X40515008Y-89994443D01*
X40739764Y-90087540D01*
X40978363Y-90135000D01*
X41221637Y-90135000D01*
X41460236Y-90087540D01*
X41684992Y-89994443D01*
X41887267Y-89859287D01*
X42059287Y-89687267D01*
X42194443Y-89484992D01*
X42287540Y-89260236D01*
X42335000Y-89021637D01*
X42335000Y-88778363D01*
X42287540Y-88539764D01*
X42194443Y-88315008D01*
X42059287Y-88112733D01*
X41887267Y-87940713D01*
X41684992Y-87805557D01*
X41460236Y-87712460D01*
X41221637Y-87665000D01*
X40978363Y-87665000D01*
X40739764Y-87712460D01*
X40515008Y-87805557D01*
X40312733Y-87940713D01*
X40140713Y-88112733D01*
X40005557Y-88315008D01*
X39912460Y-88539764D01*
X39865000Y-88778363D01*
X39204283Y-88778363D01*
X39089985Y-88701992D01*
X39171680Y-88579727D01*
X39279853Y-88318574D01*
X39335000Y-88041335D01*
X39335000Y-87758665D01*
X39279853Y-87481426D01*
X39243103Y-87392702D01*
X42786903Y-87392702D01*
X42858486Y-87636671D01*
X43113996Y-87757571D01*
X43388184Y-87826300D01*
X43670512Y-87840217D01*
X43950130Y-87798787D01*
X44216292Y-87703603D01*
X44341514Y-87636671D01*
X44413097Y-87392702D01*
X43600000Y-86579605D01*
X42786903Y-87392702D01*
X39243103Y-87392702D01*
X39171680Y-87220273D01*
X39014637Y-86985241D01*
X38814759Y-86785363D01*
X38579727Y-86628320D01*
X38318574Y-86520147D01*
X38069046Y-86470512D01*
X42159783Y-86470512D01*
X42201213Y-86750130D01*
X42296397Y-87016292D01*
X42363329Y-87141514D01*
X42607298Y-87213097D01*
X43420395Y-86400000D01*
X43779605Y-86400000D01*
X44592702Y-87213097D01*
X44836671Y-87141514D01*
X44957571Y-86886004D01*
X45026300Y-86611816D01*
X45040217Y-86329488D01*
X44998787Y-86049870D01*
X44903603Y-85783708D01*
X44836671Y-85658486D01*
X44592702Y-85586903D01*
X43779605Y-86400000D01*
X43420395Y-86400000D01*
X42607298Y-85586903D01*
X42363329Y-85658486D01*
X42242429Y-85913996D01*
X42173700Y-86188184D01*
X42159783Y-86470512D01*
X38069046Y-86470512D01*
X38041335Y-86465000D01*
X37758665Y-86465000D01*
X37481426Y-86520147D01*
X37220273Y-86628320D01*
X36985241Y-86785363D01*
X36785363Y-86985241D01*
X36628320Y-87220273D01*
X36520147Y-87481426D01*
X36465000Y-87758665D01*
X36465000Y-88041335D01*
X36520147Y-88318574D01*
X36628320Y-88579727D01*
X36785363Y-88814759D01*
X36985241Y-89014637D01*
X37110015Y-89098008D01*
X37079731Y-89143330D01*
X37059287Y-89112733D01*
X36887267Y-88940713D01*
X36684992Y-88805557D01*
X36460236Y-88712460D01*
X36221637Y-88665000D01*
X35978363Y-88665000D01*
X35739764Y-88712460D01*
X35515008Y-88805557D01*
X35312733Y-88940713D01*
X35140713Y-89112733D01*
X35005557Y-89315008D01*
X34912460Y-89539764D01*
X34865000Y-89778363D01*
X30662000Y-89778363D01*
X30662000Y-88215630D01*
X33184928Y-85692702D01*
X34986903Y-85692702D01*
X35058486Y-85936671D01*
X35313996Y-86057571D01*
X35588184Y-86126300D01*
X35870512Y-86140217D01*
X36150130Y-86098787D01*
X36416292Y-86003603D01*
X36541514Y-85936671D01*
X36613097Y-85692702D01*
X35800000Y-84879605D01*
X34986903Y-85692702D01*
X33184928Y-85692702D01*
X33778474Y-85099157D01*
X33958665Y-85135000D01*
X34241335Y-85135000D01*
X34418931Y-85099674D01*
X34496397Y-85316292D01*
X34563329Y-85441514D01*
X34807298Y-85513097D01*
X35620395Y-84700000D01*
X35979605Y-84700000D01*
X36792702Y-85513097D01*
X37036671Y-85441514D01*
X37052861Y-85407298D01*
X42786903Y-85407298D01*
X43600000Y-86220395D01*
X44413097Y-85407298D01*
X44341514Y-85163329D01*
X44086004Y-85042429D01*
X43811816Y-84973700D01*
X43529488Y-84959783D01*
X43249870Y-85001213D01*
X42983708Y-85096397D01*
X42858486Y-85163329D01*
X42786903Y-85407298D01*
X37052861Y-85407298D01*
X37157571Y-85186004D01*
X37226300Y-84911816D01*
X37240217Y-84629488D01*
X37198787Y-84349870D01*
X37103603Y-84083708D01*
X37036671Y-83958486D01*
X36792702Y-83886903D01*
X35979605Y-84700000D01*
X35620395Y-84700000D01*
X35606253Y-84685858D01*
X35785858Y-84506253D01*
X35800000Y-84520395D01*
X36613097Y-83707298D01*
X36541514Y-83463329D01*
X36286004Y-83342429D01*
X36011816Y-83273700D01*
X35729488Y-83259783D01*
X35482818Y-83296331D01*
X35479853Y-83281426D01*
X35371680Y-83020273D01*
X35214637Y-82785241D01*
X35014759Y-82585363D01*
X34779727Y-82428320D01*
X34518574Y-82320147D01*
X34241335Y-82265000D01*
X33958665Y-82265000D01*
X33681426Y-82320147D01*
X33420273Y-82428320D01*
X33185241Y-82585363D01*
X32985363Y-82785241D01*
X32901992Y-82910015D01*
X32779727Y-82828320D01*
X32518574Y-82720147D01*
X32241335Y-82665000D01*
X31958665Y-82665000D01*
X31681426Y-82720147D01*
X31420273Y-82828320D01*
X31185241Y-82985363D01*
X30985363Y-83185241D01*
X30828320Y-83420273D01*
X30720147Y-83681426D01*
X30665000Y-83958665D01*
X30665000Y-84241335D01*
X30720147Y-84518574D01*
X30828320Y-84779727D01*
X30985363Y-85014759D01*
X31185241Y-85214637D01*
X31378561Y-85343809D01*
X29584370Y-87138000D01*
X29116707Y-87138000D01*
X29014637Y-86985241D01*
X28814759Y-86785363D01*
X28579727Y-86628320D01*
X28318574Y-86520147D01*
X28041335Y-86465000D01*
X27758665Y-86465000D01*
X27481426Y-86520147D01*
X27220273Y-86628320D01*
X26985241Y-86785363D01*
X26785363Y-86985241D01*
X26628320Y-87220273D01*
X26520147Y-87481426D01*
X26465000Y-87758665D01*
X26465000Y-88041335D01*
X26520147Y-88318574D01*
X26628320Y-88579727D01*
X26785363Y-88814759D01*
X26985241Y-89014637D01*
X27040880Y-89051814D01*
X26928320Y-89220273D01*
X26820147Y-89481426D01*
X26765000Y-89758665D01*
X26765000Y-90041335D01*
X26820147Y-90318574D01*
X26928320Y-90579727D01*
X27085363Y-90814759D01*
X27285241Y-91014637D01*
X27520273Y-91171680D01*
X27781426Y-91279853D01*
X28058665Y-91335000D01*
X28341335Y-91335000D01*
X28618574Y-91279853D01*
X28879727Y-91171680D01*
X29114759Y-91014637D01*
X29138001Y-90991395D01*
X29138001Y-91862567D01*
X29134314Y-91900000D01*
X29149027Y-92049378D01*
X29192599Y-92193015D01*
X29263355Y-92325392D01*
X29334721Y-92412351D01*
X29358579Y-92441422D01*
X29387649Y-92465279D01*
X30700843Y-93778473D01*
X30665000Y-93958665D01*
X30665000Y-94241335D01*
X30720147Y-94518574D01*
X30828320Y-94779727D01*
X30985363Y-95014759D01*
X31008604Y-95038000D01*
X29880272Y-95038000D01*
X29895226Y-95001898D01*
X29935000Y-94801939D01*
X29935000Y-94598061D01*
X29895226Y-94398102D01*
X29817205Y-94209744D01*
X29703937Y-94040226D01*
X29559774Y-93896063D01*
X29390256Y-93782795D01*
X29201898Y-93704774D01*
X29001939Y-93665000D01*
X28798061Y-93665000D01*
X28598102Y-93704774D01*
X28409744Y-93782795D01*
X28240226Y-93896063D01*
X28098289Y-94038000D01*
X21401711Y-94038000D01*
X21359774Y-93996063D01*
X21190256Y-93882795D01*
X21001898Y-93804774D01*
X20801939Y-93765000D01*
X20598061Y-93765000D01*
X20398102Y-93804774D01*
X20209744Y-93882795D01*
X20040226Y-93996063D01*
X19896063Y-94140226D01*
X19782795Y-94309744D01*
X19704774Y-94498102D01*
X19665000Y-94698061D01*
X19665000Y-94901939D01*
X19704774Y-95101898D01*
X19782795Y-95290256D01*
X19896063Y-95459774D01*
X20029329Y-95593040D01*
X19657370Y-95965000D01*
X19598061Y-95965000D01*
X19398102Y-96004774D01*
X19209744Y-96082795D01*
X19040226Y-96196063D01*
X18896063Y-96340226D01*
X18782795Y-96509744D01*
X18704774Y-96698102D01*
X18665000Y-96898061D01*
X18665000Y-97101939D01*
X18704774Y-97301898D01*
X18782795Y-97490256D01*
X18896063Y-97659774D01*
X19040226Y-97803937D01*
X19209744Y-97917205D01*
X19398102Y-97995226D01*
X19598061Y-98035000D01*
X19801939Y-98035000D01*
X20001898Y-97995226D01*
X20190256Y-97917205D01*
X20359774Y-97803937D01*
X20503937Y-97659774D01*
X20617205Y-97490256D01*
X20695226Y-97301898D01*
X20735000Y-97101939D01*
X20735000Y-97042630D01*
X21215631Y-96562000D01*
X25911036Y-96562000D01*
X25820147Y-96781426D01*
X25765000Y-97058665D01*
X25765000Y-97341335D01*
X25820147Y-97618574D01*
X25928320Y-97879727D01*
X26085363Y-98114759D01*
X26285241Y-98314637D01*
X26323199Y-98340000D01*
X4110078Y-98340000D01*
X4649293Y-98287634D01*
X5278203Y-98097792D01*
X5857992Y-97788904D01*
X5865589Y-97783828D01*
X6165769Y-97345374D01*
X4000000Y-95179605D01*
X3985858Y-95193748D01*
X3806253Y-95014143D01*
X3820395Y-95000000D01*
X4179605Y-95000000D01*
X6345374Y-97165769D01*
X6783828Y-96865589D01*
X7094296Y-96286644D01*
X7285852Y-95658254D01*
X7351134Y-95004569D01*
X7287634Y-94350707D01*
X7097792Y-93721797D01*
X6788904Y-93142008D01*
X6783828Y-93134411D01*
X6345374Y-92834231D01*
X4179605Y-95000000D01*
X3820395Y-95000000D01*
X1654626Y-92834231D01*
X1216172Y-93134411D01*
X905704Y-93713356D01*
X714148Y-94341746D01*
X660000Y-94883943D01*
X660000Y-92654626D01*
X1834231Y-92654626D01*
X4000000Y-94820395D01*
X6165769Y-92654626D01*
X5865589Y-92216172D01*
X5286644Y-91905704D01*
X4658254Y-91714148D01*
X4004569Y-91648866D01*
X3350707Y-91712366D01*
X2721797Y-91902208D01*
X2142008Y-92211096D01*
X2134411Y-92216172D01*
X1834231Y-92654626D01*
X660000Y-92654626D01*
X660000Y-91258665D01*
X21165000Y-91258665D01*
X21165000Y-91541335D01*
X21220147Y-91818574D01*
X21328320Y-92079727D01*
X21485363Y-92314759D01*
X21685241Y-92514637D01*
X21920273Y-92671680D01*
X22181426Y-92779853D01*
X22458665Y-92835000D01*
X22741335Y-92835000D01*
X23018574Y-92779853D01*
X23279727Y-92671680D01*
X23514759Y-92514637D01*
X23714637Y-92314759D01*
X23871680Y-92079727D01*
X23979853Y-91818574D01*
X24035000Y-91541335D01*
X24035000Y-91258665D01*
X23979853Y-90981426D01*
X23871680Y-90720273D01*
X23714637Y-90485241D01*
X23514759Y-90285363D01*
X23279727Y-90128320D01*
X23018574Y-90020147D01*
X22741335Y-89965000D01*
X22458665Y-89965000D01*
X22181426Y-90020147D01*
X21920273Y-90128320D01*
X21685241Y-90285363D01*
X21485363Y-90485241D01*
X21328320Y-90720273D01*
X21220147Y-90981426D01*
X21165000Y-91258665D01*
X660000Y-91258665D01*
X660000Y-56819115D01*
X663355Y-56825392D01*
X697213Y-56866648D01*
X758578Y-56941422D01*
X787654Y-56965284D01*
X838001Y-57015631D01*
X838000Y-73666577D01*
X834314Y-73704000D01*
X838000Y-73741423D01*
X838000Y-73741425D01*
X849026Y-73853377D01*
X892598Y-73997014D01*
X892599Y-73997015D01*
X963355Y-74129392D01*
X980268Y-74150000D01*
X1058578Y-74245422D01*
X1087654Y-74269284D01*
X2330721Y-75512352D01*
X2354578Y-75541422D01*
X2383648Y-75565279D01*
X2470607Y-75636645D01*
X2511928Y-75658731D01*
X2511928Y-75850000D01*
X2524188Y-75974482D01*
X2560498Y-76094180D01*
X2619463Y-76204494D01*
X2698815Y-76301185D01*
X2795506Y-76380537D01*
X2905820Y-76439502D01*
X2986466Y-76463966D01*
X2902412Y-76539731D01*
X2728359Y-76773080D01*
X2603175Y-77035901D01*
X2558524Y-77183110D01*
X2679845Y-77413000D01*
X3873000Y-77413000D01*
X3873000Y-77393000D01*
X4127000Y-77393000D01*
X4127000Y-77413000D01*
X5320155Y-77413000D01*
X5441476Y-77183110D01*
X5396825Y-77035901D01*
X5271641Y-76773080D01*
X5097588Y-76539731D01*
X5013534Y-76463966D01*
X5094180Y-76439502D01*
X5204494Y-76380537D01*
X5301185Y-76301185D01*
X5380537Y-76204494D01*
X5439502Y-76094180D01*
X5475812Y-75974482D01*
X5488072Y-75850000D01*
X5488072Y-74150000D01*
X5475812Y-74025518D01*
X5439502Y-73905820D01*
X5380537Y-73795506D01*
X5301185Y-73698815D01*
X5204494Y-73619463D01*
X5094180Y-73560498D01*
X4974482Y-73524188D01*
X4850000Y-73511928D01*
X3150000Y-73511928D01*
X3025518Y-73524188D01*
X2905820Y-73560498D01*
X2795506Y-73619463D01*
X2698815Y-73698815D01*
X2686929Y-73713298D01*
X2362000Y-73388370D01*
X2362000Y-68850000D01*
X2511928Y-68850000D01*
X2524188Y-68974482D01*
X2560498Y-69094180D01*
X2619463Y-69204494D01*
X2698815Y-69301185D01*
X2795506Y-69380537D01*
X2905820Y-69439502D01*
X3025518Y-69475812D01*
X3150000Y-69488072D01*
X3714250Y-69485000D01*
X3873000Y-69326250D01*
X3873000Y-68127000D01*
X4127000Y-68127000D01*
X4127000Y-69326250D01*
X4285750Y-69485000D01*
X4850000Y-69488072D01*
X4974482Y-69475812D01*
X5094180Y-69439502D01*
X5204494Y-69380537D01*
X5301185Y-69301185D01*
X5380537Y-69204494D01*
X5439502Y-69094180D01*
X5475812Y-68974482D01*
X5488072Y-68850000D01*
X5485000Y-68285750D01*
X5326250Y-68127000D01*
X4127000Y-68127000D01*
X3873000Y-68127000D01*
X2673750Y-68127000D01*
X2515000Y-68285750D01*
X2511928Y-68850000D01*
X2362000Y-68850000D01*
X2362000Y-56923053D01*
X2501898Y-56895226D01*
X2690256Y-56817205D01*
X2859774Y-56703937D01*
X3003937Y-56559774D01*
X3117205Y-56390256D01*
X3195226Y-56201898D01*
X3235000Y-56001939D01*
X3235000Y-55798061D01*
X3195226Y-55598102D01*
X3117205Y-55409744D01*
X3003937Y-55240226D01*
X2951228Y-55187517D01*
X2950974Y-55184937D01*
X2907402Y-55041300D01*
X2836645Y-54908923D01*
X2741422Y-54792893D01*
X2712346Y-54769031D01*
X2562000Y-54618685D01*
X2562000Y-51786222D01*
X19038001Y-68262224D01*
X19038001Y-68362578D01*
X19034315Y-68400001D01*
X19038001Y-68437424D01*
X19038001Y-68437426D01*
X19049027Y-68549378D01*
X19092599Y-68693015D01*
X19125536Y-68754636D01*
X19163356Y-68825393D01*
X19165000Y-68827396D01*
X19165000Y-68901939D01*
X19204774Y-69101898D01*
X19282795Y-69290256D01*
X19396063Y-69459774D01*
X19540226Y-69603937D01*
X19709744Y-69717205D01*
X19898102Y-69795226D01*
X20098061Y-69835000D01*
X20301939Y-69835000D01*
X20501898Y-69795226D01*
X20690256Y-69717205D01*
X20750000Y-69677285D01*
X20809744Y-69717205D01*
X20998102Y-69795226D01*
X21198061Y-69835000D01*
X21401939Y-69835000D01*
X21601898Y-69795226D01*
X21790256Y-69717205D01*
X21959774Y-69603937D01*
X22103937Y-69459774D01*
X22217205Y-69290256D01*
X22231506Y-69255729D01*
X22298265Y-69322488D01*
X22298270Y-69322492D01*
X22813778Y-69838000D01*
X15737711Y-69838000D01*
X5767365Y-59867654D01*
X5743503Y-59838578D01*
X5627473Y-59743355D01*
X5495096Y-59672598D01*
X5351459Y-59629026D01*
X5278583Y-59621849D01*
X5240706Y-59550986D01*
X5055134Y-59324866D01*
X4829014Y-59139294D01*
X4571034Y-59001401D01*
X4291111Y-58916487D01*
X4072950Y-58895000D01*
X3927050Y-58895000D01*
X3708889Y-58916487D01*
X3428966Y-59001401D01*
X3170986Y-59139294D01*
X2944866Y-59324866D01*
X2759294Y-59550986D01*
X2621401Y-59808966D01*
X2536487Y-60088889D01*
X2507815Y-60380000D01*
X2536487Y-60671111D01*
X2621401Y-60951034D01*
X2759294Y-61209014D01*
X2944866Y-61435134D01*
X3170986Y-61620706D01*
X3225791Y-61650000D01*
X3170986Y-61679294D01*
X2944866Y-61864866D01*
X2759294Y-62090986D01*
X2621401Y-62348966D01*
X2536487Y-62628889D01*
X2507815Y-62920000D01*
X2536487Y-63211111D01*
X2621401Y-63491034D01*
X2759294Y-63749014D01*
X2944866Y-63975134D01*
X3170986Y-64160706D01*
X3225791Y-64190000D01*
X3170986Y-64219294D01*
X2944866Y-64404866D01*
X2759294Y-64630986D01*
X2621401Y-64888966D01*
X2536487Y-65168889D01*
X2507815Y-65460000D01*
X2536487Y-65751111D01*
X2621401Y-66031034D01*
X2759294Y-66289014D01*
X2944866Y-66515134D01*
X2974687Y-66539607D01*
X2905820Y-66560498D01*
X2795506Y-66619463D01*
X2698815Y-66698815D01*
X2619463Y-66795506D01*
X2560498Y-66905820D01*
X2524188Y-67025518D01*
X2511928Y-67150000D01*
X2515000Y-67714250D01*
X2673750Y-67873000D01*
X3873000Y-67873000D01*
X3873000Y-67853000D01*
X4127000Y-67853000D01*
X4127000Y-67873000D01*
X5326250Y-67873000D01*
X5485000Y-67714250D01*
X5488072Y-67150000D01*
X5475812Y-67025518D01*
X5439502Y-66905820D01*
X5380537Y-66795506D01*
X5301185Y-66698815D01*
X5204494Y-66619463D01*
X5094180Y-66560498D01*
X5025313Y-66539607D01*
X5055134Y-66515134D01*
X5240706Y-66289014D01*
X5276526Y-66222000D01*
X8144370Y-66222000D01*
X14984721Y-73062352D01*
X15008578Y-73091422D01*
X15124608Y-73186645D01*
X15256985Y-73257402D01*
X15400622Y-73300974D01*
X15512574Y-73312000D01*
X15512576Y-73312000D01*
X15549999Y-73315686D01*
X15587422Y-73312000D01*
X16448289Y-73312000D01*
X16490226Y-73353937D01*
X16616036Y-73438000D01*
X11601711Y-73438000D01*
X11459774Y-73296063D01*
X11290256Y-73182795D01*
X11101898Y-73104774D01*
X10901939Y-73065000D01*
X10698061Y-73065000D01*
X10498102Y-73104774D01*
X10309744Y-73182795D01*
X10140226Y-73296063D01*
X9996063Y-73440226D01*
X9882795Y-73609744D01*
X9804774Y-73798102D01*
X9765000Y-73998061D01*
X9765000Y-74201939D01*
X9804774Y-74401898D01*
X9882795Y-74590256D01*
X9996063Y-74759774D01*
X10140226Y-74903937D01*
X10309744Y-75017205D01*
X10498102Y-75095226D01*
X10698061Y-75135000D01*
X10901939Y-75135000D01*
X11101898Y-75095226D01*
X11290256Y-75017205D01*
X11372876Y-74962000D01*
X12759947Y-74962000D01*
X12709744Y-74982795D01*
X12540226Y-75096063D01*
X12396063Y-75240226D01*
X12282795Y-75409744D01*
X12204774Y-75598102D01*
X12165000Y-75798061D01*
X12165000Y-75857369D01*
X6164370Y-81858000D01*
X5276526Y-81858000D01*
X5240706Y-81790986D01*
X5055134Y-81564866D01*
X4829014Y-81379294D01*
X4774209Y-81350000D01*
X4829014Y-81320706D01*
X5055134Y-81135134D01*
X5240706Y-80909014D01*
X5378599Y-80651034D01*
X5463513Y-80371111D01*
X5492185Y-80080000D01*
X5463513Y-79788889D01*
X5378599Y-79508966D01*
X5240706Y-79250986D01*
X5055134Y-79024866D01*
X4829014Y-78839294D01*
X4764477Y-78804799D01*
X4881355Y-78735178D01*
X5097588Y-78540269D01*
X5271641Y-78306920D01*
X5396825Y-78044099D01*
X5441476Y-77896890D01*
X5320155Y-77667000D01*
X4127000Y-77667000D01*
X4127000Y-77687000D01*
X3873000Y-77687000D01*
X3873000Y-77667000D01*
X2679845Y-77667000D01*
X2558524Y-77896890D01*
X2603175Y-78044099D01*
X2728359Y-78306920D01*
X2902412Y-78540269D01*
X3118645Y-78735178D01*
X3235523Y-78804799D01*
X3170986Y-78839294D01*
X2944866Y-79024866D01*
X2759294Y-79250986D01*
X2621401Y-79508966D01*
X2536487Y-79788889D01*
X2507815Y-80080000D01*
X2536487Y-80371111D01*
X2621401Y-80651034D01*
X2759294Y-80909014D01*
X2944866Y-81135134D01*
X3170986Y-81320706D01*
X3225791Y-81350000D01*
X3170986Y-81379294D01*
X2944866Y-81564866D01*
X2759294Y-81790986D01*
X2621401Y-82048966D01*
X2536487Y-82328889D01*
X2507815Y-82620000D01*
X2536487Y-82911111D01*
X2621401Y-83191034D01*
X2759294Y-83449014D01*
X2944866Y-83675134D01*
X3170986Y-83860706D01*
X3225791Y-83890000D01*
X3170986Y-83919294D01*
X2944866Y-84104866D01*
X2759294Y-84330986D01*
X2621401Y-84588966D01*
X2536487Y-84868889D01*
X2507815Y-85160000D01*
X2536487Y-85451111D01*
X2621401Y-85731034D01*
X2759294Y-85989014D01*
X2944866Y-86215134D01*
X3170986Y-86400706D01*
X3428966Y-86538599D01*
X3708889Y-86623513D01*
X3927050Y-86645000D01*
X4072950Y-86645000D01*
X4291111Y-86623513D01*
X4571034Y-86538599D01*
X4829014Y-86400706D01*
X5002091Y-86258665D01*
X21165000Y-86258665D01*
X21165000Y-86541335D01*
X21220147Y-86818574D01*
X21328320Y-87079727D01*
X21485363Y-87314759D01*
X21685241Y-87514637D01*
X21920273Y-87671680D01*
X22181426Y-87779853D01*
X22458665Y-87835000D01*
X22741335Y-87835000D01*
X23018574Y-87779853D01*
X23279727Y-87671680D01*
X23514759Y-87514637D01*
X23714637Y-87314759D01*
X23871680Y-87079727D01*
X23979853Y-86818574D01*
X24035000Y-86541335D01*
X24035000Y-86258665D01*
X23979853Y-85981426D01*
X23871680Y-85720273D01*
X23714637Y-85485241D01*
X23514759Y-85285363D01*
X23279727Y-85128320D01*
X23018574Y-85020147D01*
X22741335Y-84965000D01*
X22458665Y-84965000D01*
X22181426Y-85020147D01*
X21920273Y-85128320D01*
X21685241Y-85285363D01*
X21485363Y-85485241D01*
X21328320Y-85720273D01*
X21220147Y-85981426D01*
X21165000Y-86258665D01*
X5002091Y-86258665D01*
X5055134Y-86215134D01*
X5240706Y-85989014D01*
X5378599Y-85731034D01*
X5463513Y-85451111D01*
X5492185Y-85160000D01*
X5463513Y-84868889D01*
X5378599Y-84588966D01*
X5240706Y-84330986D01*
X5055134Y-84104866D01*
X4829014Y-83919294D01*
X4774209Y-83890000D01*
X4829014Y-83860706D01*
X5055134Y-83675134D01*
X5240706Y-83449014D01*
X5276526Y-83382000D01*
X6442577Y-83382000D01*
X6480000Y-83385686D01*
X6517423Y-83382000D01*
X6517426Y-83382000D01*
X6629378Y-83370974D01*
X6773015Y-83327402D01*
X6905392Y-83256645D01*
X7021422Y-83161422D01*
X7045284Y-83132346D01*
X13242631Y-76935000D01*
X13301939Y-76935000D01*
X13501898Y-76895226D01*
X13690256Y-76817205D01*
X13859774Y-76703937D01*
X13865650Y-76698061D01*
X14265000Y-76698061D01*
X14265000Y-76901939D01*
X14304774Y-77101898D01*
X14382795Y-77290256D01*
X14496063Y-77459774D01*
X14538001Y-77501712D01*
X14538000Y-81698289D01*
X14496063Y-81740226D01*
X14382795Y-81909744D01*
X14304774Y-82098102D01*
X14265000Y-82298061D01*
X14265000Y-82501939D01*
X14304774Y-82701898D01*
X14382795Y-82890256D01*
X14496063Y-83059774D01*
X14640226Y-83203937D01*
X14809744Y-83317205D01*
X14998102Y-83395226D01*
X15198061Y-83435000D01*
X15401939Y-83435000D01*
X15601898Y-83395226D01*
X15790256Y-83317205D01*
X15959774Y-83203937D01*
X16103937Y-83059774D01*
X16217205Y-82890256D01*
X16230290Y-82858665D01*
X23365000Y-82858665D01*
X23365000Y-83141335D01*
X23420147Y-83418574D01*
X23528320Y-83679727D01*
X23685363Y-83914759D01*
X23885241Y-84114637D01*
X24120273Y-84271680D01*
X24381426Y-84379853D01*
X24658665Y-84435000D01*
X24941335Y-84435000D01*
X25218574Y-84379853D01*
X25479727Y-84271680D01*
X25714759Y-84114637D01*
X25914637Y-83914759D01*
X26071680Y-83679727D01*
X26179853Y-83418574D01*
X26235000Y-83141335D01*
X26235000Y-82858665D01*
X26179853Y-82581426D01*
X26071680Y-82320273D01*
X25914637Y-82085241D01*
X25714759Y-81885363D01*
X25479727Y-81728320D01*
X25218574Y-81620147D01*
X24941335Y-81565000D01*
X24658665Y-81565000D01*
X24381426Y-81620147D01*
X24120273Y-81728320D01*
X23885241Y-81885363D01*
X23685363Y-82085241D01*
X23528320Y-82320273D01*
X23420147Y-82581426D01*
X23365000Y-82858665D01*
X16230290Y-82858665D01*
X16295226Y-82701898D01*
X16335000Y-82501939D01*
X16335000Y-82298061D01*
X16295226Y-82098102D01*
X16217205Y-81909744D01*
X16103937Y-81740226D01*
X16062000Y-81698289D01*
X16062000Y-80458665D01*
X37665000Y-80458665D01*
X37665000Y-80741335D01*
X37720147Y-81018574D01*
X37828320Y-81279727D01*
X37985363Y-81514759D01*
X38185241Y-81714637D01*
X38420273Y-81871680D01*
X38681426Y-81979853D01*
X38958665Y-82035000D01*
X39241335Y-82035000D01*
X39518574Y-81979853D01*
X39779727Y-81871680D01*
X40014759Y-81714637D01*
X40214637Y-81514759D01*
X40371680Y-81279727D01*
X40479853Y-81018574D01*
X40535000Y-80741335D01*
X40535000Y-80458665D01*
X40479853Y-80181426D01*
X40371680Y-79920273D01*
X40214637Y-79685241D01*
X40014759Y-79485363D01*
X39779727Y-79328320D01*
X39518574Y-79220147D01*
X39241335Y-79165000D01*
X38958665Y-79165000D01*
X38681426Y-79220147D01*
X38420273Y-79328320D01*
X38185241Y-79485363D01*
X37985363Y-79685241D01*
X37828320Y-79920273D01*
X37720147Y-80181426D01*
X37665000Y-80458665D01*
X16062000Y-80458665D01*
X16062000Y-77501711D01*
X16103937Y-77459774D01*
X16217205Y-77290256D01*
X16295226Y-77101898D01*
X16335000Y-76901939D01*
X16335000Y-76698061D01*
X16295226Y-76498102D01*
X16217205Y-76309744D01*
X16103937Y-76140226D01*
X15959774Y-75996063D01*
X15790256Y-75882795D01*
X15601898Y-75804774D01*
X15401939Y-75765000D01*
X15198061Y-75765000D01*
X14998102Y-75804774D01*
X14809744Y-75882795D01*
X14640226Y-75996063D01*
X14496063Y-76140226D01*
X14382795Y-76309744D01*
X14304774Y-76498102D01*
X14265000Y-76698061D01*
X13865650Y-76698061D01*
X14003937Y-76559774D01*
X14117205Y-76390256D01*
X14195226Y-76201898D01*
X14235000Y-76001939D01*
X14235000Y-75798061D01*
X14195226Y-75598102D01*
X14117205Y-75409744D01*
X14003937Y-75240226D01*
X13859774Y-75096063D01*
X13690256Y-74982795D01*
X13640053Y-74962000D01*
X16798289Y-74962000D01*
X16840226Y-75003937D01*
X17009744Y-75117205D01*
X17198102Y-75195226D01*
X17398061Y-75235000D01*
X17601939Y-75235000D01*
X17801898Y-75195226D01*
X17990256Y-75117205D01*
X18159774Y-75003937D01*
X18303937Y-74859774D01*
X18417205Y-74690256D01*
X18495226Y-74501898D01*
X18535000Y-74301939D01*
X18535000Y-74098061D01*
X18495226Y-73898102D01*
X18417205Y-73709744D01*
X18303937Y-73540226D01*
X18159774Y-73396063D01*
X17990256Y-73282795D01*
X17912941Y-73250770D01*
X17953937Y-73209774D01*
X18067205Y-73040256D01*
X18145226Y-72851898D01*
X18185000Y-72651939D01*
X18185000Y-72448061D01*
X18145226Y-72248102D01*
X18067205Y-72059744D01*
X17953937Y-71890226D01*
X17809774Y-71746063D01*
X17640256Y-71632795D01*
X17451898Y-71554774D01*
X17251939Y-71515000D01*
X17048061Y-71515000D01*
X16848102Y-71554774D01*
X16659744Y-71632795D01*
X16490226Y-71746063D01*
X16448289Y-71788000D01*
X15865631Y-71788000D01*
X15441413Y-71363782D01*
X15459504Y-71362000D01*
X24615984Y-71362000D01*
X24653407Y-71365686D01*
X24690830Y-71362000D01*
X33262577Y-71362000D01*
X33300000Y-71365686D01*
X33337423Y-71362000D01*
X33337426Y-71362000D01*
X33449378Y-71350974D01*
X33593015Y-71307402D01*
X33725392Y-71236645D01*
X33841422Y-71141422D01*
X33865284Y-71112346D01*
X35110625Y-69867006D01*
X35123088Y-69872168D01*
X35438967Y-69935000D01*
X35761033Y-69935000D01*
X36076912Y-69872168D01*
X36374463Y-69748918D01*
X36642252Y-69569987D01*
X36869987Y-69342252D01*
X37048918Y-69074463D01*
X37172168Y-68776912D01*
X37235000Y-68461033D01*
X37235000Y-68138967D01*
X37172168Y-67823088D01*
X37048918Y-67525537D01*
X36869987Y-67257748D01*
X36662239Y-67050000D01*
X36869987Y-66842252D01*
X37048918Y-66574463D01*
X37172168Y-66276912D01*
X37235000Y-65961033D01*
X37235000Y-65638967D01*
X37172168Y-65323088D01*
X37048918Y-65025537D01*
X36869987Y-64757748D01*
X36642252Y-64530013D01*
X36374463Y-64351082D01*
X36076912Y-64227832D01*
X35761033Y-64165000D01*
X35438967Y-64165000D01*
X35123088Y-64227832D01*
X34825537Y-64351082D01*
X34644665Y-64471937D01*
X34630537Y-64445506D01*
X34551185Y-64348815D01*
X34454494Y-64269463D01*
X34344180Y-64210498D01*
X34224482Y-64174188D01*
X34100000Y-64161928D01*
X33385750Y-64165000D01*
X33227000Y-64323750D01*
X33227000Y-65673000D01*
X33247000Y-65673000D01*
X33247000Y-65927000D01*
X33227000Y-65927000D01*
X33227000Y-67276250D01*
X33385750Y-67435000D01*
X34100000Y-67438072D01*
X34217240Y-67426525D01*
X34151082Y-67525537D01*
X34027832Y-67823088D01*
X33965000Y-68138967D01*
X33965000Y-68461033D01*
X34027832Y-68776912D01*
X34032994Y-68789375D01*
X32984370Y-69838000D01*
X31159401Y-69838000D01*
X31374463Y-69748918D01*
X31642252Y-69569987D01*
X31869987Y-69342252D01*
X32048918Y-69074463D01*
X32172168Y-68776912D01*
X32235000Y-68461033D01*
X32235000Y-68138967D01*
X32172168Y-67823088D01*
X32048918Y-67525537D01*
X31982760Y-67426525D01*
X32100000Y-67438072D01*
X32814250Y-67435000D01*
X32973000Y-67276250D01*
X32973000Y-65927000D01*
X32953000Y-65927000D01*
X32953000Y-65673000D01*
X32973000Y-65673000D01*
X32973000Y-64323750D01*
X32814250Y-64165000D01*
X32100000Y-64161928D01*
X31975518Y-64174188D01*
X31855820Y-64210498D01*
X31745506Y-64269463D01*
X31648815Y-64348815D01*
X31569463Y-64445506D01*
X31555335Y-64471937D01*
X31374463Y-64351082D01*
X31076912Y-64227832D01*
X30761033Y-64165000D01*
X30438967Y-64165000D01*
X30123088Y-64227832D01*
X29825537Y-64351082D01*
X29557748Y-64530013D01*
X29330013Y-64757748D01*
X29151082Y-65025537D01*
X29027832Y-65323088D01*
X28965000Y-65638967D01*
X28965000Y-65961033D01*
X29027832Y-66276912D01*
X29151082Y-66574463D01*
X29330013Y-66842252D01*
X29537761Y-67050000D01*
X29330013Y-67257748D01*
X29151082Y-67525537D01*
X29145920Y-67538000D01*
X23315630Y-67538000D01*
X12345212Y-56567582D01*
X31440000Y-56567582D01*
X31440000Y-57032419D01*
X31442729Y-57060123D01*
X31442721Y-57061211D01*
X31443620Y-57070382D01*
X31445512Y-57088389D01*
X31449550Y-57129383D01*
X31456640Y-57152756D01*
X31459724Y-57167779D01*
X31470936Y-57226558D01*
X31473600Y-57235379D01*
X31485142Y-57272667D01*
X31508322Y-57327810D01*
X31530730Y-57383273D01*
X31535056Y-57391410D01*
X31553621Y-57425746D01*
X31587082Y-57475355D01*
X31619835Y-57525406D01*
X31625660Y-57532547D01*
X31650541Y-57562622D01*
X31692980Y-57604765D01*
X31734838Y-57647508D01*
X31741939Y-57653381D01*
X31741942Y-57653384D01*
X31741946Y-57653386D01*
X31772187Y-57678051D01*
X31821975Y-57711129D01*
X31871362Y-57744946D01*
X31879469Y-57749328D01*
X31913933Y-57767653D01*
X31969215Y-57790439D01*
X32024218Y-57814014D01*
X32033021Y-57816739D01*
X32070388Y-57828021D01*
X32129066Y-57839639D01*
X32148826Y-57843840D01*
X32170617Y-57850450D01*
X32194112Y-57852764D01*
X32196748Y-57853041D01*
X32235595Y-57856850D01*
X32235598Y-57856850D01*
X32267581Y-57860000D01*
X33932419Y-57860000D01*
X33960123Y-57857271D01*
X33961211Y-57857279D01*
X33970382Y-57856380D01*
X33988389Y-57854488D01*
X34029383Y-57850450D01*
X34052756Y-57843360D01*
X34067779Y-57840276D01*
X34126558Y-57829064D01*
X34135379Y-57826400D01*
X34172667Y-57814858D01*
X34227810Y-57791678D01*
X34283273Y-57769270D01*
X34291410Y-57764944D01*
X34325746Y-57746379D01*
X34375355Y-57712918D01*
X34425406Y-57680165D01*
X34432547Y-57674340D01*
X34462622Y-57649459D01*
X34504765Y-57607020D01*
X34547508Y-57565162D01*
X34553381Y-57558061D01*
X34553384Y-57558058D01*
X34553386Y-57558054D01*
X34578051Y-57527813D01*
X34611129Y-57478025D01*
X34644946Y-57428638D01*
X34649328Y-57420531D01*
X34667653Y-57386067D01*
X34690439Y-57330785D01*
X34714014Y-57275782D01*
X34716739Y-57266979D01*
X34728021Y-57229612D01*
X34739639Y-57170934D01*
X34743840Y-57151174D01*
X34750450Y-57129383D01*
X34752764Y-57105888D01*
X34753041Y-57103252D01*
X34756850Y-57064405D01*
X34756850Y-57064402D01*
X34760000Y-57032419D01*
X34760000Y-56567582D01*
X34757271Y-56539877D01*
X34757279Y-56538789D01*
X34756380Y-56529618D01*
X34754488Y-56511612D01*
X34750450Y-56470617D01*
X34743359Y-56447242D01*
X34740276Y-56432222D01*
X34729064Y-56373443D01*
X34726400Y-56364621D01*
X34714858Y-56327334D01*
X34691686Y-56272208D01*
X34669271Y-56216727D01*
X34664944Y-56208591D01*
X34664943Y-56208588D01*
X34664940Y-56208583D01*
X34646379Y-56174254D01*
X34612928Y-56124661D01*
X34580165Y-56074594D01*
X34574340Y-56067453D01*
X34549459Y-56037378D01*
X34507020Y-55995235D01*
X34465162Y-55952492D01*
X34458061Y-55946618D01*
X34427812Y-55921949D01*
X34378042Y-55888883D01*
X34328638Y-55855054D01*
X34320531Y-55850672D01*
X34286067Y-55832347D01*
X34230785Y-55809561D01*
X34175782Y-55785986D01*
X34166979Y-55783261D01*
X34129612Y-55771979D01*
X34070927Y-55760359D01*
X34051175Y-55756161D01*
X34029383Y-55749550D01*
X34005888Y-55747236D01*
X34003252Y-55746959D01*
X33964405Y-55743150D01*
X33964402Y-55743150D01*
X33932419Y-55740000D01*
X32267581Y-55740000D01*
X32239877Y-55742729D01*
X32238789Y-55742721D01*
X32229618Y-55743620D01*
X32211619Y-55745512D01*
X32170617Y-55749550D01*
X32147242Y-55756641D01*
X32132222Y-55759724D01*
X32073443Y-55770936D01*
X32064621Y-55773600D01*
X32027334Y-55785142D01*
X31972208Y-55808314D01*
X31916727Y-55830729D01*
X31908593Y-55835055D01*
X31908588Y-55835057D01*
X31908583Y-55835060D01*
X31874254Y-55853621D01*
X31824661Y-55887072D01*
X31774594Y-55919835D01*
X31767453Y-55925660D01*
X31737378Y-55950541D01*
X31695235Y-55992980D01*
X31652492Y-56034838D01*
X31646618Y-56041939D01*
X31621949Y-56072188D01*
X31588883Y-56121958D01*
X31555054Y-56171362D01*
X31550672Y-56179469D01*
X31532347Y-56213933D01*
X31509561Y-56269215D01*
X31485986Y-56324218D01*
X31483261Y-56333021D01*
X31471979Y-56370388D01*
X31460359Y-56429073D01*
X31456160Y-56448829D01*
X31449550Y-56470618D01*
X31447238Y-56494097D01*
X31446959Y-56496748D01*
X31443150Y-56535595D01*
X31440000Y-56567582D01*
X12345212Y-56567582D01*
X8794265Y-53016635D01*
X8901898Y-52995226D01*
X9090256Y-52917205D01*
X9259774Y-52803937D01*
X9301711Y-52762000D01*
X18662577Y-52762000D01*
X18700000Y-52765686D01*
X18737423Y-52762000D01*
X18737426Y-52762000D01*
X18849378Y-52750974D01*
X18993015Y-52707402D01*
X19125392Y-52636645D01*
X19241422Y-52541422D01*
X19265284Y-52512346D01*
X21379967Y-50397663D01*
X29015000Y-50397663D01*
X29015000Y-51202337D01*
X29171984Y-51991551D01*
X29479920Y-52734973D01*
X29926973Y-53404036D01*
X30495964Y-53973027D01*
X31165027Y-54420080D01*
X31908449Y-54728016D01*
X32697663Y-54885000D01*
X33502337Y-54885000D01*
X34291551Y-54728016D01*
X35034973Y-54420080D01*
X35704036Y-53973027D01*
X36273027Y-53404036D01*
X36720080Y-52734973D01*
X37028016Y-51991551D01*
X37185000Y-51202337D01*
X37185000Y-50397663D01*
X37028016Y-49608449D01*
X36720080Y-48865027D01*
X36273027Y-48195964D01*
X35704036Y-47626973D01*
X35034973Y-47179920D01*
X34291551Y-46871984D01*
X33502337Y-46715000D01*
X32697663Y-46715000D01*
X31908449Y-46871984D01*
X31165027Y-47179920D01*
X30495964Y-47626973D01*
X29926973Y-48195964D01*
X29479920Y-48865027D01*
X29171984Y-49608449D01*
X29015000Y-50397663D01*
X21379967Y-50397663D01*
X30412353Y-41365278D01*
X30441422Y-41341422D01*
X30485748Y-41287411D01*
X30536645Y-41225393D01*
X30583339Y-41138033D01*
X30605088Y-41097345D01*
X30604774Y-41098102D01*
X30565000Y-41298061D01*
X30565000Y-41501939D01*
X30604774Y-41701898D01*
X30682795Y-41890256D01*
X30796063Y-42059774D01*
X30940226Y-42203937D01*
X31109744Y-42317205D01*
X31298102Y-42395226D01*
X31498061Y-42435000D01*
X31701939Y-42435000D01*
X31901898Y-42395226D01*
X32090256Y-42317205D01*
X32259774Y-42203937D01*
X32403937Y-42059774D01*
X32517205Y-41890256D01*
X32595226Y-41701898D01*
X32635000Y-41501939D01*
X32635000Y-41298061D01*
X32595226Y-41098102D01*
X32517205Y-40909744D01*
X32403937Y-40740226D01*
X32362000Y-40698289D01*
X32362000Y-29998061D01*
X34965000Y-29998061D01*
X34965000Y-30201939D01*
X35004774Y-30401898D01*
X35082795Y-30590256D01*
X35196063Y-30759774D01*
X35238001Y-30801712D01*
X35238000Y-34598289D01*
X35196063Y-34640226D01*
X35082795Y-34809744D01*
X35004774Y-34998102D01*
X34965000Y-35198061D01*
X34965000Y-35401939D01*
X35004774Y-35601898D01*
X35082795Y-35790256D01*
X35196063Y-35959774D01*
X35340226Y-36103937D01*
X35509744Y-36217205D01*
X35698102Y-36295226D01*
X35898061Y-36335000D01*
X36101939Y-36335000D01*
X36301898Y-36295226D01*
X36490256Y-36217205D01*
X36659774Y-36103937D01*
X36803937Y-35959774D01*
X36917205Y-35790256D01*
X36995226Y-35601898D01*
X37035000Y-35401939D01*
X37035000Y-35198061D01*
X36995226Y-34998102D01*
X36917205Y-34809744D01*
X36803937Y-34640226D01*
X36762000Y-34598289D01*
X36762000Y-30801711D01*
X36803937Y-30759774D01*
X36917205Y-30590256D01*
X36995226Y-30401898D01*
X37035000Y-30201939D01*
X37035000Y-29998061D01*
X36995226Y-29798102D01*
X36917205Y-29609744D01*
X36803937Y-29440226D01*
X36659774Y-29296063D01*
X36490256Y-29182795D01*
X36301898Y-29104774D01*
X36101939Y-29065000D01*
X35898061Y-29065000D01*
X35698102Y-29104774D01*
X35509744Y-29182795D01*
X35340226Y-29296063D01*
X35196063Y-29440226D01*
X35082795Y-29609744D01*
X35004774Y-29798102D01*
X34965000Y-29998061D01*
X32362000Y-29998061D01*
X32362000Y-28901711D01*
X32403937Y-28859774D01*
X32517205Y-28690256D01*
X32595226Y-28501898D01*
X32635000Y-28301939D01*
X32635000Y-28098061D01*
X32595226Y-27898102D01*
X32517205Y-27709744D01*
X32403937Y-27540226D01*
X32259774Y-27396063D01*
X32090256Y-27282795D01*
X31901898Y-27204774D01*
X31701939Y-27165000D01*
X31498061Y-27165000D01*
X31298102Y-27204774D01*
X31109744Y-27282795D01*
X30940226Y-27396063D01*
X30796063Y-27540226D01*
X30682795Y-27709744D01*
X30604774Y-27898102D01*
X30597646Y-27933935D01*
X30559774Y-27896063D01*
X30390256Y-27782795D01*
X30201898Y-27704774D01*
X30001939Y-27665000D01*
X29798061Y-27665000D01*
X29598102Y-27704774D01*
X29409744Y-27782795D01*
X29240226Y-27896063D01*
X29096063Y-28040226D01*
X28982795Y-28209744D01*
X28904774Y-28398102D01*
X28865000Y-28598061D01*
X28865000Y-28801939D01*
X28904774Y-29001898D01*
X28982795Y-29190256D01*
X29096063Y-29359774D01*
X29138001Y-29401712D01*
X29138000Y-40484369D01*
X18384370Y-51238000D01*
X9301711Y-51238000D01*
X9259774Y-51196063D01*
X9090256Y-51082795D01*
X8901898Y-51004774D01*
X8701939Y-50965000D01*
X8498061Y-50965000D01*
X8298102Y-51004774D01*
X8109744Y-51082795D01*
X7940226Y-51196063D01*
X7796063Y-51340226D01*
X7682795Y-51509744D01*
X7604774Y-51698102D01*
X7583365Y-51805735D01*
X5035000Y-49257370D01*
X5035000Y-49198061D01*
X4995226Y-48998102D01*
X4917205Y-48809744D01*
X4803937Y-48640226D01*
X4659774Y-48496063D01*
X4552947Y-48424683D01*
X6312347Y-46665283D01*
X6341422Y-46641422D01*
X6401857Y-46567781D01*
X6436645Y-46525393D01*
X6507401Y-46393016D01*
X6507402Y-46393015D01*
X6550974Y-46249378D01*
X6562000Y-46137426D01*
X6562000Y-46137423D01*
X6565686Y-46100000D01*
X6562000Y-46062577D01*
X6562000Y-41901711D01*
X6603937Y-41859774D01*
X6717205Y-41690256D01*
X6795226Y-41501898D01*
X6835000Y-41301939D01*
X6835000Y-41098061D01*
X6795226Y-40898102D01*
X6717205Y-40709744D01*
X6603937Y-40540226D01*
X6459774Y-40396063D01*
X6290256Y-40282795D01*
X6101898Y-40204774D01*
X5901939Y-40165000D01*
X5698061Y-40165000D01*
X5498102Y-40204774D01*
X5309744Y-40282795D01*
X5140226Y-40396063D01*
X4996063Y-40540226D01*
X4882795Y-40709744D01*
X4804774Y-40898102D01*
X4765000Y-41098061D01*
X4765000Y-41301939D01*
X4804774Y-41501898D01*
X4882795Y-41690256D01*
X4996063Y-41859774D01*
X5038001Y-41901712D01*
X5038000Y-45784370D01*
X3574589Y-47247781D01*
X3574589Y-41603041D01*
X3642630Y-41535000D01*
X3701939Y-41535000D01*
X3901898Y-41495226D01*
X4090256Y-41417205D01*
X4259774Y-41303937D01*
X4403937Y-41159774D01*
X4517205Y-40990256D01*
X4595226Y-40801898D01*
X4635000Y-40601939D01*
X4635000Y-40398061D01*
X4595226Y-40198102D01*
X4517205Y-40009744D01*
X4443877Y-39900000D01*
X4517205Y-39790256D01*
X4595226Y-39601898D01*
X4635000Y-39401939D01*
X4635000Y-39198061D01*
X4595226Y-38998102D01*
X4517205Y-38809744D01*
X4436463Y-38688904D01*
X4609558Y-38617205D01*
X4779076Y-38503937D01*
X4923239Y-38359774D01*
X5036507Y-38190256D01*
X5114528Y-38001898D01*
X5154302Y-37801939D01*
X5154302Y-37598061D01*
X5114528Y-37398102D01*
X5036507Y-37209744D01*
X4923239Y-37040226D01*
X4779076Y-36896063D01*
X4609558Y-36782795D01*
X4421200Y-36704774D01*
X4221241Y-36665000D01*
X4017363Y-36665000D01*
X3817404Y-36704774D01*
X3629046Y-36782795D01*
X3459528Y-36896063D01*
X3315365Y-37040226D01*
X3202097Y-37209744D01*
X3124076Y-37398102D01*
X3084302Y-37598061D01*
X3084302Y-37657369D01*
X2104790Y-38636882D01*
X2104790Y-35972840D01*
X2121359Y-35956271D01*
X7023210Y-35956271D01*
X7023210Y-36160149D01*
X7062984Y-36360108D01*
X7141005Y-36548466D01*
X7254273Y-36717984D01*
X7296210Y-36759921D01*
X7296211Y-47320777D01*
X7292524Y-47358210D01*
X7307237Y-47507588D01*
X7350809Y-47651225D01*
X7421565Y-47783602D01*
X7435023Y-47800000D01*
X7465000Y-47836527D01*
X7465000Y-47901939D01*
X7504774Y-48101898D01*
X7582795Y-48290256D01*
X7696063Y-48459774D01*
X7840226Y-48603937D01*
X8009744Y-48717205D01*
X8198102Y-48795226D01*
X8398061Y-48835000D01*
X8601939Y-48835000D01*
X8801898Y-48795226D01*
X8990256Y-48717205D01*
X9159774Y-48603937D01*
X9201711Y-48562000D01*
X13798289Y-48562000D01*
X13840226Y-48603937D01*
X14009744Y-48717205D01*
X14198102Y-48795226D01*
X14398061Y-48835000D01*
X14601939Y-48835000D01*
X14801898Y-48795226D01*
X14990256Y-48717205D01*
X15159774Y-48603937D01*
X15198202Y-48565509D01*
X15200000Y-48565686D01*
X15237423Y-48562000D01*
X15237426Y-48562000D01*
X15349378Y-48550974D01*
X15493015Y-48507402D01*
X15625392Y-48436645D01*
X15741422Y-48341422D01*
X15765284Y-48312346D01*
X18112346Y-45965284D01*
X18141422Y-45941422D01*
X18201857Y-45867781D01*
X18236645Y-45825393D01*
X18307401Y-45693016D01*
X18307402Y-45693015D01*
X18350974Y-45549378D01*
X18362000Y-45437426D01*
X18362000Y-45437423D01*
X18365686Y-45400000D01*
X18362000Y-45362577D01*
X18362000Y-36501711D01*
X18403937Y-36459774D01*
X18517205Y-36290256D01*
X18595226Y-36101898D01*
X18635000Y-35901939D01*
X18635000Y-35698061D01*
X18595226Y-35498102D01*
X18517205Y-35309744D01*
X18403937Y-35140226D01*
X18259774Y-34996063D01*
X18090256Y-34882795D01*
X17901898Y-34804774D01*
X17701939Y-34765000D01*
X17498061Y-34765000D01*
X17298102Y-34804774D01*
X17109744Y-34882795D01*
X16940226Y-34996063D01*
X16796063Y-35140226D01*
X16682795Y-35309744D01*
X16604774Y-35498102D01*
X16565000Y-35698061D01*
X16565000Y-35901939D01*
X16604774Y-36101898D01*
X16682795Y-36290256D01*
X16796063Y-36459774D01*
X16838000Y-36501711D01*
X16838001Y-45084369D01*
X15019821Y-46902549D01*
X14990256Y-46882795D01*
X14801898Y-46804774D01*
X14601939Y-46765000D01*
X14398061Y-46765000D01*
X14198102Y-46804774D01*
X14009744Y-46882795D01*
X13840226Y-46996063D01*
X13798289Y-47038000D01*
X9201711Y-47038000D01*
X9159774Y-46996063D01*
X8990256Y-46882795D01*
X8820210Y-46812359D01*
X8820210Y-36759921D01*
X8862147Y-36717984D01*
X8975415Y-36548466D01*
X9053436Y-36360108D01*
X9093210Y-36160149D01*
X9093210Y-35956271D01*
X9053436Y-35756312D01*
X8975415Y-35567954D01*
X8862147Y-35398436D01*
X8717984Y-35254273D01*
X8548466Y-35141005D01*
X8360108Y-35062984D01*
X8160149Y-35023210D01*
X7956271Y-35023210D01*
X7756312Y-35062984D01*
X7567954Y-35141005D01*
X7398436Y-35254273D01*
X7254273Y-35398436D01*
X7141005Y-35567954D01*
X7062984Y-35756312D01*
X7023210Y-35956271D01*
X2121359Y-35956271D01*
X5015631Y-33062000D01*
X10398289Y-33062000D01*
X10440226Y-33103937D01*
X10609744Y-33217205D01*
X10798102Y-33295226D01*
X10998061Y-33335000D01*
X11201939Y-33335000D01*
X11401898Y-33295226D01*
X11590256Y-33217205D01*
X11759774Y-33103937D01*
X11903937Y-32959774D01*
X12017205Y-32790256D01*
X12095226Y-32601898D01*
X12135000Y-32401939D01*
X12135000Y-32198061D01*
X12095226Y-31998102D01*
X12017205Y-31809744D01*
X11903937Y-31640226D01*
X11759774Y-31496063D01*
X11590256Y-31382795D01*
X11401898Y-31304774D01*
X11201939Y-31265000D01*
X10998061Y-31265000D01*
X10798102Y-31304774D01*
X10609744Y-31382795D01*
X10440226Y-31496063D01*
X10398289Y-31538000D01*
X4737423Y-31538000D01*
X4700000Y-31534314D01*
X4662577Y-31538000D01*
X4662574Y-31538000D01*
X4550622Y-31549026D01*
X4406985Y-31592598D01*
X4345364Y-31625535D01*
X4274607Y-31663355D01*
X4232268Y-31698102D01*
X4158578Y-31758578D01*
X4134721Y-31787648D01*
X830439Y-35091931D01*
X801369Y-35115788D01*
X777512Y-35144858D01*
X777511Y-35144859D01*
X706145Y-35231818D01*
X660000Y-35318150D01*
X660000Y-30298061D01*
X21665000Y-30298061D01*
X21665000Y-30501939D01*
X21704774Y-30701898D01*
X21782795Y-30890256D01*
X21896063Y-31059774D01*
X22040226Y-31203937D01*
X22209744Y-31317205D01*
X22398102Y-31395226D01*
X22598061Y-31435000D01*
X22638000Y-31435000D01*
X22638001Y-34898288D01*
X22596063Y-34940226D01*
X22482795Y-35109744D01*
X22404774Y-35298102D01*
X22365000Y-35498061D01*
X22365000Y-35701939D01*
X22404774Y-35901898D01*
X22482795Y-36090256D01*
X22596063Y-36259774D01*
X22740226Y-36403937D01*
X22909744Y-36517205D01*
X23098102Y-36595226D01*
X23298061Y-36635000D01*
X23501939Y-36635000D01*
X23701898Y-36595226D01*
X23890256Y-36517205D01*
X24059774Y-36403937D01*
X24203937Y-36259774D01*
X24317205Y-36090256D01*
X24395226Y-35901898D01*
X24435000Y-35701939D01*
X24435000Y-35498061D01*
X24395226Y-35298102D01*
X24317205Y-35109744D01*
X24203937Y-34940226D01*
X24162000Y-34898289D01*
X24162000Y-31137415D01*
X24165685Y-31099999D01*
X24162000Y-31062583D01*
X24162000Y-31062574D01*
X24150974Y-30950622D01*
X24107402Y-30806985D01*
X24036645Y-30674608D01*
X23941422Y-30558578D01*
X23912353Y-30534722D01*
X23735000Y-30357369D01*
X23735000Y-30298061D01*
X23695226Y-30098102D01*
X23617205Y-29909744D01*
X23609399Y-29898061D01*
X24265000Y-29898061D01*
X24265000Y-30101939D01*
X24304774Y-30301898D01*
X24382795Y-30490256D01*
X24496063Y-30659774D01*
X24538001Y-30701712D01*
X24538000Y-33898289D01*
X24496063Y-33940226D01*
X24382795Y-34109744D01*
X24304774Y-34298102D01*
X24265000Y-34498061D01*
X24265000Y-34701939D01*
X24304774Y-34901898D01*
X24382795Y-35090256D01*
X24496063Y-35259774D01*
X24640226Y-35403937D01*
X24809744Y-35517205D01*
X24998102Y-35595226D01*
X25198061Y-35635000D01*
X25401939Y-35635000D01*
X25601898Y-35595226D01*
X25790256Y-35517205D01*
X25959774Y-35403937D01*
X26103937Y-35259774D01*
X26217205Y-35090256D01*
X26295226Y-34901898D01*
X26335000Y-34701939D01*
X26335000Y-34498061D01*
X26295226Y-34298102D01*
X26217205Y-34109744D01*
X26103937Y-33940226D01*
X26062000Y-33898289D01*
X26062000Y-30701711D01*
X26103937Y-30659774D01*
X26217205Y-30490256D01*
X26295226Y-30301898D01*
X26335000Y-30101939D01*
X26335000Y-29898061D01*
X26295226Y-29698102D01*
X26217205Y-29509744D01*
X26103937Y-29340226D01*
X25959774Y-29196063D01*
X25790256Y-29082795D01*
X25601898Y-29004774D01*
X25401939Y-28965000D01*
X25198061Y-28965000D01*
X24998102Y-29004774D01*
X24809744Y-29082795D01*
X24640226Y-29196063D01*
X24496063Y-29340226D01*
X24382795Y-29509744D01*
X24304774Y-29698102D01*
X24265000Y-29898061D01*
X23609399Y-29898061D01*
X23503937Y-29740226D01*
X23359774Y-29596063D01*
X23190256Y-29482795D01*
X23001898Y-29404774D01*
X22801939Y-29365000D01*
X22598061Y-29365000D01*
X22398102Y-29404774D01*
X22209744Y-29482795D01*
X22040226Y-29596063D01*
X21896063Y-29740226D01*
X21782795Y-29909744D01*
X21704774Y-30098102D01*
X21665000Y-30298061D01*
X660000Y-30298061D01*
X660000Y-24098061D01*
X40765000Y-24098061D01*
X40765000Y-24301939D01*
X40804774Y-24501898D01*
X40882795Y-24690256D01*
X40996063Y-24859774D01*
X41038001Y-24901712D01*
X41038000Y-31298289D01*
X40996063Y-31340226D01*
X40882795Y-31509744D01*
X40804774Y-31698102D01*
X40765000Y-31898061D01*
X40765000Y-32101939D01*
X40804774Y-32301898D01*
X40882795Y-32490256D01*
X40996063Y-32659774D01*
X41140226Y-32803937D01*
X41309744Y-32917205D01*
X41498102Y-32995226D01*
X41698061Y-33035000D01*
X41901939Y-33035000D01*
X42101898Y-32995226D01*
X42290256Y-32917205D01*
X42459774Y-32803937D01*
X42603937Y-32659774D01*
X42717205Y-32490256D01*
X42795226Y-32301898D01*
X42835000Y-32101939D01*
X42835000Y-31898061D01*
X42795226Y-31698102D01*
X42717205Y-31509744D01*
X42603937Y-31340226D01*
X42562000Y-31298289D01*
X42562000Y-24901711D01*
X42603937Y-24859774D01*
X42717205Y-24690256D01*
X42795226Y-24501898D01*
X42835000Y-24301939D01*
X42835000Y-24098061D01*
X42795226Y-23898102D01*
X42717205Y-23709744D01*
X42603937Y-23540226D01*
X42459774Y-23396063D01*
X42290256Y-23282795D01*
X42101898Y-23204774D01*
X41901939Y-23165000D01*
X41698061Y-23165000D01*
X41498102Y-23204774D01*
X41309744Y-23282795D01*
X41140226Y-23396063D01*
X40996063Y-23540226D01*
X40882795Y-23709744D01*
X40804774Y-23898102D01*
X40765000Y-24098061D01*
X660000Y-24098061D01*
X660000Y-20358665D01*
X30165000Y-20358665D01*
X30165000Y-20641335D01*
X30220147Y-20918574D01*
X30328320Y-21179727D01*
X30485363Y-21414759D01*
X30685241Y-21614637D01*
X30920273Y-21771680D01*
X31181426Y-21879853D01*
X31458665Y-21935000D01*
X31741335Y-21935000D01*
X32018574Y-21879853D01*
X32279727Y-21771680D01*
X32514759Y-21614637D01*
X32714637Y-21414759D01*
X32871680Y-21179727D01*
X32979853Y-20918574D01*
X33034492Y-20643888D01*
X33185241Y-20794637D01*
X33420273Y-20951680D01*
X33681426Y-21059853D01*
X33958665Y-21115000D01*
X34241335Y-21115000D01*
X34518574Y-21059853D01*
X34779727Y-20951680D01*
X35014759Y-20794637D01*
X35214637Y-20594759D01*
X35371680Y-20359727D01*
X35479853Y-20098574D01*
X35535000Y-19821335D01*
X35535000Y-19538665D01*
X35479853Y-19261426D01*
X35371680Y-19000273D01*
X35214637Y-18765241D01*
X35014759Y-18565363D01*
X34779727Y-18408320D01*
X34518574Y-18300147D01*
X34241335Y-18245000D01*
X33958665Y-18245000D01*
X33681426Y-18300147D01*
X33420273Y-18408320D01*
X33185241Y-18565363D01*
X32985363Y-18765241D01*
X32828320Y-19000273D01*
X32720147Y-19261426D01*
X32665508Y-19536112D01*
X32514759Y-19385363D01*
X32279727Y-19228320D01*
X32018574Y-19120147D01*
X31741335Y-19065000D01*
X31458665Y-19065000D01*
X31181426Y-19120147D01*
X30920273Y-19228320D01*
X30685241Y-19385363D01*
X30485363Y-19585241D01*
X30328320Y-19820273D01*
X30220147Y-20081426D01*
X30165000Y-20358665D01*
X660000Y-20358665D01*
X660000Y-17250000D01*
X38521928Y-17250000D01*
X38534188Y-17374482D01*
X38570498Y-17494180D01*
X38629463Y-17604494D01*
X38708815Y-17701185D01*
X38805506Y-17780537D01*
X38915820Y-17839502D01*
X39035518Y-17875812D01*
X39160000Y-17888072D01*
X39674250Y-17885000D01*
X39833000Y-17726250D01*
X39833000Y-16577000D01*
X40087000Y-16577000D01*
X40087000Y-17726250D01*
X40245750Y-17885000D01*
X40760000Y-17888072D01*
X40884482Y-17875812D01*
X41004180Y-17839502D01*
X41114494Y-17780537D01*
X41211185Y-17701185D01*
X41290537Y-17604494D01*
X41349502Y-17494180D01*
X41385812Y-17374482D01*
X41398072Y-17250000D01*
X41395000Y-16735750D01*
X41236250Y-16577000D01*
X40087000Y-16577000D01*
X39833000Y-16577000D01*
X38683750Y-16577000D01*
X38525000Y-16735750D01*
X38521928Y-17250000D01*
X660000Y-17250000D01*
X660000Y-15650000D01*
X38521928Y-15650000D01*
X38525000Y-16164250D01*
X38683750Y-16323000D01*
X39833000Y-16323000D01*
X39833000Y-16303000D01*
X40087000Y-16303000D01*
X40087000Y-16323000D01*
X41236250Y-16323000D01*
X41395000Y-16164250D01*
X41398072Y-15650000D01*
X41388318Y-15550964D01*
X41579727Y-15471680D01*
X41814759Y-15314637D01*
X42014637Y-15114759D01*
X42171680Y-14879727D01*
X42279853Y-14618574D01*
X42335000Y-14341335D01*
X42335000Y-14058665D01*
X42279853Y-13781426D01*
X42171680Y-13520273D01*
X42014637Y-13285241D01*
X41814759Y-13085363D01*
X41579727Y-12928320D01*
X41318574Y-12820147D01*
X41041335Y-12765000D01*
X40758665Y-12765000D01*
X40481426Y-12820147D01*
X40220273Y-12928320D01*
X39985241Y-13085363D01*
X39785363Y-13285241D01*
X39628320Y-13520273D01*
X39520147Y-13781426D01*
X39465000Y-14058665D01*
X39465000Y-14341335D01*
X39520147Y-14618574D01*
X39628320Y-14879727D01*
X39785363Y-15114759D01*
X39832998Y-15162394D01*
X39832998Y-15173748D01*
X39674250Y-15015000D01*
X39160000Y-15011928D01*
X39035518Y-15024188D01*
X38915820Y-15060498D01*
X38805506Y-15119463D01*
X38708815Y-15198815D01*
X38629463Y-15295506D01*
X38570498Y-15405820D01*
X38534188Y-15525518D01*
X38521928Y-15650000D01*
X660000Y-15650000D01*
X660000Y-14058665D01*
X23865000Y-14058665D01*
X23865000Y-14341335D01*
X23920147Y-14618574D01*
X24028320Y-14879727D01*
X24185363Y-15114759D01*
X24385241Y-15314637D01*
X24620273Y-15471680D01*
X24881426Y-15579853D01*
X25158665Y-15635000D01*
X25441335Y-15635000D01*
X25718574Y-15579853D01*
X25979727Y-15471680D01*
X26214759Y-15314637D01*
X26414637Y-15114759D01*
X26571680Y-14879727D01*
X26679853Y-14618574D01*
X26735000Y-14341335D01*
X26735000Y-14083288D01*
X28115000Y-14083288D01*
X28115000Y-14316712D01*
X28160539Y-14545652D01*
X28249866Y-14761308D01*
X28379550Y-14955394D01*
X28544606Y-15120450D01*
X28738692Y-15250134D01*
X28954348Y-15339461D01*
X29183288Y-15385000D01*
X29416712Y-15385000D01*
X29645652Y-15339461D01*
X29861308Y-15250134D01*
X30055394Y-15120450D01*
X30220450Y-14955394D01*
X30350134Y-14761308D01*
X30439461Y-14545652D01*
X30485000Y-14316712D01*
X30485000Y-14083288D01*
X30439461Y-13854348D01*
X30350134Y-13638692D01*
X30220450Y-13444606D01*
X30055394Y-13279550D01*
X29861308Y-13149866D01*
X29645652Y-13060539D01*
X29416712Y-13015000D01*
X29183288Y-13015000D01*
X28954348Y-13060539D01*
X28738692Y-13149866D01*
X28544606Y-13279550D01*
X28379550Y-13444606D01*
X28249866Y-13638692D01*
X28160539Y-13854348D01*
X28115000Y-14083288D01*
X26735000Y-14083288D01*
X26735000Y-14058665D01*
X26679853Y-13781426D01*
X26571680Y-13520273D01*
X26414637Y-13285241D01*
X26214759Y-13085363D01*
X25979727Y-12928320D01*
X25718574Y-12820147D01*
X25441335Y-12765000D01*
X25158665Y-12765000D01*
X24881426Y-12820147D01*
X24620273Y-12928320D01*
X24385241Y-13085363D01*
X24185363Y-13285241D01*
X24028320Y-13520273D01*
X23920147Y-13781426D01*
X23865000Y-14058665D01*
X660000Y-14058665D01*
X660000Y-11058665D01*
X23865000Y-11058665D01*
X23865000Y-11341335D01*
X23920147Y-11618574D01*
X24028320Y-11879727D01*
X24185363Y-12114759D01*
X24385241Y-12314637D01*
X24620273Y-12471680D01*
X24881426Y-12579853D01*
X25158665Y-12635000D01*
X25441335Y-12635000D01*
X25718574Y-12579853D01*
X25979727Y-12471680D01*
X26214759Y-12314637D01*
X26414637Y-12114759D01*
X26571680Y-11879727D01*
X26679853Y-11618574D01*
X26735000Y-11341335D01*
X26735000Y-11058665D01*
X39465000Y-11058665D01*
X39465000Y-11341335D01*
X39520147Y-11618574D01*
X39628320Y-11879727D01*
X39785363Y-12114759D01*
X39985241Y-12314637D01*
X40220273Y-12471680D01*
X40481426Y-12579853D01*
X40758665Y-12635000D01*
X41041335Y-12635000D01*
X41318574Y-12579853D01*
X41579727Y-12471680D01*
X41814759Y-12314637D01*
X42014637Y-12114759D01*
X42171680Y-11879727D01*
X42279853Y-11618574D01*
X42335000Y-11341335D01*
X42335000Y-11058665D01*
X42279853Y-10781426D01*
X42171680Y-10520273D01*
X42014637Y-10285241D01*
X41814759Y-10085363D01*
X41579727Y-9928320D01*
X41318574Y-9820147D01*
X41041335Y-9765000D01*
X40758665Y-9765000D01*
X40481426Y-9820147D01*
X40220273Y-9928320D01*
X39985241Y-10085363D01*
X39785363Y-10285241D01*
X39628320Y-10520273D01*
X39520147Y-10781426D01*
X39465000Y-11058665D01*
X26735000Y-11058665D01*
X26679853Y-10781426D01*
X26571680Y-10520273D01*
X26414637Y-10285241D01*
X26214759Y-10085363D01*
X25979727Y-9928320D01*
X25718574Y-9820147D01*
X25441335Y-9765000D01*
X25158665Y-9765000D01*
X24881426Y-9820147D01*
X24620273Y-9928320D01*
X24385241Y-10085363D01*
X24185363Y-10285241D01*
X24028320Y-10520273D01*
X23920147Y-10781426D01*
X23865000Y-11058665D01*
X660000Y-11058665D01*
X660000Y-8498061D01*
X10165000Y-8498061D01*
X10165000Y-8701939D01*
X10204774Y-8901898D01*
X10282795Y-9090256D01*
X10396063Y-9259774D01*
X10540226Y-9403937D01*
X10709744Y-9517205D01*
X10898102Y-9595226D01*
X11098061Y-9635000D01*
X11301939Y-9635000D01*
X11501898Y-9595226D01*
X11690256Y-9517205D01*
X11859774Y-9403937D01*
X11901711Y-9362000D01*
X14698289Y-9362000D01*
X14740226Y-9403937D01*
X14909744Y-9517205D01*
X15098102Y-9595226D01*
X15298061Y-9635000D01*
X15501939Y-9635000D01*
X15701898Y-9595226D01*
X15890256Y-9517205D01*
X16059774Y-9403937D01*
X16203937Y-9259774D01*
X16317205Y-9090256D01*
X16395226Y-8901898D01*
X16435000Y-8701939D01*
X16435000Y-8498061D01*
X16395226Y-8298102D01*
X16317205Y-8109744D01*
X16203937Y-7940226D01*
X16059774Y-7796063D01*
X15890256Y-7682795D01*
X15701898Y-7604774D01*
X15501939Y-7565000D01*
X15298061Y-7565000D01*
X15098102Y-7604774D01*
X14909744Y-7682795D01*
X14740226Y-7796063D01*
X14698289Y-7838000D01*
X11901711Y-7838000D01*
X11859774Y-7796063D01*
X11690256Y-7682795D01*
X11501898Y-7604774D01*
X11301939Y-7565000D01*
X11098061Y-7565000D01*
X10898102Y-7604774D01*
X10709744Y-7682795D01*
X10540226Y-7796063D01*
X10396063Y-7940226D01*
X10282795Y-8109744D01*
X10204774Y-8298102D01*
X10165000Y-8498061D01*
X660000Y-8498061D01*
X660000Y-6345374D01*
X1834231Y-6345374D01*
X2134411Y-6783828D01*
X2713356Y-7094296D01*
X3341746Y-7285852D01*
X3995431Y-7351134D01*
X4649293Y-7287634D01*
X5278203Y-7097792D01*
X5857992Y-6788904D01*
X5865589Y-6783828D01*
X6165769Y-6345374D01*
X4000000Y-4179605D01*
X1834231Y-6345374D01*
X660000Y-6345374D01*
X660000Y-4110078D01*
X712366Y-4649293D01*
X902208Y-5278203D01*
X1211096Y-5857992D01*
X1216172Y-5865589D01*
X1654626Y-6165769D01*
X3820395Y-4000000D01*
X4179605Y-4000000D01*
X6345374Y-6165769D01*
X6783828Y-5865589D01*
X7029753Y-5407000D01*
X7545000Y-5407000D01*
X7545000Y-5957000D01*
X7591585Y-6175987D01*
X7679997Y-6381678D01*
X7806839Y-6566169D01*
X7967236Y-6722369D01*
X8155024Y-6844276D01*
X8378126Y-6924119D01*
X8553000Y-6797954D01*
X8553000Y-5407000D01*
X7545000Y-5407000D01*
X7029753Y-5407000D01*
X7094296Y-5286644D01*
X7285852Y-4658254D01*
X7291370Y-4603000D01*
X7545000Y-4603000D01*
X7545000Y-5153000D01*
X8553000Y-5153000D01*
X8553000Y-3762046D01*
X8807000Y-3762046D01*
X8807000Y-5153000D01*
X8827000Y-5153000D01*
X8827000Y-5407000D01*
X8807000Y-5407000D01*
X8807000Y-6797954D01*
X8981874Y-6924119D01*
X9204976Y-6844276D01*
X9392764Y-6722369D01*
X9553161Y-6566169D01*
X9680003Y-6381678D01*
X9768415Y-6175987D01*
X9815000Y-5957000D01*
X9815000Y-5666904D01*
X9829978Y-5673108D01*
X10015448Y-5710000D01*
X10204552Y-5710000D01*
X10390022Y-5673108D01*
X10564731Y-5600741D01*
X10721964Y-5495681D01*
X10855681Y-5361964D01*
X10960741Y-5204731D01*
X11033108Y-5030022D01*
X11070000Y-4844552D01*
X11070000Y-4655448D01*
X14930000Y-4655448D01*
X14930000Y-4844552D01*
X14966892Y-5030022D01*
X15039259Y-5204731D01*
X15144319Y-5361964D01*
X15278036Y-5495681D01*
X15435269Y-5600741D01*
X15609978Y-5673108D01*
X15795448Y-5710000D01*
X15984552Y-5710000D01*
X16170022Y-5673108D01*
X16185000Y-5666904D01*
X16185000Y-5957000D01*
X16231585Y-6175987D01*
X16319997Y-6381678D01*
X16446839Y-6566169D01*
X16607236Y-6722369D01*
X16795024Y-6844276D01*
X17018126Y-6924119D01*
X17193000Y-6797954D01*
X17193000Y-5407000D01*
X17447000Y-5407000D01*
X17447000Y-6797954D01*
X17621874Y-6924119D01*
X17844976Y-6844276D01*
X17946044Y-6778665D01*
X30665000Y-6778665D01*
X30665000Y-7061335D01*
X30720147Y-7338574D01*
X30828320Y-7599727D01*
X30985363Y-7834759D01*
X31185241Y-8034637D01*
X31420273Y-8191680D01*
X31681426Y-8299853D01*
X31958665Y-8355000D01*
X32241335Y-8355000D01*
X32518574Y-8299853D01*
X32779727Y-8191680D01*
X33014759Y-8034637D01*
X33214637Y-7834759D01*
X33371680Y-7599727D01*
X33479853Y-7338574D01*
X33535000Y-7061335D01*
X33535000Y-6778665D01*
X33479853Y-6501426D01*
X33415215Y-6345374D01*
X43834231Y-6345374D01*
X44134411Y-6783828D01*
X44713356Y-7094296D01*
X45341746Y-7285852D01*
X45995431Y-7351134D01*
X46649293Y-7287634D01*
X47278203Y-7097792D01*
X47857992Y-6788904D01*
X47865589Y-6783828D01*
X48165769Y-6345374D01*
X46000000Y-4179605D01*
X43834231Y-6345374D01*
X33415215Y-6345374D01*
X33371680Y-6240273D01*
X33214637Y-6005241D01*
X33014759Y-5805363D01*
X32790025Y-5655201D01*
X32836671Y-5641514D01*
X32957571Y-5386004D01*
X33026300Y-5111816D01*
X33040217Y-4829488D01*
X33029724Y-4758665D01*
X33165000Y-4758665D01*
X33165000Y-5041335D01*
X33220147Y-5318574D01*
X33328320Y-5579727D01*
X33485363Y-5814759D01*
X33685241Y-6014637D01*
X33920273Y-6171680D01*
X34181426Y-6279853D01*
X34458665Y-6335000D01*
X34741335Y-6335000D01*
X35018574Y-6279853D01*
X35279727Y-6171680D01*
X35514759Y-6014637D01*
X35714637Y-5814759D01*
X35871680Y-5579727D01*
X35979853Y-5318574D01*
X36035000Y-5041335D01*
X36035000Y-4758665D01*
X35979853Y-4481426D01*
X35871680Y-4220273D01*
X35721446Y-3995431D01*
X42648866Y-3995431D01*
X42712366Y-4649293D01*
X42902208Y-5278203D01*
X43211096Y-5857992D01*
X43216172Y-5865589D01*
X43654626Y-6165769D01*
X45820395Y-4000000D01*
X43654626Y-1834231D01*
X43216172Y-2134411D01*
X42905704Y-2713356D01*
X42714148Y-3341746D01*
X42648866Y-3995431D01*
X35721446Y-3995431D01*
X35714637Y-3985241D01*
X35514759Y-3785363D01*
X35279727Y-3628320D01*
X35018574Y-3520147D01*
X34741335Y-3465000D01*
X34458665Y-3465000D01*
X34181426Y-3520147D01*
X33920273Y-3628320D01*
X33685241Y-3785363D01*
X33485363Y-3985241D01*
X33328320Y-4220273D01*
X33220147Y-4481426D01*
X33165000Y-4758665D01*
X33029724Y-4758665D01*
X32998787Y-4549870D01*
X32903603Y-4283708D01*
X32836671Y-4158486D01*
X32592702Y-4086903D01*
X31779605Y-4900000D01*
X31793748Y-4914143D01*
X31614143Y-5093748D01*
X31600000Y-5079605D01*
X30786903Y-5892702D01*
X30858486Y-6136671D01*
X30888162Y-6150713D01*
X30828320Y-6240273D01*
X30720147Y-6501426D01*
X30665000Y-6778665D01*
X17946044Y-6778665D01*
X18032764Y-6722369D01*
X18193161Y-6566169D01*
X18320003Y-6381678D01*
X18408415Y-6175987D01*
X18455000Y-5957000D01*
X18455000Y-5407000D01*
X17447000Y-5407000D01*
X17193000Y-5407000D01*
X17173000Y-5407000D01*
X17173000Y-5153000D01*
X17193000Y-5153000D01*
X17193000Y-3762046D01*
X17447000Y-3762046D01*
X17447000Y-5153000D01*
X18455000Y-5153000D01*
X18455000Y-4970512D01*
X30159783Y-4970512D01*
X30201213Y-5250130D01*
X30296397Y-5516292D01*
X30363329Y-5641514D01*
X30607298Y-5713097D01*
X31420395Y-4900000D01*
X30607298Y-4086903D01*
X30363329Y-4158486D01*
X30242429Y-4413996D01*
X30173700Y-4688184D01*
X30159783Y-4970512D01*
X18455000Y-4970512D01*
X18455000Y-4603000D01*
X18408415Y-4384013D01*
X18320003Y-4178322D01*
X18193161Y-3993831D01*
X18104303Y-3907298D01*
X30786903Y-3907298D01*
X31600000Y-4720395D01*
X32413097Y-3907298D01*
X32341514Y-3663329D01*
X32086004Y-3542429D01*
X31811816Y-3473700D01*
X31529488Y-3459783D01*
X31249870Y-3501213D01*
X30983708Y-3596397D01*
X30858486Y-3663329D01*
X30786903Y-3907298D01*
X18104303Y-3907298D01*
X18032764Y-3837631D01*
X17844976Y-3715724D01*
X17621874Y-3635881D01*
X17447000Y-3762046D01*
X17193000Y-3762046D01*
X17018126Y-3635881D01*
X16795024Y-3715724D01*
X16607236Y-3837631D01*
X16462884Y-3978206D01*
X16344731Y-3899259D01*
X16170022Y-3826892D01*
X15984552Y-3790000D01*
X15795448Y-3790000D01*
X15609978Y-3826892D01*
X15435269Y-3899259D01*
X15278036Y-4004319D01*
X15144319Y-4138036D01*
X15039259Y-4295269D01*
X14966892Y-4469978D01*
X14930000Y-4655448D01*
X11070000Y-4655448D01*
X11033108Y-4469978D01*
X10960741Y-4295269D01*
X10855681Y-4138036D01*
X10721964Y-4004319D01*
X10564731Y-3899259D01*
X10390022Y-3826892D01*
X10204552Y-3790000D01*
X10015448Y-3790000D01*
X9829978Y-3826892D01*
X9655269Y-3899259D01*
X9537116Y-3978206D01*
X9392764Y-3837631D01*
X9204976Y-3715724D01*
X8981874Y-3635881D01*
X8807000Y-3762046D01*
X8553000Y-3762046D01*
X8378126Y-3635881D01*
X8155024Y-3715724D01*
X7967236Y-3837631D01*
X7806839Y-3993831D01*
X7679997Y-4178322D01*
X7591585Y-4384013D01*
X7545000Y-4603000D01*
X7291370Y-4603000D01*
X7351134Y-4004569D01*
X7287634Y-3350707D01*
X7097792Y-2721797D01*
X6788904Y-2142008D01*
X6783828Y-2134411D01*
X6345374Y-1834231D01*
X4179605Y-4000000D01*
X3820395Y-4000000D01*
X3806253Y-3985858D01*
X3985858Y-3806253D01*
X4000000Y-3820395D01*
X6165769Y-1654626D01*
X5873003Y-1227000D01*
X7545000Y-1227000D01*
X7545000Y-1527000D01*
X7591585Y-1745987D01*
X7679997Y-1951678D01*
X7806839Y-2136169D01*
X7967236Y-2292369D01*
X8155024Y-2414276D01*
X8378126Y-2494119D01*
X8553000Y-2367954D01*
X8553000Y-1227000D01*
X8807000Y-1227000D01*
X8807000Y-2367954D01*
X8981874Y-2494119D01*
X9204976Y-2414276D01*
X9392764Y-2292369D01*
X9553161Y-2136169D01*
X9680003Y-1951678D01*
X9768415Y-1745987D01*
X9815000Y-1527000D01*
X9815000Y-1227000D01*
X16185000Y-1227000D01*
X16185000Y-1527000D01*
X16231585Y-1745987D01*
X16319997Y-1951678D01*
X16446839Y-2136169D01*
X16607236Y-2292369D01*
X16795024Y-2414276D01*
X17018126Y-2494119D01*
X17193000Y-2367954D01*
X17193000Y-1227000D01*
X17447000Y-1227000D01*
X17447000Y-2367954D01*
X17621874Y-2494119D01*
X17844976Y-2414276D01*
X18032764Y-2292369D01*
X18193161Y-2136169D01*
X18320003Y-1951678D01*
X18408415Y-1745987D01*
X18455000Y-1527000D01*
X18455000Y-1227000D01*
X17447000Y-1227000D01*
X17193000Y-1227000D01*
X16185000Y-1227000D01*
X9815000Y-1227000D01*
X8807000Y-1227000D01*
X8553000Y-1227000D01*
X7545000Y-1227000D01*
X5873003Y-1227000D01*
X5865589Y-1216172D01*
X5286644Y-905704D01*
X4658254Y-714148D01*
X4116057Y-660000D01*
X7547765Y-660000D01*
X7545000Y-673000D01*
X7545000Y-673000D01*
G37*
X7545000Y-673000D02*
X7545000Y-973000D01*
X8553000Y-973000D01*
X8553000Y-953000D01*
X8807000Y-953000D01*
X8807000Y-973000D01*
X9815000Y-973000D01*
X9815000Y-673000D01*
X9812235Y-660000D01*
X16187765Y-660000D01*
X16185000Y-673000D01*
X16185000Y-973000D01*
X17193000Y-973000D01*
X17193000Y-953000D01*
X17447000Y-953000D01*
X17447000Y-973000D01*
X18455000Y-973000D01*
X18455000Y-673000D01*
X18452235Y-660000D01*
X45889922Y-660000D01*
X45350707Y-712366D01*
X44721797Y-902208D01*
X44142008Y-1211096D01*
X44134411Y-1216172D01*
X43834231Y-1654626D01*
X46000000Y-3820395D01*
X46014143Y-3806253D01*
X46193748Y-3985858D01*
X46179605Y-4000000D01*
X48345374Y-6165769D01*
X48783828Y-5865589D01*
X49094296Y-5286644D01*
X49285852Y-4658254D01*
X49340000Y-4116057D01*
X49340001Y-94889932D01*
X49287634Y-94350707D01*
X49097792Y-93721797D01*
X48788904Y-93142008D01*
X48783828Y-93134411D01*
X48345374Y-92834231D01*
X46179605Y-95000000D01*
X46193748Y-95014143D01*
X46014143Y-95193748D01*
X46000000Y-95179605D01*
X43834231Y-97345374D01*
X44134411Y-97783828D01*
X44713356Y-98094296D01*
X45341746Y-98285852D01*
X45883943Y-98340000D01*
X28076801Y-98340000D01*
X28114759Y-98314637D01*
X28314637Y-98114759D01*
X28471680Y-97879727D01*
X28579853Y-97618574D01*
X28635000Y-97341335D01*
X28635000Y-97058665D01*
X28579853Y-96781426D01*
X28488964Y-96562000D01*
X33093947Y-96562000D01*
X33131370Y-96565686D01*
X33168793Y-96562000D01*
X33168796Y-96562000D01*
X33280748Y-96550974D01*
X33424385Y-96507402D01*
X33556762Y-96436645D01*
X33672792Y-96341422D01*
X33696654Y-96312346D01*
X34612346Y-95396654D01*
X34641422Y-95372792D01*
X34711902Y-95286912D01*
X34736645Y-95256763D01*
X34781694Y-95172481D01*
X34807402Y-95124385D01*
X34850974Y-94980748D01*
X34856949Y-94920082D01*
X35014759Y-94814637D01*
X35070731Y-94758665D01*
X40065000Y-94758665D01*
X40065000Y-95041335D01*
X40120147Y-95318574D01*
X40228320Y-95579727D01*
X40385363Y-95814759D01*
X40585241Y-96014637D01*
X40820273Y-96171680D01*
X41081426Y-96279853D01*
X41358665Y-96335000D01*
X41641335Y-96335000D01*
X41918574Y-96279853D01*
X42179727Y-96171680D01*
X42414759Y-96014637D01*
X42614637Y-95814759D01*
X42716359Y-95662521D01*
X42902208Y-96278203D01*
X43211096Y-96857992D01*
X43216172Y-96865589D01*
X43654626Y-97165769D01*
X45820395Y-95000000D01*
X45806253Y-94985858D01*
X45985858Y-94806253D01*
X46000000Y-94820395D01*
X48165769Y-92654626D01*
X47865589Y-92216172D01*
X47286644Y-91905704D01*
X46658254Y-91714148D01*
X46004569Y-91648866D01*
X45350707Y-91712366D01*
X44972477Y-91826538D01*
X45026300Y-91611816D01*
X45040217Y-91329488D01*
X44998787Y-91049870D01*
X44903603Y-90783708D01*
X44836671Y-90658486D01*
X44592702Y-90586903D01*
X43779605Y-91400000D01*
X43793748Y-91414143D01*
X43614143Y-91593748D01*
X43600000Y-91579605D01*
X42786903Y-92392702D01*
X42858486Y-92636671D01*
X43113996Y-92757571D01*
X43388184Y-92826300D01*
X43647537Y-92839084D01*
X43216172Y-93134411D01*
X42905704Y-93713356D01*
X42757601Y-94199202D01*
X42614637Y-93985241D01*
X42414759Y-93785363D01*
X42179727Y-93628320D01*
X41918574Y-93520147D01*
X41641335Y-93465000D01*
X41358665Y-93465000D01*
X41081426Y-93520147D01*
X40820273Y-93628320D01*
X40585241Y-93785363D01*
X40385363Y-93985241D01*
X40228320Y-94220273D01*
X40120147Y-94481426D01*
X40065000Y-94758665D01*
X35070731Y-94758665D01*
X35214637Y-94614759D01*
X35371680Y-94379727D01*
X35479853Y-94118574D01*
X35535000Y-93841335D01*
X35535000Y-93558665D01*
X35479853Y-93281426D01*
X35371680Y-93020273D01*
X35214637Y-92785241D01*
X35014759Y-92585363D01*
X34779727Y-92428320D01*
X34518574Y-92320147D01*
X34241335Y-92265000D01*
X33958665Y-92265000D01*
X33681426Y-92320147D01*
X33420273Y-92428320D01*
X33185241Y-92585363D01*
X32985363Y-92785241D01*
X32901992Y-92910015D01*
X32779727Y-92828320D01*
X32518574Y-92720147D01*
X32241335Y-92665000D01*
X31958665Y-92665000D01*
X31778473Y-92700843D01*
X30662000Y-91584370D01*
X30662000Y-91470512D01*
X42159783Y-91470512D01*
X42201213Y-91750130D01*
X42296397Y-92016292D01*
X42363329Y-92141514D01*
X42607298Y-92213097D01*
X43420395Y-91400000D01*
X42607298Y-90586903D01*
X42363329Y-90658486D01*
X42242429Y-90913996D01*
X42173700Y-91188184D01*
X42159783Y-91470512D01*
X30662000Y-91470512D01*
X30662000Y-89778363D01*
X34865000Y-89778363D01*
X34865000Y-90021637D01*
X34912460Y-90260236D01*
X35005557Y-90484992D01*
X35140713Y-90687267D01*
X35312733Y-90859287D01*
X35515008Y-90994443D01*
X35739764Y-91087540D01*
X35978363Y-91135000D01*
X36221637Y-91135000D01*
X36460236Y-91087540D01*
X36684992Y-90994443D01*
X36887267Y-90859287D01*
X37059287Y-90687267D01*
X37079731Y-90656670D01*
X37185363Y-90814759D01*
X37385241Y-91014637D01*
X37620273Y-91171680D01*
X37881426Y-91279853D01*
X38158665Y-91335000D01*
X38441335Y-91335000D01*
X38718574Y-91279853D01*
X38979727Y-91171680D01*
X39214759Y-91014637D01*
X39414637Y-90814759D01*
X39571680Y-90579727D01*
X39643102Y-90407298D01*
X42786903Y-90407298D01*
X43600000Y-91220395D01*
X44413097Y-90407298D01*
X44341514Y-90163329D01*
X44086004Y-90042429D01*
X43811816Y-89973700D01*
X43529488Y-89959783D01*
X43249870Y-90001213D01*
X42983708Y-90096397D01*
X42858486Y-90163329D01*
X42786903Y-90407298D01*
X39643102Y-90407298D01*
X39679853Y-90318574D01*
X39735000Y-90041335D01*
X39735000Y-89758665D01*
X39679853Y-89481426D01*
X39571680Y-89220273D01*
X39414637Y-88985241D01*
X39214759Y-88785363D01*
X39204283Y-88778363D01*
X39865000Y-88778363D01*
X39865000Y-89021637D01*
X39912460Y-89260236D01*
X40005557Y-89484992D01*
X40140713Y-89687267D01*
X40312733Y-89859287D01*
X40515008Y-89994443D01*
X40739764Y-90087540D01*
X40978363Y-90135000D01*
X41221637Y-90135000D01*
X41460236Y-90087540D01*
X41684992Y-89994443D01*
X41887267Y-89859287D01*
X42059287Y-89687267D01*
X42194443Y-89484992D01*
X42287540Y-89260236D01*
X42335000Y-89021637D01*
X42335000Y-88778363D01*
X42287540Y-88539764D01*
X42194443Y-88315008D01*
X42059287Y-88112733D01*
X41887267Y-87940713D01*
X41684992Y-87805557D01*
X41460236Y-87712460D01*
X41221637Y-87665000D01*
X40978363Y-87665000D01*
X40739764Y-87712460D01*
X40515008Y-87805557D01*
X40312733Y-87940713D01*
X40140713Y-88112733D01*
X40005557Y-88315008D01*
X39912460Y-88539764D01*
X39865000Y-88778363D01*
X39204283Y-88778363D01*
X39089985Y-88701992D01*
X39171680Y-88579727D01*
X39279853Y-88318574D01*
X39335000Y-88041335D01*
X39335000Y-87758665D01*
X39279853Y-87481426D01*
X39243103Y-87392702D01*
X42786903Y-87392702D01*
X42858486Y-87636671D01*
X43113996Y-87757571D01*
X43388184Y-87826300D01*
X43670512Y-87840217D01*
X43950130Y-87798787D01*
X44216292Y-87703603D01*
X44341514Y-87636671D01*
X44413097Y-87392702D01*
X43600000Y-86579605D01*
X42786903Y-87392702D01*
X39243103Y-87392702D01*
X39171680Y-87220273D01*
X39014637Y-86985241D01*
X38814759Y-86785363D01*
X38579727Y-86628320D01*
X38318574Y-86520147D01*
X38069046Y-86470512D01*
X42159783Y-86470512D01*
X42201213Y-86750130D01*
X42296397Y-87016292D01*
X42363329Y-87141514D01*
X42607298Y-87213097D01*
X43420395Y-86400000D01*
X43779605Y-86400000D01*
X44592702Y-87213097D01*
X44836671Y-87141514D01*
X44957571Y-86886004D01*
X45026300Y-86611816D01*
X45040217Y-86329488D01*
X44998787Y-86049870D01*
X44903603Y-85783708D01*
X44836671Y-85658486D01*
X44592702Y-85586903D01*
X43779605Y-86400000D01*
X43420395Y-86400000D01*
X42607298Y-85586903D01*
X42363329Y-85658486D01*
X42242429Y-85913996D01*
X42173700Y-86188184D01*
X42159783Y-86470512D01*
X38069046Y-86470512D01*
X38041335Y-86465000D01*
X37758665Y-86465000D01*
X37481426Y-86520147D01*
X37220273Y-86628320D01*
X36985241Y-86785363D01*
X36785363Y-86985241D01*
X36628320Y-87220273D01*
X36520147Y-87481426D01*
X36465000Y-87758665D01*
X36465000Y-88041335D01*
X36520147Y-88318574D01*
X36628320Y-88579727D01*
X36785363Y-88814759D01*
X36985241Y-89014637D01*
X37110015Y-89098008D01*
X37079731Y-89143330D01*
X37059287Y-89112733D01*
X36887267Y-88940713D01*
X36684992Y-88805557D01*
X36460236Y-88712460D01*
X36221637Y-88665000D01*
X35978363Y-88665000D01*
X35739764Y-88712460D01*
X35515008Y-88805557D01*
X35312733Y-88940713D01*
X35140713Y-89112733D01*
X35005557Y-89315008D01*
X34912460Y-89539764D01*
X34865000Y-89778363D01*
X30662000Y-89778363D01*
X30662000Y-88215630D01*
X33184928Y-85692702D01*
X34986903Y-85692702D01*
X35058486Y-85936671D01*
X35313996Y-86057571D01*
X35588184Y-86126300D01*
X35870512Y-86140217D01*
X36150130Y-86098787D01*
X36416292Y-86003603D01*
X36541514Y-85936671D01*
X36613097Y-85692702D01*
X35800000Y-84879605D01*
X34986903Y-85692702D01*
X33184928Y-85692702D01*
X33778474Y-85099157D01*
X33958665Y-85135000D01*
X34241335Y-85135000D01*
X34418931Y-85099674D01*
X34496397Y-85316292D01*
X34563329Y-85441514D01*
X34807298Y-85513097D01*
X35620395Y-84700000D01*
X35979605Y-84700000D01*
X36792702Y-85513097D01*
X37036671Y-85441514D01*
X37052861Y-85407298D01*
X42786903Y-85407298D01*
X43600000Y-86220395D01*
X44413097Y-85407298D01*
X44341514Y-85163329D01*
X44086004Y-85042429D01*
X43811816Y-84973700D01*
X43529488Y-84959783D01*
X43249870Y-85001213D01*
X42983708Y-85096397D01*
X42858486Y-85163329D01*
X42786903Y-85407298D01*
X37052861Y-85407298D01*
X37157571Y-85186004D01*
X37226300Y-84911816D01*
X37240217Y-84629488D01*
X37198787Y-84349870D01*
X37103603Y-84083708D01*
X37036671Y-83958486D01*
X36792702Y-83886903D01*
X35979605Y-84700000D01*
X35620395Y-84700000D01*
X35606253Y-84685858D01*
X35785858Y-84506253D01*
X35800000Y-84520395D01*
X36613097Y-83707298D01*
X36541514Y-83463329D01*
X36286004Y-83342429D01*
X36011816Y-83273700D01*
X35729488Y-83259783D01*
X35482818Y-83296331D01*
X35479853Y-83281426D01*
X35371680Y-83020273D01*
X35214637Y-82785241D01*
X35014759Y-82585363D01*
X34779727Y-82428320D01*
X34518574Y-82320147D01*
X34241335Y-82265000D01*
X33958665Y-82265000D01*
X33681426Y-82320147D01*
X33420273Y-82428320D01*
X33185241Y-82585363D01*
X32985363Y-82785241D01*
X32901992Y-82910015D01*
X32779727Y-82828320D01*
X32518574Y-82720147D01*
X32241335Y-82665000D01*
X31958665Y-82665000D01*
X31681426Y-82720147D01*
X31420273Y-82828320D01*
X31185241Y-82985363D01*
X30985363Y-83185241D01*
X30828320Y-83420273D01*
X30720147Y-83681426D01*
X30665000Y-83958665D01*
X30665000Y-84241335D01*
X30720147Y-84518574D01*
X30828320Y-84779727D01*
X30985363Y-85014759D01*
X31185241Y-85214637D01*
X31378561Y-85343809D01*
X29584370Y-87138000D01*
X29116707Y-87138000D01*
X29014637Y-86985241D01*
X28814759Y-86785363D01*
X28579727Y-86628320D01*
X28318574Y-86520147D01*
X28041335Y-86465000D01*
X27758665Y-86465000D01*
X27481426Y-86520147D01*
X27220273Y-86628320D01*
X26985241Y-86785363D01*
X26785363Y-86985241D01*
X26628320Y-87220273D01*
X26520147Y-87481426D01*
X26465000Y-87758665D01*
X26465000Y-88041335D01*
X26520147Y-88318574D01*
X26628320Y-88579727D01*
X26785363Y-88814759D01*
X26985241Y-89014637D01*
X27040880Y-89051814D01*
X26928320Y-89220273D01*
X26820147Y-89481426D01*
X26765000Y-89758665D01*
X26765000Y-90041335D01*
X26820147Y-90318574D01*
X26928320Y-90579727D01*
X27085363Y-90814759D01*
X27285241Y-91014637D01*
X27520273Y-91171680D01*
X27781426Y-91279853D01*
X28058665Y-91335000D01*
X28341335Y-91335000D01*
X28618574Y-91279853D01*
X28879727Y-91171680D01*
X29114759Y-91014637D01*
X29138001Y-90991395D01*
X29138001Y-91862567D01*
X29134314Y-91900000D01*
X29149027Y-92049378D01*
X29192599Y-92193015D01*
X29263355Y-92325392D01*
X29334721Y-92412351D01*
X29358579Y-92441422D01*
X29387649Y-92465279D01*
X30700843Y-93778473D01*
X30665000Y-93958665D01*
X30665000Y-94241335D01*
X30720147Y-94518574D01*
X30828320Y-94779727D01*
X30985363Y-95014759D01*
X31008604Y-95038000D01*
X29880272Y-95038000D01*
X29895226Y-95001898D01*
X29935000Y-94801939D01*
X29935000Y-94598061D01*
X29895226Y-94398102D01*
X29817205Y-94209744D01*
X29703937Y-94040226D01*
X29559774Y-93896063D01*
X29390256Y-93782795D01*
X29201898Y-93704774D01*
X29001939Y-93665000D01*
X28798061Y-93665000D01*
X28598102Y-93704774D01*
X28409744Y-93782795D01*
X28240226Y-93896063D01*
X28098289Y-94038000D01*
X21401711Y-94038000D01*
X21359774Y-93996063D01*
X21190256Y-93882795D01*
X21001898Y-93804774D01*
X20801939Y-93765000D01*
X20598061Y-93765000D01*
X20398102Y-93804774D01*
X20209744Y-93882795D01*
X20040226Y-93996063D01*
X19896063Y-94140226D01*
X19782795Y-94309744D01*
X19704774Y-94498102D01*
X19665000Y-94698061D01*
X19665000Y-94901939D01*
X19704774Y-95101898D01*
X19782795Y-95290256D01*
X19896063Y-95459774D01*
X20029329Y-95593040D01*
X19657370Y-95965000D01*
X19598061Y-95965000D01*
X19398102Y-96004774D01*
X19209744Y-96082795D01*
X19040226Y-96196063D01*
X18896063Y-96340226D01*
X18782795Y-96509744D01*
X18704774Y-96698102D01*
X18665000Y-96898061D01*
X18665000Y-97101939D01*
X18704774Y-97301898D01*
X18782795Y-97490256D01*
X18896063Y-97659774D01*
X19040226Y-97803937D01*
X19209744Y-97917205D01*
X19398102Y-97995226D01*
X19598061Y-98035000D01*
X19801939Y-98035000D01*
X20001898Y-97995226D01*
X20190256Y-97917205D01*
X20359774Y-97803937D01*
X20503937Y-97659774D01*
X20617205Y-97490256D01*
X20695226Y-97301898D01*
X20735000Y-97101939D01*
X20735000Y-97042630D01*
X21215631Y-96562000D01*
X25911036Y-96562000D01*
X25820147Y-96781426D01*
X25765000Y-97058665D01*
X25765000Y-97341335D01*
X25820147Y-97618574D01*
X25928320Y-97879727D01*
X26085363Y-98114759D01*
X26285241Y-98314637D01*
X26323199Y-98340000D01*
X4110078Y-98340000D01*
X4649293Y-98287634D01*
X5278203Y-98097792D01*
X5857992Y-97788904D01*
X5865589Y-97783828D01*
X6165769Y-97345374D01*
X4000000Y-95179605D01*
X3985858Y-95193748D01*
X3806253Y-95014143D01*
X3820395Y-95000000D01*
X4179605Y-95000000D01*
X6345374Y-97165769D01*
X6783828Y-96865589D01*
X7094296Y-96286644D01*
X7285852Y-95658254D01*
X7351134Y-95004569D01*
X7287634Y-94350707D01*
X7097792Y-93721797D01*
X6788904Y-93142008D01*
X6783828Y-93134411D01*
X6345374Y-92834231D01*
X4179605Y-95000000D01*
X3820395Y-95000000D01*
X1654626Y-92834231D01*
X1216172Y-93134411D01*
X905704Y-93713356D01*
X714148Y-94341746D01*
X660000Y-94883943D01*
X660000Y-92654626D01*
X1834231Y-92654626D01*
X4000000Y-94820395D01*
X6165769Y-92654626D01*
X5865589Y-92216172D01*
X5286644Y-91905704D01*
X4658254Y-91714148D01*
X4004569Y-91648866D01*
X3350707Y-91712366D01*
X2721797Y-91902208D01*
X2142008Y-92211096D01*
X2134411Y-92216172D01*
X1834231Y-92654626D01*
X660000Y-92654626D01*
X660000Y-91258665D01*
X21165000Y-91258665D01*
X21165000Y-91541335D01*
X21220147Y-91818574D01*
X21328320Y-92079727D01*
X21485363Y-92314759D01*
X21685241Y-92514637D01*
X21920273Y-92671680D01*
X22181426Y-92779853D01*
X22458665Y-92835000D01*
X22741335Y-92835000D01*
X23018574Y-92779853D01*
X23279727Y-92671680D01*
X23514759Y-92514637D01*
X23714637Y-92314759D01*
X23871680Y-92079727D01*
X23979853Y-91818574D01*
X24035000Y-91541335D01*
X24035000Y-91258665D01*
X23979853Y-90981426D01*
X23871680Y-90720273D01*
X23714637Y-90485241D01*
X23514759Y-90285363D01*
X23279727Y-90128320D01*
X23018574Y-90020147D01*
X22741335Y-89965000D01*
X22458665Y-89965000D01*
X22181426Y-90020147D01*
X21920273Y-90128320D01*
X21685241Y-90285363D01*
X21485363Y-90485241D01*
X21328320Y-90720273D01*
X21220147Y-90981426D01*
X21165000Y-91258665D01*
X660000Y-91258665D01*
X660000Y-56819115D01*
X663355Y-56825392D01*
X697213Y-56866648D01*
X758578Y-56941422D01*
X787654Y-56965284D01*
X838001Y-57015631D01*
X838000Y-73666577D01*
X834314Y-73704000D01*
X838000Y-73741423D01*
X838000Y-73741425D01*
X849026Y-73853377D01*
X892598Y-73997014D01*
X892599Y-73997015D01*
X963355Y-74129392D01*
X980268Y-74150000D01*
X1058578Y-74245422D01*
X1087654Y-74269284D01*
X2330721Y-75512352D01*
X2354578Y-75541422D01*
X2383648Y-75565279D01*
X2470607Y-75636645D01*
X2511928Y-75658731D01*
X2511928Y-75850000D01*
X2524188Y-75974482D01*
X2560498Y-76094180D01*
X2619463Y-76204494D01*
X2698815Y-76301185D01*
X2795506Y-76380537D01*
X2905820Y-76439502D01*
X2986466Y-76463966D01*
X2902412Y-76539731D01*
X2728359Y-76773080D01*
X2603175Y-77035901D01*
X2558524Y-77183110D01*
X2679845Y-77413000D01*
X3873000Y-77413000D01*
X3873000Y-77393000D01*
X4127000Y-77393000D01*
X4127000Y-77413000D01*
X5320155Y-77413000D01*
X5441476Y-77183110D01*
X5396825Y-77035901D01*
X5271641Y-76773080D01*
X5097588Y-76539731D01*
X5013534Y-76463966D01*
X5094180Y-76439502D01*
X5204494Y-76380537D01*
X5301185Y-76301185D01*
X5380537Y-76204494D01*
X5439502Y-76094180D01*
X5475812Y-75974482D01*
X5488072Y-75850000D01*
X5488072Y-74150000D01*
X5475812Y-74025518D01*
X5439502Y-73905820D01*
X5380537Y-73795506D01*
X5301185Y-73698815D01*
X5204494Y-73619463D01*
X5094180Y-73560498D01*
X4974482Y-73524188D01*
X4850000Y-73511928D01*
X3150000Y-73511928D01*
X3025518Y-73524188D01*
X2905820Y-73560498D01*
X2795506Y-73619463D01*
X2698815Y-73698815D01*
X2686929Y-73713298D01*
X2362000Y-73388370D01*
X2362000Y-68850000D01*
X2511928Y-68850000D01*
X2524188Y-68974482D01*
X2560498Y-69094180D01*
X2619463Y-69204494D01*
X2698815Y-69301185D01*
X2795506Y-69380537D01*
X2905820Y-69439502D01*
X3025518Y-69475812D01*
X3150000Y-69488072D01*
X3714250Y-69485000D01*
X3873000Y-69326250D01*
X3873000Y-68127000D01*
X4127000Y-68127000D01*
X4127000Y-69326250D01*
X4285750Y-69485000D01*
X4850000Y-69488072D01*
X4974482Y-69475812D01*
X5094180Y-69439502D01*
X5204494Y-69380537D01*
X5301185Y-69301185D01*
X5380537Y-69204494D01*
X5439502Y-69094180D01*
X5475812Y-68974482D01*
X5488072Y-68850000D01*
X5485000Y-68285750D01*
X5326250Y-68127000D01*
X4127000Y-68127000D01*
X3873000Y-68127000D01*
X2673750Y-68127000D01*
X2515000Y-68285750D01*
X2511928Y-68850000D01*
X2362000Y-68850000D01*
X2362000Y-56923053D01*
X2501898Y-56895226D01*
X2690256Y-56817205D01*
X2859774Y-56703937D01*
X3003937Y-56559774D01*
X3117205Y-56390256D01*
X3195226Y-56201898D01*
X3235000Y-56001939D01*
X3235000Y-55798061D01*
X3195226Y-55598102D01*
X3117205Y-55409744D01*
X3003937Y-55240226D01*
X2951228Y-55187517D01*
X2950974Y-55184937D01*
X2907402Y-55041300D01*
X2836645Y-54908923D01*
X2741422Y-54792893D01*
X2712346Y-54769031D01*
X2562000Y-54618685D01*
X2562000Y-51786222D01*
X19038001Y-68262224D01*
X19038001Y-68362578D01*
X19034315Y-68400001D01*
X19038001Y-68437424D01*
X19038001Y-68437426D01*
X19049027Y-68549378D01*
X19092599Y-68693015D01*
X19125536Y-68754636D01*
X19163356Y-68825393D01*
X19165000Y-68827396D01*
X19165000Y-68901939D01*
X19204774Y-69101898D01*
X19282795Y-69290256D01*
X19396063Y-69459774D01*
X19540226Y-69603937D01*
X19709744Y-69717205D01*
X19898102Y-69795226D01*
X20098061Y-69835000D01*
X20301939Y-69835000D01*
X20501898Y-69795226D01*
X20690256Y-69717205D01*
X20750000Y-69677285D01*
X20809744Y-69717205D01*
X20998102Y-69795226D01*
X21198061Y-69835000D01*
X21401939Y-69835000D01*
X21601898Y-69795226D01*
X21790256Y-69717205D01*
X21959774Y-69603937D01*
X22103937Y-69459774D01*
X22217205Y-69290256D01*
X22231506Y-69255729D01*
X22298265Y-69322488D01*
X22298270Y-69322492D01*
X22813778Y-69838000D01*
X15737711Y-69838000D01*
X5767365Y-59867654D01*
X5743503Y-59838578D01*
X5627473Y-59743355D01*
X5495096Y-59672598D01*
X5351459Y-59629026D01*
X5278583Y-59621849D01*
X5240706Y-59550986D01*
X5055134Y-59324866D01*
X4829014Y-59139294D01*
X4571034Y-59001401D01*
X4291111Y-58916487D01*
X4072950Y-58895000D01*
X3927050Y-58895000D01*
X3708889Y-58916487D01*
X3428966Y-59001401D01*
X3170986Y-59139294D01*
X2944866Y-59324866D01*
X2759294Y-59550986D01*
X2621401Y-59808966D01*
X2536487Y-60088889D01*
X2507815Y-60380000D01*
X2536487Y-60671111D01*
X2621401Y-60951034D01*
X2759294Y-61209014D01*
X2944866Y-61435134D01*
X3170986Y-61620706D01*
X3225791Y-61650000D01*
X3170986Y-61679294D01*
X2944866Y-61864866D01*
X2759294Y-62090986D01*
X2621401Y-62348966D01*
X2536487Y-62628889D01*
X2507815Y-62920000D01*
X2536487Y-63211111D01*
X2621401Y-63491034D01*
X2759294Y-63749014D01*
X2944866Y-63975134D01*
X3170986Y-64160706D01*
X3225791Y-64190000D01*
X3170986Y-64219294D01*
X2944866Y-64404866D01*
X2759294Y-64630986D01*
X2621401Y-64888966D01*
X2536487Y-65168889D01*
X2507815Y-65460000D01*
X2536487Y-65751111D01*
X2621401Y-66031034D01*
X2759294Y-66289014D01*
X2944866Y-66515134D01*
X2974687Y-66539607D01*
X2905820Y-66560498D01*
X2795506Y-66619463D01*
X2698815Y-66698815D01*
X2619463Y-66795506D01*
X2560498Y-66905820D01*
X2524188Y-67025518D01*
X2511928Y-67150000D01*
X2515000Y-67714250D01*
X2673750Y-67873000D01*
X3873000Y-67873000D01*
X3873000Y-67853000D01*
X4127000Y-67853000D01*
X4127000Y-67873000D01*
X5326250Y-67873000D01*
X5485000Y-67714250D01*
X5488072Y-67150000D01*
X5475812Y-67025518D01*
X5439502Y-66905820D01*
X5380537Y-66795506D01*
X5301185Y-66698815D01*
X5204494Y-66619463D01*
X5094180Y-66560498D01*
X5025313Y-66539607D01*
X5055134Y-66515134D01*
X5240706Y-66289014D01*
X5276526Y-66222000D01*
X8144370Y-66222000D01*
X14984721Y-73062352D01*
X15008578Y-73091422D01*
X15124608Y-73186645D01*
X15256985Y-73257402D01*
X15400622Y-73300974D01*
X15512574Y-73312000D01*
X15512576Y-73312000D01*
X15549999Y-73315686D01*
X15587422Y-73312000D01*
X16448289Y-73312000D01*
X16490226Y-73353937D01*
X16616036Y-73438000D01*
X11601711Y-73438000D01*
X11459774Y-73296063D01*
X11290256Y-73182795D01*
X11101898Y-73104774D01*
X10901939Y-73065000D01*
X10698061Y-73065000D01*
X10498102Y-73104774D01*
X10309744Y-73182795D01*
X10140226Y-73296063D01*
X9996063Y-73440226D01*
X9882795Y-73609744D01*
X9804774Y-73798102D01*
X9765000Y-73998061D01*
X9765000Y-74201939D01*
X9804774Y-74401898D01*
X9882795Y-74590256D01*
X9996063Y-74759774D01*
X10140226Y-74903937D01*
X10309744Y-75017205D01*
X10498102Y-75095226D01*
X10698061Y-75135000D01*
X10901939Y-75135000D01*
X11101898Y-75095226D01*
X11290256Y-75017205D01*
X11372876Y-74962000D01*
X12759947Y-74962000D01*
X12709744Y-74982795D01*
X12540226Y-75096063D01*
X12396063Y-75240226D01*
X12282795Y-75409744D01*
X12204774Y-75598102D01*
X12165000Y-75798061D01*
X12165000Y-75857369D01*
X6164370Y-81858000D01*
X5276526Y-81858000D01*
X5240706Y-81790986D01*
X5055134Y-81564866D01*
X4829014Y-81379294D01*
X4774209Y-81350000D01*
X4829014Y-81320706D01*
X5055134Y-81135134D01*
X5240706Y-80909014D01*
X5378599Y-80651034D01*
X5463513Y-80371111D01*
X5492185Y-80080000D01*
X5463513Y-79788889D01*
X5378599Y-79508966D01*
X5240706Y-79250986D01*
X5055134Y-79024866D01*
X4829014Y-78839294D01*
X4764477Y-78804799D01*
X4881355Y-78735178D01*
X5097588Y-78540269D01*
X5271641Y-78306920D01*
X5396825Y-78044099D01*
X5441476Y-77896890D01*
X5320155Y-77667000D01*
X4127000Y-77667000D01*
X4127000Y-77687000D01*
X3873000Y-77687000D01*
X3873000Y-77667000D01*
X2679845Y-77667000D01*
X2558524Y-77896890D01*
X2603175Y-78044099D01*
X2728359Y-78306920D01*
X2902412Y-78540269D01*
X3118645Y-78735178D01*
X3235523Y-78804799D01*
X3170986Y-78839294D01*
X2944866Y-79024866D01*
X2759294Y-79250986D01*
X2621401Y-79508966D01*
X2536487Y-79788889D01*
X2507815Y-80080000D01*
X2536487Y-80371111D01*
X2621401Y-80651034D01*
X2759294Y-80909014D01*
X2944866Y-81135134D01*
X3170986Y-81320706D01*
X3225791Y-81350000D01*
X3170986Y-81379294D01*
X2944866Y-81564866D01*
X2759294Y-81790986D01*
X2621401Y-82048966D01*
X2536487Y-82328889D01*
X2507815Y-82620000D01*
X2536487Y-82911111D01*
X2621401Y-83191034D01*
X2759294Y-83449014D01*
X2944866Y-83675134D01*
X3170986Y-83860706D01*
X3225791Y-83890000D01*
X3170986Y-83919294D01*
X2944866Y-84104866D01*
X2759294Y-84330986D01*
X2621401Y-84588966D01*
X2536487Y-84868889D01*
X2507815Y-85160000D01*
X2536487Y-85451111D01*
X2621401Y-85731034D01*
X2759294Y-85989014D01*
X2944866Y-86215134D01*
X3170986Y-86400706D01*
X3428966Y-86538599D01*
X3708889Y-86623513D01*
X3927050Y-86645000D01*
X4072950Y-86645000D01*
X4291111Y-86623513D01*
X4571034Y-86538599D01*
X4829014Y-86400706D01*
X5002091Y-86258665D01*
X21165000Y-86258665D01*
X21165000Y-86541335D01*
X21220147Y-86818574D01*
X21328320Y-87079727D01*
X21485363Y-87314759D01*
X21685241Y-87514637D01*
X21920273Y-87671680D01*
X22181426Y-87779853D01*
X22458665Y-87835000D01*
X22741335Y-87835000D01*
X23018574Y-87779853D01*
X23279727Y-87671680D01*
X23514759Y-87514637D01*
X23714637Y-87314759D01*
X23871680Y-87079727D01*
X23979853Y-86818574D01*
X24035000Y-86541335D01*
X24035000Y-86258665D01*
X23979853Y-85981426D01*
X23871680Y-85720273D01*
X23714637Y-85485241D01*
X23514759Y-85285363D01*
X23279727Y-85128320D01*
X23018574Y-85020147D01*
X22741335Y-84965000D01*
X22458665Y-84965000D01*
X22181426Y-85020147D01*
X21920273Y-85128320D01*
X21685241Y-85285363D01*
X21485363Y-85485241D01*
X21328320Y-85720273D01*
X21220147Y-85981426D01*
X21165000Y-86258665D01*
X5002091Y-86258665D01*
X5055134Y-86215134D01*
X5240706Y-85989014D01*
X5378599Y-85731034D01*
X5463513Y-85451111D01*
X5492185Y-85160000D01*
X5463513Y-84868889D01*
X5378599Y-84588966D01*
X5240706Y-84330986D01*
X5055134Y-84104866D01*
X4829014Y-83919294D01*
X4774209Y-83890000D01*
X4829014Y-83860706D01*
X5055134Y-83675134D01*
X5240706Y-83449014D01*
X5276526Y-83382000D01*
X6442577Y-83382000D01*
X6480000Y-83385686D01*
X6517423Y-83382000D01*
X6517426Y-83382000D01*
X6629378Y-83370974D01*
X6773015Y-83327402D01*
X6905392Y-83256645D01*
X7021422Y-83161422D01*
X7045284Y-83132346D01*
X13242631Y-76935000D01*
X13301939Y-76935000D01*
X13501898Y-76895226D01*
X13690256Y-76817205D01*
X13859774Y-76703937D01*
X13865650Y-76698061D01*
X14265000Y-76698061D01*
X14265000Y-76901939D01*
X14304774Y-77101898D01*
X14382795Y-77290256D01*
X14496063Y-77459774D01*
X14538001Y-77501712D01*
X14538000Y-81698289D01*
X14496063Y-81740226D01*
X14382795Y-81909744D01*
X14304774Y-82098102D01*
X14265000Y-82298061D01*
X14265000Y-82501939D01*
X14304774Y-82701898D01*
X14382795Y-82890256D01*
X14496063Y-83059774D01*
X14640226Y-83203937D01*
X14809744Y-83317205D01*
X14998102Y-83395226D01*
X15198061Y-83435000D01*
X15401939Y-83435000D01*
X15601898Y-83395226D01*
X15790256Y-83317205D01*
X15959774Y-83203937D01*
X16103937Y-83059774D01*
X16217205Y-82890256D01*
X16230290Y-82858665D01*
X23365000Y-82858665D01*
X23365000Y-83141335D01*
X23420147Y-83418574D01*
X23528320Y-83679727D01*
X23685363Y-83914759D01*
X23885241Y-84114637D01*
X24120273Y-84271680D01*
X24381426Y-84379853D01*
X24658665Y-84435000D01*
X24941335Y-84435000D01*
X25218574Y-84379853D01*
X25479727Y-84271680D01*
X25714759Y-84114637D01*
X25914637Y-83914759D01*
X26071680Y-83679727D01*
X26179853Y-83418574D01*
X26235000Y-83141335D01*
X26235000Y-82858665D01*
X26179853Y-82581426D01*
X26071680Y-82320273D01*
X25914637Y-82085241D01*
X25714759Y-81885363D01*
X25479727Y-81728320D01*
X25218574Y-81620147D01*
X24941335Y-81565000D01*
X24658665Y-81565000D01*
X24381426Y-81620147D01*
X24120273Y-81728320D01*
X23885241Y-81885363D01*
X23685363Y-82085241D01*
X23528320Y-82320273D01*
X23420147Y-82581426D01*
X23365000Y-82858665D01*
X16230290Y-82858665D01*
X16295226Y-82701898D01*
X16335000Y-82501939D01*
X16335000Y-82298061D01*
X16295226Y-82098102D01*
X16217205Y-81909744D01*
X16103937Y-81740226D01*
X16062000Y-81698289D01*
X16062000Y-80458665D01*
X37665000Y-80458665D01*
X37665000Y-80741335D01*
X37720147Y-81018574D01*
X37828320Y-81279727D01*
X37985363Y-81514759D01*
X38185241Y-81714637D01*
X38420273Y-81871680D01*
X38681426Y-81979853D01*
X38958665Y-82035000D01*
X39241335Y-82035000D01*
X39518574Y-81979853D01*
X39779727Y-81871680D01*
X40014759Y-81714637D01*
X40214637Y-81514759D01*
X40371680Y-81279727D01*
X40479853Y-81018574D01*
X40535000Y-80741335D01*
X40535000Y-80458665D01*
X40479853Y-80181426D01*
X40371680Y-79920273D01*
X40214637Y-79685241D01*
X40014759Y-79485363D01*
X39779727Y-79328320D01*
X39518574Y-79220147D01*
X39241335Y-79165000D01*
X38958665Y-79165000D01*
X38681426Y-79220147D01*
X38420273Y-79328320D01*
X38185241Y-79485363D01*
X37985363Y-79685241D01*
X37828320Y-79920273D01*
X37720147Y-80181426D01*
X37665000Y-80458665D01*
X16062000Y-80458665D01*
X16062000Y-77501711D01*
X16103937Y-77459774D01*
X16217205Y-77290256D01*
X16295226Y-77101898D01*
X16335000Y-76901939D01*
X16335000Y-76698061D01*
X16295226Y-76498102D01*
X16217205Y-76309744D01*
X16103937Y-76140226D01*
X15959774Y-75996063D01*
X15790256Y-75882795D01*
X15601898Y-75804774D01*
X15401939Y-75765000D01*
X15198061Y-75765000D01*
X14998102Y-75804774D01*
X14809744Y-75882795D01*
X14640226Y-75996063D01*
X14496063Y-76140226D01*
X14382795Y-76309744D01*
X14304774Y-76498102D01*
X14265000Y-76698061D01*
X13865650Y-76698061D01*
X14003937Y-76559774D01*
X14117205Y-76390256D01*
X14195226Y-76201898D01*
X14235000Y-76001939D01*
X14235000Y-75798061D01*
X14195226Y-75598102D01*
X14117205Y-75409744D01*
X14003937Y-75240226D01*
X13859774Y-75096063D01*
X13690256Y-74982795D01*
X13640053Y-74962000D01*
X16798289Y-74962000D01*
X16840226Y-75003937D01*
X17009744Y-75117205D01*
X17198102Y-75195226D01*
X17398061Y-75235000D01*
X17601939Y-75235000D01*
X17801898Y-75195226D01*
X17990256Y-75117205D01*
X18159774Y-75003937D01*
X18303937Y-74859774D01*
X18417205Y-74690256D01*
X18495226Y-74501898D01*
X18535000Y-74301939D01*
X18535000Y-74098061D01*
X18495226Y-73898102D01*
X18417205Y-73709744D01*
X18303937Y-73540226D01*
X18159774Y-73396063D01*
X17990256Y-73282795D01*
X17912941Y-73250770D01*
X17953937Y-73209774D01*
X18067205Y-73040256D01*
X18145226Y-72851898D01*
X18185000Y-72651939D01*
X18185000Y-72448061D01*
X18145226Y-72248102D01*
X18067205Y-72059744D01*
X17953937Y-71890226D01*
X17809774Y-71746063D01*
X17640256Y-71632795D01*
X17451898Y-71554774D01*
X17251939Y-71515000D01*
X17048061Y-71515000D01*
X16848102Y-71554774D01*
X16659744Y-71632795D01*
X16490226Y-71746063D01*
X16448289Y-71788000D01*
X15865631Y-71788000D01*
X15441413Y-71363782D01*
X15459504Y-71362000D01*
X24615984Y-71362000D01*
X24653407Y-71365686D01*
X24690830Y-71362000D01*
X33262577Y-71362000D01*
X33300000Y-71365686D01*
X33337423Y-71362000D01*
X33337426Y-71362000D01*
X33449378Y-71350974D01*
X33593015Y-71307402D01*
X33725392Y-71236645D01*
X33841422Y-71141422D01*
X33865284Y-71112346D01*
X35110625Y-69867006D01*
X35123088Y-69872168D01*
X35438967Y-69935000D01*
X35761033Y-69935000D01*
X36076912Y-69872168D01*
X36374463Y-69748918D01*
X36642252Y-69569987D01*
X36869987Y-69342252D01*
X37048918Y-69074463D01*
X37172168Y-68776912D01*
X37235000Y-68461033D01*
X37235000Y-68138967D01*
X37172168Y-67823088D01*
X37048918Y-67525537D01*
X36869987Y-67257748D01*
X36662239Y-67050000D01*
X36869987Y-66842252D01*
X37048918Y-66574463D01*
X37172168Y-66276912D01*
X37235000Y-65961033D01*
X37235000Y-65638967D01*
X37172168Y-65323088D01*
X37048918Y-65025537D01*
X36869987Y-64757748D01*
X36642252Y-64530013D01*
X36374463Y-64351082D01*
X36076912Y-64227832D01*
X35761033Y-64165000D01*
X35438967Y-64165000D01*
X35123088Y-64227832D01*
X34825537Y-64351082D01*
X34644665Y-64471937D01*
X34630537Y-64445506D01*
X34551185Y-64348815D01*
X34454494Y-64269463D01*
X34344180Y-64210498D01*
X34224482Y-64174188D01*
X34100000Y-64161928D01*
X33385750Y-64165000D01*
X33227000Y-64323750D01*
X33227000Y-65673000D01*
X33247000Y-65673000D01*
X33247000Y-65927000D01*
X33227000Y-65927000D01*
X33227000Y-67276250D01*
X33385750Y-67435000D01*
X34100000Y-67438072D01*
X34217240Y-67426525D01*
X34151082Y-67525537D01*
X34027832Y-67823088D01*
X33965000Y-68138967D01*
X33965000Y-68461033D01*
X34027832Y-68776912D01*
X34032994Y-68789375D01*
X32984370Y-69838000D01*
X31159401Y-69838000D01*
X31374463Y-69748918D01*
X31642252Y-69569987D01*
X31869987Y-69342252D01*
X32048918Y-69074463D01*
X32172168Y-68776912D01*
X32235000Y-68461033D01*
X32235000Y-68138967D01*
X32172168Y-67823088D01*
X32048918Y-67525537D01*
X31982760Y-67426525D01*
X32100000Y-67438072D01*
X32814250Y-67435000D01*
X32973000Y-67276250D01*
X32973000Y-65927000D01*
X32953000Y-65927000D01*
X32953000Y-65673000D01*
X32973000Y-65673000D01*
X32973000Y-64323750D01*
X32814250Y-64165000D01*
X32100000Y-64161928D01*
X31975518Y-64174188D01*
X31855820Y-64210498D01*
X31745506Y-64269463D01*
X31648815Y-64348815D01*
X31569463Y-64445506D01*
X31555335Y-64471937D01*
X31374463Y-64351082D01*
X31076912Y-64227832D01*
X30761033Y-64165000D01*
X30438967Y-64165000D01*
X30123088Y-64227832D01*
X29825537Y-64351082D01*
X29557748Y-64530013D01*
X29330013Y-64757748D01*
X29151082Y-65025537D01*
X29027832Y-65323088D01*
X28965000Y-65638967D01*
X28965000Y-65961033D01*
X29027832Y-66276912D01*
X29151082Y-66574463D01*
X29330013Y-66842252D01*
X29537761Y-67050000D01*
X29330013Y-67257748D01*
X29151082Y-67525537D01*
X29145920Y-67538000D01*
X23315630Y-67538000D01*
X12345212Y-56567582D01*
X31440000Y-56567582D01*
X31440000Y-57032419D01*
X31442729Y-57060123D01*
X31442721Y-57061211D01*
X31443620Y-57070382D01*
X31445512Y-57088389D01*
X31449550Y-57129383D01*
X31456640Y-57152756D01*
X31459724Y-57167779D01*
X31470936Y-57226558D01*
X31473600Y-57235379D01*
X31485142Y-57272667D01*
X31508322Y-57327810D01*
X31530730Y-57383273D01*
X31535056Y-57391410D01*
X31553621Y-57425746D01*
X31587082Y-57475355D01*
X31619835Y-57525406D01*
X31625660Y-57532547D01*
X31650541Y-57562622D01*
X31692980Y-57604765D01*
X31734838Y-57647508D01*
X31741939Y-57653381D01*
X31741942Y-57653384D01*
X31741946Y-57653386D01*
X31772187Y-57678051D01*
X31821975Y-57711129D01*
X31871362Y-57744946D01*
X31879469Y-57749328D01*
X31913933Y-57767653D01*
X31969215Y-57790439D01*
X32024218Y-57814014D01*
X32033021Y-57816739D01*
X32070388Y-57828021D01*
X32129066Y-57839639D01*
X32148826Y-57843840D01*
X32170617Y-57850450D01*
X32194112Y-57852764D01*
X32196748Y-57853041D01*
X32235595Y-57856850D01*
X32235598Y-57856850D01*
X32267581Y-57860000D01*
X33932419Y-57860000D01*
X33960123Y-57857271D01*
X33961211Y-57857279D01*
X33970382Y-57856380D01*
X33988389Y-57854488D01*
X34029383Y-57850450D01*
X34052756Y-57843360D01*
X34067779Y-57840276D01*
X34126558Y-57829064D01*
X34135379Y-57826400D01*
X34172667Y-57814858D01*
X34227810Y-57791678D01*
X34283273Y-57769270D01*
X34291410Y-57764944D01*
X34325746Y-57746379D01*
X34375355Y-57712918D01*
X34425406Y-57680165D01*
X34432547Y-57674340D01*
X34462622Y-57649459D01*
X34504765Y-57607020D01*
X34547508Y-57565162D01*
X34553381Y-57558061D01*
X34553384Y-57558058D01*
X34553386Y-57558054D01*
X34578051Y-57527813D01*
X34611129Y-57478025D01*
X34644946Y-57428638D01*
X34649328Y-57420531D01*
X34667653Y-57386067D01*
X34690439Y-57330785D01*
X34714014Y-57275782D01*
X34716739Y-57266979D01*
X34728021Y-57229612D01*
X34739639Y-57170934D01*
X34743840Y-57151174D01*
X34750450Y-57129383D01*
X34752764Y-57105888D01*
X34753041Y-57103252D01*
X34756850Y-57064405D01*
X34756850Y-57064402D01*
X34760000Y-57032419D01*
X34760000Y-56567582D01*
X34757271Y-56539877D01*
X34757279Y-56538789D01*
X34756380Y-56529618D01*
X34754488Y-56511612D01*
X34750450Y-56470617D01*
X34743359Y-56447242D01*
X34740276Y-56432222D01*
X34729064Y-56373443D01*
X34726400Y-56364621D01*
X34714858Y-56327334D01*
X34691686Y-56272208D01*
X34669271Y-56216727D01*
X34664944Y-56208591D01*
X34664943Y-56208588D01*
X34664940Y-56208583D01*
X34646379Y-56174254D01*
X34612928Y-56124661D01*
X34580165Y-56074594D01*
X34574340Y-56067453D01*
X34549459Y-56037378D01*
X34507020Y-55995235D01*
X34465162Y-55952492D01*
X34458061Y-55946618D01*
X34427812Y-55921949D01*
X34378042Y-55888883D01*
X34328638Y-55855054D01*
X34320531Y-55850672D01*
X34286067Y-55832347D01*
X34230785Y-55809561D01*
X34175782Y-55785986D01*
X34166979Y-55783261D01*
X34129612Y-55771979D01*
X34070927Y-55760359D01*
X34051175Y-55756161D01*
X34029383Y-55749550D01*
X34005888Y-55747236D01*
X34003252Y-55746959D01*
X33964405Y-55743150D01*
X33964402Y-55743150D01*
X33932419Y-55740000D01*
X32267581Y-55740000D01*
X32239877Y-55742729D01*
X32238789Y-55742721D01*
X32229618Y-55743620D01*
X32211619Y-55745512D01*
X32170617Y-55749550D01*
X32147242Y-55756641D01*
X32132222Y-55759724D01*
X32073443Y-55770936D01*
X32064621Y-55773600D01*
X32027334Y-55785142D01*
X31972208Y-55808314D01*
X31916727Y-55830729D01*
X31908593Y-55835055D01*
X31908588Y-55835057D01*
X31908583Y-55835060D01*
X31874254Y-55853621D01*
X31824661Y-55887072D01*
X31774594Y-55919835D01*
X31767453Y-55925660D01*
X31737378Y-55950541D01*
X31695235Y-55992980D01*
X31652492Y-56034838D01*
X31646618Y-56041939D01*
X31621949Y-56072188D01*
X31588883Y-56121958D01*
X31555054Y-56171362D01*
X31550672Y-56179469D01*
X31532347Y-56213933D01*
X31509561Y-56269215D01*
X31485986Y-56324218D01*
X31483261Y-56333021D01*
X31471979Y-56370388D01*
X31460359Y-56429073D01*
X31456160Y-56448829D01*
X31449550Y-56470618D01*
X31447238Y-56494097D01*
X31446959Y-56496748D01*
X31443150Y-56535595D01*
X31440000Y-56567582D01*
X12345212Y-56567582D01*
X8794265Y-53016635D01*
X8901898Y-52995226D01*
X9090256Y-52917205D01*
X9259774Y-52803937D01*
X9301711Y-52762000D01*
X18662577Y-52762000D01*
X18700000Y-52765686D01*
X18737423Y-52762000D01*
X18737426Y-52762000D01*
X18849378Y-52750974D01*
X18993015Y-52707402D01*
X19125392Y-52636645D01*
X19241422Y-52541422D01*
X19265284Y-52512346D01*
X21379967Y-50397663D01*
X29015000Y-50397663D01*
X29015000Y-51202337D01*
X29171984Y-51991551D01*
X29479920Y-52734973D01*
X29926973Y-53404036D01*
X30495964Y-53973027D01*
X31165027Y-54420080D01*
X31908449Y-54728016D01*
X32697663Y-54885000D01*
X33502337Y-54885000D01*
X34291551Y-54728016D01*
X35034973Y-54420080D01*
X35704036Y-53973027D01*
X36273027Y-53404036D01*
X36720080Y-52734973D01*
X37028016Y-51991551D01*
X37185000Y-51202337D01*
X37185000Y-50397663D01*
X37028016Y-49608449D01*
X36720080Y-48865027D01*
X36273027Y-48195964D01*
X35704036Y-47626973D01*
X35034973Y-47179920D01*
X34291551Y-46871984D01*
X33502337Y-46715000D01*
X32697663Y-46715000D01*
X31908449Y-46871984D01*
X31165027Y-47179920D01*
X30495964Y-47626973D01*
X29926973Y-48195964D01*
X29479920Y-48865027D01*
X29171984Y-49608449D01*
X29015000Y-50397663D01*
X21379967Y-50397663D01*
X30412353Y-41365278D01*
X30441422Y-41341422D01*
X30485748Y-41287411D01*
X30536645Y-41225393D01*
X30583339Y-41138033D01*
X30605088Y-41097345D01*
X30604774Y-41098102D01*
X30565000Y-41298061D01*
X30565000Y-41501939D01*
X30604774Y-41701898D01*
X30682795Y-41890256D01*
X30796063Y-42059774D01*
X30940226Y-42203937D01*
X31109744Y-42317205D01*
X31298102Y-42395226D01*
X31498061Y-42435000D01*
X31701939Y-42435000D01*
X31901898Y-42395226D01*
X32090256Y-42317205D01*
X32259774Y-42203937D01*
X32403937Y-42059774D01*
X32517205Y-41890256D01*
X32595226Y-41701898D01*
X32635000Y-41501939D01*
X32635000Y-41298061D01*
X32595226Y-41098102D01*
X32517205Y-40909744D01*
X32403937Y-40740226D01*
X32362000Y-40698289D01*
X32362000Y-29998061D01*
X34965000Y-29998061D01*
X34965000Y-30201939D01*
X35004774Y-30401898D01*
X35082795Y-30590256D01*
X35196063Y-30759774D01*
X35238001Y-30801712D01*
X35238000Y-34598289D01*
X35196063Y-34640226D01*
X35082795Y-34809744D01*
X35004774Y-34998102D01*
X34965000Y-35198061D01*
X34965000Y-35401939D01*
X35004774Y-35601898D01*
X35082795Y-35790256D01*
X35196063Y-35959774D01*
X35340226Y-36103937D01*
X35509744Y-36217205D01*
X35698102Y-36295226D01*
X35898061Y-36335000D01*
X36101939Y-36335000D01*
X36301898Y-36295226D01*
X36490256Y-36217205D01*
X36659774Y-36103937D01*
X36803937Y-35959774D01*
X36917205Y-35790256D01*
X36995226Y-35601898D01*
X37035000Y-35401939D01*
X37035000Y-35198061D01*
X36995226Y-34998102D01*
X36917205Y-34809744D01*
X36803937Y-34640226D01*
X36762000Y-34598289D01*
X36762000Y-30801711D01*
X36803937Y-30759774D01*
X36917205Y-30590256D01*
X36995226Y-30401898D01*
X37035000Y-30201939D01*
X37035000Y-29998061D01*
X36995226Y-29798102D01*
X36917205Y-29609744D01*
X36803937Y-29440226D01*
X36659774Y-29296063D01*
X36490256Y-29182795D01*
X36301898Y-29104774D01*
X36101939Y-29065000D01*
X35898061Y-29065000D01*
X35698102Y-29104774D01*
X35509744Y-29182795D01*
X35340226Y-29296063D01*
X35196063Y-29440226D01*
X35082795Y-29609744D01*
X35004774Y-29798102D01*
X34965000Y-29998061D01*
X32362000Y-29998061D01*
X32362000Y-28901711D01*
X32403937Y-28859774D01*
X32517205Y-28690256D01*
X32595226Y-28501898D01*
X32635000Y-28301939D01*
X32635000Y-28098061D01*
X32595226Y-27898102D01*
X32517205Y-27709744D01*
X32403937Y-27540226D01*
X32259774Y-27396063D01*
X32090256Y-27282795D01*
X31901898Y-27204774D01*
X31701939Y-27165000D01*
X31498061Y-27165000D01*
X31298102Y-27204774D01*
X31109744Y-27282795D01*
X30940226Y-27396063D01*
X30796063Y-27540226D01*
X30682795Y-27709744D01*
X30604774Y-27898102D01*
X30597646Y-27933935D01*
X30559774Y-27896063D01*
X30390256Y-27782795D01*
X30201898Y-27704774D01*
X30001939Y-27665000D01*
X29798061Y-27665000D01*
X29598102Y-27704774D01*
X29409744Y-27782795D01*
X29240226Y-27896063D01*
X29096063Y-28040226D01*
X28982795Y-28209744D01*
X28904774Y-28398102D01*
X28865000Y-28598061D01*
X28865000Y-28801939D01*
X28904774Y-29001898D01*
X28982795Y-29190256D01*
X29096063Y-29359774D01*
X29138001Y-29401712D01*
X29138000Y-40484369D01*
X18384370Y-51238000D01*
X9301711Y-51238000D01*
X9259774Y-51196063D01*
X9090256Y-51082795D01*
X8901898Y-51004774D01*
X8701939Y-50965000D01*
X8498061Y-50965000D01*
X8298102Y-51004774D01*
X8109744Y-51082795D01*
X7940226Y-51196063D01*
X7796063Y-51340226D01*
X7682795Y-51509744D01*
X7604774Y-51698102D01*
X7583365Y-51805735D01*
X5035000Y-49257370D01*
X5035000Y-49198061D01*
X4995226Y-48998102D01*
X4917205Y-48809744D01*
X4803937Y-48640226D01*
X4659774Y-48496063D01*
X4552947Y-48424683D01*
X6312347Y-46665283D01*
X6341422Y-46641422D01*
X6401857Y-46567781D01*
X6436645Y-46525393D01*
X6507401Y-46393016D01*
X6507402Y-46393015D01*
X6550974Y-46249378D01*
X6562000Y-46137426D01*
X6562000Y-46137423D01*
X6565686Y-46100000D01*
X6562000Y-46062577D01*
X6562000Y-41901711D01*
X6603937Y-41859774D01*
X6717205Y-41690256D01*
X6795226Y-41501898D01*
X6835000Y-41301939D01*
X6835000Y-41098061D01*
X6795226Y-40898102D01*
X6717205Y-40709744D01*
X6603937Y-40540226D01*
X6459774Y-40396063D01*
X6290256Y-40282795D01*
X6101898Y-40204774D01*
X5901939Y-40165000D01*
X5698061Y-40165000D01*
X5498102Y-40204774D01*
X5309744Y-40282795D01*
X5140226Y-40396063D01*
X4996063Y-40540226D01*
X4882795Y-40709744D01*
X4804774Y-40898102D01*
X4765000Y-41098061D01*
X4765000Y-41301939D01*
X4804774Y-41501898D01*
X4882795Y-41690256D01*
X4996063Y-41859774D01*
X5038001Y-41901712D01*
X5038000Y-45784370D01*
X3574589Y-47247781D01*
X3574589Y-41603041D01*
X3642630Y-41535000D01*
X3701939Y-41535000D01*
X3901898Y-41495226D01*
X4090256Y-41417205D01*
X4259774Y-41303937D01*
X4403937Y-41159774D01*
X4517205Y-40990256D01*
X4595226Y-40801898D01*
X4635000Y-40601939D01*
X4635000Y-40398061D01*
X4595226Y-40198102D01*
X4517205Y-40009744D01*
X4443877Y-39900000D01*
X4517205Y-39790256D01*
X4595226Y-39601898D01*
X4635000Y-39401939D01*
X4635000Y-39198061D01*
X4595226Y-38998102D01*
X4517205Y-38809744D01*
X4436463Y-38688904D01*
X4609558Y-38617205D01*
X4779076Y-38503937D01*
X4923239Y-38359774D01*
X5036507Y-38190256D01*
X5114528Y-38001898D01*
X5154302Y-37801939D01*
X5154302Y-37598061D01*
X5114528Y-37398102D01*
X5036507Y-37209744D01*
X4923239Y-37040226D01*
X4779076Y-36896063D01*
X4609558Y-36782795D01*
X4421200Y-36704774D01*
X4221241Y-36665000D01*
X4017363Y-36665000D01*
X3817404Y-36704774D01*
X3629046Y-36782795D01*
X3459528Y-36896063D01*
X3315365Y-37040226D01*
X3202097Y-37209744D01*
X3124076Y-37398102D01*
X3084302Y-37598061D01*
X3084302Y-37657369D01*
X2104790Y-38636882D01*
X2104790Y-35972840D01*
X2121359Y-35956271D01*
X7023210Y-35956271D01*
X7023210Y-36160149D01*
X7062984Y-36360108D01*
X7141005Y-36548466D01*
X7254273Y-36717984D01*
X7296210Y-36759921D01*
X7296211Y-47320777D01*
X7292524Y-47358210D01*
X7307237Y-47507588D01*
X7350809Y-47651225D01*
X7421565Y-47783602D01*
X7435023Y-47800000D01*
X7465000Y-47836527D01*
X7465000Y-47901939D01*
X7504774Y-48101898D01*
X7582795Y-48290256D01*
X7696063Y-48459774D01*
X7840226Y-48603937D01*
X8009744Y-48717205D01*
X8198102Y-48795226D01*
X8398061Y-48835000D01*
X8601939Y-48835000D01*
X8801898Y-48795226D01*
X8990256Y-48717205D01*
X9159774Y-48603937D01*
X9201711Y-48562000D01*
X13798289Y-48562000D01*
X13840226Y-48603937D01*
X14009744Y-48717205D01*
X14198102Y-48795226D01*
X14398061Y-48835000D01*
X14601939Y-48835000D01*
X14801898Y-48795226D01*
X14990256Y-48717205D01*
X15159774Y-48603937D01*
X15198202Y-48565509D01*
X15200000Y-48565686D01*
X15237423Y-48562000D01*
X15237426Y-48562000D01*
X15349378Y-48550974D01*
X15493015Y-48507402D01*
X15625392Y-48436645D01*
X15741422Y-48341422D01*
X15765284Y-48312346D01*
X18112346Y-45965284D01*
X18141422Y-45941422D01*
X18201857Y-45867781D01*
X18236645Y-45825393D01*
X18307401Y-45693016D01*
X18307402Y-45693015D01*
X18350974Y-45549378D01*
X18362000Y-45437426D01*
X18362000Y-45437423D01*
X18365686Y-45400000D01*
X18362000Y-45362577D01*
X18362000Y-36501711D01*
X18403937Y-36459774D01*
X18517205Y-36290256D01*
X18595226Y-36101898D01*
X18635000Y-35901939D01*
X18635000Y-35698061D01*
X18595226Y-35498102D01*
X18517205Y-35309744D01*
X18403937Y-35140226D01*
X18259774Y-34996063D01*
X18090256Y-34882795D01*
X17901898Y-34804774D01*
X17701939Y-34765000D01*
X17498061Y-34765000D01*
X17298102Y-34804774D01*
X17109744Y-34882795D01*
X16940226Y-34996063D01*
X16796063Y-35140226D01*
X16682795Y-35309744D01*
X16604774Y-35498102D01*
X16565000Y-35698061D01*
X16565000Y-35901939D01*
X16604774Y-36101898D01*
X16682795Y-36290256D01*
X16796063Y-36459774D01*
X16838000Y-36501711D01*
X16838001Y-45084369D01*
X15019821Y-46902549D01*
X14990256Y-46882795D01*
X14801898Y-46804774D01*
X14601939Y-46765000D01*
X14398061Y-46765000D01*
X14198102Y-46804774D01*
X14009744Y-46882795D01*
X13840226Y-46996063D01*
X13798289Y-47038000D01*
X9201711Y-47038000D01*
X9159774Y-46996063D01*
X8990256Y-46882795D01*
X8820210Y-46812359D01*
X8820210Y-36759921D01*
X8862147Y-36717984D01*
X8975415Y-36548466D01*
X9053436Y-36360108D01*
X9093210Y-36160149D01*
X9093210Y-35956271D01*
X9053436Y-35756312D01*
X8975415Y-35567954D01*
X8862147Y-35398436D01*
X8717984Y-35254273D01*
X8548466Y-35141005D01*
X8360108Y-35062984D01*
X8160149Y-35023210D01*
X7956271Y-35023210D01*
X7756312Y-35062984D01*
X7567954Y-35141005D01*
X7398436Y-35254273D01*
X7254273Y-35398436D01*
X7141005Y-35567954D01*
X7062984Y-35756312D01*
X7023210Y-35956271D01*
X2121359Y-35956271D01*
X5015631Y-33062000D01*
X10398289Y-33062000D01*
X10440226Y-33103937D01*
X10609744Y-33217205D01*
X10798102Y-33295226D01*
X10998061Y-33335000D01*
X11201939Y-33335000D01*
X11401898Y-33295226D01*
X11590256Y-33217205D01*
X11759774Y-33103937D01*
X11903937Y-32959774D01*
X12017205Y-32790256D01*
X12095226Y-32601898D01*
X12135000Y-32401939D01*
X12135000Y-32198061D01*
X12095226Y-31998102D01*
X12017205Y-31809744D01*
X11903937Y-31640226D01*
X11759774Y-31496063D01*
X11590256Y-31382795D01*
X11401898Y-31304774D01*
X11201939Y-31265000D01*
X10998061Y-31265000D01*
X10798102Y-31304774D01*
X10609744Y-31382795D01*
X10440226Y-31496063D01*
X10398289Y-31538000D01*
X4737423Y-31538000D01*
X4700000Y-31534314D01*
X4662577Y-31538000D01*
X4662574Y-31538000D01*
X4550622Y-31549026D01*
X4406985Y-31592598D01*
X4345364Y-31625535D01*
X4274607Y-31663355D01*
X4232268Y-31698102D01*
X4158578Y-31758578D01*
X4134721Y-31787648D01*
X830439Y-35091931D01*
X801369Y-35115788D01*
X777512Y-35144858D01*
X777511Y-35144859D01*
X706145Y-35231818D01*
X660000Y-35318150D01*
X660000Y-30298061D01*
X21665000Y-30298061D01*
X21665000Y-30501939D01*
X21704774Y-30701898D01*
X21782795Y-30890256D01*
X21896063Y-31059774D01*
X22040226Y-31203937D01*
X22209744Y-31317205D01*
X22398102Y-31395226D01*
X22598061Y-31435000D01*
X22638000Y-31435000D01*
X22638001Y-34898288D01*
X22596063Y-34940226D01*
X22482795Y-35109744D01*
X22404774Y-35298102D01*
X22365000Y-35498061D01*
X22365000Y-35701939D01*
X22404774Y-35901898D01*
X22482795Y-36090256D01*
X22596063Y-36259774D01*
X22740226Y-36403937D01*
X22909744Y-36517205D01*
X23098102Y-36595226D01*
X23298061Y-36635000D01*
X23501939Y-36635000D01*
X23701898Y-36595226D01*
X23890256Y-36517205D01*
X24059774Y-36403937D01*
X24203937Y-36259774D01*
X24317205Y-36090256D01*
X24395226Y-35901898D01*
X24435000Y-35701939D01*
X24435000Y-35498061D01*
X24395226Y-35298102D01*
X24317205Y-35109744D01*
X24203937Y-34940226D01*
X24162000Y-34898289D01*
X24162000Y-31137415D01*
X24165685Y-31099999D01*
X24162000Y-31062583D01*
X24162000Y-31062574D01*
X24150974Y-30950622D01*
X24107402Y-30806985D01*
X24036645Y-30674608D01*
X23941422Y-30558578D01*
X23912353Y-30534722D01*
X23735000Y-30357369D01*
X23735000Y-30298061D01*
X23695226Y-30098102D01*
X23617205Y-29909744D01*
X23609399Y-29898061D01*
X24265000Y-29898061D01*
X24265000Y-30101939D01*
X24304774Y-30301898D01*
X24382795Y-30490256D01*
X24496063Y-30659774D01*
X24538001Y-30701712D01*
X24538000Y-33898289D01*
X24496063Y-33940226D01*
X24382795Y-34109744D01*
X24304774Y-34298102D01*
X24265000Y-34498061D01*
X24265000Y-34701939D01*
X24304774Y-34901898D01*
X24382795Y-35090256D01*
X24496063Y-35259774D01*
X24640226Y-35403937D01*
X24809744Y-35517205D01*
X24998102Y-35595226D01*
X25198061Y-35635000D01*
X25401939Y-35635000D01*
X25601898Y-35595226D01*
X25790256Y-35517205D01*
X25959774Y-35403937D01*
X26103937Y-35259774D01*
X26217205Y-35090256D01*
X26295226Y-34901898D01*
X26335000Y-34701939D01*
X26335000Y-34498061D01*
X26295226Y-34298102D01*
X26217205Y-34109744D01*
X26103937Y-33940226D01*
X26062000Y-33898289D01*
X26062000Y-30701711D01*
X26103937Y-30659774D01*
X26217205Y-30490256D01*
X26295226Y-30301898D01*
X26335000Y-30101939D01*
X26335000Y-29898061D01*
X26295226Y-29698102D01*
X26217205Y-29509744D01*
X26103937Y-29340226D01*
X25959774Y-29196063D01*
X25790256Y-29082795D01*
X25601898Y-29004774D01*
X25401939Y-28965000D01*
X25198061Y-28965000D01*
X24998102Y-29004774D01*
X24809744Y-29082795D01*
X24640226Y-29196063D01*
X24496063Y-29340226D01*
X24382795Y-29509744D01*
X24304774Y-29698102D01*
X24265000Y-29898061D01*
X23609399Y-29898061D01*
X23503937Y-29740226D01*
X23359774Y-29596063D01*
X23190256Y-29482795D01*
X23001898Y-29404774D01*
X22801939Y-29365000D01*
X22598061Y-29365000D01*
X22398102Y-29404774D01*
X22209744Y-29482795D01*
X22040226Y-29596063D01*
X21896063Y-29740226D01*
X21782795Y-29909744D01*
X21704774Y-30098102D01*
X21665000Y-30298061D01*
X660000Y-30298061D01*
X660000Y-24098061D01*
X40765000Y-24098061D01*
X40765000Y-24301939D01*
X40804774Y-24501898D01*
X40882795Y-24690256D01*
X40996063Y-24859774D01*
X41038001Y-24901712D01*
X41038000Y-31298289D01*
X40996063Y-31340226D01*
X40882795Y-31509744D01*
X40804774Y-31698102D01*
X40765000Y-31898061D01*
X40765000Y-32101939D01*
X40804774Y-32301898D01*
X40882795Y-32490256D01*
X40996063Y-32659774D01*
X41140226Y-32803937D01*
X41309744Y-32917205D01*
X41498102Y-32995226D01*
X41698061Y-33035000D01*
X41901939Y-33035000D01*
X42101898Y-32995226D01*
X42290256Y-32917205D01*
X42459774Y-32803937D01*
X42603937Y-32659774D01*
X42717205Y-32490256D01*
X42795226Y-32301898D01*
X42835000Y-32101939D01*
X42835000Y-31898061D01*
X42795226Y-31698102D01*
X42717205Y-31509744D01*
X42603937Y-31340226D01*
X42562000Y-31298289D01*
X42562000Y-24901711D01*
X42603937Y-24859774D01*
X42717205Y-24690256D01*
X42795226Y-24501898D01*
X42835000Y-24301939D01*
X42835000Y-24098061D01*
X42795226Y-23898102D01*
X42717205Y-23709744D01*
X42603937Y-23540226D01*
X42459774Y-23396063D01*
X42290256Y-23282795D01*
X42101898Y-23204774D01*
X41901939Y-23165000D01*
X41698061Y-23165000D01*
X41498102Y-23204774D01*
X41309744Y-23282795D01*
X41140226Y-23396063D01*
X40996063Y-23540226D01*
X40882795Y-23709744D01*
X40804774Y-23898102D01*
X40765000Y-24098061D01*
X660000Y-24098061D01*
X660000Y-20358665D01*
X30165000Y-20358665D01*
X30165000Y-20641335D01*
X30220147Y-20918574D01*
X30328320Y-21179727D01*
X30485363Y-21414759D01*
X30685241Y-21614637D01*
X30920273Y-21771680D01*
X31181426Y-21879853D01*
X31458665Y-21935000D01*
X31741335Y-21935000D01*
X32018574Y-21879853D01*
X32279727Y-21771680D01*
X32514759Y-21614637D01*
X32714637Y-21414759D01*
X32871680Y-21179727D01*
X32979853Y-20918574D01*
X33034492Y-20643888D01*
X33185241Y-20794637D01*
X33420273Y-20951680D01*
X33681426Y-21059853D01*
X33958665Y-21115000D01*
X34241335Y-21115000D01*
X34518574Y-21059853D01*
X34779727Y-20951680D01*
X35014759Y-20794637D01*
X35214637Y-20594759D01*
X35371680Y-20359727D01*
X35479853Y-20098574D01*
X35535000Y-19821335D01*
X35535000Y-19538665D01*
X35479853Y-19261426D01*
X35371680Y-19000273D01*
X35214637Y-18765241D01*
X35014759Y-18565363D01*
X34779727Y-18408320D01*
X34518574Y-18300147D01*
X34241335Y-18245000D01*
X33958665Y-18245000D01*
X33681426Y-18300147D01*
X33420273Y-18408320D01*
X33185241Y-18565363D01*
X32985363Y-18765241D01*
X32828320Y-19000273D01*
X32720147Y-19261426D01*
X32665508Y-19536112D01*
X32514759Y-19385363D01*
X32279727Y-19228320D01*
X32018574Y-19120147D01*
X31741335Y-19065000D01*
X31458665Y-19065000D01*
X31181426Y-19120147D01*
X30920273Y-19228320D01*
X30685241Y-19385363D01*
X30485363Y-19585241D01*
X30328320Y-19820273D01*
X30220147Y-20081426D01*
X30165000Y-20358665D01*
X660000Y-20358665D01*
X660000Y-17250000D01*
X38521928Y-17250000D01*
X38534188Y-17374482D01*
X38570498Y-17494180D01*
X38629463Y-17604494D01*
X38708815Y-17701185D01*
X38805506Y-17780537D01*
X38915820Y-17839502D01*
X39035518Y-17875812D01*
X39160000Y-17888072D01*
X39674250Y-17885000D01*
X39833000Y-17726250D01*
X39833000Y-16577000D01*
X40087000Y-16577000D01*
X40087000Y-17726250D01*
X40245750Y-17885000D01*
X40760000Y-17888072D01*
X40884482Y-17875812D01*
X41004180Y-17839502D01*
X41114494Y-17780537D01*
X41211185Y-17701185D01*
X41290537Y-17604494D01*
X41349502Y-17494180D01*
X41385812Y-17374482D01*
X41398072Y-17250000D01*
X41395000Y-16735750D01*
X41236250Y-16577000D01*
X40087000Y-16577000D01*
X39833000Y-16577000D01*
X38683750Y-16577000D01*
X38525000Y-16735750D01*
X38521928Y-17250000D01*
X660000Y-17250000D01*
X660000Y-15650000D01*
X38521928Y-15650000D01*
X38525000Y-16164250D01*
X38683750Y-16323000D01*
X39833000Y-16323000D01*
X39833000Y-16303000D01*
X40087000Y-16303000D01*
X40087000Y-16323000D01*
X41236250Y-16323000D01*
X41395000Y-16164250D01*
X41398072Y-15650000D01*
X41388318Y-15550964D01*
X41579727Y-15471680D01*
X41814759Y-15314637D01*
X42014637Y-15114759D01*
X42171680Y-14879727D01*
X42279853Y-14618574D01*
X42335000Y-14341335D01*
X42335000Y-14058665D01*
X42279853Y-13781426D01*
X42171680Y-13520273D01*
X42014637Y-13285241D01*
X41814759Y-13085363D01*
X41579727Y-12928320D01*
X41318574Y-12820147D01*
X41041335Y-12765000D01*
X40758665Y-12765000D01*
X40481426Y-12820147D01*
X40220273Y-12928320D01*
X39985241Y-13085363D01*
X39785363Y-13285241D01*
X39628320Y-13520273D01*
X39520147Y-13781426D01*
X39465000Y-14058665D01*
X39465000Y-14341335D01*
X39520147Y-14618574D01*
X39628320Y-14879727D01*
X39785363Y-15114759D01*
X39832998Y-15162394D01*
X39832998Y-15173748D01*
X39674250Y-15015000D01*
X39160000Y-15011928D01*
X39035518Y-15024188D01*
X38915820Y-15060498D01*
X38805506Y-15119463D01*
X38708815Y-15198815D01*
X38629463Y-15295506D01*
X38570498Y-15405820D01*
X38534188Y-15525518D01*
X38521928Y-15650000D01*
X660000Y-15650000D01*
X660000Y-14058665D01*
X23865000Y-14058665D01*
X23865000Y-14341335D01*
X23920147Y-14618574D01*
X24028320Y-14879727D01*
X24185363Y-15114759D01*
X24385241Y-15314637D01*
X24620273Y-15471680D01*
X24881426Y-15579853D01*
X25158665Y-15635000D01*
X25441335Y-15635000D01*
X25718574Y-15579853D01*
X25979727Y-15471680D01*
X26214759Y-15314637D01*
X26414637Y-15114759D01*
X26571680Y-14879727D01*
X26679853Y-14618574D01*
X26735000Y-14341335D01*
X26735000Y-14083288D01*
X28115000Y-14083288D01*
X28115000Y-14316712D01*
X28160539Y-14545652D01*
X28249866Y-14761308D01*
X28379550Y-14955394D01*
X28544606Y-15120450D01*
X28738692Y-15250134D01*
X28954348Y-15339461D01*
X29183288Y-15385000D01*
X29416712Y-15385000D01*
X29645652Y-15339461D01*
X29861308Y-15250134D01*
X30055394Y-15120450D01*
X30220450Y-14955394D01*
X30350134Y-14761308D01*
X30439461Y-14545652D01*
X30485000Y-14316712D01*
X30485000Y-14083288D01*
X30439461Y-13854348D01*
X30350134Y-13638692D01*
X30220450Y-13444606D01*
X30055394Y-13279550D01*
X29861308Y-13149866D01*
X29645652Y-13060539D01*
X29416712Y-13015000D01*
X29183288Y-13015000D01*
X28954348Y-13060539D01*
X28738692Y-13149866D01*
X28544606Y-13279550D01*
X28379550Y-13444606D01*
X28249866Y-13638692D01*
X28160539Y-13854348D01*
X28115000Y-14083288D01*
X26735000Y-14083288D01*
X26735000Y-14058665D01*
X26679853Y-13781426D01*
X26571680Y-13520273D01*
X26414637Y-13285241D01*
X26214759Y-13085363D01*
X25979727Y-12928320D01*
X25718574Y-12820147D01*
X25441335Y-12765000D01*
X25158665Y-12765000D01*
X24881426Y-12820147D01*
X24620273Y-12928320D01*
X24385241Y-13085363D01*
X24185363Y-13285241D01*
X24028320Y-13520273D01*
X23920147Y-13781426D01*
X23865000Y-14058665D01*
X660000Y-14058665D01*
X660000Y-11058665D01*
X23865000Y-11058665D01*
X23865000Y-11341335D01*
X23920147Y-11618574D01*
X24028320Y-11879727D01*
X24185363Y-12114759D01*
X24385241Y-12314637D01*
X24620273Y-12471680D01*
X24881426Y-12579853D01*
X25158665Y-12635000D01*
X25441335Y-12635000D01*
X25718574Y-12579853D01*
X25979727Y-12471680D01*
X26214759Y-12314637D01*
X26414637Y-12114759D01*
X26571680Y-11879727D01*
X26679853Y-11618574D01*
X26735000Y-11341335D01*
X26735000Y-11058665D01*
X39465000Y-11058665D01*
X39465000Y-11341335D01*
X39520147Y-11618574D01*
X39628320Y-11879727D01*
X39785363Y-12114759D01*
X39985241Y-12314637D01*
X40220273Y-12471680D01*
X40481426Y-12579853D01*
X40758665Y-12635000D01*
X41041335Y-12635000D01*
X41318574Y-12579853D01*
X41579727Y-12471680D01*
X41814759Y-12314637D01*
X42014637Y-12114759D01*
X42171680Y-11879727D01*
X42279853Y-11618574D01*
X42335000Y-11341335D01*
X42335000Y-11058665D01*
X42279853Y-10781426D01*
X42171680Y-10520273D01*
X42014637Y-10285241D01*
X41814759Y-10085363D01*
X41579727Y-9928320D01*
X41318574Y-9820147D01*
X41041335Y-9765000D01*
X40758665Y-9765000D01*
X40481426Y-9820147D01*
X40220273Y-9928320D01*
X39985241Y-10085363D01*
X39785363Y-10285241D01*
X39628320Y-10520273D01*
X39520147Y-10781426D01*
X39465000Y-11058665D01*
X26735000Y-11058665D01*
X26679853Y-10781426D01*
X26571680Y-10520273D01*
X26414637Y-10285241D01*
X26214759Y-10085363D01*
X25979727Y-9928320D01*
X25718574Y-9820147D01*
X25441335Y-9765000D01*
X25158665Y-9765000D01*
X24881426Y-9820147D01*
X24620273Y-9928320D01*
X24385241Y-10085363D01*
X24185363Y-10285241D01*
X24028320Y-10520273D01*
X23920147Y-10781426D01*
X23865000Y-11058665D01*
X660000Y-11058665D01*
X660000Y-8498061D01*
X10165000Y-8498061D01*
X10165000Y-8701939D01*
X10204774Y-8901898D01*
X10282795Y-9090256D01*
X10396063Y-9259774D01*
X10540226Y-9403937D01*
X10709744Y-9517205D01*
X10898102Y-9595226D01*
X11098061Y-9635000D01*
X11301939Y-9635000D01*
X11501898Y-9595226D01*
X11690256Y-9517205D01*
X11859774Y-9403937D01*
X11901711Y-9362000D01*
X14698289Y-9362000D01*
X14740226Y-9403937D01*
X14909744Y-9517205D01*
X15098102Y-9595226D01*
X15298061Y-9635000D01*
X15501939Y-9635000D01*
X15701898Y-9595226D01*
X15890256Y-9517205D01*
X16059774Y-9403937D01*
X16203937Y-9259774D01*
X16317205Y-9090256D01*
X16395226Y-8901898D01*
X16435000Y-8701939D01*
X16435000Y-8498061D01*
X16395226Y-8298102D01*
X16317205Y-8109744D01*
X16203937Y-7940226D01*
X16059774Y-7796063D01*
X15890256Y-7682795D01*
X15701898Y-7604774D01*
X15501939Y-7565000D01*
X15298061Y-7565000D01*
X15098102Y-7604774D01*
X14909744Y-7682795D01*
X14740226Y-7796063D01*
X14698289Y-7838000D01*
X11901711Y-7838000D01*
X11859774Y-7796063D01*
X11690256Y-7682795D01*
X11501898Y-7604774D01*
X11301939Y-7565000D01*
X11098061Y-7565000D01*
X10898102Y-7604774D01*
X10709744Y-7682795D01*
X10540226Y-7796063D01*
X10396063Y-7940226D01*
X10282795Y-8109744D01*
X10204774Y-8298102D01*
X10165000Y-8498061D01*
X660000Y-8498061D01*
X660000Y-6345374D01*
X1834231Y-6345374D01*
X2134411Y-6783828D01*
X2713356Y-7094296D01*
X3341746Y-7285852D01*
X3995431Y-7351134D01*
X4649293Y-7287634D01*
X5278203Y-7097792D01*
X5857992Y-6788904D01*
X5865589Y-6783828D01*
X6165769Y-6345374D01*
X4000000Y-4179605D01*
X1834231Y-6345374D01*
X660000Y-6345374D01*
X660000Y-4110078D01*
X712366Y-4649293D01*
X902208Y-5278203D01*
X1211096Y-5857992D01*
X1216172Y-5865589D01*
X1654626Y-6165769D01*
X3820395Y-4000000D01*
X4179605Y-4000000D01*
X6345374Y-6165769D01*
X6783828Y-5865589D01*
X7029753Y-5407000D01*
X7545000Y-5407000D01*
X7545000Y-5957000D01*
X7591585Y-6175987D01*
X7679997Y-6381678D01*
X7806839Y-6566169D01*
X7967236Y-6722369D01*
X8155024Y-6844276D01*
X8378126Y-6924119D01*
X8553000Y-6797954D01*
X8553000Y-5407000D01*
X7545000Y-5407000D01*
X7029753Y-5407000D01*
X7094296Y-5286644D01*
X7285852Y-4658254D01*
X7291370Y-4603000D01*
X7545000Y-4603000D01*
X7545000Y-5153000D01*
X8553000Y-5153000D01*
X8553000Y-3762046D01*
X8807000Y-3762046D01*
X8807000Y-5153000D01*
X8827000Y-5153000D01*
X8827000Y-5407000D01*
X8807000Y-5407000D01*
X8807000Y-6797954D01*
X8981874Y-6924119D01*
X9204976Y-6844276D01*
X9392764Y-6722369D01*
X9553161Y-6566169D01*
X9680003Y-6381678D01*
X9768415Y-6175987D01*
X9815000Y-5957000D01*
X9815000Y-5666904D01*
X9829978Y-5673108D01*
X10015448Y-5710000D01*
X10204552Y-5710000D01*
X10390022Y-5673108D01*
X10564731Y-5600741D01*
X10721964Y-5495681D01*
X10855681Y-5361964D01*
X10960741Y-5204731D01*
X11033108Y-5030022D01*
X11070000Y-4844552D01*
X11070000Y-4655448D01*
X14930000Y-4655448D01*
X14930000Y-4844552D01*
X14966892Y-5030022D01*
X15039259Y-5204731D01*
X15144319Y-5361964D01*
X15278036Y-5495681D01*
X15435269Y-5600741D01*
X15609978Y-5673108D01*
X15795448Y-5710000D01*
X15984552Y-5710000D01*
X16170022Y-5673108D01*
X16185000Y-5666904D01*
X16185000Y-5957000D01*
X16231585Y-6175987D01*
X16319997Y-6381678D01*
X16446839Y-6566169D01*
X16607236Y-6722369D01*
X16795024Y-6844276D01*
X17018126Y-6924119D01*
X17193000Y-6797954D01*
X17193000Y-5407000D01*
X17447000Y-5407000D01*
X17447000Y-6797954D01*
X17621874Y-6924119D01*
X17844976Y-6844276D01*
X17946044Y-6778665D01*
X30665000Y-6778665D01*
X30665000Y-7061335D01*
X30720147Y-7338574D01*
X30828320Y-7599727D01*
X30985363Y-7834759D01*
X31185241Y-8034637D01*
X31420273Y-8191680D01*
X31681426Y-8299853D01*
X31958665Y-8355000D01*
X32241335Y-8355000D01*
X32518574Y-8299853D01*
X32779727Y-8191680D01*
X33014759Y-8034637D01*
X33214637Y-7834759D01*
X33371680Y-7599727D01*
X33479853Y-7338574D01*
X33535000Y-7061335D01*
X33535000Y-6778665D01*
X33479853Y-6501426D01*
X33415215Y-6345374D01*
X43834231Y-6345374D01*
X44134411Y-6783828D01*
X44713356Y-7094296D01*
X45341746Y-7285852D01*
X45995431Y-7351134D01*
X46649293Y-7287634D01*
X47278203Y-7097792D01*
X47857992Y-6788904D01*
X47865589Y-6783828D01*
X48165769Y-6345374D01*
X46000000Y-4179605D01*
X43834231Y-6345374D01*
X33415215Y-6345374D01*
X33371680Y-6240273D01*
X33214637Y-6005241D01*
X33014759Y-5805363D01*
X32790025Y-5655201D01*
X32836671Y-5641514D01*
X32957571Y-5386004D01*
X33026300Y-5111816D01*
X33040217Y-4829488D01*
X33029724Y-4758665D01*
X33165000Y-4758665D01*
X33165000Y-5041335D01*
X33220147Y-5318574D01*
X33328320Y-5579727D01*
X33485363Y-5814759D01*
X33685241Y-6014637D01*
X33920273Y-6171680D01*
X34181426Y-6279853D01*
X34458665Y-6335000D01*
X34741335Y-6335000D01*
X35018574Y-6279853D01*
X35279727Y-6171680D01*
X35514759Y-6014637D01*
X35714637Y-5814759D01*
X35871680Y-5579727D01*
X35979853Y-5318574D01*
X36035000Y-5041335D01*
X36035000Y-4758665D01*
X35979853Y-4481426D01*
X35871680Y-4220273D01*
X35721446Y-3995431D01*
X42648866Y-3995431D01*
X42712366Y-4649293D01*
X42902208Y-5278203D01*
X43211096Y-5857992D01*
X43216172Y-5865589D01*
X43654626Y-6165769D01*
X45820395Y-4000000D01*
X43654626Y-1834231D01*
X43216172Y-2134411D01*
X42905704Y-2713356D01*
X42714148Y-3341746D01*
X42648866Y-3995431D01*
X35721446Y-3995431D01*
X35714637Y-3985241D01*
X35514759Y-3785363D01*
X35279727Y-3628320D01*
X35018574Y-3520147D01*
X34741335Y-3465000D01*
X34458665Y-3465000D01*
X34181426Y-3520147D01*
X33920273Y-3628320D01*
X33685241Y-3785363D01*
X33485363Y-3985241D01*
X33328320Y-4220273D01*
X33220147Y-4481426D01*
X33165000Y-4758665D01*
X33029724Y-4758665D01*
X32998787Y-4549870D01*
X32903603Y-4283708D01*
X32836671Y-4158486D01*
X32592702Y-4086903D01*
X31779605Y-4900000D01*
X31793748Y-4914143D01*
X31614143Y-5093748D01*
X31600000Y-5079605D01*
X30786903Y-5892702D01*
X30858486Y-6136671D01*
X30888162Y-6150713D01*
X30828320Y-6240273D01*
X30720147Y-6501426D01*
X30665000Y-6778665D01*
X17946044Y-6778665D01*
X18032764Y-6722369D01*
X18193161Y-6566169D01*
X18320003Y-6381678D01*
X18408415Y-6175987D01*
X18455000Y-5957000D01*
X18455000Y-5407000D01*
X17447000Y-5407000D01*
X17193000Y-5407000D01*
X17173000Y-5407000D01*
X17173000Y-5153000D01*
X17193000Y-5153000D01*
X17193000Y-3762046D01*
X17447000Y-3762046D01*
X17447000Y-5153000D01*
X18455000Y-5153000D01*
X18455000Y-4970512D01*
X30159783Y-4970512D01*
X30201213Y-5250130D01*
X30296397Y-5516292D01*
X30363329Y-5641514D01*
X30607298Y-5713097D01*
X31420395Y-4900000D01*
X30607298Y-4086903D01*
X30363329Y-4158486D01*
X30242429Y-4413996D01*
X30173700Y-4688184D01*
X30159783Y-4970512D01*
X18455000Y-4970512D01*
X18455000Y-4603000D01*
X18408415Y-4384013D01*
X18320003Y-4178322D01*
X18193161Y-3993831D01*
X18104303Y-3907298D01*
X30786903Y-3907298D01*
X31600000Y-4720395D01*
X32413097Y-3907298D01*
X32341514Y-3663329D01*
X32086004Y-3542429D01*
X31811816Y-3473700D01*
X31529488Y-3459783D01*
X31249870Y-3501213D01*
X30983708Y-3596397D01*
X30858486Y-3663329D01*
X30786903Y-3907298D01*
X18104303Y-3907298D01*
X18032764Y-3837631D01*
X17844976Y-3715724D01*
X17621874Y-3635881D01*
X17447000Y-3762046D01*
X17193000Y-3762046D01*
X17018126Y-3635881D01*
X16795024Y-3715724D01*
X16607236Y-3837631D01*
X16462884Y-3978206D01*
X16344731Y-3899259D01*
X16170022Y-3826892D01*
X15984552Y-3790000D01*
X15795448Y-3790000D01*
X15609978Y-3826892D01*
X15435269Y-3899259D01*
X15278036Y-4004319D01*
X15144319Y-4138036D01*
X15039259Y-4295269D01*
X14966892Y-4469978D01*
X14930000Y-4655448D01*
X11070000Y-4655448D01*
X11033108Y-4469978D01*
X10960741Y-4295269D01*
X10855681Y-4138036D01*
X10721964Y-4004319D01*
X10564731Y-3899259D01*
X10390022Y-3826892D01*
X10204552Y-3790000D01*
X10015448Y-3790000D01*
X9829978Y-3826892D01*
X9655269Y-3899259D01*
X9537116Y-3978206D01*
X9392764Y-3837631D01*
X9204976Y-3715724D01*
X8981874Y-3635881D01*
X8807000Y-3762046D01*
X8553000Y-3762046D01*
X8378126Y-3635881D01*
X8155024Y-3715724D01*
X7967236Y-3837631D01*
X7806839Y-3993831D01*
X7679997Y-4178322D01*
X7591585Y-4384013D01*
X7545000Y-4603000D01*
X7291370Y-4603000D01*
X7351134Y-4004569D01*
X7287634Y-3350707D01*
X7097792Y-2721797D01*
X6788904Y-2142008D01*
X6783828Y-2134411D01*
X6345374Y-1834231D01*
X4179605Y-4000000D01*
X3820395Y-4000000D01*
X3806253Y-3985858D01*
X3985858Y-3806253D01*
X4000000Y-3820395D01*
X6165769Y-1654626D01*
X5873003Y-1227000D01*
X7545000Y-1227000D01*
X7545000Y-1527000D01*
X7591585Y-1745987D01*
X7679997Y-1951678D01*
X7806839Y-2136169D01*
X7967236Y-2292369D01*
X8155024Y-2414276D01*
X8378126Y-2494119D01*
X8553000Y-2367954D01*
X8553000Y-1227000D01*
X8807000Y-1227000D01*
X8807000Y-2367954D01*
X8981874Y-2494119D01*
X9204976Y-2414276D01*
X9392764Y-2292369D01*
X9553161Y-2136169D01*
X9680003Y-1951678D01*
X9768415Y-1745987D01*
X9815000Y-1527000D01*
X9815000Y-1227000D01*
X16185000Y-1227000D01*
X16185000Y-1527000D01*
X16231585Y-1745987D01*
X16319997Y-1951678D01*
X16446839Y-2136169D01*
X16607236Y-2292369D01*
X16795024Y-2414276D01*
X17018126Y-2494119D01*
X17193000Y-2367954D01*
X17193000Y-1227000D01*
X17447000Y-1227000D01*
X17447000Y-2367954D01*
X17621874Y-2494119D01*
X17844976Y-2414276D01*
X18032764Y-2292369D01*
X18193161Y-2136169D01*
X18320003Y-1951678D01*
X18408415Y-1745987D01*
X18455000Y-1527000D01*
X18455000Y-1227000D01*
X17447000Y-1227000D01*
X17193000Y-1227000D01*
X16185000Y-1227000D01*
X9815000Y-1227000D01*
X8807000Y-1227000D01*
X8553000Y-1227000D01*
X7545000Y-1227000D01*
X5873003Y-1227000D01*
X5865589Y-1216172D01*
X5286644Y-905704D01*
X4658254Y-714148D01*
X4116057Y-660000D01*
X7547765Y-660000D01*
X7545000Y-673000D01*
G36*
X29151082Y-69074463D02*
G01*
X29330013Y-69342252D01*
X29557748Y-69569987D01*
X29825537Y-69748918D01*
X30040599Y-69838000D01*
X24969039Y-69838000D01*
X24193038Y-69062000D01*
X29145920Y-69062000D01*
X29151082Y-69074463D01*
X29151082Y-69074463D01*
G37*
X29151082Y-69074463D02*
X29330013Y-69342252D01*
X29557748Y-69569987D01*
X29825537Y-69748918D01*
X30040599Y-69838000D01*
X24969039Y-69838000D01*
X24193038Y-69062000D01*
X29145920Y-69062000D01*
X29151082Y-69074463D01*
M02*
