G04 #@! TF.GenerationSoftware,KiCad,Pcbnew,(5.1.2)-1*
G04 #@! TF.CreationDate,2019-06-29T11:53:21-07:00*
G04 #@! TF.ProjectId,joy,6a6f792e-6b69-4636-9164-5f7063625858,rev?*
G04 #@! TF.SameCoordinates,Original*
G04 #@! TF.FileFunction,Paste,Top*
G04 #@! TF.FilePolarity,Positive*
%FSLAX46Y46*%
G04 Gerber Fmt 4.6, Leading zero omitted, Abs format (unit mm)*
G04 Created by KiCad (PCBNEW (5.1.2)-1) date 2019-06-29 11:53:21*
%MOMM*%
%LPD*%
G04 APERTURE LIST*
%ADD10C,0.100000*%
%ADD11C,0.875000*%
%ADD12R,1.000000X1.400000*%
%ADD13R,1.200000X1.400000*%
%ADD14C,0.975000*%
%ADD15C,0.300000*%
%ADD16R,0.650000X1.060000*%
%ADD17R,0.600000X2.450000*%
%ADD18R,0.300000X2.450000*%
G04 APERTURE END LIST*
D10*
G36*
X11977691Y-17251053D02*
G01*
X11998926Y-17254203D01*
X12019750Y-17259419D01*
X12039962Y-17266651D01*
X12059368Y-17275830D01*
X12077781Y-17286866D01*
X12095024Y-17299654D01*
X12110930Y-17314070D01*
X12125346Y-17329976D01*
X12138134Y-17347219D01*
X12149170Y-17365632D01*
X12158349Y-17385038D01*
X12165581Y-17405250D01*
X12170797Y-17426074D01*
X12173947Y-17447309D01*
X12175000Y-17468750D01*
X12175000Y-17906250D01*
X12173947Y-17927691D01*
X12170797Y-17948926D01*
X12165581Y-17969750D01*
X12158349Y-17989962D01*
X12149170Y-18009368D01*
X12138134Y-18027781D01*
X12125346Y-18045024D01*
X12110930Y-18060930D01*
X12095024Y-18075346D01*
X12077781Y-18088134D01*
X12059368Y-18099170D01*
X12039962Y-18108349D01*
X12019750Y-18115581D01*
X11998926Y-18120797D01*
X11977691Y-18123947D01*
X11956250Y-18125000D01*
X11443750Y-18125000D01*
X11422309Y-18123947D01*
X11401074Y-18120797D01*
X11380250Y-18115581D01*
X11360038Y-18108349D01*
X11340632Y-18099170D01*
X11322219Y-18088134D01*
X11304976Y-18075346D01*
X11289070Y-18060930D01*
X11274654Y-18045024D01*
X11261866Y-18027781D01*
X11250830Y-18009368D01*
X11241651Y-17989962D01*
X11234419Y-17969750D01*
X11229203Y-17948926D01*
X11226053Y-17927691D01*
X11225000Y-17906250D01*
X11225000Y-17468750D01*
X11226053Y-17447309D01*
X11229203Y-17426074D01*
X11234419Y-17405250D01*
X11241651Y-17385038D01*
X11250830Y-17365632D01*
X11261866Y-17347219D01*
X11274654Y-17329976D01*
X11289070Y-17314070D01*
X11304976Y-17299654D01*
X11322219Y-17286866D01*
X11340632Y-17275830D01*
X11360038Y-17266651D01*
X11380250Y-17259419D01*
X11401074Y-17254203D01*
X11422309Y-17251053D01*
X11443750Y-17250000D01*
X11956250Y-17250000D01*
X11977691Y-17251053D01*
X11977691Y-17251053D01*
G37*
D11*
X11700000Y-17687500D03*
D10*
G36*
X11977691Y-15676053D02*
G01*
X11998926Y-15679203D01*
X12019750Y-15684419D01*
X12039962Y-15691651D01*
X12059368Y-15700830D01*
X12077781Y-15711866D01*
X12095024Y-15724654D01*
X12110930Y-15739070D01*
X12125346Y-15754976D01*
X12138134Y-15772219D01*
X12149170Y-15790632D01*
X12158349Y-15810038D01*
X12165581Y-15830250D01*
X12170797Y-15851074D01*
X12173947Y-15872309D01*
X12175000Y-15893750D01*
X12175000Y-16331250D01*
X12173947Y-16352691D01*
X12170797Y-16373926D01*
X12165581Y-16394750D01*
X12158349Y-16414962D01*
X12149170Y-16434368D01*
X12138134Y-16452781D01*
X12125346Y-16470024D01*
X12110930Y-16485930D01*
X12095024Y-16500346D01*
X12077781Y-16513134D01*
X12059368Y-16524170D01*
X12039962Y-16533349D01*
X12019750Y-16540581D01*
X11998926Y-16545797D01*
X11977691Y-16548947D01*
X11956250Y-16550000D01*
X11443750Y-16550000D01*
X11422309Y-16548947D01*
X11401074Y-16545797D01*
X11380250Y-16540581D01*
X11360038Y-16533349D01*
X11340632Y-16524170D01*
X11322219Y-16513134D01*
X11304976Y-16500346D01*
X11289070Y-16485930D01*
X11274654Y-16470024D01*
X11261866Y-16452781D01*
X11250830Y-16434368D01*
X11241651Y-16414962D01*
X11234419Y-16394750D01*
X11229203Y-16373926D01*
X11226053Y-16352691D01*
X11225000Y-16331250D01*
X11225000Y-15893750D01*
X11226053Y-15872309D01*
X11229203Y-15851074D01*
X11234419Y-15830250D01*
X11241651Y-15810038D01*
X11250830Y-15790632D01*
X11261866Y-15772219D01*
X11274654Y-15754976D01*
X11289070Y-15739070D01*
X11304976Y-15724654D01*
X11322219Y-15711866D01*
X11340632Y-15700830D01*
X11360038Y-15691651D01*
X11380250Y-15684419D01*
X11401074Y-15679203D01*
X11422309Y-15676053D01*
X11443750Y-15675000D01*
X11956250Y-15675000D01*
X11977691Y-15676053D01*
X11977691Y-15676053D01*
G37*
D11*
X11700000Y-16112500D03*
D10*
G36*
X7452691Y-30526053D02*
G01*
X7473926Y-30529203D01*
X7494750Y-30534419D01*
X7514962Y-30541651D01*
X7534368Y-30550830D01*
X7552781Y-30561866D01*
X7570024Y-30574654D01*
X7585930Y-30589070D01*
X7600346Y-30604976D01*
X7613134Y-30622219D01*
X7624170Y-30640632D01*
X7633349Y-30660038D01*
X7640581Y-30680250D01*
X7645797Y-30701074D01*
X7648947Y-30722309D01*
X7650000Y-30743750D01*
X7650000Y-31256250D01*
X7648947Y-31277691D01*
X7645797Y-31298926D01*
X7640581Y-31319750D01*
X7633349Y-31339962D01*
X7624170Y-31359368D01*
X7613134Y-31377781D01*
X7600346Y-31395024D01*
X7585930Y-31410930D01*
X7570024Y-31425346D01*
X7552781Y-31438134D01*
X7534368Y-31449170D01*
X7514962Y-31458349D01*
X7494750Y-31465581D01*
X7473926Y-31470797D01*
X7452691Y-31473947D01*
X7431250Y-31475000D01*
X6993750Y-31475000D01*
X6972309Y-31473947D01*
X6951074Y-31470797D01*
X6930250Y-31465581D01*
X6910038Y-31458349D01*
X6890632Y-31449170D01*
X6872219Y-31438134D01*
X6854976Y-31425346D01*
X6839070Y-31410930D01*
X6824654Y-31395024D01*
X6811866Y-31377781D01*
X6800830Y-31359368D01*
X6791651Y-31339962D01*
X6784419Y-31319750D01*
X6779203Y-31298926D01*
X6776053Y-31277691D01*
X6775000Y-31256250D01*
X6775000Y-30743750D01*
X6776053Y-30722309D01*
X6779203Y-30701074D01*
X6784419Y-30680250D01*
X6791651Y-30660038D01*
X6800830Y-30640632D01*
X6811866Y-30622219D01*
X6824654Y-30604976D01*
X6839070Y-30589070D01*
X6854976Y-30574654D01*
X6872219Y-30561866D01*
X6890632Y-30550830D01*
X6910038Y-30541651D01*
X6930250Y-30534419D01*
X6951074Y-30529203D01*
X6972309Y-30526053D01*
X6993750Y-30525000D01*
X7431250Y-30525000D01*
X7452691Y-30526053D01*
X7452691Y-30526053D01*
G37*
D11*
X7212500Y-31000000D03*
D10*
G36*
X9027691Y-30526053D02*
G01*
X9048926Y-30529203D01*
X9069750Y-30534419D01*
X9089962Y-30541651D01*
X9109368Y-30550830D01*
X9127781Y-30561866D01*
X9145024Y-30574654D01*
X9160930Y-30589070D01*
X9175346Y-30604976D01*
X9188134Y-30622219D01*
X9199170Y-30640632D01*
X9208349Y-30660038D01*
X9215581Y-30680250D01*
X9220797Y-30701074D01*
X9223947Y-30722309D01*
X9225000Y-30743750D01*
X9225000Y-31256250D01*
X9223947Y-31277691D01*
X9220797Y-31298926D01*
X9215581Y-31319750D01*
X9208349Y-31339962D01*
X9199170Y-31359368D01*
X9188134Y-31377781D01*
X9175346Y-31395024D01*
X9160930Y-31410930D01*
X9145024Y-31425346D01*
X9127781Y-31438134D01*
X9109368Y-31449170D01*
X9089962Y-31458349D01*
X9069750Y-31465581D01*
X9048926Y-31470797D01*
X9027691Y-31473947D01*
X9006250Y-31475000D01*
X8568750Y-31475000D01*
X8547309Y-31473947D01*
X8526074Y-31470797D01*
X8505250Y-31465581D01*
X8485038Y-31458349D01*
X8465632Y-31449170D01*
X8447219Y-31438134D01*
X8429976Y-31425346D01*
X8414070Y-31410930D01*
X8399654Y-31395024D01*
X8386866Y-31377781D01*
X8375830Y-31359368D01*
X8366651Y-31339962D01*
X8359419Y-31319750D01*
X8354203Y-31298926D01*
X8351053Y-31277691D01*
X8350000Y-31256250D01*
X8350000Y-30743750D01*
X8351053Y-30722309D01*
X8354203Y-30701074D01*
X8359419Y-30680250D01*
X8366651Y-30660038D01*
X8375830Y-30640632D01*
X8386866Y-30622219D01*
X8399654Y-30604976D01*
X8414070Y-30589070D01*
X8429976Y-30574654D01*
X8447219Y-30561866D01*
X8465632Y-30550830D01*
X8485038Y-30541651D01*
X8505250Y-30534419D01*
X8526074Y-30529203D01*
X8547309Y-30526053D01*
X8568750Y-30525000D01*
X9006250Y-30525000D01*
X9027691Y-30526053D01*
X9027691Y-30526053D01*
G37*
D11*
X8787500Y-31000000D03*
D10*
G36*
X19277691Y-34776053D02*
G01*
X19298926Y-34779203D01*
X19319750Y-34784419D01*
X19339962Y-34791651D01*
X19359368Y-34800830D01*
X19377781Y-34811866D01*
X19395024Y-34824654D01*
X19410930Y-34839070D01*
X19425346Y-34854976D01*
X19438134Y-34872219D01*
X19449170Y-34890632D01*
X19458349Y-34910038D01*
X19465581Y-34930250D01*
X19470797Y-34951074D01*
X19473947Y-34972309D01*
X19475000Y-34993750D01*
X19475000Y-35431250D01*
X19473947Y-35452691D01*
X19470797Y-35473926D01*
X19465581Y-35494750D01*
X19458349Y-35514962D01*
X19449170Y-35534368D01*
X19438134Y-35552781D01*
X19425346Y-35570024D01*
X19410930Y-35585930D01*
X19395024Y-35600346D01*
X19377781Y-35613134D01*
X19359368Y-35624170D01*
X19339962Y-35633349D01*
X19319750Y-35640581D01*
X19298926Y-35645797D01*
X19277691Y-35648947D01*
X19256250Y-35650000D01*
X18743750Y-35650000D01*
X18722309Y-35648947D01*
X18701074Y-35645797D01*
X18680250Y-35640581D01*
X18660038Y-35633349D01*
X18640632Y-35624170D01*
X18622219Y-35613134D01*
X18604976Y-35600346D01*
X18589070Y-35585930D01*
X18574654Y-35570024D01*
X18561866Y-35552781D01*
X18550830Y-35534368D01*
X18541651Y-35514962D01*
X18534419Y-35494750D01*
X18529203Y-35473926D01*
X18526053Y-35452691D01*
X18525000Y-35431250D01*
X18525000Y-34993750D01*
X18526053Y-34972309D01*
X18529203Y-34951074D01*
X18534419Y-34930250D01*
X18541651Y-34910038D01*
X18550830Y-34890632D01*
X18561866Y-34872219D01*
X18574654Y-34854976D01*
X18589070Y-34839070D01*
X18604976Y-34824654D01*
X18622219Y-34811866D01*
X18640632Y-34800830D01*
X18660038Y-34791651D01*
X18680250Y-34784419D01*
X18701074Y-34779203D01*
X18722309Y-34776053D01*
X18743750Y-34775000D01*
X19256250Y-34775000D01*
X19277691Y-34776053D01*
X19277691Y-34776053D01*
G37*
D11*
X19000000Y-35212500D03*
D10*
G36*
X19277691Y-36351053D02*
G01*
X19298926Y-36354203D01*
X19319750Y-36359419D01*
X19339962Y-36366651D01*
X19359368Y-36375830D01*
X19377781Y-36386866D01*
X19395024Y-36399654D01*
X19410930Y-36414070D01*
X19425346Y-36429976D01*
X19438134Y-36447219D01*
X19449170Y-36465632D01*
X19458349Y-36485038D01*
X19465581Y-36505250D01*
X19470797Y-36526074D01*
X19473947Y-36547309D01*
X19475000Y-36568750D01*
X19475000Y-37006250D01*
X19473947Y-37027691D01*
X19470797Y-37048926D01*
X19465581Y-37069750D01*
X19458349Y-37089962D01*
X19449170Y-37109368D01*
X19438134Y-37127781D01*
X19425346Y-37145024D01*
X19410930Y-37160930D01*
X19395024Y-37175346D01*
X19377781Y-37188134D01*
X19359368Y-37199170D01*
X19339962Y-37208349D01*
X19319750Y-37215581D01*
X19298926Y-37220797D01*
X19277691Y-37223947D01*
X19256250Y-37225000D01*
X18743750Y-37225000D01*
X18722309Y-37223947D01*
X18701074Y-37220797D01*
X18680250Y-37215581D01*
X18660038Y-37208349D01*
X18640632Y-37199170D01*
X18622219Y-37188134D01*
X18604976Y-37175346D01*
X18589070Y-37160930D01*
X18574654Y-37145024D01*
X18561866Y-37127781D01*
X18550830Y-37109368D01*
X18541651Y-37089962D01*
X18534419Y-37069750D01*
X18529203Y-37048926D01*
X18526053Y-37027691D01*
X18525000Y-37006250D01*
X18525000Y-36568750D01*
X18526053Y-36547309D01*
X18529203Y-36526074D01*
X18534419Y-36505250D01*
X18541651Y-36485038D01*
X18550830Y-36465632D01*
X18561866Y-36447219D01*
X18574654Y-36429976D01*
X18589070Y-36414070D01*
X18604976Y-36399654D01*
X18622219Y-36386866D01*
X18640632Y-36375830D01*
X18660038Y-36366651D01*
X18680250Y-36359419D01*
X18701074Y-36354203D01*
X18722309Y-36351053D01*
X18743750Y-36350000D01*
X19256250Y-36350000D01*
X19277691Y-36351053D01*
X19277691Y-36351053D01*
G37*
D11*
X19000000Y-36787500D03*
D10*
G36*
X7452691Y-33526053D02*
G01*
X7473926Y-33529203D01*
X7494750Y-33534419D01*
X7514962Y-33541651D01*
X7534368Y-33550830D01*
X7552781Y-33561866D01*
X7570024Y-33574654D01*
X7585930Y-33589070D01*
X7600346Y-33604976D01*
X7613134Y-33622219D01*
X7624170Y-33640632D01*
X7633349Y-33660038D01*
X7640581Y-33680250D01*
X7645797Y-33701074D01*
X7648947Y-33722309D01*
X7650000Y-33743750D01*
X7650000Y-34256250D01*
X7648947Y-34277691D01*
X7645797Y-34298926D01*
X7640581Y-34319750D01*
X7633349Y-34339962D01*
X7624170Y-34359368D01*
X7613134Y-34377781D01*
X7600346Y-34395024D01*
X7585930Y-34410930D01*
X7570024Y-34425346D01*
X7552781Y-34438134D01*
X7534368Y-34449170D01*
X7514962Y-34458349D01*
X7494750Y-34465581D01*
X7473926Y-34470797D01*
X7452691Y-34473947D01*
X7431250Y-34475000D01*
X6993750Y-34475000D01*
X6972309Y-34473947D01*
X6951074Y-34470797D01*
X6930250Y-34465581D01*
X6910038Y-34458349D01*
X6890632Y-34449170D01*
X6872219Y-34438134D01*
X6854976Y-34425346D01*
X6839070Y-34410930D01*
X6824654Y-34395024D01*
X6811866Y-34377781D01*
X6800830Y-34359368D01*
X6791651Y-34339962D01*
X6784419Y-34319750D01*
X6779203Y-34298926D01*
X6776053Y-34277691D01*
X6775000Y-34256250D01*
X6775000Y-33743750D01*
X6776053Y-33722309D01*
X6779203Y-33701074D01*
X6784419Y-33680250D01*
X6791651Y-33660038D01*
X6800830Y-33640632D01*
X6811866Y-33622219D01*
X6824654Y-33604976D01*
X6839070Y-33589070D01*
X6854976Y-33574654D01*
X6872219Y-33561866D01*
X6890632Y-33550830D01*
X6910038Y-33541651D01*
X6930250Y-33534419D01*
X6951074Y-33529203D01*
X6972309Y-33526053D01*
X6993750Y-33525000D01*
X7431250Y-33525000D01*
X7452691Y-33526053D01*
X7452691Y-33526053D01*
G37*
D11*
X7212500Y-34000000D03*
D10*
G36*
X9027691Y-33526053D02*
G01*
X9048926Y-33529203D01*
X9069750Y-33534419D01*
X9089962Y-33541651D01*
X9109368Y-33550830D01*
X9127781Y-33561866D01*
X9145024Y-33574654D01*
X9160930Y-33589070D01*
X9175346Y-33604976D01*
X9188134Y-33622219D01*
X9199170Y-33640632D01*
X9208349Y-33660038D01*
X9215581Y-33680250D01*
X9220797Y-33701074D01*
X9223947Y-33722309D01*
X9225000Y-33743750D01*
X9225000Y-34256250D01*
X9223947Y-34277691D01*
X9220797Y-34298926D01*
X9215581Y-34319750D01*
X9208349Y-34339962D01*
X9199170Y-34359368D01*
X9188134Y-34377781D01*
X9175346Y-34395024D01*
X9160930Y-34410930D01*
X9145024Y-34425346D01*
X9127781Y-34438134D01*
X9109368Y-34449170D01*
X9089962Y-34458349D01*
X9069750Y-34465581D01*
X9048926Y-34470797D01*
X9027691Y-34473947D01*
X9006250Y-34475000D01*
X8568750Y-34475000D01*
X8547309Y-34473947D01*
X8526074Y-34470797D01*
X8505250Y-34465581D01*
X8485038Y-34458349D01*
X8465632Y-34449170D01*
X8447219Y-34438134D01*
X8429976Y-34425346D01*
X8414070Y-34410930D01*
X8399654Y-34395024D01*
X8386866Y-34377781D01*
X8375830Y-34359368D01*
X8366651Y-34339962D01*
X8359419Y-34319750D01*
X8354203Y-34298926D01*
X8351053Y-34277691D01*
X8350000Y-34256250D01*
X8350000Y-33743750D01*
X8351053Y-33722309D01*
X8354203Y-33701074D01*
X8359419Y-33680250D01*
X8366651Y-33660038D01*
X8375830Y-33640632D01*
X8386866Y-33622219D01*
X8399654Y-33604976D01*
X8414070Y-33589070D01*
X8429976Y-33574654D01*
X8447219Y-33561866D01*
X8465632Y-33550830D01*
X8485038Y-33541651D01*
X8505250Y-33534419D01*
X8526074Y-33529203D01*
X8547309Y-33526053D01*
X8568750Y-33525000D01*
X9006250Y-33525000D01*
X9027691Y-33526053D01*
X9027691Y-33526053D01*
G37*
D11*
X8787500Y-34000000D03*
D10*
G36*
X21277691Y-34776053D02*
G01*
X21298926Y-34779203D01*
X21319750Y-34784419D01*
X21339962Y-34791651D01*
X21359368Y-34800830D01*
X21377781Y-34811866D01*
X21395024Y-34824654D01*
X21410930Y-34839070D01*
X21425346Y-34854976D01*
X21438134Y-34872219D01*
X21449170Y-34890632D01*
X21458349Y-34910038D01*
X21465581Y-34930250D01*
X21470797Y-34951074D01*
X21473947Y-34972309D01*
X21475000Y-34993750D01*
X21475000Y-35431250D01*
X21473947Y-35452691D01*
X21470797Y-35473926D01*
X21465581Y-35494750D01*
X21458349Y-35514962D01*
X21449170Y-35534368D01*
X21438134Y-35552781D01*
X21425346Y-35570024D01*
X21410930Y-35585930D01*
X21395024Y-35600346D01*
X21377781Y-35613134D01*
X21359368Y-35624170D01*
X21339962Y-35633349D01*
X21319750Y-35640581D01*
X21298926Y-35645797D01*
X21277691Y-35648947D01*
X21256250Y-35650000D01*
X20743750Y-35650000D01*
X20722309Y-35648947D01*
X20701074Y-35645797D01*
X20680250Y-35640581D01*
X20660038Y-35633349D01*
X20640632Y-35624170D01*
X20622219Y-35613134D01*
X20604976Y-35600346D01*
X20589070Y-35585930D01*
X20574654Y-35570024D01*
X20561866Y-35552781D01*
X20550830Y-35534368D01*
X20541651Y-35514962D01*
X20534419Y-35494750D01*
X20529203Y-35473926D01*
X20526053Y-35452691D01*
X20525000Y-35431250D01*
X20525000Y-34993750D01*
X20526053Y-34972309D01*
X20529203Y-34951074D01*
X20534419Y-34930250D01*
X20541651Y-34910038D01*
X20550830Y-34890632D01*
X20561866Y-34872219D01*
X20574654Y-34854976D01*
X20589070Y-34839070D01*
X20604976Y-34824654D01*
X20622219Y-34811866D01*
X20640632Y-34800830D01*
X20660038Y-34791651D01*
X20680250Y-34784419D01*
X20701074Y-34779203D01*
X20722309Y-34776053D01*
X20743750Y-34775000D01*
X21256250Y-34775000D01*
X21277691Y-34776053D01*
X21277691Y-34776053D01*
G37*
D11*
X21000000Y-35212500D03*
D10*
G36*
X21277691Y-36351053D02*
G01*
X21298926Y-36354203D01*
X21319750Y-36359419D01*
X21339962Y-36366651D01*
X21359368Y-36375830D01*
X21377781Y-36386866D01*
X21395024Y-36399654D01*
X21410930Y-36414070D01*
X21425346Y-36429976D01*
X21438134Y-36447219D01*
X21449170Y-36465632D01*
X21458349Y-36485038D01*
X21465581Y-36505250D01*
X21470797Y-36526074D01*
X21473947Y-36547309D01*
X21475000Y-36568750D01*
X21475000Y-37006250D01*
X21473947Y-37027691D01*
X21470797Y-37048926D01*
X21465581Y-37069750D01*
X21458349Y-37089962D01*
X21449170Y-37109368D01*
X21438134Y-37127781D01*
X21425346Y-37145024D01*
X21410930Y-37160930D01*
X21395024Y-37175346D01*
X21377781Y-37188134D01*
X21359368Y-37199170D01*
X21339962Y-37208349D01*
X21319750Y-37215581D01*
X21298926Y-37220797D01*
X21277691Y-37223947D01*
X21256250Y-37225000D01*
X20743750Y-37225000D01*
X20722309Y-37223947D01*
X20701074Y-37220797D01*
X20680250Y-37215581D01*
X20660038Y-37208349D01*
X20640632Y-37199170D01*
X20622219Y-37188134D01*
X20604976Y-37175346D01*
X20589070Y-37160930D01*
X20574654Y-37145024D01*
X20561866Y-37127781D01*
X20550830Y-37109368D01*
X20541651Y-37089962D01*
X20534419Y-37069750D01*
X20529203Y-37048926D01*
X20526053Y-37027691D01*
X20525000Y-37006250D01*
X20525000Y-36568750D01*
X20526053Y-36547309D01*
X20529203Y-36526074D01*
X20534419Y-36505250D01*
X20541651Y-36485038D01*
X20550830Y-36465632D01*
X20561866Y-36447219D01*
X20574654Y-36429976D01*
X20589070Y-36414070D01*
X20604976Y-36399654D01*
X20622219Y-36386866D01*
X20640632Y-36375830D01*
X20660038Y-36366651D01*
X20680250Y-36359419D01*
X20701074Y-36354203D01*
X20722309Y-36351053D01*
X20743750Y-36350000D01*
X21256250Y-36350000D01*
X21277691Y-36351053D01*
X21277691Y-36351053D01*
G37*
D11*
X21000000Y-36787500D03*
D10*
G36*
X14577691Y-50551053D02*
G01*
X14598926Y-50554203D01*
X14619750Y-50559419D01*
X14639962Y-50566651D01*
X14659368Y-50575830D01*
X14677781Y-50586866D01*
X14695024Y-50599654D01*
X14710930Y-50614070D01*
X14725346Y-50629976D01*
X14738134Y-50647219D01*
X14749170Y-50665632D01*
X14758349Y-50685038D01*
X14765581Y-50705250D01*
X14770797Y-50726074D01*
X14773947Y-50747309D01*
X14775000Y-50768750D01*
X14775000Y-51206250D01*
X14773947Y-51227691D01*
X14770797Y-51248926D01*
X14765581Y-51269750D01*
X14758349Y-51289962D01*
X14749170Y-51309368D01*
X14738134Y-51327781D01*
X14725346Y-51345024D01*
X14710930Y-51360930D01*
X14695024Y-51375346D01*
X14677781Y-51388134D01*
X14659368Y-51399170D01*
X14639962Y-51408349D01*
X14619750Y-51415581D01*
X14598926Y-51420797D01*
X14577691Y-51423947D01*
X14556250Y-51425000D01*
X14043750Y-51425000D01*
X14022309Y-51423947D01*
X14001074Y-51420797D01*
X13980250Y-51415581D01*
X13960038Y-51408349D01*
X13940632Y-51399170D01*
X13922219Y-51388134D01*
X13904976Y-51375346D01*
X13889070Y-51360930D01*
X13874654Y-51345024D01*
X13861866Y-51327781D01*
X13850830Y-51309368D01*
X13841651Y-51289962D01*
X13834419Y-51269750D01*
X13829203Y-51248926D01*
X13826053Y-51227691D01*
X13825000Y-51206250D01*
X13825000Y-50768750D01*
X13826053Y-50747309D01*
X13829203Y-50726074D01*
X13834419Y-50705250D01*
X13841651Y-50685038D01*
X13850830Y-50665632D01*
X13861866Y-50647219D01*
X13874654Y-50629976D01*
X13889070Y-50614070D01*
X13904976Y-50599654D01*
X13922219Y-50586866D01*
X13940632Y-50575830D01*
X13960038Y-50566651D01*
X13980250Y-50559419D01*
X14001074Y-50554203D01*
X14022309Y-50551053D01*
X14043750Y-50550000D01*
X14556250Y-50550000D01*
X14577691Y-50551053D01*
X14577691Y-50551053D01*
G37*
D11*
X14300000Y-50987500D03*
D10*
G36*
X14577691Y-48976053D02*
G01*
X14598926Y-48979203D01*
X14619750Y-48984419D01*
X14639962Y-48991651D01*
X14659368Y-49000830D01*
X14677781Y-49011866D01*
X14695024Y-49024654D01*
X14710930Y-49039070D01*
X14725346Y-49054976D01*
X14738134Y-49072219D01*
X14749170Y-49090632D01*
X14758349Y-49110038D01*
X14765581Y-49130250D01*
X14770797Y-49151074D01*
X14773947Y-49172309D01*
X14775000Y-49193750D01*
X14775000Y-49631250D01*
X14773947Y-49652691D01*
X14770797Y-49673926D01*
X14765581Y-49694750D01*
X14758349Y-49714962D01*
X14749170Y-49734368D01*
X14738134Y-49752781D01*
X14725346Y-49770024D01*
X14710930Y-49785930D01*
X14695024Y-49800346D01*
X14677781Y-49813134D01*
X14659368Y-49824170D01*
X14639962Y-49833349D01*
X14619750Y-49840581D01*
X14598926Y-49845797D01*
X14577691Y-49848947D01*
X14556250Y-49850000D01*
X14043750Y-49850000D01*
X14022309Y-49848947D01*
X14001074Y-49845797D01*
X13980250Y-49840581D01*
X13960038Y-49833349D01*
X13940632Y-49824170D01*
X13922219Y-49813134D01*
X13904976Y-49800346D01*
X13889070Y-49785930D01*
X13874654Y-49770024D01*
X13861866Y-49752781D01*
X13850830Y-49734368D01*
X13841651Y-49714962D01*
X13834419Y-49694750D01*
X13829203Y-49673926D01*
X13826053Y-49652691D01*
X13825000Y-49631250D01*
X13825000Y-49193750D01*
X13826053Y-49172309D01*
X13829203Y-49151074D01*
X13834419Y-49130250D01*
X13841651Y-49110038D01*
X13850830Y-49090632D01*
X13861866Y-49072219D01*
X13874654Y-49054976D01*
X13889070Y-49039070D01*
X13904976Y-49024654D01*
X13922219Y-49011866D01*
X13940632Y-49000830D01*
X13960038Y-48991651D01*
X13980250Y-48984419D01*
X14001074Y-48979203D01*
X14022309Y-48976053D01*
X14043750Y-48975000D01*
X14556250Y-48975000D01*
X14577691Y-48976053D01*
X14577691Y-48976053D01*
G37*
D11*
X14300000Y-49412500D03*
D10*
G36*
X5027691Y-42526053D02*
G01*
X5048926Y-42529203D01*
X5069750Y-42534419D01*
X5089962Y-42541651D01*
X5109368Y-42550830D01*
X5127781Y-42561866D01*
X5145024Y-42574654D01*
X5160930Y-42589070D01*
X5175346Y-42604976D01*
X5188134Y-42622219D01*
X5199170Y-42640632D01*
X5208349Y-42660038D01*
X5215581Y-42680250D01*
X5220797Y-42701074D01*
X5223947Y-42722309D01*
X5225000Y-42743750D01*
X5225000Y-43256250D01*
X5223947Y-43277691D01*
X5220797Y-43298926D01*
X5215581Y-43319750D01*
X5208349Y-43339962D01*
X5199170Y-43359368D01*
X5188134Y-43377781D01*
X5175346Y-43395024D01*
X5160930Y-43410930D01*
X5145024Y-43425346D01*
X5127781Y-43438134D01*
X5109368Y-43449170D01*
X5089962Y-43458349D01*
X5069750Y-43465581D01*
X5048926Y-43470797D01*
X5027691Y-43473947D01*
X5006250Y-43475000D01*
X4568750Y-43475000D01*
X4547309Y-43473947D01*
X4526074Y-43470797D01*
X4505250Y-43465581D01*
X4485038Y-43458349D01*
X4465632Y-43449170D01*
X4447219Y-43438134D01*
X4429976Y-43425346D01*
X4414070Y-43410930D01*
X4399654Y-43395024D01*
X4386866Y-43377781D01*
X4375830Y-43359368D01*
X4366651Y-43339962D01*
X4359419Y-43319750D01*
X4354203Y-43298926D01*
X4351053Y-43277691D01*
X4350000Y-43256250D01*
X4350000Y-42743750D01*
X4351053Y-42722309D01*
X4354203Y-42701074D01*
X4359419Y-42680250D01*
X4366651Y-42660038D01*
X4375830Y-42640632D01*
X4386866Y-42622219D01*
X4399654Y-42604976D01*
X4414070Y-42589070D01*
X4429976Y-42574654D01*
X4447219Y-42561866D01*
X4465632Y-42550830D01*
X4485038Y-42541651D01*
X4505250Y-42534419D01*
X4526074Y-42529203D01*
X4547309Y-42526053D01*
X4568750Y-42525000D01*
X5006250Y-42525000D01*
X5027691Y-42526053D01*
X5027691Y-42526053D01*
G37*
D11*
X4787500Y-43000000D03*
D10*
G36*
X3452691Y-42526053D02*
G01*
X3473926Y-42529203D01*
X3494750Y-42534419D01*
X3514962Y-42541651D01*
X3534368Y-42550830D01*
X3552781Y-42561866D01*
X3570024Y-42574654D01*
X3585930Y-42589070D01*
X3600346Y-42604976D01*
X3613134Y-42622219D01*
X3624170Y-42640632D01*
X3633349Y-42660038D01*
X3640581Y-42680250D01*
X3645797Y-42701074D01*
X3648947Y-42722309D01*
X3650000Y-42743750D01*
X3650000Y-43256250D01*
X3648947Y-43277691D01*
X3645797Y-43298926D01*
X3640581Y-43319750D01*
X3633349Y-43339962D01*
X3624170Y-43359368D01*
X3613134Y-43377781D01*
X3600346Y-43395024D01*
X3585930Y-43410930D01*
X3570024Y-43425346D01*
X3552781Y-43438134D01*
X3534368Y-43449170D01*
X3514962Y-43458349D01*
X3494750Y-43465581D01*
X3473926Y-43470797D01*
X3452691Y-43473947D01*
X3431250Y-43475000D01*
X2993750Y-43475000D01*
X2972309Y-43473947D01*
X2951074Y-43470797D01*
X2930250Y-43465581D01*
X2910038Y-43458349D01*
X2890632Y-43449170D01*
X2872219Y-43438134D01*
X2854976Y-43425346D01*
X2839070Y-43410930D01*
X2824654Y-43395024D01*
X2811866Y-43377781D01*
X2800830Y-43359368D01*
X2791651Y-43339962D01*
X2784419Y-43319750D01*
X2779203Y-43298926D01*
X2776053Y-43277691D01*
X2775000Y-43256250D01*
X2775000Y-42743750D01*
X2776053Y-42722309D01*
X2779203Y-42701074D01*
X2784419Y-42680250D01*
X2791651Y-42660038D01*
X2800830Y-42640632D01*
X2811866Y-42622219D01*
X2824654Y-42604976D01*
X2839070Y-42589070D01*
X2854976Y-42574654D01*
X2872219Y-42561866D01*
X2890632Y-42550830D01*
X2910038Y-42541651D01*
X2930250Y-42534419D01*
X2951074Y-42529203D01*
X2972309Y-42526053D01*
X2993750Y-42525000D01*
X3431250Y-42525000D01*
X3452691Y-42526053D01*
X3452691Y-42526053D01*
G37*
D11*
X3212500Y-43000000D03*
D10*
G36*
X18527691Y-83526053D02*
G01*
X18548926Y-83529203D01*
X18569750Y-83534419D01*
X18589962Y-83541651D01*
X18609368Y-83550830D01*
X18627781Y-83561866D01*
X18645024Y-83574654D01*
X18660930Y-83589070D01*
X18675346Y-83604976D01*
X18688134Y-83622219D01*
X18699170Y-83640632D01*
X18708349Y-83660038D01*
X18715581Y-83680250D01*
X18720797Y-83701074D01*
X18723947Y-83722309D01*
X18725000Y-83743750D01*
X18725000Y-84256250D01*
X18723947Y-84277691D01*
X18720797Y-84298926D01*
X18715581Y-84319750D01*
X18708349Y-84339962D01*
X18699170Y-84359368D01*
X18688134Y-84377781D01*
X18675346Y-84395024D01*
X18660930Y-84410930D01*
X18645024Y-84425346D01*
X18627781Y-84438134D01*
X18609368Y-84449170D01*
X18589962Y-84458349D01*
X18569750Y-84465581D01*
X18548926Y-84470797D01*
X18527691Y-84473947D01*
X18506250Y-84475000D01*
X18068750Y-84475000D01*
X18047309Y-84473947D01*
X18026074Y-84470797D01*
X18005250Y-84465581D01*
X17985038Y-84458349D01*
X17965632Y-84449170D01*
X17947219Y-84438134D01*
X17929976Y-84425346D01*
X17914070Y-84410930D01*
X17899654Y-84395024D01*
X17886866Y-84377781D01*
X17875830Y-84359368D01*
X17866651Y-84339962D01*
X17859419Y-84319750D01*
X17854203Y-84298926D01*
X17851053Y-84277691D01*
X17850000Y-84256250D01*
X17850000Y-83743750D01*
X17851053Y-83722309D01*
X17854203Y-83701074D01*
X17859419Y-83680250D01*
X17866651Y-83660038D01*
X17875830Y-83640632D01*
X17886866Y-83622219D01*
X17899654Y-83604976D01*
X17914070Y-83589070D01*
X17929976Y-83574654D01*
X17947219Y-83561866D01*
X17965632Y-83550830D01*
X17985038Y-83541651D01*
X18005250Y-83534419D01*
X18026074Y-83529203D01*
X18047309Y-83526053D01*
X18068750Y-83525000D01*
X18506250Y-83525000D01*
X18527691Y-83526053D01*
X18527691Y-83526053D01*
G37*
D11*
X18287500Y-84000000D03*
D10*
G36*
X16952691Y-83526053D02*
G01*
X16973926Y-83529203D01*
X16994750Y-83534419D01*
X17014962Y-83541651D01*
X17034368Y-83550830D01*
X17052781Y-83561866D01*
X17070024Y-83574654D01*
X17085930Y-83589070D01*
X17100346Y-83604976D01*
X17113134Y-83622219D01*
X17124170Y-83640632D01*
X17133349Y-83660038D01*
X17140581Y-83680250D01*
X17145797Y-83701074D01*
X17148947Y-83722309D01*
X17150000Y-83743750D01*
X17150000Y-84256250D01*
X17148947Y-84277691D01*
X17145797Y-84298926D01*
X17140581Y-84319750D01*
X17133349Y-84339962D01*
X17124170Y-84359368D01*
X17113134Y-84377781D01*
X17100346Y-84395024D01*
X17085930Y-84410930D01*
X17070024Y-84425346D01*
X17052781Y-84438134D01*
X17034368Y-84449170D01*
X17014962Y-84458349D01*
X16994750Y-84465581D01*
X16973926Y-84470797D01*
X16952691Y-84473947D01*
X16931250Y-84475000D01*
X16493750Y-84475000D01*
X16472309Y-84473947D01*
X16451074Y-84470797D01*
X16430250Y-84465581D01*
X16410038Y-84458349D01*
X16390632Y-84449170D01*
X16372219Y-84438134D01*
X16354976Y-84425346D01*
X16339070Y-84410930D01*
X16324654Y-84395024D01*
X16311866Y-84377781D01*
X16300830Y-84359368D01*
X16291651Y-84339962D01*
X16284419Y-84319750D01*
X16279203Y-84298926D01*
X16276053Y-84277691D01*
X16275000Y-84256250D01*
X16275000Y-83743750D01*
X16276053Y-83722309D01*
X16279203Y-83701074D01*
X16284419Y-83680250D01*
X16291651Y-83660038D01*
X16300830Y-83640632D01*
X16311866Y-83622219D01*
X16324654Y-83604976D01*
X16339070Y-83589070D01*
X16354976Y-83574654D01*
X16372219Y-83561866D01*
X16390632Y-83550830D01*
X16410038Y-83541651D01*
X16430250Y-83534419D01*
X16451074Y-83529203D01*
X16472309Y-83526053D01*
X16493750Y-83525000D01*
X16931250Y-83525000D01*
X16952691Y-83526053D01*
X16952691Y-83526053D01*
G37*
D11*
X16712500Y-84000000D03*
D10*
G36*
X18527691Y-93526053D02*
G01*
X18548926Y-93529203D01*
X18569750Y-93534419D01*
X18589962Y-93541651D01*
X18609368Y-93550830D01*
X18627781Y-93561866D01*
X18645024Y-93574654D01*
X18660930Y-93589070D01*
X18675346Y-93604976D01*
X18688134Y-93622219D01*
X18699170Y-93640632D01*
X18708349Y-93660038D01*
X18715581Y-93680250D01*
X18720797Y-93701074D01*
X18723947Y-93722309D01*
X18725000Y-93743750D01*
X18725000Y-94256250D01*
X18723947Y-94277691D01*
X18720797Y-94298926D01*
X18715581Y-94319750D01*
X18708349Y-94339962D01*
X18699170Y-94359368D01*
X18688134Y-94377781D01*
X18675346Y-94395024D01*
X18660930Y-94410930D01*
X18645024Y-94425346D01*
X18627781Y-94438134D01*
X18609368Y-94449170D01*
X18589962Y-94458349D01*
X18569750Y-94465581D01*
X18548926Y-94470797D01*
X18527691Y-94473947D01*
X18506250Y-94475000D01*
X18068750Y-94475000D01*
X18047309Y-94473947D01*
X18026074Y-94470797D01*
X18005250Y-94465581D01*
X17985038Y-94458349D01*
X17965632Y-94449170D01*
X17947219Y-94438134D01*
X17929976Y-94425346D01*
X17914070Y-94410930D01*
X17899654Y-94395024D01*
X17886866Y-94377781D01*
X17875830Y-94359368D01*
X17866651Y-94339962D01*
X17859419Y-94319750D01*
X17854203Y-94298926D01*
X17851053Y-94277691D01*
X17850000Y-94256250D01*
X17850000Y-93743750D01*
X17851053Y-93722309D01*
X17854203Y-93701074D01*
X17859419Y-93680250D01*
X17866651Y-93660038D01*
X17875830Y-93640632D01*
X17886866Y-93622219D01*
X17899654Y-93604976D01*
X17914070Y-93589070D01*
X17929976Y-93574654D01*
X17947219Y-93561866D01*
X17965632Y-93550830D01*
X17985038Y-93541651D01*
X18005250Y-93534419D01*
X18026074Y-93529203D01*
X18047309Y-93526053D01*
X18068750Y-93525000D01*
X18506250Y-93525000D01*
X18527691Y-93526053D01*
X18527691Y-93526053D01*
G37*
D11*
X18287500Y-94000000D03*
D10*
G36*
X16952691Y-93526053D02*
G01*
X16973926Y-93529203D01*
X16994750Y-93534419D01*
X17014962Y-93541651D01*
X17034368Y-93550830D01*
X17052781Y-93561866D01*
X17070024Y-93574654D01*
X17085930Y-93589070D01*
X17100346Y-93604976D01*
X17113134Y-93622219D01*
X17124170Y-93640632D01*
X17133349Y-93660038D01*
X17140581Y-93680250D01*
X17145797Y-93701074D01*
X17148947Y-93722309D01*
X17150000Y-93743750D01*
X17150000Y-94256250D01*
X17148947Y-94277691D01*
X17145797Y-94298926D01*
X17140581Y-94319750D01*
X17133349Y-94339962D01*
X17124170Y-94359368D01*
X17113134Y-94377781D01*
X17100346Y-94395024D01*
X17085930Y-94410930D01*
X17070024Y-94425346D01*
X17052781Y-94438134D01*
X17034368Y-94449170D01*
X17014962Y-94458349D01*
X16994750Y-94465581D01*
X16973926Y-94470797D01*
X16952691Y-94473947D01*
X16931250Y-94475000D01*
X16493750Y-94475000D01*
X16472309Y-94473947D01*
X16451074Y-94470797D01*
X16430250Y-94465581D01*
X16410038Y-94458349D01*
X16390632Y-94449170D01*
X16372219Y-94438134D01*
X16354976Y-94425346D01*
X16339070Y-94410930D01*
X16324654Y-94395024D01*
X16311866Y-94377781D01*
X16300830Y-94359368D01*
X16291651Y-94339962D01*
X16284419Y-94319750D01*
X16279203Y-94298926D01*
X16276053Y-94277691D01*
X16275000Y-94256250D01*
X16275000Y-93743750D01*
X16276053Y-93722309D01*
X16279203Y-93701074D01*
X16284419Y-93680250D01*
X16291651Y-93660038D01*
X16300830Y-93640632D01*
X16311866Y-93622219D01*
X16324654Y-93604976D01*
X16339070Y-93589070D01*
X16354976Y-93574654D01*
X16372219Y-93561866D01*
X16390632Y-93550830D01*
X16410038Y-93541651D01*
X16430250Y-93534419D01*
X16451074Y-93529203D01*
X16472309Y-93526053D01*
X16493750Y-93525000D01*
X16931250Y-93525000D01*
X16952691Y-93526053D01*
X16952691Y-93526053D01*
G37*
D11*
X16712500Y-94000000D03*
D10*
G36*
X21277691Y-18351053D02*
G01*
X21298926Y-18354203D01*
X21319750Y-18359419D01*
X21339962Y-18366651D01*
X21359368Y-18375830D01*
X21377781Y-18386866D01*
X21395024Y-18399654D01*
X21410930Y-18414070D01*
X21425346Y-18429976D01*
X21438134Y-18447219D01*
X21449170Y-18465632D01*
X21458349Y-18485038D01*
X21465581Y-18505250D01*
X21470797Y-18526074D01*
X21473947Y-18547309D01*
X21475000Y-18568750D01*
X21475000Y-19006250D01*
X21473947Y-19027691D01*
X21470797Y-19048926D01*
X21465581Y-19069750D01*
X21458349Y-19089962D01*
X21449170Y-19109368D01*
X21438134Y-19127781D01*
X21425346Y-19145024D01*
X21410930Y-19160930D01*
X21395024Y-19175346D01*
X21377781Y-19188134D01*
X21359368Y-19199170D01*
X21339962Y-19208349D01*
X21319750Y-19215581D01*
X21298926Y-19220797D01*
X21277691Y-19223947D01*
X21256250Y-19225000D01*
X20743750Y-19225000D01*
X20722309Y-19223947D01*
X20701074Y-19220797D01*
X20680250Y-19215581D01*
X20660038Y-19208349D01*
X20640632Y-19199170D01*
X20622219Y-19188134D01*
X20604976Y-19175346D01*
X20589070Y-19160930D01*
X20574654Y-19145024D01*
X20561866Y-19127781D01*
X20550830Y-19109368D01*
X20541651Y-19089962D01*
X20534419Y-19069750D01*
X20529203Y-19048926D01*
X20526053Y-19027691D01*
X20525000Y-19006250D01*
X20525000Y-18568750D01*
X20526053Y-18547309D01*
X20529203Y-18526074D01*
X20534419Y-18505250D01*
X20541651Y-18485038D01*
X20550830Y-18465632D01*
X20561866Y-18447219D01*
X20574654Y-18429976D01*
X20589070Y-18414070D01*
X20604976Y-18399654D01*
X20622219Y-18386866D01*
X20640632Y-18375830D01*
X20660038Y-18366651D01*
X20680250Y-18359419D01*
X20701074Y-18354203D01*
X20722309Y-18351053D01*
X20743750Y-18350000D01*
X21256250Y-18350000D01*
X21277691Y-18351053D01*
X21277691Y-18351053D01*
G37*
D11*
X21000000Y-18787500D03*
D10*
G36*
X21277691Y-16776053D02*
G01*
X21298926Y-16779203D01*
X21319750Y-16784419D01*
X21339962Y-16791651D01*
X21359368Y-16800830D01*
X21377781Y-16811866D01*
X21395024Y-16824654D01*
X21410930Y-16839070D01*
X21425346Y-16854976D01*
X21438134Y-16872219D01*
X21449170Y-16890632D01*
X21458349Y-16910038D01*
X21465581Y-16930250D01*
X21470797Y-16951074D01*
X21473947Y-16972309D01*
X21475000Y-16993750D01*
X21475000Y-17431250D01*
X21473947Y-17452691D01*
X21470797Y-17473926D01*
X21465581Y-17494750D01*
X21458349Y-17514962D01*
X21449170Y-17534368D01*
X21438134Y-17552781D01*
X21425346Y-17570024D01*
X21410930Y-17585930D01*
X21395024Y-17600346D01*
X21377781Y-17613134D01*
X21359368Y-17624170D01*
X21339962Y-17633349D01*
X21319750Y-17640581D01*
X21298926Y-17645797D01*
X21277691Y-17648947D01*
X21256250Y-17650000D01*
X20743750Y-17650000D01*
X20722309Y-17648947D01*
X20701074Y-17645797D01*
X20680250Y-17640581D01*
X20660038Y-17633349D01*
X20640632Y-17624170D01*
X20622219Y-17613134D01*
X20604976Y-17600346D01*
X20589070Y-17585930D01*
X20574654Y-17570024D01*
X20561866Y-17552781D01*
X20550830Y-17534368D01*
X20541651Y-17514962D01*
X20534419Y-17494750D01*
X20529203Y-17473926D01*
X20526053Y-17452691D01*
X20525000Y-17431250D01*
X20525000Y-16993750D01*
X20526053Y-16972309D01*
X20529203Y-16951074D01*
X20534419Y-16930250D01*
X20541651Y-16910038D01*
X20550830Y-16890632D01*
X20561866Y-16872219D01*
X20574654Y-16854976D01*
X20589070Y-16839070D01*
X20604976Y-16824654D01*
X20622219Y-16811866D01*
X20640632Y-16800830D01*
X20660038Y-16791651D01*
X20680250Y-16784419D01*
X20701074Y-16779203D01*
X20722309Y-16776053D01*
X20743750Y-16775000D01*
X21256250Y-16775000D01*
X21277691Y-16776053D01*
X21277691Y-16776053D01*
G37*
D11*
X21000000Y-17212500D03*
D10*
G36*
X46452691Y-14026053D02*
G01*
X46473926Y-14029203D01*
X46494750Y-14034419D01*
X46514962Y-14041651D01*
X46534368Y-14050830D01*
X46552781Y-14061866D01*
X46570024Y-14074654D01*
X46585930Y-14089070D01*
X46600346Y-14104976D01*
X46613134Y-14122219D01*
X46624170Y-14140632D01*
X46633349Y-14160038D01*
X46640581Y-14180250D01*
X46645797Y-14201074D01*
X46648947Y-14222309D01*
X46650000Y-14243750D01*
X46650000Y-14756250D01*
X46648947Y-14777691D01*
X46645797Y-14798926D01*
X46640581Y-14819750D01*
X46633349Y-14839962D01*
X46624170Y-14859368D01*
X46613134Y-14877781D01*
X46600346Y-14895024D01*
X46585930Y-14910930D01*
X46570024Y-14925346D01*
X46552781Y-14938134D01*
X46534368Y-14949170D01*
X46514962Y-14958349D01*
X46494750Y-14965581D01*
X46473926Y-14970797D01*
X46452691Y-14973947D01*
X46431250Y-14975000D01*
X45993750Y-14975000D01*
X45972309Y-14973947D01*
X45951074Y-14970797D01*
X45930250Y-14965581D01*
X45910038Y-14958349D01*
X45890632Y-14949170D01*
X45872219Y-14938134D01*
X45854976Y-14925346D01*
X45839070Y-14910930D01*
X45824654Y-14895024D01*
X45811866Y-14877781D01*
X45800830Y-14859368D01*
X45791651Y-14839962D01*
X45784419Y-14819750D01*
X45779203Y-14798926D01*
X45776053Y-14777691D01*
X45775000Y-14756250D01*
X45775000Y-14243750D01*
X45776053Y-14222309D01*
X45779203Y-14201074D01*
X45784419Y-14180250D01*
X45791651Y-14160038D01*
X45800830Y-14140632D01*
X45811866Y-14122219D01*
X45824654Y-14104976D01*
X45839070Y-14089070D01*
X45854976Y-14074654D01*
X45872219Y-14061866D01*
X45890632Y-14050830D01*
X45910038Y-14041651D01*
X45930250Y-14034419D01*
X45951074Y-14029203D01*
X45972309Y-14026053D01*
X45993750Y-14025000D01*
X46431250Y-14025000D01*
X46452691Y-14026053D01*
X46452691Y-14026053D01*
G37*
D11*
X46212500Y-14500000D03*
D10*
G36*
X48027691Y-14026053D02*
G01*
X48048926Y-14029203D01*
X48069750Y-14034419D01*
X48089962Y-14041651D01*
X48109368Y-14050830D01*
X48127781Y-14061866D01*
X48145024Y-14074654D01*
X48160930Y-14089070D01*
X48175346Y-14104976D01*
X48188134Y-14122219D01*
X48199170Y-14140632D01*
X48208349Y-14160038D01*
X48215581Y-14180250D01*
X48220797Y-14201074D01*
X48223947Y-14222309D01*
X48225000Y-14243750D01*
X48225000Y-14756250D01*
X48223947Y-14777691D01*
X48220797Y-14798926D01*
X48215581Y-14819750D01*
X48208349Y-14839962D01*
X48199170Y-14859368D01*
X48188134Y-14877781D01*
X48175346Y-14895024D01*
X48160930Y-14910930D01*
X48145024Y-14925346D01*
X48127781Y-14938134D01*
X48109368Y-14949170D01*
X48089962Y-14958349D01*
X48069750Y-14965581D01*
X48048926Y-14970797D01*
X48027691Y-14973947D01*
X48006250Y-14975000D01*
X47568750Y-14975000D01*
X47547309Y-14973947D01*
X47526074Y-14970797D01*
X47505250Y-14965581D01*
X47485038Y-14958349D01*
X47465632Y-14949170D01*
X47447219Y-14938134D01*
X47429976Y-14925346D01*
X47414070Y-14910930D01*
X47399654Y-14895024D01*
X47386866Y-14877781D01*
X47375830Y-14859368D01*
X47366651Y-14839962D01*
X47359419Y-14819750D01*
X47354203Y-14798926D01*
X47351053Y-14777691D01*
X47350000Y-14756250D01*
X47350000Y-14243750D01*
X47351053Y-14222309D01*
X47354203Y-14201074D01*
X47359419Y-14180250D01*
X47366651Y-14160038D01*
X47375830Y-14140632D01*
X47386866Y-14122219D01*
X47399654Y-14104976D01*
X47414070Y-14089070D01*
X47429976Y-14074654D01*
X47447219Y-14061866D01*
X47465632Y-14050830D01*
X47485038Y-14041651D01*
X47505250Y-14034419D01*
X47526074Y-14029203D01*
X47547309Y-14026053D01*
X47568750Y-14025000D01*
X48006250Y-14025000D01*
X48027691Y-14026053D01*
X48027691Y-14026053D01*
G37*
D11*
X47787500Y-14500000D03*
D10*
G36*
X43452691Y-62526053D02*
G01*
X43473926Y-62529203D01*
X43494750Y-62534419D01*
X43514962Y-62541651D01*
X43534368Y-62550830D01*
X43552781Y-62561866D01*
X43570024Y-62574654D01*
X43585930Y-62589070D01*
X43600346Y-62604976D01*
X43613134Y-62622219D01*
X43624170Y-62640632D01*
X43633349Y-62660038D01*
X43640581Y-62680250D01*
X43645797Y-62701074D01*
X43648947Y-62722309D01*
X43650000Y-62743750D01*
X43650000Y-63256250D01*
X43648947Y-63277691D01*
X43645797Y-63298926D01*
X43640581Y-63319750D01*
X43633349Y-63339962D01*
X43624170Y-63359368D01*
X43613134Y-63377781D01*
X43600346Y-63395024D01*
X43585930Y-63410930D01*
X43570024Y-63425346D01*
X43552781Y-63438134D01*
X43534368Y-63449170D01*
X43514962Y-63458349D01*
X43494750Y-63465581D01*
X43473926Y-63470797D01*
X43452691Y-63473947D01*
X43431250Y-63475000D01*
X42993750Y-63475000D01*
X42972309Y-63473947D01*
X42951074Y-63470797D01*
X42930250Y-63465581D01*
X42910038Y-63458349D01*
X42890632Y-63449170D01*
X42872219Y-63438134D01*
X42854976Y-63425346D01*
X42839070Y-63410930D01*
X42824654Y-63395024D01*
X42811866Y-63377781D01*
X42800830Y-63359368D01*
X42791651Y-63339962D01*
X42784419Y-63319750D01*
X42779203Y-63298926D01*
X42776053Y-63277691D01*
X42775000Y-63256250D01*
X42775000Y-62743750D01*
X42776053Y-62722309D01*
X42779203Y-62701074D01*
X42784419Y-62680250D01*
X42791651Y-62660038D01*
X42800830Y-62640632D01*
X42811866Y-62622219D01*
X42824654Y-62604976D01*
X42839070Y-62589070D01*
X42854976Y-62574654D01*
X42872219Y-62561866D01*
X42890632Y-62550830D01*
X42910038Y-62541651D01*
X42930250Y-62534419D01*
X42951074Y-62529203D01*
X42972309Y-62526053D01*
X42993750Y-62525000D01*
X43431250Y-62525000D01*
X43452691Y-62526053D01*
X43452691Y-62526053D01*
G37*
D11*
X43212500Y-63000000D03*
D10*
G36*
X45027691Y-62526053D02*
G01*
X45048926Y-62529203D01*
X45069750Y-62534419D01*
X45089962Y-62541651D01*
X45109368Y-62550830D01*
X45127781Y-62561866D01*
X45145024Y-62574654D01*
X45160930Y-62589070D01*
X45175346Y-62604976D01*
X45188134Y-62622219D01*
X45199170Y-62640632D01*
X45208349Y-62660038D01*
X45215581Y-62680250D01*
X45220797Y-62701074D01*
X45223947Y-62722309D01*
X45225000Y-62743750D01*
X45225000Y-63256250D01*
X45223947Y-63277691D01*
X45220797Y-63298926D01*
X45215581Y-63319750D01*
X45208349Y-63339962D01*
X45199170Y-63359368D01*
X45188134Y-63377781D01*
X45175346Y-63395024D01*
X45160930Y-63410930D01*
X45145024Y-63425346D01*
X45127781Y-63438134D01*
X45109368Y-63449170D01*
X45089962Y-63458349D01*
X45069750Y-63465581D01*
X45048926Y-63470797D01*
X45027691Y-63473947D01*
X45006250Y-63475000D01*
X44568750Y-63475000D01*
X44547309Y-63473947D01*
X44526074Y-63470797D01*
X44505250Y-63465581D01*
X44485038Y-63458349D01*
X44465632Y-63449170D01*
X44447219Y-63438134D01*
X44429976Y-63425346D01*
X44414070Y-63410930D01*
X44399654Y-63395024D01*
X44386866Y-63377781D01*
X44375830Y-63359368D01*
X44366651Y-63339962D01*
X44359419Y-63319750D01*
X44354203Y-63298926D01*
X44351053Y-63277691D01*
X44350000Y-63256250D01*
X44350000Y-62743750D01*
X44351053Y-62722309D01*
X44354203Y-62701074D01*
X44359419Y-62680250D01*
X44366651Y-62660038D01*
X44375830Y-62640632D01*
X44386866Y-62622219D01*
X44399654Y-62604976D01*
X44414070Y-62589070D01*
X44429976Y-62574654D01*
X44447219Y-62561866D01*
X44465632Y-62550830D01*
X44485038Y-62541651D01*
X44505250Y-62534419D01*
X44526074Y-62529203D01*
X44547309Y-62526053D01*
X44568750Y-62525000D01*
X45006250Y-62525000D01*
X45027691Y-62526053D01*
X45027691Y-62526053D01*
G37*
D11*
X44787500Y-63000000D03*
D10*
G36*
X23027691Y-62526053D02*
G01*
X23048926Y-62529203D01*
X23069750Y-62534419D01*
X23089962Y-62541651D01*
X23109368Y-62550830D01*
X23127781Y-62561866D01*
X23145024Y-62574654D01*
X23160930Y-62589070D01*
X23175346Y-62604976D01*
X23188134Y-62622219D01*
X23199170Y-62640632D01*
X23208349Y-62660038D01*
X23215581Y-62680250D01*
X23220797Y-62701074D01*
X23223947Y-62722309D01*
X23225000Y-62743750D01*
X23225000Y-63256250D01*
X23223947Y-63277691D01*
X23220797Y-63298926D01*
X23215581Y-63319750D01*
X23208349Y-63339962D01*
X23199170Y-63359368D01*
X23188134Y-63377781D01*
X23175346Y-63395024D01*
X23160930Y-63410930D01*
X23145024Y-63425346D01*
X23127781Y-63438134D01*
X23109368Y-63449170D01*
X23089962Y-63458349D01*
X23069750Y-63465581D01*
X23048926Y-63470797D01*
X23027691Y-63473947D01*
X23006250Y-63475000D01*
X22568750Y-63475000D01*
X22547309Y-63473947D01*
X22526074Y-63470797D01*
X22505250Y-63465581D01*
X22485038Y-63458349D01*
X22465632Y-63449170D01*
X22447219Y-63438134D01*
X22429976Y-63425346D01*
X22414070Y-63410930D01*
X22399654Y-63395024D01*
X22386866Y-63377781D01*
X22375830Y-63359368D01*
X22366651Y-63339962D01*
X22359419Y-63319750D01*
X22354203Y-63298926D01*
X22351053Y-63277691D01*
X22350000Y-63256250D01*
X22350000Y-62743750D01*
X22351053Y-62722309D01*
X22354203Y-62701074D01*
X22359419Y-62680250D01*
X22366651Y-62660038D01*
X22375830Y-62640632D01*
X22386866Y-62622219D01*
X22399654Y-62604976D01*
X22414070Y-62589070D01*
X22429976Y-62574654D01*
X22447219Y-62561866D01*
X22465632Y-62550830D01*
X22485038Y-62541651D01*
X22505250Y-62534419D01*
X22526074Y-62529203D01*
X22547309Y-62526053D01*
X22568750Y-62525000D01*
X23006250Y-62525000D01*
X23027691Y-62526053D01*
X23027691Y-62526053D01*
G37*
D11*
X22787500Y-63000000D03*
D10*
G36*
X21452691Y-62526053D02*
G01*
X21473926Y-62529203D01*
X21494750Y-62534419D01*
X21514962Y-62541651D01*
X21534368Y-62550830D01*
X21552781Y-62561866D01*
X21570024Y-62574654D01*
X21585930Y-62589070D01*
X21600346Y-62604976D01*
X21613134Y-62622219D01*
X21624170Y-62640632D01*
X21633349Y-62660038D01*
X21640581Y-62680250D01*
X21645797Y-62701074D01*
X21648947Y-62722309D01*
X21650000Y-62743750D01*
X21650000Y-63256250D01*
X21648947Y-63277691D01*
X21645797Y-63298926D01*
X21640581Y-63319750D01*
X21633349Y-63339962D01*
X21624170Y-63359368D01*
X21613134Y-63377781D01*
X21600346Y-63395024D01*
X21585930Y-63410930D01*
X21570024Y-63425346D01*
X21552781Y-63438134D01*
X21534368Y-63449170D01*
X21514962Y-63458349D01*
X21494750Y-63465581D01*
X21473926Y-63470797D01*
X21452691Y-63473947D01*
X21431250Y-63475000D01*
X20993750Y-63475000D01*
X20972309Y-63473947D01*
X20951074Y-63470797D01*
X20930250Y-63465581D01*
X20910038Y-63458349D01*
X20890632Y-63449170D01*
X20872219Y-63438134D01*
X20854976Y-63425346D01*
X20839070Y-63410930D01*
X20824654Y-63395024D01*
X20811866Y-63377781D01*
X20800830Y-63359368D01*
X20791651Y-63339962D01*
X20784419Y-63319750D01*
X20779203Y-63298926D01*
X20776053Y-63277691D01*
X20775000Y-63256250D01*
X20775000Y-62743750D01*
X20776053Y-62722309D01*
X20779203Y-62701074D01*
X20784419Y-62680250D01*
X20791651Y-62660038D01*
X20800830Y-62640632D01*
X20811866Y-62622219D01*
X20824654Y-62604976D01*
X20839070Y-62589070D01*
X20854976Y-62574654D01*
X20872219Y-62561866D01*
X20890632Y-62550830D01*
X20910038Y-62541651D01*
X20930250Y-62534419D01*
X20951074Y-62529203D01*
X20972309Y-62526053D01*
X20993750Y-62525000D01*
X21431250Y-62525000D01*
X21452691Y-62526053D01*
X21452691Y-62526053D01*
G37*
D11*
X21212500Y-63000000D03*
D10*
G36*
X8552691Y-17526053D02*
G01*
X8573926Y-17529203D01*
X8594750Y-17534419D01*
X8614962Y-17541651D01*
X8634368Y-17550830D01*
X8652781Y-17561866D01*
X8670024Y-17574654D01*
X8685930Y-17589070D01*
X8700346Y-17604976D01*
X8713134Y-17622219D01*
X8724170Y-17640632D01*
X8733349Y-17660038D01*
X8740581Y-17680250D01*
X8745797Y-17701074D01*
X8748947Y-17722309D01*
X8750000Y-17743750D01*
X8750000Y-18256250D01*
X8748947Y-18277691D01*
X8745797Y-18298926D01*
X8740581Y-18319750D01*
X8733349Y-18339962D01*
X8724170Y-18359368D01*
X8713134Y-18377781D01*
X8700346Y-18395024D01*
X8685930Y-18410930D01*
X8670024Y-18425346D01*
X8652781Y-18438134D01*
X8634368Y-18449170D01*
X8614962Y-18458349D01*
X8594750Y-18465581D01*
X8573926Y-18470797D01*
X8552691Y-18473947D01*
X8531250Y-18475000D01*
X8093750Y-18475000D01*
X8072309Y-18473947D01*
X8051074Y-18470797D01*
X8030250Y-18465581D01*
X8010038Y-18458349D01*
X7990632Y-18449170D01*
X7972219Y-18438134D01*
X7954976Y-18425346D01*
X7939070Y-18410930D01*
X7924654Y-18395024D01*
X7911866Y-18377781D01*
X7900830Y-18359368D01*
X7891651Y-18339962D01*
X7884419Y-18319750D01*
X7879203Y-18298926D01*
X7876053Y-18277691D01*
X7875000Y-18256250D01*
X7875000Y-17743750D01*
X7876053Y-17722309D01*
X7879203Y-17701074D01*
X7884419Y-17680250D01*
X7891651Y-17660038D01*
X7900830Y-17640632D01*
X7911866Y-17622219D01*
X7924654Y-17604976D01*
X7939070Y-17589070D01*
X7954976Y-17574654D01*
X7972219Y-17561866D01*
X7990632Y-17550830D01*
X8010038Y-17541651D01*
X8030250Y-17534419D01*
X8051074Y-17529203D01*
X8072309Y-17526053D01*
X8093750Y-17525000D01*
X8531250Y-17525000D01*
X8552691Y-17526053D01*
X8552691Y-17526053D01*
G37*
D11*
X8312500Y-18000000D03*
D10*
G36*
X10127691Y-17526053D02*
G01*
X10148926Y-17529203D01*
X10169750Y-17534419D01*
X10189962Y-17541651D01*
X10209368Y-17550830D01*
X10227781Y-17561866D01*
X10245024Y-17574654D01*
X10260930Y-17589070D01*
X10275346Y-17604976D01*
X10288134Y-17622219D01*
X10299170Y-17640632D01*
X10308349Y-17660038D01*
X10315581Y-17680250D01*
X10320797Y-17701074D01*
X10323947Y-17722309D01*
X10325000Y-17743750D01*
X10325000Y-18256250D01*
X10323947Y-18277691D01*
X10320797Y-18298926D01*
X10315581Y-18319750D01*
X10308349Y-18339962D01*
X10299170Y-18359368D01*
X10288134Y-18377781D01*
X10275346Y-18395024D01*
X10260930Y-18410930D01*
X10245024Y-18425346D01*
X10227781Y-18438134D01*
X10209368Y-18449170D01*
X10189962Y-18458349D01*
X10169750Y-18465581D01*
X10148926Y-18470797D01*
X10127691Y-18473947D01*
X10106250Y-18475000D01*
X9668750Y-18475000D01*
X9647309Y-18473947D01*
X9626074Y-18470797D01*
X9605250Y-18465581D01*
X9585038Y-18458349D01*
X9565632Y-18449170D01*
X9547219Y-18438134D01*
X9529976Y-18425346D01*
X9514070Y-18410930D01*
X9499654Y-18395024D01*
X9486866Y-18377781D01*
X9475830Y-18359368D01*
X9466651Y-18339962D01*
X9459419Y-18319750D01*
X9454203Y-18298926D01*
X9451053Y-18277691D01*
X9450000Y-18256250D01*
X9450000Y-17743750D01*
X9451053Y-17722309D01*
X9454203Y-17701074D01*
X9459419Y-17680250D01*
X9466651Y-17660038D01*
X9475830Y-17640632D01*
X9486866Y-17622219D01*
X9499654Y-17604976D01*
X9514070Y-17589070D01*
X9529976Y-17574654D01*
X9547219Y-17561866D01*
X9565632Y-17550830D01*
X9585038Y-17541651D01*
X9605250Y-17534419D01*
X9626074Y-17529203D01*
X9647309Y-17526053D01*
X9668750Y-17525000D01*
X10106250Y-17525000D01*
X10127691Y-17526053D01*
X10127691Y-17526053D01*
G37*
D11*
X9887500Y-18000000D03*
D12*
X12300000Y-11400000D03*
X14200000Y-11400000D03*
X14200000Y-13600000D03*
D13*
X12480000Y-13600000D03*
D10*
G36*
X10480142Y-10913674D02*
G01*
X10503803Y-10917184D01*
X10527007Y-10922996D01*
X10549529Y-10931054D01*
X10571153Y-10941282D01*
X10591670Y-10953579D01*
X10610883Y-10967829D01*
X10628607Y-10983893D01*
X10644671Y-11001617D01*
X10658921Y-11020830D01*
X10671218Y-11041347D01*
X10681446Y-11062971D01*
X10689504Y-11085493D01*
X10695316Y-11108697D01*
X10698826Y-11132358D01*
X10700000Y-11156250D01*
X10700000Y-11643750D01*
X10698826Y-11667642D01*
X10695316Y-11691303D01*
X10689504Y-11714507D01*
X10681446Y-11737029D01*
X10671218Y-11758653D01*
X10658921Y-11779170D01*
X10644671Y-11798383D01*
X10628607Y-11816107D01*
X10610883Y-11832171D01*
X10591670Y-11846421D01*
X10571153Y-11858718D01*
X10549529Y-11868946D01*
X10527007Y-11877004D01*
X10503803Y-11882816D01*
X10480142Y-11886326D01*
X10456250Y-11887500D01*
X9543750Y-11887500D01*
X9519858Y-11886326D01*
X9496197Y-11882816D01*
X9472993Y-11877004D01*
X9450471Y-11868946D01*
X9428847Y-11858718D01*
X9408330Y-11846421D01*
X9389117Y-11832171D01*
X9371393Y-11816107D01*
X9355329Y-11798383D01*
X9341079Y-11779170D01*
X9328782Y-11758653D01*
X9318554Y-11737029D01*
X9310496Y-11714507D01*
X9304684Y-11691303D01*
X9301174Y-11667642D01*
X9300000Y-11643750D01*
X9300000Y-11156250D01*
X9301174Y-11132358D01*
X9304684Y-11108697D01*
X9310496Y-11085493D01*
X9318554Y-11062971D01*
X9328782Y-11041347D01*
X9341079Y-11020830D01*
X9355329Y-11001617D01*
X9371393Y-10983893D01*
X9389117Y-10967829D01*
X9408330Y-10953579D01*
X9428847Y-10941282D01*
X9450471Y-10931054D01*
X9472993Y-10922996D01*
X9496197Y-10917184D01*
X9519858Y-10913674D01*
X9543750Y-10912500D01*
X10456250Y-10912500D01*
X10480142Y-10913674D01*
X10480142Y-10913674D01*
G37*
D14*
X10000000Y-11400000D03*
D10*
G36*
X10480142Y-9038674D02*
G01*
X10503803Y-9042184D01*
X10527007Y-9047996D01*
X10549529Y-9056054D01*
X10571153Y-9066282D01*
X10591670Y-9078579D01*
X10610883Y-9092829D01*
X10628607Y-9108893D01*
X10644671Y-9126617D01*
X10658921Y-9145830D01*
X10671218Y-9166347D01*
X10681446Y-9187971D01*
X10689504Y-9210493D01*
X10695316Y-9233697D01*
X10698826Y-9257358D01*
X10700000Y-9281250D01*
X10700000Y-9768750D01*
X10698826Y-9792642D01*
X10695316Y-9816303D01*
X10689504Y-9839507D01*
X10681446Y-9862029D01*
X10671218Y-9883653D01*
X10658921Y-9904170D01*
X10644671Y-9923383D01*
X10628607Y-9941107D01*
X10610883Y-9957171D01*
X10591670Y-9971421D01*
X10571153Y-9983718D01*
X10549529Y-9993946D01*
X10527007Y-10002004D01*
X10503803Y-10007816D01*
X10480142Y-10011326D01*
X10456250Y-10012500D01*
X9543750Y-10012500D01*
X9519858Y-10011326D01*
X9496197Y-10007816D01*
X9472993Y-10002004D01*
X9450471Y-9993946D01*
X9428847Y-9983718D01*
X9408330Y-9971421D01*
X9389117Y-9957171D01*
X9371393Y-9941107D01*
X9355329Y-9923383D01*
X9341079Y-9904170D01*
X9328782Y-9883653D01*
X9318554Y-9862029D01*
X9310496Y-9839507D01*
X9304684Y-9816303D01*
X9301174Y-9792642D01*
X9300000Y-9768750D01*
X9300000Y-9281250D01*
X9301174Y-9257358D01*
X9304684Y-9233697D01*
X9310496Y-9210493D01*
X9318554Y-9187971D01*
X9328782Y-9166347D01*
X9341079Y-9145830D01*
X9355329Y-9126617D01*
X9371393Y-9108893D01*
X9389117Y-9092829D01*
X9408330Y-9078579D01*
X9428847Y-9066282D01*
X9450471Y-9056054D01*
X9472993Y-9047996D01*
X9496197Y-9042184D01*
X9519858Y-9038674D01*
X9543750Y-9037500D01*
X10456250Y-9037500D01*
X10480142Y-9038674D01*
X10480142Y-9038674D01*
G37*
D14*
X10000000Y-9525000D03*
D10*
G36*
X18452691Y-86026053D02*
G01*
X18473926Y-86029203D01*
X18494750Y-86034419D01*
X18514962Y-86041651D01*
X18534368Y-86050830D01*
X18552781Y-86061866D01*
X18570024Y-86074654D01*
X18585930Y-86089070D01*
X18600346Y-86104976D01*
X18613134Y-86122219D01*
X18624170Y-86140632D01*
X18633349Y-86160038D01*
X18640581Y-86180250D01*
X18645797Y-86201074D01*
X18648947Y-86222309D01*
X18650000Y-86243750D01*
X18650000Y-86756250D01*
X18648947Y-86777691D01*
X18645797Y-86798926D01*
X18640581Y-86819750D01*
X18633349Y-86839962D01*
X18624170Y-86859368D01*
X18613134Y-86877781D01*
X18600346Y-86895024D01*
X18585930Y-86910930D01*
X18570024Y-86925346D01*
X18552781Y-86938134D01*
X18534368Y-86949170D01*
X18514962Y-86958349D01*
X18494750Y-86965581D01*
X18473926Y-86970797D01*
X18452691Y-86973947D01*
X18431250Y-86975000D01*
X17993750Y-86975000D01*
X17972309Y-86973947D01*
X17951074Y-86970797D01*
X17930250Y-86965581D01*
X17910038Y-86958349D01*
X17890632Y-86949170D01*
X17872219Y-86938134D01*
X17854976Y-86925346D01*
X17839070Y-86910930D01*
X17824654Y-86895024D01*
X17811866Y-86877781D01*
X17800830Y-86859368D01*
X17791651Y-86839962D01*
X17784419Y-86819750D01*
X17779203Y-86798926D01*
X17776053Y-86777691D01*
X17775000Y-86756250D01*
X17775000Y-86243750D01*
X17776053Y-86222309D01*
X17779203Y-86201074D01*
X17784419Y-86180250D01*
X17791651Y-86160038D01*
X17800830Y-86140632D01*
X17811866Y-86122219D01*
X17824654Y-86104976D01*
X17839070Y-86089070D01*
X17854976Y-86074654D01*
X17872219Y-86061866D01*
X17890632Y-86050830D01*
X17910038Y-86041651D01*
X17930250Y-86034419D01*
X17951074Y-86029203D01*
X17972309Y-86026053D01*
X17993750Y-86025000D01*
X18431250Y-86025000D01*
X18452691Y-86026053D01*
X18452691Y-86026053D01*
G37*
D11*
X18212500Y-86500000D03*
D10*
G36*
X20027691Y-86026053D02*
G01*
X20048926Y-86029203D01*
X20069750Y-86034419D01*
X20089962Y-86041651D01*
X20109368Y-86050830D01*
X20127781Y-86061866D01*
X20145024Y-86074654D01*
X20160930Y-86089070D01*
X20175346Y-86104976D01*
X20188134Y-86122219D01*
X20199170Y-86140632D01*
X20208349Y-86160038D01*
X20215581Y-86180250D01*
X20220797Y-86201074D01*
X20223947Y-86222309D01*
X20225000Y-86243750D01*
X20225000Y-86756250D01*
X20223947Y-86777691D01*
X20220797Y-86798926D01*
X20215581Y-86819750D01*
X20208349Y-86839962D01*
X20199170Y-86859368D01*
X20188134Y-86877781D01*
X20175346Y-86895024D01*
X20160930Y-86910930D01*
X20145024Y-86925346D01*
X20127781Y-86938134D01*
X20109368Y-86949170D01*
X20089962Y-86958349D01*
X20069750Y-86965581D01*
X20048926Y-86970797D01*
X20027691Y-86973947D01*
X20006250Y-86975000D01*
X19568750Y-86975000D01*
X19547309Y-86973947D01*
X19526074Y-86970797D01*
X19505250Y-86965581D01*
X19485038Y-86958349D01*
X19465632Y-86949170D01*
X19447219Y-86938134D01*
X19429976Y-86925346D01*
X19414070Y-86910930D01*
X19399654Y-86895024D01*
X19386866Y-86877781D01*
X19375830Y-86859368D01*
X19366651Y-86839962D01*
X19359419Y-86819750D01*
X19354203Y-86798926D01*
X19351053Y-86777691D01*
X19350000Y-86756250D01*
X19350000Y-86243750D01*
X19351053Y-86222309D01*
X19354203Y-86201074D01*
X19359419Y-86180250D01*
X19366651Y-86160038D01*
X19375830Y-86140632D01*
X19386866Y-86122219D01*
X19399654Y-86104976D01*
X19414070Y-86089070D01*
X19429976Y-86074654D01*
X19447219Y-86061866D01*
X19465632Y-86050830D01*
X19485038Y-86041651D01*
X19505250Y-86034419D01*
X19526074Y-86029203D01*
X19547309Y-86026053D01*
X19568750Y-86025000D01*
X20006250Y-86025000D01*
X20027691Y-86026053D01*
X20027691Y-86026053D01*
G37*
D11*
X19787500Y-86500000D03*
D10*
G36*
X20027691Y-91026053D02*
G01*
X20048926Y-91029203D01*
X20069750Y-91034419D01*
X20089962Y-91041651D01*
X20109368Y-91050830D01*
X20127781Y-91061866D01*
X20145024Y-91074654D01*
X20160930Y-91089070D01*
X20175346Y-91104976D01*
X20188134Y-91122219D01*
X20199170Y-91140632D01*
X20208349Y-91160038D01*
X20215581Y-91180250D01*
X20220797Y-91201074D01*
X20223947Y-91222309D01*
X20225000Y-91243750D01*
X20225000Y-91756250D01*
X20223947Y-91777691D01*
X20220797Y-91798926D01*
X20215581Y-91819750D01*
X20208349Y-91839962D01*
X20199170Y-91859368D01*
X20188134Y-91877781D01*
X20175346Y-91895024D01*
X20160930Y-91910930D01*
X20145024Y-91925346D01*
X20127781Y-91938134D01*
X20109368Y-91949170D01*
X20089962Y-91958349D01*
X20069750Y-91965581D01*
X20048926Y-91970797D01*
X20027691Y-91973947D01*
X20006250Y-91975000D01*
X19568750Y-91975000D01*
X19547309Y-91973947D01*
X19526074Y-91970797D01*
X19505250Y-91965581D01*
X19485038Y-91958349D01*
X19465632Y-91949170D01*
X19447219Y-91938134D01*
X19429976Y-91925346D01*
X19414070Y-91910930D01*
X19399654Y-91895024D01*
X19386866Y-91877781D01*
X19375830Y-91859368D01*
X19366651Y-91839962D01*
X19359419Y-91819750D01*
X19354203Y-91798926D01*
X19351053Y-91777691D01*
X19350000Y-91756250D01*
X19350000Y-91243750D01*
X19351053Y-91222309D01*
X19354203Y-91201074D01*
X19359419Y-91180250D01*
X19366651Y-91160038D01*
X19375830Y-91140632D01*
X19386866Y-91122219D01*
X19399654Y-91104976D01*
X19414070Y-91089070D01*
X19429976Y-91074654D01*
X19447219Y-91061866D01*
X19465632Y-91050830D01*
X19485038Y-91041651D01*
X19505250Y-91034419D01*
X19526074Y-91029203D01*
X19547309Y-91026053D01*
X19568750Y-91025000D01*
X20006250Y-91025000D01*
X20027691Y-91026053D01*
X20027691Y-91026053D01*
G37*
D11*
X19787500Y-91500000D03*
D10*
G36*
X18452691Y-91026053D02*
G01*
X18473926Y-91029203D01*
X18494750Y-91034419D01*
X18514962Y-91041651D01*
X18534368Y-91050830D01*
X18552781Y-91061866D01*
X18570024Y-91074654D01*
X18585930Y-91089070D01*
X18600346Y-91104976D01*
X18613134Y-91122219D01*
X18624170Y-91140632D01*
X18633349Y-91160038D01*
X18640581Y-91180250D01*
X18645797Y-91201074D01*
X18648947Y-91222309D01*
X18650000Y-91243750D01*
X18650000Y-91756250D01*
X18648947Y-91777691D01*
X18645797Y-91798926D01*
X18640581Y-91819750D01*
X18633349Y-91839962D01*
X18624170Y-91859368D01*
X18613134Y-91877781D01*
X18600346Y-91895024D01*
X18585930Y-91910930D01*
X18570024Y-91925346D01*
X18552781Y-91938134D01*
X18534368Y-91949170D01*
X18514962Y-91958349D01*
X18494750Y-91965581D01*
X18473926Y-91970797D01*
X18452691Y-91973947D01*
X18431250Y-91975000D01*
X17993750Y-91975000D01*
X17972309Y-91973947D01*
X17951074Y-91970797D01*
X17930250Y-91965581D01*
X17910038Y-91958349D01*
X17890632Y-91949170D01*
X17872219Y-91938134D01*
X17854976Y-91925346D01*
X17839070Y-91910930D01*
X17824654Y-91895024D01*
X17811866Y-91877781D01*
X17800830Y-91859368D01*
X17791651Y-91839962D01*
X17784419Y-91819750D01*
X17779203Y-91798926D01*
X17776053Y-91777691D01*
X17775000Y-91756250D01*
X17775000Y-91243750D01*
X17776053Y-91222309D01*
X17779203Y-91201074D01*
X17784419Y-91180250D01*
X17791651Y-91160038D01*
X17800830Y-91140632D01*
X17811866Y-91122219D01*
X17824654Y-91104976D01*
X17839070Y-91089070D01*
X17854976Y-91074654D01*
X17872219Y-91061866D01*
X17890632Y-91050830D01*
X17910038Y-91041651D01*
X17930250Y-91034419D01*
X17951074Y-91029203D01*
X17972309Y-91026053D01*
X17993750Y-91025000D01*
X18431250Y-91025000D01*
X18452691Y-91026053D01*
X18452691Y-91026053D01*
G37*
D11*
X18212500Y-91500000D03*
D10*
G36*
X22952691Y-20526053D02*
G01*
X22973926Y-20529203D01*
X22994750Y-20534419D01*
X23014962Y-20541651D01*
X23034368Y-20550830D01*
X23052781Y-20561866D01*
X23070024Y-20574654D01*
X23085930Y-20589070D01*
X23100346Y-20604976D01*
X23113134Y-20622219D01*
X23124170Y-20640632D01*
X23133349Y-20660038D01*
X23140581Y-20680250D01*
X23145797Y-20701074D01*
X23148947Y-20722309D01*
X23150000Y-20743750D01*
X23150000Y-21256250D01*
X23148947Y-21277691D01*
X23145797Y-21298926D01*
X23140581Y-21319750D01*
X23133349Y-21339962D01*
X23124170Y-21359368D01*
X23113134Y-21377781D01*
X23100346Y-21395024D01*
X23085930Y-21410930D01*
X23070024Y-21425346D01*
X23052781Y-21438134D01*
X23034368Y-21449170D01*
X23014962Y-21458349D01*
X22994750Y-21465581D01*
X22973926Y-21470797D01*
X22952691Y-21473947D01*
X22931250Y-21475000D01*
X22493750Y-21475000D01*
X22472309Y-21473947D01*
X22451074Y-21470797D01*
X22430250Y-21465581D01*
X22410038Y-21458349D01*
X22390632Y-21449170D01*
X22372219Y-21438134D01*
X22354976Y-21425346D01*
X22339070Y-21410930D01*
X22324654Y-21395024D01*
X22311866Y-21377781D01*
X22300830Y-21359368D01*
X22291651Y-21339962D01*
X22284419Y-21319750D01*
X22279203Y-21298926D01*
X22276053Y-21277691D01*
X22275000Y-21256250D01*
X22275000Y-20743750D01*
X22276053Y-20722309D01*
X22279203Y-20701074D01*
X22284419Y-20680250D01*
X22291651Y-20660038D01*
X22300830Y-20640632D01*
X22311866Y-20622219D01*
X22324654Y-20604976D01*
X22339070Y-20589070D01*
X22354976Y-20574654D01*
X22372219Y-20561866D01*
X22390632Y-20550830D01*
X22410038Y-20541651D01*
X22430250Y-20534419D01*
X22451074Y-20529203D01*
X22472309Y-20526053D01*
X22493750Y-20525000D01*
X22931250Y-20525000D01*
X22952691Y-20526053D01*
X22952691Y-20526053D01*
G37*
D11*
X22712500Y-21000000D03*
D10*
G36*
X24527691Y-20526053D02*
G01*
X24548926Y-20529203D01*
X24569750Y-20534419D01*
X24589962Y-20541651D01*
X24609368Y-20550830D01*
X24627781Y-20561866D01*
X24645024Y-20574654D01*
X24660930Y-20589070D01*
X24675346Y-20604976D01*
X24688134Y-20622219D01*
X24699170Y-20640632D01*
X24708349Y-20660038D01*
X24715581Y-20680250D01*
X24720797Y-20701074D01*
X24723947Y-20722309D01*
X24725000Y-20743750D01*
X24725000Y-21256250D01*
X24723947Y-21277691D01*
X24720797Y-21298926D01*
X24715581Y-21319750D01*
X24708349Y-21339962D01*
X24699170Y-21359368D01*
X24688134Y-21377781D01*
X24675346Y-21395024D01*
X24660930Y-21410930D01*
X24645024Y-21425346D01*
X24627781Y-21438134D01*
X24609368Y-21449170D01*
X24589962Y-21458349D01*
X24569750Y-21465581D01*
X24548926Y-21470797D01*
X24527691Y-21473947D01*
X24506250Y-21475000D01*
X24068750Y-21475000D01*
X24047309Y-21473947D01*
X24026074Y-21470797D01*
X24005250Y-21465581D01*
X23985038Y-21458349D01*
X23965632Y-21449170D01*
X23947219Y-21438134D01*
X23929976Y-21425346D01*
X23914070Y-21410930D01*
X23899654Y-21395024D01*
X23886866Y-21377781D01*
X23875830Y-21359368D01*
X23866651Y-21339962D01*
X23859419Y-21319750D01*
X23854203Y-21298926D01*
X23851053Y-21277691D01*
X23850000Y-21256250D01*
X23850000Y-20743750D01*
X23851053Y-20722309D01*
X23854203Y-20701074D01*
X23859419Y-20680250D01*
X23866651Y-20660038D01*
X23875830Y-20640632D01*
X23886866Y-20622219D01*
X23899654Y-20604976D01*
X23914070Y-20589070D01*
X23929976Y-20574654D01*
X23947219Y-20561866D01*
X23965632Y-20550830D01*
X23985038Y-20541651D01*
X24005250Y-20534419D01*
X24026074Y-20529203D01*
X24047309Y-20526053D01*
X24068750Y-20525000D01*
X24506250Y-20525000D01*
X24527691Y-20526053D01*
X24527691Y-20526053D01*
G37*
D11*
X24287500Y-21000000D03*
D10*
G36*
X46277691Y-10276053D02*
G01*
X46298926Y-10279203D01*
X46319750Y-10284419D01*
X46339962Y-10291651D01*
X46359368Y-10300830D01*
X46377781Y-10311866D01*
X46395024Y-10324654D01*
X46410930Y-10339070D01*
X46425346Y-10354976D01*
X46438134Y-10372219D01*
X46449170Y-10390632D01*
X46458349Y-10410038D01*
X46465581Y-10430250D01*
X46470797Y-10451074D01*
X46473947Y-10472309D01*
X46475000Y-10493750D01*
X46475000Y-10931250D01*
X46473947Y-10952691D01*
X46470797Y-10973926D01*
X46465581Y-10994750D01*
X46458349Y-11014962D01*
X46449170Y-11034368D01*
X46438134Y-11052781D01*
X46425346Y-11070024D01*
X46410930Y-11085930D01*
X46395024Y-11100346D01*
X46377781Y-11113134D01*
X46359368Y-11124170D01*
X46339962Y-11133349D01*
X46319750Y-11140581D01*
X46298926Y-11145797D01*
X46277691Y-11148947D01*
X46256250Y-11150000D01*
X45743750Y-11150000D01*
X45722309Y-11148947D01*
X45701074Y-11145797D01*
X45680250Y-11140581D01*
X45660038Y-11133349D01*
X45640632Y-11124170D01*
X45622219Y-11113134D01*
X45604976Y-11100346D01*
X45589070Y-11085930D01*
X45574654Y-11070024D01*
X45561866Y-11052781D01*
X45550830Y-11034368D01*
X45541651Y-11014962D01*
X45534419Y-10994750D01*
X45529203Y-10973926D01*
X45526053Y-10952691D01*
X45525000Y-10931250D01*
X45525000Y-10493750D01*
X45526053Y-10472309D01*
X45529203Y-10451074D01*
X45534419Y-10430250D01*
X45541651Y-10410038D01*
X45550830Y-10390632D01*
X45561866Y-10372219D01*
X45574654Y-10354976D01*
X45589070Y-10339070D01*
X45604976Y-10324654D01*
X45622219Y-10311866D01*
X45640632Y-10300830D01*
X45660038Y-10291651D01*
X45680250Y-10284419D01*
X45701074Y-10279203D01*
X45722309Y-10276053D01*
X45743750Y-10275000D01*
X46256250Y-10275000D01*
X46277691Y-10276053D01*
X46277691Y-10276053D01*
G37*
D11*
X46000000Y-10712500D03*
D10*
G36*
X46277691Y-11851053D02*
G01*
X46298926Y-11854203D01*
X46319750Y-11859419D01*
X46339962Y-11866651D01*
X46359368Y-11875830D01*
X46377781Y-11886866D01*
X46395024Y-11899654D01*
X46410930Y-11914070D01*
X46425346Y-11929976D01*
X46438134Y-11947219D01*
X46449170Y-11965632D01*
X46458349Y-11985038D01*
X46465581Y-12005250D01*
X46470797Y-12026074D01*
X46473947Y-12047309D01*
X46475000Y-12068750D01*
X46475000Y-12506250D01*
X46473947Y-12527691D01*
X46470797Y-12548926D01*
X46465581Y-12569750D01*
X46458349Y-12589962D01*
X46449170Y-12609368D01*
X46438134Y-12627781D01*
X46425346Y-12645024D01*
X46410930Y-12660930D01*
X46395024Y-12675346D01*
X46377781Y-12688134D01*
X46359368Y-12699170D01*
X46339962Y-12708349D01*
X46319750Y-12715581D01*
X46298926Y-12720797D01*
X46277691Y-12723947D01*
X46256250Y-12725000D01*
X45743750Y-12725000D01*
X45722309Y-12723947D01*
X45701074Y-12720797D01*
X45680250Y-12715581D01*
X45660038Y-12708349D01*
X45640632Y-12699170D01*
X45622219Y-12688134D01*
X45604976Y-12675346D01*
X45589070Y-12660930D01*
X45574654Y-12645024D01*
X45561866Y-12627781D01*
X45550830Y-12609368D01*
X45541651Y-12589962D01*
X45534419Y-12569750D01*
X45529203Y-12548926D01*
X45526053Y-12527691D01*
X45525000Y-12506250D01*
X45525000Y-12068750D01*
X45526053Y-12047309D01*
X45529203Y-12026074D01*
X45534419Y-12005250D01*
X45541651Y-11985038D01*
X45550830Y-11965632D01*
X45561866Y-11947219D01*
X45574654Y-11929976D01*
X45589070Y-11914070D01*
X45604976Y-11899654D01*
X45622219Y-11886866D01*
X45640632Y-11875830D01*
X45660038Y-11866651D01*
X45680250Y-11859419D01*
X45701074Y-11854203D01*
X45722309Y-11851053D01*
X45743750Y-11850000D01*
X46256250Y-11850000D01*
X46277691Y-11851053D01*
X46277691Y-11851053D01*
G37*
D11*
X46000000Y-12287500D03*
D10*
G36*
X41027691Y-64526053D02*
G01*
X41048926Y-64529203D01*
X41069750Y-64534419D01*
X41089962Y-64541651D01*
X41109368Y-64550830D01*
X41127781Y-64561866D01*
X41145024Y-64574654D01*
X41160930Y-64589070D01*
X41175346Y-64604976D01*
X41188134Y-64622219D01*
X41199170Y-64640632D01*
X41208349Y-64660038D01*
X41215581Y-64680250D01*
X41220797Y-64701074D01*
X41223947Y-64722309D01*
X41225000Y-64743750D01*
X41225000Y-65256250D01*
X41223947Y-65277691D01*
X41220797Y-65298926D01*
X41215581Y-65319750D01*
X41208349Y-65339962D01*
X41199170Y-65359368D01*
X41188134Y-65377781D01*
X41175346Y-65395024D01*
X41160930Y-65410930D01*
X41145024Y-65425346D01*
X41127781Y-65438134D01*
X41109368Y-65449170D01*
X41089962Y-65458349D01*
X41069750Y-65465581D01*
X41048926Y-65470797D01*
X41027691Y-65473947D01*
X41006250Y-65475000D01*
X40568750Y-65475000D01*
X40547309Y-65473947D01*
X40526074Y-65470797D01*
X40505250Y-65465581D01*
X40485038Y-65458349D01*
X40465632Y-65449170D01*
X40447219Y-65438134D01*
X40429976Y-65425346D01*
X40414070Y-65410930D01*
X40399654Y-65395024D01*
X40386866Y-65377781D01*
X40375830Y-65359368D01*
X40366651Y-65339962D01*
X40359419Y-65319750D01*
X40354203Y-65298926D01*
X40351053Y-65277691D01*
X40350000Y-65256250D01*
X40350000Y-64743750D01*
X40351053Y-64722309D01*
X40354203Y-64701074D01*
X40359419Y-64680250D01*
X40366651Y-64660038D01*
X40375830Y-64640632D01*
X40386866Y-64622219D01*
X40399654Y-64604976D01*
X40414070Y-64589070D01*
X40429976Y-64574654D01*
X40447219Y-64561866D01*
X40465632Y-64550830D01*
X40485038Y-64541651D01*
X40505250Y-64534419D01*
X40526074Y-64529203D01*
X40547309Y-64526053D01*
X40568750Y-64525000D01*
X41006250Y-64525000D01*
X41027691Y-64526053D01*
X41027691Y-64526053D01*
G37*
D11*
X40787500Y-65000000D03*
D10*
G36*
X39452691Y-64526053D02*
G01*
X39473926Y-64529203D01*
X39494750Y-64534419D01*
X39514962Y-64541651D01*
X39534368Y-64550830D01*
X39552781Y-64561866D01*
X39570024Y-64574654D01*
X39585930Y-64589070D01*
X39600346Y-64604976D01*
X39613134Y-64622219D01*
X39624170Y-64640632D01*
X39633349Y-64660038D01*
X39640581Y-64680250D01*
X39645797Y-64701074D01*
X39648947Y-64722309D01*
X39650000Y-64743750D01*
X39650000Y-65256250D01*
X39648947Y-65277691D01*
X39645797Y-65298926D01*
X39640581Y-65319750D01*
X39633349Y-65339962D01*
X39624170Y-65359368D01*
X39613134Y-65377781D01*
X39600346Y-65395024D01*
X39585930Y-65410930D01*
X39570024Y-65425346D01*
X39552781Y-65438134D01*
X39534368Y-65449170D01*
X39514962Y-65458349D01*
X39494750Y-65465581D01*
X39473926Y-65470797D01*
X39452691Y-65473947D01*
X39431250Y-65475000D01*
X38993750Y-65475000D01*
X38972309Y-65473947D01*
X38951074Y-65470797D01*
X38930250Y-65465581D01*
X38910038Y-65458349D01*
X38890632Y-65449170D01*
X38872219Y-65438134D01*
X38854976Y-65425346D01*
X38839070Y-65410930D01*
X38824654Y-65395024D01*
X38811866Y-65377781D01*
X38800830Y-65359368D01*
X38791651Y-65339962D01*
X38784419Y-65319750D01*
X38779203Y-65298926D01*
X38776053Y-65277691D01*
X38775000Y-65256250D01*
X38775000Y-64743750D01*
X38776053Y-64722309D01*
X38779203Y-64701074D01*
X38784419Y-64680250D01*
X38791651Y-64660038D01*
X38800830Y-64640632D01*
X38811866Y-64622219D01*
X38824654Y-64604976D01*
X38839070Y-64589070D01*
X38854976Y-64574654D01*
X38872219Y-64561866D01*
X38890632Y-64550830D01*
X38910038Y-64541651D01*
X38930250Y-64534419D01*
X38951074Y-64529203D01*
X38972309Y-64526053D01*
X38993750Y-64525000D01*
X39431250Y-64525000D01*
X39452691Y-64526053D01*
X39452691Y-64526053D01*
G37*
D11*
X39212500Y-65000000D03*
D10*
G36*
X27027691Y-64526053D02*
G01*
X27048926Y-64529203D01*
X27069750Y-64534419D01*
X27089962Y-64541651D01*
X27109368Y-64550830D01*
X27127781Y-64561866D01*
X27145024Y-64574654D01*
X27160930Y-64589070D01*
X27175346Y-64604976D01*
X27188134Y-64622219D01*
X27199170Y-64640632D01*
X27208349Y-64660038D01*
X27215581Y-64680250D01*
X27220797Y-64701074D01*
X27223947Y-64722309D01*
X27225000Y-64743750D01*
X27225000Y-65256250D01*
X27223947Y-65277691D01*
X27220797Y-65298926D01*
X27215581Y-65319750D01*
X27208349Y-65339962D01*
X27199170Y-65359368D01*
X27188134Y-65377781D01*
X27175346Y-65395024D01*
X27160930Y-65410930D01*
X27145024Y-65425346D01*
X27127781Y-65438134D01*
X27109368Y-65449170D01*
X27089962Y-65458349D01*
X27069750Y-65465581D01*
X27048926Y-65470797D01*
X27027691Y-65473947D01*
X27006250Y-65475000D01*
X26568750Y-65475000D01*
X26547309Y-65473947D01*
X26526074Y-65470797D01*
X26505250Y-65465581D01*
X26485038Y-65458349D01*
X26465632Y-65449170D01*
X26447219Y-65438134D01*
X26429976Y-65425346D01*
X26414070Y-65410930D01*
X26399654Y-65395024D01*
X26386866Y-65377781D01*
X26375830Y-65359368D01*
X26366651Y-65339962D01*
X26359419Y-65319750D01*
X26354203Y-65298926D01*
X26351053Y-65277691D01*
X26350000Y-65256250D01*
X26350000Y-64743750D01*
X26351053Y-64722309D01*
X26354203Y-64701074D01*
X26359419Y-64680250D01*
X26366651Y-64660038D01*
X26375830Y-64640632D01*
X26386866Y-64622219D01*
X26399654Y-64604976D01*
X26414070Y-64589070D01*
X26429976Y-64574654D01*
X26447219Y-64561866D01*
X26465632Y-64550830D01*
X26485038Y-64541651D01*
X26505250Y-64534419D01*
X26526074Y-64529203D01*
X26547309Y-64526053D01*
X26568750Y-64525000D01*
X27006250Y-64525000D01*
X27027691Y-64526053D01*
X27027691Y-64526053D01*
G37*
D11*
X26787500Y-65000000D03*
D10*
G36*
X25452691Y-64526053D02*
G01*
X25473926Y-64529203D01*
X25494750Y-64534419D01*
X25514962Y-64541651D01*
X25534368Y-64550830D01*
X25552781Y-64561866D01*
X25570024Y-64574654D01*
X25585930Y-64589070D01*
X25600346Y-64604976D01*
X25613134Y-64622219D01*
X25624170Y-64640632D01*
X25633349Y-64660038D01*
X25640581Y-64680250D01*
X25645797Y-64701074D01*
X25648947Y-64722309D01*
X25650000Y-64743750D01*
X25650000Y-65256250D01*
X25648947Y-65277691D01*
X25645797Y-65298926D01*
X25640581Y-65319750D01*
X25633349Y-65339962D01*
X25624170Y-65359368D01*
X25613134Y-65377781D01*
X25600346Y-65395024D01*
X25585930Y-65410930D01*
X25570024Y-65425346D01*
X25552781Y-65438134D01*
X25534368Y-65449170D01*
X25514962Y-65458349D01*
X25494750Y-65465581D01*
X25473926Y-65470797D01*
X25452691Y-65473947D01*
X25431250Y-65475000D01*
X24993750Y-65475000D01*
X24972309Y-65473947D01*
X24951074Y-65470797D01*
X24930250Y-65465581D01*
X24910038Y-65458349D01*
X24890632Y-65449170D01*
X24872219Y-65438134D01*
X24854976Y-65425346D01*
X24839070Y-65410930D01*
X24824654Y-65395024D01*
X24811866Y-65377781D01*
X24800830Y-65359368D01*
X24791651Y-65339962D01*
X24784419Y-65319750D01*
X24779203Y-65298926D01*
X24776053Y-65277691D01*
X24775000Y-65256250D01*
X24775000Y-64743750D01*
X24776053Y-64722309D01*
X24779203Y-64701074D01*
X24784419Y-64680250D01*
X24791651Y-64660038D01*
X24800830Y-64640632D01*
X24811866Y-64622219D01*
X24824654Y-64604976D01*
X24839070Y-64589070D01*
X24854976Y-64574654D01*
X24872219Y-64561866D01*
X24890632Y-64550830D01*
X24910038Y-64541651D01*
X24930250Y-64534419D01*
X24951074Y-64529203D01*
X24972309Y-64526053D01*
X24993750Y-64525000D01*
X25431250Y-64525000D01*
X25452691Y-64526053D01*
X25452691Y-64526053D01*
G37*
D11*
X25212500Y-65000000D03*
D10*
G36*
X19027691Y-11526053D02*
G01*
X19048926Y-11529203D01*
X19069750Y-11534419D01*
X19089962Y-11541651D01*
X19109368Y-11550830D01*
X19127781Y-11561866D01*
X19145024Y-11574654D01*
X19160930Y-11589070D01*
X19175346Y-11604976D01*
X19188134Y-11622219D01*
X19199170Y-11640632D01*
X19208349Y-11660038D01*
X19215581Y-11680250D01*
X19220797Y-11701074D01*
X19223947Y-11722309D01*
X19225000Y-11743750D01*
X19225000Y-12256250D01*
X19223947Y-12277691D01*
X19220797Y-12298926D01*
X19215581Y-12319750D01*
X19208349Y-12339962D01*
X19199170Y-12359368D01*
X19188134Y-12377781D01*
X19175346Y-12395024D01*
X19160930Y-12410930D01*
X19145024Y-12425346D01*
X19127781Y-12438134D01*
X19109368Y-12449170D01*
X19089962Y-12458349D01*
X19069750Y-12465581D01*
X19048926Y-12470797D01*
X19027691Y-12473947D01*
X19006250Y-12475000D01*
X18568750Y-12475000D01*
X18547309Y-12473947D01*
X18526074Y-12470797D01*
X18505250Y-12465581D01*
X18485038Y-12458349D01*
X18465632Y-12449170D01*
X18447219Y-12438134D01*
X18429976Y-12425346D01*
X18414070Y-12410930D01*
X18399654Y-12395024D01*
X18386866Y-12377781D01*
X18375830Y-12359368D01*
X18366651Y-12339962D01*
X18359419Y-12319750D01*
X18354203Y-12298926D01*
X18351053Y-12277691D01*
X18350000Y-12256250D01*
X18350000Y-11743750D01*
X18351053Y-11722309D01*
X18354203Y-11701074D01*
X18359419Y-11680250D01*
X18366651Y-11660038D01*
X18375830Y-11640632D01*
X18386866Y-11622219D01*
X18399654Y-11604976D01*
X18414070Y-11589070D01*
X18429976Y-11574654D01*
X18447219Y-11561866D01*
X18465632Y-11550830D01*
X18485038Y-11541651D01*
X18505250Y-11534419D01*
X18526074Y-11529203D01*
X18547309Y-11526053D01*
X18568750Y-11525000D01*
X19006250Y-11525000D01*
X19027691Y-11526053D01*
X19027691Y-11526053D01*
G37*
D11*
X18787500Y-12000000D03*
D10*
G36*
X17452691Y-11526053D02*
G01*
X17473926Y-11529203D01*
X17494750Y-11534419D01*
X17514962Y-11541651D01*
X17534368Y-11550830D01*
X17552781Y-11561866D01*
X17570024Y-11574654D01*
X17585930Y-11589070D01*
X17600346Y-11604976D01*
X17613134Y-11622219D01*
X17624170Y-11640632D01*
X17633349Y-11660038D01*
X17640581Y-11680250D01*
X17645797Y-11701074D01*
X17648947Y-11722309D01*
X17650000Y-11743750D01*
X17650000Y-12256250D01*
X17648947Y-12277691D01*
X17645797Y-12298926D01*
X17640581Y-12319750D01*
X17633349Y-12339962D01*
X17624170Y-12359368D01*
X17613134Y-12377781D01*
X17600346Y-12395024D01*
X17585930Y-12410930D01*
X17570024Y-12425346D01*
X17552781Y-12438134D01*
X17534368Y-12449170D01*
X17514962Y-12458349D01*
X17494750Y-12465581D01*
X17473926Y-12470797D01*
X17452691Y-12473947D01*
X17431250Y-12475000D01*
X16993750Y-12475000D01*
X16972309Y-12473947D01*
X16951074Y-12470797D01*
X16930250Y-12465581D01*
X16910038Y-12458349D01*
X16890632Y-12449170D01*
X16872219Y-12438134D01*
X16854976Y-12425346D01*
X16839070Y-12410930D01*
X16824654Y-12395024D01*
X16811866Y-12377781D01*
X16800830Y-12359368D01*
X16791651Y-12339962D01*
X16784419Y-12319750D01*
X16779203Y-12298926D01*
X16776053Y-12277691D01*
X16775000Y-12256250D01*
X16775000Y-11743750D01*
X16776053Y-11722309D01*
X16779203Y-11701074D01*
X16784419Y-11680250D01*
X16791651Y-11660038D01*
X16800830Y-11640632D01*
X16811866Y-11622219D01*
X16824654Y-11604976D01*
X16839070Y-11589070D01*
X16854976Y-11574654D01*
X16872219Y-11561866D01*
X16890632Y-11550830D01*
X16910038Y-11541651D01*
X16930250Y-11534419D01*
X16951074Y-11529203D01*
X16972309Y-11526053D01*
X16993750Y-11525000D01*
X17431250Y-11525000D01*
X17452691Y-11526053D01*
X17452691Y-11526053D01*
G37*
D11*
X17212500Y-12000000D03*
D10*
G36*
X7177691Y-7076053D02*
G01*
X7198926Y-7079203D01*
X7219750Y-7084419D01*
X7239962Y-7091651D01*
X7259368Y-7100830D01*
X7277781Y-7111866D01*
X7295024Y-7124654D01*
X7310930Y-7139070D01*
X7325346Y-7154976D01*
X7338134Y-7172219D01*
X7349170Y-7190632D01*
X7358349Y-7210038D01*
X7365581Y-7230250D01*
X7370797Y-7251074D01*
X7373947Y-7272309D01*
X7375000Y-7293750D01*
X7375000Y-7731250D01*
X7373947Y-7752691D01*
X7370797Y-7773926D01*
X7365581Y-7794750D01*
X7358349Y-7814962D01*
X7349170Y-7834368D01*
X7338134Y-7852781D01*
X7325346Y-7870024D01*
X7310930Y-7885930D01*
X7295024Y-7900346D01*
X7277781Y-7913134D01*
X7259368Y-7924170D01*
X7239962Y-7933349D01*
X7219750Y-7940581D01*
X7198926Y-7945797D01*
X7177691Y-7948947D01*
X7156250Y-7950000D01*
X6643750Y-7950000D01*
X6622309Y-7948947D01*
X6601074Y-7945797D01*
X6580250Y-7940581D01*
X6560038Y-7933349D01*
X6540632Y-7924170D01*
X6522219Y-7913134D01*
X6504976Y-7900346D01*
X6489070Y-7885930D01*
X6474654Y-7870024D01*
X6461866Y-7852781D01*
X6450830Y-7834368D01*
X6441651Y-7814962D01*
X6434419Y-7794750D01*
X6429203Y-7773926D01*
X6426053Y-7752691D01*
X6425000Y-7731250D01*
X6425000Y-7293750D01*
X6426053Y-7272309D01*
X6429203Y-7251074D01*
X6434419Y-7230250D01*
X6441651Y-7210038D01*
X6450830Y-7190632D01*
X6461866Y-7172219D01*
X6474654Y-7154976D01*
X6489070Y-7139070D01*
X6504976Y-7124654D01*
X6522219Y-7111866D01*
X6540632Y-7100830D01*
X6560038Y-7091651D01*
X6580250Y-7084419D01*
X6601074Y-7079203D01*
X6622309Y-7076053D01*
X6643750Y-7075000D01*
X7156250Y-7075000D01*
X7177691Y-7076053D01*
X7177691Y-7076053D01*
G37*
D11*
X6900000Y-7512500D03*
D10*
G36*
X7177691Y-8651053D02*
G01*
X7198926Y-8654203D01*
X7219750Y-8659419D01*
X7239962Y-8666651D01*
X7259368Y-8675830D01*
X7277781Y-8686866D01*
X7295024Y-8699654D01*
X7310930Y-8714070D01*
X7325346Y-8729976D01*
X7338134Y-8747219D01*
X7349170Y-8765632D01*
X7358349Y-8785038D01*
X7365581Y-8805250D01*
X7370797Y-8826074D01*
X7373947Y-8847309D01*
X7375000Y-8868750D01*
X7375000Y-9306250D01*
X7373947Y-9327691D01*
X7370797Y-9348926D01*
X7365581Y-9369750D01*
X7358349Y-9389962D01*
X7349170Y-9409368D01*
X7338134Y-9427781D01*
X7325346Y-9445024D01*
X7310930Y-9460930D01*
X7295024Y-9475346D01*
X7277781Y-9488134D01*
X7259368Y-9499170D01*
X7239962Y-9508349D01*
X7219750Y-9515581D01*
X7198926Y-9520797D01*
X7177691Y-9523947D01*
X7156250Y-9525000D01*
X6643750Y-9525000D01*
X6622309Y-9523947D01*
X6601074Y-9520797D01*
X6580250Y-9515581D01*
X6560038Y-9508349D01*
X6540632Y-9499170D01*
X6522219Y-9488134D01*
X6504976Y-9475346D01*
X6489070Y-9460930D01*
X6474654Y-9445024D01*
X6461866Y-9427781D01*
X6450830Y-9409368D01*
X6441651Y-9389962D01*
X6434419Y-9369750D01*
X6429203Y-9348926D01*
X6426053Y-9327691D01*
X6425000Y-9306250D01*
X6425000Y-8868750D01*
X6426053Y-8847309D01*
X6429203Y-8826074D01*
X6434419Y-8805250D01*
X6441651Y-8785038D01*
X6450830Y-8765632D01*
X6461866Y-8747219D01*
X6474654Y-8729976D01*
X6489070Y-8714070D01*
X6504976Y-8699654D01*
X6522219Y-8686866D01*
X6540632Y-8675830D01*
X6560038Y-8666651D01*
X6580250Y-8659419D01*
X6601074Y-8654203D01*
X6622309Y-8651053D01*
X6643750Y-8650000D01*
X7156250Y-8650000D01*
X7177691Y-8651053D01*
X7177691Y-8651053D01*
G37*
D11*
X6900000Y-9087500D03*
D10*
G36*
X8507351Y-42600361D02*
G01*
X8514632Y-42601441D01*
X8521771Y-42603229D01*
X8528701Y-42605709D01*
X8535355Y-42608856D01*
X8541668Y-42612640D01*
X8547579Y-42617024D01*
X8553033Y-42621967D01*
X8557976Y-42627421D01*
X8562360Y-42633332D01*
X8566144Y-42639645D01*
X8569291Y-42646299D01*
X8571771Y-42653229D01*
X8573559Y-42660368D01*
X8574639Y-42667649D01*
X8575000Y-42675000D01*
X8575000Y-42825000D01*
X8574639Y-42832351D01*
X8573559Y-42839632D01*
X8571771Y-42846771D01*
X8569291Y-42853701D01*
X8566144Y-42860355D01*
X8562360Y-42866668D01*
X8557976Y-42872579D01*
X8553033Y-42878033D01*
X8547579Y-42882976D01*
X8541668Y-42887360D01*
X8535355Y-42891144D01*
X8528701Y-42894291D01*
X8521771Y-42896771D01*
X8514632Y-42898559D01*
X8507351Y-42899639D01*
X8500000Y-42900000D01*
X7175000Y-42900000D01*
X7167649Y-42899639D01*
X7160368Y-42898559D01*
X7153229Y-42896771D01*
X7146299Y-42894291D01*
X7139645Y-42891144D01*
X7133332Y-42887360D01*
X7127421Y-42882976D01*
X7121967Y-42878033D01*
X7117024Y-42872579D01*
X7112640Y-42866668D01*
X7108856Y-42860355D01*
X7105709Y-42853701D01*
X7103229Y-42846771D01*
X7101441Y-42839632D01*
X7100361Y-42832351D01*
X7100000Y-42825000D01*
X7100000Y-42675000D01*
X7100361Y-42667649D01*
X7101441Y-42660368D01*
X7103229Y-42653229D01*
X7105709Y-42646299D01*
X7108856Y-42639645D01*
X7112640Y-42633332D01*
X7117024Y-42627421D01*
X7121967Y-42621967D01*
X7127421Y-42617024D01*
X7133332Y-42612640D01*
X7139645Y-42608856D01*
X7146299Y-42605709D01*
X7153229Y-42603229D01*
X7160368Y-42601441D01*
X7167649Y-42600361D01*
X7175000Y-42600000D01*
X8500000Y-42600000D01*
X8507351Y-42600361D01*
X8507351Y-42600361D01*
G37*
D15*
X7837500Y-42750000D03*
D10*
G36*
X8507351Y-42100361D02*
G01*
X8514632Y-42101441D01*
X8521771Y-42103229D01*
X8528701Y-42105709D01*
X8535355Y-42108856D01*
X8541668Y-42112640D01*
X8547579Y-42117024D01*
X8553033Y-42121967D01*
X8557976Y-42127421D01*
X8562360Y-42133332D01*
X8566144Y-42139645D01*
X8569291Y-42146299D01*
X8571771Y-42153229D01*
X8573559Y-42160368D01*
X8574639Y-42167649D01*
X8575000Y-42175000D01*
X8575000Y-42325000D01*
X8574639Y-42332351D01*
X8573559Y-42339632D01*
X8571771Y-42346771D01*
X8569291Y-42353701D01*
X8566144Y-42360355D01*
X8562360Y-42366668D01*
X8557976Y-42372579D01*
X8553033Y-42378033D01*
X8547579Y-42382976D01*
X8541668Y-42387360D01*
X8535355Y-42391144D01*
X8528701Y-42394291D01*
X8521771Y-42396771D01*
X8514632Y-42398559D01*
X8507351Y-42399639D01*
X8500000Y-42400000D01*
X7175000Y-42400000D01*
X7167649Y-42399639D01*
X7160368Y-42398559D01*
X7153229Y-42396771D01*
X7146299Y-42394291D01*
X7139645Y-42391144D01*
X7133332Y-42387360D01*
X7127421Y-42382976D01*
X7121967Y-42378033D01*
X7117024Y-42372579D01*
X7112640Y-42366668D01*
X7108856Y-42360355D01*
X7105709Y-42353701D01*
X7103229Y-42346771D01*
X7101441Y-42339632D01*
X7100361Y-42332351D01*
X7100000Y-42325000D01*
X7100000Y-42175000D01*
X7100361Y-42167649D01*
X7101441Y-42160368D01*
X7103229Y-42153229D01*
X7105709Y-42146299D01*
X7108856Y-42139645D01*
X7112640Y-42133332D01*
X7117024Y-42127421D01*
X7121967Y-42121967D01*
X7127421Y-42117024D01*
X7133332Y-42112640D01*
X7139645Y-42108856D01*
X7146299Y-42105709D01*
X7153229Y-42103229D01*
X7160368Y-42101441D01*
X7167649Y-42100361D01*
X7175000Y-42100000D01*
X8500000Y-42100000D01*
X8507351Y-42100361D01*
X8507351Y-42100361D01*
G37*
D15*
X7837500Y-42250000D03*
D10*
G36*
X8507351Y-41600361D02*
G01*
X8514632Y-41601441D01*
X8521771Y-41603229D01*
X8528701Y-41605709D01*
X8535355Y-41608856D01*
X8541668Y-41612640D01*
X8547579Y-41617024D01*
X8553033Y-41621967D01*
X8557976Y-41627421D01*
X8562360Y-41633332D01*
X8566144Y-41639645D01*
X8569291Y-41646299D01*
X8571771Y-41653229D01*
X8573559Y-41660368D01*
X8574639Y-41667649D01*
X8575000Y-41675000D01*
X8575000Y-41825000D01*
X8574639Y-41832351D01*
X8573559Y-41839632D01*
X8571771Y-41846771D01*
X8569291Y-41853701D01*
X8566144Y-41860355D01*
X8562360Y-41866668D01*
X8557976Y-41872579D01*
X8553033Y-41878033D01*
X8547579Y-41882976D01*
X8541668Y-41887360D01*
X8535355Y-41891144D01*
X8528701Y-41894291D01*
X8521771Y-41896771D01*
X8514632Y-41898559D01*
X8507351Y-41899639D01*
X8500000Y-41900000D01*
X7175000Y-41900000D01*
X7167649Y-41899639D01*
X7160368Y-41898559D01*
X7153229Y-41896771D01*
X7146299Y-41894291D01*
X7139645Y-41891144D01*
X7133332Y-41887360D01*
X7127421Y-41882976D01*
X7121967Y-41878033D01*
X7117024Y-41872579D01*
X7112640Y-41866668D01*
X7108856Y-41860355D01*
X7105709Y-41853701D01*
X7103229Y-41846771D01*
X7101441Y-41839632D01*
X7100361Y-41832351D01*
X7100000Y-41825000D01*
X7100000Y-41675000D01*
X7100361Y-41667649D01*
X7101441Y-41660368D01*
X7103229Y-41653229D01*
X7105709Y-41646299D01*
X7108856Y-41639645D01*
X7112640Y-41633332D01*
X7117024Y-41627421D01*
X7121967Y-41621967D01*
X7127421Y-41617024D01*
X7133332Y-41612640D01*
X7139645Y-41608856D01*
X7146299Y-41605709D01*
X7153229Y-41603229D01*
X7160368Y-41601441D01*
X7167649Y-41600361D01*
X7175000Y-41600000D01*
X8500000Y-41600000D01*
X8507351Y-41600361D01*
X8507351Y-41600361D01*
G37*
D15*
X7837500Y-41750000D03*
D10*
G36*
X8507351Y-41100361D02*
G01*
X8514632Y-41101441D01*
X8521771Y-41103229D01*
X8528701Y-41105709D01*
X8535355Y-41108856D01*
X8541668Y-41112640D01*
X8547579Y-41117024D01*
X8553033Y-41121967D01*
X8557976Y-41127421D01*
X8562360Y-41133332D01*
X8566144Y-41139645D01*
X8569291Y-41146299D01*
X8571771Y-41153229D01*
X8573559Y-41160368D01*
X8574639Y-41167649D01*
X8575000Y-41175000D01*
X8575000Y-41325000D01*
X8574639Y-41332351D01*
X8573559Y-41339632D01*
X8571771Y-41346771D01*
X8569291Y-41353701D01*
X8566144Y-41360355D01*
X8562360Y-41366668D01*
X8557976Y-41372579D01*
X8553033Y-41378033D01*
X8547579Y-41382976D01*
X8541668Y-41387360D01*
X8535355Y-41391144D01*
X8528701Y-41394291D01*
X8521771Y-41396771D01*
X8514632Y-41398559D01*
X8507351Y-41399639D01*
X8500000Y-41400000D01*
X7175000Y-41400000D01*
X7167649Y-41399639D01*
X7160368Y-41398559D01*
X7153229Y-41396771D01*
X7146299Y-41394291D01*
X7139645Y-41391144D01*
X7133332Y-41387360D01*
X7127421Y-41382976D01*
X7121967Y-41378033D01*
X7117024Y-41372579D01*
X7112640Y-41366668D01*
X7108856Y-41360355D01*
X7105709Y-41353701D01*
X7103229Y-41346771D01*
X7101441Y-41339632D01*
X7100361Y-41332351D01*
X7100000Y-41325000D01*
X7100000Y-41175000D01*
X7100361Y-41167649D01*
X7101441Y-41160368D01*
X7103229Y-41153229D01*
X7105709Y-41146299D01*
X7108856Y-41139645D01*
X7112640Y-41133332D01*
X7117024Y-41127421D01*
X7121967Y-41121967D01*
X7127421Y-41117024D01*
X7133332Y-41112640D01*
X7139645Y-41108856D01*
X7146299Y-41105709D01*
X7153229Y-41103229D01*
X7160368Y-41101441D01*
X7167649Y-41100361D01*
X7175000Y-41100000D01*
X8500000Y-41100000D01*
X8507351Y-41100361D01*
X8507351Y-41100361D01*
G37*
D15*
X7837500Y-41250000D03*
D10*
G36*
X8507351Y-40600361D02*
G01*
X8514632Y-40601441D01*
X8521771Y-40603229D01*
X8528701Y-40605709D01*
X8535355Y-40608856D01*
X8541668Y-40612640D01*
X8547579Y-40617024D01*
X8553033Y-40621967D01*
X8557976Y-40627421D01*
X8562360Y-40633332D01*
X8566144Y-40639645D01*
X8569291Y-40646299D01*
X8571771Y-40653229D01*
X8573559Y-40660368D01*
X8574639Y-40667649D01*
X8575000Y-40675000D01*
X8575000Y-40825000D01*
X8574639Y-40832351D01*
X8573559Y-40839632D01*
X8571771Y-40846771D01*
X8569291Y-40853701D01*
X8566144Y-40860355D01*
X8562360Y-40866668D01*
X8557976Y-40872579D01*
X8553033Y-40878033D01*
X8547579Y-40882976D01*
X8541668Y-40887360D01*
X8535355Y-40891144D01*
X8528701Y-40894291D01*
X8521771Y-40896771D01*
X8514632Y-40898559D01*
X8507351Y-40899639D01*
X8500000Y-40900000D01*
X7175000Y-40900000D01*
X7167649Y-40899639D01*
X7160368Y-40898559D01*
X7153229Y-40896771D01*
X7146299Y-40894291D01*
X7139645Y-40891144D01*
X7133332Y-40887360D01*
X7127421Y-40882976D01*
X7121967Y-40878033D01*
X7117024Y-40872579D01*
X7112640Y-40866668D01*
X7108856Y-40860355D01*
X7105709Y-40853701D01*
X7103229Y-40846771D01*
X7101441Y-40839632D01*
X7100361Y-40832351D01*
X7100000Y-40825000D01*
X7100000Y-40675000D01*
X7100361Y-40667649D01*
X7101441Y-40660368D01*
X7103229Y-40653229D01*
X7105709Y-40646299D01*
X7108856Y-40639645D01*
X7112640Y-40633332D01*
X7117024Y-40627421D01*
X7121967Y-40621967D01*
X7127421Y-40617024D01*
X7133332Y-40612640D01*
X7139645Y-40608856D01*
X7146299Y-40605709D01*
X7153229Y-40603229D01*
X7160368Y-40601441D01*
X7167649Y-40600361D01*
X7175000Y-40600000D01*
X8500000Y-40600000D01*
X8507351Y-40600361D01*
X8507351Y-40600361D01*
G37*
D15*
X7837500Y-40750000D03*
D10*
G36*
X8507351Y-40100361D02*
G01*
X8514632Y-40101441D01*
X8521771Y-40103229D01*
X8528701Y-40105709D01*
X8535355Y-40108856D01*
X8541668Y-40112640D01*
X8547579Y-40117024D01*
X8553033Y-40121967D01*
X8557976Y-40127421D01*
X8562360Y-40133332D01*
X8566144Y-40139645D01*
X8569291Y-40146299D01*
X8571771Y-40153229D01*
X8573559Y-40160368D01*
X8574639Y-40167649D01*
X8575000Y-40175000D01*
X8575000Y-40325000D01*
X8574639Y-40332351D01*
X8573559Y-40339632D01*
X8571771Y-40346771D01*
X8569291Y-40353701D01*
X8566144Y-40360355D01*
X8562360Y-40366668D01*
X8557976Y-40372579D01*
X8553033Y-40378033D01*
X8547579Y-40382976D01*
X8541668Y-40387360D01*
X8535355Y-40391144D01*
X8528701Y-40394291D01*
X8521771Y-40396771D01*
X8514632Y-40398559D01*
X8507351Y-40399639D01*
X8500000Y-40400000D01*
X7175000Y-40400000D01*
X7167649Y-40399639D01*
X7160368Y-40398559D01*
X7153229Y-40396771D01*
X7146299Y-40394291D01*
X7139645Y-40391144D01*
X7133332Y-40387360D01*
X7127421Y-40382976D01*
X7121967Y-40378033D01*
X7117024Y-40372579D01*
X7112640Y-40366668D01*
X7108856Y-40360355D01*
X7105709Y-40353701D01*
X7103229Y-40346771D01*
X7101441Y-40339632D01*
X7100361Y-40332351D01*
X7100000Y-40325000D01*
X7100000Y-40175000D01*
X7100361Y-40167649D01*
X7101441Y-40160368D01*
X7103229Y-40153229D01*
X7105709Y-40146299D01*
X7108856Y-40139645D01*
X7112640Y-40133332D01*
X7117024Y-40127421D01*
X7121967Y-40121967D01*
X7127421Y-40117024D01*
X7133332Y-40112640D01*
X7139645Y-40108856D01*
X7146299Y-40105709D01*
X7153229Y-40103229D01*
X7160368Y-40101441D01*
X7167649Y-40100361D01*
X7175000Y-40100000D01*
X8500000Y-40100000D01*
X8507351Y-40100361D01*
X8507351Y-40100361D01*
G37*
D15*
X7837500Y-40250000D03*
D10*
G36*
X8507351Y-39600361D02*
G01*
X8514632Y-39601441D01*
X8521771Y-39603229D01*
X8528701Y-39605709D01*
X8535355Y-39608856D01*
X8541668Y-39612640D01*
X8547579Y-39617024D01*
X8553033Y-39621967D01*
X8557976Y-39627421D01*
X8562360Y-39633332D01*
X8566144Y-39639645D01*
X8569291Y-39646299D01*
X8571771Y-39653229D01*
X8573559Y-39660368D01*
X8574639Y-39667649D01*
X8575000Y-39675000D01*
X8575000Y-39825000D01*
X8574639Y-39832351D01*
X8573559Y-39839632D01*
X8571771Y-39846771D01*
X8569291Y-39853701D01*
X8566144Y-39860355D01*
X8562360Y-39866668D01*
X8557976Y-39872579D01*
X8553033Y-39878033D01*
X8547579Y-39882976D01*
X8541668Y-39887360D01*
X8535355Y-39891144D01*
X8528701Y-39894291D01*
X8521771Y-39896771D01*
X8514632Y-39898559D01*
X8507351Y-39899639D01*
X8500000Y-39900000D01*
X7175000Y-39900000D01*
X7167649Y-39899639D01*
X7160368Y-39898559D01*
X7153229Y-39896771D01*
X7146299Y-39894291D01*
X7139645Y-39891144D01*
X7133332Y-39887360D01*
X7127421Y-39882976D01*
X7121967Y-39878033D01*
X7117024Y-39872579D01*
X7112640Y-39866668D01*
X7108856Y-39860355D01*
X7105709Y-39853701D01*
X7103229Y-39846771D01*
X7101441Y-39839632D01*
X7100361Y-39832351D01*
X7100000Y-39825000D01*
X7100000Y-39675000D01*
X7100361Y-39667649D01*
X7101441Y-39660368D01*
X7103229Y-39653229D01*
X7105709Y-39646299D01*
X7108856Y-39639645D01*
X7112640Y-39633332D01*
X7117024Y-39627421D01*
X7121967Y-39621967D01*
X7127421Y-39617024D01*
X7133332Y-39612640D01*
X7139645Y-39608856D01*
X7146299Y-39605709D01*
X7153229Y-39603229D01*
X7160368Y-39601441D01*
X7167649Y-39600361D01*
X7175000Y-39600000D01*
X8500000Y-39600000D01*
X8507351Y-39600361D01*
X8507351Y-39600361D01*
G37*
D15*
X7837500Y-39750000D03*
D10*
G36*
X8507351Y-39100361D02*
G01*
X8514632Y-39101441D01*
X8521771Y-39103229D01*
X8528701Y-39105709D01*
X8535355Y-39108856D01*
X8541668Y-39112640D01*
X8547579Y-39117024D01*
X8553033Y-39121967D01*
X8557976Y-39127421D01*
X8562360Y-39133332D01*
X8566144Y-39139645D01*
X8569291Y-39146299D01*
X8571771Y-39153229D01*
X8573559Y-39160368D01*
X8574639Y-39167649D01*
X8575000Y-39175000D01*
X8575000Y-39325000D01*
X8574639Y-39332351D01*
X8573559Y-39339632D01*
X8571771Y-39346771D01*
X8569291Y-39353701D01*
X8566144Y-39360355D01*
X8562360Y-39366668D01*
X8557976Y-39372579D01*
X8553033Y-39378033D01*
X8547579Y-39382976D01*
X8541668Y-39387360D01*
X8535355Y-39391144D01*
X8528701Y-39394291D01*
X8521771Y-39396771D01*
X8514632Y-39398559D01*
X8507351Y-39399639D01*
X8500000Y-39400000D01*
X7175000Y-39400000D01*
X7167649Y-39399639D01*
X7160368Y-39398559D01*
X7153229Y-39396771D01*
X7146299Y-39394291D01*
X7139645Y-39391144D01*
X7133332Y-39387360D01*
X7127421Y-39382976D01*
X7121967Y-39378033D01*
X7117024Y-39372579D01*
X7112640Y-39366668D01*
X7108856Y-39360355D01*
X7105709Y-39353701D01*
X7103229Y-39346771D01*
X7101441Y-39339632D01*
X7100361Y-39332351D01*
X7100000Y-39325000D01*
X7100000Y-39175000D01*
X7100361Y-39167649D01*
X7101441Y-39160368D01*
X7103229Y-39153229D01*
X7105709Y-39146299D01*
X7108856Y-39139645D01*
X7112640Y-39133332D01*
X7117024Y-39127421D01*
X7121967Y-39121967D01*
X7127421Y-39117024D01*
X7133332Y-39112640D01*
X7139645Y-39108856D01*
X7146299Y-39105709D01*
X7153229Y-39103229D01*
X7160368Y-39101441D01*
X7167649Y-39100361D01*
X7175000Y-39100000D01*
X8500000Y-39100000D01*
X8507351Y-39100361D01*
X8507351Y-39100361D01*
G37*
D15*
X7837500Y-39250000D03*
D10*
G36*
X8507351Y-38600361D02*
G01*
X8514632Y-38601441D01*
X8521771Y-38603229D01*
X8528701Y-38605709D01*
X8535355Y-38608856D01*
X8541668Y-38612640D01*
X8547579Y-38617024D01*
X8553033Y-38621967D01*
X8557976Y-38627421D01*
X8562360Y-38633332D01*
X8566144Y-38639645D01*
X8569291Y-38646299D01*
X8571771Y-38653229D01*
X8573559Y-38660368D01*
X8574639Y-38667649D01*
X8575000Y-38675000D01*
X8575000Y-38825000D01*
X8574639Y-38832351D01*
X8573559Y-38839632D01*
X8571771Y-38846771D01*
X8569291Y-38853701D01*
X8566144Y-38860355D01*
X8562360Y-38866668D01*
X8557976Y-38872579D01*
X8553033Y-38878033D01*
X8547579Y-38882976D01*
X8541668Y-38887360D01*
X8535355Y-38891144D01*
X8528701Y-38894291D01*
X8521771Y-38896771D01*
X8514632Y-38898559D01*
X8507351Y-38899639D01*
X8500000Y-38900000D01*
X7175000Y-38900000D01*
X7167649Y-38899639D01*
X7160368Y-38898559D01*
X7153229Y-38896771D01*
X7146299Y-38894291D01*
X7139645Y-38891144D01*
X7133332Y-38887360D01*
X7127421Y-38882976D01*
X7121967Y-38878033D01*
X7117024Y-38872579D01*
X7112640Y-38866668D01*
X7108856Y-38860355D01*
X7105709Y-38853701D01*
X7103229Y-38846771D01*
X7101441Y-38839632D01*
X7100361Y-38832351D01*
X7100000Y-38825000D01*
X7100000Y-38675000D01*
X7100361Y-38667649D01*
X7101441Y-38660368D01*
X7103229Y-38653229D01*
X7105709Y-38646299D01*
X7108856Y-38639645D01*
X7112640Y-38633332D01*
X7117024Y-38627421D01*
X7121967Y-38621967D01*
X7127421Y-38617024D01*
X7133332Y-38612640D01*
X7139645Y-38608856D01*
X7146299Y-38605709D01*
X7153229Y-38603229D01*
X7160368Y-38601441D01*
X7167649Y-38600361D01*
X7175000Y-38600000D01*
X8500000Y-38600000D01*
X8507351Y-38600361D01*
X8507351Y-38600361D01*
G37*
D15*
X7837500Y-38750000D03*
D10*
G36*
X8507351Y-38100361D02*
G01*
X8514632Y-38101441D01*
X8521771Y-38103229D01*
X8528701Y-38105709D01*
X8535355Y-38108856D01*
X8541668Y-38112640D01*
X8547579Y-38117024D01*
X8553033Y-38121967D01*
X8557976Y-38127421D01*
X8562360Y-38133332D01*
X8566144Y-38139645D01*
X8569291Y-38146299D01*
X8571771Y-38153229D01*
X8573559Y-38160368D01*
X8574639Y-38167649D01*
X8575000Y-38175000D01*
X8575000Y-38325000D01*
X8574639Y-38332351D01*
X8573559Y-38339632D01*
X8571771Y-38346771D01*
X8569291Y-38353701D01*
X8566144Y-38360355D01*
X8562360Y-38366668D01*
X8557976Y-38372579D01*
X8553033Y-38378033D01*
X8547579Y-38382976D01*
X8541668Y-38387360D01*
X8535355Y-38391144D01*
X8528701Y-38394291D01*
X8521771Y-38396771D01*
X8514632Y-38398559D01*
X8507351Y-38399639D01*
X8500000Y-38400000D01*
X7175000Y-38400000D01*
X7167649Y-38399639D01*
X7160368Y-38398559D01*
X7153229Y-38396771D01*
X7146299Y-38394291D01*
X7139645Y-38391144D01*
X7133332Y-38387360D01*
X7127421Y-38382976D01*
X7121967Y-38378033D01*
X7117024Y-38372579D01*
X7112640Y-38366668D01*
X7108856Y-38360355D01*
X7105709Y-38353701D01*
X7103229Y-38346771D01*
X7101441Y-38339632D01*
X7100361Y-38332351D01*
X7100000Y-38325000D01*
X7100000Y-38175000D01*
X7100361Y-38167649D01*
X7101441Y-38160368D01*
X7103229Y-38153229D01*
X7105709Y-38146299D01*
X7108856Y-38139645D01*
X7112640Y-38133332D01*
X7117024Y-38127421D01*
X7121967Y-38121967D01*
X7127421Y-38117024D01*
X7133332Y-38112640D01*
X7139645Y-38108856D01*
X7146299Y-38105709D01*
X7153229Y-38103229D01*
X7160368Y-38101441D01*
X7167649Y-38100361D01*
X7175000Y-38100000D01*
X8500000Y-38100000D01*
X8507351Y-38100361D01*
X8507351Y-38100361D01*
G37*
D15*
X7837500Y-38250000D03*
D10*
G36*
X8507351Y-37600361D02*
G01*
X8514632Y-37601441D01*
X8521771Y-37603229D01*
X8528701Y-37605709D01*
X8535355Y-37608856D01*
X8541668Y-37612640D01*
X8547579Y-37617024D01*
X8553033Y-37621967D01*
X8557976Y-37627421D01*
X8562360Y-37633332D01*
X8566144Y-37639645D01*
X8569291Y-37646299D01*
X8571771Y-37653229D01*
X8573559Y-37660368D01*
X8574639Y-37667649D01*
X8575000Y-37675000D01*
X8575000Y-37825000D01*
X8574639Y-37832351D01*
X8573559Y-37839632D01*
X8571771Y-37846771D01*
X8569291Y-37853701D01*
X8566144Y-37860355D01*
X8562360Y-37866668D01*
X8557976Y-37872579D01*
X8553033Y-37878033D01*
X8547579Y-37882976D01*
X8541668Y-37887360D01*
X8535355Y-37891144D01*
X8528701Y-37894291D01*
X8521771Y-37896771D01*
X8514632Y-37898559D01*
X8507351Y-37899639D01*
X8500000Y-37900000D01*
X7175000Y-37900000D01*
X7167649Y-37899639D01*
X7160368Y-37898559D01*
X7153229Y-37896771D01*
X7146299Y-37894291D01*
X7139645Y-37891144D01*
X7133332Y-37887360D01*
X7127421Y-37882976D01*
X7121967Y-37878033D01*
X7117024Y-37872579D01*
X7112640Y-37866668D01*
X7108856Y-37860355D01*
X7105709Y-37853701D01*
X7103229Y-37846771D01*
X7101441Y-37839632D01*
X7100361Y-37832351D01*
X7100000Y-37825000D01*
X7100000Y-37675000D01*
X7100361Y-37667649D01*
X7101441Y-37660368D01*
X7103229Y-37653229D01*
X7105709Y-37646299D01*
X7108856Y-37639645D01*
X7112640Y-37633332D01*
X7117024Y-37627421D01*
X7121967Y-37621967D01*
X7127421Y-37617024D01*
X7133332Y-37612640D01*
X7139645Y-37608856D01*
X7146299Y-37605709D01*
X7153229Y-37603229D01*
X7160368Y-37601441D01*
X7167649Y-37600361D01*
X7175000Y-37600000D01*
X8500000Y-37600000D01*
X8507351Y-37600361D01*
X8507351Y-37600361D01*
G37*
D15*
X7837500Y-37750000D03*
D10*
G36*
X8507351Y-37100361D02*
G01*
X8514632Y-37101441D01*
X8521771Y-37103229D01*
X8528701Y-37105709D01*
X8535355Y-37108856D01*
X8541668Y-37112640D01*
X8547579Y-37117024D01*
X8553033Y-37121967D01*
X8557976Y-37127421D01*
X8562360Y-37133332D01*
X8566144Y-37139645D01*
X8569291Y-37146299D01*
X8571771Y-37153229D01*
X8573559Y-37160368D01*
X8574639Y-37167649D01*
X8575000Y-37175000D01*
X8575000Y-37325000D01*
X8574639Y-37332351D01*
X8573559Y-37339632D01*
X8571771Y-37346771D01*
X8569291Y-37353701D01*
X8566144Y-37360355D01*
X8562360Y-37366668D01*
X8557976Y-37372579D01*
X8553033Y-37378033D01*
X8547579Y-37382976D01*
X8541668Y-37387360D01*
X8535355Y-37391144D01*
X8528701Y-37394291D01*
X8521771Y-37396771D01*
X8514632Y-37398559D01*
X8507351Y-37399639D01*
X8500000Y-37400000D01*
X7175000Y-37400000D01*
X7167649Y-37399639D01*
X7160368Y-37398559D01*
X7153229Y-37396771D01*
X7146299Y-37394291D01*
X7139645Y-37391144D01*
X7133332Y-37387360D01*
X7127421Y-37382976D01*
X7121967Y-37378033D01*
X7117024Y-37372579D01*
X7112640Y-37366668D01*
X7108856Y-37360355D01*
X7105709Y-37353701D01*
X7103229Y-37346771D01*
X7101441Y-37339632D01*
X7100361Y-37332351D01*
X7100000Y-37325000D01*
X7100000Y-37175000D01*
X7100361Y-37167649D01*
X7101441Y-37160368D01*
X7103229Y-37153229D01*
X7105709Y-37146299D01*
X7108856Y-37139645D01*
X7112640Y-37133332D01*
X7117024Y-37127421D01*
X7121967Y-37121967D01*
X7127421Y-37117024D01*
X7133332Y-37112640D01*
X7139645Y-37108856D01*
X7146299Y-37105709D01*
X7153229Y-37103229D01*
X7160368Y-37101441D01*
X7167649Y-37100361D01*
X7175000Y-37100000D01*
X8500000Y-37100000D01*
X8507351Y-37100361D01*
X8507351Y-37100361D01*
G37*
D15*
X7837500Y-37250000D03*
D10*
G36*
X9332351Y-35100361D02*
G01*
X9339632Y-35101441D01*
X9346771Y-35103229D01*
X9353701Y-35105709D01*
X9360355Y-35108856D01*
X9366668Y-35112640D01*
X9372579Y-35117024D01*
X9378033Y-35121967D01*
X9382976Y-35127421D01*
X9387360Y-35133332D01*
X9391144Y-35139645D01*
X9394291Y-35146299D01*
X9396771Y-35153229D01*
X9398559Y-35160368D01*
X9399639Y-35167649D01*
X9400000Y-35175000D01*
X9400000Y-36500000D01*
X9399639Y-36507351D01*
X9398559Y-36514632D01*
X9396771Y-36521771D01*
X9394291Y-36528701D01*
X9391144Y-36535355D01*
X9387360Y-36541668D01*
X9382976Y-36547579D01*
X9378033Y-36553033D01*
X9372579Y-36557976D01*
X9366668Y-36562360D01*
X9360355Y-36566144D01*
X9353701Y-36569291D01*
X9346771Y-36571771D01*
X9339632Y-36573559D01*
X9332351Y-36574639D01*
X9325000Y-36575000D01*
X9175000Y-36575000D01*
X9167649Y-36574639D01*
X9160368Y-36573559D01*
X9153229Y-36571771D01*
X9146299Y-36569291D01*
X9139645Y-36566144D01*
X9133332Y-36562360D01*
X9127421Y-36557976D01*
X9121967Y-36553033D01*
X9117024Y-36547579D01*
X9112640Y-36541668D01*
X9108856Y-36535355D01*
X9105709Y-36528701D01*
X9103229Y-36521771D01*
X9101441Y-36514632D01*
X9100361Y-36507351D01*
X9100000Y-36500000D01*
X9100000Y-35175000D01*
X9100361Y-35167649D01*
X9101441Y-35160368D01*
X9103229Y-35153229D01*
X9105709Y-35146299D01*
X9108856Y-35139645D01*
X9112640Y-35133332D01*
X9117024Y-35127421D01*
X9121967Y-35121967D01*
X9127421Y-35117024D01*
X9133332Y-35112640D01*
X9139645Y-35108856D01*
X9146299Y-35105709D01*
X9153229Y-35103229D01*
X9160368Y-35101441D01*
X9167649Y-35100361D01*
X9175000Y-35100000D01*
X9325000Y-35100000D01*
X9332351Y-35100361D01*
X9332351Y-35100361D01*
G37*
D15*
X9250000Y-35837500D03*
D10*
G36*
X9832351Y-35100361D02*
G01*
X9839632Y-35101441D01*
X9846771Y-35103229D01*
X9853701Y-35105709D01*
X9860355Y-35108856D01*
X9866668Y-35112640D01*
X9872579Y-35117024D01*
X9878033Y-35121967D01*
X9882976Y-35127421D01*
X9887360Y-35133332D01*
X9891144Y-35139645D01*
X9894291Y-35146299D01*
X9896771Y-35153229D01*
X9898559Y-35160368D01*
X9899639Y-35167649D01*
X9900000Y-35175000D01*
X9900000Y-36500000D01*
X9899639Y-36507351D01*
X9898559Y-36514632D01*
X9896771Y-36521771D01*
X9894291Y-36528701D01*
X9891144Y-36535355D01*
X9887360Y-36541668D01*
X9882976Y-36547579D01*
X9878033Y-36553033D01*
X9872579Y-36557976D01*
X9866668Y-36562360D01*
X9860355Y-36566144D01*
X9853701Y-36569291D01*
X9846771Y-36571771D01*
X9839632Y-36573559D01*
X9832351Y-36574639D01*
X9825000Y-36575000D01*
X9675000Y-36575000D01*
X9667649Y-36574639D01*
X9660368Y-36573559D01*
X9653229Y-36571771D01*
X9646299Y-36569291D01*
X9639645Y-36566144D01*
X9633332Y-36562360D01*
X9627421Y-36557976D01*
X9621967Y-36553033D01*
X9617024Y-36547579D01*
X9612640Y-36541668D01*
X9608856Y-36535355D01*
X9605709Y-36528701D01*
X9603229Y-36521771D01*
X9601441Y-36514632D01*
X9600361Y-36507351D01*
X9600000Y-36500000D01*
X9600000Y-35175000D01*
X9600361Y-35167649D01*
X9601441Y-35160368D01*
X9603229Y-35153229D01*
X9605709Y-35146299D01*
X9608856Y-35139645D01*
X9612640Y-35133332D01*
X9617024Y-35127421D01*
X9621967Y-35121967D01*
X9627421Y-35117024D01*
X9633332Y-35112640D01*
X9639645Y-35108856D01*
X9646299Y-35105709D01*
X9653229Y-35103229D01*
X9660368Y-35101441D01*
X9667649Y-35100361D01*
X9675000Y-35100000D01*
X9825000Y-35100000D01*
X9832351Y-35100361D01*
X9832351Y-35100361D01*
G37*
D15*
X9750000Y-35837500D03*
D10*
G36*
X10332351Y-35100361D02*
G01*
X10339632Y-35101441D01*
X10346771Y-35103229D01*
X10353701Y-35105709D01*
X10360355Y-35108856D01*
X10366668Y-35112640D01*
X10372579Y-35117024D01*
X10378033Y-35121967D01*
X10382976Y-35127421D01*
X10387360Y-35133332D01*
X10391144Y-35139645D01*
X10394291Y-35146299D01*
X10396771Y-35153229D01*
X10398559Y-35160368D01*
X10399639Y-35167649D01*
X10400000Y-35175000D01*
X10400000Y-36500000D01*
X10399639Y-36507351D01*
X10398559Y-36514632D01*
X10396771Y-36521771D01*
X10394291Y-36528701D01*
X10391144Y-36535355D01*
X10387360Y-36541668D01*
X10382976Y-36547579D01*
X10378033Y-36553033D01*
X10372579Y-36557976D01*
X10366668Y-36562360D01*
X10360355Y-36566144D01*
X10353701Y-36569291D01*
X10346771Y-36571771D01*
X10339632Y-36573559D01*
X10332351Y-36574639D01*
X10325000Y-36575000D01*
X10175000Y-36575000D01*
X10167649Y-36574639D01*
X10160368Y-36573559D01*
X10153229Y-36571771D01*
X10146299Y-36569291D01*
X10139645Y-36566144D01*
X10133332Y-36562360D01*
X10127421Y-36557976D01*
X10121967Y-36553033D01*
X10117024Y-36547579D01*
X10112640Y-36541668D01*
X10108856Y-36535355D01*
X10105709Y-36528701D01*
X10103229Y-36521771D01*
X10101441Y-36514632D01*
X10100361Y-36507351D01*
X10100000Y-36500000D01*
X10100000Y-35175000D01*
X10100361Y-35167649D01*
X10101441Y-35160368D01*
X10103229Y-35153229D01*
X10105709Y-35146299D01*
X10108856Y-35139645D01*
X10112640Y-35133332D01*
X10117024Y-35127421D01*
X10121967Y-35121967D01*
X10127421Y-35117024D01*
X10133332Y-35112640D01*
X10139645Y-35108856D01*
X10146299Y-35105709D01*
X10153229Y-35103229D01*
X10160368Y-35101441D01*
X10167649Y-35100361D01*
X10175000Y-35100000D01*
X10325000Y-35100000D01*
X10332351Y-35100361D01*
X10332351Y-35100361D01*
G37*
D15*
X10250000Y-35837500D03*
D10*
G36*
X10832351Y-35100361D02*
G01*
X10839632Y-35101441D01*
X10846771Y-35103229D01*
X10853701Y-35105709D01*
X10860355Y-35108856D01*
X10866668Y-35112640D01*
X10872579Y-35117024D01*
X10878033Y-35121967D01*
X10882976Y-35127421D01*
X10887360Y-35133332D01*
X10891144Y-35139645D01*
X10894291Y-35146299D01*
X10896771Y-35153229D01*
X10898559Y-35160368D01*
X10899639Y-35167649D01*
X10900000Y-35175000D01*
X10900000Y-36500000D01*
X10899639Y-36507351D01*
X10898559Y-36514632D01*
X10896771Y-36521771D01*
X10894291Y-36528701D01*
X10891144Y-36535355D01*
X10887360Y-36541668D01*
X10882976Y-36547579D01*
X10878033Y-36553033D01*
X10872579Y-36557976D01*
X10866668Y-36562360D01*
X10860355Y-36566144D01*
X10853701Y-36569291D01*
X10846771Y-36571771D01*
X10839632Y-36573559D01*
X10832351Y-36574639D01*
X10825000Y-36575000D01*
X10675000Y-36575000D01*
X10667649Y-36574639D01*
X10660368Y-36573559D01*
X10653229Y-36571771D01*
X10646299Y-36569291D01*
X10639645Y-36566144D01*
X10633332Y-36562360D01*
X10627421Y-36557976D01*
X10621967Y-36553033D01*
X10617024Y-36547579D01*
X10612640Y-36541668D01*
X10608856Y-36535355D01*
X10605709Y-36528701D01*
X10603229Y-36521771D01*
X10601441Y-36514632D01*
X10600361Y-36507351D01*
X10600000Y-36500000D01*
X10600000Y-35175000D01*
X10600361Y-35167649D01*
X10601441Y-35160368D01*
X10603229Y-35153229D01*
X10605709Y-35146299D01*
X10608856Y-35139645D01*
X10612640Y-35133332D01*
X10617024Y-35127421D01*
X10621967Y-35121967D01*
X10627421Y-35117024D01*
X10633332Y-35112640D01*
X10639645Y-35108856D01*
X10646299Y-35105709D01*
X10653229Y-35103229D01*
X10660368Y-35101441D01*
X10667649Y-35100361D01*
X10675000Y-35100000D01*
X10825000Y-35100000D01*
X10832351Y-35100361D01*
X10832351Y-35100361D01*
G37*
D15*
X10750000Y-35837500D03*
D10*
G36*
X11332351Y-35100361D02*
G01*
X11339632Y-35101441D01*
X11346771Y-35103229D01*
X11353701Y-35105709D01*
X11360355Y-35108856D01*
X11366668Y-35112640D01*
X11372579Y-35117024D01*
X11378033Y-35121967D01*
X11382976Y-35127421D01*
X11387360Y-35133332D01*
X11391144Y-35139645D01*
X11394291Y-35146299D01*
X11396771Y-35153229D01*
X11398559Y-35160368D01*
X11399639Y-35167649D01*
X11400000Y-35175000D01*
X11400000Y-36500000D01*
X11399639Y-36507351D01*
X11398559Y-36514632D01*
X11396771Y-36521771D01*
X11394291Y-36528701D01*
X11391144Y-36535355D01*
X11387360Y-36541668D01*
X11382976Y-36547579D01*
X11378033Y-36553033D01*
X11372579Y-36557976D01*
X11366668Y-36562360D01*
X11360355Y-36566144D01*
X11353701Y-36569291D01*
X11346771Y-36571771D01*
X11339632Y-36573559D01*
X11332351Y-36574639D01*
X11325000Y-36575000D01*
X11175000Y-36575000D01*
X11167649Y-36574639D01*
X11160368Y-36573559D01*
X11153229Y-36571771D01*
X11146299Y-36569291D01*
X11139645Y-36566144D01*
X11133332Y-36562360D01*
X11127421Y-36557976D01*
X11121967Y-36553033D01*
X11117024Y-36547579D01*
X11112640Y-36541668D01*
X11108856Y-36535355D01*
X11105709Y-36528701D01*
X11103229Y-36521771D01*
X11101441Y-36514632D01*
X11100361Y-36507351D01*
X11100000Y-36500000D01*
X11100000Y-35175000D01*
X11100361Y-35167649D01*
X11101441Y-35160368D01*
X11103229Y-35153229D01*
X11105709Y-35146299D01*
X11108856Y-35139645D01*
X11112640Y-35133332D01*
X11117024Y-35127421D01*
X11121967Y-35121967D01*
X11127421Y-35117024D01*
X11133332Y-35112640D01*
X11139645Y-35108856D01*
X11146299Y-35105709D01*
X11153229Y-35103229D01*
X11160368Y-35101441D01*
X11167649Y-35100361D01*
X11175000Y-35100000D01*
X11325000Y-35100000D01*
X11332351Y-35100361D01*
X11332351Y-35100361D01*
G37*
D15*
X11250000Y-35837500D03*
D10*
G36*
X11832351Y-35100361D02*
G01*
X11839632Y-35101441D01*
X11846771Y-35103229D01*
X11853701Y-35105709D01*
X11860355Y-35108856D01*
X11866668Y-35112640D01*
X11872579Y-35117024D01*
X11878033Y-35121967D01*
X11882976Y-35127421D01*
X11887360Y-35133332D01*
X11891144Y-35139645D01*
X11894291Y-35146299D01*
X11896771Y-35153229D01*
X11898559Y-35160368D01*
X11899639Y-35167649D01*
X11900000Y-35175000D01*
X11900000Y-36500000D01*
X11899639Y-36507351D01*
X11898559Y-36514632D01*
X11896771Y-36521771D01*
X11894291Y-36528701D01*
X11891144Y-36535355D01*
X11887360Y-36541668D01*
X11882976Y-36547579D01*
X11878033Y-36553033D01*
X11872579Y-36557976D01*
X11866668Y-36562360D01*
X11860355Y-36566144D01*
X11853701Y-36569291D01*
X11846771Y-36571771D01*
X11839632Y-36573559D01*
X11832351Y-36574639D01*
X11825000Y-36575000D01*
X11675000Y-36575000D01*
X11667649Y-36574639D01*
X11660368Y-36573559D01*
X11653229Y-36571771D01*
X11646299Y-36569291D01*
X11639645Y-36566144D01*
X11633332Y-36562360D01*
X11627421Y-36557976D01*
X11621967Y-36553033D01*
X11617024Y-36547579D01*
X11612640Y-36541668D01*
X11608856Y-36535355D01*
X11605709Y-36528701D01*
X11603229Y-36521771D01*
X11601441Y-36514632D01*
X11600361Y-36507351D01*
X11600000Y-36500000D01*
X11600000Y-35175000D01*
X11600361Y-35167649D01*
X11601441Y-35160368D01*
X11603229Y-35153229D01*
X11605709Y-35146299D01*
X11608856Y-35139645D01*
X11612640Y-35133332D01*
X11617024Y-35127421D01*
X11621967Y-35121967D01*
X11627421Y-35117024D01*
X11633332Y-35112640D01*
X11639645Y-35108856D01*
X11646299Y-35105709D01*
X11653229Y-35103229D01*
X11660368Y-35101441D01*
X11667649Y-35100361D01*
X11675000Y-35100000D01*
X11825000Y-35100000D01*
X11832351Y-35100361D01*
X11832351Y-35100361D01*
G37*
D15*
X11750000Y-35837500D03*
D10*
G36*
X12332351Y-35100361D02*
G01*
X12339632Y-35101441D01*
X12346771Y-35103229D01*
X12353701Y-35105709D01*
X12360355Y-35108856D01*
X12366668Y-35112640D01*
X12372579Y-35117024D01*
X12378033Y-35121967D01*
X12382976Y-35127421D01*
X12387360Y-35133332D01*
X12391144Y-35139645D01*
X12394291Y-35146299D01*
X12396771Y-35153229D01*
X12398559Y-35160368D01*
X12399639Y-35167649D01*
X12400000Y-35175000D01*
X12400000Y-36500000D01*
X12399639Y-36507351D01*
X12398559Y-36514632D01*
X12396771Y-36521771D01*
X12394291Y-36528701D01*
X12391144Y-36535355D01*
X12387360Y-36541668D01*
X12382976Y-36547579D01*
X12378033Y-36553033D01*
X12372579Y-36557976D01*
X12366668Y-36562360D01*
X12360355Y-36566144D01*
X12353701Y-36569291D01*
X12346771Y-36571771D01*
X12339632Y-36573559D01*
X12332351Y-36574639D01*
X12325000Y-36575000D01*
X12175000Y-36575000D01*
X12167649Y-36574639D01*
X12160368Y-36573559D01*
X12153229Y-36571771D01*
X12146299Y-36569291D01*
X12139645Y-36566144D01*
X12133332Y-36562360D01*
X12127421Y-36557976D01*
X12121967Y-36553033D01*
X12117024Y-36547579D01*
X12112640Y-36541668D01*
X12108856Y-36535355D01*
X12105709Y-36528701D01*
X12103229Y-36521771D01*
X12101441Y-36514632D01*
X12100361Y-36507351D01*
X12100000Y-36500000D01*
X12100000Y-35175000D01*
X12100361Y-35167649D01*
X12101441Y-35160368D01*
X12103229Y-35153229D01*
X12105709Y-35146299D01*
X12108856Y-35139645D01*
X12112640Y-35133332D01*
X12117024Y-35127421D01*
X12121967Y-35121967D01*
X12127421Y-35117024D01*
X12133332Y-35112640D01*
X12139645Y-35108856D01*
X12146299Y-35105709D01*
X12153229Y-35103229D01*
X12160368Y-35101441D01*
X12167649Y-35100361D01*
X12175000Y-35100000D01*
X12325000Y-35100000D01*
X12332351Y-35100361D01*
X12332351Y-35100361D01*
G37*
D15*
X12250000Y-35837500D03*
D10*
G36*
X12832351Y-35100361D02*
G01*
X12839632Y-35101441D01*
X12846771Y-35103229D01*
X12853701Y-35105709D01*
X12860355Y-35108856D01*
X12866668Y-35112640D01*
X12872579Y-35117024D01*
X12878033Y-35121967D01*
X12882976Y-35127421D01*
X12887360Y-35133332D01*
X12891144Y-35139645D01*
X12894291Y-35146299D01*
X12896771Y-35153229D01*
X12898559Y-35160368D01*
X12899639Y-35167649D01*
X12900000Y-35175000D01*
X12900000Y-36500000D01*
X12899639Y-36507351D01*
X12898559Y-36514632D01*
X12896771Y-36521771D01*
X12894291Y-36528701D01*
X12891144Y-36535355D01*
X12887360Y-36541668D01*
X12882976Y-36547579D01*
X12878033Y-36553033D01*
X12872579Y-36557976D01*
X12866668Y-36562360D01*
X12860355Y-36566144D01*
X12853701Y-36569291D01*
X12846771Y-36571771D01*
X12839632Y-36573559D01*
X12832351Y-36574639D01*
X12825000Y-36575000D01*
X12675000Y-36575000D01*
X12667649Y-36574639D01*
X12660368Y-36573559D01*
X12653229Y-36571771D01*
X12646299Y-36569291D01*
X12639645Y-36566144D01*
X12633332Y-36562360D01*
X12627421Y-36557976D01*
X12621967Y-36553033D01*
X12617024Y-36547579D01*
X12612640Y-36541668D01*
X12608856Y-36535355D01*
X12605709Y-36528701D01*
X12603229Y-36521771D01*
X12601441Y-36514632D01*
X12600361Y-36507351D01*
X12600000Y-36500000D01*
X12600000Y-35175000D01*
X12600361Y-35167649D01*
X12601441Y-35160368D01*
X12603229Y-35153229D01*
X12605709Y-35146299D01*
X12608856Y-35139645D01*
X12612640Y-35133332D01*
X12617024Y-35127421D01*
X12621967Y-35121967D01*
X12627421Y-35117024D01*
X12633332Y-35112640D01*
X12639645Y-35108856D01*
X12646299Y-35105709D01*
X12653229Y-35103229D01*
X12660368Y-35101441D01*
X12667649Y-35100361D01*
X12675000Y-35100000D01*
X12825000Y-35100000D01*
X12832351Y-35100361D01*
X12832351Y-35100361D01*
G37*
D15*
X12750000Y-35837500D03*
D10*
G36*
X13332351Y-35100361D02*
G01*
X13339632Y-35101441D01*
X13346771Y-35103229D01*
X13353701Y-35105709D01*
X13360355Y-35108856D01*
X13366668Y-35112640D01*
X13372579Y-35117024D01*
X13378033Y-35121967D01*
X13382976Y-35127421D01*
X13387360Y-35133332D01*
X13391144Y-35139645D01*
X13394291Y-35146299D01*
X13396771Y-35153229D01*
X13398559Y-35160368D01*
X13399639Y-35167649D01*
X13400000Y-35175000D01*
X13400000Y-36500000D01*
X13399639Y-36507351D01*
X13398559Y-36514632D01*
X13396771Y-36521771D01*
X13394291Y-36528701D01*
X13391144Y-36535355D01*
X13387360Y-36541668D01*
X13382976Y-36547579D01*
X13378033Y-36553033D01*
X13372579Y-36557976D01*
X13366668Y-36562360D01*
X13360355Y-36566144D01*
X13353701Y-36569291D01*
X13346771Y-36571771D01*
X13339632Y-36573559D01*
X13332351Y-36574639D01*
X13325000Y-36575000D01*
X13175000Y-36575000D01*
X13167649Y-36574639D01*
X13160368Y-36573559D01*
X13153229Y-36571771D01*
X13146299Y-36569291D01*
X13139645Y-36566144D01*
X13133332Y-36562360D01*
X13127421Y-36557976D01*
X13121967Y-36553033D01*
X13117024Y-36547579D01*
X13112640Y-36541668D01*
X13108856Y-36535355D01*
X13105709Y-36528701D01*
X13103229Y-36521771D01*
X13101441Y-36514632D01*
X13100361Y-36507351D01*
X13100000Y-36500000D01*
X13100000Y-35175000D01*
X13100361Y-35167649D01*
X13101441Y-35160368D01*
X13103229Y-35153229D01*
X13105709Y-35146299D01*
X13108856Y-35139645D01*
X13112640Y-35133332D01*
X13117024Y-35127421D01*
X13121967Y-35121967D01*
X13127421Y-35117024D01*
X13133332Y-35112640D01*
X13139645Y-35108856D01*
X13146299Y-35105709D01*
X13153229Y-35103229D01*
X13160368Y-35101441D01*
X13167649Y-35100361D01*
X13175000Y-35100000D01*
X13325000Y-35100000D01*
X13332351Y-35100361D01*
X13332351Y-35100361D01*
G37*
D15*
X13250000Y-35837500D03*
D10*
G36*
X13832351Y-35100361D02*
G01*
X13839632Y-35101441D01*
X13846771Y-35103229D01*
X13853701Y-35105709D01*
X13860355Y-35108856D01*
X13866668Y-35112640D01*
X13872579Y-35117024D01*
X13878033Y-35121967D01*
X13882976Y-35127421D01*
X13887360Y-35133332D01*
X13891144Y-35139645D01*
X13894291Y-35146299D01*
X13896771Y-35153229D01*
X13898559Y-35160368D01*
X13899639Y-35167649D01*
X13900000Y-35175000D01*
X13900000Y-36500000D01*
X13899639Y-36507351D01*
X13898559Y-36514632D01*
X13896771Y-36521771D01*
X13894291Y-36528701D01*
X13891144Y-36535355D01*
X13887360Y-36541668D01*
X13882976Y-36547579D01*
X13878033Y-36553033D01*
X13872579Y-36557976D01*
X13866668Y-36562360D01*
X13860355Y-36566144D01*
X13853701Y-36569291D01*
X13846771Y-36571771D01*
X13839632Y-36573559D01*
X13832351Y-36574639D01*
X13825000Y-36575000D01*
X13675000Y-36575000D01*
X13667649Y-36574639D01*
X13660368Y-36573559D01*
X13653229Y-36571771D01*
X13646299Y-36569291D01*
X13639645Y-36566144D01*
X13633332Y-36562360D01*
X13627421Y-36557976D01*
X13621967Y-36553033D01*
X13617024Y-36547579D01*
X13612640Y-36541668D01*
X13608856Y-36535355D01*
X13605709Y-36528701D01*
X13603229Y-36521771D01*
X13601441Y-36514632D01*
X13600361Y-36507351D01*
X13600000Y-36500000D01*
X13600000Y-35175000D01*
X13600361Y-35167649D01*
X13601441Y-35160368D01*
X13603229Y-35153229D01*
X13605709Y-35146299D01*
X13608856Y-35139645D01*
X13612640Y-35133332D01*
X13617024Y-35127421D01*
X13621967Y-35121967D01*
X13627421Y-35117024D01*
X13633332Y-35112640D01*
X13639645Y-35108856D01*
X13646299Y-35105709D01*
X13653229Y-35103229D01*
X13660368Y-35101441D01*
X13667649Y-35100361D01*
X13675000Y-35100000D01*
X13825000Y-35100000D01*
X13832351Y-35100361D01*
X13832351Y-35100361D01*
G37*
D15*
X13750000Y-35837500D03*
D10*
G36*
X14332351Y-35100361D02*
G01*
X14339632Y-35101441D01*
X14346771Y-35103229D01*
X14353701Y-35105709D01*
X14360355Y-35108856D01*
X14366668Y-35112640D01*
X14372579Y-35117024D01*
X14378033Y-35121967D01*
X14382976Y-35127421D01*
X14387360Y-35133332D01*
X14391144Y-35139645D01*
X14394291Y-35146299D01*
X14396771Y-35153229D01*
X14398559Y-35160368D01*
X14399639Y-35167649D01*
X14400000Y-35175000D01*
X14400000Y-36500000D01*
X14399639Y-36507351D01*
X14398559Y-36514632D01*
X14396771Y-36521771D01*
X14394291Y-36528701D01*
X14391144Y-36535355D01*
X14387360Y-36541668D01*
X14382976Y-36547579D01*
X14378033Y-36553033D01*
X14372579Y-36557976D01*
X14366668Y-36562360D01*
X14360355Y-36566144D01*
X14353701Y-36569291D01*
X14346771Y-36571771D01*
X14339632Y-36573559D01*
X14332351Y-36574639D01*
X14325000Y-36575000D01*
X14175000Y-36575000D01*
X14167649Y-36574639D01*
X14160368Y-36573559D01*
X14153229Y-36571771D01*
X14146299Y-36569291D01*
X14139645Y-36566144D01*
X14133332Y-36562360D01*
X14127421Y-36557976D01*
X14121967Y-36553033D01*
X14117024Y-36547579D01*
X14112640Y-36541668D01*
X14108856Y-36535355D01*
X14105709Y-36528701D01*
X14103229Y-36521771D01*
X14101441Y-36514632D01*
X14100361Y-36507351D01*
X14100000Y-36500000D01*
X14100000Y-35175000D01*
X14100361Y-35167649D01*
X14101441Y-35160368D01*
X14103229Y-35153229D01*
X14105709Y-35146299D01*
X14108856Y-35139645D01*
X14112640Y-35133332D01*
X14117024Y-35127421D01*
X14121967Y-35121967D01*
X14127421Y-35117024D01*
X14133332Y-35112640D01*
X14139645Y-35108856D01*
X14146299Y-35105709D01*
X14153229Y-35103229D01*
X14160368Y-35101441D01*
X14167649Y-35100361D01*
X14175000Y-35100000D01*
X14325000Y-35100000D01*
X14332351Y-35100361D01*
X14332351Y-35100361D01*
G37*
D15*
X14250000Y-35837500D03*
D10*
G36*
X14832351Y-35100361D02*
G01*
X14839632Y-35101441D01*
X14846771Y-35103229D01*
X14853701Y-35105709D01*
X14860355Y-35108856D01*
X14866668Y-35112640D01*
X14872579Y-35117024D01*
X14878033Y-35121967D01*
X14882976Y-35127421D01*
X14887360Y-35133332D01*
X14891144Y-35139645D01*
X14894291Y-35146299D01*
X14896771Y-35153229D01*
X14898559Y-35160368D01*
X14899639Y-35167649D01*
X14900000Y-35175000D01*
X14900000Y-36500000D01*
X14899639Y-36507351D01*
X14898559Y-36514632D01*
X14896771Y-36521771D01*
X14894291Y-36528701D01*
X14891144Y-36535355D01*
X14887360Y-36541668D01*
X14882976Y-36547579D01*
X14878033Y-36553033D01*
X14872579Y-36557976D01*
X14866668Y-36562360D01*
X14860355Y-36566144D01*
X14853701Y-36569291D01*
X14846771Y-36571771D01*
X14839632Y-36573559D01*
X14832351Y-36574639D01*
X14825000Y-36575000D01*
X14675000Y-36575000D01*
X14667649Y-36574639D01*
X14660368Y-36573559D01*
X14653229Y-36571771D01*
X14646299Y-36569291D01*
X14639645Y-36566144D01*
X14633332Y-36562360D01*
X14627421Y-36557976D01*
X14621967Y-36553033D01*
X14617024Y-36547579D01*
X14612640Y-36541668D01*
X14608856Y-36535355D01*
X14605709Y-36528701D01*
X14603229Y-36521771D01*
X14601441Y-36514632D01*
X14600361Y-36507351D01*
X14600000Y-36500000D01*
X14600000Y-35175000D01*
X14600361Y-35167649D01*
X14601441Y-35160368D01*
X14603229Y-35153229D01*
X14605709Y-35146299D01*
X14608856Y-35139645D01*
X14612640Y-35133332D01*
X14617024Y-35127421D01*
X14621967Y-35121967D01*
X14627421Y-35117024D01*
X14633332Y-35112640D01*
X14639645Y-35108856D01*
X14646299Y-35105709D01*
X14653229Y-35103229D01*
X14660368Y-35101441D01*
X14667649Y-35100361D01*
X14675000Y-35100000D01*
X14825000Y-35100000D01*
X14832351Y-35100361D01*
X14832351Y-35100361D01*
G37*
D15*
X14750000Y-35837500D03*
D10*
G36*
X16832351Y-37100361D02*
G01*
X16839632Y-37101441D01*
X16846771Y-37103229D01*
X16853701Y-37105709D01*
X16860355Y-37108856D01*
X16866668Y-37112640D01*
X16872579Y-37117024D01*
X16878033Y-37121967D01*
X16882976Y-37127421D01*
X16887360Y-37133332D01*
X16891144Y-37139645D01*
X16894291Y-37146299D01*
X16896771Y-37153229D01*
X16898559Y-37160368D01*
X16899639Y-37167649D01*
X16900000Y-37175000D01*
X16900000Y-37325000D01*
X16899639Y-37332351D01*
X16898559Y-37339632D01*
X16896771Y-37346771D01*
X16894291Y-37353701D01*
X16891144Y-37360355D01*
X16887360Y-37366668D01*
X16882976Y-37372579D01*
X16878033Y-37378033D01*
X16872579Y-37382976D01*
X16866668Y-37387360D01*
X16860355Y-37391144D01*
X16853701Y-37394291D01*
X16846771Y-37396771D01*
X16839632Y-37398559D01*
X16832351Y-37399639D01*
X16825000Y-37400000D01*
X15500000Y-37400000D01*
X15492649Y-37399639D01*
X15485368Y-37398559D01*
X15478229Y-37396771D01*
X15471299Y-37394291D01*
X15464645Y-37391144D01*
X15458332Y-37387360D01*
X15452421Y-37382976D01*
X15446967Y-37378033D01*
X15442024Y-37372579D01*
X15437640Y-37366668D01*
X15433856Y-37360355D01*
X15430709Y-37353701D01*
X15428229Y-37346771D01*
X15426441Y-37339632D01*
X15425361Y-37332351D01*
X15425000Y-37325000D01*
X15425000Y-37175000D01*
X15425361Y-37167649D01*
X15426441Y-37160368D01*
X15428229Y-37153229D01*
X15430709Y-37146299D01*
X15433856Y-37139645D01*
X15437640Y-37133332D01*
X15442024Y-37127421D01*
X15446967Y-37121967D01*
X15452421Y-37117024D01*
X15458332Y-37112640D01*
X15464645Y-37108856D01*
X15471299Y-37105709D01*
X15478229Y-37103229D01*
X15485368Y-37101441D01*
X15492649Y-37100361D01*
X15500000Y-37100000D01*
X16825000Y-37100000D01*
X16832351Y-37100361D01*
X16832351Y-37100361D01*
G37*
D15*
X16162500Y-37250000D03*
D10*
G36*
X16832351Y-37600361D02*
G01*
X16839632Y-37601441D01*
X16846771Y-37603229D01*
X16853701Y-37605709D01*
X16860355Y-37608856D01*
X16866668Y-37612640D01*
X16872579Y-37617024D01*
X16878033Y-37621967D01*
X16882976Y-37627421D01*
X16887360Y-37633332D01*
X16891144Y-37639645D01*
X16894291Y-37646299D01*
X16896771Y-37653229D01*
X16898559Y-37660368D01*
X16899639Y-37667649D01*
X16900000Y-37675000D01*
X16900000Y-37825000D01*
X16899639Y-37832351D01*
X16898559Y-37839632D01*
X16896771Y-37846771D01*
X16894291Y-37853701D01*
X16891144Y-37860355D01*
X16887360Y-37866668D01*
X16882976Y-37872579D01*
X16878033Y-37878033D01*
X16872579Y-37882976D01*
X16866668Y-37887360D01*
X16860355Y-37891144D01*
X16853701Y-37894291D01*
X16846771Y-37896771D01*
X16839632Y-37898559D01*
X16832351Y-37899639D01*
X16825000Y-37900000D01*
X15500000Y-37900000D01*
X15492649Y-37899639D01*
X15485368Y-37898559D01*
X15478229Y-37896771D01*
X15471299Y-37894291D01*
X15464645Y-37891144D01*
X15458332Y-37887360D01*
X15452421Y-37882976D01*
X15446967Y-37878033D01*
X15442024Y-37872579D01*
X15437640Y-37866668D01*
X15433856Y-37860355D01*
X15430709Y-37853701D01*
X15428229Y-37846771D01*
X15426441Y-37839632D01*
X15425361Y-37832351D01*
X15425000Y-37825000D01*
X15425000Y-37675000D01*
X15425361Y-37667649D01*
X15426441Y-37660368D01*
X15428229Y-37653229D01*
X15430709Y-37646299D01*
X15433856Y-37639645D01*
X15437640Y-37633332D01*
X15442024Y-37627421D01*
X15446967Y-37621967D01*
X15452421Y-37617024D01*
X15458332Y-37612640D01*
X15464645Y-37608856D01*
X15471299Y-37605709D01*
X15478229Y-37603229D01*
X15485368Y-37601441D01*
X15492649Y-37600361D01*
X15500000Y-37600000D01*
X16825000Y-37600000D01*
X16832351Y-37600361D01*
X16832351Y-37600361D01*
G37*
D15*
X16162500Y-37750000D03*
D10*
G36*
X16832351Y-38100361D02*
G01*
X16839632Y-38101441D01*
X16846771Y-38103229D01*
X16853701Y-38105709D01*
X16860355Y-38108856D01*
X16866668Y-38112640D01*
X16872579Y-38117024D01*
X16878033Y-38121967D01*
X16882976Y-38127421D01*
X16887360Y-38133332D01*
X16891144Y-38139645D01*
X16894291Y-38146299D01*
X16896771Y-38153229D01*
X16898559Y-38160368D01*
X16899639Y-38167649D01*
X16900000Y-38175000D01*
X16900000Y-38325000D01*
X16899639Y-38332351D01*
X16898559Y-38339632D01*
X16896771Y-38346771D01*
X16894291Y-38353701D01*
X16891144Y-38360355D01*
X16887360Y-38366668D01*
X16882976Y-38372579D01*
X16878033Y-38378033D01*
X16872579Y-38382976D01*
X16866668Y-38387360D01*
X16860355Y-38391144D01*
X16853701Y-38394291D01*
X16846771Y-38396771D01*
X16839632Y-38398559D01*
X16832351Y-38399639D01*
X16825000Y-38400000D01*
X15500000Y-38400000D01*
X15492649Y-38399639D01*
X15485368Y-38398559D01*
X15478229Y-38396771D01*
X15471299Y-38394291D01*
X15464645Y-38391144D01*
X15458332Y-38387360D01*
X15452421Y-38382976D01*
X15446967Y-38378033D01*
X15442024Y-38372579D01*
X15437640Y-38366668D01*
X15433856Y-38360355D01*
X15430709Y-38353701D01*
X15428229Y-38346771D01*
X15426441Y-38339632D01*
X15425361Y-38332351D01*
X15425000Y-38325000D01*
X15425000Y-38175000D01*
X15425361Y-38167649D01*
X15426441Y-38160368D01*
X15428229Y-38153229D01*
X15430709Y-38146299D01*
X15433856Y-38139645D01*
X15437640Y-38133332D01*
X15442024Y-38127421D01*
X15446967Y-38121967D01*
X15452421Y-38117024D01*
X15458332Y-38112640D01*
X15464645Y-38108856D01*
X15471299Y-38105709D01*
X15478229Y-38103229D01*
X15485368Y-38101441D01*
X15492649Y-38100361D01*
X15500000Y-38100000D01*
X16825000Y-38100000D01*
X16832351Y-38100361D01*
X16832351Y-38100361D01*
G37*
D15*
X16162500Y-38250000D03*
D10*
G36*
X16832351Y-38600361D02*
G01*
X16839632Y-38601441D01*
X16846771Y-38603229D01*
X16853701Y-38605709D01*
X16860355Y-38608856D01*
X16866668Y-38612640D01*
X16872579Y-38617024D01*
X16878033Y-38621967D01*
X16882976Y-38627421D01*
X16887360Y-38633332D01*
X16891144Y-38639645D01*
X16894291Y-38646299D01*
X16896771Y-38653229D01*
X16898559Y-38660368D01*
X16899639Y-38667649D01*
X16900000Y-38675000D01*
X16900000Y-38825000D01*
X16899639Y-38832351D01*
X16898559Y-38839632D01*
X16896771Y-38846771D01*
X16894291Y-38853701D01*
X16891144Y-38860355D01*
X16887360Y-38866668D01*
X16882976Y-38872579D01*
X16878033Y-38878033D01*
X16872579Y-38882976D01*
X16866668Y-38887360D01*
X16860355Y-38891144D01*
X16853701Y-38894291D01*
X16846771Y-38896771D01*
X16839632Y-38898559D01*
X16832351Y-38899639D01*
X16825000Y-38900000D01*
X15500000Y-38900000D01*
X15492649Y-38899639D01*
X15485368Y-38898559D01*
X15478229Y-38896771D01*
X15471299Y-38894291D01*
X15464645Y-38891144D01*
X15458332Y-38887360D01*
X15452421Y-38882976D01*
X15446967Y-38878033D01*
X15442024Y-38872579D01*
X15437640Y-38866668D01*
X15433856Y-38860355D01*
X15430709Y-38853701D01*
X15428229Y-38846771D01*
X15426441Y-38839632D01*
X15425361Y-38832351D01*
X15425000Y-38825000D01*
X15425000Y-38675000D01*
X15425361Y-38667649D01*
X15426441Y-38660368D01*
X15428229Y-38653229D01*
X15430709Y-38646299D01*
X15433856Y-38639645D01*
X15437640Y-38633332D01*
X15442024Y-38627421D01*
X15446967Y-38621967D01*
X15452421Y-38617024D01*
X15458332Y-38612640D01*
X15464645Y-38608856D01*
X15471299Y-38605709D01*
X15478229Y-38603229D01*
X15485368Y-38601441D01*
X15492649Y-38600361D01*
X15500000Y-38600000D01*
X16825000Y-38600000D01*
X16832351Y-38600361D01*
X16832351Y-38600361D01*
G37*
D15*
X16162500Y-38750000D03*
D10*
G36*
X16832351Y-39100361D02*
G01*
X16839632Y-39101441D01*
X16846771Y-39103229D01*
X16853701Y-39105709D01*
X16860355Y-39108856D01*
X16866668Y-39112640D01*
X16872579Y-39117024D01*
X16878033Y-39121967D01*
X16882976Y-39127421D01*
X16887360Y-39133332D01*
X16891144Y-39139645D01*
X16894291Y-39146299D01*
X16896771Y-39153229D01*
X16898559Y-39160368D01*
X16899639Y-39167649D01*
X16900000Y-39175000D01*
X16900000Y-39325000D01*
X16899639Y-39332351D01*
X16898559Y-39339632D01*
X16896771Y-39346771D01*
X16894291Y-39353701D01*
X16891144Y-39360355D01*
X16887360Y-39366668D01*
X16882976Y-39372579D01*
X16878033Y-39378033D01*
X16872579Y-39382976D01*
X16866668Y-39387360D01*
X16860355Y-39391144D01*
X16853701Y-39394291D01*
X16846771Y-39396771D01*
X16839632Y-39398559D01*
X16832351Y-39399639D01*
X16825000Y-39400000D01*
X15500000Y-39400000D01*
X15492649Y-39399639D01*
X15485368Y-39398559D01*
X15478229Y-39396771D01*
X15471299Y-39394291D01*
X15464645Y-39391144D01*
X15458332Y-39387360D01*
X15452421Y-39382976D01*
X15446967Y-39378033D01*
X15442024Y-39372579D01*
X15437640Y-39366668D01*
X15433856Y-39360355D01*
X15430709Y-39353701D01*
X15428229Y-39346771D01*
X15426441Y-39339632D01*
X15425361Y-39332351D01*
X15425000Y-39325000D01*
X15425000Y-39175000D01*
X15425361Y-39167649D01*
X15426441Y-39160368D01*
X15428229Y-39153229D01*
X15430709Y-39146299D01*
X15433856Y-39139645D01*
X15437640Y-39133332D01*
X15442024Y-39127421D01*
X15446967Y-39121967D01*
X15452421Y-39117024D01*
X15458332Y-39112640D01*
X15464645Y-39108856D01*
X15471299Y-39105709D01*
X15478229Y-39103229D01*
X15485368Y-39101441D01*
X15492649Y-39100361D01*
X15500000Y-39100000D01*
X16825000Y-39100000D01*
X16832351Y-39100361D01*
X16832351Y-39100361D01*
G37*
D15*
X16162500Y-39250000D03*
D10*
G36*
X16832351Y-39600361D02*
G01*
X16839632Y-39601441D01*
X16846771Y-39603229D01*
X16853701Y-39605709D01*
X16860355Y-39608856D01*
X16866668Y-39612640D01*
X16872579Y-39617024D01*
X16878033Y-39621967D01*
X16882976Y-39627421D01*
X16887360Y-39633332D01*
X16891144Y-39639645D01*
X16894291Y-39646299D01*
X16896771Y-39653229D01*
X16898559Y-39660368D01*
X16899639Y-39667649D01*
X16900000Y-39675000D01*
X16900000Y-39825000D01*
X16899639Y-39832351D01*
X16898559Y-39839632D01*
X16896771Y-39846771D01*
X16894291Y-39853701D01*
X16891144Y-39860355D01*
X16887360Y-39866668D01*
X16882976Y-39872579D01*
X16878033Y-39878033D01*
X16872579Y-39882976D01*
X16866668Y-39887360D01*
X16860355Y-39891144D01*
X16853701Y-39894291D01*
X16846771Y-39896771D01*
X16839632Y-39898559D01*
X16832351Y-39899639D01*
X16825000Y-39900000D01*
X15500000Y-39900000D01*
X15492649Y-39899639D01*
X15485368Y-39898559D01*
X15478229Y-39896771D01*
X15471299Y-39894291D01*
X15464645Y-39891144D01*
X15458332Y-39887360D01*
X15452421Y-39882976D01*
X15446967Y-39878033D01*
X15442024Y-39872579D01*
X15437640Y-39866668D01*
X15433856Y-39860355D01*
X15430709Y-39853701D01*
X15428229Y-39846771D01*
X15426441Y-39839632D01*
X15425361Y-39832351D01*
X15425000Y-39825000D01*
X15425000Y-39675000D01*
X15425361Y-39667649D01*
X15426441Y-39660368D01*
X15428229Y-39653229D01*
X15430709Y-39646299D01*
X15433856Y-39639645D01*
X15437640Y-39633332D01*
X15442024Y-39627421D01*
X15446967Y-39621967D01*
X15452421Y-39617024D01*
X15458332Y-39612640D01*
X15464645Y-39608856D01*
X15471299Y-39605709D01*
X15478229Y-39603229D01*
X15485368Y-39601441D01*
X15492649Y-39600361D01*
X15500000Y-39600000D01*
X16825000Y-39600000D01*
X16832351Y-39600361D01*
X16832351Y-39600361D01*
G37*
D15*
X16162500Y-39750000D03*
D10*
G36*
X16832351Y-40100361D02*
G01*
X16839632Y-40101441D01*
X16846771Y-40103229D01*
X16853701Y-40105709D01*
X16860355Y-40108856D01*
X16866668Y-40112640D01*
X16872579Y-40117024D01*
X16878033Y-40121967D01*
X16882976Y-40127421D01*
X16887360Y-40133332D01*
X16891144Y-40139645D01*
X16894291Y-40146299D01*
X16896771Y-40153229D01*
X16898559Y-40160368D01*
X16899639Y-40167649D01*
X16900000Y-40175000D01*
X16900000Y-40325000D01*
X16899639Y-40332351D01*
X16898559Y-40339632D01*
X16896771Y-40346771D01*
X16894291Y-40353701D01*
X16891144Y-40360355D01*
X16887360Y-40366668D01*
X16882976Y-40372579D01*
X16878033Y-40378033D01*
X16872579Y-40382976D01*
X16866668Y-40387360D01*
X16860355Y-40391144D01*
X16853701Y-40394291D01*
X16846771Y-40396771D01*
X16839632Y-40398559D01*
X16832351Y-40399639D01*
X16825000Y-40400000D01*
X15500000Y-40400000D01*
X15492649Y-40399639D01*
X15485368Y-40398559D01*
X15478229Y-40396771D01*
X15471299Y-40394291D01*
X15464645Y-40391144D01*
X15458332Y-40387360D01*
X15452421Y-40382976D01*
X15446967Y-40378033D01*
X15442024Y-40372579D01*
X15437640Y-40366668D01*
X15433856Y-40360355D01*
X15430709Y-40353701D01*
X15428229Y-40346771D01*
X15426441Y-40339632D01*
X15425361Y-40332351D01*
X15425000Y-40325000D01*
X15425000Y-40175000D01*
X15425361Y-40167649D01*
X15426441Y-40160368D01*
X15428229Y-40153229D01*
X15430709Y-40146299D01*
X15433856Y-40139645D01*
X15437640Y-40133332D01*
X15442024Y-40127421D01*
X15446967Y-40121967D01*
X15452421Y-40117024D01*
X15458332Y-40112640D01*
X15464645Y-40108856D01*
X15471299Y-40105709D01*
X15478229Y-40103229D01*
X15485368Y-40101441D01*
X15492649Y-40100361D01*
X15500000Y-40100000D01*
X16825000Y-40100000D01*
X16832351Y-40100361D01*
X16832351Y-40100361D01*
G37*
D15*
X16162500Y-40250000D03*
D10*
G36*
X16832351Y-40600361D02*
G01*
X16839632Y-40601441D01*
X16846771Y-40603229D01*
X16853701Y-40605709D01*
X16860355Y-40608856D01*
X16866668Y-40612640D01*
X16872579Y-40617024D01*
X16878033Y-40621967D01*
X16882976Y-40627421D01*
X16887360Y-40633332D01*
X16891144Y-40639645D01*
X16894291Y-40646299D01*
X16896771Y-40653229D01*
X16898559Y-40660368D01*
X16899639Y-40667649D01*
X16900000Y-40675000D01*
X16900000Y-40825000D01*
X16899639Y-40832351D01*
X16898559Y-40839632D01*
X16896771Y-40846771D01*
X16894291Y-40853701D01*
X16891144Y-40860355D01*
X16887360Y-40866668D01*
X16882976Y-40872579D01*
X16878033Y-40878033D01*
X16872579Y-40882976D01*
X16866668Y-40887360D01*
X16860355Y-40891144D01*
X16853701Y-40894291D01*
X16846771Y-40896771D01*
X16839632Y-40898559D01*
X16832351Y-40899639D01*
X16825000Y-40900000D01*
X15500000Y-40900000D01*
X15492649Y-40899639D01*
X15485368Y-40898559D01*
X15478229Y-40896771D01*
X15471299Y-40894291D01*
X15464645Y-40891144D01*
X15458332Y-40887360D01*
X15452421Y-40882976D01*
X15446967Y-40878033D01*
X15442024Y-40872579D01*
X15437640Y-40866668D01*
X15433856Y-40860355D01*
X15430709Y-40853701D01*
X15428229Y-40846771D01*
X15426441Y-40839632D01*
X15425361Y-40832351D01*
X15425000Y-40825000D01*
X15425000Y-40675000D01*
X15425361Y-40667649D01*
X15426441Y-40660368D01*
X15428229Y-40653229D01*
X15430709Y-40646299D01*
X15433856Y-40639645D01*
X15437640Y-40633332D01*
X15442024Y-40627421D01*
X15446967Y-40621967D01*
X15452421Y-40617024D01*
X15458332Y-40612640D01*
X15464645Y-40608856D01*
X15471299Y-40605709D01*
X15478229Y-40603229D01*
X15485368Y-40601441D01*
X15492649Y-40600361D01*
X15500000Y-40600000D01*
X16825000Y-40600000D01*
X16832351Y-40600361D01*
X16832351Y-40600361D01*
G37*
D15*
X16162500Y-40750000D03*
D10*
G36*
X16832351Y-41100361D02*
G01*
X16839632Y-41101441D01*
X16846771Y-41103229D01*
X16853701Y-41105709D01*
X16860355Y-41108856D01*
X16866668Y-41112640D01*
X16872579Y-41117024D01*
X16878033Y-41121967D01*
X16882976Y-41127421D01*
X16887360Y-41133332D01*
X16891144Y-41139645D01*
X16894291Y-41146299D01*
X16896771Y-41153229D01*
X16898559Y-41160368D01*
X16899639Y-41167649D01*
X16900000Y-41175000D01*
X16900000Y-41325000D01*
X16899639Y-41332351D01*
X16898559Y-41339632D01*
X16896771Y-41346771D01*
X16894291Y-41353701D01*
X16891144Y-41360355D01*
X16887360Y-41366668D01*
X16882976Y-41372579D01*
X16878033Y-41378033D01*
X16872579Y-41382976D01*
X16866668Y-41387360D01*
X16860355Y-41391144D01*
X16853701Y-41394291D01*
X16846771Y-41396771D01*
X16839632Y-41398559D01*
X16832351Y-41399639D01*
X16825000Y-41400000D01*
X15500000Y-41400000D01*
X15492649Y-41399639D01*
X15485368Y-41398559D01*
X15478229Y-41396771D01*
X15471299Y-41394291D01*
X15464645Y-41391144D01*
X15458332Y-41387360D01*
X15452421Y-41382976D01*
X15446967Y-41378033D01*
X15442024Y-41372579D01*
X15437640Y-41366668D01*
X15433856Y-41360355D01*
X15430709Y-41353701D01*
X15428229Y-41346771D01*
X15426441Y-41339632D01*
X15425361Y-41332351D01*
X15425000Y-41325000D01*
X15425000Y-41175000D01*
X15425361Y-41167649D01*
X15426441Y-41160368D01*
X15428229Y-41153229D01*
X15430709Y-41146299D01*
X15433856Y-41139645D01*
X15437640Y-41133332D01*
X15442024Y-41127421D01*
X15446967Y-41121967D01*
X15452421Y-41117024D01*
X15458332Y-41112640D01*
X15464645Y-41108856D01*
X15471299Y-41105709D01*
X15478229Y-41103229D01*
X15485368Y-41101441D01*
X15492649Y-41100361D01*
X15500000Y-41100000D01*
X16825000Y-41100000D01*
X16832351Y-41100361D01*
X16832351Y-41100361D01*
G37*
D15*
X16162500Y-41250000D03*
D10*
G36*
X16832351Y-41600361D02*
G01*
X16839632Y-41601441D01*
X16846771Y-41603229D01*
X16853701Y-41605709D01*
X16860355Y-41608856D01*
X16866668Y-41612640D01*
X16872579Y-41617024D01*
X16878033Y-41621967D01*
X16882976Y-41627421D01*
X16887360Y-41633332D01*
X16891144Y-41639645D01*
X16894291Y-41646299D01*
X16896771Y-41653229D01*
X16898559Y-41660368D01*
X16899639Y-41667649D01*
X16900000Y-41675000D01*
X16900000Y-41825000D01*
X16899639Y-41832351D01*
X16898559Y-41839632D01*
X16896771Y-41846771D01*
X16894291Y-41853701D01*
X16891144Y-41860355D01*
X16887360Y-41866668D01*
X16882976Y-41872579D01*
X16878033Y-41878033D01*
X16872579Y-41882976D01*
X16866668Y-41887360D01*
X16860355Y-41891144D01*
X16853701Y-41894291D01*
X16846771Y-41896771D01*
X16839632Y-41898559D01*
X16832351Y-41899639D01*
X16825000Y-41900000D01*
X15500000Y-41900000D01*
X15492649Y-41899639D01*
X15485368Y-41898559D01*
X15478229Y-41896771D01*
X15471299Y-41894291D01*
X15464645Y-41891144D01*
X15458332Y-41887360D01*
X15452421Y-41882976D01*
X15446967Y-41878033D01*
X15442024Y-41872579D01*
X15437640Y-41866668D01*
X15433856Y-41860355D01*
X15430709Y-41853701D01*
X15428229Y-41846771D01*
X15426441Y-41839632D01*
X15425361Y-41832351D01*
X15425000Y-41825000D01*
X15425000Y-41675000D01*
X15425361Y-41667649D01*
X15426441Y-41660368D01*
X15428229Y-41653229D01*
X15430709Y-41646299D01*
X15433856Y-41639645D01*
X15437640Y-41633332D01*
X15442024Y-41627421D01*
X15446967Y-41621967D01*
X15452421Y-41617024D01*
X15458332Y-41612640D01*
X15464645Y-41608856D01*
X15471299Y-41605709D01*
X15478229Y-41603229D01*
X15485368Y-41601441D01*
X15492649Y-41600361D01*
X15500000Y-41600000D01*
X16825000Y-41600000D01*
X16832351Y-41600361D01*
X16832351Y-41600361D01*
G37*
D15*
X16162500Y-41750000D03*
D10*
G36*
X16832351Y-42100361D02*
G01*
X16839632Y-42101441D01*
X16846771Y-42103229D01*
X16853701Y-42105709D01*
X16860355Y-42108856D01*
X16866668Y-42112640D01*
X16872579Y-42117024D01*
X16878033Y-42121967D01*
X16882976Y-42127421D01*
X16887360Y-42133332D01*
X16891144Y-42139645D01*
X16894291Y-42146299D01*
X16896771Y-42153229D01*
X16898559Y-42160368D01*
X16899639Y-42167649D01*
X16900000Y-42175000D01*
X16900000Y-42325000D01*
X16899639Y-42332351D01*
X16898559Y-42339632D01*
X16896771Y-42346771D01*
X16894291Y-42353701D01*
X16891144Y-42360355D01*
X16887360Y-42366668D01*
X16882976Y-42372579D01*
X16878033Y-42378033D01*
X16872579Y-42382976D01*
X16866668Y-42387360D01*
X16860355Y-42391144D01*
X16853701Y-42394291D01*
X16846771Y-42396771D01*
X16839632Y-42398559D01*
X16832351Y-42399639D01*
X16825000Y-42400000D01*
X15500000Y-42400000D01*
X15492649Y-42399639D01*
X15485368Y-42398559D01*
X15478229Y-42396771D01*
X15471299Y-42394291D01*
X15464645Y-42391144D01*
X15458332Y-42387360D01*
X15452421Y-42382976D01*
X15446967Y-42378033D01*
X15442024Y-42372579D01*
X15437640Y-42366668D01*
X15433856Y-42360355D01*
X15430709Y-42353701D01*
X15428229Y-42346771D01*
X15426441Y-42339632D01*
X15425361Y-42332351D01*
X15425000Y-42325000D01*
X15425000Y-42175000D01*
X15425361Y-42167649D01*
X15426441Y-42160368D01*
X15428229Y-42153229D01*
X15430709Y-42146299D01*
X15433856Y-42139645D01*
X15437640Y-42133332D01*
X15442024Y-42127421D01*
X15446967Y-42121967D01*
X15452421Y-42117024D01*
X15458332Y-42112640D01*
X15464645Y-42108856D01*
X15471299Y-42105709D01*
X15478229Y-42103229D01*
X15485368Y-42101441D01*
X15492649Y-42100361D01*
X15500000Y-42100000D01*
X16825000Y-42100000D01*
X16832351Y-42100361D01*
X16832351Y-42100361D01*
G37*
D15*
X16162500Y-42250000D03*
D10*
G36*
X16832351Y-42600361D02*
G01*
X16839632Y-42601441D01*
X16846771Y-42603229D01*
X16853701Y-42605709D01*
X16860355Y-42608856D01*
X16866668Y-42612640D01*
X16872579Y-42617024D01*
X16878033Y-42621967D01*
X16882976Y-42627421D01*
X16887360Y-42633332D01*
X16891144Y-42639645D01*
X16894291Y-42646299D01*
X16896771Y-42653229D01*
X16898559Y-42660368D01*
X16899639Y-42667649D01*
X16900000Y-42675000D01*
X16900000Y-42825000D01*
X16899639Y-42832351D01*
X16898559Y-42839632D01*
X16896771Y-42846771D01*
X16894291Y-42853701D01*
X16891144Y-42860355D01*
X16887360Y-42866668D01*
X16882976Y-42872579D01*
X16878033Y-42878033D01*
X16872579Y-42882976D01*
X16866668Y-42887360D01*
X16860355Y-42891144D01*
X16853701Y-42894291D01*
X16846771Y-42896771D01*
X16839632Y-42898559D01*
X16832351Y-42899639D01*
X16825000Y-42900000D01*
X15500000Y-42900000D01*
X15492649Y-42899639D01*
X15485368Y-42898559D01*
X15478229Y-42896771D01*
X15471299Y-42894291D01*
X15464645Y-42891144D01*
X15458332Y-42887360D01*
X15452421Y-42882976D01*
X15446967Y-42878033D01*
X15442024Y-42872579D01*
X15437640Y-42866668D01*
X15433856Y-42860355D01*
X15430709Y-42853701D01*
X15428229Y-42846771D01*
X15426441Y-42839632D01*
X15425361Y-42832351D01*
X15425000Y-42825000D01*
X15425000Y-42675000D01*
X15425361Y-42667649D01*
X15426441Y-42660368D01*
X15428229Y-42653229D01*
X15430709Y-42646299D01*
X15433856Y-42639645D01*
X15437640Y-42633332D01*
X15442024Y-42627421D01*
X15446967Y-42621967D01*
X15452421Y-42617024D01*
X15458332Y-42612640D01*
X15464645Y-42608856D01*
X15471299Y-42605709D01*
X15478229Y-42603229D01*
X15485368Y-42601441D01*
X15492649Y-42600361D01*
X15500000Y-42600000D01*
X16825000Y-42600000D01*
X16832351Y-42600361D01*
X16832351Y-42600361D01*
G37*
D15*
X16162500Y-42750000D03*
D10*
G36*
X14832351Y-43425361D02*
G01*
X14839632Y-43426441D01*
X14846771Y-43428229D01*
X14853701Y-43430709D01*
X14860355Y-43433856D01*
X14866668Y-43437640D01*
X14872579Y-43442024D01*
X14878033Y-43446967D01*
X14882976Y-43452421D01*
X14887360Y-43458332D01*
X14891144Y-43464645D01*
X14894291Y-43471299D01*
X14896771Y-43478229D01*
X14898559Y-43485368D01*
X14899639Y-43492649D01*
X14900000Y-43500000D01*
X14900000Y-44825000D01*
X14899639Y-44832351D01*
X14898559Y-44839632D01*
X14896771Y-44846771D01*
X14894291Y-44853701D01*
X14891144Y-44860355D01*
X14887360Y-44866668D01*
X14882976Y-44872579D01*
X14878033Y-44878033D01*
X14872579Y-44882976D01*
X14866668Y-44887360D01*
X14860355Y-44891144D01*
X14853701Y-44894291D01*
X14846771Y-44896771D01*
X14839632Y-44898559D01*
X14832351Y-44899639D01*
X14825000Y-44900000D01*
X14675000Y-44900000D01*
X14667649Y-44899639D01*
X14660368Y-44898559D01*
X14653229Y-44896771D01*
X14646299Y-44894291D01*
X14639645Y-44891144D01*
X14633332Y-44887360D01*
X14627421Y-44882976D01*
X14621967Y-44878033D01*
X14617024Y-44872579D01*
X14612640Y-44866668D01*
X14608856Y-44860355D01*
X14605709Y-44853701D01*
X14603229Y-44846771D01*
X14601441Y-44839632D01*
X14600361Y-44832351D01*
X14600000Y-44825000D01*
X14600000Y-43500000D01*
X14600361Y-43492649D01*
X14601441Y-43485368D01*
X14603229Y-43478229D01*
X14605709Y-43471299D01*
X14608856Y-43464645D01*
X14612640Y-43458332D01*
X14617024Y-43452421D01*
X14621967Y-43446967D01*
X14627421Y-43442024D01*
X14633332Y-43437640D01*
X14639645Y-43433856D01*
X14646299Y-43430709D01*
X14653229Y-43428229D01*
X14660368Y-43426441D01*
X14667649Y-43425361D01*
X14675000Y-43425000D01*
X14825000Y-43425000D01*
X14832351Y-43425361D01*
X14832351Y-43425361D01*
G37*
D15*
X14750000Y-44162500D03*
D10*
G36*
X14332351Y-43425361D02*
G01*
X14339632Y-43426441D01*
X14346771Y-43428229D01*
X14353701Y-43430709D01*
X14360355Y-43433856D01*
X14366668Y-43437640D01*
X14372579Y-43442024D01*
X14378033Y-43446967D01*
X14382976Y-43452421D01*
X14387360Y-43458332D01*
X14391144Y-43464645D01*
X14394291Y-43471299D01*
X14396771Y-43478229D01*
X14398559Y-43485368D01*
X14399639Y-43492649D01*
X14400000Y-43500000D01*
X14400000Y-44825000D01*
X14399639Y-44832351D01*
X14398559Y-44839632D01*
X14396771Y-44846771D01*
X14394291Y-44853701D01*
X14391144Y-44860355D01*
X14387360Y-44866668D01*
X14382976Y-44872579D01*
X14378033Y-44878033D01*
X14372579Y-44882976D01*
X14366668Y-44887360D01*
X14360355Y-44891144D01*
X14353701Y-44894291D01*
X14346771Y-44896771D01*
X14339632Y-44898559D01*
X14332351Y-44899639D01*
X14325000Y-44900000D01*
X14175000Y-44900000D01*
X14167649Y-44899639D01*
X14160368Y-44898559D01*
X14153229Y-44896771D01*
X14146299Y-44894291D01*
X14139645Y-44891144D01*
X14133332Y-44887360D01*
X14127421Y-44882976D01*
X14121967Y-44878033D01*
X14117024Y-44872579D01*
X14112640Y-44866668D01*
X14108856Y-44860355D01*
X14105709Y-44853701D01*
X14103229Y-44846771D01*
X14101441Y-44839632D01*
X14100361Y-44832351D01*
X14100000Y-44825000D01*
X14100000Y-43500000D01*
X14100361Y-43492649D01*
X14101441Y-43485368D01*
X14103229Y-43478229D01*
X14105709Y-43471299D01*
X14108856Y-43464645D01*
X14112640Y-43458332D01*
X14117024Y-43452421D01*
X14121967Y-43446967D01*
X14127421Y-43442024D01*
X14133332Y-43437640D01*
X14139645Y-43433856D01*
X14146299Y-43430709D01*
X14153229Y-43428229D01*
X14160368Y-43426441D01*
X14167649Y-43425361D01*
X14175000Y-43425000D01*
X14325000Y-43425000D01*
X14332351Y-43425361D01*
X14332351Y-43425361D01*
G37*
D15*
X14250000Y-44162500D03*
D10*
G36*
X13832351Y-43425361D02*
G01*
X13839632Y-43426441D01*
X13846771Y-43428229D01*
X13853701Y-43430709D01*
X13860355Y-43433856D01*
X13866668Y-43437640D01*
X13872579Y-43442024D01*
X13878033Y-43446967D01*
X13882976Y-43452421D01*
X13887360Y-43458332D01*
X13891144Y-43464645D01*
X13894291Y-43471299D01*
X13896771Y-43478229D01*
X13898559Y-43485368D01*
X13899639Y-43492649D01*
X13900000Y-43500000D01*
X13900000Y-44825000D01*
X13899639Y-44832351D01*
X13898559Y-44839632D01*
X13896771Y-44846771D01*
X13894291Y-44853701D01*
X13891144Y-44860355D01*
X13887360Y-44866668D01*
X13882976Y-44872579D01*
X13878033Y-44878033D01*
X13872579Y-44882976D01*
X13866668Y-44887360D01*
X13860355Y-44891144D01*
X13853701Y-44894291D01*
X13846771Y-44896771D01*
X13839632Y-44898559D01*
X13832351Y-44899639D01*
X13825000Y-44900000D01*
X13675000Y-44900000D01*
X13667649Y-44899639D01*
X13660368Y-44898559D01*
X13653229Y-44896771D01*
X13646299Y-44894291D01*
X13639645Y-44891144D01*
X13633332Y-44887360D01*
X13627421Y-44882976D01*
X13621967Y-44878033D01*
X13617024Y-44872579D01*
X13612640Y-44866668D01*
X13608856Y-44860355D01*
X13605709Y-44853701D01*
X13603229Y-44846771D01*
X13601441Y-44839632D01*
X13600361Y-44832351D01*
X13600000Y-44825000D01*
X13600000Y-43500000D01*
X13600361Y-43492649D01*
X13601441Y-43485368D01*
X13603229Y-43478229D01*
X13605709Y-43471299D01*
X13608856Y-43464645D01*
X13612640Y-43458332D01*
X13617024Y-43452421D01*
X13621967Y-43446967D01*
X13627421Y-43442024D01*
X13633332Y-43437640D01*
X13639645Y-43433856D01*
X13646299Y-43430709D01*
X13653229Y-43428229D01*
X13660368Y-43426441D01*
X13667649Y-43425361D01*
X13675000Y-43425000D01*
X13825000Y-43425000D01*
X13832351Y-43425361D01*
X13832351Y-43425361D01*
G37*
D15*
X13750000Y-44162500D03*
D10*
G36*
X13332351Y-43425361D02*
G01*
X13339632Y-43426441D01*
X13346771Y-43428229D01*
X13353701Y-43430709D01*
X13360355Y-43433856D01*
X13366668Y-43437640D01*
X13372579Y-43442024D01*
X13378033Y-43446967D01*
X13382976Y-43452421D01*
X13387360Y-43458332D01*
X13391144Y-43464645D01*
X13394291Y-43471299D01*
X13396771Y-43478229D01*
X13398559Y-43485368D01*
X13399639Y-43492649D01*
X13400000Y-43500000D01*
X13400000Y-44825000D01*
X13399639Y-44832351D01*
X13398559Y-44839632D01*
X13396771Y-44846771D01*
X13394291Y-44853701D01*
X13391144Y-44860355D01*
X13387360Y-44866668D01*
X13382976Y-44872579D01*
X13378033Y-44878033D01*
X13372579Y-44882976D01*
X13366668Y-44887360D01*
X13360355Y-44891144D01*
X13353701Y-44894291D01*
X13346771Y-44896771D01*
X13339632Y-44898559D01*
X13332351Y-44899639D01*
X13325000Y-44900000D01*
X13175000Y-44900000D01*
X13167649Y-44899639D01*
X13160368Y-44898559D01*
X13153229Y-44896771D01*
X13146299Y-44894291D01*
X13139645Y-44891144D01*
X13133332Y-44887360D01*
X13127421Y-44882976D01*
X13121967Y-44878033D01*
X13117024Y-44872579D01*
X13112640Y-44866668D01*
X13108856Y-44860355D01*
X13105709Y-44853701D01*
X13103229Y-44846771D01*
X13101441Y-44839632D01*
X13100361Y-44832351D01*
X13100000Y-44825000D01*
X13100000Y-43500000D01*
X13100361Y-43492649D01*
X13101441Y-43485368D01*
X13103229Y-43478229D01*
X13105709Y-43471299D01*
X13108856Y-43464645D01*
X13112640Y-43458332D01*
X13117024Y-43452421D01*
X13121967Y-43446967D01*
X13127421Y-43442024D01*
X13133332Y-43437640D01*
X13139645Y-43433856D01*
X13146299Y-43430709D01*
X13153229Y-43428229D01*
X13160368Y-43426441D01*
X13167649Y-43425361D01*
X13175000Y-43425000D01*
X13325000Y-43425000D01*
X13332351Y-43425361D01*
X13332351Y-43425361D01*
G37*
D15*
X13250000Y-44162500D03*
D10*
G36*
X12832351Y-43425361D02*
G01*
X12839632Y-43426441D01*
X12846771Y-43428229D01*
X12853701Y-43430709D01*
X12860355Y-43433856D01*
X12866668Y-43437640D01*
X12872579Y-43442024D01*
X12878033Y-43446967D01*
X12882976Y-43452421D01*
X12887360Y-43458332D01*
X12891144Y-43464645D01*
X12894291Y-43471299D01*
X12896771Y-43478229D01*
X12898559Y-43485368D01*
X12899639Y-43492649D01*
X12900000Y-43500000D01*
X12900000Y-44825000D01*
X12899639Y-44832351D01*
X12898559Y-44839632D01*
X12896771Y-44846771D01*
X12894291Y-44853701D01*
X12891144Y-44860355D01*
X12887360Y-44866668D01*
X12882976Y-44872579D01*
X12878033Y-44878033D01*
X12872579Y-44882976D01*
X12866668Y-44887360D01*
X12860355Y-44891144D01*
X12853701Y-44894291D01*
X12846771Y-44896771D01*
X12839632Y-44898559D01*
X12832351Y-44899639D01*
X12825000Y-44900000D01*
X12675000Y-44900000D01*
X12667649Y-44899639D01*
X12660368Y-44898559D01*
X12653229Y-44896771D01*
X12646299Y-44894291D01*
X12639645Y-44891144D01*
X12633332Y-44887360D01*
X12627421Y-44882976D01*
X12621967Y-44878033D01*
X12617024Y-44872579D01*
X12612640Y-44866668D01*
X12608856Y-44860355D01*
X12605709Y-44853701D01*
X12603229Y-44846771D01*
X12601441Y-44839632D01*
X12600361Y-44832351D01*
X12600000Y-44825000D01*
X12600000Y-43500000D01*
X12600361Y-43492649D01*
X12601441Y-43485368D01*
X12603229Y-43478229D01*
X12605709Y-43471299D01*
X12608856Y-43464645D01*
X12612640Y-43458332D01*
X12617024Y-43452421D01*
X12621967Y-43446967D01*
X12627421Y-43442024D01*
X12633332Y-43437640D01*
X12639645Y-43433856D01*
X12646299Y-43430709D01*
X12653229Y-43428229D01*
X12660368Y-43426441D01*
X12667649Y-43425361D01*
X12675000Y-43425000D01*
X12825000Y-43425000D01*
X12832351Y-43425361D01*
X12832351Y-43425361D01*
G37*
D15*
X12750000Y-44162500D03*
D10*
G36*
X12332351Y-43425361D02*
G01*
X12339632Y-43426441D01*
X12346771Y-43428229D01*
X12353701Y-43430709D01*
X12360355Y-43433856D01*
X12366668Y-43437640D01*
X12372579Y-43442024D01*
X12378033Y-43446967D01*
X12382976Y-43452421D01*
X12387360Y-43458332D01*
X12391144Y-43464645D01*
X12394291Y-43471299D01*
X12396771Y-43478229D01*
X12398559Y-43485368D01*
X12399639Y-43492649D01*
X12400000Y-43500000D01*
X12400000Y-44825000D01*
X12399639Y-44832351D01*
X12398559Y-44839632D01*
X12396771Y-44846771D01*
X12394291Y-44853701D01*
X12391144Y-44860355D01*
X12387360Y-44866668D01*
X12382976Y-44872579D01*
X12378033Y-44878033D01*
X12372579Y-44882976D01*
X12366668Y-44887360D01*
X12360355Y-44891144D01*
X12353701Y-44894291D01*
X12346771Y-44896771D01*
X12339632Y-44898559D01*
X12332351Y-44899639D01*
X12325000Y-44900000D01*
X12175000Y-44900000D01*
X12167649Y-44899639D01*
X12160368Y-44898559D01*
X12153229Y-44896771D01*
X12146299Y-44894291D01*
X12139645Y-44891144D01*
X12133332Y-44887360D01*
X12127421Y-44882976D01*
X12121967Y-44878033D01*
X12117024Y-44872579D01*
X12112640Y-44866668D01*
X12108856Y-44860355D01*
X12105709Y-44853701D01*
X12103229Y-44846771D01*
X12101441Y-44839632D01*
X12100361Y-44832351D01*
X12100000Y-44825000D01*
X12100000Y-43500000D01*
X12100361Y-43492649D01*
X12101441Y-43485368D01*
X12103229Y-43478229D01*
X12105709Y-43471299D01*
X12108856Y-43464645D01*
X12112640Y-43458332D01*
X12117024Y-43452421D01*
X12121967Y-43446967D01*
X12127421Y-43442024D01*
X12133332Y-43437640D01*
X12139645Y-43433856D01*
X12146299Y-43430709D01*
X12153229Y-43428229D01*
X12160368Y-43426441D01*
X12167649Y-43425361D01*
X12175000Y-43425000D01*
X12325000Y-43425000D01*
X12332351Y-43425361D01*
X12332351Y-43425361D01*
G37*
D15*
X12250000Y-44162500D03*
D10*
G36*
X11832351Y-43425361D02*
G01*
X11839632Y-43426441D01*
X11846771Y-43428229D01*
X11853701Y-43430709D01*
X11860355Y-43433856D01*
X11866668Y-43437640D01*
X11872579Y-43442024D01*
X11878033Y-43446967D01*
X11882976Y-43452421D01*
X11887360Y-43458332D01*
X11891144Y-43464645D01*
X11894291Y-43471299D01*
X11896771Y-43478229D01*
X11898559Y-43485368D01*
X11899639Y-43492649D01*
X11900000Y-43500000D01*
X11900000Y-44825000D01*
X11899639Y-44832351D01*
X11898559Y-44839632D01*
X11896771Y-44846771D01*
X11894291Y-44853701D01*
X11891144Y-44860355D01*
X11887360Y-44866668D01*
X11882976Y-44872579D01*
X11878033Y-44878033D01*
X11872579Y-44882976D01*
X11866668Y-44887360D01*
X11860355Y-44891144D01*
X11853701Y-44894291D01*
X11846771Y-44896771D01*
X11839632Y-44898559D01*
X11832351Y-44899639D01*
X11825000Y-44900000D01*
X11675000Y-44900000D01*
X11667649Y-44899639D01*
X11660368Y-44898559D01*
X11653229Y-44896771D01*
X11646299Y-44894291D01*
X11639645Y-44891144D01*
X11633332Y-44887360D01*
X11627421Y-44882976D01*
X11621967Y-44878033D01*
X11617024Y-44872579D01*
X11612640Y-44866668D01*
X11608856Y-44860355D01*
X11605709Y-44853701D01*
X11603229Y-44846771D01*
X11601441Y-44839632D01*
X11600361Y-44832351D01*
X11600000Y-44825000D01*
X11600000Y-43500000D01*
X11600361Y-43492649D01*
X11601441Y-43485368D01*
X11603229Y-43478229D01*
X11605709Y-43471299D01*
X11608856Y-43464645D01*
X11612640Y-43458332D01*
X11617024Y-43452421D01*
X11621967Y-43446967D01*
X11627421Y-43442024D01*
X11633332Y-43437640D01*
X11639645Y-43433856D01*
X11646299Y-43430709D01*
X11653229Y-43428229D01*
X11660368Y-43426441D01*
X11667649Y-43425361D01*
X11675000Y-43425000D01*
X11825000Y-43425000D01*
X11832351Y-43425361D01*
X11832351Y-43425361D01*
G37*
D15*
X11750000Y-44162500D03*
D10*
G36*
X11332351Y-43425361D02*
G01*
X11339632Y-43426441D01*
X11346771Y-43428229D01*
X11353701Y-43430709D01*
X11360355Y-43433856D01*
X11366668Y-43437640D01*
X11372579Y-43442024D01*
X11378033Y-43446967D01*
X11382976Y-43452421D01*
X11387360Y-43458332D01*
X11391144Y-43464645D01*
X11394291Y-43471299D01*
X11396771Y-43478229D01*
X11398559Y-43485368D01*
X11399639Y-43492649D01*
X11400000Y-43500000D01*
X11400000Y-44825000D01*
X11399639Y-44832351D01*
X11398559Y-44839632D01*
X11396771Y-44846771D01*
X11394291Y-44853701D01*
X11391144Y-44860355D01*
X11387360Y-44866668D01*
X11382976Y-44872579D01*
X11378033Y-44878033D01*
X11372579Y-44882976D01*
X11366668Y-44887360D01*
X11360355Y-44891144D01*
X11353701Y-44894291D01*
X11346771Y-44896771D01*
X11339632Y-44898559D01*
X11332351Y-44899639D01*
X11325000Y-44900000D01*
X11175000Y-44900000D01*
X11167649Y-44899639D01*
X11160368Y-44898559D01*
X11153229Y-44896771D01*
X11146299Y-44894291D01*
X11139645Y-44891144D01*
X11133332Y-44887360D01*
X11127421Y-44882976D01*
X11121967Y-44878033D01*
X11117024Y-44872579D01*
X11112640Y-44866668D01*
X11108856Y-44860355D01*
X11105709Y-44853701D01*
X11103229Y-44846771D01*
X11101441Y-44839632D01*
X11100361Y-44832351D01*
X11100000Y-44825000D01*
X11100000Y-43500000D01*
X11100361Y-43492649D01*
X11101441Y-43485368D01*
X11103229Y-43478229D01*
X11105709Y-43471299D01*
X11108856Y-43464645D01*
X11112640Y-43458332D01*
X11117024Y-43452421D01*
X11121967Y-43446967D01*
X11127421Y-43442024D01*
X11133332Y-43437640D01*
X11139645Y-43433856D01*
X11146299Y-43430709D01*
X11153229Y-43428229D01*
X11160368Y-43426441D01*
X11167649Y-43425361D01*
X11175000Y-43425000D01*
X11325000Y-43425000D01*
X11332351Y-43425361D01*
X11332351Y-43425361D01*
G37*
D15*
X11250000Y-44162500D03*
D10*
G36*
X10832351Y-43425361D02*
G01*
X10839632Y-43426441D01*
X10846771Y-43428229D01*
X10853701Y-43430709D01*
X10860355Y-43433856D01*
X10866668Y-43437640D01*
X10872579Y-43442024D01*
X10878033Y-43446967D01*
X10882976Y-43452421D01*
X10887360Y-43458332D01*
X10891144Y-43464645D01*
X10894291Y-43471299D01*
X10896771Y-43478229D01*
X10898559Y-43485368D01*
X10899639Y-43492649D01*
X10900000Y-43500000D01*
X10900000Y-44825000D01*
X10899639Y-44832351D01*
X10898559Y-44839632D01*
X10896771Y-44846771D01*
X10894291Y-44853701D01*
X10891144Y-44860355D01*
X10887360Y-44866668D01*
X10882976Y-44872579D01*
X10878033Y-44878033D01*
X10872579Y-44882976D01*
X10866668Y-44887360D01*
X10860355Y-44891144D01*
X10853701Y-44894291D01*
X10846771Y-44896771D01*
X10839632Y-44898559D01*
X10832351Y-44899639D01*
X10825000Y-44900000D01*
X10675000Y-44900000D01*
X10667649Y-44899639D01*
X10660368Y-44898559D01*
X10653229Y-44896771D01*
X10646299Y-44894291D01*
X10639645Y-44891144D01*
X10633332Y-44887360D01*
X10627421Y-44882976D01*
X10621967Y-44878033D01*
X10617024Y-44872579D01*
X10612640Y-44866668D01*
X10608856Y-44860355D01*
X10605709Y-44853701D01*
X10603229Y-44846771D01*
X10601441Y-44839632D01*
X10600361Y-44832351D01*
X10600000Y-44825000D01*
X10600000Y-43500000D01*
X10600361Y-43492649D01*
X10601441Y-43485368D01*
X10603229Y-43478229D01*
X10605709Y-43471299D01*
X10608856Y-43464645D01*
X10612640Y-43458332D01*
X10617024Y-43452421D01*
X10621967Y-43446967D01*
X10627421Y-43442024D01*
X10633332Y-43437640D01*
X10639645Y-43433856D01*
X10646299Y-43430709D01*
X10653229Y-43428229D01*
X10660368Y-43426441D01*
X10667649Y-43425361D01*
X10675000Y-43425000D01*
X10825000Y-43425000D01*
X10832351Y-43425361D01*
X10832351Y-43425361D01*
G37*
D15*
X10750000Y-44162500D03*
D10*
G36*
X10332351Y-43425361D02*
G01*
X10339632Y-43426441D01*
X10346771Y-43428229D01*
X10353701Y-43430709D01*
X10360355Y-43433856D01*
X10366668Y-43437640D01*
X10372579Y-43442024D01*
X10378033Y-43446967D01*
X10382976Y-43452421D01*
X10387360Y-43458332D01*
X10391144Y-43464645D01*
X10394291Y-43471299D01*
X10396771Y-43478229D01*
X10398559Y-43485368D01*
X10399639Y-43492649D01*
X10400000Y-43500000D01*
X10400000Y-44825000D01*
X10399639Y-44832351D01*
X10398559Y-44839632D01*
X10396771Y-44846771D01*
X10394291Y-44853701D01*
X10391144Y-44860355D01*
X10387360Y-44866668D01*
X10382976Y-44872579D01*
X10378033Y-44878033D01*
X10372579Y-44882976D01*
X10366668Y-44887360D01*
X10360355Y-44891144D01*
X10353701Y-44894291D01*
X10346771Y-44896771D01*
X10339632Y-44898559D01*
X10332351Y-44899639D01*
X10325000Y-44900000D01*
X10175000Y-44900000D01*
X10167649Y-44899639D01*
X10160368Y-44898559D01*
X10153229Y-44896771D01*
X10146299Y-44894291D01*
X10139645Y-44891144D01*
X10133332Y-44887360D01*
X10127421Y-44882976D01*
X10121967Y-44878033D01*
X10117024Y-44872579D01*
X10112640Y-44866668D01*
X10108856Y-44860355D01*
X10105709Y-44853701D01*
X10103229Y-44846771D01*
X10101441Y-44839632D01*
X10100361Y-44832351D01*
X10100000Y-44825000D01*
X10100000Y-43500000D01*
X10100361Y-43492649D01*
X10101441Y-43485368D01*
X10103229Y-43478229D01*
X10105709Y-43471299D01*
X10108856Y-43464645D01*
X10112640Y-43458332D01*
X10117024Y-43452421D01*
X10121967Y-43446967D01*
X10127421Y-43442024D01*
X10133332Y-43437640D01*
X10139645Y-43433856D01*
X10146299Y-43430709D01*
X10153229Y-43428229D01*
X10160368Y-43426441D01*
X10167649Y-43425361D01*
X10175000Y-43425000D01*
X10325000Y-43425000D01*
X10332351Y-43425361D01*
X10332351Y-43425361D01*
G37*
D15*
X10250000Y-44162500D03*
D10*
G36*
X9832351Y-43425361D02*
G01*
X9839632Y-43426441D01*
X9846771Y-43428229D01*
X9853701Y-43430709D01*
X9860355Y-43433856D01*
X9866668Y-43437640D01*
X9872579Y-43442024D01*
X9878033Y-43446967D01*
X9882976Y-43452421D01*
X9887360Y-43458332D01*
X9891144Y-43464645D01*
X9894291Y-43471299D01*
X9896771Y-43478229D01*
X9898559Y-43485368D01*
X9899639Y-43492649D01*
X9900000Y-43500000D01*
X9900000Y-44825000D01*
X9899639Y-44832351D01*
X9898559Y-44839632D01*
X9896771Y-44846771D01*
X9894291Y-44853701D01*
X9891144Y-44860355D01*
X9887360Y-44866668D01*
X9882976Y-44872579D01*
X9878033Y-44878033D01*
X9872579Y-44882976D01*
X9866668Y-44887360D01*
X9860355Y-44891144D01*
X9853701Y-44894291D01*
X9846771Y-44896771D01*
X9839632Y-44898559D01*
X9832351Y-44899639D01*
X9825000Y-44900000D01*
X9675000Y-44900000D01*
X9667649Y-44899639D01*
X9660368Y-44898559D01*
X9653229Y-44896771D01*
X9646299Y-44894291D01*
X9639645Y-44891144D01*
X9633332Y-44887360D01*
X9627421Y-44882976D01*
X9621967Y-44878033D01*
X9617024Y-44872579D01*
X9612640Y-44866668D01*
X9608856Y-44860355D01*
X9605709Y-44853701D01*
X9603229Y-44846771D01*
X9601441Y-44839632D01*
X9600361Y-44832351D01*
X9600000Y-44825000D01*
X9600000Y-43500000D01*
X9600361Y-43492649D01*
X9601441Y-43485368D01*
X9603229Y-43478229D01*
X9605709Y-43471299D01*
X9608856Y-43464645D01*
X9612640Y-43458332D01*
X9617024Y-43452421D01*
X9621967Y-43446967D01*
X9627421Y-43442024D01*
X9633332Y-43437640D01*
X9639645Y-43433856D01*
X9646299Y-43430709D01*
X9653229Y-43428229D01*
X9660368Y-43426441D01*
X9667649Y-43425361D01*
X9675000Y-43425000D01*
X9825000Y-43425000D01*
X9832351Y-43425361D01*
X9832351Y-43425361D01*
G37*
D15*
X9750000Y-44162500D03*
D10*
G36*
X9332351Y-43425361D02*
G01*
X9339632Y-43426441D01*
X9346771Y-43428229D01*
X9353701Y-43430709D01*
X9360355Y-43433856D01*
X9366668Y-43437640D01*
X9372579Y-43442024D01*
X9378033Y-43446967D01*
X9382976Y-43452421D01*
X9387360Y-43458332D01*
X9391144Y-43464645D01*
X9394291Y-43471299D01*
X9396771Y-43478229D01*
X9398559Y-43485368D01*
X9399639Y-43492649D01*
X9400000Y-43500000D01*
X9400000Y-44825000D01*
X9399639Y-44832351D01*
X9398559Y-44839632D01*
X9396771Y-44846771D01*
X9394291Y-44853701D01*
X9391144Y-44860355D01*
X9387360Y-44866668D01*
X9382976Y-44872579D01*
X9378033Y-44878033D01*
X9372579Y-44882976D01*
X9366668Y-44887360D01*
X9360355Y-44891144D01*
X9353701Y-44894291D01*
X9346771Y-44896771D01*
X9339632Y-44898559D01*
X9332351Y-44899639D01*
X9325000Y-44900000D01*
X9175000Y-44900000D01*
X9167649Y-44899639D01*
X9160368Y-44898559D01*
X9153229Y-44896771D01*
X9146299Y-44894291D01*
X9139645Y-44891144D01*
X9133332Y-44887360D01*
X9127421Y-44882976D01*
X9121967Y-44878033D01*
X9117024Y-44872579D01*
X9112640Y-44866668D01*
X9108856Y-44860355D01*
X9105709Y-44853701D01*
X9103229Y-44846771D01*
X9101441Y-44839632D01*
X9100361Y-44832351D01*
X9100000Y-44825000D01*
X9100000Y-43500000D01*
X9100361Y-43492649D01*
X9101441Y-43485368D01*
X9103229Y-43478229D01*
X9105709Y-43471299D01*
X9108856Y-43464645D01*
X9112640Y-43458332D01*
X9117024Y-43452421D01*
X9121967Y-43446967D01*
X9127421Y-43442024D01*
X9133332Y-43437640D01*
X9139645Y-43433856D01*
X9146299Y-43430709D01*
X9153229Y-43428229D01*
X9160368Y-43426441D01*
X9167649Y-43425361D01*
X9175000Y-43425000D01*
X9325000Y-43425000D01*
X9332351Y-43425361D01*
X9332351Y-43425361D01*
G37*
D15*
X9250000Y-44162500D03*
D16*
X10000000Y-15700000D03*
X8100000Y-15700000D03*
X8100000Y-13500000D03*
X9050000Y-13500000D03*
X10000000Y-13500000D03*
D17*
X9775000Y-6695000D03*
X16225000Y-6695000D03*
X10550000Y-6695000D03*
X15450000Y-6695000D03*
D18*
X14750000Y-6695000D03*
X11250000Y-6695000D03*
X14250000Y-6695000D03*
X11750000Y-6695000D03*
X13750000Y-6695000D03*
X12250000Y-6695000D03*
X12750000Y-6695000D03*
X13250000Y-6695000D03*
M02*
