M48
INCH
T1C0.0118
T2C0.0157
T3C0.0197
T4C0.0236
T5C0.0394
T6C0.0433
T7C0.1063
%
G90
G05
T1
X0.0613Y-0.3151
X0.063Y-0.7503
X0.0671Y-3.5117
X0.0686Y-1.0242
X0.0687Y-0.6057
X0.0711Y-1.1618
X0.0729Y-3.3717
X0.0735Y-0.8765
X0.0742Y-0.4509
X0.0773Y-1.3152
X0.1329Y-3.5801
X0.1341Y-0.5331
X0.1343Y-1.2428
X0.1397Y-2.2591
X0.1426Y-0.9606
X0.1434Y-2.8022
X0.1443Y-0.8199
X0.1466Y-0.6697
X0.1477Y-0.385
X0.1483Y-1.0959
X0.1711Y-3.4684
X0.1778Y-1.3896
X0.2087Y-0.8868
X0.2107Y-0.6014
X0.215Y-0.7401
X0.2157Y-0.4572
X0.2159Y-1.0333
X0.2192Y-1.1614
X0.2404Y-3.0417
X0.2418Y-2.7583
X0.2468Y-1.877
X0.2491Y-3.5505
X0.2493Y-3.3604
X0.2504Y-2.3059
X0.2792Y-0.9602
X0.2831Y-2.6142
X0.2869Y-2.8744
X0.2878Y-0.8179
X0.3119Y-3.8264
X0.3177Y-3.6412
X0.389Y-1.5226
X0.3957Y-3.7122
X0.4192Y-0.0671
X0.4226Y-3.5002
X0.4231Y-1.635
X0.4287Y-3.3564
X0.4313Y-3.2153
X0.4612Y-3.789
X0.4616Y-1.1707
X0.4885Y-0.1458
X0.4911Y-3.1528
X0.4928Y-1.486
X0.4979Y-3.5831
X0.4985Y-3.2898
X0.5023Y-3.4347
X0.5219Y-2.1294
X0.5313Y-1.5961
X0.5351Y-2.5527
X0.5575Y-3.6466
X0.5594Y-0.0769
X0.6282Y-1.175
X0.6352Y-3.3632
X0.6356Y-0.5362
X0.6642Y-3.1114
X0.6732Y-3.4684
X0.6992Y-2.3689
X0.7005Y-2.6838
X0.7012Y-0.3206
X0.7029Y-1.0317
X0.704Y-1.8789
X0.7059Y-2.236
X0.7085Y-0.8776
X0.7097Y-2.0896
X0.7106Y-0.5956
X0.7137Y-0.7517
X0.7434Y-3.1862
X0.7434Y-1.1297
X0.7438Y-1.6671
X0.7448Y-0.1741
X0.7451Y-3.5417
X0.7719Y-2.4431
X0.7719Y-1.774
X0.7732Y-2.3025
X0.7748Y-0.9555
X0.7773Y-2.8255
X0.7774Y-0.8181
X0.7811Y-2.1527
X0.7822Y-0.0612
X0.7823Y-0.5247
X0.783Y-3.2928
X0.7872Y-0.3809
X0.8125Y-1.0573
X0.8141Y-2.0605
X0.8156Y-0.2441
X0.817Y-3.4732
X0.8221Y-1.1954
X0.8422Y-1.8352
X0.8425Y-1.6252
X0.8428Y-2.9059
X0.8456Y-2.2257
X0.8468Y-0.1417
X0.8503Y-0.8902
X0.8525Y-0.4637
X0.8554Y-0.6037
X0.8578Y-2.3718
X0.8788Y-0.3113
X0.8812Y-0.6996
X0.8823Y-1.9898
X0.8833Y-2.5501
X0.8888Y-2.1258
X0.8926Y-1.7409
X0.9178Y-3.5046
X0.9208Y-0.2188
X0.9208Y-2.3061
X0.9258Y-0.0685
X0.9269Y-2.9746
X0.9474Y-1.0617
X0.9487Y-1.917
X0.9488Y-1.6568
X0.9563Y-3.8267
X0.9598Y-2.0501
X0.9618Y-0.9272
X0.9618Y-2.4029
X0.962Y-2.1899
X0.9827Y-3.5824
X0.983Y-2.9049
X0.9848Y-0.1468
X0.9864Y-0.2869
X0.9919Y-3.4316
X0.9984Y-3.0474
X1.0182Y-1.8477
X1.0217Y-2.6296
X1.022Y-2.1182
X1.0223Y-2.259
X1.023Y-1.491
X1.0236Y-0.9982
X1.0252Y-2.4784
X1.0258Y-0.6782
X1.0319Y-0.8072
X1.0332Y-1.9772
X1.0556Y-2.9731
X1.0578Y-2.3686
X1.0593Y-0.2044
X1.0608Y-3.3269
X1.061Y-2.7346
X1.0628Y-3.1095
X1.0662Y-0.3489
X1.0683Y-0.068
X1.0893Y-0.4565
X1.0896Y-1.3465
X1.0991Y-2.0498
X1.1016Y-2.1926
X1.1021Y-3.6428
X1.1046Y-1.7686
X1.1056Y-1.9186
X1.125Y-0.2903
X1.1276Y-3.0489
X1.1307Y-0.7741
X1.1308Y-0.633
X1.1312Y-0.1458
X1.1324Y-0.9145
X1.1342Y-2.299
X1.1363Y-2.904
X1.1366Y-2.4509
X1.1386Y-1.4499
X1.1602Y-3.8245
X1.1622Y-0.3868
X1.1681Y-1.7022
X1.1695Y-3.2991
X1.1703Y-1.8365
X1.1951Y-0.0703
X1.2027Y-2.3702
X1.2029Y-2.9715
X1.2105Y-2.2321
X1.2111Y-3.1148
X1.2312Y-2.4818
X1.2312Y-1.7724
X1.2464Y-3.508
X1.2658Y-3.0522
X1.2701Y-2.9
X1.3025Y-0.1043
X1.3039Y-1.2431
X1.3044Y-2.33
X1.3078Y-0.6797
X1.3078Y-3.4395
X1.309Y-1.6377
X1.3125Y-2.6954
X1.3138Y-0.5348
X1.3161Y-3.8285
X1.3161Y-0.3975
X1.3169Y-1.3816
X1.3396Y-1.7429
X1.3432Y-3.1166
X1.3439Y-2.9683
X1.3479Y-2.4381
X1.3736Y-2.8757
X1.4084Y-3.7954
X1.4138Y-2.2039
X1.4156Y-1.8022
X1.417Y-0.0752
X1.4183Y-3.0399
X1.419Y-1.5925
X1.4209Y-2.3661
X1.4221Y-3.6126
X1.4431Y-2.948
X1.4441Y-3.1552
X1.445Y-2.8012
X1.4483Y-0.1776
X1.4531Y-2.4873
X1.4538Y-1.6988
X1.4787Y-1.0252
X1.4809Y-1.5269
X1.4821Y-1.872
X1.4829Y-0.4308
X1.4832Y-1.1596
X1.4858Y-0.5618
X1.4878Y-0.7419
X1.488Y-3.6763
X1.488Y-2.2724
X1.4883Y-0.8919
X1.4898Y-2.0974
X1.4901Y-0.2803
X1.5143Y-3.8216
X1.5153Y-3.0132
X1.516Y-2.4109
X1.5165Y-2.862
X1.5174Y-2.7294
X1.5184Y-1.6209
X1.525Y-1.7683
X1.5268Y-0.1026
X1.5313Y-1.9775
X1.5502Y-0.2199
X1.5526Y-0.9497
X1.5591Y-2.1688
X1.5599Y-1.4429
X1.565Y-0.3608
X1.5651Y-0.8196
X1.5655Y-1.0915
X1.5867Y-2.3041
X1.589Y-2.4849
X1.5897Y-2.6643
X1.5899Y-2.0567
X1.5905Y-3.2534
X1.5929Y-1.8379
X1.5967Y-2.7898
X1.5971Y-1.5598
X1.5983Y-1.7002
X1.5994Y-3.6164
X1.6003Y-2.9367
X1.6012Y-3.0878
X1.6235Y-3.3924
X1.6326Y-1.3876
X1.6327Y-0.0674
X1.633Y-0.2852
X1.6332Y-1.9452
X1.6555Y-2.7296
X1.6558Y-2.1296
X1.6573Y-3.0029
X1.6588Y-2.8619
X1.6597Y-2.5774
X1.6605Y-1.6309
X1.6618Y-1.4823
X1.6639Y-2.3673
X1.6664Y-1.7689
X1.6727Y-3.1544
X1.6953Y-1.8786
X1.6967Y-2.0177
X1.699Y-0.3512
X1.7014Y-2.2267
X1.7042Y-0.6452
X1.7055Y-0.7746
X1.7059Y-3.4988
X1.7061Y-0.4879
X1.7085Y-3.2951
X1.7288Y-1.7013
X1.7301Y-2.7962
X1.7379Y-1.172
X1.7381Y-1.5613
X1.7394Y-3.0871
X1.7409Y-0.8859
X1.7415Y-2.6618
X1.7419Y-2.9471
X1.7438Y-1.3062
X1.7624Y-2.3105
X1.769Y-2.5528
X1.7698Y-1.41
X1.7703Y-3.1917
X1.7705Y-2.0925
X1.771Y-1.803
X1.7755Y-0.7132
X1.7756Y-1.9521
X1.7983Y-1.6215
X1.803Y-3.4706
X1.8057Y-2.4097
X1.8065Y-2.7212
X1.808Y-2.868
X1.8082Y-1.2396
X1.8085Y-3.3267
X1.8098Y-3.007
X1.8099Y-2.1907
X1.8123Y-1.0929
X1.8332Y-1.7293
X1.8336Y-2.0175
X1.8375Y-1.3377
X1.8438Y-1.4863
X1.844Y-1.8741
X1.8454Y-3.1107
X1.8486Y-2.6134
X1.8489Y-0.3526
X1.8693Y-2.2598
X1.8705Y-2.4731
X1.8705Y-2.1186
X1.8727Y-0.6395
X1.8741Y-2.9408
X1.8751Y-3.5442
X1.8771Y-2.7936
X1.8782Y-3.3999
X1.8791Y-0.4576
X1.8802Y-3.2149
X1.881Y-0.9132
X1.8857Y-0.7775
X1.8858Y-1.1647
T2
X0.0866Y-2.2008
X0.1417Y-1.5472
X0.1417Y-1.5945
X0.1575Y-1.9409
X0.1622Y-1.4843
X0.2283Y-1.622
X0.3173Y-1.4196
X0.3346Y-1.8819
X0.3386Y-2.0472
X0.3425Y-1.0906
X0.3465Y-0.9882
X0.3504Y-0.7835
X0.3504Y-0.878
X0.4252Y-2.9173
X0.4291Y-0.7835
X0.4291Y-0.878
X0.4331Y-0.9921
X0.437Y-1.0866
X0.437Y-1.2717
X0.4409Y-0.3386
X0.5197Y-2.9882
X0.5315Y-0.7126
X0.5315Y-0.815
X0.5354Y-0.6299
X0.5354Y-0.9055
X0.5354Y-0.9921
X0.5354Y-1.0906
X0.5709Y-1.8819
X0.6024Y-3.0236
X0.6024Y-3.2441
X0.6063Y-0.3386
X0.6339Y-1.0945
X0.6378Y-0.6299
X0.6378Y-0.9094
X0.6378Y-0.9921
X0.6417Y-0.7126
X0.6417Y-0.815
X0.6752Y-2.8563
X0.689Y-2.9213
X0.6929Y-1.4094
X0.7756Y-3.8189
X0.7953Y-2.7087
X0.815Y-3.7323
X0.8386Y-2.7087
X0.8937Y-1.1969
X0.9213Y-1.4016
X0.9961Y-1.1811
X0.9961Y-1.3622
X1.1378Y-3.7283
X1.1772Y-1.1299
X1.2441Y-1.1102
X1.2441Y-1.6299
X1.4173Y-1.185
X1.4173Y-1.3898
X1.6457Y-0.9528
X1.6457Y-1.2598
T3
X0.0778Y-0.1575
X0.1011Y-0.1011
X0.1011Y-0.2139
X0.1575Y-0.0778
X0.1575Y-0.2372
X0.2139Y-0.1011
X0.2139Y-0.2139
X0.2372Y-0.1575
X1.7313Y-3.7402
X1.7546Y-3.6838
X1.7546Y-3.7965
X1.811Y-3.6604
X1.811Y-3.8199
X1.8674Y-3.6838
X1.8674Y-3.7965
X1.8907Y-3.7402
X1.7313Y-0.1575
X1.7546Y-0.1011
X1.7546Y-0.2139
X1.811Y-0.0778
X1.811Y-0.2372
X1.8674Y-0.1011
X1.8674Y-0.2139
X1.8907Y-0.1575
X0.0778Y-3.7402
X0.1011Y-3.6838
X0.1011Y-3.7965
X0.1575Y-3.6604
X0.1575Y-3.8199
X0.2139Y-3.6838
X0.2139Y-3.7965
X0.2372Y-3.7402
T5
X0.9961Y-0.4409
X0.9961Y-0.5591
X1.2441Y-0.1929
X1.2441Y-0.8071
X1.2638Y-0.2724
X1.3425Y-0.7748
X1.3622Y-0.1929
X1.5732Y-0.6476
X1.6102Y-0.4409
X1.6102Y-0.5591
X1.2047Y-2.5906
X1.2047Y-2.689
X1.3031Y-2.5906
X1.4016Y-2.5906
X1.4016Y-2.689
X0.1575Y-2.9528
X0.1575Y-3.0528
X0.1575Y-3.1528
X0.1575Y-3.2528
X0.1575Y-3.3528
X0.1575Y-2.3772
X0.1575Y-2.4772
X0.1575Y-2.5772
X0.1575Y-2.6772
T6
X0.8898Y-3.4016
X0.8898Y-3.5984
X0.9764Y-3.2677
X1.0709Y-3.8268
X1.0984Y-3.4606
X1.1102Y-3.5394
X1.2638Y-3.311
X1.2638Y-3.7047
X1.3425Y-3.2953
X1.3425Y-3.689
X1.4094Y-3.3346
X1.4921Y-3.4606
X1.5079Y-3.5394
X1.5394Y-3.1732
X1.6339Y-3.7362
X1.7165Y-3.4016
X1.7165Y-3.5984
T7
X0.1575Y-0.1575
X1.811Y-3.7402
X1.811Y-0.1575
X0.1575Y-3.7402
T4
G00X0.3417Y-0.0551
M15
G01X0.3417Y-0.0315
M16
G05
G00X0.3417Y-0.2295
M15
G01X0.3417Y-0.1862
M16
G05
G00X0.6819Y-0.0551
M15
G01X0.6819Y-0.0315
M16
G05
G00X0.6819Y-0.2295
M15
G01X0.6819Y-0.1862
M16
G05
T0
M30
