G04 #@! TF.GenerationSoftware,KiCad,Pcbnew,(5.1.2)-1*
G04 #@! TF.CreationDate,2019-06-30T01:41:10-07:00*
G04 #@! TF.ProjectId,joy,6a6f792e-6b69-4636-9164-5f7063625858,rev?*
G04 #@! TF.SameCoordinates,Original*
G04 #@! TF.FileFunction,Copper,L2,Bot*
G04 #@! TF.FilePolarity,Positive*
%FSLAX46Y46*%
G04 Gerber Fmt 4.6, Leading zero omitted, Abs format (unit mm)*
G04 Created by KiCad (PCBNEW (5.1.2)-1) date 2019-06-30 01:41:10*
%MOMM*%
%LPD*%
G04 APERTURE LIST*
%ADD10O,1.000000X1.600000*%
%ADD11O,1.000000X2.100000*%
%ADD12R,2.000000X2.000000*%
%ADD13C,2.000000*%
%ADD14R,1.700000X1.700000*%
%ADD15O,1.700000X1.700000*%
%ADD16C,1.600000*%
%ADD17R,1.600000X1.600000*%
%ADD18C,0.800000*%
%ADD19C,5.400000*%
%ADD20C,0.600000*%
%ADD21C,0.254000*%
G04 APERTURE END LIST*
D10*
X8680000Y-1100000D03*
X17320000Y-1100000D03*
D11*
X8680000Y-5280000D03*
X17320000Y-5280000D03*
D12*
X33100000Y-65800000D03*
D13*
X30600000Y-65800000D03*
X35600000Y-65800000D03*
X35600000Y-68300000D03*
X30600000Y-68300000D03*
D14*
X8200000Y-74950000D03*
D15*
X8200000Y-77490000D03*
X8200000Y-80030000D03*
X8200000Y-82570000D03*
D16*
X43600000Y-86400000D03*
X43600000Y-91400000D03*
X22600000Y-86400000D03*
X22600000Y-91400000D03*
X34100000Y-83700000D03*
X32100000Y-84100000D03*
X34100000Y-93700000D03*
X37900000Y-87900000D03*
X38300000Y-89900000D03*
X28200000Y-89900000D03*
X27900000Y-87900000D03*
X32100000Y-94100000D03*
X35800000Y-84700000D03*
X41500000Y-94900000D03*
X24800000Y-83000000D03*
X27200000Y-97200000D03*
X39100000Y-80600000D03*
X25300000Y-11200000D03*
X25300000Y-14200000D03*
X40900000Y-11200000D03*
X40900000Y-14200000D03*
D17*
X39960000Y-16450000D03*
D16*
X31600000Y-4900000D03*
X34600000Y-4900000D03*
X31600000Y-20500000D03*
X34100000Y-19680000D03*
X32100000Y-6920000D03*
D18*
X5431891Y-2568109D03*
X4000000Y-1975000D03*
X2568109Y-2568109D03*
X1975000Y-4000000D03*
X2568109Y-5431891D03*
X4000000Y-6025000D03*
X5431891Y-5431891D03*
X6025000Y-4000000D03*
D19*
X4000000Y-4000000D03*
X46000000Y-4000000D03*
D18*
X48025000Y-4000000D03*
X47431891Y-5431891D03*
X46000000Y-6025000D03*
X44568109Y-5431891D03*
X43975000Y-4000000D03*
X44568109Y-2568109D03*
X46000000Y-1975000D03*
X47431891Y-2568109D03*
X5431891Y-93568109D03*
X4000000Y-92975000D03*
X2568109Y-93568109D03*
X1975000Y-95000000D03*
X2568109Y-96431891D03*
X4000000Y-97025000D03*
X5431891Y-96431891D03*
X6025000Y-95000000D03*
D19*
X4000000Y-95000000D03*
X46000000Y-95000000D03*
D18*
X48025000Y-95000000D03*
X47431891Y-96431891D03*
X46000000Y-97025000D03*
X44568109Y-96431891D03*
X43975000Y-95000000D03*
X44568109Y-93568109D03*
X46000000Y-92975000D03*
X47431891Y-93568109D03*
D14*
X4000000Y-75000000D03*
D15*
X4000000Y-77540000D03*
X4000000Y-80080000D03*
X4000000Y-82620000D03*
X4000000Y-85160000D03*
D18*
X7550000Y-34450000D03*
X6900000Y-44550000D03*
X15050000Y-51100000D03*
X18400000Y-35400000D03*
X10450000Y-60100000D03*
X10500000Y-62100000D03*
X10500000Y-64400000D03*
X10500000Y-66750000D03*
X16400000Y-59800000D03*
X16250000Y-61700000D03*
X16300000Y-63850000D03*
X16200000Y-66700000D03*
X16350000Y-72150000D03*
X13150000Y-72000000D03*
X15450000Y-74200000D03*
X12200000Y-77050000D03*
X10550000Y-75450000D03*
X3900000Y-66900000D03*
X3900000Y-64800000D03*
X3950000Y-62250000D03*
X3900000Y-59950000D03*
X21950000Y-65350000D03*
X21650000Y-60050000D03*
X44200000Y-65000000D03*
X42550000Y-66750000D03*
X40600000Y-70250000D03*
X38250000Y-71450000D03*
X42950000Y-74050000D03*
X45350000Y-71550000D03*
X47800000Y-69000000D03*
X40850000Y-62700000D03*
X38500000Y-60350000D03*
X35750000Y-61600000D03*
X32150000Y-61600000D03*
D20*
X1944245Y-7885872D03*
X1759991Y-11578872D03*
X1607028Y-15292322D03*
X1892768Y-18959065D03*
X1776287Y-22639265D03*
X1610345Y-26175289D03*
X1696444Y-29726801D03*
X1586514Y-33271778D03*
X1945654Y-37019375D03*
X1785754Y-40670980D03*
X1999893Y-85412081D03*
X1714638Y-88990493D03*
X3546069Y-9762737D03*
X3599103Y-13488961D03*
X3483314Y-17176551D03*
X3739492Y-20517651D03*
X3375270Y-45675490D03*
X3458319Y-49561137D03*
X3569289Y-53119488D03*
X3738514Y-56847867D03*
X3678085Y-69184572D03*
X3435386Y-90997907D03*
X4290305Y-25044525D03*
X4419627Y-32230086D03*
X4425208Y-35868637D03*
X4436894Y-88188836D03*
X5347708Y-11880076D03*
X5453834Y-15289459D03*
X5559680Y-18875486D03*
X5533949Y-28711221D03*
X6456588Y-21627919D03*
X6459200Y-85272102D03*
X6280516Y-89949960D03*
X7332900Y-24246113D03*
X7032729Y-46896161D03*
X8205674Y-19653358D03*
X8140879Y-27725655D03*
X8068864Y-87385167D03*
X8225223Y-91603836D03*
X7852378Y-97380466D03*
X8932241Y-94326074D03*
X9868423Y-25046118D03*
X9940131Y-39549587D03*
X9923595Y-55757099D03*
X9866597Y-85398298D03*
X9982631Y-88890971D03*
X10562208Y-1692256D03*
X10924721Y-68568487D03*
X10851779Y-92867651D03*
X10766250Y-96414889D03*
X11693594Y-83832625D03*
X11491105Y-87377265D03*
X12780091Y-3682682D03*
X12754224Y-24388491D03*
X12387295Y-27682070D03*
X12794491Y-40544883D03*
X12405996Y-53184911D03*
X12651902Y-56657013D03*
X12794644Y-60098533D03*
X12599064Y-63692523D03*
X12540264Y-90025022D03*
X12394592Y-94577724D03*
X13280902Y-15307454D03*
X13643819Y-18745996D03*
X13536966Y-66588615D03*
X13670361Y-73677755D03*
X13428360Y-85684008D03*
X13360459Y-96969393D03*
X14476213Y-1860287D03*
X14575775Y-42092782D03*
X14343936Y-62051454D03*
X14386333Y-82737623D03*
X14316464Y-88387486D03*
X14191759Y-91783051D03*
X15129783Y-55610391D03*
X15209433Y-68549346D03*
X15080656Y-95374925D03*
X15959158Y-13438285D03*
X16363386Y-16879205D03*
X16000158Y-20890692D03*
X16269817Y-24189617D03*
X16182356Y-86217837D03*
X16330660Y-89820391D03*
X17293097Y-97313779D03*
X18150079Y-7852480D03*
X17953342Y-15358773D03*
X17846870Y-19018567D03*
X18119459Y-22659519D03*
X18772568Y-4665232D03*
X18944138Y-95569271D03*
X19804840Y-1956580D03*
X19604050Y-9807126D03*
X19868850Y-13425875D03*
X19986392Y-20749309D03*
X19711122Y-29854706D03*
X20480245Y-6428667D03*
X20816362Y-88859909D03*
X20787368Y-93420893D03*
X20871317Y-97305884D03*
X21576952Y-3472812D03*
X21550505Y-11528971D03*
X21715952Y-15128389D03*
X21559425Y-27798028D03*
X21466673Y-44220352D03*
X21598961Y-47734190D03*
X21550484Y-51433097D03*
X21784200Y-55022618D03*
X22278174Y-8098876D03*
X22281549Y-17850376D03*
X22608527Y-30432426D03*
X22283242Y-57474175D03*
X22396742Y-75718076D03*
X22457736Y-95505823D03*
X23378911Y-1578690D03*
X23325835Y-5440354D03*
X23461097Y-26132299D03*
X23184643Y-33457889D03*
X23453087Y-45885598D03*
X23594555Y-49543919D03*
X23244684Y-52882898D03*
X23346449Y-60139575D03*
X23263873Y-67524527D03*
X24261496Y-28594665D03*
X24401254Y-38882151D03*
X24055013Y-55635410D03*
X24278064Y-88991379D03*
X24292517Y-93770947D03*
X24215394Y-97228428D03*
X25377826Y-3474147D03*
X25090307Y-7350721D03*
X25117314Y-44080424D03*
X25237025Y-47776591D03*
X25053081Y-51319529D03*
X25238905Y-58322227D03*
X25305546Y-61936723D03*
X25118123Y-69195091D03*
X25208368Y-76463722D03*
X25909589Y-17182293D03*
X25929498Y-30599974D03*
X25940123Y-36736281D03*
X26130893Y-54063767D03*
X26213709Y-66613927D03*
X26005187Y-91852543D03*
X26853168Y-1592588D03*
X27063800Y-5435225D03*
X27135115Y-9123712D03*
X26769172Y-45709780D03*
X27128037Y-49438616D03*
X26975568Y-56796546D03*
X26897574Y-60126509D03*
X26849559Y-84669185D03*
X27042500Y-94325941D03*
X27888710Y-11865032D03*
X27822450Y-34989512D03*
X28095854Y-38813054D03*
X28057639Y-52332250D03*
X27804266Y-68548693D03*
X28644195Y-3656440D03*
X28923545Y-7119395D03*
X28812053Y-16184077D03*
X28829673Y-27976746D03*
X28961824Y-44067148D03*
X28662507Y-47809410D03*
X28788055Y-54992607D03*
X28958886Y-58599652D03*
X28895577Y-61910162D03*
X28696110Y-92669521D03*
X29511425Y-9889901D03*
X29719147Y-30663635D03*
X29794418Y-36959759D03*
X29811919Y-95413650D03*
X30542195Y-1847857D03*
X30549228Y-33099329D03*
X30671067Y-45934955D03*
X30748738Y-56742728D03*
X31369082Y-28645389D03*
X31605388Y-38694817D03*
X31369970Y-59495230D03*
X31694976Y-74645912D03*
X31357817Y-89114390D03*
X31257637Y-97119971D03*
X32421252Y-35141957D03*
X32512366Y-44223769D03*
X32269780Y-91941534D03*
X33222164Y-2574146D03*
X33242600Y-9787476D03*
X33146984Y-13531033D03*
X33491140Y-16951430D03*
X33172268Y-30759403D03*
X34211899Y-33309111D03*
X34367916Y-36751563D03*
X34018037Y-45947010D03*
X34186234Y-75706621D03*
X33992073Y-86530255D03*
X34028087Y-96273462D03*
X35058654Y-27758192D03*
X35098876Y-59233716D03*
X35933678Y-1644530D03*
X35904858Y-35141755D03*
X35843062Y-38661879D03*
X35880300Y-55808974D03*
X35964720Y-77232351D03*
X36110505Y-91973731D03*
X37051830Y-4477250D03*
X36710966Y-8121270D03*
X36813518Y-11575443D03*
X36964652Y-29891429D03*
X37007969Y-74468060D03*
X36935357Y-94576072D03*
X37833492Y-26843616D03*
X37717861Y-36738949D03*
X37630534Y-40344451D03*
X37944228Y-48567075D03*
X37566393Y-53148835D03*
X37599628Y-57705051D03*
X37867464Y-97063163D03*
X38899623Y-2545440D03*
X38673730Y-6209901D03*
X38710988Y-10099778D03*
X38519082Y-18904716D03*
X38499886Y-31269442D03*
X38518304Y-76361856D03*
X38746615Y-92886083D03*
X39379654Y-23331604D03*
X39450541Y-28716126D03*
X39521774Y-38803278D03*
X39502953Y-42085736D03*
X39355565Y-50291976D03*
X39786072Y-54815321D03*
X40369708Y-4558927D03*
X40640098Y-8079572D03*
X40686122Y-25905725D03*
X40280115Y-33110322D03*
X40250575Y-58433359D03*
X40584444Y-74483212D03*
X40589396Y-78090839D03*
X40563906Y-82866339D03*
X41203341Y-1702939D03*
X41350365Y-21748759D03*
X41152864Y-30623722D03*
X41419586Y-40558089D03*
X41278714Y-43942286D03*
X41536501Y-86336264D03*
X41267666Y-91005324D03*
X41358514Y-97243182D03*
X42483707Y-24328668D03*
X42311333Y-27972015D03*
X42055420Y-34985360D03*
X42355864Y-76637574D03*
X42082084Y-79879894D03*
X43190719Y-8896006D03*
X43369983Y-12765392D03*
X43137020Y-19928537D03*
X43184884Y-32505285D03*
X43322149Y-42201605D03*
X43036445Y-45669488D03*
X43107080Y-83585093D03*
X43082476Y-89035106D03*
X44232648Y-22525502D03*
X44078697Y-26150197D03*
X44020914Y-29581728D03*
X44170011Y-37056934D03*
X43968187Y-78457820D03*
X45030785Y-18026360D03*
X45079857Y-34379031D03*
X44920041Y-44263467D03*
X45042182Y-47868396D03*
X44932894Y-73671652D03*
X45026361Y-80910470D03*
X45727723Y-20823645D03*
X46090728Y-24112770D03*
X46017324Y-27969583D03*
X45789196Y-31384821D03*
X45903145Y-38896735D03*
X45973032Y-76695642D03*
X46078309Y-84727903D03*
X45805197Y-88106223D03*
X46813950Y-8808382D03*
X46880012Y-16317426D03*
X46762103Y-36160083D03*
X46579828Y-78971050D03*
X47744991Y-11779452D03*
X47488649Y-18672141D03*
X47714670Y-22653222D03*
X47791073Y-25958925D03*
X47705449Y-29530901D03*
X47452832Y-33122399D03*
X47863241Y-40293622D03*
X47640528Y-71210303D03*
X47862831Y-74746697D03*
X47851016Y-81943453D03*
X47640907Y-86466713D03*
X47789590Y-89813204D03*
D18*
X21300000Y-85200000D03*
X18350000Y-90000000D03*
X31100000Y-70950000D03*
X14900000Y-79600000D03*
X45700000Y-60800000D03*
X18350000Y-78850000D03*
X29250000Y-78850000D03*
X17512078Y-80787922D03*
X28787922Y-80787922D03*
X18410000Y-77490000D03*
X33090000Y-77490000D03*
X29300000Y-23660400D03*
X24650000Y-73200000D03*
X21700000Y-70200000D03*
X12650000Y-79250000D03*
X34100000Y-22930200D03*
X30450000Y-23750000D03*
X35450000Y-25800000D03*
X37450000Y-24450000D03*
X27500000Y-25600000D03*
X9750000Y-51400000D03*
X21633670Y-41866330D03*
X43200000Y-61400000D03*
X10950000Y-8550000D03*
X15450000Y-8550000D03*
X10550000Y-32950000D03*
X23100000Y-72850000D03*
X20500000Y-69850000D03*
X7400000Y-72300000D03*
X6050000Y-38150000D03*
D21*
X7550000Y-34450000D02*
X6900000Y-35100000D01*
X6900000Y-35100000D02*
X6900000Y-44550000D01*
X6900000Y-44550000D02*
X13450000Y-51100000D01*
X13450000Y-51100000D02*
X15050000Y-51100000D01*
X15615685Y-51100000D02*
X18400000Y-48315685D01*
X15050000Y-51100000D02*
X15615685Y-51100000D01*
X18400000Y-48315685D02*
X18400000Y-35400000D01*
X21300000Y-85200000D02*
X18350000Y-88150000D01*
X18350000Y-88150000D02*
X18350000Y-90000000D01*
X31100000Y-70950000D02*
X23550000Y-70950000D01*
X23550000Y-70950000D02*
X14900000Y-79600000D01*
X45700000Y-61365685D02*
X35965685Y-71100000D01*
X45700000Y-60800000D02*
X45700000Y-61365685D01*
X33400000Y-71100000D02*
X30600000Y-68300000D01*
X35965685Y-71100000D02*
X33400000Y-71100000D01*
X29900000Y-87900000D02*
X34100000Y-83700000D01*
X27900000Y-87900000D02*
X29900000Y-87900000D01*
X29900000Y-91900000D02*
X32100000Y-94100000D01*
X29900000Y-87900000D02*
X29900000Y-91900000D01*
X18350000Y-78850000D02*
X29250000Y-78850000D01*
X17512078Y-80787922D02*
X28787922Y-80787922D01*
X18410000Y-77490000D02*
X33090000Y-77490000D01*
X18410000Y-77490000D02*
X15050000Y-80850000D01*
X11560000Y-80850000D02*
X8200000Y-77490000D01*
X15050000Y-80850000D02*
X11560000Y-80850000D01*
X32100000Y-6920000D02*
X32100000Y-17600000D01*
X32100000Y-17600000D02*
X29300000Y-20400000D01*
X29300000Y-20400000D02*
X29300000Y-23660400D01*
X29300000Y-24226085D02*
X47950000Y-42876085D01*
X29300000Y-23660400D02*
X29300000Y-24226085D01*
X47950000Y-42876085D02*
X47950000Y-66100000D01*
X47950000Y-66100000D02*
X40850000Y-73200000D01*
X40850000Y-73200000D02*
X24650000Y-73200000D01*
X21700000Y-70200000D02*
X12650000Y-79250000D01*
X34100000Y-22930200D02*
X34100000Y-19680000D01*
X31600000Y-22600000D02*
X31600000Y-20500000D01*
X30450000Y-23750000D02*
X31600000Y-22600000D01*
X35449999Y-25799999D02*
X35450000Y-25800000D01*
X34600000Y-4900000D02*
X35449999Y-5749999D01*
X35449999Y-5749999D02*
X35449999Y-25799999D01*
X39768630Y-14200000D02*
X37550000Y-16418630D01*
X40900000Y-14200000D02*
X39768630Y-14200000D01*
X37550000Y-16418630D02*
X37550000Y-24350000D01*
X37550000Y-24350000D02*
X37450000Y-24450000D01*
X27500000Y-13400000D02*
X25300000Y-11200000D01*
X27500000Y-25600000D02*
X27500000Y-13400000D01*
X6023250Y-80596750D02*
X6023250Y-79905422D01*
X4000000Y-82620000D02*
X6023250Y-80596750D01*
X6023250Y-79905422D02*
X6023250Y-55126750D01*
X6023250Y-55126750D02*
X9750000Y-51400000D01*
X22033669Y-42266329D02*
X34916329Y-42266329D01*
X21633670Y-41866330D02*
X22033669Y-42266329D01*
X34916329Y-42266329D02*
X43200000Y-50550000D01*
X43200000Y-50550000D02*
X43200000Y-61400000D01*
X10950000Y-8550000D02*
X15450000Y-8550000D01*
X10550000Y-32950000D02*
X11300000Y-32200000D01*
X11300000Y-32200000D02*
X36627323Y-32200000D01*
X36627323Y-32200000D02*
X47492790Y-43065467D01*
X40900000Y-72500000D02*
X40900000Y-72503408D01*
X47492790Y-43065467D02*
X47492790Y-65907210D01*
X47492790Y-65907210D02*
X40900000Y-72500000D01*
X40866391Y-72469799D02*
X23480201Y-72469799D01*
X40900000Y-72503408D02*
X40866391Y-72469799D01*
X23480201Y-72469799D02*
X23100000Y-72850000D01*
X20500000Y-69850000D02*
X9850000Y-69850000D01*
X9850000Y-69850000D02*
X7400000Y-72300000D01*
X4000000Y-80080000D02*
X5202081Y-80080000D01*
X5566040Y-38633960D02*
X6050000Y-38150000D01*
X5566040Y-79716040D02*
X5566040Y-38633960D01*
X5202081Y-80080000D02*
X5566040Y-79716040D01*
G36*
X7545000Y-673000D02*
G01*
X7545000Y-973000D01*
X8553000Y-973000D01*
X8553000Y-953000D01*
X8807000Y-953000D01*
X8807000Y-973000D01*
X9815000Y-973000D01*
X9815000Y-673000D01*
X9812235Y-660000D01*
X16187765Y-660000D01*
X16185000Y-673000D01*
X16185000Y-973000D01*
X17193000Y-973000D01*
X17193000Y-953000D01*
X17447000Y-953000D01*
X17447000Y-973000D01*
X18455000Y-973000D01*
X18455000Y-673000D01*
X18452235Y-660000D01*
X45889922Y-660000D01*
X45350707Y-712366D01*
X44721797Y-902208D01*
X44142008Y-1211096D01*
X44134411Y-1216172D01*
X43834231Y-1654626D01*
X46000000Y-3820395D01*
X46014143Y-3806253D01*
X46193748Y-3985858D01*
X46179605Y-4000000D01*
X48345374Y-6165769D01*
X48783828Y-5865589D01*
X49094296Y-5286644D01*
X49285852Y-4658254D01*
X49340000Y-4116057D01*
X49340001Y-94889932D01*
X49287634Y-94350707D01*
X49097792Y-93721797D01*
X48788904Y-93142008D01*
X48783828Y-93134411D01*
X48345374Y-92834231D01*
X46179605Y-95000000D01*
X46193748Y-95014143D01*
X46014143Y-95193748D01*
X46000000Y-95179605D01*
X43834231Y-97345374D01*
X44134411Y-97783828D01*
X44713356Y-98094296D01*
X45341746Y-98285852D01*
X45883943Y-98340000D01*
X28076801Y-98340000D01*
X28114759Y-98314637D01*
X28314637Y-98114759D01*
X28471680Y-97879727D01*
X28579853Y-97618574D01*
X28635000Y-97341335D01*
X28635000Y-97058665D01*
X28579853Y-96781426D01*
X28471680Y-96520273D01*
X28314637Y-96285241D01*
X28114759Y-96085363D01*
X27879727Y-95928320D01*
X27618574Y-95820147D01*
X27341335Y-95765000D01*
X27058665Y-95765000D01*
X26781426Y-95820147D01*
X26520273Y-95928320D01*
X26285241Y-96085363D01*
X26085363Y-96285241D01*
X25928320Y-96520273D01*
X25820147Y-96781426D01*
X25765000Y-97058665D01*
X25765000Y-97341335D01*
X25820147Y-97618574D01*
X25928320Y-97879727D01*
X26085363Y-98114759D01*
X26285241Y-98314637D01*
X26323199Y-98340000D01*
X4110078Y-98340000D01*
X4649293Y-98287634D01*
X5278203Y-98097792D01*
X5857992Y-97788904D01*
X5865589Y-97783828D01*
X6165769Y-97345374D01*
X4000000Y-95179605D01*
X3985858Y-95193748D01*
X3806253Y-95014143D01*
X3820395Y-95000000D01*
X4179605Y-95000000D01*
X6345374Y-97165769D01*
X6783828Y-96865589D01*
X7094296Y-96286644D01*
X7285852Y-95658254D01*
X7351134Y-95004569D01*
X7287634Y-94350707D01*
X7097792Y-93721797D01*
X6788904Y-93142008D01*
X6783828Y-93134411D01*
X6345374Y-92834231D01*
X4179605Y-95000000D01*
X3820395Y-95000000D01*
X1654626Y-92834231D01*
X1216172Y-93134411D01*
X905704Y-93713356D01*
X714148Y-94341746D01*
X660000Y-94883943D01*
X660000Y-92654626D01*
X1834231Y-92654626D01*
X4000000Y-94820395D01*
X6165769Y-92654626D01*
X5865589Y-92216172D01*
X5286644Y-91905704D01*
X4658254Y-91714148D01*
X4004569Y-91648866D01*
X3350707Y-91712366D01*
X2721797Y-91902208D01*
X2142008Y-92211096D01*
X2134411Y-92216172D01*
X1834231Y-92654626D01*
X660000Y-92654626D01*
X660000Y-91258665D01*
X21165000Y-91258665D01*
X21165000Y-91541335D01*
X21220147Y-91818574D01*
X21328320Y-92079727D01*
X21485363Y-92314759D01*
X21685241Y-92514637D01*
X21920273Y-92671680D01*
X22181426Y-92779853D01*
X22458665Y-92835000D01*
X22741335Y-92835000D01*
X23018574Y-92779853D01*
X23279727Y-92671680D01*
X23514759Y-92514637D01*
X23714637Y-92314759D01*
X23871680Y-92079727D01*
X23979853Y-91818574D01*
X24035000Y-91541335D01*
X24035000Y-91258665D01*
X23979853Y-90981426D01*
X23871680Y-90720273D01*
X23714637Y-90485241D01*
X23514759Y-90285363D01*
X23279727Y-90128320D01*
X23018574Y-90020147D01*
X22741335Y-89965000D01*
X22458665Y-89965000D01*
X22181426Y-90020147D01*
X21920273Y-90128320D01*
X21685241Y-90285363D01*
X21485363Y-90485241D01*
X21328320Y-90720273D01*
X21220147Y-90981426D01*
X21165000Y-91258665D01*
X660000Y-91258665D01*
X660000Y-89898061D01*
X17315000Y-89898061D01*
X17315000Y-90101939D01*
X17354774Y-90301898D01*
X17432795Y-90490256D01*
X17546063Y-90659774D01*
X17690226Y-90803937D01*
X17859744Y-90917205D01*
X18048102Y-90995226D01*
X18248061Y-91035000D01*
X18451939Y-91035000D01*
X18651898Y-90995226D01*
X18840256Y-90917205D01*
X19009774Y-90803937D01*
X19153937Y-90659774D01*
X19267205Y-90490256D01*
X19345226Y-90301898D01*
X19385000Y-90101939D01*
X19385000Y-89898061D01*
X19345226Y-89698102D01*
X19267205Y-89509744D01*
X19153937Y-89340226D01*
X19112000Y-89298289D01*
X19112000Y-88465630D01*
X21165000Y-86412631D01*
X21165000Y-86541335D01*
X21220147Y-86818574D01*
X21328320Y-87079727D01*
X21485363Y-87314759D01*
X21685241Y-87514637D01*
X21920273Y-87671680D01*
X22181426Y-87779853D01*
X22458665Y-87835000D01*
X22741335Y-87835000D01*
X23018574Y-87779853D01*
X23069726Y-87758665D01*
X26465000Y-87758665D01*
X26465000Y-88041335D01*
X26520147Y-88318574D01*
X26628320Y-88579727D01*
X26785363Y-88814759D01*
X26985241Y-89014637D01*
X27040880Y-89051814D01*
X26928320Y-89220273D01*
X26820147Y-89481426D01*
X26765000Y-89758665D01*
X26765000Y-90041335D01*
X26820147Y-90318574D01*
X26928320Y-90579727D01*
X27085363Y-90814759D01*
X27285241Y-91014637D01*
X27520273Y-91171680D01*
X27781426Y-91279853D01*
X28058665Y-91335000D01*
X28341335Y-91335000D01*
X28618574Y-91279853D01*
X28879727Y-91171680D01*
X29114759Y-91014637D01*
X29138001Y-90991395D01*
X29138001Y-91862567D01*
X29134314Y-91900000D01*
X29149027Y-92049378D01*
X29192599Y-92193015D01*
X29263355Y-92325392D01*
X29334721Y-92412351D01*
X29358579Y-92441422D01*
X29387649Y-92465279D01*
X30700843Y-93778473D01*
X30665000Y-93958665D01*
X30665000Y-94241335D01*
X30720147Y-94518574D01*
X30828320Y-94779727D01*
X30985363Y-95014759D01*
X31185241Y-95214637D01*
X31420273Y-95371680D01*
X31681426Y-95479853D01*
X31958665Y-95535000D01*
X32241335Y-95535000D01*
X32518574Y-95479853D01*
X32779727Y-95371680D01*
X33014759Y-95214637D01*
X33214637Y-95014759D01*
X33298008Y-94889985D01*
X33420273Y-94971680D01*
X33681426Y-95079853D01*
X33958665Y-95135000D01*
X34241335Y-95135000D01*
X34518574Y-95079853D01*
X34779727Y-94971680D01*
X35014759Y-94814637D01*
X35070731Y-94758665D01*
X40065000Y-94758665D01*
X40065000Y-95041335D01*
X40120147Y-95318574D01*
X40228320Y-95579727D01*
X40385363Y-95814759D01*
X40585241Y-96014637D01*
X40820273Y-96171680D01*
X41081426Y-96279853D01*
X41358665Y-96335000D01*
X41641335Y-96335000D01*
X41918574Y-96279853D01*
X42179727Y-96171680D01*
X42414759Y-96014637D01*
X42614637Y-95814759D01*
X42716359Y-95662521D01*
X42902208Y-96278203D01*
X43211096Y-96857992D01*
X43216172Y-96865589D01*
X43654626Y-97165769D01*
X45820395Y-95000000D01*
X45806253Y-94985858D01*
X45985858Y-94806253D01*
X46000000Y-94820395D01*
X48165769Y-92654626D01*
X47865589Y-92216172D01*
X47286644Y-91905704D01*
X46658254Y-91714148D01*
X46004569Y-91648866D01*
X45350707Y-91712366D01*
X44972477Y-91826538D01*
X45026300Y-91611816D01*
X45040217Y-91329488D01*
X44998787Y-91049870D01*
X44903603Y-90783708D01*
X44836671Y-90658486D01*
X44592702Y-90586903D01*
X43779605Y-91400000D01*
X43793748Y-91414143D01*
X43614143Y-91593748D01*
X43600000Y-91579605D01*
X42786903Y-92392702D01*
X42858486Y-92636671D01*
X43113996Y-92757571D01*
X43388184Y-92826300D01*
X43647537Y-92839084D01*
X43216172Y-93134411D01*
X42905704Y-93713356D01*
X42757601Y-94199202D01*
X42614637Y-93985241D01*
X42414759Y-93785363D01*
X42179727Y-93628320D01*
X41918574Y-93520147D01*
X41641335Y-93465000D01*
X41358665Y-93465000D01*
X41081426Y-93520147D01*
X40820273Y-93628320D01*
X40585241Y-93785363D01*
X40385363Y-93985241D01*
X40228320Y-94220273D01*
X40120147Y-94481426D01*
X40065000Y-94758665D01*
X35070731Y-94758665D01*
X35214637Y-94614759D01*
X35371680Y-94379727D01*
X35479853Y-94118574D01*
X35535000Y-93841335D01*
X35535000Y-93558665D01*
X35479853Y-93281426D01*
X35371680Y-93020273D01*
X35214637Y-92785241D01*
X35014759Y-92585363D01*
X34779727Y-92428320D01*
X34518574Y-92320147D01*
X34241335Y-92265000D01*
X33958665Y-92265000D01*
X33681426Y-92320147D01*
X33420273Y-92428320D01*
X33185241Y-92585363D01*
X32985363Y-92785241D01*
X32901992Y-92910015D01*
X32779727Y-92828320D01*
X32518574Y-92720147D01*
X32241335Y-92665000D01*
X31958665Y-92665000D01*
X31778473Y-92700843D01*
X30662000Y-91584370D01*
X30662000Y-91470512D01*
X42159783Y-91470512D01*
X42201213Y-91750130D01*
X42296397Y-92016292D01*
X42363329Y-92141514D01*
X42607298Y-92213097D01*
X43420395Y-91400000D01*
X42607298Y-90586903D01*
X42363329Y-90658486D01*
X42242429Y-90913996D01*
X42173700Y-91188184D01*
X42159783Y-91470512D01*
X30662000Y-91470512D01*
X30662000Y-89778363D01*
X34865000Y-89778363D01*
X34865000Y-90021637D01*
X34912460Y-90260236D01*
X35005557Y-90484992D01*
X35140713Y-90687267D01*
X35312733Y-90859287D01*
X35515008Y-90994443D01*
X35739764Y-91087540D01*
X35978363Y-91135000D01*
X36221637Y-91135000D01*
X36460236Y-91087540D01*
X36684992Y-90994443D01*
X36887267Y-90859287D01*
X37059287Y-90687267D01*
X37079731Y-90656670D01*
X37185363Y-90814759D01*
X37385241Y-91014637D01*
X37620273Y-91171680D01*
X37881426Y-91279853D01*
X38158665Y-91335000D01*
X38441335Y-91335000D01*
X38718574Y-91279853D01*
X38979727Y-91171680D01*
X39214759Y-91014637D01*
X39414637Y-90814759D01*
X39571680Y-90579727D01*
X39643102Y-90407298D01*
X42786903Y-90407298D01*
X43600000Y-91220395D01*
X44413097Y-90407298D01*
X44341514Y-90163329D01*
X44086004Y-90042429D01*
X43811816Y-89973700D01*
X43529488Y-89959783D01*
X43249870Y-90001213D01*
X42983708Y-90096397D01*
X42858486Y-90163329D01*
X42786903Y-90407298D01*
X39643102Y-90407298D01*
X39679853Y-90318574D01*
X39735000Y-90041335D01*
X39735000Y-89758665D01*
X39679853Y-89481426D01*
X39571680Y-89220273D01*
X39414637Y-88985241D01*
X39214759Y-88785363D01*
X39204283Y-88778363D01*
X39865000Y-88778363D01*
X39865000Y-89021637D01*
X39912460Y-89260236D01*
X40005557Y-89484992D01*
X40140713Y-89687267D01*
X40312733Y-89859287D01*
X40515008Y-89994443D01*
X40739764Y-90087540D01*
X40978363Y-90135000D01*
X41221637Y-90135000D01*
X41460236Y-90087540D01*
X41684992Y-89994443D01*
X41887267Y-89859287D01*
X42059287Y-89687267D01*
X42194443Y-89484992D01*
X42287540Y-89260236D01*
X42335000Y-89021637D01*
X42335000Y-88778363D01*
X42287540Y-88539764D01*
X42194443Y-88315008D01*
X42059287Y-88112733D01*
X41887267Y-87940713D01*
X41684992Y-87805557D01*
X41460236Y-87712460D01*
X41221637Y-87665000D01*
X40978363Y-87665000D01*
X40739764Y-87712460D01*
X40515008Y-87805557D01*
X40312733Y-87940713D01*
X40140713Y-88112733D01*
X40005557Y-88315008D01*
X39912460Y-88539764D01*
X39865000Y-88778363D01*
X39204283Y-88778363D01*
X39089985Y-88701992D01*
X39171680Y-88579727D01*
X39279853Y-88318574D01*
X39335000Y-88041335D01*
X39335000Y-87758665D01*
X39279853Y-87481426D01*
X39243103Y-87392702D01*
X42786903Y-87392702D01*
X42858486Y-87636671D01*
X43113996Y-87757571D01*
X43388184Y-87826300D01*
X43670512Y-87840217D01*
X43950130Y-87798787D01*
X44216292Y-87703603D01*
X44341514Y-87636671D01*
X44413097Y-87392702D01*
X43600000Y-86579605D01*
X42786903Y-87392702D01*
X39243103Y-87392702D01*
X39171680Y-87220273D01*
X39014637Y-86985241D01*
X38814759Y-86785363D01*
X38579727Y-86628320D01*
X38318574Y-86520147D01*
X38069046Y-86470512D01*
X42159783Y-86470512D01*
X42201213Y-86750130D01*
X42296397Y-87016292D01*
X42363329Y-87141514D01*
X42607298Y-87213097D01*
X43420395Y-86400000D01*
X43779605Y-86400000D01*
X44592702Y-87213097D01*
X44836671Y-87141514D01*
X44957571Y-86886004D01*
X45026300Y-86611816D01*
X45040217Y-86329488D01*
X44998787Y-86049870D01*
X44903603Y-85783708D01*
X44836671Y-85658486D01*
X44592702Y-85586903D01*
X43779605Y-86400000D01*
X43420395Y-86400000D01*
X42607298Y-85586903D01*
X42363329Y-85658486D01*
X42242429Y-85913996D01*
X42173700Y-86188184D01*
X42159783Y-86470512D01*
X38069046Y-86470512D01*
X38041335Y-86465000D01*
X37758665Y-86465000D01*
X37481426Y-86520147D01*
X37220273Y-86628320D01*
X36985241Y-86785363D01*
X36785363Y-86985241D01*
X36628320Y-87220273D01*
X36520147Y-87481426D01*
X36465000Y-87758665D01*
X36465000Y-88041335D01*
X36520147Y-88318574D01*
X36628320Y-88579727D01*
X36785363Y-88814759D01*
X36985241Y-89014637D01*
X37110015Y-89098008D01*
X37079731Y-89143330D01*
X37059287Y-89112733D01*
X36887267Y-88940713D01*
X36684992Y-88805557D01*
X36460236Y-88712460D01*
X36221637Y-88665000D01*
X35978363Y-88665000D01*
X35739764Y-88712460D01*
X35515008Y-88805557D01*
X35312733Y-88940713D01*
X35140713Y-89112733D01*
X35005557Y-89315008D01*
X34912460Y-89539764D01*
X34865000Y-89778363D01*
X30662000Y-89778363D01*
X30662000Y-88215630D01*
X33184928Y-85692702D01*
X34986903Y-85692702D01*
X35058486Y-85936671D01*
X35313996Y-86057571D01*
X35588184Y-86126300D01*
X35870512Y-86140217D01*
X36150130Y-86098787D01*
X36416292Y-86003603D01*
X36541514Y-85936671D01*
X36613097Y-85692702D01*
X35800000Y-84879605D01*
X34986903Y-85692702D01*
X33184928Y-85692702D01*
X33778474Y-85099157D01*
X33958665Y-85135000D01*
X34241335Y-85135000D01*
X34418931Y-85099674D01*
X34496397Y-85316292D01*
X34563329Y-85441514D01*
X34807298Y-85513097D01*
X35620395Y-84700000D01*
X35979605Y-84700000D01*
X36792702Y-85513097D01*
X37036671Y-85441514D01*
X37052861Y-85407298D01*
X42786903Y-85407298D01*
X43600000Y-86220395D01*
X44413097Y-85407298D01*
X44341514Y-85163329D01*
X44086004Y-85042429D01*
X43811816Y-84973700D01*
X43529488Y-84959783D01*
X43249870Y-85001213D01*
X42983708Y-85096397D01*
X42858486Y-85163329D01*
X42786903Y-85407298D01*
X37052861Y-85407298D01*
X37157571Y-85186004D01*
X37226300Y-84911816D01*
X37240217Y-84629488D01*
X37198787Y-84349870D01*
X37103603Y-84083708D01*
X37036671Y-83958486D01*
X36792702Y-83886903D01*
X35979605Y-84700000D01*
X35620395Y-84700000D01*
X35606253Y-84685858D01*
X35785858Y-84506253D01*
X35800000Y-84520395D01*
X36613097Y-83707298D01*
X36541514Y-83463329D01*
X36286004Y-83342429D01*
X36011816Y-83273700D01*
X35729488Y-83259783D01*
X35482818Y-83296331D01*
X35479853Y-83281426D01*
X35371680Y-83020273D01*
X35214637Y-82785241D01*
X35014759Y-82585363D01*
X34779727Y-82428320D01*
X34518574Y-82320147D01*
X34241335Y-82265000D01*
X33958665Y-82265000D01*
X33681426Y-82320147D01*
X33420273Y-82428320D01*
X33185241Y-82585363D01*
X32985363Y-82785241D01*
X32901992Y-82910015D01*
X32779727Y-82828320D01*
X32518574Y-82720147D01*
X32241335Y-82665000D01*
X31958665Y-82665000D01*
X31681426Y-82720147D01*
X31420273Y-82828320D01*
X31185241Y-82985363D01*
X30985363Y-83185241D01*
X30828320Y-83420273D01*
X30720147Y-83681426D01*
X30665000Y-83958665D01*
X30665000Y-84241335D01*
X30720147Y-84518574D01*
X30828320Y-84779727D01*
X30985363Y-85014759D01*
X31185241Y-85214637D01*
X31378561Y-85343809D01*
X29584370Y-87138000D01*
X29116707Y-87138000D01*
X29014637Y-86985241D01*
X28814759Y-86785363D01*
X28579727Y-86628320D01*
X28318574Y-86520147D01*
X28041335Y-86465000D01*
X27758665Y-86465000D01*
X27481426Y-86520147D01*
X27220273Y-86628320D01*
X26985241Y-86785363D01*
X26785363Y-86985241D01*
X26628320Y-87220273D01*
X26520147Y-87481426D01*
X26465000Y-87758665D01*
X23069726Y-87758665D01*
X23279727Y-87671680D01*
X23514759Y-87514637D01*
X23714637Y-87314759D01*
X23871680Y-87079727D01*
X23979853Y-86818574D01*
X24035000Y-86541335D01*
X24035000Y-86258665D01*
X23979853Y-85981426D01*
X23871680Y-85720273D01*
X23714637Y-85485241D01*
X23514759Y-85285363D01*
X23279727Y-85128320D01*
X23018574Y-85020147D01*
X22741335Y-84965000D01*
X22458665Y-84965000D01*
X22314247Y-84993727D01*
X22295226Y-84898102D01*
X22217205Y-84709744D01*
X22103937Y-84540226D01*
X21959774Y-84396063D01*
X21790256Y-84282795D01*
X21601898Y-84204774D01*
X21401939Y-84165000D01*
X21198061Y-84165000D01*
X20998102Y-84204774D01*
X20809744Y-84282795D01*
X20640226Y-84396063D01*
X20496063Y-84540226D01*
X20382795Y-84709744D01*
X20304774Y-84898102D01*
X20265000Y-85098061D01*
X20265000Y-85157369D01*
X17837654Y-87584716D01*
X17808578Y-87608578D01*
X17762274Y-87665000D01*
X17713355Y-87724608D01*
X17683826Y-87779853D01*
X17642598Y-87856986D01*
X17599026Y-88000623D01*
X17588000Y-88112574D01*
X17584314Y-88150000D01*
X17588000Y-88187424D01*
X17588001Y-89298288D01*
X17546063Y-89340226D01*
X17432795Y-89509744D01*
X17354774Y-89698102D01*
X17315000Y-89898061D01*
X660000Y-89898061D01*
X660000Y-80080000D01*
X2507815Y-80080000D01*
X2536487Y-80371111D01*
X2621401Y-80651034D01*
X2759294Y-80909014D01*
X2944866Y-81135134D01*
X3170986Y-81320706D01*
X3225791Y-81350000D01*
X3170986Y-81379294D01*
X2944866Y-81564866D01*
X2759294Y-81790986D01*
X2621401Y-82048966D01*
X2536487Y-82328889D01*
X2507815Y-82620000D01*
X2536487Y-82911111D01*
X2621401Y-83191034D01*
X2759294Y-83449014D01*
X2944866Y-83675134D01*
X3170986Y-83860706D01*
X3225791Y-83890000D01*
X3170986Y-83919294D01*
X2944866Y-84104866D01*
X2759294Y-84330986D01*
X2621401Y-84588966D01*
X2536487Y-84868889D01*
X2507815Y-85160000D01*
X2536487Y-85451111D01*
X2621401Y-85731034D01*
X2759294Y-85989014D01*
X2944866Y-86215134D01*
X3170986Y-86400706D01*
X3428966Y-86538599D01*
X3708889Y-86623513D01*
X3927050Y-86645000D01*
X4072950Y-86645000D01*
X4291111Y-86623513D01*
X4571034Y-86538599D01*
X4829014Y-86400706D01*
X5055134Y-86215134D01*
X5240706Y-85989014D01*
X5378599Y-85731034D01*
X5463513Y-85451111D01*
X5492185Y-85160000D01*
X5463513Y-84868889D01*
X5378599Y-84588966D01*
X5240706Y-84330986D01*
X5055134Y-84104866D01*
X4829014Y-83919294D01*
X4774209Y-83890000D01*
X4829014Y-83860706D01*
X5055134Y-83675134D01*
X5240706Y-83449014D01*
X5378599Y-83191034D01*
X5463513Y-82911111D01*
X5492185Y-82620000D01*
X5463513Y-82328889D01*
X5441455Y-82256175D01*
X6535597Y-81162033D01*
X6564672Y-81138172D01*
X6625107Y-81064531D01*
X6659895Y-81022143D01*
X6720363Y-80909014D01*
X6730652Y-80889765D01*
X6774224Y-80746128D01*
X6785250Y-80634176D01*
X6785250Y-80634173D01*
X6788936Y-80596750D01*
X6785250Y-80559327D01*
X6785250Y-80481861D01*
X6821401Y-80601034D01*
X6959294Y-80859014D01*
X7144866Y-81085134D01*
X7370986Y-81270706D01*
X7425791Y-81300000D01*
X7370986Y-81329294D01*
X7144866Y-81514866D01*
X6959294Y-81740986D01*
X6821401Y-81998966D01*
X6736487Y-82278889D01*
X6707815Y-82570000D01*
X6736487Y-82861111D01*
X6821401Y-83141034D01*
X6959294Y-83399014D01*
X7144866Y-83625134D01*
X7370986Y-83810706D01*
X7628966Y-83948599D01*
X7908889Y-84033513D01*
X8127050Y-84055000D01*
X8272950Y-84055000D01*
X8491111Y-84033513D01*
X8771034Y-83948599D01*
X9029014Y-83810706D01*
X9255134Y-83625134D01*
X9440706Y-83399014D01*
X9578599Y-83141034D01*
X9663513Y-82861111D01*
X9663753Y-82858665D01*
X23365000Y-82858665D01*
X23365000Y-83141335D01*
X23420147Y-83418574D01*
X23528320Y-83679727D01*
X23685363Y-83914759D01*
X23885241Y-84114637D01*
X24120273Y-84271680D01*
X24381426Y-84379853D01*
X24658665Y-84435000D01*
X24941335Y-84435000D01*
X25218574Y-84379853D01*
X25479727Y-84271680D01*
X25714759Y-84114637D01*
X25914637Y-83914759D01*
X26071680Y-83679727D01*
X26179853Y-83418574D01*
X26235000Y-83141335D01*
X26235000Y-82858665D01*
X26179853Y-82581426D01*
X26071680Y-82320273D01*
X25914637Y-82085241D01*
X25714759Y-81885363D01*
X25479727Y-81728320D01*
X25218574Y-81620147D01*
X24941335Y-81565000D01*
X24658665Y-81565000D01*
X24381426Y-81620147D01*
X24120273Y-81728320D01*
X23885241Y-81885363D01*
X23685363Y-82085241D01*
X23528320Y-82320273D01*
X23420147Y-82581426D01*
X23365000Y-82858665D01*
X9663753Y-82858665D01*
X9692185Y-82570000D01*
X9663513Y-82278889D01*
X9578599Y-81998966D01*
X9440706Y-81740986D01*
X9255134Y-81514866D01*
X9029014Y-81329294D01*
X8974209Y-81300000D01*
X9029014Y-81270706D01*
X9255134Y-81085134D01*
X9440706Y-80859014D01*
X9578599Y-80601034D01*
X9663513Y-80321111D01*
X9689512Y-80057142D01*
X10994716Y-81362346D01*
X11018578Y-81391422D01*
X11087148Y-81447696D01*
X11134607Y-81486645D01*
X11187406Y-81514866D01*
X11266985Y-81557402D01*
X11410622Y-81600974D01*
X11522574Y-81612000D01*
X11522577Y-81612000D01*
X11560000Y-81615686D01*
X11597423Y-81612000D01*
X15012577Y-81612000D01*
X15050000Y-81615686D01*
X15087423Y-81612000D01*
X15087426Y-81612000D01*
X15199378Y-81600974D01*
X15343015Y-81557402D01*
X15475392Y-81486645D01*
X15591422Y-81391422D01*
X15615284Y-81362346D01*
X16534704Y-80442926D01*
X16516852Y-80486024D01*
X16477078Y-80685983D01*
X16477078Y-80889861D01*
X16516852Y-81089820D01*
X16594873Y-81278178D01*
X16708141Y-81447696D01*
X16852304Y-81591859D01*
X17021822Y-81705127D01*
X17210180Y-81783148D01*
X17410139Y-81822922D01*
X17614017Y-81822922D01*
X17813976Y-81783148D01*
X18002334Y-81705127D01*
X18171852Y-81591859D01*
X18213789Y-81549922D01*
X28086211Y-81549922D01*
X28128148Y-81591859D01*
X28297666Y-81705127D01*
X28486024Y-81783148D01*
X28685983Y-81822922D01*
X28889861Y-81822922D01*
X29089820Y-81783148D01*
X29278178Y-81705127D01*
X29447696Y-81591859D01*
X29591859Y-81447696D01*
X29705127Y-81278178D01*
X29783148Y-81089820D01*
X29822922Y-80889861D01*
X29822922Y-80685983D01*
X29783148Y-80486024D01*
X29771816Y-80458665D01*
X37665000Y-80458665D01*
X37665000Y-80741335D01*
X37720147Y-81018574D01*
X37828320Y-81279727D01*
X37985363Y-81514759D01*
X38185241Y-81714637D01*
X38420273Y-81871680D01*
X38681426Y-81979853D01*
X38958665Y-82035000D01*
X39241335Y-82035000D01*
X39518574Y-81979853D01*
X39779727Y-81871680D01*
X40014759Y-81714637D01*
X40214637Y-81514759D01*
X40371680Y-81279727D01*
X40479853Y-81018574D01*
X40535000Y-80741335D01*
X40535000Y-80458665D01*
X40479853Y-80181426D01*
X40371680Y-79920273D01*
X40214637Y-79685241D01*
X40014759Y-79485363D01*
X39779727Y-79328320D01*
X39518574Y-79220147D01*
X39241335Y-79165000D01*
X38958665Y-79165000D01*
X38681426Y-79220147D01*
X38420273Y-79328320D01*
X38185241Y-79485363D01*
X37985363Y-79685241D01*
X37828320Y-79920273D01*
X37720147Y-80181426D01*
X37665000Y-80458665D01*
X29771816Y-80458665D01*
X29705127Y-80297666D01*
X29591859Y-80128148D01*
X29447696Y-79983985D01*
X29299554Y-79885000D01*
X29351939Y-79885000D01*
X29551898Y-79845226D01*
X29740256Y-79767205D01*
X29909774Y-79653937D01*
X30053937Y-79509774D01*
X30167205Y-79340256D01*
X30245226Y-79151898D01*
X30285000Y-78951939D01*
X30285000Y-78748061D01*
X30245226Y-78548102D01*
X30167205Y-78359744D01*
X30095213Y-78252000D01*
X32388289Y-78252000D01*
X32430226Y-78293937D01*
X32599744Y-78407205D01*
X32788102Y-78485226D01*
X32988061Y-78525000D01*
X33191939Y-78525000D01*
X33391898Y-78485226D01*
X33580256Y-78407205D01*
X33749774Y-78293937D01*
X33893937Y-78149774D01*
X34007205Y-77980256D01*
X34085226Y-77791898D01*
X34125000Y-77591939D01*
X34125000Y-77388061D01*
X34085226Y-77188102D01*
X34007205Y-76999744D01*
X33893937Y-76830226D01*
X33749774Y-76686063D01*
X33580256Y-76572795D01*
X33391898Y-76494774D01*
X33191939Y-76455000D01*
X32988061Y-76455000D01*
X32788102Y-76494774D01*
X32599744Y-76572795D01*
X32430226Y-76686063D01*
X32388289Y-76728000D01*
X19111711Y-76728000D01*
X19069774Y-76686063D01*
X18962947Y-76614684D01*
X22204657Y-73372974D01*
X22296063Y-73509774D01*
X22440226Y-73653937D01*
X22609744Y-73767205D01*
X22798102Y-73845226D01*
X22998061Y-73885000D01*
X23201939Y-73885000D01*
X23401898Y-73845226D01*
X23590256Y-73767205D01*
X23726861Y-73675929D01*
X23732795Y-73690256D01*
X23846063Y-73859774D01*
X23990226Y-74003937D01*
X24159744Y-74117205D01*
X24348102Y-74195226D01*
X24548061Y-74235000D01*
X24751939Y-74235000D01*
X24951898Y-74195226D01*
X25140256Y-74117205D01*
X25309774Y-74003937D01*
X25351711Y-73962000D01*
X40812577Y-73962000D01*
X40850000Y-73965686D01*
X40887423Y-73962000D01*
X40887426Y-73962000D01*
X40999378Y-73950974D01*
X41143015Y-73907402D01*
X41275392Y-73836645D01*
X41391422Y-73741422D01*
X41415284Y-73712346D01*
X48462352Y-66665279D01*
X48491422Y-66641422D01*
X48586645Y-66525392D01*
X48657402Y-66393015D01*
X48700974Y-66249378D01*
X48712000Y-66137426D01*
X48712000Y-66137424D01*
X48715686Y-66100001D01*
X48712000Y-66062578D01*
X48712000Y-42913508D01*
X48715686Y-42876085D01*
X48712000Y-42838659D01*
X48700974Y-42726707D01*
X48657402Y-42583070D01*
X48586646Y-42450694D01*
X48586645Y-42450692D01*
X48515279Y-42363733D01*
X48491422Y-42334663D01*
X48462353Y-42310807D01*
X30854339Y-24702793D01*
X30940256Y-24667205D01*
X31109774Y-24553937D01*
X31253937Y-24409774D01*
X31367205Y-24240256D01*
X31445226Y-24051898D01*
X31485000Y-23851939D01*
X31485000Y-23792630D01*
X32112347Y-23165283D01*
X32141422Y-23141422D01*
X32201857Y-23067781D01*
X32236645Y-23025393D01*
X32298630Y-22909426D01*
X32307402Y-22893015D01*
X32350974Y-22749378D01*
X32362000Y-22637426D01*
X32362000Y-22637423D01*
X32365686Y-22600000D01*
X32362000Y-22562577D01*
X32362000Y-21716707D01*
X32514759Y-21614637D01*
X32714637Y-21414759D01*
X32871680Y-21179727D01*
X32979853Y-20918574D01*
X33034492Y-20643888D01*
X33185241Y-20794637D01*
X33338001Y-20896707D01*
X33338000Y-22228489D01*
X33296063Y-22270426D01*
X33182795Y-22439944D01*
X33104774Y-22628302D01*
X33065000Y-22828261D01*
X33065000Y-23032139D01*
X33104774Y-23232098D01*
X33182795Y-23420456D01*
X33296063Y-23589974D01*
X33440226Y-23734137D01*
X33609744Y-23847405D01*
X33798102Y-23925426D01*
X33998061Y-23965200D01*
X34201939Y-23965200D01*
X34401898Y-23925426D01*
X34590256Y-23847405D01*
X34688000Y-23782095D01*
X34688000Y-25098289D01*
X34646063Y-25140226D01*
X34532795Y-25309744D01*
X34454774Y-25498102D01*
X34415000Y-25698061D01*
X34415000Y-25901939D01*
X34454774Y-26101898D01*
X34532795Y-26290256D01*
X34646063Y-26459774D01*
X34790226Y-26603937D01*
X34959744Y-26717205D01*
X35148102Y-26795226D01*
X35348061Y-26835000D01*
X35551939Y-26835000D01*
X35751898Y-26795226D01*
X35940256Y-26717205D01*
X36109774Y-26603937D01*
X36253937Y-26459774D01*
X36367205Y-26290256D01*
X36445226Y-26101898D01*
X36485000Y-25901939D01*
X36485000Y-25698061D01*
X36445226Y-25498102D01*
X36367205Y-25309744D01*
X36253937Y-25140226D01*
X36211999Y-25098288D01*
X36211999Y-24348061D01*
X36415000Y-24348061D01*
X36415000Y-24551939D01*
X36454774Y-24751898D01*
X36532795Y-24940256D01*
X36646063Y-25109774D01*
X36790226Y-25253937D01*
X36959744Y-25367205D01*
X37148102Y-25445226D01*
X37348061Y-25485000D01*
X37551939Y-25485000D01*
X37751898Y-25445226D01*
X37940256Y-25367205D01*
X38109774Y-25253937D01*
X38253937Y-25109774D01*
X38367205Y-24940256D01*
X38445226Y-24751898D01*
X38485000Y-24551939D01*
X38485000Y-24348061D01*
X38445226Y-24148102D01*
X38367205Y-23959744D01*
X38312000Y-23877124D01*
X38312000Y-16734260D01*
X38525000Y-16521260D01*
X38525000Y-16577002D01*
X38683748Y-16577002D01*
X38525000Y-16735750D01*
X38521928Y-17250000D01*
X38534188Y-17374482D01*
X38570498Y-17494180D01*
X38629463Y-17604494D01*
X38708815Y-17701185D01*
X38805506Y-17780537D01*
X38915820Y-17839502D01*
X39035518Y-17875812D01*
X39160000Y-17888072D01*
X39674250Y-17885000D01*
X39833000Y-17726250D01*
X39833000Y-16577000D01*
X40087000Y-16577000D01*
X40087000Y-17726250D01*
X40245750Y-17885000D01*
X40760000Y-17888072D01*
X40884482Y-17875812D01*
X41004180Y-17839502D01*
X41114494Y-17780537D01*
X41211185Y-17701185D01*
X41290537Y-17604494D01*
X41349502Y-17494180D01*
X41385812Y-17374482D01*
X41398072Y-17250000D01*
X41395000Y-16735750D01*
X41236250Y-16577000D01*
X40087000Y-16577000D01*
X39833000Y-16577000D01*
X39813000Y-16577000D01*
X39813000Y-16323000D01*
X39833000Y-16323000D01*
X39833000Y-16303000D01*
X40087000Y-16303000D01*
X40087000Y-16323000D01*
X41236250Y-16323000D01*
X41395000Y-16164250D01*
X41398072Y-15650000D01*
X41388318Y-15550964D01*
X41579727Y-15471680D01*
X41814759Y-15314637D01*
X42014637Y-15114759D01*
X42171680Y-14879727D01*
X42279853Y-14618574D01*
X42335000Y-14341335D01*
X42335000Y-14058665D01*
X42279853Y-13781426D01*
X42171680Y-13520273D01*
X42014637Y-13285241D01*
X41814759Y-13085363D01*
X41579727Y-12928320D01*
X41318574Y-12820147D01*
X41041335Y-12765000D01*
X40758665Y-12765000D01*
X40481426Y-12820147D01*
X40220273Y-12928320D01*
X39985241Y-13085363D01*
X39785363Y-13285241D01*
X39679918Y-13443051D01*
X39619252Y-13449026D01*
X39475615Y-13492598D01*
X39423839Y-13520273D01*
X39343237Y-13563355D01*
X39300849Y-13598143D01*
X39227208Y-13658578D01*
X39203346Y-13687654D01*
X37037654Y-15853346D01*
X37008578Y-15877208D01*
X36952983Y-15944952D01*
X36913355Y-15993238D01*
X36875535Y-16063995D01*
X36842598Y-16125616D01*
X36799026Y-16269253D01*
X36793733Y-16323000D01*
X36784314Y-16418630D01*
X36788000Y-16456053D01*
X36788001Y-23648288D01*
X36646063Y-23790226D01*
X36532795Y-23959744D01*
X36454774Y-24148102D01*
X36415000Y-24348061D01*
X36211999Y-24348061D01*
X36211999Y-11058665D01*
X39465000Y-11058665D01*
X39465000Y-11341335D01*
X39520147Y-11618574D01*
X39628320Y-11879727D01*
X39785363Y-12114759D01*
X39985241Y-12314637D01*
X40220273Y-12471680D01*
X40481426Y-12579853D01*
X40758665Y-12635000D01*
X41041335Y-12635000D01*
X41318574Y-12579853D01*
X41579727Y-12471680D01*
X41814759Y-12314637D01*
X42014637Y-12114759D01*
X42171680Y-11879727D01*
X42279853Y-11618574D01*
X42335000Y-11341335D01*
X42335000Y-11058665D01*
X42279853Y-10781426D01*
X42171680Y-10520273D01*
X42014637Y-10285241D01*
X41814759Y-10085363D01*
X41579727Y-9928320D01*
X41318574Y-9820147D01*
X41041335Y-9765000D01*
X40758665Y-9765000D01*
X40481426Y-9820147D01*
X40220273Y-9928320D01*
X39985241Y-10085363D01*
X39785363Y-10285241D01*
X39628320Y-10520273D01*
X39520147Y-10781426D01*
X39465000Y-11058665D01*
X36211999Y-11058665D01*
X36211999Y-6345374D01*
X43834231Y-6345374D01*
X44134411Y-6783828D01*
X44713356Y-7094296D01*
X45341746Y-7285852D01*
X45995431Y-7351134D01*
X46649293Y-7287634D01*
X47278203Y-7097792D01*
X47857992Y-6788904D01*
X47865589Y-6783828D01*
X48165769Y-6345374D01*
X46000000Y-4179605D01*
X43834231Y-6345374D01*
X36211999Y-6345374D01*
X36211999Y-5787421D01*
X36215685Y-5749998D01*
X36211999Y-5712573D01*
X36200973Y-5600621D01*
X36157401Y-5456984D01*
X36086644Y-5324607D01*
X35999721Y-5218691D01*
X36035000Y-5041335D01*
X36035000Y-4758665D01*
X35979853Y-4481426D01*
X35871680Y-4220273D01*
X35721446Y-3995431D01*
X42648866Y-3995431D01*
X42712366Y-4649293D01*
X42902208Y-5278203D01*
X43211096Y-5857992D01*
X43216172Y-5865589D01*
X43654626Y-6165769D01*
X45820395Y-4000000D01*
X43654626Y-1834231D01*
X43216172Y-2134411D01*
X42905704Y-2713356D01*
X42714148Y-3341746D01*
X42648866Y-3995431D01*
X35721446Y-3995431D01*
X35714637Y-3985241D01*
X35514759Y-3785363D01*
X35279727Y-3628320D01*
X35018574Y-3520147D01*
X34741335Y-3465000D01*
X34458665Y-3465000D01*
X34181426Y-3520147D01*
X33920273Y-3628320D01*
X33685241Y-3785363D01*
X33485363Y-3985241D01*
X33328320Y-4220273D01*
X33220147Y-4481426D01*
X33165000Y-4758665D01*
X33165000Y-5041335D01*
X33220147Y-5318574D01*
X33328320Y-5579727D01*
X33485363Y-5814759D01*
X33685241Y-6014637D01*
X33920273Y-6171680D01*
X34181426Y-6279853D01*
X34458665Y-6335000D01*
X34687999Y-6335000D01*
X34688000Y-18370325D01*
X34518574Y-18300147D01*
X34241335Y-18245000D01*
X33958665Y-18245000D01*
X33681426Y-18300147D01*
X33420273Y-18408320D01*
X33185241Y-18565363D01*
X32985363Y-18765241D01*
X32828320Y-19000273D01*
X32720147Y-19261426D01*
X32665508Y-19536112D01*
X32514759Y-19385363D01*
X32279727Y-19228320D01*
X32018574Y-19120147D01*
X31741335Y-19065000D01*
X31712631Y-19065000D01*
X32612352Y-18165279D01*
X32641422Y-18141422D01*
X32668772Y-18108096D01*
X32736645Y-18025393D01*
X32807401Y-17893016D01*
X32807402Y-17893015D01*
X32850974Y-17749378D01*
X32862000Y-17637426D01*
X32862000Y-17637423D01*
X32865686Y-17600000D01*
X32862000Y-17562577D01*
X32862000Y-8136707D01*
X33014759Y-8034637D01*
X33214637Y-7834759D01*
X33371680Y-7599727D01*
X33479853Y-7338574D01*
X33535000Y-7061335D01*
X33535000Y-6778665D01*
X33479853Y-6501426D01*
X33371680Y-6240273D01*
X33214637Y-6005241D01*
X33014759Y-5805363D01*
X32790025Y-5655201D01*
X32836671Y-5641514D01*
X32957571Y-5386004D01*
X33026300Y-5111816D01*
X33040217Y-4829488D01*
X32998787Y-4549870D01*
X32903603Y-4283708D01*
X32836671Y-4158486D01*
X32592702Y-4086903D01*
X31779605Y-4900000D01*
X31793748Y-4914143D01*
X31614143Y-5093748D01*
X31600000Y-5079605D01*
X30786903Y-5892702D01*
X30858486Y-6136671D01*
X30888162Y-6150713D01*
X30828320Y-6240273D01*
X30720147Y-6501426D01*
X30665000Y-6778665D01*
X30665000Y-7061335D01*
X30720147Y-7338574D01*
X30828320Y-7599727D01*
X30985363Y-7834759D01*
X31185241Y-8034637D01*
X31338000Y-8136707D01*
X31338001Y-17284368D01*
X28787654Y-19834716D01*
X28758578Y-19858578D01*
X28702983Y-19926322D01*
X28663355Y-19974608D01*
X28625535Y-20045365D01*
X28592598Y-20106986D01*
X28549026Y-20250623D01*
X28538000Y-20362574D01*
X28534314Y-20400000D01*
X28538000Y-20437423D01*
X28538001Y-22958688D01*
X28496063Y-23000626D01*
X28382795Y-23170144D01*
X28304774Y-23358502D01*
X28265000Y-23558461D01*
X28265000Y-23762339D01*
X28304774Y-23962298D01*
X28382795Y-24150656D01*
X28496063Y-24320174D01*
X28548772Y-24372883D01*
X28549026Y-24375463D01*
X28592598Y-24519100D01*
X28623870Y-24577605D01*
X28663355Y-24651477D01*
X28734721Y-24738436D01*
X28758579Y-24767507D01*
X28787649Y-24791364D01*
X35434285Y-31438000D01*
X11337422Y-31438000D01*
X11299999Y-31434314D01*
X11262576Y-31438000D01*
X11262574Y-31438000D01*
X11150622Y-31449026D01*
X11006985Y-31492598D01*
X10874608Y-31563355D01*
X10758578Y-31658578D01*
X10734720Y-31687649D01*
X10507369Y-31915000D01*
X10448061Y-31915000D01*
X10248102Y-31954774D01*
X10059744Y-32032795D01*
X9890226Y-32146063D01*
X9746063Y-32290226D01*
X9632795Y-32459744D01*
X9554774Y-32648102D01*
X9515000Y-32848061D01*
X9515000Y-33051939D01*
X9554774Y-33251898D01*
X9632795Y-33440256D01*
X9746063Y-33609774D01*
X9890226Y-33753937D01*
X10059744Y-33867205D01*
X10248102Y-33945226D01*
X10448061Y-33985000D01*
X10651939Y-33985000D01*
X10851898Y-33945226D01*
X11040256Y-33867205D01*
X11209774Y-33753937D01*
X11353937Y-33609774D01*
X11467205Y-33440256D01*
X11545226Y-33251898D01*
X11585000Y-33051939D01*
X11585000Y-32992631D01*
X11615631Y-32962000D01*
X36311693Y-32962000D01*
X46730790Y-43381098D01*
X46730791Y-60676900D01*
X46695226Y-60498102D01*
X46617205Y-60309744D01*
X46503937Y-60140226D01*
X46359774Y-59996063D01*
X46190256Y-59882795D01*
X46001898Y-59804774D01*
X45801939Y-59765000D01*
X45598061Y-59765000D01*
X45398102Y-59804774D01*
X45209744Y-59882795D01*
X45040226Y-59996063D01*
X44896063Y-60140226D01*
X44782795Y-60309744D01*
X44704774Y-60498102D01*
X44665000Y-60698061D01*
X44665000Y-60901939D01*
X44704774Y-61101898D01*
X44757900Y-61230154D01*
X44130928Y-61857126D01*
X44195226Y-61701898D01*
X44235000Y-61501939D01*
X44235000Y-61298061D01*
X44195226Y-61098102D01*
X44117205Y-60909744D01*
X44003937Y-60740226D01*
X43962000Y-60698289D01*
X43962000Y-50587423D01*
X43965686Y-50550000D01*
X43957152Y-50463355D01*
X43950974Y-50400622D01*
X43907402Y-50256985D01*
X43836646Y-50124609D01*
X43836645Y-50124607D01*
X43765279Y-50037648D01*
X43741422Y-50008578D01*
X43712353Y-49984722D01*
X35481613Y-41753983D01*
X35457751Y-41724907D01*
X35341721Y-41629684D01*
X35209344Y-41558927D01*
X35065707Y-41515355D01*
X34953755Y-41504329D01*
X34953752Y-41504329D01*
X34916329Y-41500643D01*
X34878906Y-41504329D01*
X22604000Y-41504329D01*
X22550875Y-41376074D01*
X22437607Y-41206556D01*
X22293444Y-41062393D01*
X22123926Y-40949125D01*
X21935568Y-40871104D01*
X21735609Y-40831330D01*
X21531731Y-40831330D01*
X21331772Y-40871104D01*
X21143414Y-40949125D01*
X20973896Y-41062393D01*
X20829733Y-41206556D01*
X20716465Y-41376074D01*
X20638444Y-41564432D01*
X20598670Y-41764391D01*
X20598670Y-41968269D01*
X20638444Y-42168228D01*
X20716465Y-42356586D01*
X20829733Y-42526104D01*
X20973896Y-42670267D01*
X21143414Y-42783535D01*
X21331772Y-42861556D01*
X21531731Y-42901330D01*
X21606274Y-42901330D01*
X21608277Y-42902974D01*
X21740654Y-42973731D01*
X21884291Y-43017303D01*
X21996243Y-43028329D01*
X21996245Y-43028329D01*
X22033668Y-43032015D01*
X22071091Y-43028329D01*
X34600699Y-43028329D01*
X42438000Y-50865631D01*
X42438001Y-60698288D01*
X42396063Y-60740226D01*
X42282795Y-60909744D01*
X42204774Y-61098102D01*
X42165000Y-61298061D01*
X42165000Y-61501939D01*
X42204774Y-61701898D01*
X42282795Y-61890256D01*
X42396063Y-62059774D01*
X42540226Y-62203937D01*
X42709744Y-62317205D01*
X42898102Y-62395226D01*
X43098061Y-62435000D01*
X43301939Y-62435000D01*
X43501898Y-62395226D01*
X43657126Y-62330928D01*
X37144609Y-68843446D01*
X37172168Y-68776912D01*
X37235000Y-68461033D01*
X37235000Y-68138967D01*
X37172168Y-67823088D01*
X37048918Y-67525537D01*
X36869987Y-67257748D01*
X36662239Y-67050000D01*
X36869987Y-66842252D01*
X37048918Y-66574463D01*
X37172168Y-66276912D01*
X37235000Y-65961033D01*
X37235000Y-65638967D01*
X37172168Y-65323088D01*
X37048918Y-65025537D01*
X36869987Y-64757748D01*
X36642252Y-64530013D01*
X36374463Y-64351082D01*
X36076912Y-64227832D01*
X35761033Y-64165000D01*
X35438967Y-64165000D01*
X35123088Y-64227832D01*
X34825537Y-64351082D01*
X34644665Y-64471937D01*
X34630537Y-64445506D01*
X34551185Y-64348815D01*
X34454494Y-64269463D01*
X34344180Y-64210498D01*
X34224482Y-64174188D01*
X34100000Y-64161928D01*
X33385750Y-64165000D01*
X33227000Y-64323750D01*
X33227000Y-65673000D01*
X33247000Y-65673000D01*
X33247000Y-65927000D01*
X33227000Y-65927000D01*
X33227000Y-67276250D01*
X33385750Y-67435000D01*
X34100000Y-67438072D01*
X34217240Y-67426525D01*
X34151082Y-67525537D01*
X34027832Y-67823088D01*
X33965000Y-68138967D01*
X33965000Y-68461033D01*
X34027832Y-68776912D01*
X34151082Y-69074463D01*
X34330013Y-69342252D01*
X34557748Y-69569987D01*
X34825537Y-69748918D01*
X35123088Y-69872168D01*
X35438967Y-69935000D01*
X35761033Y-69935000D01*
X36076912Y-69872168D01*
X36143446Y-69844608D01*
X35650055Y-70338000D01*
X33715631Y-70338000D01*
X32167006Y-68789375D01*
X32172168Y-68776912D01*
X32235000Y-68461033D01*
X32235000Y-68138967D01*
X32172168Y-67823088D01*
X32048918Y-67525537D01*
X31982760Y-67426525D01*
X32100000Y-67438072D01*
X32814250Y-67435000D01*
X32973000Y-67276250D01*
X32973000Y-65927000D01*
X32953000Y-65927000D01*
X32953000Y-65673000D01*
X32973000Y-65673000D01*
X32973000Y-64323750D01*
X32814250Y-64165000D01*
X32100000Y-64161928D01*
X31975518Y-64174188D01*
X31855820Y-64210498D01*
X31745506Y-64269463D01*
X31648815Y-64348815D01*
X31569463Y-64445506D01*
X31555335Y-64471937D01*
X31374463Y-64351082D01*
X31076912Y-64227832D01*
X30761033Y-64165000D01*
X30438967Y-64165000D01*
X30123088Y-64227832D01*
X29825537Y-64351082D01*
X29557748Y-64530013D01*
X29330013Y-64757748D01*
X29151082Y-65025537D01*
X29027832Y-65323088D01*
X28965000Y-65638967D01*
X28965000Y-65961033D01*
X29027832Y-66276912D01*
X29151082Y-66574463D01*
X29330013Y-66842252D01*
X29537761Y-67050000D01*
X29330013Y-67257748D01*
X29151082Y-67525537D01*
X29027832Y-67823088D01*
X28965000Y-68138967D01*
X28965000Y-68461033D01*
X29027832Y-68776912D01*
X29151082Y-69074463D01*
X29330013Y-69342252D01*
X29557748Y-69569987D01*
X29825537Y-69748918D01*
X30123088Y-69872168D01*
X30438967Y-69935000D01*
X30761033Y-69935000D01*
X31076912Y-69872168D01*
X31089375Y-69867006D01*
X31137370Y-69915000D01*
X30998061Y-69915000D01*
X30798102Y-69954774D01*
X30609744Y-70032795D01*
X30440226Y-70146063D01*
X30398289Y-70188000D01*
X23587422Y-70188000D01*
X23549999Y-70184314D01*
X23512576Y-70188000D01*
X23512574Y-70188000D01*
X23400622Y-70199026D01*
X23256985Y-70242598D01*
X23124608Y-70313355D01*
X23008578Y-70408578D01*
X22984721Y-70437648D01*
X14857370Y-78565000D01*
X14798061Y-78565000D01*
X14598102Y-78604774D01*
X14409744Y-78682795D01*
X14240226Y-78796063D01*
X14096063Y-78940226D01*
X13982795Y-79109744D01*
X13904774Y-79298102D01*
X13865000Y-79498061D01*
X13865000Y-79701939D01*
X13904774Y-79901898D01*
X13981861Y-80088000D01*
X13258795Y-80088000D01*
X13309774Y-80053937D01*
X13453937Y-79909774D01*
X13567205Y-79740256D01*
X13645226Y-79551898D01*
X13685000Y-79351939D01*
X13685000Y-79292630D01*
X21742631Y-71235000D01*
X21801939Y-71235000D01*
X22001898Y-71195226D01*
X22190256Y-71117205D01*
X22359774Y-71003937D01*
X22503937Y-70859774D01*
X22617205Y-70690256D01*
X22695226Y-70501898D01*
X22735000Y-70301939D01*
X22735000Y-70098061D01*
X22695226Y-69898102D01*
X22617205Y-69709744D01*
X22503937Y-69540226D01*
X22359774Y-69396063D01*
X22190256Y-69282795D01*
X22001898Y-69204774D01*
X21801939Y-69165000D01*
X21598061Y-69165000D01*
X21398102Y-69204774D01*
X21331963Y-69232170D01*
X21303937Y-69190226D01*
X21159774Y-69046063D01*
X20990256Y-68932795D01*
X20801898Y-68854774D01*
X20601939Y-68815000D01*
X20398061Y-68815000D01*
X20198102Y-68854774D01*
X20009744Y-68932795D01*
X19840226Y-69046063D01*
X19798289Y-69088000D01*
X9887422Y-69088000D01*
X9849999Y-69084314D01*
X9812576Y-69088000D01*
X9812574Y-69088000D01*
X9700622Y-69099026D01*
X9556985Y-69142598D01*
X9424608Y-69213355D01*
X9308578Y-69308578D01*
X9284721Y-69337648D01*
X7357370Y-71265000D01*
X7298061Y-71265000D01*
X7098102Y-71304774D01*
X6909744Y-71382795D01*
X6785250Y-71465979D01*
X6785250Y-56567582D01*
X31440000Y-56567582D01*
X31440000Y-57032419D01*
X31442729Y-57060123D01*
X31442721Y-57061211D01*
X31443620Y-57070382D01*
X31445512Y-57088389D01*
X31449550Y-57129383D01*
X31456640Y-57152756D01*
X31459724Y-57167779D01*
X31470936Y-57226558D01*
X31473600Y-57235379D01*
X31485142Y-57272667D01*
X31508322Y-57327810D01*
X31530730Y-57383273D01*
X31535056Y-57391410D01*
X31553621Y-57425746D01*
X31587082Y-57475355D01*
X31619835Y-57525406D01*
X31625660Y-57532547D01*
X31650541Y-57562622D01*
X31692980Y-57604765D01*
X31734838Y-57647508D01*
X31741939Y-57653381D01*
X31741942Y-57653384D01*
X31741946Y-57653386D01*
X31772187Y-57678051D01*
X31821975Y-57711129D01*
X31871362Y-57744946D01*
X31879469Y-57749328D01*
X31913933Y-57767653D01*
X31969215Y-57790439D01*
X32024218Y-57814014D01*
X32033021Y-57816739D01*
X32070388Y-57828021D01*
X32129066Y-57839639D01*
X32148826Y-57843840D01*
X32170617Y-57850450D01*
X32194112Y-57852764D01*
X32196748Y-57853041D01*
X32235595Y-57856850D01*
X32235598Y-57856850D01*
X32267581Y-57860000D01*
X33932419Y-57860000D01*
X33960123Y-57857271D01*
X33961211Y-57857279D01*
X33970382Y-57856380D01*
X33988389Y-57854488D01*
X34029383Y-57850450D01*
X34052756Y-57843360D01*
X34067779Y-57840276D01*
X34126558Y-57829064D01*
X34135379Y-57826400D01*
X34172667Y-57814858D01*
X34227810Y-57791678D01*
X34283273Y-57769270D01*
X34291410Y-57764944D01*
X34325746Y-57746379D01*
X34375355Y-57712918D01*
X34425406Y-57680165D01*
X34432547Y-57674340D01*
X34462622Y-57649459D01*
X34504765Y-57607020D01*
X34547508Y-57565162D01*
X34553381Y-57558061D01*
X34553384Y-57558058D01*
X34553386Y-57558054D01*
X34578051Y-57527813D01*
X34611129Y-57478025D01*
X34644946Y-57428638D01*
X34649328Y-57420531D01*
X34667653Y-57386067D01*
X34690439Y-57330785D01*
X34714014Y-57275782D01*
X34716739Y-57266979D01*
X34728021Y-57229612D01*
X34739639Y-57170934D01*
X34743840Y-57151174D01*
X34750450Y-57129383D01*
X34752764Y-57105888D01*
X34753041Y-57103252D01*
X34756850Y-57064405D01*
X34756850Y-57064402D01*
X34760000Y-57032419D01*
X34760000Y-56567582D01*
X34757271Y-56539877D01*
X34757279Y-56538789D01*
X34756380Y-56529618D01*
X34754488Y-56511612D01*
X34750450Y-56470617D01*
X34743359Y-56447242D01*
X34740276Y-56432222D01*
X34729064Y-56373443D01*
X34726400Y-56364621D01*
X34714858Y-56327334D01*
X34691686Y-56272208D01*
X34669271Y-56216727D01*
X34664944Y-56208591D01*
X34664943Y-56208588D01*
X34664940Y-56208583D01*
X34646379Y-56174254D01*
X34612928Y-56124661D01*
X34580165Y-56074594D01*
X34574340Y-56067453D01*
X34549459Y-56037378D01*
X34507020Y-55995235D01*
X34465162Y-55952492D01*
X34458061Y-55946618D01*
X34427812Y-55921949D01*
X34378042Y-55888883D01*
X34328638Y-55855054D01*
X34320531Y-55850672D01*
X34286067Y-55832347D01*
X34230785Y-55809561D01*
X34175782Y-55785986D01*
X34166979Y-55783261D01*
X34129612Y-55771979D01*
X34070927Y-55760359D01*
X34051175Y-55756161D01*
X34029383Y-55749550D01*
X34005888Y-55747236D01*
X34003252Y-55746959D01*
X33964405Y-55743150D01*
X33964402Y-55743150D01*
X33932419Y-55740000D01*
X32267581Y-55740000D01*
X32239877Y-55742729D01*
X32238789Y-55742721D01*
X32229618Y-55743620D01*
X32211619Y-55745512D01*
X32170617Y-55749550D01*
X32147242Y-55756641D01*
X32132222Y-55759724D01*
X32073443Y-55770936D01*
X32064621Y-55773600D01*
X32027334Y-55785142D01*
X31972208Y-55808314D01*
X31916727Y-55830729D01*
X31908593Y-55835055D01*
X31908588Y-55835057D01*
X31908583Y-55835060D01*
X31874254Y-55853621D01*
X31824661Y-55887072D01*
X31774594Y-55919835D01*
X31767453Y-55925660D01*
X31737378Y-55950541D01*
X31695235Y-55992980D01*
X31652492Y-56034838D01*
X31646618Y-56041939D01*
X31621949Y-56072188D01*
X31588883Y-56121958D01*
X31555054Y-56171362D01*
X31550672Y-56179469D01*
X31532347Y-56213933D01*
X31509561Y-56269215D01*
X31485986Y-56324218D01*
X31483261Y-56333021D01*
X31471979Y-56370388D01*
X31460359Y-56429073D01*
X31456160Y-56448829D01*
X31449550Y-56470618D01*
X31447238Y-56494097D01*
X31446959Y-56496748D01*
X31443150Y-56535595D01*
X31440000Y-56567582D01*
X6785250Y-56567582D01*
X6785250Y-55442380D01*
X9792631Y-52435000D01*
X9851939Y-52435000D01*
X10051898Y-52395226D01*
X10240256Y-52317205D01*
X10409774Y-52203937D01*
X10553937Y-52059774D01*
X10667205Y-51890256D01*
X10745226Y-51701898D01*
X10785000Y-51501939D01*
X10785000Y-51298061D01*
X10745226Y-51098102D01*
X10667205Y-50909744D01*
X10553937Y-50740226D01*
X10409774Y-50596063D01*
X10240256Y-50482795D01*
X10051898Y-50404774D01*
X9851939Y-50365000D01*
X9648061Y-50365000D01*
X9448102Y-50404774D01*
X9259744Y-50482795D01*
X9090226Y-50596063D01*
X8946063Y-50740226D01*
X8832795Y-50909744D01*
X8754774Y-51098102D01*
X8715000Y-51298061D01*
X8715000Y-51357369D01*
X6328040Y-53744330D01*
X6328040Y-45412612D01*
X6409744Y-45467205D01*
X6598102Y-45545226D01*
X6798061Y-45585000D01*
X6857370Y-45585000D01*
X12884721Y-51612352D01*
X12908578Y-51641422D01*
X12937648Y-51665279D01*
X13024607Y-51736645D01*
X13067879Y-51759774D01*
X13156985Y-51807402D01*
X13300622Y-51850974D01*
X13412574Y-51862000D01*
X13412577Y-51862000D01*
X13450000Y-51865686D01*
X13487423Y-51862000D01*
X14348289Y-51862000D01*
X14390226Y-51903937D01*
X14559744Y-52017205D01*
X14748102Y-52095226D01*
X14948061Y-52135000D01*
X15151939Y-52135000D01*
X15351898Y-52095226D01*
X15540256Y-52017205D01*
X15709774Y-51903937D01*
X15762483Y-51851228D01*
X15765063Y-51850974D01*
X15908700Y-51807402D01*
X16041077Y-51736645D01*
X16157107Y-51641422D01*
X16180969Y-51612346D01*
X17395652Y-50397663D01*
X29015000Y-50397663D01*
X29015000Y-51202337D01*
X29171984Y-51991551D01*
X29479920Y-52734973D01*
X29926973Y-53404036D01*
X30495964Y-53973027D01*
X31165027Y-54420080D01*
X31908449Y-54728016D01*
X32697663Y-54885000D01*
X33502337Y-54885000D01*
X34291551Y-54728016D01*
X35034973Y-54420080D01*
X35704036Y-53973027D01*
X36273027Y-53404036D01*
X36720080Y-52734973D01*
X37028016Y-51991551D01*
X37185000Y-51202337D01*
X37185000Y-50397663D01*
X37028016Y-49608449D01*
X36720080Y-48865027D01*
X36273027Y-48195964D01*
X35704036Y-47626973D01*
X35034973Y-47179920D01*
X34291551Y-46871984D01*
X33502337Y-46715000D01*
X32697663Y-46715000D01*
X31908449Y-46871984D01*
X31165027Y-47179920D01*
X30495964Y-47626973D01*
X29926973Y-48195964D01*
X29479920Y-48865027D01*
X29171984Y-49608449D01*
X29015000Y-50397663D01*
X17395652Y-50397663D01*
X18912353Y-48880963D01*
X18941422Y-48857107D01*
X19036645Y-48741077D01*
X19107402Y-48608700D01*
X19150974Y-48465063D01*
X19162000Y-48353111D01*
X19162000Y-48353109D01*
X19165686Y-48315686D01*
X19162000Y-48278263D01*
X19162000Y-36101711D01*
X19203937Y-36059774D01*
X19317205Y-35890256D01*
X19395226Y-35701898D01*
X19435000Y-35501939D01*
X19435000Y-35298061D01*
X19395226Y-35098102D01*
X19317205Y-34909744D01*
X19203937Y-34740226D01*
X19059774Y-34596063D01*
X18890256Y-34482795D01*
X18701898Y-34404774D01*
X18501939Y-34365000D01*
X18298061Y-34365000D01*
X18098102Y-34404774D01*
X17909744Y-34482795D01*
X17740226Y-34596063D01*
X17596063Y-34740226D01*
X17482795Y-34909744D01*
X17404774Y-35098102D01*
X17365000Y-35298061D01*
X17365000Y-35501939D01*
X17404774Y-35701898D01*
X17482795Y-35890256D01*
X17596063Y-36059774D01*
X17638001Y-36101712D01*
X17638000Y-48000054D01*
X15480155Y-50157900D01*
X15351898Y-50104774D01*
X15151939Y-50065000D01*
X14948061Y-50065000D01*
X14748102Y-50104774D01*
X14559744Y-50182795D01*
X14390226Y-50296063D01*
X14348289Y-50338000D01*
X13765631Y-50338000D01*
X7935000Y-44507370D01*
X7935000Y-44448061D01*
X7895226Y-44248102D01*
X7817205Y-44059744D01*
X7703937Y-43890226D01*
X7662000Y-43848289D01*
X7662000Y-35482999D01*
X7851898Y-35445226D01*
X8040256Y-35367205D01*
X8209774Y-35253937D01*
X8353937Y-35109774D01*
X8467205Y-34940256D01*
X8545226Y-34751898D01*
X8585000Y-34551939D01*
X8585000Y-34348061D01*
X8545226Y-34148102D01*
X8467205Y-33959744D01*
X8353937Y-33790226D01*
X8209774Y-33646063D01*
X8040256Y-33532795D01*
X7851898Y-33454774D01*
X7651939Y-33415000D01*
X7448061Y-33415000D01*
X7248102Y-33454774D01*
X7059744Y-33532795D01*
X6890226Y-33646063D01*
X6746063Y-33790226D01*
X6632795Y-33959744D01*
X6554774Y-34148102D01*
X6515000Y-34348061D01*
X6515000Y-34407370D01*
X6387653Y-34534717D01*
X6358578Y-34558578D01*
X6325094Y-34599379D01*
X6263355Y-34674608D01*
X6228282Y-34740226D01*
X6192598Y-34806986D01*
X6149026Y-34950623D01*
X6146664Y-34974608D01*
X6134314Y-35100000D01*
X6138000Y-35137423D01*
X6138000Y-37115000D01*
X5948061Y-37115000D01*
X5748102Y-37154774D01*
X5559744Y-37232795D01*
X5390226Y-37346063D01*
X5246063Y-37490226D01*
X5132795Y-37659744D01*
X5054774Y-37848102D01*
X5015000Y-38048061D01*
X5015000Y-38104259D01*
X5000762Y-38121608D01*
X5000761Y-38121609D01*
X4929395Y-38208568D01*
X4858639Y-38340945D01*
X4815067Y-38484582D01*
X4800354Y-38633960D01*
X4804041Y-38671393D01*
X4804040Y-73511928D01*
X3150000Y-73511928D01*
X3025518Y-73524188D01*
X2905820Y-73560498D01*
X2795506Y-73619463D01*
X2698815Y-73698815D01*
X2619463Y-73795506D01*
X2560498Y-73905820D01*
X2524188Y-74025518D01*
X2511928Y-74150000D01*
X2511928Y-75850000D01*
X2524188Y-75974482D01*
X2560498Y-76094180D01*
X2619463Y-76204494D01*
X2698815Y-76301185D01*
X2795506Y-76380537D01*
X2905820Y-76439502D01*
X2986466Y-76463966D01*
X2902412Y-76539731D01*
X2728359Y-76773080D01*
X2603175Y-77035901D01*
X2558524Y-77183110D01*
X2679845Y-77413000D01*
X3873000Y-77413000D01*
X3873000Y-77393000D01*
X4127000Y-77393000D01*
X4127000Y-77413000D01*
X4147000Y-77413000D01*
X4147000Y-77667000D01*
X4127000Y-77667000D01*
X4127000Y-77687000D01*
X3873000Y-77687000D01*
X3873000Y-77667000D01*
X2679845Y-77667000D01*
X2558524Y-77896890D01*
X2603175Y-78044099D01*
X2728359Y-78306920D01*
X2902412Y-78540269D01*
X3118645Y-78735178D01*
X3235523Y-78804799D01*
X3170986Y-78839294D01*
X2944866Y-79024866D01*
X2759294Y-79250986D01*
X2621401Y-79508966D01*
X2536487Y-79788889D01*
X2507815Y-80080000D01*
X660000Y-80080000D01*
X660000Y-11058665D01*
X23865000Y-11058665D01*
X23865000Y-11341335D01*
X23920147Y-11618574D01*
X24028320Y-11879727D01*
X24185363Y-12114759D01*
X24385241Y-12314637D01*
X24620273Y-12471680D01*
X24881426Y-12579853D01*
X25158665Y-12635000D01*
X25441335Y-12635000D01*
X25621527Y-12599157D01*
X25930157Y-12907787D01*
X25718574Y-12820147D01*
X25441335Y-12765000D01*
X25158665Y-12765000D01*
X24881426Y-12820147D01*
X24620273Y-12928320D01*
X24385241Y-13085363D01*
X24185363Y-13285241D01*
X24028320Y-13520273D01*
X23920147Y-13781426D01*
X23865000Y-14058665D01*
X23865000Y-14341335D01*
X23920147Y-14618574D01*
X24028320Y-14879727D01*
X24185363Y-15114759D01*
X24385241Y-15314637D01*
X24620273Y-15471680D01*
X24881426Y-15579853D01*
X25158665Y-15635000D01*
X25441335Y-15635000D01*
X25718574Y-15579853D01*
X25979727Y-15471680D01*
X26214759Y-15314637D01*
X26414637Y-15114759D01*
X26571680Y-14879727D01*
X26679853Y-14618574D01*
X26735000Y-14341335D01*
X26735000Y-14058665D01*
X26679853Y-13781426D01*
X26592213Y-13569844D01*
X26738001Y-13715632D01*
X26738000Y-24898289D01*
X26696063Y-24940226D01*
X26582795Y-25109744D01*
X26504774Y-25298102D01*
X26465000Y-25498061D01*
X26465000Y-25701939D01*
X26504774Y-25901898D01*
X26582795Y-26090256D01*
X26696063Y-26259774D01*
X26840226Y-26403937D01*
X27009744Y-26517205D01*
X27198102Y-26595226D01*
X27398061Y-26635000D01*
X27601939Y-26635000D01*
X27801898Y-26595226D01*
X27990256Y-26517205D01*
X28159774Y-26403937D01*
X28303937Y-26259774D01*
X28417205Y-26090256D01*
X28495226Y-25901898D01*
X28535000Y-25701939D01*
X28535000Y-25498061D01*
X28495226Y-25298102D01*
X28417205Y-25109744D01*
X28303937Y-24940226D01*
X28262000Y-24898289D01*
X28262000Y-14779468D01*
X28379550Y-14955394D01*
X28544606Y-15120450D01*
X28738692Y-15250134D01*
X28954348Y-15339461D01*
X29183288Y-15385000D01*
X29416712Y-15385000D01*
X29645652Y-15339461D01*
X29861308Y-15250134D01*
X30055394Y-15120450D01*
X30220450Y-14955394D01*
X30350134Y-14761308D01*
X30439461Y-14545652D01*
X30485000Y-14316712D01*
X30485000Y-14083288D01*
X30439461Y-13854348D01*
X30350134Y-13638692D01*
X30220450Y-13444606D01*
X30055394Y-13279550D01*
X29861308Y-13149866D01*
X29645652Y-13060539D01*
X29416712Y-13015000D01*
X29183288Y-13015000D01*
X28954348Y-13060539D01*
X28738692Y-13149866D01*
X28544606Y-13279550D01*
X28379550Y-13444606D01*
X28262000Y-13620532D01*
X28262000Y-13437423D01*
X28265686Y-13400000D01*
X28262000Y-13362574D01*
X28250974Y-13250622D01*
X28207402Y-13106985D01*
X28158235Y-13015000D01*
X28136645Y-12974607D01*
X28065279Y-12887648D01*
X28041422Y-12858578D01*
X28012352Y-12834721D01*
X26699157Y-11521527D01*
X26735000Y-11341335D01*
X26735000Y-11058665D01*
X26679853Y-10781426D01*
X26571680Y-10520273D01*
X26414637Y-10285241D01*
X26214759Y-10085363D01*
X25979727Y-9928320D01*
X25718574Y-9820147D01*
X25441335Y-9765000D01*
X25158665Y-9765000D01*
X24881426Y-9820147D01*
X24620273Y-9928320D01*
X24385241Y-10085363D01*
X24185363Y-10285241D01*
X24028320Y-10520273D01*
X23920147Y-10781426D01*
X23865000Y-11058665D01*
X660000Y-11058665D01*
X660000Y-8448061D01*
X9915000Y-8448061D01*
X9915000Y-8651939D01*
X9954774Y-8851898D01*
X10032795Y-9040256D01*
X10146063Y-9209774D01*
X10290226Y-9353937D01*
X10459744Y-9467205D01*
X10648102Y-9545226D01*
X10848061Y-9585000D01*
X11051939Y-9585000D01*
X11251898Y-9545226D01*
X11440256Y-9467205D01*
X11609774Y-9353937D01*
X11651711Y-9312000D01*
X14748289Y-9312000D01*
X14790226Y-9353937D01*
X14959744Y-9467205D01*
X15148102Y-9545226D01*
X15348061Y-9585000D01*
X15551939Y-9585000D01*
X15751898Y-9545226D01*
X15940256Y-9467205D01*
X16109774Y-9353937D01*
X16253937Y-9209774D01*
X16367205Y-9040256D01*
X16445226Y-8851898D01*
X16485000Y-8651939D01*
X16485000Y-8448061D01*
X16445226Y-8248102D01*
X16367205Y-8059744D01*
X16253937Y-7890226D01*
X16109774Y-7746063D01*
X15940256Y-7632795D01*
X15751898Y-7554774D01*
X15551939Y-7515000D01*
X15348061Y-7515000D01*
X15148102Y-7554774D01*
X14959744Y-7632795D01*
X14790226Y-7746063D01*
X14748289Y-7788000D01*
X11651711Y-7788000D01*
X11609774Y-7746063D01*
X11440256Y-7632795D01*
X11251898Y-7554774D01*
X11051939Y-7515000D01*
X10848061Y-7515000D01*
X10648102Y-7554774D01*
X10459744Y-7632795D01*
X10290226Y-7746063D01*
X10146063Y-7890226D01*
X10032795Y-8059744D01*
X9954774Y-8248102D01*
X9915000Y-8448061D01*
X660000Y-8448061D01*
X660000Y-6345374D01*
X1834231Y-6345374D01*
X2134411Y-6783828D01*
X2713356Y-7094296D01*
X3341746Y-7285852D01*
X3995431Y-7351134D01*
X4649293Y-7287634D01*
X5278203Y-7097792D01*
X5857992Y-6788904D01*
X5865589Y-6783828D01*
X6165769Y-6345374D01*
X4000000Y-4179605D01*
X1834231Y-6345374D01*
X660000Y-6345374D01*
X660000Y-4110078D01*
X712366Y-4649293D01*
X902208Y-5278203D01*
X1211096Y-5857992D01*
X1216172Y-5865589D01*
X1654626Y-6165769D01*
X3820395Y-4000000D01*
X4179605Y-4000000D01*
X6345374Y-6165769D01*
X6783828Y-5865589D01*
X7029753Y-5407000D01*
X7545000Y-5407000D01*
X7545000Y-5957000D01*
X7591585Y-6175987D01*
X7679997Y-6381678D01*
X7806839Y-6566169D01*
X7967236Y-6722369D01*
X8155024Y-6844276D01*
X8378126Y-6924119D01*
X8553000Y-6797954D01*
X8553000Y-5407000D01*
X7545000Y-5407000D01*
X7029753Y-5407000D01*
X7094296Y-5286644D01*
X7285852Y-4658254D01*
X7291370Y-4603000D01*
X7545000Y-4603000D01*
X7545000Y-5153000D01*
X8553000Y-5153000D01*
X8553000Y-3762046D01*
X8807000Y-3762046D01*
X8807000Y-5153000D01*
X8827000Y-5153000D01*
X8827000Y-5407000D01*
X8807000Y-5407000D01*
X8807000Y-6797954D01*
X8981874Y-6924119D01*
X9204976Y-6844276D01*
X9392764Y-6722369D01*
X9553161Y-6566169D01*
X9680003Y-6381678D01*
X9768415Y-6175987D01*
X9815000Y-5957000D01*
X9815000Y-5666904D01*
X9829978Y-5673108D01*
X10015448Y-5710000D01*
X10204552Y-5710000D01*
X10390022Y-5673108D01*
X10564731Y-5600741D01*
X10721964Y-5495681D01*
X10855681Y-5361964D01*
X10960741Y-5204731D01*
X11033108Y-5030022D01*
X11070000Y-4844552D01*
X11070000Y-4655448D01*
X14930000Y-4655448D01*
X14930000Y-4844552D01*
X14966892Y-5030022D01*
X15039259Y-5204731D01*
X15144319Y-5361964D01*
X15278036Y-5495681D01*
X15435269Y-5600741D01*
X15609978Y-5673108D01*
X15795448Y-5710000D01*
X15984552Y-5710000D01*
X16170022Y-5673108D01*
X16185000Y-5666904D01*
X16185000Y-5957000D01*
X16231585Y-6175987D01*
X16319997Y-6381678D01*
X16446839Y-6566169D01*
X16607236Y-6722369D01*
X16795024Y-6844276D01*
X17018126Y-6924119D01*
X17193000Y-6797954D01*
X17193000Y-5407000D01*
X17447000Y-5407000D01*
X17447000Y-6797954D01*
X17621874Y-6924119D01*
X17844976Y-6844276D01*
X18032764Y-6722369D01*
X18193161Y-6566169D01*
X18320003Y-6381678D01*
X18408415Y-6175987D01*
X18455000Y-5957000D01*
X18455000Y-5407000D01*
X17447000Y-5407000D01*
X17193000Y-5407000D01*
X17173000Y-5407000D01*
X17173000Y-5153000D01*
X17193000Y-5153000D01*
X17193000Y-3762046D01*
X17447000Y-3762046D01*
X17447000Y-5153000D01*
X18455000Y-5153000D01*
X18455000Y-4970512D01*
X30159783Y-4970512D01*
X30201213Y-5250130D01*
X30296397Y-5516292D01*
X30363329Y-5641514D01*
X30607298Y-5713097D01*
X31420395Y-4900000D01*
X30607298Y-4086903D01*
X30363329Y-4158486D01*
X30242429Y-4413996D01*
X30173700Y-4688184D01*
X30159783Y-4970512D01*
X18455000Y-4970512D01*
X18455000Y-4603000D01*
X18408415Y-4384013D01*
X18320003Y-4178322D01*
X18193161Y-3993831D01*
X18104303Y-3907298D01*
X30786903Y-3907298D01*
X31600000Y-4720395D01*
X32413097Y-3907298D01*
X32341514Y-3663329D01*
X32086004Y-3542429D01*
X31811816Y-3473700D01*
X31529488Y-3459783D01*
X31249870Y-3501213D01*
X30983708Y-3596397D01*
X30858486Y-3663329D01*
X30786903Y-3907298D01*
X18104303Y-3907298D01*
X18032764Y-3837631D01*
X17844976Y-3715724D01*
X17621874Y-3635881D01*
X17447000Y-3762046D01*
X17193000Y-3762046D01*
X17018126Y-3635881D01*
X16795024Y-3715724D01*
X16607236Y-3837631D01*
X16462884Y-3978206D01*
X16344731Y-3899259D01*
X16170022Y-3826892D01*
X15984552Y-3790000D01*
X15795448Y-3790000D01*
X15609978Y-3826892D01*
X15435269Y-3899259D01*
X15278036Y-4004319D01*
X15144319Y-4138036D01*
X15039259Y-4295269D01*
X14966892Y-4469978D01*
X14930000Y-4655448D01*
X11070000Y-4655448D01*
X11033108Y-4469978D01*
X10960741Y-4295269D01*
X10855681Y-4138036D01*
X10721964Y-4004319D01*
X10564731Y-3899259D01*
X10390022Y-3826892D01*
X10204552Y-3790000D01*
X10015448Y-3790000D01*
X9829978Y-3826892D01*
X9655269Y-3899259D01*
X9537116Y-3978206D01*
X9392764Y-3837631D01*
X9204976Y-3715724D01*
X8981874Y-3635881D01*
X8807000Y-3762046D01*
X8553000Y-3762046D01*
X8378126Y-3635881D01*
X8155024Y-3715724D01*
X7967236Y-3837631D01*
X7806839Y-3993831D01*
X7679997Y-4178322D01*
X7591585Y-4384013D01*
X7545000Y-4603000D01*
X7291370Y-4603000D01*
X7351134Y-4004569D01*
X7287634Y-3350707D01*
X7097792Y-2721797D01*
X6788904Y-2142008D01*
X6783828Y-2134411D01*
X6345374Y-1834231D01*
X4179605Y-4000000D01*
X3820395Y-4000000D01*
X3806253Y-3985858D01*
X3985858Y-3806253D01*
X4000000Y-3820395D01*
X6165769Y-1654626D01*
X5873003Y-1227000D01*
X7545000Y-1227000D01*
X7545000Y-1527000D01*
X7591585Y-1745987D01*
X7679997Y-1951678D01*
X7806839Y-2136169D01*
X7967236Y-2292369D01*
X8155024Y-2414276D01*
X8378126Y-2494119D01*
X8553000Y-2367954D01*
X8553000Y-1227000D01*
X8807000Y-1227000D01*
X8807000Y-2367954D01*
X8981874Y-2494119D01*
X9204976Y-2414276D01*
X9392764Y-2292369D01*
X9553161Y-2136169D01*
X9680003Y-1951678D01*
X9768415Y-1745987D01*
X9815000Y-1527000D01*
X9815000Y-1227000D01*
X16185000Y-1227000D01*
X16185000Y-1527000D01*
X16231585Y-1745987D01*
X16319997Y-1951678D01*
X16446839Y-2136169D01*
X16607236Y-2292369D01*
X16795024Y-2414276D01*
X17018126Y-2494119D01*
X17193000Y-2367954D01*
X17193000Y-1227000D01*
X17447000Y-1227000D01*
X17447000Y-2367954D01*
X17621874Y-2494119D01*
X17844976Y-2414276D01*
X18032764Y-2292369D01*
X18193161Y-2136169D01*
X18320003Y-1951678D01*
X18408415Y-1745987D01*
X18455000Y-1527000D01*
X18455000Y-1227000D01*
X17447000Y-1227000D01*
X17193000Y-1227000D01*
X16185000Y-1227000D01*
X9815000Y-1227000D01*
X8807000Y-1227000D01*
X8553000Y-1227000D01*
X7545000Y-1227000D01*
X5873003Y-1227000D01*
X5865589Y-1216172D01*
X5286644Y-905704D01*
X4658254Y-714148D01*
X4116057Y-660000D01*
X7547765Y-660000D01*
X7545000Y-673000D01*
X7545000Y-673000D01*
G37*
X7545000Y-673000D02*
X7545000Y-973000D01*
X8553000Y-973000D01*
X8553000Y-953000D01*
X8807000Y-953000D01*
X8807000Y-973000D01*
X9815000Y-973000D01*
X9815000Y-673000D01*
X9812235Y-660000D01*
X16187765Y-660000D01*
X16185000Y-673000D01*
X16185000Y-973000D01*
X17193000Y-973000D01*
X17193000Y-953000D01*
X17447000Y-953000D01*
X17447000Y-973000D01*
X18455000Y-973000D01*
X18455000Y-673000D01*
X18452235Y-660000D01*
X45889922Y-660000D01*
X45350707Y-712366D01*
X44721797Y-902208D01*
X44142008Y-1211096D01*
X44134411Y-1216172D01*
X43834231Y-1654626D01*
X46000000Y-3820395D01*
X46014143Y-3806253D01*
X46193748Y-3985858D01*
X46179605Y-4000000D01*
X48345374Y-6165769D01*
X48783828Y-5865589D01*
X49094296Y-5286644D01*
X49285852Y-4658254D01*
X49340000Y-4116057D01*
X49340001Y-94889932D01*
X49287634Y-94350707D01*
X49097792Y-93721797D01*
X48788904Y-93142008D01*
X48783828Y-93134411D01*
X48345374Y-92834231D01*
X46179605Y-95000000D01*
X46193748Y-95014143D01*
X46014143Y-95193748D01*
X46000000Y-95179605D01*
X43834231Y-97345374D01*
X44134411Y-97783828D01*
X44713356Y-98094296D01*
X45341746Y-98285852D01*
X45883943Y-98340000D01*
X28076801Y-98340000D01*
X28114759Y-98314637D01*
X28314637Y-98114759D01*
X28471680Y-97879727D01*
X28579853Y-97618574D01*
X28635000Y-97341335D01*
X28635000Y-97058665D01*
X28579853Y-96781426D01*
X28471680Y-96520273D01*
X28314637Y-96285241D01*
X28114759Y-96085363D01*
X27879727Y-95928320D01*
X27618574Y-95820147D01*
X27341335Y-95765000D01*
X27058665Y-95765000D01*
X26781426Y-95820147D01*
X26520273Y-95928320D01*
X26285241Y-96085363D01*
X26085363Y-96285241D01*
X25928320Y-96520273D01*
X25820147Y-96781426D01*
X25765000Y-97058665D01*
X25765000Y-97341335D01*
X25820147Y-97618574D01*
X25928320Y-97879727D01*
X26085363Y-98114759D01*
X26285241Y-98314637D01*
X26323199Y-98340000D01*
X4110078Y-98340000D01*
X4649293Y-98287634D01*
X5278203Y-98097792D01*
X5857992Y-97788904D01*
X5865589Y-97783828D01*
X6165769Y-97345374D01*
X4000000Y-95179605D01*
X3985858Y-95193748D01*
X3806253Y-95014143D01*
X3820395Y-95000000D01*
X4179605Y-95000000D01*
X6345374Y-97165769D01*
X6783828Y-96865589D01*
X7094296Y-96286644D01*
X7285852Y-95658254D01*
X7351134Y-95004569D01*
X7287634Y-94350707D01*
X7097792Y-93721797D01*
X6788904Y-93142008D01*
X6783828Y-93134411D01*
X6345374Y-92834231D01*
X4179605Y-95000000D01*
X3820395Y-95000000D01*
X1654626Y-92834231D01*
X1216172Y-93134411D01*
X905704Y-93713356D01*
X714148Y-94341746D01*
X660000Y-94883943D01*
X660000Y-92654626D01*
X1834231Y-92654626D01*
X4000000Y-94820395D01*
X6165769Y-92654626D01*
X5865589Y-92216172D01*
X5286644Y-91905704D01*
X4658254Y-91714148D01*
X4004569Y-91648866D01*
X3350707Y-91712366D01*
X2721797Y-91902208D01*
X2142008Y-92211096D01*
X2134411Y-92216172D01*
X1834231Y-92654626D01*
X660000Y-92654626D01*
X660000Y-91258665D01*
X21165000Y-91258665D01*
X21165000Y-91541335D01*
X21220147Y-91818574D01*
X21328320Y-92079727D01*
X21485363Y-92314759D01*
X21685241Y-92514637D01*
X21920273Y-92671680D01*
X22181426Y-92779853D01*
X22458665Y-92835000D01*
X22741335Y-92835000D01*
X23018574Y-92779853D01*
X23279727Y-92671680D01*
X23514759Y-92514637D01*
X23714637Y-92314759D01*
X23871680Y-92079727D01*
X23979853Y-91818574D01*
X24035000Y-91541335D01*
X24035000Y-91258665D01*
X23979853Y-90981426D01*
X23871680Y-90720273D01*
X23714637Y-90485241D01*
X23514759Y-90285363D01*
X23279727Y-90128320D01*
X23018574Y-90020147D01*
X22741335Y-89965000D01*
X22458665Y-89965000D01*
X22181426Y-90020147D01*
X21920273Y-90128320D01*
X21685241Y-90285363D01*
X21485363Y-90485241D01*
X21328320Y-90720273D01*
X21220147Y-90981426D01*
X21165000Y-91258665D01*
X660000Y-91258665D01*
X660000Y-89898061D01*
X17315000Y-89898061D01*
X17315000Y-90101939D01*
X17354774Y-90301898D01*
X17432795Y-90490256D01*
X17546063Y-90659774D01*
X17690226Y-90803937D01*
X17859744Y-90917205D01*
X18048102Y-90995226D01*
X18248061Y-91035000D01*
X18451939Y-91035000D01*
X18651898Y-90995226D01*
X18840256Y-90917205D01*
X19009774Y-90803937D01*
X19153937Y-90659774D01*
X19267205Y-90490256D01*
X19345226Y-90301898D01*
X19385000Y-90101939D01*
X19385000Y-89898061D01*
X19345226Y-89698102D01*
X19267205Y-89509744D01*
X19153937Y-89340226D01*
X19112000Y-89298289D01*
X19112000Y-88465630D01*
X21165000Y-86412631D01*
X21165000Y-86541335D01*
X21220147Y-86818574D01*
X21328320Y-87079727D01*
X21485363Y-87314759D01*
X21685241Y-87514637D01*
X21920273Y-87671680D01*
X22181426Y-87779853D01*
X22458665Y-87835000D01*
X22741335Y-87835000D01*
X23018574Y-87779853D01*
X23069726Y-87758665D01*
X26465000Y-87758665D01*
X26465000Y-88041335D01*
X26520147Y-88318574D01*
X26628320Y-88579727D01*
X26785363Y-88814759D01*
X26985241Y-89014637D01*
X27040880Y-89051814D01*
X26928320Y-89220273D01*
X26820147Y-89481426D01*
X26765000Y-89758665D01*
X26765000Y-90041335D01*
X26820147Y-90318574D01*
X26928320Y-90579727D01*
X27085363Y-90814759D01*
X27285241Y-91014637D01*
X27520273Y-91171680D01*
X27781426Y-91279853D01*
X28058665Y-91335000D01*
X28341335Y-91335000D01*
X28618574Y-91279853D01*
X28879727Y-91171680D01*
X29114759Y-91014637D01*
X29138001Y-90991395D01*
X29138001Y-91862567D01*
X29134314Y-91900000D01*
X29149027Y-92049378D01*
X29192599Y-92193015D01*
X29263355Y-92325392D01*
X29334721Y-92412351D01*
X29358579Y-92441422D01*
X29387649Y-92465279D01*
X30700843Y-93778473D01*
X30665000Y-93958665D01*
X30665000Y-94241335D01*
X30720147Y-94518574D01*
X30828320Y-94779727D01*
X30985363Y-95014759D01*
X31185241Y-95214637D01*
X31420273Y-95371680D01*
X31681426Y-95479853D01*
X31958665Y-95535000D01*
X32241335Y-95535000D01*
X32518574Y-95479853D01*
X32779727Y-95371680D01*
X33014759Y-95214637D01*
X33214637Y-95014759D01*
X33298008Y-94889985D01*
X33420273Y-94971680D01*
X33681426Y-95079853D01*
X33958665Y-95135000D01*
X34241335Y-95135000D01*
X34518574Y-95079853D01*
X34779727Y-94971680D01*
X35014759Y-94814637D01*
X35070731Y-94758665D01*
X40065000Y-94758665D01*
X40065000Y-95041335D01*
X40120147Y-95318574D01*
X40228320Y-95579727D01*
X40385363Y-95814759D01*
X40585241Y-96014637D01*
X40820273Y-96171680D01*
X41081426Y-96279853D01*
X41358665Y-96335000D01*
X41641335Y-96335000D01*
X41918574Y-96279853D01*
X42179727Y-96171680D01*
X42414759Y-96014637D01*
X42614637Y-95814759D01*
X42716359Y-95662521D01*
X42902208Y-96278203D01*
X43211096Y-96857992D01*
X43216172Y-96865589D01*
X43654626Y-97165769D01*
X45820395Y-95000000D01*
X45806253Y-94985858D01*
X45985858Y-94806253D01*
X46000000Y-94820395D01*
X48165769Y-92654626D01*
X47865589Y-92216172D01*
X47286644Y-91905704D01*
X46658254Y-91714148D01*
X46004569Y-91648866D01*
X45350707Y-91712366D01*
X44972477Y-91826538D01*
X45026300Y-91611816D01*
X45040217Y-91329488D01*
X44998787Y-91049870D01*
X44903603Y-90783708D01*
X44836671Y-90658486D01*
X44592702Y-90586903D01*
X43779605Y-91400000D01*
X43793748Y-91414143D01*
X43614143Y-91593748D01*
X43600000Y-91579605D01*
X42786903Y-92392702D01*
X42858486Y-92636671D01*
X43113996Y-92757571D01*
X43388184Y-92826300D01*
X43647537Y-92839084D01*
X43216172Y-93134411D01*
X42905704Y-93713356D01*
X42757601Y-94199202D01*
X42614637Y-93985241D01*
X42414759Y-93785363D01*
X42179727Y-93628320D01*
X41918574Y-93520147D01*
X41641335Y-93465000D01*
X41358665Y-93465000D01*
X41081426Y-93520147D01*
X40820273Y-93628320D01*
X40585241Y-93785363D01*
X40385363Y-93985241D01*
X40228320Y-94220273D01*
X40120147Y-94481426D01*
X40065000Y-94758665D01*
X35070731Y-94758665D01*
X35214637Y-94614759D01*
X35371680Y-94379727D01*
X35479853Y-94118574D01*
X35535000Y-93841335D01*
X35535000Y-93558665D01*
X35479853Y-93281426D01*
X35371680Y-93020273D01*
X35214637Y-92785241D01*
X35014759Y-92585363D01*
X34779727Y-92428320D01*
X34518574Y-92320147D01*
X34241335Y-92265000D01*
X33958665Y-92265000D01*
X33681426Y-92320147D01*
X33420273Y-92428320D01*
X33185241Y-92585363D01*
X32985363Y-92785241D01*
X32901992Y-92910015D01*
X32779727Y-92828320D01*
X32518574Y-92720147D01*
X32241335Y-92665000D01*
X31958665Y-92665000D01*
X31778473Y-92700843D01*
X30662000Y-91584370D01*
X30662000Y-91470512D01*
X42159783Y-91470512D01*
X42201213Y-91750130D01*
X42296397Y-92016292D01*
X42363329Y-92141514D01*
X42607298Y-92213097D01*
X43420395Y-91400000D01*
X42607298Y-90586903D01*
X42363329Y-90658486D01*
X42242429Y-90913996D01*
X42173700Y-91188184D01*
X42159783Y-91470512D01*
X30662000Y-91470512D01*
X30662000Y-89778363D01*
X34865000Y-89778363D01*
X34865000Y-90021637D01*
X34912460Y-90260236D01*
X35005557Y-90484992D01*
X35140713Y-90687267D01*
X35312733Y-90859287D01*
X35515008Y-90994443D01*
X35739764Y-91087540D01*
X35978363Y-91135000D01*
X36221637Y-91135000D01*
X36460236Y-91087540D01*
X36684992Y-90994443D01*
X36887267Y-90859287D01*
X37059287Y-90687267D01*
X37079731Y-90656670D01*
X37185363Y-90814759D01*
X37385241Y-91014637D01*
X37620273Y-91171680D01*
X37881426Y-91279853D01*
X38158665Y-91335000D01*
X38441335Y-91335000D01*
X38718574Y-91279853D01*
X38979727Y-91171680D01*
X39214759Y-91014637D01*
X39414637Y-90814759D01*
X39571680Y-90579727D01*
X39643102Y-90407298D01*
X42786903Y-90407298D01*
X43600000Y-91220395D01*
X44413097Y-90407298D01*
X44341514Y-90163329D01*
X44086004Y-90042429D01*
X43811816Y-89973700D01*
X43529488Y-89959783D01*
X43249870Y-90001213D01*
X42983708Y-90096397D01*
X42858486Y-90163329D01*
X42786903Y-90407298D01*
X39643102Y-90407298D01*
X39679853Y-90318574D01*
X39735000Y-90041335D01*
X39735000Y-89758665D01*
X39679853Y-89481426D01*
X39571680Y-89220273D01*
X39414637Y-88985241D01*
X39214759Y-88785363D01*
X39204283Y-88778363D01*
X39865000Y-88778363D01*
X39865000Y-89021637D01*
X39912460Y-89260236D01*
X40005557Y-89484992D01*
X40140713Y-89687267D01*
X40312733Y-89859287D01*
X40515008Y-89994443D01*
X40739764Y-90087540D01*
X40978363Y-90135000D01*
X41221637Y-90135000D01*
X41460236Y-90087540D01*
X41684992Y-89994443D01*
X41887267Y-89859287D01*
X42059287Y-89687267D01*
X42194443Y-89484992D01*
X42287540Y-89260236D01*
X42335000Y-89021637D01*
X42335000Y-88778363D01*
X42287540Y-88539764D01*
X42194443Y-88315008D01*
X42059287Y-88112733D01*
X41887267Y-87940713D01*
X41684992Y-87805557D01*
X41460236Y-87712460D01*
X41221637Y-87665000D01*
X40978363Y-87665000D01*
X40739764Y-87712460D01*
X40515008Y-87805557D01*
X40312733Y-87940713D01*
X40140713Y-88112733D01*
X40005557Y-88315008D01*
X39912460Y-88539764D01*
X39865000Y-88778363D01*
X39204283Y-88778363D01*
X39089985Y-88701992D01*
X39171680Y-88579727D01*
X39279853Y-88318574D01*
X39335000Y-88041335D01*
X39335000Y-87758665D01*
X39279853Y-87481426D01*
X39243103Y-87392702D01*
X42786903Y-87392702D01*
X42858486Y-87636671D01*
X43113996Y-87757571D01*
X43388184Y-87826300D01*
X43670512Y-87840217D01*
X43950130Y-87798787D01*
X44216292Y-87703603D01*
X44341514Y-87636671D01*
X44413097Y-87392702D01*
X43600000Y-86579605D01*
X42786903Y-87392702D01*
X39243103Y-87392702D01*
X39171680Y-87220273D01*
X39014637Y-86985241D01*
X38814759Y-86785363D01*
X38579727Y-86628320D01*
X38318574Y-86520147D01*
X38069046Y-86470512D01*
X42159783Y-86470512D01*
X42201213Y-86750130D01*
X42296397Y-87016292D01*
X42363329Y-87141514D01*
X42607298Y-87213097D01*
X43420395Y-86400000D01*
X43779605Y-86400000D01*
X44592702Y-87213097D01*
X44836671Y-87141514D01*
X44957571Y-86886004D01*
X45026300Y-86611816D01*
X45040217Y-86329488D01*
X44998787Y-86049870D01*
X44903603Y-85783708D01*
X44836671Y-85658486D01*
X44592702Y-85586903D01*
X43779605Y-86400000D01*
X43420395Y-86400000D01*
X42607298Y-85586903D01*
X42363329Y-85658486D01*
X42242429Y-85913996D01*
X42173700Y-86188184D01*
X42159783Y-86470512D01*
X38069046Y-86470512D01*
X38041335Y-86465000D01*
X37758665Y-86465000D01*
X37481426Y-86520147D01*
X37220273Y-86628320D01*
X36985241Y-86785363D01*
X36785363Y-86985241D01*
X36628320Y-87220273D01*
X36520147Y-87481426D01*
X36465000Y-87758665D01*
X36465000Y-88041335D01*
X36520147Y-88318574D01*
X36628320Y-88579727D01*
X36785363Y-88814759D01*
X36985241Y-89014637D01*
X37110015Y-89098008D01*
X37079731Y-89143330D01*
X37059287Y-89112733D01*
X36887267Y-88940713D01*
X36684992Y-88805557D01*
X36460236Y-88712460D01*
X36221637Y-88665000D01*
X35978363Y-88665000D01*
X35739764Y-88712460D01*
X35515008Y-88805557D01*
X35312733Y-88940713D01*
X35140713Y-89112733D01*
X35005557Y-89315008D01*
X34912460Y-89539764D01*
X34865000Y-89778363D01*
X30662000Y-89778363D01*
X30662000Y-88215630D01*
X33184928Y-85692702D01*
X34986903Y-85692702D01*
X35058486Y-85936671D01*
X35313996Y-86057571D01*
X35588184Y-86126300D01*
X35870512Y-86140217D01*
X36150130Y-86098787D01*
X36416292Y-86003603D01*
X36541514Y-85936671D01*
X36613097Y-85692702D01*
X35800000Y-84879605D01*
X34986903Y-85692702D01*
X33184928Y-85692702D01*
X33778474Y-85099157D01*
X33958665Y-85135000D01*
X34241335Y-85135000D01*
X34418931Y-85099674D01*
X34496397Y-85316292D01*
X34563329Y-85441514D01*
X34807298Y-85513097D01*
X35620395Y-84700000D01*
X35979605Y-84700000D01*
X36792702Y-85513097D01*
X37036671Y-85441514D01*
X37052861Y-85407298D01*
X42786903Y-85407298D01*
X43600000Y-86220395D01*
X44413097Y-85407298D01*
X44341514Y-85163329D01*
X44086004Y-85042429D01*
X43811816Y-84973700D01*
X43529488Y-84959783D01*
X43249870Y-85001213D01*
X42983708Y-85096397D01*
X42858486Y-85163329D01*
X42786903Y-85407298D01*
X37052861Y-85407298D01*
X37157571Y-85186004D01*
X37226300Y-84911816D01*
X37240217Y-84629488D01*
X37198787Y-84349870D01*
X37103603Y-84083708D01*
X37036671Y-83958486D01*
X36792702Y-83886903D01*
X35979605Y-84700000D01*
X35620395Y-84700000D01*
X35606253Y-84685858D01*
X35785858Y-84506253D01*
X35800000Y-84520395D01*
X36613097Y-83707298D01*
X36541514Y-83463329D01*
X36286004Y-83342429D01*
X36011816Y-83273700D01*
X35729488Y-83259783D01*
X35482818Y-83296331D01*
X35479853Y-83281426D01*
X35371680Y-83020273D01*
X35214637Y-82785241D01*
X35014759Y-82585363D01*
X34779727Y-82428320D01*
X34518574Y-82320147D01*
X34241335Y-82265000D01*
X33958665Y-82265000D01*
X33681426Y-82320147D01*
X33420273Y-82428320D01*
X33185241Y-82585363D01*
X32985363Y-82785241D01*
X32901992Y-82910015D01*
X32779727Y-82828320D01*
X32518574Y-82720147D01*
X32241335Y-82665000D01*
X31958665Y-82665000D01*
X31681426Y-82720147D01*
X31420273Y-82828320D01*
X31185241Y-82985363D01*
X30985363Y-83185241D01*
X30828320Y-83420273D01*
X30720147Y-83681426D01*
X30665000Y-83958665D01*
X30665000Y-84241335D01*
X30720147Y-84518574D01*
X30828320Y-84779727D01*
X30985363Y-85014759D01*
X31185241Y-85214637D01*
X31378561Y-85343809D01*
X29584370Y-87138000D01*
X29116707Y-87138000D01*
X29014637Y-86985241D01*
X28814759Y-86785363D01*
X28579727Y-86628320D01*
X28318574Y-86520147D01*
X28041335Y-86465000D01*
X27758665Y-86465000D01*
X27481426Y-86520147D01*
X27220273Y-86628320D01*
X26985241Y-86785363D01*
X26785363Y-86985241D01*
X26628320Y-87220273D01*
X26520147Y-87481426D01*
X26465000Y-87758665D01*
X23069726Y-87758665D01*
X23279727Y-87671680D01*
X23514759Y-87514637D01*
X23714637Y-87314759D01*
X23871680Y-87079727D01*
X23979853Y-86818574D01*
X24035000Y-86541335D01*
X24035000Y-86258665D01*
X23979853Y-85981426D01*
X23871680Y-85720273D01*
X23714637Y-85485241D01*
X23514759Y-85285363D01*
X23279727Y-85128320D01*
X23018574Y-85020147D01*
X22741335Y-84965000D01*
X22458665Y-84965000D01*
X22314247Y-84993727D01*
X22295226Y-84898102D01*
X22217205Y-84709744D01*
X22103937Y-84540226D01*
X21959774Y-84396063D01*
X21790256Y-84282795D01*
X21601898Y-84204774D01*
X21401939Y-84165000D01*
X21198061Y-84165000D01*
X20998102Y-84204774D01*
X20809744Y-84282795D01*
X20640226Y-84396063D01*
X20496063Y-84540226D01*
X20382795Y-84709744D01*
X20304774Y-84898102D01*
X20265000Y-85098061D01*
X20265000Y-85157369D01*
X17837654Y-87584716D01*
X17808578Y-87608578D01*
X17762274Y-87665000D01*
X17713355Y-87724608D01*
X17683826Y-87779853D01*
X17642598Y-87856986D01*
X17599026Y-88000623D01*
X17588000Y-88112574D01*
X17584314Y-88150000D01*
X17588000Y-88187424D01*
X17588001Y-89298288D01*
X17546063Y-89340226D01*
X17432795Y-89509744D01*
X17354774Y-89698102D01*
X17315000Y-89898061D01*
X660000Y-89898061D01*
X660000Y-80080000D01*
X2507815Y-80080000D01*
X2536487Y-80371111D01*
X2621401Y-80651034D01*
X2759294Y-80909014D01*
X2944866Y-81135134D01*
X3170986Y-81320706D01*
X3225791Y-81350000D01*
X3170986Y-81379294D01*
X2944866Y-81564866D01*
X2759294Y-81790986D01*
X2621401Y-82048966D01*
X2536487Y-82328889D01*
X2507815Y-82620000D01*
X2536487Y-82911111D01*
X2621401Y-83191034D01*
X2759294Y-83449014D01*
X2944866Y-83675134D01*
X3170986Y-83860706D01*
X3225791Y-83890000D01*
X3170986Y-83919294D01*
X2944866Y-84104866D01*
X2759294Y-84330986D01*
X2621401Y-84588966D01*
X2536487Y-84868889D01*
X2507815Y-85160000D01*
X2536487Y-85451111D01*
X2621401Y-85731034D01*
X2759294Y-85989014D01*
X2944866Y-86215134D01*
X3170986Y-86400706D01*
X3428966Y-86538599D01*
X3708889Y-86623513D01*
X3927050Y-86645000D01*
X4072950Y-86645000D01*
X4291111Y-86623513D01*
X4571034Y-86538599D01*
X4829014Y-86400706D01*
X5055134Y-86215134D01*
X5240706Y-85989014D01*
X5378599Y-85731034D01*
X5463513Y-85451111D01*
X5492185Y-85160000D01*
X5463513Y-84868889D01*
X5378599Y-84588966D01*
X5240706Y-84330986D01*
X5055134Y-84104866D01*
X4829014Y-83919294D01*
X4774209Y-83890000D01*
X4829014Y-83860706D01*
X5055134Y-83675134D01*
X5240706Y-83449014D01*
X5378599Y-83191034D01*
X5463513Y-82911111D01*
X5492185Y-82620000D01*
X5463513Y-82328889D01*
X5441455Y-82256175D01*
X6535597Y-81162033D01*
X6564672Y-81138172D01*
X6625107Y-81064531D01*
X6659895Y-81022143D01*
X6720363Y-80909014D01*
X6730652Y-80889765D01*
X6774224Y-80746128D01*
X6785250Y-80634176D01*
X6785250Y-80634173D01*
X6788936Y-80596750D01*
X6785250Y-80559327D01*
X6785250Y-80481861D01*
X6821401Y-80601034D01*
X6959294Y-80859014D01*
X7144866Y-81085134D01*
X7370986Y-81270706D01*
X7425791Y-81300000D01*
X7370986Y-81329294D01*
X7144866Y-81514866D01*
X6959294Y-81740986D01*
X6821401Y-81998966D01*
X6736487Y-82278889D01*
X6707815Y-82570000D01*
X6736487Y-82861111D01*
X6821401Y-83141034D01*
X6959294Y-83399014D01*
X7144866Y-83625134D01*
X7370986Y-83810706D01*
X7628966Y-83948599D01*
X7908889Y-84033513D01*
X8127050Y-84055000D01*
X8272950Y-84055000D01*
X8491111Y-84033513D01*
X8771034Y-83948599D01*
X9029014Y-83810706D01*
X9255134Y-83625134D01*
X9440706Y-83399014D01*
X9578599Y-83141034D01*
X9663513Y-82861111D01*
X9663753Y-82858665D01*
X23365000Y-82858665D01*
X23365000Y-83141335D01*
X23420147Y-83418574D01*
X23528320Y-83679727D01*
X23685363Y-83914759D01*
X23885241Y-84114637D01*
X24120273Y-84271680D01*
X24381426Y-84379853D01*
X24658665Y-84435000D01*
X24941335Y-84435000D01*
X25218574Y-84379853D01*
X25479727Y-84271680D01*
X25714759Y-84114637D01*
X25914637Y-83914759D01*
X26071680Y-83679727D01*
X26179853Y-83418574D01*
X26235000Y-83141335D01*
X26235000Y-82858665D01*
X26179853Y-82581426D01*
X26071680Y-82320273D01*
X25914637Y-82085241D01*
X25714759Y-81885363D01*
X25479727Y-81728320D01*
X25218574Y-81620147D01*
X24941335Y-81565000D01*
X24658665Y-81565000D01*
X24381426Y-81620147D01*
X24120273Y-81728320D01*
X23885241Y-81885363D01*
X23685363Y-82085241D01*
X23528320Y-82320273D01*
X23420147Y-82581426D01*
X23365000Y-82858665D01*
X9663753Y-82858665D01*
X9692185Y-82570000D01*
X9663513Y-82278889D01*
X9578599Y-81998966D01*
X9440706Y-81740986D01*
X9255134Y-81514866D01*
X9029014Y-81329294D01*
X8974209Y-81300000D01*
X9029014Y-81270706D01*
X9255134Y-81085134D01*
X9440706Y-80859014D01*
X9578599Y-80601034D01*
X9663513Y-80321111D01*
X9689512Y-80057142D01*
X10994716Y-81362346D01*
X11018578Y-81391422D01*
X11087148Y-81447696D01*
X11134607Y-81486645D01*
X11187406Y-81514866D01*
X11266985Y-81557402D01*
X11410622Y-81600974D01*
X11522574Y-81612000D01*
X11522577Y-81612000D01*
X11560000Y-81615686D01*
X11597423Y-81612000D01*
X15012577Y-81612000D01*
X15050000Y-81615686D01*
X15087423Y-81612000D01*
X15087426Y-81612000D01*
X15199378Y-81600974D01*
X15343015Y-81557402D01*
X15475392Y-81486645D01*
X15591422Y-81391422D01*
X15615284Y-81362346D01*
X16534704Y-80442926D01*
X16516852Y-80486024D01*
X16477078Y-80685983D01*
X16477078Y-80889861D01*
X16516852Y-81089820D01*
X16594873Y-81278178D01*
X16708141Y-81447696D01*
X16852304Y-81591859D01*
X17021822Y-81705127D01*
X17210180Y-81783148D01*
X17410139Y-81822922D01*
X17614017Y-81822922D01*
X17813976Y-81783148D01*
X18002334Y-81705127D01*
X18171852Y-81591859D01*
X18213789Y-81549922D01*
X28086211Y-81549922D01*
X28128148Y-81591859D01*
X28297666Y-81705127D01*
X28486024Y-81783148D01*
X28685983Y-81822922D01*
X28889861Y-81822922D01*
X29089820Y-81783148D01*
X29278178Y-81705127D01*
X29447696Y-81591859D01*
X29591859Y-81447696D01*
X29705127Y-81278178D01*
X29783148Y-81089820D01*
X29822922Y-80889861D01*
X29822922Y-80685983D01*
X29783148Y-80486024D01*
X29771816Y-80458665D01*
X37665000Y-80458665D01*
X37665000Y-80741335D01*
X37720147Y-81018574D01*
X37828320Y-81279727D01*
X37985363Y-81514759D01*
X38185241Y-81714637D01*
X38420273Y-81871680D01*
X38681426Y-81979853D01*
X38958665Y-82035000D01*
X39241335Y-82035000D01*
X39518574Y-81979853D01*
X39779727Y-81871680D01*
X40014759Y-81714637D01*
X40214637Y-81514759D01*
X40371680Y-81279727D01*
X40479853Y-81018574D01*
X40535000Y-80741335D01*
X40535000Y-80458665D01*
X40479853Y-80181426D01*
X40371680Y-79920273D01*
X40214637Y-79685241D01*
X40014759Y-79485363D01*
X39779727Y-79328320D01*
X39518574Y-79220147D01*
X39241335Y-79165000D01*
X38958665Y-79165000D01*
X38681426Y-79220147D01*
X38420273Y-79328320D01*
X38185241Y-79485363D01*
X37985363Y-79685241D01*
X37828320Y-79920273D01*
X37720147Y-80181426D01*
X37665000Y-80458665D01*
X29771816Y-80458665D01*
X29705127Y-80297666D01*
X29591859Y-80128148D01*
X29447696Y-79983985D01*
X29299554Y-79885000D01*
X29351939Y-79885000D01*
X29551898Y-79845226D01*
X29740256Y-79767205D01*
X29909774Y-79653937D01*
X30053937Y-79509774D01*
X30167205Y-79340256D01*
X30245226Y-79151898D01*
X30285000Y-78951939D01*
X30285000Y-78748061D01*
X30245226Y-78548102D01*
X30167205Y-78359744D01*
X30095213Y-78252000D01*
X32388289Y-78252000D01*
X32430226Y-78293937D01*
X32599744Y-78407205D01*
X32788102Y-78485226D01*
X32988061Y-78525000D01*
X33191939Y-78525000D01*
X33391898Y-78485226D01*
X33580256Y-78407205D01*
X33749774Y-78293937D01*
X33893937Y-78149774D01*
X34007205Y-77980256D01*
X34085226Y-77791898D01*
X34125000Y-77591939D01*
X34125000Y-77388061D01*
X34085226Y-77188102D01*
X34007205Y-76999744D01*
X33893937Y-76830226D01*
X33749774Y-76686063D01*
X33580256Y-76572795D01*
X33391898Y-76494774D01*
X33191939Y-76455000D01*
X32988061Y-76455000D01*
X32788102Y-76494774D01*
X32599744Y-76572795D01*
X32430226Y-76686063D01*
X32388289Y-76728000D01*
X19111711Y-76728000D01*
X19069774Y-76686063D01*
X18962947Y-76614684D01*
X22204657Y-73372974D01*
X22296063Y-73509774D01*
X22440226Y-73653937D01*
X22609744Y-73767205D01*
X22798102Y-73845226D01*
X22998061Y-73885000D01*
X23201939Y-73885000D01*
X23401898Y-73845226D01*
X23590256Y-73767205D01*
X23726861Y-73675929D01*
X23732795Y-73690256D01*
X23846063Y-73859774D01*
X23990226Y-74003937D01*
X24159744Y-74117205D01*
X24348102Y-74195226D01*
X24548061Y-74235000D01*
X24751939Y-74235000D01*
X24951898Y-74195226D01*
X25140256Y-74117205D01*
X25309774Y-74003937D01*
X25351711Y-73962000D01*
X40812577Y-73962000D01*
X40850000Y-73965686D01*
X40887423Y-73962000D01*
X40887426Y-73962000D01*
X40999378Y-73950974D01*
X41143015Y-73907402D01*
X41275392Y-73836645D01*
X41391422Y-73741422D01*
X41415284Y-73712346D01*
X48462352Y-66665279D01*
X48491422Y-66641422D01*
X48586645Y-66525392D01*
X48657402Y-66393015D01*
X48700974Y-66249378D01*
X48712000Y-66137426D01*
X48712000Y-66137424D01*
X48715686Y-66100001D01*
X48712000Y-66062578D01*
X48712000Y-42913508D01*
X48715686Y-42876085D01*
X48712000Y-42838659D01*
X48700974Y-42726707D01*
X48657402Y-42583070D01*
X48586646Y-42450694D01*
X48586645Y-42450692D01*
X48515279Y-42363733D01*
X48491422Y-42334663D01*
X48462353Y-42310807D01*
X30854339Y-24702793D01*
X30940256Y-24667205D01*
X31109774Y-24553937D01*
X31253937Y-24409774D01*
X31367205Y-24240256D01*
X31445226Y-24051898D01*
X31485000Y-23851939D01*
X31485000Y-23792630D01*
X32112347Y-23165283D01*
X32141422Y-23141422D01*
X32201857Y-23067781D01*
X32236645Y-23025393D01*
X32298630Y-22909426D01*
X32307402Y-22893015D01*
X32350974Y-22749378D01*
X32362000Y-22637426D01*
X32362000Y-22637423D01*
X32365686Y-22600000D01*
X32362000Y-22562577D01*
X32362000Y-21716707D01*
X32514759Y-21614637D01*
X32714637Y-21414759D01*
X32871680Y-21179727D01*
X32979853Y-20918574D01*
X33034492Y-20643888D01*
X33185241Y-20794637D01*
X33338001Y-20896707D01*
X33338000Y-22228489D01*
X33296063Y-22270426D01*
X33182795Y-22439944D01*
X33104774Y-22628302D01*
X33065000Y-22828261D01*
X33065000Y-23032139D01*
X33104774Y-23232098D01*
X33182795Y-23420456D01*
X33296063Y-23589974D01*
X33440226Y-23734137D01*
X33609744Y-23847405D01*
X33798102Y-23925426D01*
X33998061Y-23965200D01*
X34201939Y-23965200D01*
X34401898Y-23925426D01*
X34590256Y-23847405D01*
X34688000Y-23782095D01*
X34688000Y-25098289D01*
X34646063Y-25140226D01*
X34532795Y-25309744D01*
X34454774Y-25498102D01*
X34415000Y-25698061D01*
X34415000Y-25901939D01*
X34454774Y-26101898D01*
X34532795Y-26290256D01*
X34646063Y-26459774D01*
X34790226Y-26603937D01*
X34959744Y-26717205D01*
X35148102Y-26795226D01*
X35348061Y-26835000D01*
X35551939Y-26835000D01*
X35751898Y-26795226D01*
X35940256Y-26717205D01*
X36109774Y-26603937D01*
X36253937Y-26459774D01*
X36367205Y-26290256D01*
X36445226Y-26101898D01*
X36485000Y-25901939D01*
X36485000Y-25698061D01*
X36445226Y-25498102D01*
X36367205Y-25309744D01*
X36253937Y-25140226D01*
X36211999Y-25098288D01*
X36211999Y-24348061D01*
X36415000Y-24348061D01*
X36415000Y-24551939D01*
X36454774Y-24751898D01*
X36532795Y-24940256D01*
X36646063Y-25109774D01*
X36790226Y-25253937D01*
X36959744Y-25367205D01*
X37148102Y-25445226D01*
X37348061Y-25485000D01*
X37551939Y-25485000D01*
X37751898Y-25445226D01*
X37940256Y-25367205D01*
X38109774Y-25253937D01*
X38253937Y-25109774D01*
X38367205Y-24940256D01*
X38445226Y-24751898D01*
X38485000Y-24551939D01*
X38485000Y-24348061D01*
X38445226Y-24148102D01*
X38367205Y-23959744D01*
X38312000Y-23877124D01*
X38312000Y-16734260D01*
X38525000Y-16521260D01*
X38525000Y-16577002D01*
X38683748Y-16577002D01*
X38525000Y-16735750D01*
X38521928Y-17250000D01*
X38534188Y-17374482D01*
X38570498Y-17494180D01*
X38629463Y-17604494D01*
X38708815Y-17701185D01*
X38805506Y-17780537D01*
X38915820Y-17839502D01*
X39035518Y-17875812D01*
X39160000Y-17888072D01*
X39674250Y-17885000D01*
X39833000Y-17726250D01*
X39833000Y-16577000D01*
X40087000Y-16577000D01*
X40087000Y-17726250D01*
X40245750Y-17885000D01*
X40760000Y-17888072D01*
X40884482Y-17875812D01*
X41004180Y-17839502D01*
X41114494Y-17780537D01*
X41211185Y-17701185D01*
X41290537Y-17604494D01*
X41349502Y-17494180D01*
X41385812Y-17374482D01*
X41398072Y-17250000D01*
X41395000Y-16735750D01*
X41236250Y-16577000D01*
X40087000Y-16577000D01*
X39833000Y-16577000D01*
X39813000Y-16577000D01*
X39813000Y-16323000D01*
X39833000Y-16323000D01*
X39833000Y-16303000D01*
X40087000Y-16303000D01*
X40087000Y-16323000D01*
X41236250Y-16323000D01*
X41395000Y-16164250D01*
X41398072Y-15650000D01*
X41388318Y-15550964D01*
X41579727Y-15471680D01*
X41814759Y-15314637D01*
X42014637Y-15114759D01*
X42171680Y-14879727D01*
X42279853Y-14618574D01*
X42335000Y-14341335D01*
X42335000Y-14058665D01*
X42279853Y-13781426D01*
X42171680Y-13520273D01*
X42014637Y-13285241D01*
X41814759Y-13085363D01*
X41579727Y-12928320D01*
X41318574Y-12820147D01*
X41041335Y-12765000D01*
X40758665Y-12765000D01*
X40481426Y-12820147D01*
X40220273Y-12928320D01*
X39985241Y-13085363D01*
X39785363Y-13285241D01*
X39679918Y-13443051D01*
X39619252Y-13449026D01*
X39475615Y-13492598D01*
X39423839Y-13520273D01*
X39343237Y-13563355D01*
X39300849Y-13598143D01*
X39227208Y-13658578D01*
X39203346Y-13687654D01*
X37037654Y-15853346D01*
X37008578Y-15877208D01*
X36952983Y-15944952D01*
X36913355Y-15993238D01*
X36875535Y-16063995D01*
X36842598Y-16125616D01*
X36799026Y-16269253D01*
X36793733Y-16323000D01*
X36784314Y-16418630D01*
X36788000Y-16456053D01*
X36788001Y-23648288D01*
X36646063Y-23790226D01*
X36532795Y-23959744D01*
X36454774Y-24148102D01*
X36415000Y-24348061D01*
X36211999Y-24348061D01*
X36211999Y-11058665D01*
X39465000Y-11058665D01*
X39465000Y-11341335D01*
X39520147Y-11618574D01*
X39628320Y-11879727D01*
X39785363Y-12114759D01*
X39985241Y-12314637D01*
X40220273Y-12471680D01*
X40481426Y-12579853D01*
X40758665Y-12635000D01*
X41041335Y-12635000D01*
X41318574Y-12579853D01*
X41579727Y-12471680D01*
X41814759Y-12314637D01*
X42014637Y-12114759D01*
X42171680Y-11879727D01*
X42279853Y-11618574D01*
X42335000Y-11341335D01*
X42335000Y-11058665D01*
X42279853Y-10781426D01*
X42171680Y-10520273D01*
X42014637Y-10285241D01*
X41814759Y-10085363D01*
X41579727Y-9928320D01*
X41318574Y-9820147D01*
X41041335Y-9765000D01*
X40758665Y-9765000D01*
X40481426Y-9820147D01*
X40220273Y-9928320D01*
X39985241Y-10085363D01*
X39785363Y-10285241D01*
X39628320Y-10520273D01*
X39520147Y-10781426D01*
X39465000Y-11058665D01*
X36211999Y-11058665D01*
X36211999Y-6345374D01*
X43834231Y-6345374D01*
X44134411Y-6783828D01*
X44713356Y-7094296D01*
X45341746Y-7285852D01*
X45995431Y-7351134D01*
X46649293Y-7287634D01*
X47278203Y-7097792D01*
X47857992Y-6788904D01*
X47865589Y-6783828D01*
X48165769Y-6345374D01*
X46000000Y-4179605D01*
X43834231Y-6345374D01*
X36211999Y-6345374D01*
X36211999Y-5787421D01*
X36215685Y-5749998D01*
X36211999Y-5712573D01*
X36200973Y-5600621D01*
X36157401Y-5456984D01*
X36086644Y-5324607D01*
X35999721Y-5218691D01*
X36035000Y-5041335D01*
X36035000Y-4758665D01*
X35979853Y-4481426D01*
X35871680Y-4220273D01*
X35721446Y-3995431D01*
X42648866Y-3995431D01*
X42712366Y-4649293D01*
X42902208Y-5278203D01*
X43211096Y-5857992D01*
X43216172Y-5865589D01*
X43654626Y-6165769D01*
X45820395Y-4000000D01*
X43654626Y-1834231D01*
X43216172Y-2134411D01*
X42905704Y-2713356D01*
X42714148Y-3341746D01*
X42648866Y-3995431D01*
X35721446Y-3995431D01*
X35714637Y-3985241D01*
X35514759Y-3785363D01*
X35279727Y-3628320D01*
X35018574Y-3520147D01*
X34741335Y-3465000D01*
X34458665Y-3465000D01*
X34181426Y-3520147D01*
X33920273Y-3628320D01*
X33685241Y-3785363D01*
X33485363Y-3985241D01*
X33328320Y-4220273D01*
X33220147Y-4481426D01*
X33165000Y-4758665D01*
X33165000Y-5041335D01*
X33220147Y-5318574D01*
X33328320Y-5579727D01*
X33485363Y-5814759D01*
X33685241Y-6014637D01*
X33920273Y-6171680D01*
X34181426Y-6279853D01*
X34458665Y-6335000D01*
X34687999Y-6335000D01*
X34688000Y-18370325D01*
X34518574Y-18300147D01*
X34241335Y-18245000D01*
X33958665Y-18245000D01*
X33681426Y-18300147D01*
X33420273Y-18408320D01*
X33185241Y-18565363D01*
X32985363Y-18765241D01*
X32828320Y-19000273D01*
X32720147Y-19261426D01*
X32665508Y-19536112D01*
X32514759Y-19385363D01*
X32279727Y-19228320D01*
X32018574Y-19120147D01*
X31741335Y-19065000D01*
X31712631Y-19065000D01*
X32612352Y-18165279D01*
X32641422Y-18141422D01*
X32668772Y-18108096D01*
X32736645Y-18025393D01*
X32807401Y-17893016D01*
X32807402Y-17893015D01*
X32850974Y-17749378D01*
X32862000Y-17637426D01*
X32862000Y-17637423D01*
X32865686Y-17600000D01*
X32862000Y-17562577D01*
X32862000Y-8136707D01*
X33014759Y-8034637D01*
X33214637Y-7834759D01*
X33371680Y-7599727D01*
X33479853Y-7338574D01*
X33535000Y-7061335D01*
X33535000Y-6778665D01*
X33479853Y-6501426D01*
X33371680Y-6240273D01*
X33214637Y-6005241D01*
X33014759Y-5805363D01*
X32790025Y-5655201D01*
X32836671Y-5641514D01*
X32957571Y-5386004D01*
X33026300Y-5111816D01*
X33040217Y-4829488D01*
X32998787Y-4549870D01*
X32903603Y-4283708D01*
X32836671Y-4158486D01*
X32592702Y-4086903D01*
X31779605Y-4900000D01*
X31793748Y-4914143D01*
X31614143Y-5093748D01*
X31600000Y-5079605D01*
X30786903Y-5892702D01*
X30858486Y-6136671D01*
X30888162Y-6150713D01*
X30828320Y-6240273D01*
X30720147Y-6501426D01*
X30665000Y-6778665D01*
X30665000Y-7061335D01*
X30720147Y-7338574D01*
X30828320Y-7599727D01*
X30985363Y-7834759D01*
X31185241Y-8034637D01*
X31338000Y-8136707D01*
X31338001Y-17284368D01*
X28787654Y-19834716D01*
X28758578Y-19858578D01*
X28702983Y-19926322D01*
X28663355Y-19974608D01*
X28625535Y-20045365D01*
X28592598Y-20106986D01*
X28549026Y-20250623D01*
X28538000Y-20362574D01*
X28534314Y-20400000D01*
X28538000Y-20437423D01*
X28538001Y-22958688D01*
X28496063Y-23000626D01*
X28382795Y-23170144D01*
X28304774Y-23358502D01*
X28265000Y-23558461D01*
X28265000Y-23762339D01*
X28304774Y-23962298D01*
X28382795Y-24150656D01*
X28496063Y-24320174D01*
X28548772Y-24372883D01*
X28549026Y-24375463D01*
X28592598Y-24519100D01*
X28623870Y-24577605D01*
X28663355Y-24651477D01*
X28734721Y-24738436D01*
X28758579Y-24767507D01*
X28787649Y-24791364D01*
X35434285Y-31438000D01*
X11337422Y-31438000D01*
X11299999Y-31434314D01*
X11262576Y-31438000D01*
X11262574Y-31438000D01*
X11150622Y-31449026D01*
X11006985Y-31492598D01*
X10874608Y-31563355D01*
X10758578Y-31658578D01*
X10734720Y-31687649D01*
X10507369Y-31915000D01*
X10448061Y-31915000D01*
X10248102Y-31954774D01*
X10059744Y-32032795D01*
X9890226Y-32146063D01*
X9746063Y-32290226D01*
X9632795Y-32459744D01*
X9554774Y-32648102D01*
X9515000Y-32848061D01*
X9515000Y-33051939D01*
X9554774Y-33251898D01*
X9632795Y-33440256D01*
X9746063Y-33609774D01*
X9890226Y-33753937D01*
X10059744Y-33867205D01*
X10248102Y-33945226D01*
X10448061Y-33985000D01*
X10651939Y-33985000D01*
X10851898Y-33945226D01*
X11040256Y-33867205D01*
X11209774Y-33753937D01*
X11353937Y-33609774D01*
X11467205Y-33440256D01*
X11545226Y-33251898D01*
X11585000Y-33051939D01*
X11585000Y-32992631D01*
X11615631Y-32962000D01*
X36311693Y-32962000D01*
X46730790Y-43381098D01*
X46730791Y-60676900D01*
X46695226Y-60498102D01*
X46617205Y-60309744D01*
X46503937Y-60140226D01*
X46359774Y-59996063D01*
X46190256Y-59882795D01*
X46001898Y-59804774D01*
X45801939Y-59765000D01*
X45598061Y-59765000D01*
X45398102Y-59804774D01*
X45209744Y-59882795D01*
X45040226Y-59996063D01*
X44896063Y-60140226D01*
X44782795Y-60309744D01*
X44704774Y-60498102D01*
X44665000Y-60698061D01*
X44665000Y-60901939D01*
X44704774Y-61101898D01*
X44757900Y-61230154D01*
X44130928Y-61857126D01*
X44195226Y-61701898D01*
X44235000Y-61501939D01*
X44235000Y-61298061D01*
X44195226Y-61098102D01*
X44117205Y-60909744D01*
X44003937Y-60740226D01*
X43962000Y-60698289D01*
X43962000Y-50587423D01*
X43965686Y-50550000D01*
X43957152Y-50463355D01*
X43950974Y-50400622D01*
X43907402Y-50256985D01*
X43836646Y-50124609D01*
X43836645Y-50124607D01*
X43765279Y-50037648D01*
X43741422Y-50008578D01*
X43712353Y-49984722D01*
X35481613Y-41753983D01*
X35457751Y-41724907D01*
X35341721Y-41629684D01*
X35209344Y-41558927D01*
X35065707Y-41515355D01*
X34953755Y-41504329D01*
X34953752Y-41504329D01*
X34916329Y-41500643D01*
X34878906Y-41504329D01*
X22604000Y-41504329D01*
X22550875Y-41376074D01*
X22437607Y-41206556D01*
X22293444Y-41062393D01*
X22123926Y-40949125D01*
X21935568Y-40871104D01*
X21735609Y-40831330D01*
X21531731Y-40831330D01*
X21331772Y-40871104D01*
X21143414Y-40949125D01*
X20973896Y-41062393D01*
X20829733Y-41206556D01*
X20716465Y-41376074D01*
X20638444Y-41564432D01*
X20598670Y-41764391D01*
X20598670Y-41968269D01*
X20638444Y-42168228D01*
X20716465Y-42356586D01*
X20829733Y-42526104D01*
X20973896Y-42670267D01*
X21143414Y-42783535D01*
X21331772Y-42861556D01*
X21531731Y-42901330D01*
X21606274Y-42901330D01*
X21608277Y-42902974D01*
X21740654Y-42973731D01*
X21884291Y-43017303D01*
X21996243Y-43028329D01*
X21996245Y-43028329D01*
X22033668Y-43032015D01*
X22071091Y-43028329D01*
X34600699Y-43028329D01*
X42438000Y-50865631D01*
X42438001Y-60698288D01*
X42396063Y-60740226D01*
X42282795Y-60909744D01*
X42204774Y-61098102D01*
X42165000Y-61298061D01*
X42165000Y-61501939D01*
X42204774Y-61701898D01*
X42282795Y-61890256D01*
X42396063Y-62059774D01*
X42540226Y-62203937D01*
X42709744Y-62317205D01*
X42898102Y-62395226D01*
X43098061Y-62435000D01*
X43301939Y-62435000D01*
X43501898Y-62395226D01*
X43657126Y-62330928D01*
X37144609Y-68843446D01*
X37172168Y-68776912D01*
X37235000Y-68461033D01*
X37235000Y-68138967D01*
X37172168Y-67823088D01*
X37048918Y-67525537D01*
X36869987Y-67257748D01*
X36662239Y-67050000D01*
X36869987Y-66842252D01*
X37048918Y-66574463D01*
X37172168Y-66276912D01*
X37235000Y-65961033D01*
X37235000Y-65638967D01*
X37172168Y-65323088D01*
X37048918Y-65025537D01*
X36869987Y-64757748D01*
X36642252Y-64530013D01*
X36374463Y-64351082D01*
X36076912Y-64227832D01*
X35761033Y-64165000D01*
X35438967Y-64165000D01*
X35123088Y-64227832D01*
X34825537Y-64351082D01*
X34644665Y-64471937D01*
X34630537Y-64445506D01*
X34551185Y-64348815D01*
X34454494Y-64269463D01*
X34344180Y-64210498D01*
X34224482Y-64174188D01*
X34100000Y-64161928D01*
X33385750Y-64165000D01*
X33227000Y-64323750D01*
X33227000Y-65673000D01*
X33247000Y-65673000D01*
X33247000Y-65927000D01*
X33227000Y-65927000D01*
X33227000Y-67276250D01*
X33385750Y-67435000D01*
X34100000Y-67438072D01*
X34217240Y-67426525D01*
X34151082Y-67525537D01*
X34027832Y-67823088D01*
X33965000Y-68138967D01*
X33965000Y-68461033D01*
X34027832Y-68776912D01*
X34151082Y-69074463D01*
X34330013Y-69342252D01*
X34557748Y-69569987D01*
X34825537Y-69748918D01*
X35123088Y-69872168D01*
X35438967Y-69935000D01*
X35761033Y-69935000D01*
X36076912Y-69872168D01*
X36143446Y-69844608D01*
X35650055Y-70338000D01*
X33715631Y-70338000D01*
X32167006Y-68789375D01*
X32172168Y-68776912D01*
X32235000Y-68461033D01*
X32235000Y-68138967D01*
X32172168Y-67823088D01*
X32048918Y-67525537D01*
X31982760Y-67426525D01*
X32100000Y-67438072D01*
X32814250Y-67435000D01*
X32973000Y-67276250D01*
X32973000Y-65927000D01*
X32953000Y-65927000D01*
X32953000Y-65673000D01*
X32973000Y-65673000D01*
X32973000Y-64323750D01*
X32814250Y-64165000D01*
X32100000Y-64161928D01*
X31975518Y-64174188D01*
X31855820Y-64210498D01*
X31745506Y-64269463D01*
X31648815Y-64348815D01*
X31569463Y-64445506D01*
X31555335Y-64471937D01*
X31374463Y-64351082D01*
X31076912Y-64227832D01*
X30761033Y-64165000D01*
X30438967Y-64165000D01*
X30123088Y-64227832D01*
X29825537Y-64351082D01*
X29557748Y-64530013D01*
X29330013Y-64757748D01*
X29151082Y-65025537D01*
X29027832Y-65323088D01*
X28965000Y-65638967D01*
X28965000Y-65961033D01*
X29027832Y-66276912D01*
X29151082Y-66574463D01*
X29330013Y-66842252D01*
X29537761Y-67050000D01*
X29330013Y-67257748D01*
X29151082Y-67525537D01*
X29027832Y-67823088D01*
X28965000Y-68138967D01*
X28965000Y-68461033D01*
X29027832Y-68776912D01*
X29151082Y-69074463D01*
X29330013Y-69342252D01*
X29557748Y-69569987D01*
X29825537Y-69748918D01*
X30123088Y-69872168D01*
X30438967Y-69935000D01*
X30761033Y-69935000D01*
X31076912Y-69872168D01*
X31089375Y-69867006D01*
X31137370Y-69915000D01*
X30998061Y-69915000D01*
X30798102Y-69954774D01*
X30609744Y-70032795D01*
X30440226Y-70146063D01*
X30398289Y-70188000D01*
X23587422Y-70188000D01*
X23549999Y-70184314D01*
X23512576Y-70188000D01*
X23512574Y-70188000D01*
X23400622Y-70199026D01*
X23256985Y-70242598D01*
X23124608Y-70313355D01*
X23008578Y-70408578D01*
X22984721Y-70437648D01*
X14857370Y-78565000D01*
X14798061Y-78565000D01*
X14598102Y-78604774D01*
X14409744Y-78682795D01*
X14240226Y-78796063D01*
X14096063Y-78940226D01*
X13982795Y-79109744D01*
X13904774Y-79298102D01*
X13865000Y-79498061D01*
X13865000Y-79701939D01*
X13904774Y-79901898D01*
X13981861Y-80088000D01*
X13258795Y-80088000D01*
X13309774Y-80053937D01*
X13453937Y-79909774D01*
X13567205Y-79740256D01*
X13645226Y-79551898D01*
X13685000Y-79351939D01*
X13685000Y-79292630D01*
X21742631Y-71235000D01*
X21801939Y-71235000D01*
X22001898Y-71195226D01*
X22190256Y-71117205D01*
X22359774Y-71003937D01*
X22503937Y-70859774D01*
X22617205Y-70690256D01*
X22695226Y-70501898D01*
X22735000Y-70301939D01*
X22735000Y-70098061D01*
X22695226Y-69898102D01*
X22617205Y-69709744D01*
X22503937Y-69540226D01*
X22359774Y-69396063D01*
X22190256Y-69282795D01*
X22001898Y-69204774D01*
X21801939Y-69165000D01*
X21598061Y-69165000D01*
X21398102Y-69204774D01*
X21331963Y-69232170D01*
X21303937Y-69190226D01*
X21159774Y-69046063D01*
X20990256Y-68932795D01*
X20801898Y-68854774D01*
X20601939Y-68815000D01*
X20398061Y-68815000D01*
X20198102Y-68854774D01*
X20009744Y-68932795D01*
X19840226Y-69046063D01*
X19798289Y-69088000D01*
X9887422Y-69088000D01*
X9849999Y-69084314D01*
X9812576Y-69088000D01*
X9812574Y-69088000D01*
X9700622Y-69099026D01*
X9556985Y-69142598D01*
X9424608Y-69213355D01*
X9308578Y-69308578D01*
X9284721Y-69337648D01*
X7357370Y-71265000D01*
X7298061Y-71265000D01*
X7098102Y-71304774D01*
X6909744Y-71382795D01*
X6785250Y-71465979D01*
X6785250Y-56567582D01*
X31440000Y-56567582D01*
X31440000Y-57032419D01*
X31442729Y-57060123D01*
X31442721Y-57061211D01*
X31443620Y-57070382D01*
X31445512Y-57088389D01*
X31449550Y-57129383D01*
X31456640Y-57152756D01*
X31459724Y-57167779D01*
X31470936Y-57226558D01*
X31473600Y-57235379D01*
X31485142Y-57272667D01*
X31508322Y-57327810D01*
X31530730Y-57383273D01*
X31535056Y-57391410D01*
X31553621Y-57425746D01*
X31587082Y-57475355D01*
X31619835Y-57525406D01*
X31625660Y-57532547D01*
X31650541Y-57562622D01*
X31692980Y-57604765D01*
X31734838Y-57647508D01*
X31741939Y-57653381D01*
X31741942Y-57653384D01*
X31741946Y-57653386D01*
X31772187Y-57678051D01*
X31821975Y-57711129D01*
X31871362Y-57744946D01*
X31879469Y-57749328D01*
X31913933Y-57767653D01*
X31969215Y-57790439D01*
X32024218Y-57814014D01*
X32033021Y-57816739D01*
X32070388Y-57828021D01*
X32129066Y-57839639D01*
X32148826Y-57843840D01*
X32170617Y-57850450D01*
X32194112Y-57852764D01*
X32196748Y-57853041D01*
X32235595Y-57856850D01*
X32235598Y-57856850D01*
X32267581Y-57860000D01*
X33932419Y-57860000D01*
X33960123Y-57857271D01*
X33961211Y-57857279D01*
X33970382Y-57856380D01*
X33988389Y-57854488D01*
X34029383Y-57850450D01*
X34052756Y-57843360D01*
X34067779Y-57840276D01*
X34126558Y-57829064D01*
X34135379Y-57826400D01*
X34172667Y-57814858D01*
X34227810Y-57791678D01*
X34283273Y-57769270D01*
X34291410Y-57764944D01*
X34325746Y-57746379D01*
X34375355Y-57712918D01*
X34425406Y-57680165D01*
X34432547Y-57674340D01*
X34462622Y-57649459D01*
X34504765Y-57607020D01*
X34547508Y-57565162D01*
X34553381Y-57558061D01*
X34553384Y-57558058D01*
X34553386Y-57558054D01*
X34578051Y-57527813D01*
X34611129Y-57478025D01*
X34644946Y-57428638D01*
X34649328Y-57420531D01*
X34667653Y-57386067D01*
X34690439Y-57330785D01*
X34714014Y-57275782D01*
X34716739Y-57266979D01*
X34728021Y-57229612D01*
X34739639Y-57170934D01*
X34743840Y-57151174D01*
X34750450Y-57129383D01*
X34752764Y-57105888D01*
X34753041Y-57103252D01*
X34756850Y-57064405D01*
X34756850Y-57064402D01*
X34760000Y-57032419D01*
X34760000Y-56567582D01*
X34757271Y-56539877D01*
X34757279Y-56538789D01*
X34756380Y-56529618D01*
X34754488Y-56511612D01*
X34750450Y-56470617D01*
X34743359Y-56447242D01*
X34740276Y-56432222D01*
X34729064Y-56373443D01*
X34726400Y-56364621D01*
X34714858Y-56327334D01*
X34691686Y-56272208D01*
X34669271Y-56216727D01*
X34664944Y-56208591D01*
X34664943Y-56208588D01*
X34664940Y-56208583D01*
X34646379Y-56174254D01*
X34612928Y-56124661D01*
X34580165Y-56074594D01*
X34574340Y-56067453D01*
X34549459Y-56037378D01*
X34507020Y-55995235D01*
X34465162Y-55952492D01*
X34458061Y-55946618D01*
X34427812Y-55921949D01*
X34378042Y-55888883D01*
X34328638Y-55855054D01*
X34320531Y-55850672D01*
X34286067Y-55832347D01*
X34230785Y-55809561D01*
X34175782Y-55785986D01*
X34166979Y-55783261D01*
X34129612Y-55771979D01*
X34070927Y-55760359D01*
X34051175Y-55756161D01*
X34029383Y-55749550D01*
X34005888Y-55747236D01*
X34003252Y-55746959D01*
X33964405Y-55743150D01*
X33964402Y-55743150D01*
X33932419Y-55740000D01*
X32267581Y-55740000D01*
X32239877Y-55742729D01*
X32238789Y-55742721D01*
X32229618Y-55743620D01*
X32211619Y-55745512D01*
X32170617Y-55749550D01*
X32147242Y-55756641D01*
X32132222Y-55759724D01*
X32073443Y-55770936D01*
X32064621Y-55773600D01*
X32027334Y-55785142D01*
X31972208Y-55808314D01*
X31916727Y-55830729D01*
X31908593Y-55835055D01*
X31908588Y-55835057D01*
X31908583Y-55835060D01*
X31874254Y-55853621D01*
X31824661Y-55887072D01*
X31774594Y-55919835D01*
X31767453Y-55925660D01*
X31737378Y-55950541D01*
X31695235Y-55992980D01*
X31652492Y-56034838D01*
X31646618Y-56041939D01*
X31621949Y-56072188D01*
X31588883Y-56121958D01*
X31555054Y-56171362D01*
X31550672Y-56179469D01*
X31532347Y-56213933D01*
X31509561Y-56269215D01*
X31485986Y-56324218D01*
X31483261Y-56333021D01*
X31471979Y-56370388D01*
X31460359Y-56429073D01*
X31456160Y-56448829D01*
X31449550Y-56470618D01*
X31447238Y-56494097D01*
X31446959Y-56496748D01*
X31443150Y-56535595D01*
X31440000Y-56567582D01*
X6785250Y-56567582D01*
X6785250Y-55442380D01*
X9792631Y-52435000D01*
X9851939Y-52435000D01*
X10051898Y-52395226D01*
X10240256Y-52317205D01*
X10409774Y-52203937D01*
X10553937Y-52059774D01*
X10667205Y-51890256D01*
X10745226Y-51701898D01*
X10785000Y-51501939D01*
X10785000Y-51298061D01*
X10745226Y-51098102D01*
X10667205Y-50909744D01*
X10553937Y-50740226D01*
X10409774Y-50596063D01*
X10240256Y-50482795D01*
X10051898Y-50404774D01*
X9851939Y-50365000D01*
X9648061Y-50365000D01*
X9448102Y-50404774D01*
X9259744Y-50482795D01*
X9090226Y-50596063D01*
X8946063Y-50740226D01*
X8832795Y-50909744D01*
X8754774Y-51098102D01*
X8715000Y-51298061D01*
X8715000Y-51357369D01*
X6328040Y-53744330D01*
X6328040Y-45412612D01*
X6409744Y-45467205D01*
X6598102Y-45545226D01*
X6798061Y-45585000D01*
X6857370Y-45585000D01*
X12884721Y-51612352D01*
X12908578Y-51641422D01*
X12937648Y-51665279D01*
X13024607Y-51736645D01*
X13067879Y-51759774D01*
X13156985Y-51807402D01*
X13300622Y-51850974D01*
X13412574Y-51862000D01*
X13412577Y-51862000D01*
X13450000Y-51865686D01*
X13487423Y-51862000D01*
X14348289Y-51862000D01*
X14390226Y-51903937D01*
X14559744Y-52017205D01*
X14748102Y-52095226D01*
X14948061Y-52135000D01*
X15151939Y-52135000D01*
X15351898Y-52095226D01*
X15540256Y-52017205D01*
X15709774Y-51903937D01*
X15762483Y-51851228D01*
X15765063Y-51850974D01*
X15908700Y-51807402D01*
X16041077Y-51736645D01*
X16157107Y-51641422D01*
X16180969Y-51612346D01*
X17395652Y-50397663D01*
X29015000Y-50397663D01*
X29015000Y-51202337D01*
X29171984Y-51991551D01*
X29479920Y-52734973D01*
X29926973Y-53404036D01*
X30495964Y-53973027D01*
X31165027Y-54420080D01*
X31908449Y-54728016D01*
X32697663Y-54885000D01*
X33502337Y-54885000D01*
X34291551Y-54728016D01*
X35034973Y-54420080D01*
X35704036Y-53973027D01*
X36273027Y-53404036D01*
X36720080Y-52734973D01*
X37028016Y-51991551D01*
X37185000Y-51202337D01*
X37185000Y-50397663D01*
X37028016Y-49608449D01*
X36720080Y-48865027D01*
X36273027Y-48195964D01*
X35704036Y-47626973D01*
X35034973Y-47179920D01*
X34291551Y-46871984D01*
X33502337Y-46715000D01*
X32697663Y-46715000D01*
X31908449Y-46871984D01*
X31165027Y-47179920D01*
X30495964Y-47626973D01*
X29926973Y-48195964D01*
X29479920Y-48865027D01*
X29171984Y-49608449D01*
X29015000Y-50397663D01*
X17395652Y-50397663D01*
X18912353Y-48880963D01*
X18941422Y-48857107D01*
X19036645Y-48741077D01*
X19107402Y-48608700D01*
X19150974Y-48465063D01*
X19162000Y-48353111D01*
X19162000Y-48353109D01*
X19165686Y-48315686D01*
X19162000Y-48278263D01*
X19162000Y-36101711D01*
X19203937Y-36059774D01*
X19317205Y-35890256D01*
X19395226Y-35701898D01*
X19435000Y-35501939D01*
X19435000Y-35298061D01*
X19395226Y-35098102D01*
X19317205Y-34909744D01*
X19203937Y-34740226D01*
X19059774Y-34596063D01*
X18890256Y-34482795D01*
X18701898Y-34404774D01*
X18501939Y-34365000D01*
X18298061Y-34365000D01*
X18098102Y-34404774D01*
X17909744Y-34482795D01*
X17740226Y-34596063D01*
X17596063Y-34740226D01*
X17482795Y-34909744D01*
X17404774Y-35098102D01*
X17365000Y-35298061D01*
X17365000Y-35501939D01*
X17404774Y-35701898D01*
X17482795Y-35890256D01*
X17596063Y-36059774D01*
X17638001Y-36101712D01*
X17638000Y-48000054D01*
X15480155Y-50157900D01*
X15351898Y-50104774D01*
X15151939Y-50065000D01*
X14948061Y-50065000D01*
X14748102Y-50104774D01*
X14559744Y-50182795D01*
X14390226Y-50296063D01*
X14348289Y-50338000D01*
X13765631Y-50338000D01*
X7935000Y-44507370D01*
X7935000Y-44448061D01*
X7895226Y-44248102D01*
X7817205Y-44059744D01*
X7703937Y-43890226D01*
X7662000Y-43848289D01*
X7662000Y-35482999D01*
X7851898Y-35445226D01*
X8040256Y-35367205D01*
X8209774Y-35253937D01*
X8353937Y-35109774D01*
X8467205Y-34940256D01*
X8545226Y-34751898D01*
X8585000Y-34551939D01*
X8585000Y-34348061D01*
X8545226Y-34148102D01*
X8467205Y-33959744D01*
X8353937Y-33790226D01*
X8209774Y-33646063D01*
X8040256Y-33532795D01*
X7851898Y-33454774D01*
X7651939Y-33415000D01*
X7448061Y-33415000D01*
X7248102Y-33454774D01*
X7059744Y-33532795D01*
X6890226Y-33646063D01*
X6746063Y-33790226D01*
X6632795Y-33959744D01*
X6554774Y-34148102D01*
X6515000Y-34348061D01*
X6515000Y-34407370D01*
X6387653Y-34534717D01*
X6358578Y-34558578D01*
X6325094Y-34599379D01*
X6263355Y-34674608D01*
X6228282Y-34740226D01*
X6192598Y-34806986D01*
X6149026Y-34950623D01*
X6146664Y-34974608D01*
X6134314Y-35100000D01*
X6138000Y-35137423D01*
X6138000Y-37115000D01*
X5948061Y-37115000D01*
X5748102Y-37154774D01*
X5559744Y-37232795D01*
X5390226Y-37346063D01*
X5246063Y-37490226D01*
X5132795Y-37659744D01*
X5054774Y-37848102D01*
X5015000Y-38048061D01*
X5015000Y-38104259D01*
X5000762Y-38121608D01*
X5000761Y-38121609D01*
X4929395Y-38208568D01*
X4858639Y-38340945D01*
X4815067Y-38484582D01*
X4800354Y-38633960D01*
X4804041Y-38671393D01*
X4804040Y-73511928D01*
X3150000Y-73511928D01*
X3025518Y-73524188D01*
X2905820Y-73560498D01*
X2795506Y-73619463D01*
X2698815Y-73698815D01*
X2619463Y-73795506D01*
X2560498Y-73905820D01*
X2524188Y-74025518D01*
X2511928Y-74150000D01*
X2511928Y-75850000D01*
X2524188Y-75974482D01*
X2560498Y-76094180D01*
X2619463Y-76204494D01*
X2698815Y-76301185D01*
X2795506Y-76380537D01*
X2905820Y-76439502D01*
X2986466Y-76463966D01*
X2902412Y-76539731D01*
X2728359Y-76773080D01*
X2603175Y-77035901D01*
X2558524Y-77183110D01*
X2679845Y-77413000D01*
X3873000Y-77413000D01*
X3873000Y-77393000D01*
X4127000Y-77393000D01*
X4127000Y-77413000D01*
X4147000Y-77413000D01*
X4147000Y-77667000D01*
X4127000Y-77667000D01*
X4127000Y-77687000D01*
X3873000Y-77687000D01*
X3873000Y-77667000D01*
X2679845Y-77667000D01*
X2558524Y-77896890D01*
X2603175Y-78044099D01*
X2728359Y-78306920D01*
X2902412Y-78540269D01*
X3118645Y-78735178D01*
X3235523Y-78804799D01*
X3170986Y-78839294D01*
X2944866Y-79024866D01*
X2759294Y-79250986D01*
X2621401Y-79508966D01*
X2536487Y-79788889D01*
X2507815Y-80080000D01*
X660000Y-80080000D01*
X660000Y-11058665D01*
X23865000Y-11058665D01*
X23865000Y-11341335D01*
X23920147Y-11618574D01*
X24028320Y-11879727D01*
X24185363Y-12114759D01*
X24385241Y-12314637D01*
X24620273Y-12471680D01*
X24881426Y-12579853D01*
X25158665Y-12635000D01*
X25441335Y-12635000D01*
X25621527Y-12599157D01*
X25930157Y-12907787D01*
X25718574Y-12820147D01*
X25441335Y-12765000D01*
X25158665Y-12765000D01*
X24881426Y-12820147D01*
X24620273Y-12928320D01*
X24385241Y-13085363D01*
X24185363Y-13285241D01*
X24028320Y-13520273D01*
X23920147Y-13781426D01*
X23865000Y-14058665D01*
X23865000Y-14341335D01*
X23920147Y-14618574D01*
X24028320Y-14879727D01*
X24185363Y-15114759D01*
X24385241Y-15314637D01*
X24620273Y-15471680D01*
X24881426Y-15579853D01*
X25158665Y-15635000D01*
X25441335Y-15635000D01*
X25718574Y-15579853D01*
X25979727Y-15471680D01*
X26214759Y-15314637D01*
X26414637Y-15114759D01*
X26571680Y-14879727D01*
X26679853Y-14618574D01*
X26735000Y-14341335D01*
X26735000Y-14058665D01*
X26679853Y-13781426D01*
X26592213Y-13569844D01*
X26738001Y-13715632D01*
X26738000Y-24898289D01*
X26696063Y-24940226D01*
X26582795Y-25109744D01*
X26504774Y-25298102D01*
X26465000Y-25498061D01*
X26465000Y-25701939D01*
X26504774Y-25901898D01*
X26582795Y-26090256D01*
X26696063Y-26259774D01*
X26840226Y-26403937D01*
X27009744Y-26517205D01*
X27198102Y-26595226D01*
X27398061Y-26635000D01*
X27601939Y-26635000D01*
X27801898Y-26595226D01*
X27990256Y-26517205D01*
X28159774Y-26403937D01*
X28303937Y-26259774D01*
X28417205Y-26090256D01*
X28495226Y-25901898D01*
X28535000Y-25701939D01*
X28535000Y-25498061D01*
X28495226Y-25298102D01*
X28417205Y-25109744D01*
X28303937Y-24940226D01*
X28262000Y-24898289D01*
X28262000Y-14779468D01*
X28379550Y-14955394D01*
X28544606Y-15120450D01*
X28738692Y-15250134D01*
X28954348Y-15339461D01*
X29183288Y-15385000D01*
X29416712Y-15385000D01*
X29645652Y-15339461D01*
X29861308Y-15250134D01*
X30055394Y-15120450D01*
X30220450Y-14955394D01*
X30350134Y-14761308D01*
X30439461Y-14545652D01*
X30485000Y-14316712D01*
X30485000Y-14083288D01*
X30439461Y-13854348D01*
X30350134Y-13638692D01*
X30220450Y-13444606D01*
X30055394Y-13279550D01*
X29861308Y-13149866D01*
X29645652Y-13060539D01*
X29416712Y-13015000D01*
X29183288Y-13015000D01*
X28954348Y-13060539D01*
X28738692Y-13149866D01*
X28544606Y-13279550D01*
X28379550Y-13444606D01*
X28262000Y-13620532D01*
X28262000Y-13437423D01*
X28265686Y-13400000D01*
X28262000Y-13362574D01*
X28250974Y-13250622D01*
X28207402Y-13106985D01*
X28158235Y-13015000D01*
X28136645Y-12974607D01*
X28065279Y-12887648D01*
X28041422Y-12858578D01*
X28012352Y-12834721D01*
X26699157Y-11521527D01*
X26735000Y-11341335D01*
X26735000Y-11058665D01*
X26679853Y-10781426D01*
X26571680Y-10520273D01*
X26414637Y-10285241D01*
X26214759Y-10085363D01*
X25979727Y-9928320D01*
X25718574Y-9820147D01*
X25441335Y-9765000D01*
X25158665Y-9765000D01*
X24881426Y-9820147D01*
X24620273Y-9928320D01*
X24385241Y-10085363D01*
X24185363Y-10285241D01*
X24028320Y-10520273D01*
X23920147Y-10781426D01*
X23865000Y-11058665D01*
X660000Y-11058665D01*
X660000Y-8448061D01*
X9915000Y-8448061D01*
X9915000Y-8651939D01*
X9954774Y-8851898D01*
X10032795Y-9040256D01*
X10146063Y-9209774D01*
X10290226Y-9353937D01*
X10459744Y-9467205D01*
X10648102Y-9545226D01*
X10848061Y-9585000D01*
X11051939Y-9585000D01*
X11251898Y-9545226D01*
X11440256Y-9467205D01*
X11609774Y-9353937D01*
X11651711Y-9312000D01*
X14748289Y-9312000D01*
X14790226Y-9353937D01*
X14959744Y-9467205D01*
X15148102Y-9545226D01*
X15348061Y-9585000D01*
X15551939Y-9585000D01*
X15751898Y-9545226D01*
X15940256Y-9467205D01*
X16109774Y-9353937D01*
X16253937Y-9209774D01*
X16367205Y-9040256D01*
X16445226Y-8851898D01*
X16485000Y-8651939D01*
X16485000Y-8448061D01*
X16445226Y-8248102D01*
X16367205Y-8059744D01*
X16253937Y-7890226D01*
X16109774Y-7746063D01*
X15940256Y-7632795D01*
X15751898Y-7554774D01*
X15551939Y-7515000D01*
X15348061Y-7515000D01*
X15148102Y-7554774D01*
X14959744Y-7632795D01*
X14790226Y-7746063D01*
X14748289Y-7788000D01*
X11651711Y-7788000D01*
X11609774Y-7746063D01*
X11440256Y-7632795D01*
X11251898Y-7554774D01*
X11051939Y-7515000D01*
X10848061Y-7515000D01*
X10648102Y-7554774D01*
X10459744Y-7632795D01*
X10290226Y-7746063D01*
X10146063Y-7890226D01*
X10032795Y-8059744D01*
X9954774Y-8248102D01*
X9915000Y-8448061D01*
X660000Y-8448061D01*
X660000Y-6345374D01*
X1834231Y-6345374D01*
X2134411Y-6783828D01*
X2713356Y-7094296D01*
X3341746Y-7285852D01*
X3995431Y-7351134D01*
X4649293Y-7287634D01*
X5278203Y-7097792D01*
X5857992Y-6788904D01*
X5865589Y-6783828D01*
X6165769Y-6345374D01*
X4000000Y-4179605D01*
X1834231Y-6345374D01*
X660000Y-6345374D01*
X660000Y-4110078D01*
X712366Y-4649293D01*
X902208Y-5278203D01*
X1211096Y-5857992D01*
X1216172Y-5865589D01*
X1654626Y-6165769D01*
X3820395Y-4000000D01*
X4179605Y-4000000D01*
X6345374Y-6165769D01*
X6783828Y-5865589D01*
X7029753Y-5407000D01*
X7545000Y-5407000D01*
X7545000Y-5957000D01*
X7591585Y-6175987D01*
X7679997Y-6381678D01*
X7806839Y-6566169D01*
X7967236Y-6722369D01*
X8155024Y-6844276D01*
X8378126Y-6924119D01*
X8553000Y-6797954D01*
X8553000Y-5407000D01*
X7545000Y-5407000D01*
X7029753Y-5407000D01*
X7094296Y-5286644D01*
X7285852Y-4658254D01*
X7291370Y-4603000D01*
X7545000Y-4603000D01*
X7545000Y-5153000D01*
X8553000Y-5153000D01*
X8553000Y-3762046D01*
X8807000Y-3762046D01*
X8807000Y-5153000D01*
X8827000Y-5153000D01*
X8827000Y-5407000D01*
X8807000Y-5407000D01*
X8807000Y-6797954D01*
X8981874Y-6924119D01*
X9204976Y-6844276D01*
X9392764Y-6722369D01*
X9553161Y-6566169D01*
X9680003Y-6381678D01*
X9768415Y-6175987D01*
X9815000Y-5957000D01*
X9815000Y-5666904D01*
X9829978Y-5673108D01*
X10015448Y-5710000D01*
X10204552Y-5710000D01*
X10390022Y-5673108D01*
X10564731Y-5600741D01*
X10721964Y-5495681D01*
X10855681Y-5361964D01*
X10960741Y-5204731D01*
X11033108Y-5030022D01*
X11070000Y-4844552D01*
X11070000Y-4655448D01*
X14930000Y-4655448D01*
X14930000Y-4844552D01*
X14966892Y-5030022D01*
X15039259Y-5204731D01*
X15144319Y-5361964D01*
X15278036Y-5495681D01*
X15435269Y-5600741D01*
X15609978Y-5673108D01*
X15795448Y-5710000D01*
X15984552Y-5710000D01*
X16170022Y-5673108D01*
X16185000Y-5666904D01*
X16185000Y-5957000D01*
X16231585Y-6175987D01*
X16319997Y-6381678D01*
X16446839Y-6566169D01*
X16607236Y-6722369D01*
X16795024Y-6844276D01*
X17018126Y-6924119D01*
X17193000Y-6797954D01*
X17193000Y-5407000D01*
X17447000Y-5407000D01*
X17447000Y-6797954D01*
X17621874Y-6924119D01*
X17844976Y-6844276D01*
X18032764Y-6722369D01*
X18193161Y-6566169D01*
X18320003Y-6381678D01*
X18408415Y-6175987D01*
X18455000Y-5957000D01*
X18455000Y-5407000D01*
X17447000Y-5407000D01*
X17193000Y-5407000D01*
X17173000Y-5407000D01*
X17173000Y-5153000D01*
X17193000Y-5153000D01*
X17193000Y-3762046D01*
X17447000Y-3762046D01*
X17447000Y-5153000D01*
X18455000Y-5153000D01*
X18455000Y-4970512D01*
X30159783Y-4970512D01*
X30201213Y-5250130D01*
X30296397Y-5516292D01*
X30363329Y-5641514D01*
X30607298Y-5713097D01*
X31420395Y-4900000D01*
X30607298Y-4086903D01*
X30363329Y-4158486D01*
X30242429Y-4413996D01*
X30173700Y-4688184D01*
X30159783Y-4970512D01*
X18455000Y-4970512D01*
X18455000Y-4603000D01*
X18408415Y-4384013D01*
X18320003Y-4178322D01*
X18193161Y-3993831D01*
X18104303Y-3907298D01*
X30786903Y-3907298D01*
X31600000Y-4720395D01*
X32413097Y-3907298D01*
X32341514Y-3663329D01*
X32086004Y-3542429D01*
X31811816Y-3473700D01*
X31529488Y-3459783D01*
X31249870Y-3501213D01*
X30983708Y-3596397D01*
X30858486Y-3663329D01*
X30786903Y-3907298D01*
X18104303Y-3907298D01*
X18032764Y-3837631D01*
X17844976Y-3715724D01*
X17621874Y-3635881D01*
X17447000Y-3762046D01*
X17193000Y-3762046D01*
X17018126Y-3635881D01*
X16795024Y-3715724D01*
X16607236Y-3837631D01*
X16462884Y-3978206D01*
X16344731Y-3899259D01*
X16170022Y-3826892D01*
X15984552Y-3790000D01*
X15795448Y-3790000D01*
X15609978Y-3826892D01*
X15435269Y-3899259D01*
X15278036Y-4004319D01*
X15144319Y-4138036D01*
X15039259Y-4295269D01*
X14966892Y-4469978D01*
X14930000Y-4655448D01*
X11070000Y-4655448D01*
X11033108Y-4469978D01*
X10960741Y-4295269D01*
X10855681Y-4138036D01*
X10721964Y-4004319D01*
X10564731Y-3899259D01*
X10390022Y-3826892D01*
X10204552Y-3790000D01*
X10015448Y-3790000D01*
X9829978Y-3826892D01*
X9655269Y-3899259D01*
X9537116Y-3978206D01*
X9392764Y-3837631D01*
X9204976Y-3715724D01*
X8981874Y-3635881D01*
X8807000Y-3762046D01*
X8553000Y-3762046D01*
X8378126Y-3635881D01*
X8155024Y-3715724D01*
X7967236Y-3837631D01*
X7806839Y-3993831D01*
X7679997Y-4178322D01*
X7591585Y-4384013D01*
X7545000Y-4603000D01*
X7291370Y-4603000D01*
X7351134Y-4004569D01*
X7287634Y-3350707D01*
X7097792Y-2721797D01*
X6788904Y-2142008D01*
X6783828Y-2134411D01*
X6345374Y-1834231D01*
X4179605Y-4000000D01*
X3820395Y-4000000D01*
X3806253Y-3985858D01*
X3985858Y-3806253D01*
X4000000Y-3820395D01*
X6165769Y-1654626D01*
X5873003Y-1227000D01*
X7545000Y-1227000D01*
X7545000Y-1527000D01*
X7591585Y-1745987D01*
X7679997Y-1951678D01*
X7806839Y-2136169D01*
X7967236Y-2292369D01*
X8155024Y-2414276D01*
X8378126Y-2494119D01*
X8553000Y-2367954D01*
X8553000Y-1227000D01*
X8807000Y-1227000D01*
X8807000Y-2367954D01*
X8981874Y-2494119D01*
X9204976Y-2414276D01*
X9392764Y-2292369D01*
X9553161Y-2136169D01*
X9680003Y-1951678D01*
X9768415Y-1745987D01*
X9815000Y-1527000D01*
X9815000Y-1227000D01*
X16185000Y-1227000D01*
X16185000Y-1527000D01*
X16231585Y-1745987D01*
X16319997Y-1951678D01*
X16446839Y-2136169D01*
X16607236Y-2292369D01*
X16795024Y-2414276D01*
X17018126Y-2494119D01*
X17193000Y-2367954D01*
X17193000Y-1227000D01*
X17447000Y-1227000D01*
X17447000Y-2367954D01*
X17621874Y-2494119D01*
X17844976Y-2414276D01*
X18032764Y-2292369D01*
X18193161Y-2136169D01*
X18320003Y-1951678D01*
X18408415Y-1745987D01*
X18455000Y-1527000D01*
X18455000Y-1227000D01*
X17447000Y-1227000D01*
X17193000Y-1227000D01*
X16185000Y-1227000D01*
X9815000Y-1227000D01*
X8807000Y-1227000D01*
X8553000Y-1227000D01*
X7545000Y-1227000D01*
X5873003Y-1227000D01*
X5865589Y-1216172D01*
X5286644Y-905704D01*
X4658254Y-714148D01*
X4116057Y-660000D01*
X7547765Y-660000D01*
X7545000Y-673000D01*
G36*
X19840226Y-70653937D02*
G01*
X20009744Y-70767205D01*
X20041861Y-70780508D01*
X12607370Y-78215000D01*
X12548061Y-78215000D01*
X12348102Y-78254774D01*
X12159744Y-78332795D01*
X11990226Y-78446063D01*
X11846063Y-78590226D01*
X11732795Y-78759744D01*
X11654774Y-78948102D01*
X11615000Y-79148061D01*
X11615000Y-79351939D01*
X11654774Y-79551898D01*
X11732795Y-79740256D01*
X11846063Y-79909774D01*
X11990226Y-80053937D01*
X12041205Y-80088000D01*
X11875630Y-80088000D01*
X9641455Y-77853825D01*
X9663513Y-77781111D01*
X9692185Y-77490000D01*
X9663513Y-77198889D01*
X9578599Y-76918966D01*
X9440706Y-76660986D01*
X9255134Y-76434866D01*
X9225313Y-76410393D01*
X9294180Y-76389502D01*
X9404494Y-76330537D01*
X9501185Y-76251185D01*
X9580537Y-76154494D01*
X9639502Y-76044180D01*
X9675812Y-75924482D01*
X9688072Y-75800000D01*
X9685000Y-75235750D01*
X9526250Y-75077000D01*
X8327000Y-75077000D01*
X8327000Y-75097000D01*
X8073000Y-75097000D01*
X8073000Y-75077000D01*
X8053000Y-75077000D01*
X8053000Y-74823000D01*
X8073000Y-74823000D01*
X8073000Y-73623750D01*
X8327000Y-73623750D01*
X8327000Y-74823000D01*
X9526250Y-74823000D01*
X9685000Y-74664250D01*
X9688072Y-74100000D01*
X9675812Y-73975518D01*
X9639502Y-73855820D01*
X9580537Y-73745506D01*
X9501185Y-73648815D01*
X9404494Y-73569463D01*
X9294180Y-73510498D01*
X9174482Y-73474188D01*
X9050000Y-73461928D01*
X8485750Y-73465000D01*
X8327000Y-73623750D01*
X8073000Y-73623750D01*
X7914250Y-73465000D01*
X7350000Y-73461928D01*
X7225518Y-73474188D01*
X7105820Y-73510498D01*
X6995506Y-73569463D01*
X6898815Y-73648815D01*
X6819463Y-73745506D01*
X6785250Y-73809513D01*
X6785250Y-73134021D01*
X6909744Y-73217205D01*
X7098102Y-73295226D01*
X7298061Y-73335000D01*
X7501939Y-73335000D01*
X7701898Y-73295226D01*
X7890256Y-73217205D01*
X8059774Y-73103937D01*
X8203937Y-72959774D01*
X8317205Y-72790256D01*
X8395226Y-72601898D01*
X8435000Y-72401939D01*
X8435000Y-72342630D01*
X10165631Y-70612000D01*
X19798289Y-70612000D01*
X19840226Y-70653937D01*
X19840226Y-70653937D01*
G37*
X19840226Y-70653937D02*
X20009744Y-70767205D01*
X20041861Y-70780508D01*
X12607370Y-78215000D01*
X12548061Y-78215000D01*
X12348102Y-78254774D01*
X12159744Y-78332795D01*
X11990226Y-78446063D01*
X11846063Y-78590226D01*
X11732795Y-78759744D01*
X11654774Y-78948102D01*
X11615000Y-79148061D01*
X11615000Y-79351939D01*
X11654774Y-79551898D01*
X11732795Y-79740256D01*
X11846063Y-79909774D01*
X11990226Y-80053937D01*
X12041205Y-80088000D01*
X11875630Y-80088000D01*
X9641455Y-77853825D01*
X9663513Y-77781111D01*
X9692185Y-77490000D01*
X9663513Y-77198889D01*
X9578599Y-76918966D01*
X9440706Y-76660986D01*
X9255134Y-76434866D01*
X9225313Y-76410393D01*
X9294180Y-76389502D01*
X9404494Y-76330537D01*
X9501185Y-76251185D01*
X9580537Y-76154494D01*
X9639502Y-76044180D01*
X9675812Y-75924482D01*
X9688072Y-75800000D01*
X9685000Y-75235750D01*
X9526250Y-75077000D01*
X8327000Y-75077000D01*
X8327000Y-75097000D01*
X8073000Y-75097000D01*
X8073000Y-75077000D01*
X8053000Y-75077000D01*
X8053000Y-74823000D01*
X8073000Y-74823000D01*
X8073000Y-73623750D01*
X8327000Y-73623750D01*
X8327000Y-74823000D01*
X9526250Y-74823000D01*
X9685000Y-74664250D01*
X9688072Y-74100000D01*
X9675812Y-73975518D01*
X9639502Y-73855820D01*
X9580537Y-73745506D01*
X9501185Y-73648815D01*
X9404494Y-73569463D01*
X9294180Y-73510498D01*
X9174482Y-73474188D01*
X9050000Y-73461928D01*
X8485750Y-73465000D01*
X8327000Y-73623750D01*
X8073000Y-73623750D01*
X7914250Y-73465000D01*
X7350000Y-73461928D01*
X7225518Y-73474188D01*
X7105820Y-73510498D01*
X6995506Y-73569463D01*
X6898815Y-73648815D01*
X6819463Y-73745506D01*
X6785250Y-73809513D01*
X6785250Y-73134021D01*
X6909744Y-73217205D01*
X7098102Y-73295226D01*
X7298061Y-73335000D01*
X7501939Y-73335000D01*
X7701898Y-73295226D01*
X7890256Y-73217205D01*
X8059774Y-73103937D01*
X8203937Y-72959774D01*
X8317205Y-72790256D01*
X8395226Y-72601898D01*
X8435000Y-72401939D01*
X8435000Y-72342630D01*
X10165631Y-70612000D01*
X19798289Y-70612000D01*
X19840226Y-70653937D01*
G36*
X46730791Y-65591578D02*
G01*
X40614571Y-71707799D01*
X36426226Y-71707799D01*
X36507107Y-71641422D01*
X36530969Y-71612346D01*
X46212352Y-61930964D01*
X46241422Y-61907107D01*
X46336645Y-61791077D01*
X46407402Y-61658700D01*
X46450974Y-61515063D01*
X46451228Y-61512483D01*
X46503937Y-61459774D01*
X46617205Y-61290256D01*
X46695226Y-61101898D01*
X46730791Y-60923100D01*
X46730791Y-65591578D01*
X46730791Y-65591578D01*
G37*
X46730791Y-65591578D02*
X40614571Y-71707799D01*
X36426226Y-71707799D01*
X36507107Y-71641422D01*
X36530969Y-71612346D01*
X46212352Y-61930964D01*
X46241422Y-61907107D01*
X46336645Y-61791077D01*
X46407402Y-61658700D01*
X46450974Y-61515063D01*
X46451228Y-61512483D01*
X46503937Y-61459774D01*
X46617205Y-61290256D01*
X46695226Y-61101898D01*
X46730791Y-60923100D01*
X46730791Y-65591578D01*
M02*
